<?xml version="1.0" encoding="utf-8"?>
<!-- Generator: Adobe Illustrator 19.2.1, SVG Export Plug-In . SVG Version: 6.00 Build 0)  -->
<svg version="1.1" id="Layer_1" xmlns="http://www.w3.org/2000/svg" xmlns:xlink="http://www.w3.org/1999/xlink" x="0px" y="0px"
	 viewBox="0 0 343.1 335.6" style="enable-background:new 0 0 343.1 335.6;" xml:space="preserve">
<style type="text/css">
	.st0{fill:#F99D1C;}
	.st1{fill:#003375;}
	.st2{fill:#FFFFFF;}
	.st3{fill:#FFD046;}
</style>
<g>
	<g>
		<g>
			<g>
				<g>
					<path class="st0" d="M151.7,60.6c0.5,0.5,1,1,1.4,1.5c2.2,2,4.6,4.1,6.5,5.7c0.1,0.1,0.2,0.2,0.4,0.3c0.2,0.2,0.5,0.4,0.8,0.5
						l7.7,5.3l6.3,4.3l0,0c1,0.7,2,1.4,2.8,2.2c2.1,1.7,4.5,3.8,7,5.9l0,0c2.7,2.1,6.7,5.5,10.9,7.1c0.2,0.1,0.4,0.1,0.6,0.2
						c0.2,0.1,0.4,0.2,0.6,0.2c0,0,0.1,0,0.1,0c2.3,0.8,5,1.5,7.9,1.8h0v0c0.9,0.1,2.7,0.3,4.8,0.3c0.7,0,1.4,0,2.2-0.1h0l0,0
						c2.4-0.2,4.5-0.6,6.8-1.5c0.1,0,0.2-0.1,0.2-0.1l0,0l0,0c2.2-0.9,3.7-1.8,4.4-2.3h0l0,0c0.9-0.7,1.9-1.4,2.7-2.3l0,0
						c1-1.1,2.9-3.4,3.9-7.1c0.3-1.3,0.5-2.7,0.6-4.3v0c0-0.3,0-0.6,0-1c0-1.8-0.1-4.4-1.2-6.3c-0.3-0.6-0.8-1.2-1.2-1.7l0,0
						c-1.6-1.7-3.3-2.3-4.5-2.4c-0.4,0-1,0-1.6,0.1c-0.2,0-0.4,0.1-0.7,0.2c-2.1,0.6-3.6,2.3-4.1,3.2c-0.6,1-0.9,1.7-1.3,2.4
						c-0.4,0.7-0.9,1-1.4,1c-0.7,0-1.2-0.6-1.2-1.6c0-0.1,0-0.3,0-0.5c0.1-0.9,0.7-2.3,1.5-3.6c0.7-1.3,2.6-4.3,6.9-5.2
						c0,0,0.9-0.3,2.8-0.3h0c0.6,0,1.5,0.1,2.4,0.4l0,0C217.3,38.3,194.4,21,167.8,21c-7.7,0-15.3,1.5-22.3,4.2
						c0.3,1.1,0.5,2.4,0.5,3.7c-1.2-0.7-2.5-0.8-2.5-0.8s4.3,7-2.3,15.4c0.2-2.3-1.6-3.1-2.9-2.8c-1.2,0.3-1.6,1.2-1.7,2.2v0
						c0,0.6,0.1,1.2,0.3,1.6l0,0c0,0.1,0,0.1,0.1,0.2c0,0,0.1,0.1,0.1,0.1c0,0,0,0,0,0c0,0,0.1,0.1,0.1,0.1c0,0,0.1,0.1,0.1,0.2
						c0,0,0,0,0,0c0.1,0.1,0.1,0.2,0.2,0.2c0,0,0,0,0,0v0c0.1,0.1,0.2,0.2,0.2,0.2c0,0,0,0,0,0c0.6,0.5,1.2,1,2,1.5c0,0,0.1,0,0.1,0
						l0,0c4.3,1.7,5.7,4.9,8.2,9C149.2,58,151.1,59.9,151.7,60.6z"/>
					<path class="st0" d="M229.8,94.1c-0.1,0.1-0.2,0.2-0.3,0.4c-0.1,0.1-0.2,0.3-0.4,0.4c-5.6,6.2-14.9,10.1-28,10.1h0
						c-0.2,0-0.4,0-0.6,0h0c0,0,0,0.1,0.1,0.1c0.1,0.2,0.2,0.4,0.3,0.5c0,0.1,0.1,0.2,0.1,0.3c0.5,1.1,1.2,2.7,2,5.2l0.1,0.2
						c3.1,6.6,3.1,11.1,3.9,16c0,0.2,0.1,0.4,0.1,0.7c0.3,1.3,0.7,2.6,1.3,4.1c0.3,0.5,2.1,3.4,3.2,5.4c11.6-11.7,19.5-28,20.2-46
						l0,0c0,0,0,0,0,0c0,0.1-0.1,0.1-0.1,0.2c-0.1,0.2-0.2,0.4-0.3,0.5c-0.1,0.1-0.1,0.2-0.2,0.3c-0.1,0.1-0.2,0.3-0.3,0.4
						c-0.1,0.1-0.2,0.3-0.3,0.4c-0.1,0.1-0.2,0.3-0.3,0.4C230,93.8,229.9,94,229.8,94.1z"/>
				</g>
				<g>
					<g>
						<path class="st1" d="M191.5,13.7c-14.3-4.3-29.2-4-42.5,0.1c-0.1,0-0.7,0.2-1,0.3c12.9-3.6,27-3.6,40.8,0.5
							c38.7,11.7,61.3,53.4,49.6,92.1c-8,26.3-29.1,45.2-54.1,51.5c0,0,0,0,0,0c29.2-4.8,49-26.5,56.4-51.1
							C252.9,67,230.2,25.3,191.5,13.7z"/>
						<path class="st1" d="M231.3,109.2c2.5-8.3,3.5-16.4,3.3-24.1c-1.1-37.7-30.7-67.8-66.4-67.8c-8.2,0-16.3,1.6-23.7,4.6
							c0.2,0.5,0.4,1,0.6,1.6c0,0.1,0,0.1,0,0.2c0.1,0.2,0.1,0.4,0.2,0.6c0,0.1,0,0.2,0.1,0.2c0.1,0.2,0.1,0.5,0.2,0.7
							c0.3,1.2,0.5,2.4,0.6,3.8c-1.2-0.7-2.5-0.8-2.5-0.8s0.3,0.4,0.5,1.2c5.5-0.9,14.6-0.9,20.3,1.3c-6.9-0.5-14.5-0.1-19.7,0.8
							c0.5,2.8,0.4,7.3-3.5,12.2c0.2-2.3-1.6-3.1-2.9-2.8c-1.2,0.3-1.6,1.2-1.7,2.2v0c0,0.6,0.1,1.2,0.3,1.6l0,0
							c0,0.1,0,0.1,0.1,0.2c0,0,0.1,0.1,0.1,0.1c0,0,0,0,0,0c0,0,0.1,0.1,0.1,0.1c0,0,0.1,0.1,0.1,0.2c0,0,0,0,0,0
							c0.1,0.1,0.1,0.2,0.2,0.2c0,0,0,0,0,0v0c0.1,0.1,0.2,0.2,0.2,0.2c0,0,0,0,0,0c0.6,0.5,1.2,1,2,1.5c0,0,0.1,0,0.1,0l0,0
							c1.1-1.1,5.2-3.5,10.2-5.7h0c1.2-2.4,3.7-3.7,3.7-3.7c-0.7,0.5-1,1.7-1.2,2.7c0,0,0,0,0,0c5.4-2.1,11.5-3.8,15.9-3.1
							c-1.4,1.7-1.8,4.3-1.8,4.3c1.1-1.7,2.7-2.8,4.1-3.5c-3.2,7.5-6.6,21.4-6,32c0,0.3,0,0.6,0.1,0.8l3.6,2.5l6.3,4.3l0,0
							c1,0.7,2,1.4,2.8,2.2c0.1,0.1,0.2,0.1,0.3,0.2c-0.2-0.4-0.3-0.9-0.4-1.1c-1-3.2-1.8-6.1-2.4-9.2c-0.7-0.3-3.3-1.1-6.1-0.3
							c0,0,2.4-2.1,5.4-1.8c0.1,0,0.2,0,0.3,0c-0.5-3-0.8-6-0.9-8.9c-1.2-0.3-3.5-0.6-5.8-0.2c0,0,2.3-2.1,5.3-1.5
							c0.2,0,0.3,0.1,0.4,0.1c-0.2-7.1,0.5-13.4,1.6-17.9c0.4,1.1,0.9,2.8,1.2,5.2c0,0,0.8-2.7,0.8-5c2.9,1.8,6.1,5.2,9.2,9.3
							c2-1.1,4-4,4-4c-0.4,2.6-2.1,5.3-2.6,6c1.7,2.4,3.3,4.9,4.9,7.5c1.9-1.2,3.8-3.8,3.8-3.8c-0.4,2.6-2.1,5.2-2.6,5.9
							c1.4,2.4,2.6,4.9,3.6,7.1l3.4-3.6c-0.5,1.9-2,3.9-2.8,4.8c2,4.5,3.1,8.2,2.8,10.1c8.5-13.8,4.8-27.3-1.3-35.6
							c-2.5-3.6-6-6.6-10.4-8.5c5.1,1.4,9.1,5,10.1,6c0.9,0.3,1.9,0.8,2.9,1.3c0-1.9-0.9-4.3-0.9-4.3c1.7,1.3,2.8,4.4,3.1,5.5
							c0.9,0.5,1.8,1.1,2.7,1.6c0.7,0.4,1.4,0.9,2,1.3c0-1.8-0.7-3.2-0.7-3.2c1,1,1.8,2.8,2.2,4.3c2,1.5,3.5,2.9,3.9,4.4
							c0.9-3,0.6-6.8-0.8-10.4c11.1,12.2,17.9,28.7,17.9,47c0,19.2-8.1,36.4-20.2,48.7l0,0c-0.3,0.3-0.5,0.5-0.8,0.8c0,0,0,0,0,0
							c-0.3,0.2-0.5,0.5-0.8,0.7c-0.1,0.1-0.1,0.1-0.2,0.2c-0.2,0.2-0.4,0.4-0.6,0.5c-0.1,0.1-0.2,0.1-0.2,0.2
							c-0.2,0.2-0.4,0.3-0.5,0.5c-0.1,0.1-0.2,0.1-0.2,0.2c-0.2,0.2-0.4,0.3-0.5,0.5c-0.1,0.1-0.2,0.1-0.2,0.2
							c-0.2,0.2-0.4,0.3-0.6,0.5c-0.1,0.1-0.1,0.1-0.2,0.2c-0.2,0.2-0.4,0.3-0.6,0.5c-0.1,0.1-0.1,0.1-0.2,0.2
							c-0.2,0.2-0.4,0.3-0.6,0.5c-0.1,0.1-0.1,0.1-0.2,0.1c-0.2,0.2-0.4,0.3-0.6,0.5c-0.1,0-0.1,0.1-0.2,0.1
							c-0.2,0.2-0.5,0.3-0.7,0.5c0,0-0.1,0.1-0.1,0.1c-0.2,0.2-0.5,0.3-0.7,0.5c0,0-0.1,0.1-0.1,0.1c-0.2,0.2-0.5,0.3-0.7,0.5
							c0,0-0.1,0-0.1,0.1c-0.3,0.2-0.5,0.4-0.8,0.5c0,0-0.1,0-0.1,0.1c-0.3,0.2-0.5,0.4-0.8,0.5c0,0,0,0-0.1,0
							c-0.3,0.2-0.6,0.4-0.8,0.5c0,0,0,0,0,0c-0.3,0.2-0.6,0.4-0.9,0.5c0,0,0,0,0,0c-1.8,1.1-3.7,2.1-5.6,2.9c0,0,0,0,0,0
							c-10.9,5.1-23.4,7.4-37.1,6.2c0,0,0,0,0,0c-0.4,0-0.8-0.1-1.2-0.1c0,0,0,0,0,0c-0.6-0.1-1.2-0.1-1.8-0.2c0,0,0,0,0,0
							c-1.7-0.2-3.5-0.5-5.3-0.8c14.1,4.2,29.3,2.6,42.2-1.6C209,147.1,224.6,131.3,231.3,109.2z M159.6,21.6c1.3-0.2,2.7-0.3,4-0.4
							c0.3,0.1,0.6,0.2,0.6,0.2c0.3-0.1,0.5-0.2,0.8-0.3c0.6,0,1.2,0,1.8-0.1c1.1,0.2,1.9,0.7,1.9,0.7c-2.2-0.4-2.7,0.4-2.7,0.4
							c2.5,0.6,4.3,2.6,5.5,4.7C169.2,24.2,164.3,22.4,159.6,21.6z M176.2,26.9c-0.1-2.6-0.9-4.4-1.9-5.5c2.3,0.3,4.6,0.6,6.9,1.1
							C178.3,23.7,176.9,25.7,176.2,26.9z M181.4,28.2c2-1,3.9-1.6,5.5-1.9c-0.4-0.7-1.2-1.4-1.2-1.4c0.8,0.2,1.6,0.7,2.2,1.2
							c0.7-0.1,1.4-0.2,2.1-0.2c-0.4-0.6-0.9-0.9-0.9-0.9c0.6,0.2,1.1,0.5,1.6,0.9c0.3,0,0.6,0,0.9,0c1.5,0.6,2.9,1.3,4.3,2
							C191.1,26.9,185.8,26.9,181.4,28.2z"/>
					</g>
					<g>
						<path class="st2" d="M172.8,60.1c-0.3-0.1-1.1-0.1-1.1-0.1c-0.1,2.5,0.3,7.6,0.3,7.6s0.5-0.3,1.5-0.3
							C173.4,67.1,172.8,62.3,172.8,60.1z"/>
						<path class="st2" d="M161.4,33.8c6.4-1.4,10.8,0,10.8,0C167.3,31,161.4,33.8,161.4,33.8z"/>
						<path class="st2" d="M172,70.6l0.6,4l2.1,1.2c-0.4-1-0.9-4.8-0.9-4.8C173.2,70.6,172,70.6,172,70.6z"/>
						<path class="st2" d="M172.9,48.7l-0.3-2.4c-0.8,5.1-1.1,10-1,10.9c0,0,0.9,0,1.2,0C172.7,53.3,172.6,51.7,172.9,48.7z"/>
						<path class="st2" d="M195.6,30.2c-5.3-1.1-11.7-1.3-17.7,1.2c0,0,2.7-0.9,7.9-0.9c7.9,0.4,11.1,5.5,11.1,5.5
							c-1.2-2.6-2.9-4-4.3-4.9c0.2,0,0.4,0.1,0.6,0.1c7.4,2.1,10.6,8.3,10.6,8.3c-0.9-3.3-2.8-5.5-4.5-6.8
							c4.1,1.7,9.9,6.2,12.6,12.6C211.9,45.4,209.8,33.3,195.6,30.2z"/>
						<path class="st2" d="M178.1,34.7c0,0,1.8,0.5,4.5,1.6l-0.3-0.1c0.1,0,0.4,0.1,0.8,0.3c0,0,0.1,0,0.1,0.1
							c1.5,0.7,4.1,2.7,4.6,7.6c0.1-0.3,0.7-3-0.6-5.4c0.3,0.2,0.6,0.4,0.9,0.6c2.5,2,5.3,5.6,4.9,12.6c0,0,1.4-5-0.2-8.9
							c0,0,0.1,0.1,0.1,0.1c2.3,2.5,6.3,7.7,4.5,18.2c0,0,2-5,1.7-9.7c2.2,4.8,3.9,12.1,2.7,19.8c0,0,4.1-11.5-2.9-23.7
							C195.3,41.4,187,35.7,178.1,34.7z"/>
						<path class="st2" d="M175.5,29.7c0,0,0-0.1,0-0.2l0.1-0.3c0,0,0-0.1,0-0.2l-0.1,0.4c-0.1-1.4-1.1-8.1-5.8-8.6
							C173.8,21.9,175.5,29.5,175.5,29.7z"/>
						<path class="st2" d="M186.4,23.7c-8-0.2-9.8,6.1-9.8,6.1C176.6,29.7,180.1,23.9,186.4,23.7z"/>
						<path class="st2" d="M149.3,25.8c14.2-3.9,23.1,3.9,23.1,3.9C161.8,19.2,149.3,25.8,149.3,25.8z"/>
					</g>
				</g>
			</g>
			<path class="st2" d="M188.7,14.7c-13.8-4.2-27.8-4.1-40.8-0.5l0,0c-2.3,0.7-4.5,1.5-6.7,2.4c0.7,0.8,2.1,2.6,3.3,5.3v0
				c7.4-3,15.5-4.6,23.7-4.6c35.8,0,65.3,30.1,66.4,67.8c0.3,7.7-0.7,15.8-3.3,24.1c-6.7,22.2-22.3,37.9-41.8,45.2
				c-12.9,4.1-28.1,5.7-42.2,1.6c5.5,2.6,13.8,4.2,20.8,4.2c5.6,0,11-0.6,16.2-1.8c25-6.3,46.1-25.2,54.1-51.5
				C250.1,68,227.5,26.4,188.7,14.7z"/>
		</g>
		<g>
			<g>
				<g>
					<path class="st3" d="M201.1,105c13.1,0,22.4-3.9,28-10.1c0.1-0.1,0.2-0.3,0.4-0.4c0.1-0.1,0.2-0.2,0.3-0.4
						c0.1-0.1,0.2-0.3,0.4-0.4c0.1-0.1,0.2-0.2,0.3-0.4c0.1-0.1,0.2-0.3,0.3-0.4c0.1-0.1,0.2-0.3,0.3-0.4c0.1-0.1,0.1-0.2,0.2-0.3
						c0.1-0.2,0.2-0.4,0.3-0.5c0-0.1,0.1-0.1,0.1-0.2c0.1-0.2,0.3-0.5,0.4-0.7c0,0,0,0,0,0c0.5-0.9,0.9-1.8,1.3-2.8l0,0l0,0
						c0.2-0.5,0.5-1.4,0.6-1.8l0,0c0.1-0.4,0.3-0.9,0.4-1.4c0.1-0.3,0.2-0.7,0.3-1.1c0-0.2,0.1-0.4,0.1-0.6c0.4-1.9,0.7-4.1,0.7-5.9
						c0-0.1,0-0.2,0-0.3l0,0c0-0.4,0-0.8,0-1.3c-0.1-1.3-0.3-2.5-0.7-3.7l0-0.1c-0.1-0.4-0.3-0.8-0.4-1.2c-0.3-0.8-0.7-1.6-1-2.2
						c-0.5-0.8-0.8-1.3-0.9-1.3l0,0c-0.6-0.8-1.3-1.6-2-2.3l0,0l0,0c-2.5-2.2-4.7-2.5-6-2.5h0c-1.8,0-2.8,0.3-2.8,0.3
						c-4.3,0.9-6.2,3.9-6.9,5.2c-0.8,1.3-1.3,2.7-1.5,3.6c0,0.2,0,0.3,0,0.5c0,1,0.6,1.6,1.2,1.6c0.5,0,1-0.3,1.4-1
						c0.4-0.7,0.7-1.4,1.3-2.4c0.5-0.9,2-2.6,4.1-3.2l0,0c0.2-0.1,0.4-0.1,0.7-0.2c0.5-0.1,1.2-0.1,1.6-0.1c1.2,0.1,2.9,0.7,4.5,2.4
						l0,0c0.5,0.5,0.9,1.1,1.2,1.7l0,0c1,1.9,1.2,4.6,1.2,6.3c0,0.4,0,0.8,0,1v0c-0.1,1.6-0.3,3-0.6,4.3l0,0c-1,3.8-2.9,6-3.9,7.1
						l0,0c-0.8,0.9-1.7,1.6-2.7,2.3l0,0h0c-0.7,0.5-2.2,1.4-4.4,2.3l0,0l0,0c-0.1,0-0.2,0-0.2,0.1c-2.3,0.8-4.4,1.3-6.8,1.5l0,0h0
						c-0.7,0.1-1.5,0.1-2.2,0.1c-2.1,0-3.9-0.2-4.8-0.3v0h0c-2.9-0.4-5.6-1-7.9-1.8c0,0-0.1,0-0.1,0c-0.2-0.1-0.4-0.2-0.6-0.2
						c-0.2-0.1-0.4-0.2-0.6-0.2c-4.2-1.6-8.2-5-10.9-7.1l0,0c-2.5-2.1-4.9-4.2-7-5.9c-0.9-0.7-1.8-1.5-2.8-2.2l0,0l-6.3-4.3
						l-7.7-5.3c-0.2-0.2-0.5-0.3-0.8-0.5c-0.1-0.1-0.2-0.2-0.4-0.3c-1.9-1.5-4.4-3.7-6.5-5.7c-0.4-0.5-0.9-1-1.4-1.5
						c-0.6-0.6-2.5-2.5-3.5-4.1c-2.5-4.2-3.9-7.4-8.2-9l0,0c0,0-0.1,0-0.1,0c-0.8-0.5-1.4-0.9-2-1.5c0,0,0,0,0,0
						c-0.1-0.1-0.2-0.2-0.2-0.2v0c0,0,0,0,0,0c-0.1-0.1-0.1-0.2-0.2-0.2c0,0,0,0,0,0c0-0.1-0.1-0.1-0.1-0.2c0,0-0.1-0.1-0.1-0.1
						c0,0,0,0,0,0c0,0-0.1-0.1-0.1-0.1c0-0.1-0.1-0.1-0.1-0.2l0,0c-0.2-0.5-0.3-1-0.3-1.6v0c0.1-1,0.5-1.9,1.7-2.2
						c1.4-0.3,3.2,0.4,2.9,2.8c6.6-8.4,2.3-15.4,2.3-15.4s1.3,0.1,2.5,0.8c-0.5-8.2-5.3-12.9-5.3-12.9s0.2-3.4-0.2-5.4
						c-0.2-1.2-0.9-2.3-2.1-2h0c0,0,0,0,0,0c0,0-0.1,0-0.1,0c-0.6,0.2-1.1,0.4-1.7,0.6c-0.8,0.3-1.6,0.6-2.3,0.9
						c-0.6,0.2-1.8,0.8-2.1,0.6c0,0-3.6-3.1-11.4-2.5c-5.4-0.8-11-0.3-13,1.1c-0.2-0.1-0.3-0.2-0.5-0.3c-1.1-0.6-2.1-1.1-3-1.8
						c0,0,0,0-0.1,0c-1.4-0.8-2.9-1.6-4-1.7c-0.5,0-0.9,0.1-1.3,0.3c-0.4,0.2-1,0.7-1.5,1.6c0,0-0.8,1.9-0.8,4.3
						c0,0.9,0.1,1.9,0.5,2.9c-0.2,0.2-6.9,5.7-6.9,11c0,0.6,0.1,1.2,0.3,1.9c0,0,0.4,0.7,1.1,0.7c0.1,0,0.3,0,0.4-0.1
						c-0.1,0.3-1.4,3.8-1.4,7.7c0,2.6,0.5,5.3,2.3,7.4c0,0,0.5,0.4,1.1,0.4c0.5,0,1-0.2,1.5-1c-0.1,0.3-0.5,2.2-1,4.5
						c-0.5,2.5-1.2,5.3-1.6,6.8c-0.5,2.2-1,5.3-1,8c0,1,0.1,2,0.2,2.8c0,0-1.7,4.4-1.7,14.1c0,2.1,0.1,4.6,0.3,7.2
						c0.5,5.2,2.7,15.7,11.7,24c0,0,0.4,0.4,1.1,1c2.1,2,6.3,6.6,6.9,12.2c0,0.3,0,0.6,0,0.9c0,3.1-2.9,13.2-3.8,17.4l-2.5,2.6
						c-1.4-0.7-2.6-0.9-3.6-0.9c-2.9,0-4.4,2-4.5,2.1c-0.8-0.1-1.5-0.2-2.1-0.2c-2.4,0-3.9,0.8-4.8,2c-0.9,1.2-1.2,2.8-1.2,4.4
						c0,3.3,1.2,6.7,1.3,7.1v0h0c0.4,1.1,0.9,2.3,1.5,3.7l0,0v0c0,0,0.3-1.5,0.9-2.9c0.1-0.1,0.1-0.2,0.2-0.2c0.1,0,0.3,0.1,0.3,0.2
						c0.4,1.3,1,2.7,2.3,4.3l0,0v0c0.2-0.9,1.1-2.5,1.8-3.3c0.1-0.2,0.3-0.2,0.4-0.2c0.2,0,0.4,0.1,0.4,0.2c0.4,0.8,1.2,2.3,3.2,3.8
						l0,0v0c0,0,0.4-1.9,1.1-2.4c0.1-0.1,0.3-0.1,0.5-0.1c0.4,0,1.1,0.1,1.9,0.1c0.5,0,0.9,0,1.3,0c0.6,0,1,0,1.1,0.2
						c0.3,0.8,1,1.7,1.6,2.5l0,0l0,0c0.2-0.6,0.5-1.7,1-2.6c0.2-0.4,0.5-0.4,0.6-0.4l0.6,0h23c0.6,0,1.1,0,1.4,0
						c2.2,0,2.9-0.6,4.9-3.2c0.3-0.3,1.1-1.9,1.8-3.8c0.7-2.5,3-5,3.1-5.2c0,0-0.5-1.8-1.1-3.9c-0.6-2.2-1.2-4.7-1.4-6.4
						c-0.2-1.2-1-4.6-1.6-7.1l0.1-0.1c2.4-2.7,6.8-9.4,6.9-9.7c1.7,0.3,3.1,1,4.1,1.7c1,0.7,1.5,1.2,1.6,1.3c0,7.7,7.3,15.6,10.7,18
						c1.7,1.2,3.4,2,4.7,2.4c1.3,0.5,2.2,0.7,2.2,0.8c0.1,0.1,0.2,0.3,0.1,0.5c0,1.4-2.3,2.3-3.6,3.5c-0.6-0.9-2.4-1.2-3.4-1.2
						c-2,0.1-3.1,1.6-3.1,1.6s-1.7-1.4-4.6-0.2c-2.8,1.1-3.6,4-3.5,6.1c14.9,1.8,28.4-0.4,40.1-5.9c-0.1-0.7-0.4-1.5-0.5-1.9
						c-0.5-1-2.8-3.2-3-3.4c-0.2-0.2-0.4-0.5-0.7-0.8h0l0,0c0,0,0,0,0,0l-1.8-2.2c0,0,0,0,0,0l0,0h0h0h0c-0.5-0.7-1-1.4-1.4-2.1v0v0
						l0,0h0c-0.1-0.1-0.1-0.3-0.2-0.4c0,0,0,0,0,0c0-0.1-0.1-0.2-0.1-0.4c0-0.4,0.2-0.6,0.5-0.6c0.2,0,0.5,0.1,0.7,0.4
						c0.5,0.6,1.9,1.8,2.2,2h0c0.5,0.4,5.3,4.3,8.8,7c4.9-2.8,9.4-6.2,13.5-10.2c0.3-0.3,0.5-0.5,0.8-0.8c-1.1-1.9-3-4.8-3.2-5.4
						c-0.5-1.4-1-2.8-1.3-4.1c0-0.2-0.1-0.4-0.1-0.7c-0.8-5-0.8-9.5-3.9-16l-0.1-0.2c-0.8-2.5-1.5-4.1-2-5.2c0-0.1-0.1-0.2-0.1-0.3
						c-0.1-0.2-0.1-0.3-0.3-0.5c0,0,0-0.1-0.1-0.1h0C200.7,105,200.9,105,201.1,105L201.1,105z"/>
					<g>
						<path class="st1" d="M229.5,94.5c0.1-0.1,0.2-0.2,0.3-0.4c0.1-0.1,0.2-0.3,0.4-0.4c0.1-0.1,0.2-0.2,0.3-0.4
							c0.1-0.1,0.2-0.3,0.3-0.4c0.1-0.1,0.2-0.3,0.3-0.4c0.1-0.1,0.1-0.2,0.2-0.3c0.1-0.2,0.2-0.4,0.3-0.5c0-0.1,0.1-0.1,0.1-0.2
							c0.1-0.2,0.3-0.5,0.4-0.7c0,0,0,0,0,0c0.3-0.6,0.7-1.3,0.9-1.9c0,0,0,0,0,0c-1.3-1.7-3-2.2-4.9-2.2c-0.8,1.5-1.7,2.5-2.3,3.2
							l0,0l0,0l0,0l0,0l0,0c0.1-0.1,0.2-0.1,0.3-0.1c0.4,0,1.1,0.3,1.6,0.7c0.5,0.4,0.9,0.9,0.9,1.5c0,0.2-0.1,0.4-0.2,0.7
							c-1.1,1.7-2.6,2.8-3.8,3.7c0.1-0.2,0.2-0.8,0.2-1.4c0-1.1-0.3-2.4-1.8-2.7h0l0,0c-0.7,0.5-2.2,1.4-4.4,2.3l0,0l0,0l0,0l0,0
							l0,0c0.9,0.8,1.6,2.4,1.6,3.8c0,0.2,0,0.4-0.1,0.7c-1.7,0.8-4.2,1.7-6.1,2.2c0-0.2-0.6-3.2-2.5-5.1l0,0h0l0,0l0,0
							c-0.7,0.1-1.5,0.1-2.2,0.1c-2.1,0-3.9-0.2-4.8-0.3l0,0v0c0.2,0.1,4.5,1.8,5,6.1c-1.6,0.2-4.2,0.4-5.8,0.4
							c-1.3-2-2.7-6.7-8.5-8.9l0,0c-4.2-1.6-8.2-5-10.9-7.1l0,0c0.3,0.4,0.8,1,1.7,2.3c2.8,4.4,3.3,8.7,3.3,12.8
							c0,2.1-0.1,4.1-0.1,6.1c0,2.7,0.2,5.2,1.4,7.5v0l0,0c0.8-0.4,2-6.3,2-11.9c0-1.1,0-2.3-0.2-3.3c2.7,4.3,3.2,8,3.2,11.4
							c0,2.4-0.3,4.7-0.3,6.9c0,4.4,1.1,8.8,7.7,14l0,0c-8.4-10.7,1.5-22.8-11.5-38c4.4,3.4,8.1,10,8.7,11l0,0l0,0h0
							c0.2,0,0.4,0,0.6,0c13.1,0,22.4-3.9,28-10.1C229.2,94.8,229.4,94.6,229.5,94.5z"/>
						<path class="st1" d="M233,77c-1,0-2,0.5-2.5,0.9l0,0c0,0.1,0,0.2,0,0.3v0c-0.1,1.4-0.3,2.8-0.5,4l0,0c1.4-0.6,3.9-0.6,5,0.8
							l0,0c0.3-1.5,0.6-3.3,0.7-4.8C235.1,77.7,234.1,77,233,77z"/>
						<path class="st1" d="M227.4,68.5c1-2,2.7-2.7,3.9-2.8c0,0,0,0,0,0c-0.3-0.3-0.5-0.6-0.8-0.8l0,0l0,0c-1.3-1.1-2.4-1.7-3.4-2.1
							c-1.6,0.8-2,2.9-1.9,4.3C225.9,67.4,226.7,67.8,227.4,68.5L227.4,68.5z"/>
						<path class="st1" d="M214.5,73.6c0.5,0,1-0.3,1.4-1c0.4-0.7,0.7-1.4,1.3-2.4c0.5-0.9,2-2.6,4.1-3.2c0,0,0.1,0,0.1,0l-0.1-0.1
							c-0.3-0.5-0.6-1.3-0.6-2.1c0-0.7,0.2-1.4,0.7-2c0,0,0,0,0,0c-4.1,0.9-5.9,3.9-6.7,5.2c-0.8,1.3-1.3,2.7-1.5,3.6
							c0,0.2,0,0.3,0,0.5C213.2,73,213.8,73.6,214.5,73.6z"/>
						<path class="st1" d="M229.4,71.1c0.4,0.9,0.7,1.9,0.8,2.9c1.8-1.3,3.7-1.3,5.1-0.3c0,0,0,0,0,0c-0.1-0.6-0.2-1.2-0.4-1.7
							l0-0.1c-0.1-0.4-0.3-0.8-0.4-1.2c-0.1-0.3-0.3-0.7-0.4-1c0,0,0,0,0,0C232.5,69.1,230.4,70.3,229.4,71.1z"/>
						<path class="st1" d="M188.4,144.8c0,0-1.7,0.7-2.7,1.1c-1.7,0.6-5.2,0.2-9.8,0.7h0l0,0c0.6-0.7,1-2,3.8-2.3
							c1.4-0.2,3.1-0.6,4.5-1c1.4-0.4,2.4-0.7,2.4-0.7h0h0l0,0v0l0,0c0,0,0,0,0,0L188.4,144.8C188.4,144.8,188.4,144.8,188.4,144.8
							L188.4,144.8L188.4,144.8z"/>
						<path class="st1" d="M174.7,78.1L174.7,78.1c6,7,6.7,15.3,6.7,22.7c0,2.6-0.1,5-0.1,7.3c0,3.2,0.2,6,1.2,8.1
							c0-0.2,0-0.4,0-0.7c0-5.8,2.5-12.5,2.5-19.4C185,90,182.9,83.7,174.7,78.1z"/>
						<path class="st1" d="M155,64.6c-0.4-0.6-1.5-2.3-3.3-4.1c-0.6-0.6-2.5-2.5-3.5-4.1c-2.5-4.2-3.9-7.4-8.2-9l0,0l0,0
							c3.6,4.6,3.5,7.7,3.6,10c0.1,1.7,0.2,3.8,0.5,5.3c0.7,4.2,2.3,5.5,4.4,9.1l0,0v-0.1c0-0.3,0-0.5,0-0.8
							c0-6.5-2.4-10.3-2.4-12.8c0-0.4,0.1-0.7,0.2-1c8.6,8.2,4.7,18.2,10.4,26.6c6.9,10.3,5.4,20.5,9.8,28.1h0
							c-0.3-1.3-0.3-2.9-0.3-4.5c0-7.8,2.4-18.1,2.4-24.8c0-0.8,0-1.5-0.1-2.1c7.2,6,1.9,27.3,7.2,35.3l0,0v0
							c0.1-7.2,1.3-14,1.3-20.5c0-7.9-1.3-15.2-9.3-22l-7-4.8c-0.2-0.2-0.5-0.3-0.8-0.5c1.1,1.5,2.2,3.5,2.5,4.1
							c1.6,2.8,2.5,4.7,2.5,7.3c0,1.9-0.5,4.2-1.4,7.5C159.6,82.5,161,73.5,155,64.6z"/>
						<path class="st1" d="M188.4,144.8l-1.8-2.2c0,0,0,0,0,0l0,0v0l0,0h0h0c0,0-1,0.3-2.4,0.7c-1.4,0.4-3.1,0.8-4.5,1
							c-2.8,0.3-3.2,1.6-3.8,2.3l0,0h0c4.5-0.5,8.1-0.1,9.8-0.7C186.7,145.6,188.4,144.8,188.4,144.8L188.4,144.8L188.4,144.8
							C188.4,144.8,188.4,144.8,188.4,144.8z"/>
						<path class="st1" d="M106.8,21.4c1.9,0,3.9,0.3,5.6,0.3c2,0,3.8-0.4,4.9-2.1l0,0h0c-1.3,0.7-2.4,0.9-3.4,0.9
							c-2.2,0-4.1-1-6.2-1c-0.8,0-1.7,0.2-2.7,0.6c1.5-2.3,3.4-2.7,4.6-2.7c0.3,0,0.6,0,0.8,0.1c1,0.1,1.4,1,3.2,1.4
							c0.4,0.1,0.7,0.1,1,0.1c0.8,0,1.3-0.3,1.9-0.3c0.2,0,0.4,0,0.7,0.1l0,0l0,0c-0.7-0.9-1.5-1.9-1.9-3.2h0
							c-0.7-0.4-1.2-0.5-1.7-0.5c-1.2,0-1.9,0.7-1.9,0.7s-0.2,0.2-0.6,0.3c-0.4,0.2-0.9,0.3-1.4,0.3c-0.6,0-1.1-0.2-1.5-0.8
							c-0.1-0.1-0.2-0.4-0.2-0.7c0-0.1,0-0.1,0-0.2c0-0.9,0.7-2.3,4.1-3.8c-5.9,0.9-7.2,2.4-7.2,3.6c0,0.9,0.7,1.6,0.9,1.7
							c-0.4,0.1-5.5,1.7-6.4,9.1C101.1,22.1,103.9,21.4,106.8,21.4z"/>
						<path class="st1" d="M120.3,55.7c0.6,0.1,1.4,0.3,2.2,0.3c1.6,0,3.5-0.8,4.9-4.8l0,0c-1.3,1.1-3.3,1.7-5.3,1.7
							c-2.8,0-5.4-1.1-5.7-3.4v0c-4-9.7-8.7-6.4-8.8-13.5v0h0c-1.2,0-1.9,1.1-2.4,2c-0.6-1.3-1-2.7-1-4.2c0-1.3,0.3-2.6,0.8-3.9l0,0
							l0,0c-1.9,0.5-3.3,2.1-3.5,2.3c0.2-3.1,2.6-6.4,6-8.5c-9.3,1.6-10.9,8-10.9,10.4c0,0.3,0,0.5,0,0.7l0,0l0,0
							c0.8-1.1,1.6-1.7,2.5-2.1c0,0.4-0.1,0.9-0.1,1.4c0,5,2.6,10.4,6.2,13.3c-2.4-0.7-4.2-2.1-4.8-2.8l0,0l0,0
							c-1.6,5.1-2.3,9.8-2.3,13.9c0,0.5,0,1.1,0.1,1.6c0.2,4.7,1.4,8.6,3.4,11.5c3.2,4.6,10.3,13.3,12.9,17.4l0,0l0,0
							c2.9-7.7,2.2-19.1,7.4-25.5l0,0c-8.7,4.8-7.1,13.1-9.8,16.6c-1-1.3-10.6-9.7-10.6-21.2c0-1.1,0.1-2.3,0.3-3.5
							c4.1,8.2,8,11.4,9.5,12.6l0,0l0,0v0C111.6,65.4,114.8,57.8,120.3,55.7z"/>
						<path class="st1" d="M118.4,15.1c0,0.6,0.4,1.3,0.7,1.6l0,0v0c0.3-1.7,0.8-2.6,2.3-3.5l0,0h0
							C119.1,13.3,118.4,14.2,118.4,15.1z"/>
						<path class="st1" d="M124.3,13.9L124.3,13.9L124.3,13.9c1.2,0.9,1.9,2.4,2,3.5l0,0l0,0c0.3-0.3,0.5-0.8,0.5-1.3
							C126.8,15.1,126.1,13.9,124.3,13.9L124.3,13.9z"/>
						<path class="st1" d="M120.3,23.1L120.3,23.1L120.3,23.1L120.3,23.1c0.1,0.1,1,1,2.3,2.4c1.4,1.4,2.7,1.8,2.9,2.4
							c0.2,0.6,0.3,1.5,0.3,2.2c0,0.5-0.1,0.9-0.2,1.2c-1.3,0.1-2.7,0.3-3.7,0.3h0v0c-0.1,2,0,3.7-0.2,4.8c-0.1,0.5-0.2,0.6-0.2,0.6
							c-0.1,0-0.3-0.3-0.5-0.7c-0.3-0.6-1.3-3.8-1.7-4.7h0h0c-0.5,0-1.5-0.1-2.5-0.8c1.3-0.8,2.5-1.2,4.3-2l0,0
							c-5.8,0.2-8.8,1.6-9.1,1.8c0-0.1,0.2-0.3,0.6-0.6c0.5-0.4,1.4-0.9,3-1.4v0c-0.1-0.4-0.2-0.8-0.2-1.5v-0.1
							c0.8-0.2,1.9-0.2,2.9-0.2c0.9,0,1.9,0,2.4,0h0.1v0c-2.2-0.5-3.6-0.6-4.9-0.6c-1,0-1.8,0.1-2.7,0.1c0.9-0.6,1.8-0.9,2.2-0.9h0
							l0,0c0.4-1.9,1.4-2.5,2.6-2.9l0,0c0,0-0.4-0.1-0.8-0.1c-2,0-3.4,0.7-4.3,1.6c-0.9,1-1.3,2.3-1.3,3.7c0,0.3,0,0.6,0.1,0.9
							c-0.1,0.1-2,1.4-2,4.1c0,1.7,0.8,4,3.2,6.9l0,0c-0.1-0.5-0.2-0.9-0.2-1.4c0-2,0.9-4,3.1-4h0.1c-0.5,0.7-0.7,2.8-0.9,4.7
							c0,0.2,0,0.4,0,0.6c0,1.9,0.7,4.5,1.5,6.2c0.5,1.1,1.2,1.8,1.8,1.8c0.1,0,0.1,0,0.2,0c0.2-0.1,0.7-0.5,1.5-0.6h0v0
							c0.1-1.1,0.2-3,0.3-3.9c0-0.4,0.1-0.5,0.2-0.5c0.1,0,0.2,0.2,0.3,0.4c0.3,0.8,0.8,2.5,1.1,3.5h0c0.3,0,0.7-0.1,1.1-0.1h0.2
							c1.5,0,2.4,0.2,3,0.4v0c0.2-0.6,0.8-2.3,1.1-3.2c0.1-0.4,0.2-0.6,0.3-0.6c0.1,0,0.2,0.2,0.2,0.6c0.1,1,0.2,1.9,0.2,2.9
							c0,0.3,0,0.5,0,0.8l0,0l0,0h0c0.1,0,0.5,0.2,0.9,0.2c0.5,0,0.9-0.3,0.9-1.5c0-0.2,0-0.3,0-0.5c0-0.1,0-0.2,0-0.4
							c0-1.3,0.4-3.9,0.7-5.2c0.8-2.7,0.7-2.7,1.9-5.1c1.6-0.9,3-2.7,3-4.9c0-0.6-0.1-1.3-0.4-2c0,0.1-0.4,1.5-0.8,2.3
							c-0.4-0.2-2.6-0.6-5.5-0.9c0.6,0.2,1.8,0.7,2.9,1.1c1,0.4,1.9,0.8,2,0.8c-0.1,0.1-0.7,1.2-1.9,1.2c-0.2,0-0.4,0-0.6-0.1
							c-0.7,1.6-1.3,3.3-2,4.4c-0.2,0.5-0.4,0.7-0.5,0.7c-0.1,0-0.1-0.1-0.1-0.4v0c0-1.2,0.2-2.9,0.4-5.1v0h0
							c-0.6-0.2-1.3-0.5-2.1-0.6c0.2-0.8,0.2-1.4,0.2-2.1c0-0.3,0-0.6,0-1v0c0-0.9,1.9-2.3,3.4-4.5l0,0c0-0.1-0.4-0.8-1.2-1.1
							c-0.4-0.1-0.7-0.2-0.9-0.2c-0.4,0-0.8,0.1-1.5,0.3c-0.2,0.1-0.4,0.1-0.6,0.1c-0.9,0-1.6-0.6-2.5-0.7c-0.1,0-0.2,0-0.3,0
							c-0.9,0-1.9,0.7-2.3,0.9C121.1,23,120.3,23.1,120.3,23.1z"/>
						<path class="st1" d="M128.3,16.6c0,0.5-0.1,0.8-0.2,1.1l0,0l0,0c0.5-0.2,1.7-1.6,1.7-3.2c0-0.3-0.1-0.7-0.2-1
							c-0.5-1.2-2-2.4-5.4-2.9C127.1,12,128.3,14.8,128.3,16.6z"/>
						<path class="st1" d="M117,16.5L117,16.5c-0.2-0.5-0.5-1.4-0.5-2.4c0-1.5,0.6-3.1,2.7-4.2l0,0c-3.1,0.3-4.3,1.2-4.5,2.3
							c0,0.1,0,0.3,0,0.4C114.7,14.4,116.8,16.4,117,16.5z"/>
						<path class="st1" d="M156.7,157.1c0.8,0.1,1.5,0.1,2.3,0.1c-0.6-0.9-1.2-2-1.4-3C156.8,155,156.6,156.2,156.7,157.1
							L156.7,157.1z"/>
						<path class="st1" d="M161.8,157.4c1,0,1.9,0,2.8,0l0,0c-0.7-1.1-1.4-2.5-1.4-3.6C161.8,154.5,161.7,156.1,161.8,157.4z"/>
						<path class="st1" d="M168.5,157.1c1.2-0.1,2.4-0.2,3.5-0.4l0,0c-0.1-0.1-0.2-0.1-0.3-0.2c-0.7-0.4-1.9-1.4-2.2-3.1
							C168,154.5,168.2,156.2,168.5,157.1L168.5,157.1z"/>
						<path class="st1" d="M190.2,151.9c0.8-0.3,1.6-0.7,2.4-1.1c-0.1-0.7-0.4-1.5-0.5-1.9c-0.5-1-2.8-3.2-3-3.4l0,0
							C189.1,145.6,191.2,149.3,190.2,151.9z"/>
						<path class="st1" d="M203,144.7c1.1-0.8,2.2-1.7,3.3-2.5l0,0c-1.2-1.5-3.1-3.7-4.3-4.7c0,0,0,0,0,0
							c-4.6-3.4-10.5-8.4-14.2-16.9c-0.1,0.7-0.1,1.4-0.1,2c0,11,7,13.8,10.5,17.5C200.2,141.8,201.9,143.6,203,144.7L203,144.7z"/>
						<path class="st1" d="M209.8,139.1c0.3-0.3,0.6-0.6,0.9-0.9c0.3-0.3,0.6-0.6,0.8-0.8v0c-1.1-1.9-3-4.8-3.2-5.4
							c-0.5-1.4-1-2.8-1.3-4.1c0-0.2-0.1-0.4-0.1-0.7c-0.8-5-0.8-9.5-3.9-16c0.3,0.8,0.4,1.9,0.4,3.3c0,1.7-0.1,3.8-0.1,6.1
							c0,4.2,0.5,9,3.1,13.2C206.6,134.2,208.5,137.1,209.8,139.1z"/>
						<path class="st1" d="M188.5,141.4L188.5,141.4c0.5,0.4,5.3,4.3,8.8,7c1.4-0.8,2.9-1.7,4.2-2.6c-2.5-2.2-8.2-6.7-14.8-12.8
							c-4.4-3.6-6.6-12.4-6.8-16.1c-0.7,1.9-1,3.8-1,5.4c0,0.4,0,0.8,0,1.1c0.2,3.1,2.1,7.4,2.2,7.6c-0.1,0-0.9-0.2-1.7-0.6
							c-2.8-1.1-9.3-5.1-12.2-8.5l0,0c0.8,2.6,3.3,5.8,3.7,8.4c-4-4.9-8.1-3.2-13.7-9c-1.5-1.6-3.1-4-3.1-4l0,0l0,0l0,0l0.3,5.5
							c-0.2-0.2-3.1-2.6-5.2-2.8c0.4-1.4,2-4.2,3.1-6.6c2.3-5.3,6.3-7.4,6.3-14.1c0-1.6-0.2-3.5-0.8-5.8h0
							c-0.4,6.1-2.5,8.9-4.8,11.4c-0.7-1.1-0.9-3.2-0.9-5.6c0-2.7,0.2-5.7,0.3-8.4c0-0.2,0-0.4,0-0.5c0-4.9-2.2-11-6.7-17.6l0,0
							c1.2,5.1,3.2,9.3,3.2,13.7c0,1.4-0.2,2.9-0.7,4.4c0.1,9.4,1.2,10.5,2.1,15.6c-0.7,2.5-2.2,5.9-3.6,8.8
							c-0.7,1.4-1.4,2.7-1.9,3.6c-0.4,0.8-0.7,1.4-0.8,1.4c-1.5-3.1-4.8-10.7-10-10.7c-2,0-4.4,1.2-7,4.3l0,0
							c1.2-0.5,2.4-0.8,3.5-0.8c6.9,0,11.5,9.2,11.6,10.5c-3.5,6.5-8.4,10.9-9.9,13.8c-1.1-6.4-6.4-15.8-9.3-15.8
							c-0.2,0-0.4,0-0.5,0.1c-2.8,1.3-6.7,4.4-6.9,6.5l0,0l0,0c1.4-0.7,3.5-1.6,5.3-1.6c0.9,0,1.7,0.2,2.3,0.9
							c1.2,1.8,6.1,6.6,7.3,12.6c-2.9,4.2-3.2,6.5-3.2,9.9c0,0.2,0,0.4,0,0.6c-4.5,1.4-6.9,4.4-8,6.2c-0.4,0.7-1.7,1.9-2.4,1.9
							c0,0-1.5,0-3.2,0h-3c0-0.2,0.2-1.2,0.2-2.4c0-1.3-0.3-2.8-1.5-3.3c-0.4-0.1-0.8-0.2-1.2-0.2c-1.6,0-3.2,1.2-3.4,3.3
							c-2-0.7-2.3-2.8-2.3-3.8c0-0.3,0-0.5,0-0.5v0h0c-0.3-0.1-0.6-0.1-0.9-0.1c-1.8,0-3.4,1.4-4.4,3.3c-0.1-0.4-0.2-0.8-0.2-1.2
							c0-1.1,0.3-2,0.3-2c-4.2,0-5.1,2.7-5.7,4.6c0,0.1,0,0.2,0,0.2c-0.5-0.9-0.7-2.1-0.7-3.4c0-2,0.6-4.1,2-5.2c0,0,0.1,0,0.1-0.1
							c0.1-0.1,0.2-0.1,0.3-0.2c0.1-0.1,0.3-0.1,0.4-0.2l0,0c0.1,0,0.2-0.1,0.3-0.1c0,0,0.1,0,0.1,0c0.2-0.1,0.5-0.1,0.8-0.1
							c0.1,0,0.1,0,0.2,0c0.1,0,0.1,0,0.2,0c0.1,0,0.2,0,0.3,0c0.1,0,0.1,0,0.2,0c0.1,0,0.2,0,0.4,0.1c0.1,0,0.1,0,0.2,0
							c0.1,0,0.2,0.1,0.4,0.1c0.1,0,0.1,0,0.2,0.1c0.2,0.1,0.3,0.1,0.5,0.2c0,0,0.1,0,0.1,0.1c0.1,0.1,0.3,0.1,0.4,0.2
							c0.1,0,0.1,0,0.2,0.1c0.2,0.1,0.4,0.2,0.6,0.3c0,0,0,0,0,0l0,0h0v0c1.2-2,2.6-2.6,3.9-2.6c1.6,0,3,0.9,3.3,1.1l0,0v0
							c0.9-1.1,3.4-3.8,3.4-4c0-0.1,5.1-16.9,5.8-18.9l0.1-0.3c-0.1-0.4-0.1-0.8-0.1-1.2c0-2.8,1.5-6.4,1.5-6.4
							c0.1-0.3,0.3-0.7,0.5-1c0-0.1,0.1-0.2,0.1-0.3c0.1-0.2,0.2-0.4,0.3-0.6c0.1-0.1,0.1-0.2,0.2-0.3c0.1-0.2,0.2-0.4,0.3-0.6
							c0.1-0.1,0.1-0.2,0.2-0.3c0.1-0.2,0.2-0.4,0.3-0.5c0.1-0.1,0.1-0.2,0.2-0.3c0.1-0.2,0.3-0.4,0.4-0.6c0-0.1,0.1-0.1,0.1-0.1
							c0.2-0.2,0.4-0.5,0.5-0.7c0-0.1,0.1-0.1,0.1-0.1c0.1-0.2,0.3-0.4,0.4-0.6c0.1-0.1,0.1-0.1,0.2-0.2c0.1-0.2,0.2-0.3,0.4-0.4
							c0,0,0-0.1,0.1-0.1l0,0c8.7-9.9,20.3-7.3,20.3-21.4c0-0.6,0-1.2-0.1-1.8h0c-2.4,12.5-12.8,6-22.4,22.6
							c5.2-21,15.9-18.6,19.4-25.9c1.1-2.3,1.9-4.9,1.9-8.2c0-3.4-0.8-7.6-2.9-13c0,0,0,0.1,0,0.1c0,0,0,0,0,0
							c0,0.2,0.1,0.4,0.1,0.5c0.1,0.4,0.1,0.7,0.1,1.1c0,0.2,0,0.3,0,0.5c0,0.4,0.1,0.8,0.1,1.1v0.2v0.2V66c0,0.2,0,0.4,0,0.6
							c0,0.2,0,0.3,0,0.5c0,0.1,0,0.3,0,0.4c0,0.4,0,0.7-0.1,1.1c0,0.1,0,0.2,0,0.4c0,0.4-0.1,0.7-0.1,1.1c0,0.1,0,0.2-0.1,0.3
							c-0.1,0.4-0.1,0.7-0.2,1.1c0,0.1,0,0.2-0.1,0.3c-0.1,0.4-0.2,0.7-0.3,1.1c0,0.1,0,0.2-0.1,0.3c-0.1,0.4-0.2,0.7-0.3,1.1
							c0,0.1-0.1,0.1-0.1,0.2c-0.1,0.4-0.3,0.7-0.4,1.1c0,0.1-0.1,0.1-0.1,0.2c-0.2,0.3-0.3,0.7-0.5,1.1c0,0.1,0,0.1-0.1,0.1
							c-0.2,0.4-0.3,0.7-0.5,1.1c0,0,0,0.1-0.1,0.1c-0.2,0.4-0.4,0.7-0.6,1.1c0,0,0,0,0,0.1c-0.2,0.4-0.4,0.7-0.6,1.1c0,0,0,0,0,0
							c-2.4,4-5.4,7.2-7.8,10c0,0-0.1,0.1-0.1,0.1c-0.1,0.2-0.3,0.4-0.4,0.5c-0.1,0.1-0.1,0.2-0.2,0.3c-0.1,0.1-0.2,0.3-0.3,0.4
							c-0.1,0.1-0.2,0.2-0.3,0.3c-0.1,0.1-0.2,0.2-0.3,0.3c-0.1,0.1-0.2,0.3-0.3,0.4c-0.1,0.1-0.1,0.2-0.2,0.3
							c-0.1,0.1-0.2,0.3-0.3,0.4c-0.1,0.1-0.1,0.2-0.2,0.3c-0.1,0.1-0.2,0.3-0.2,0.4c0,0.1-0.1,0.2-0.1,0.3
							c-0.1,0.1-0.2,0.3-0.2,0.4c-0.1,0.1-0.1,0.2-0.1,0.3c0,0.1-0.1,0.2-0.1,0.4c-0.1,0.2-0.1,0.4-0.2,0.6c-0.3-1-0.5-2-0.5-3v-0.2
							c0.2-8.9,11.3-17.3,11.5-30.1v-0.2c0-2.3-0.4-4.7-1.2-7.3v0l0,0c0.1,0.5,0.1,1,0.1,1.6v0.1c0,9.8-12.8,23.9-14.2,39
							c-0.1,0.6-0.1,1.2-0.1,1.7c0,0.3,0,0.6,0,0.9v0.3c0,0.2,0,0.4,0,0.6c0,1.1,0.1,2.2,0.3,3.3c-0.1-0.2-0.1-0.5-0.2-0.7
							c0-0.1-0.1-0.1-0.1-0.2c-0.1-0.2-0.2-0.5-0.3-0.7c0-0.1-0.1-0.1-0.1-0.2c-0.1-0.2-0.2-0.4-0.3-0.7c0,0-0.1-0.1-0.1-0.2
							c-0.1-0.2-0.2-0.5-0.4-0.7c0,0,0-0.1-0.1-0.1c-0.1-0.2-0.3-0.5-0.4-0.7c0-0.1-0.1-0.1-0.1-0.1c-0.2-0.2-0.3-0.5-0.5-0.7
							c0,0,0-0.1-0.1-0.1c-0.2-0.2-0.4-0.5-0.6-0.7c0,0,0,0,0,0c-3.7-4.8-9.5-9.6-13.2-15.2c0,0,0,0,0,0c-0.2-0.3-0.4-0.6-0.6-0.9
							c0,0,0-0.1,0-0.1c-0.2-0.3-0.3-0.6-0.5-0.9c0,0,0-0.1-0.1-0.1c-0.2-0.3-0.3-0.6-0.5-0.9c0-0.1-0.1-0.1-0.1-0.2
							c-0.1-0.3-0.3-0.6-0.4-0.9c0-0.1-0.1-0.1-0.1-0.2c-0.1-0.3-0.2-0.6-0.3-0.8c0-0.1-0.1-0.2-0.1-0.3c-0.1-0.3-0.2-0.5-0.3-0.8
							c0-0.1-0.1-0.2-0.1-0.3c-0.1-0.3-0.1-0.5-0.2-0.8c0-0.1-0.1-0.2-0.1-0.3c-0.1-0.3-0.1-0.5-0.2-0.8c0-0.1,0-0.2-0.1-0.3
							c0,0,0,0,0,0l0-0.1c0,0-0.2,2.4-0.2,3.4c0,18.1,12.9,12.4,16.2,28.9c-2.4-6-9.8-7.9-15.3-15.5l0,0c4,17,14,11.7,15.8,24
							c0,0.1,0,0.2,0,0.3c0,1.2-0.8,2.7-1.3,4.4c-1.2-4-4.5-8.2-5.7-9c-5.7-4-11.7-11.5-13.4-23.1c-0.3-2.2-0.5-5.3-0.5-8.5
							c0-5,0.5-10.4,1.7-12.8c-0.1-1-0.2-2-0.2-3c0-6.2,2.1-12.9,3.6-19c0.2-0.6,0.2-1.1,0.2-1.6c0-1.7-0.9-2.7-2-2.7
							c-0.9,0-1.9,0.7-2.6,2.3c-0.3-0.6-1-3.1-1-6.1c0-3,0.7-6.5,3.4-9c0-0.1-0.1-0.1-0.4-0.2c-0.3-0.1-0.6-0.1-1.1-0.1
							c-0.7,0-1.6,0.2-2.6,0.8c0-0.1,0-0.3,0-0.4c0-3.8,5.2-9.1,7-10.7h0v0c-0.3-0.8-0.9-3.3-0.9-5.7c0-0.9,0.1-1.9,0.4-2.6
							c0.1-0.3,0.2-0.4,0.4-0.6l0,0c-0.4,0.2-1,0.7-1.5,1.6c0,0-0.8,1.9-0.8,4.3c0,0.9,0.1,1.9,0.5,2.9c-0.2,0.2-6.9,5.7-6.9,11
							c0,0.6,0.1,1.2,0.3,1.9c0,0,0.4,0.7,1.1,0.7c0.1,0,0.3,0,0.4-0.1c-0.1,0.3-1.4,3.8-1.4,7.7c0,2.6,0.5,5.3,2.3,7.4
							c0,0,0.5,0.4,1.1,0.4c0.5,0,1-0.2,1.5-1c-0.1,0.3-0.5,2.2-1,4.5c-0.5,2.5-1.2,5.3-1.6,6.8c-0.5,2.2-1,5.3-1,8
							c0,1,0.1,2,0.2,2.8c0,0-1.7,4.4-1.7,14.1c0,2.1,0.1,4.6,0.3,7.2c0.5,5.2,2.7,15.7,11.7,24c0,0,0.4,0.4,1.1,1
							c2.1,2,6.3,6.6,6.9,12.2c0,0.3,0,0.6,0,0.9c0,3.1-2.9,13.2-3.8,17.4l-2.5,2.6c-1.4-0.7-2.6-0.9-3.6-0.9c-2.9,0-4.4,2-4.5,2.1
							c-0.8-0.1-1.5-0.2-2.1-0.2c-2.4,0-3.9,0.8-4.8,2c-0.9,1.2-1.2,2.8-1.2,4.4c0,3.3,1.2,6.7,1.3,7.1v0h0c0.4,1.1,0.9,2.3,1.5,3.7
							l0,0v0c0,0,0.3-1.5,0.9-2.9c0.1-0.1,0.1-0.2,0.2-0.2c0.1,0,0.3,0.1,0.3,0.2c0.4,1.3,1,2.7,2.3,4.3l0,0v0
							c0.2-0.9,1.1-2.5,1.8-3.3c0.1-0.2,0.3-0.2,0.4-0.2c0.2,0,0.4,0.1,0.4,0.2c0.4,0.8,1.2,2.3,3.2,3.8l0,0v0c0,0,0.4-1.9,1.1-2.4
							c0.1-0.1,0.3-0.1,0.5-0.1c0.4,0,1.1,0.1,1.9,0.1c0.5,0,0.9,0,1.3,0c0.6,0,1,0,1.1,0.2c0.3,0.8,1,1.7,1.6,2.5l0,0l0,0
							c0.2-0.6,0.5-1.7,1-2.6c0.2-0.4,0.5-0.4,0.6-0.4l0.6,0h23c0.6,0,1.1,0,1.4,0c2.2,0,2.9-0.6,4.9-3.2c0.3-0.3,1-1.9,1.8-3.8
							c0.7-2.5,3-5,3.1-5.2c0,0-0.5-1.8-1.1-3.9c-0.6-2.2-1.2-4.7-1.4-6.4c-0.2-1.2-1-4.6-1.6-7.1l0.1-0.1c2.4-2.7,6.8-9.4,6.9-9.7
							c1.7,0.3,3.1,1,4.1,1.7c1,0.7,1.5,1.2,1.6,1.3c0,7.7,7.3,15.6,10.7,18c1.7,1.2,3.4,2,4.7,2.4c1.3,0.5,2.2,0.7,2.2,0.8
							c0.1,0.1,0.2,0.3,0.1,0.5c0,1.4-2.3,2.3-3.6,3.5c-0.6-0.9-2.4-1.2-3.4-1.2c-2,0.1-3.1,1.6-3.1,1.6s-1.7-1.4-4.6-0.2
							c-2.8,1.1-3.6,4-3.5,6.1c0.8,0.1,1.5,0.2,2.3,0.2c-0.2-2.1,1-4.4,3.3-4.5c1.3-0.1,2.3,0.8,2.3,0.8s0.9-1.5,2.6-1.8
							c2.7-0.3,3.5,1.7,3.5,1.7s0-1.6,2.5-2.1c1.6-0.4,4.3,0.3,6.9,2.8c0,0-0.9-3.1-3.3-3.7c0,0,0.9-1.4,1.6-2.2
							c0.4-0.5,0.6-1,0.6-1.4c0-1-0.8-1.9-1.5-2.3c-0.9-0.5-3.5-1.1-3.7-1.2c0.1-0.1,0.8-1.5,1.8-2c1.1-0.5,2.5-1.1,3.6-1.2
							c0.9,0.3,2.4,0.4,3.9,0.4c2.4,0,5-0.3,5.9-0.9l0,0c0-0.3,0.2-0.5,0.5-0.5c0.2,0,0.5,0.1,0.7,0.4
							C186.7,139.9,188.1,141.1,188.5,141.4z M141.5,149.4c-2.7,2.4-2.4,6.7-4.6,8.6c-0.3,0.4-1.4,1-2.4,1h-13
							c0.8-3.6,9.6-6.8,9.6-6.8c-1.5-4.6,1.9-9.8,4.6-14l2.4-3.2C139,138.7,140,145.2,141.5,149.4z M168.2,142.6
							c-0.1,0-0.5-0.2-1.2-0.5c-2.1-1-10.3-7.4-10.3-13.4c0-0.1-0.1-2.1-0.1-2.3c0.9,0.4,9.6,8.6,16.7,11.4
							C169.1,138.7,168.2,142.4,168.2,142.6z"/>
						<path class="st1" d="M140.1,34.5c0.6,0.6,1.3,1.6,1.6,2.5l0,0l0,0c0.3-0.7,0.8-2.4,0.9-4.2v0c0-2.8-1.1-5.9-5.5-6.8h0l0,0
							c2.8,2.5,2.9,4.4,2.9,4.8v0.1c-0.1,0-1.3-0.5-2.1-0.6h0l0,0c0.3,0.9,0.4,1.9,0.4,3c0,2.4-0.7,5.2-2.3,8.2
							c0.3-0.3,0.5-0.4,0.5-0.4C137.9,39.7,139.7,37.5,140.1,34.5z"/>
						<path class="st1" d="M134.8,15.4C134.8,15.5,134.8,15.5,134.8,15.4c0.1,0.1,0.1,0.1,0.1,0.1c0,0.1,0.1,0.1,0.1,0.2
							c0.1,0.2,0.1,0.5,0.1,0.7c0,0.8-0.4,1.5-1,1.5c-0.2,0-0.4-0.1-0.6-0.2c-0.8-1.1-1.7-1.4-2.4-1.4c-0.6,0-1.1,0.2-1.3,0.5
							c-0.2,0.9-0.4,1.6-1.1,2.8l0,0l0,0c0.1,0,0.3-0.1,0.4-0.1c0.6,0,1.3,0.4,2.1,0.4c0.4,0,0.9-0.1,1.5-0.4c0.5-0.2,1-0.3,1.6-0.3
							c1.8,0,3.9,1,5,3.1c-0.9-0.8-1.8-1.1-2.7-1.1c-1.1,0-2.2,0.3-3.5,0.3c-1.2,0-2.5-0.3-4.1-1.4l0,0l0,0c3,3,5.3,3.2,7.2,3.2h0.6
							c0.4,0,0.7,0,1,0c1.3,0.1,3,0.4,4.7,3.8l0,0c0,0,0,0,0,0h0v0c-0.5-7.6-3.3-8.4-6.4-8.9c1-0.7,1.5-1.5,1.5-2.3
							c0-1.1-0.8-2.1-2.3-2.9c-0.1,0-0.2-0.1-0.3-0.1c-1.1-0.5-2.6-0.9-4.4-1.1l0,0C132,12.2,134.1,13.9,134.8,15.4z"/>
						<path class="st1" d="M129.5,27L129.5,27L129.5,27c0.8,0.1,1.7,0.1,2.4,0.1c1.8,0,3.2-0.2,3.2-0.2l0,0c0,0-1.5-0.7-3.1-0.7
							C131.2,26.3,130.3,26.5,129.5,27"/>
					</g>
					<g>
						<g>
							<g>
								<g>
									<g>
										<g>
											<path class="st2" d="M109.5,17.3c0.3,0,0.6,0,0.8,0.1c1,0.1,1.4,1,3.2,1.4c0.4,0.1,0.7,0.1,1,0.1c0.8,0,1.3-0.3,1.9-0.3
												c0.2,0,0.4,0,0.7,0.1l0,0l0,0c-0.7-0.9-1.5-1.9-1.9-3.2h0l0,0c-0.7-0.4-1.2-0.5-1.7-0.5c-1.2,0-1.9,0.7-1.9,0.7
												s-0.2,0.2-0.6,0.3c-0.4,0.2-0.9,0.3-1.4,0.3c-0.6,0-1.1-0.2-1.5-0.8c-0.1-0.1-0.2-0.4-0.2-0.7c0,0,0-0.1,0-0.1
												c0-0.1,0-0.3,0.1-0.4c0.5-1.8,4.5-3.1,6.9-2.3v0c0,0.1,0,0.3,0,0.4c0,1.8,2.2,3.8,2.3,3.9h0c0.4,0.4,0.8,0.7,1.4,1.1
												c0,0.3-0.4,1.1-1.1,1.9v0h0c-1.3,0.7-2.4,0.9-3.4,0.9c-2.2,0-4.1-1-6.2-1c-0.8,0-1.7,0.2-2.7,0.6
												C106.4,17.7,108.3,17.3,109.5,17.3"/>
											<path class="st2" d="M120.3,23.1c0.1,0,1,1,2.3,2.4c1.4,1.4,2.7,1.8,2.9,2.4c0.2,0.6,0.3,1.5,0.3,2.2
												c0,0.5-0.1,0.9-0.2,1.2c-1.3,0.1-2.7,0.3-3.7,0.3h0v0c-0.1,2,0,3.7-0.2,4.8c-0.1,0.5-0.2,0.6-0.2,0.6
												c-0.1,0-0.3-0.3-0.5-0.7c-0.3-0.6-1.3-3.8-1.7-4.7h0h0c-0.5,0-1.5-0.1-2.5-0.8c1.3-0.8,2.5-1.2,4.3-2l0,0
												c-5.8,0.2-8.8,1.6-9.1,1.8c0-0.1,0.2-0.3,0.6-0.6c0.5-0.4,1.4-0.9,3-1.4v0l0,0c-0.1-0.4-0.2-0.8-0.2-1.5v-0.1
												c0.8-0.2,1.9-0.2,2.9-0.2c0.9,0,1.9,0,2.4,0h0.1v0c-2.2-0.5-3.6-0.6-4.9-0.6c-1,0-1.8,0.1-2.7,0.1
												c0.9-0.6,1.8-0.9,2.2-0.9h0l0,0c0.4-1.9,1.4-2.5,2.6-2.9l0,0l0,0C119,22.6,119.8,22.8,120.3,23.1L120.3,23.1z"/>
										</g>
									</g>
								</g>
								<path class="st2" d="M118.2,127.2L118.2,127.2c-1.1,0.3-2.1,0.8-2.9,1.2l0,0l0,0c0.2-1.5,2.1-3.4,4.2-4.9
									c2.1-6.4,2.8-11.3,1-13.7l0,0c0,0-0.1,0.1-0.1,0.1c-0.1,0.1-0.2,0.3-0.4,0.4c-0.1,0.1-0.1,0.1-0.2,0.2
									c-0.1,0.2-0.3,0.4-0.4,0.6c0,0-0.1,0.1-0.1,0.1c-0.2,0.2-0.4,0.5-0.5,0.7c0,0-0.1,0.1-0.1,0.1c-0.1,0.2-0.3,0.4-0.4,0.6
									c-0.1,0.1-0.1,0.2-0.2,0.3c-0.1,0.2-0.2,0.4-0.3,0.5c-0.1,0.1-0.1,0.2-0.2,0.3c-0.1,0.2-0.2,0.4-0.3,0.6
									c-0.1,0.1-0.1,0.2-0.2,0.3c-0.1,0.2-0.2,0.4-0.3,0.6c0,0.1-0.1,0.2-0.1,0.3c-0.2,0.3-0.3,0.6-0.5,1c0,0-1.5,3.6-1.5,6.4
									c0,0.4,0,0.8,0.1,1.2l-0.1,0.3c-0.7,2.1-5.8,18.9-5.8,18.9c0,0.1-2.6,2.9-3.4,4v0l0,0c-0.4-0.2-1.7-1.1-3.3-1.1
									c-1.3,0-2.7,0.6-3.9,2.6v0h0l0,0c0,0,0,0,0,0c-0.2-0.1-0.4-0.2-0.6-0.3c-0.1,0-0.1,0-0.2-0.1c-0.1-0.1-0.3-0.2-0.4-0.2
									c-0.1,0-0.1,0-0.1-0.1c-0.2-0.1-0.4-0.1-0.5-0.2c0,0-0.1,0-0.2-0.1c-0.1,0-0.2-0.1-0.4-0.1c0,0-0.1,0-0.2,0
									c-0.1,0-0.2-0.1-0.4-0.1c-0.1,0-0.1,0-0.2,0c-0.1,0-0.2,0-0.3,0c-0.1,0-0.1,0-0.2,0c-0.1,0-0.1,0-0.2,0
									c-0.3,0-0.5,0.1-0.8,0.1c0,0-0.1,0-0.1,0c-0.1,0-0.2,0.1-0.3,0.1l0,0c-0.1,0.1-0.3,0.1-0.4,0.2c-0.1,0.1-0.2,0.1-0.3,0.2
									c0,0-0.1,0-0.1,0.1c-1.4,1.1-2,3.2-2,5.2c0,1.3,0.3,2.5,0.7,3.4c0-0.1,0-0.1,0-0.2c0-1.7,0.8-5.9,5-5.9c0.3,0,0.7,0,1.1,0.1
									h0l0,0c-0.1,0.4-0.2,0.8-0.3,1.2c0,0,0,0,0,0h0c0,0-0.3,1-0.3,2c0,0.4,0,0.8,0.2,1.2h0c1-5.4,4.1-7.9,8.4-4.1
									c3.3-3.5,6.8,0.6,6.8,0.6s-0.5-2.2-2.9-3.5C112.9,139.3,115.5,134.7,118.2,127.2L118.2,127.2z"/>
								<g>
									<path class="st2" d="M167.3,121.8L167.3,121.8c0.8,2.6,3.3,5.8,3.7,8.4c-4-4.9-8.1-3.2-13.7-9c-1.5-1.6-3.1-4-3.1-4l0,0
										c1.7,1.7,4.7,3.7,6.4,3.9c-1.8-2.9-1-6.7-1-6.7c2.3,3.7,3.7,5.1,6.2,5.8c-2.7-3.8-1.4-6.6-1.4-6.6c0-0.1,5.5,6.6,14.6,9.3
										l0,0c0,0.1,0,0.3,0,0.4c0.2,3.1,2.1,7.4,2.2,7.6c-0.1,0-0.9-0.2-1.7-0.6C176.6,129.3,170.2,125.2,167.3,121.8L167.3,121.8"
										/>
								</g>
							</g>
							<path class="st2" d="M95.1,158.4c0,0.1-0.1,0.1-0.1,0.2l0,0c0,0.1-0.1,0.1-0.1,0.2v0c-0.4,0.9-0.7,2.2-0.7,2.4
								c-0.1-0.2-0.5-1.2-0.8-2.4c0-0.1,0-0.2-0.1-0.3c0,0,0,0,0,0c0-0.1,0-0.2-0.1-0.3c0,0,0,0,0-0.1c0-0.1,0-0.2,0-0.3
								c0,0,0,0,0,0c0-0.1,0-0.2,0-0.3c0-0.2,0-0.4,0-0.6c0-1.5,0.6-2.1,1.2-2.2c0.1,0,0.2,0,0.3,0c0.5,0,1.3,0.2,1.3,1.3
								C96,156.5,95.8,157.3,95.1,158.4"/>
							<path class="st2" d="M101,158.3c0,0.1-0.1,0.2-0.1,0.2c0,0,0,0,0,0.1c0,0.1-0.1,0.1-0.1,0.2c-0.7,1.5-0.8,3-0.8,3.2
								c-0.1-0.1-0.8-0.9-1.4-2.5c-0.1-0.3-0.2-0.5-0.2-0.7c-0.1-0.3-0.2-0.7-0.2-1c0,0,0,0,0,0c0-0.1,0-0.1,0-0.2c0,0,0,0,0-0.1
								c0-0.1,0-0.1,0-0.2c0,0,0-0.1,0-0.1c0-0.1,0-0.1,0-0.2v0c0,0,0,0,0-0.1v-0.1c0,0,0-0.1,0-0.1c0-0.1,0-0.1,0-0.2
								c0-0.1,0-0.1,0-0.2c0,0,0-0.1,0-0.1c0,0,0-0.1,0-0.1c0,0,0-0.1,0-0.1c0,0,0-0.1,0-0.1c0,0,0-0.1,0-0.1c0,0,0-0.1,0.1-0.1
								c0,0,0-0.1,0-0.1c0,0,0-0.1,0.1-0.1c0,0,0,0,0-0.1c0-0.1,0.1-0.1,0.1-0.2c0.3-0.3,0.7-0.5,1.1-0.5c0.8,0,1.8,0.7,1.8,1.9
								C101.5,157.2,101.3,157.7,101,158.3"/>
							<path class="st2" d="M107.8,161.7c0,0.2,0,0.3,0,0.5c-1-1.4-1.5-2.5-1.7-3.5c-0.1-0.4-0.2-0.8-0.2-1.2c0-0.2,0-0.3,0-0.4
								c0.2-1.2,1-1.7,1.7-1.7c0.2,0,0.3,0,0.4,0.1c0.5,0.3,0.6,0.7,0.6,1.1C108.7,157.9,107.8,159.5,107.8,161.7"/>
						</g>
						<g>
							<path class="st2" d="M110.2,61.6c-0.5-0.5-2.7-4.1-2.7-9.1c0-1.1,0.1-2.3,0.4-3.5c2.4,2,4,3.8,4.6,5.6
								C111.7,55.7,110.9,58.2,110.2,61.6"/>
						</g>
						<g>
							<path class="st2" d="M128.9,20.2L128.9,20.2C128.9,20.2,128.9,20.2,128.9,20.2L128.9,20.2c1.6,1.1,2.9,1.4,4.1,1.4
								c1.3,0,2.4-0.3,3.5-0.3c0.9,0,1.8,0.2,2.7,1.1c-1.1-2.1-3.2-3.1-5-3.1c-0.6,0-1.1,0.1-1.6,0.3c-0.6,0.3-1,0.4-1.5,0.4
								c-0.8,0-1.5-0.4-2.1-0.4c-0.1,0-0.3,0-0.4,0.1l0,0l0,0c0.8-1.2,1-1.9,1.1-2.8c0.2-0.3,0.7-0.5,1.3-0.5c0.7,0,1.6,0.4,2.4,1.4
								c0.2,0.2,0.4,0.2,0.6,0.2c0.6,0,1-0.7,1-1.5c0-0.2,0-0.5-0.1-0.7c0-0.1-0.1-0.1-0.1-0.2c0,0,0,0,0-0.1c0,0,0,0,0-0.1
								c0,0,0,0,0,0c-0.9-1.4-3.1-2.6-5.4-2.3c0.1,0.2,0.2,0.3,0.2,0.5c0.1,0.3,0.2,0.7,0.2,1c0,1.5-1.2,2.9-1.7,3.2
								c-0.4,0.3-0.9,0.2-0.9,0.2S127.6,19,128.9,20.2z"/>
							<path class="st2" d="M146.1,29c-0.5-8.2-5.3-12.9-5.3-12.9s0.2-3.4-0.2-5.4c-0.2-1.2-0.9-2.3-2.1-2c1.1,2,1.2,5,0.7,6.8
								c-1-1-2.2-2-4.4-2.7c0,0,0,0,0,0c0.1,0,0.1,0.1,0.2,0.1c1.6,0.8,2.3,1.9,2.3,2.9c0,0.8-0.5,1.7-1.5,2.3
								c3.1,0.4,5.9,1.2,6.4,8.8c0,0,0,0,0,0v0h0c0,0,0,0,0,0c0.4,1.7,0.4,3.6,0.1,5.6v0c0,0,0,0,0,0.1v0c-0.1,1.8-0.6,3.5-0.9,4.2
								l0,0l0,0c-0.2-0.9-1-1.9-1.6-2.5c-0.4,3-2.1,5.2-3.7,6.5c0,0,0,0,0,0c0,0-1.4,1.4-3,2.3c5.7-8.7,4.4-18.2-0.5-19.6
								c-0.8-0.2-1.6-0.2-2.5,0l0,0c-1.5,2.2-3.4,3.6-3.4,4.5v0c0,0.4,0,0.7,0,1c0,0.7,0,1.3-0.2,2.1c0.8,0.1,1.5,0.4,2.1,0.6h0v0
								c-0.2,2.2-0.4,3.9-0.4,5.1v0c0,0.3,0.1,0.4,0.1,0.4c0.1,0,0.3-0.2,0.5-0.7c0.6-1.1,1.3-2.8,2-4.4c0.2,0.1,0.4,0.1,0.6,0.1
								c1.2,0,1.8-1.1,1.9-1.2c-0.1,0-1-0.4-2-0.8c-1.1-0.4-2.3-0.9-2.9-1.1c2.9,0.2,5.1,0.7,5.5,0.9c0.4-0.8,0.8-2.2,0.8-2.3
								c0.3,0.7,0.4,1.3,0.4,2c0,2.2-1.4,4-3,4.9c-1.2,2.4-1.1,2.4-1.9,5.1c-0.3,1.3-0.7,3.8-0.7,5.2c0,0.1,0,0.3,0,0.4
								c0,0.2,0,0.3,0,0.5c0,1.2-0.4,1.5-0.9,1.5c-0.4,0-0.8-0.2-0.9-0.2h0l0,0l0,0c0-0.3,0-0.6,0-0.8c0-1-0.1-1.9-0.2-2.9
								c0-0.4-0.1-0.6-0.2-0.6c-0.1,0-0.2,0.3-0.3,0.6c-0.3,1-0.9,2.7-1.1,3.2v0c-0.6-0.2-1.5-0.4-3-0.4H123c-0.4,0-0.8,0-1.1,0.1h0
								c-0.3-1-0.8-2.7-1.1-3.5c-0.1-0.2-0.2-0.4-0.3-0.4c-0.1,0-0.1,0.1-0.2,0.5c-0.1,0.9-0.3,2.8-0.3,3.9v0h0
								c-0.8,0.1-1.3,0.6-1.5,0.6c-0.1,0-0.1,0-0.2,0c-0.6,0-1.2-0.7-1.8-1.8c0.2,1.5,0.1,2.6,0,3.7c0,0,0,0,0,0v0
								c0.2,2.3,2.9,3.4,5.7,3.4c2,0,4-0.6,5.3-1.7l0,0c-1.5,4-3.3,4.8-4.9,4.8c-0.9,0-1.6-0.2-2.2-0.3c-5.5,2.1-8.7,9.7-8.7,12.3v0
								l0,0l0,0c-1.5-1.2-5.4-4.5-9.5-12.6c-0.2,1.2-0.3,2.4-0.3,3.5c0,11.5,9.6,19.9,10.6,21.2c2.7-3.5,1.1-11.7,9.8-16.6l0,0
								c-5.2,6.4-4.6,17.8-7.4,25.5l0,0l0,0c-2.5-4.1-9.7-12.9-12.9-17.4c-2-2.9-3.2-6.9-3.4-11.5c-1.2,4.1-1.6,8.6-1,12.6l0,0.1
								c0,0,0.1,0.2,0.1,0.3c0,0.3,0.1,0.5,0.2,0.8c0,0.1,0,0.2,0.1,0.3c0.1,0.3,0.1,0.5,0.2,0.8c0,0.1,0.1,0.2,0.1,0.3
								c0.1,0.3,0.2,0.6,0.3,0.8c0,0.1,0.1,0.2,0.1,0.3c0.1,0.3,0.2,0.6,0.3,0.8c0,0.1,0.1,0.1,0.1,0.2c0.1,0.3,0.2,0.6,0.4,0.9
								c0,0,0.1,0.1,0.1,0.2c0.2,0.3,0.3,0.6,0.5,0.9c0,0,0,0.1,0.1,0.1c0.2,0.3,0.3,0.6,0.5,0.9c0,0,0,0.1,0,0.1
								c0.2,0.3,0.4,0.6,0.6,0.9c0,0,0,0,0,0c3.8,5.6,9.5,10.5,13.2,15.2c0,0,0,0,0,0c0.2,0.2,0.4,0.5,0.6,0.7c0,0,0,0.1,0.1,0.1
								c0.2,0.2,0.3,0.5,0.5,0.7c0,0,0.1,0.1,0.1,0.1c0.2,0.2,0.3,0.5,0.4,0.7c0,0,0.1,0.1,0.1,0.1c0.1,0.2,0.3,0.5,0.4,0.7
								c0,0.1,0.1,0.1,0.1,0.2c0.1,0.2,0.2,0.5,0.3,0.7c0,0.1,0.1,0.1,0.1,0.2c0.1,0.2,0.2,0.5,0.3,0.7c0,0.1,0,0.1,0.1,0.2
								c0.1,0.2,0.2,0.5,0.2,0.7c-0.2-1.1-0.3-2.2-0.3-3.3c0-0.2,0-0.4,0-0.6v-0.3c0-0.3,0-0.6,0-0.9c0-0.6,0.1-1.2,0.1-1.7
								c1.5-15.1,14.2-29.2,14.2-39v-0.1c0-0.5,0-1.1-0.1-1.6l0,0v0c0.8,2.6,1.2,5,1.2,7.3v0.2c-0.1,12.8-11.3,21.2-11.5,30.1V93
								c0,1,0.1,2,0.5,3c0-0.2,0.1-0.4,0.2-0.6c0-0.1,0.1-0.2,0.1-0.4c0-0.1,0.1-0.2,0.1-0.3c0.1-0.1,0.1-0.3,0.2-0.4
								c0-0.1,0.1-0.2,0.1-0.3c0.1-0.1,0.2-0.3,0.2-0.4c0.1-0.1,0.1-0.2,0.2-0.3c0.1-0.1,0.2-0.3,0.3-0.4c0.1-0.1,0.1-0.2,0.2-0.3
								c0.1-0.1,0.2-0.3,0.3-0.4c0.1-0.1,0.2-0.2,0.3-0.3c0.1-0.1,0.2-0.2,0.3-0.3c0.1-0.1,0.2-0.3,0.3-0.4c0.1-0.1,0.1-0.2,0.2-0.3
								c0.1-0.2,0.3-0.4,0.4-0.5c0,0,0.1-0.1,0.1-0.1c2.3-2.8,5.3-6.1,7.8-10c0,0,0,0,0,0c0.2-0.3,0.4-0.7,0.6-1.1c0,0,0,0,0-0.1
								c0.2-0.3,0.4-0.7,0.6-1.1c0,0,0-0.1,0.1-0.1c0.2-0.4,0.3-0.7,0.5-1.1c0,0,0-0.1,0.1-0.1c0.2-0.3,0.3-0.7,0.5-1
								c0-0.1,0-0.1,0.1-0.2c0.1-0.3,0.3-0.7,0.4-1.1c0-0.1,0-0.2,0.1-0.2c0.1-0.4,0.2-0.7,0.3-1.1c0-0.1,0-0.2,0.1-0.3
								c0.1-0.4,0.2-0.7,0.3-1.1c0-0.1,0-0.2,0.1-0.3c0.1-0.3,0.2-0.7,0.2-1.1c0-0.1,0-0.2,0.1-0.3c0.1-0.4,0.1-0.7,0.1-1.1
								c0-0.1,0-0.3,0-0.4c0-0.3,0.1-0.7,0.1-1.1c0-0.1,0-0.3,0-0.4c0-0.2,0-0.3,0-0.5c0-0.2,0-0.4,0-0.6v-0.1v-0.2v-0.2
								c0-0.4,0-0.7-0.1-1.1c0-0.2,0-0.3,0-0.5c0-0.4-0.1-0.7-0.1-1.1c0-0.2,0-0.3-0.1-0.5c0,0,0,0,0,0c0,0,0-0.1,0-0.1
								c-0.2-1.2-0.6-2.3-1-3.2c2.1,1.5,3.4,3.8,4.6,5.7c0.2-5.6-2.3-10.6-3.4-15.8c-0.4-1.9-0.6-4.3-0.4-5.8c0.1-1,0.5-1.9,1.7-2.2
								c1.4-0.3,3.2,0.4,2.9,2.8c6.6-8.4,2.3-15.4,2.3-15.4S144.9,28.3,146.1,29z M131.9,27.1c-0.8,0-1.6,0-2.4-0.1h0l0,0
								c0.8-0.5,1.7-0.7,2.5-0.7c1.7,0,3.1,0.7,3.1,0.7S133.8,27.1,131.9,27.1z"/>
						</g>
					</g>
				</g>
			</g>
		</g>
	</g>
	<g>
		<g>
			<g>
				<path class="st0" d="M316.9,215.1c-4.7,2.2-9.3,5.6-13.3,10.7v-15.1l-0.5,0.4c-9,7.8-30.6,12.4-30.9,12.4l-0.2,0v4.2l0.3,0
					c5.6,0.5,11.3,5.1,11.3,12.8v18.1c0,15.5-5.9,18.5-11.6,19.3l-0.2,0l-1.4,4.5h46.8l-1.5-4.5l-0.2,0c-8.1-1.3-11.9-7.5-11.9-19.3
					v-11.3l-0.4,0.3c-2.4,1.6-4.8,4.8-6.1,6.7c1.7-6.2,4.6-11.4,8.3-15c4.6-4.4,11.1-7.1,17.6-7.1c2.2,0,4.3,0.3,6.4,0.9l0.3,0.1
					l6.9-21.5C336.5,211.7,327.2,210.4,316.9,215.1z"/>
				<path class="st0" d="M125.7,278.6c-6.8-1.1-12.3-5.4-12.3-19.8v-47.8c-6.2,5.8-31.4,12.6-31.4,12.6v3.7
					c5.8,0.5,11.7,5,11.7,13.2v18.3c0,14.4-4.6,18.7-12,19.8l-1.3,4H127L125.7,278.6z"/>
				<path class="st0" d="M55.9,205.8c0-1.2,2-1.3,4.6-1.3c10.5,0,22.9,5,24.8,9.7l3.5-1.1c0,0-7-13.5-7.4-25.5
					c-36.4,6.6-69.6,0.3-72.1,0.2c-1.2,13.3-7.4,25.3-7.4,25.3l3.5,1.1c2.6-4.8,14.3-9.7,24.8-9.7c2.6,0,4.6,0.1,4.6,1.3v52.9
					c0,14.4-7.3,18.7-14.6,19.8l-1.3,4h53.1l-1.3-4c-7.2-0.8-14.5-5.3-14.7-19.3c-3.8,2.9-11.7,5.5-11.7,5.5
					c3.3-1.7,8.2-8.8,11-13.4c0.4-0.6,0.7-1.1,0.7-2.6C55.9,248.3,55.9,205.8,55.9,205.8"/>
				<path class="st0" d="M262.3,258.5c-2.7,5.3-8.5,13-19.7,13c-12.2,0-15.9-12.2-15.9-12.2l0.1,0.1l43.9-14.7
					c-3.6-18.8-17.8-32.6-37.8-29.4c-18.7,3-31.8,21-28.2,40.7c3.8,20.9,20.9,32.4,39.7,29.2c13-2.2,22.6-10.2,27.7-23L262.3,258.5z
					 M224.1,248.8c0-0.1-0.6-1.8-0.8-4.7c-0.5-5.1,0.5-13.6,8.5-16.3c8.2-2.5,13.1,3.1,15.7,7.6c1.5,2.7,2.2,5.1,2.2,5.1
					S231.6,246.2,224.1,248.8"/>
				<path class="st0" d="M128,196l8.7-20.9c-14.4-0.2-40,9.2-40,37.7C102.6,203.1,113.7,195.8,128,196"/>
			</g>
			<path class="st0" d="M217.2,174.9c-11-2.2-44.8,8.7-54.3,38.4c-0.6,0-1.1-0.1-1.7-0.1c0,0,0.1,0-0.1,0c-19.6,0-35.6,15-35.6,33.6
				c0,10.9,7.5,31.8,36.4,31.8c7.3,0,15.1,10.3,15.1,23c0,12.7-7.1,19.8-15.1,19.8c-8.6,0-15.1-7.1-15.1-19.8
				c0-6.7,2.1-12.7,5.2-16.9c-10.1-5.4-29.5,0.7-29.5,19.1c0,17.2,14.9,31.8,39,31.8h0.1c21.6,0,39.1-12.8,39.1-32.6
				c0-12-6.5-22.7-16.4-29.1c-0.4-0.2-0.8-0.4-1.3-0.6c8.3-6.2,13.6-15.7,13.6-26.4c0-10.3-4.9-21.2-14.6-27.7
				c-6,2.5-11.5,6.3-15.4,10c3.8,3.7,6.3,10.8,6.3,18.9c0,5.6-1.2,10.7-3.2,14.6c-0.2,0.5-0.6,1.2-1.1,1.9c-0.6,0.9-1.2,1.6-1.9,2.3
				c-1.7,1.4-3.7,2.2-5.9,2.2c-2.6,0-4.7-1.1-6.5-2.8c-3.4-3.8-5.7-10.5-5.7-18.2c0-11.6,5.2-21.1,11.7-21.5
				c-0.2,2.7-0.1,5.5,0.1,8.5c9.6-16.1,21.4-28.5,44.2-30.8L217.2,174.9z"/>
		</g>
	</g>
</g>
</svg>
