<?xml version="1.0" encoding="utf-8"?>
<!-- Generator: Adobe Illustrator 19.2.1, SVG Export Plug-In . SVG Version: 6.00 Build 0)  -->
<svg version="1.1" id="Layer_1" xmlns="http://www.w3.org/2000/svg" xmlns:xlink="http://www.w3.org/1999/xlink" x="0px" y="0px"
	 viewBox="0 0 340.2 340.2" style="enable-background:new 0 0 340.2 340.2;" xml:space="preserve">
<style type="text/css">
	.st0{fill:#F99D1C;}
	.st1{fill:#003375;}
	.st2{fill:#FFFFFF;}
	.st3{fill:#FFD046;}
</style>
<g>
	<g>
		<g>
			<g>
				<g>
					<path class="st0" d="M152.2,60.9c0.5,0.5,1,1,1.4,1.5c2.2,2,4.6,4.1,6.5,5.7c0.1,0.1,0.2,0.2,0.4,0.3c0.2,0.2,0.5,0.4,0.8,0.5
						l7.7,5.3l6.3,4.3l0,0c1,0.7,2,1.4,2.8,2.2c2.1,1.7,4.5,3.8,7,5.9l0,0c2.7,2.1,6.7,5.5,10.9,7.1c0.2,0.1,0.4,0.1,0.6,0.2
						c0.2,0.1,0.4,0.2,0.6,0.2c0,0,0.1,0,0.1,0c2.3,0.8,5,1.5,7.9,1.8h0v0c0.9,0.1,2.7,0.3,4.8,0.3c0.7,0,1.4,0,2.2-0.1h0l0,0
						c2.4-0.2,4.5-0.6,6.8-1.5c0.1,0,0.2-0.1,0.2-0.1l0,0l0,0c2.2-0.9,3.7-1.8,4.4-2.3h0l0,0c0.9-0.7,1.9-1.4,2.7-2.3l0,0
						c1-1.1,2.9-3.4,3.9-7.1c0.3-1.3,0.5-2.7,0.6-4.3v0c0-0.3,0-0.6,0-1c0-1.8-0.1-4.4-1.2-6.3c-0.3-0.6-0.8-1.2-1.2-1.7l0,0
						c-1.6-1.7-3.3-2.3-4.5-2.4c-0.4,0-1,0-1.6,0.1c-0.2,0-0.4,0.1-0.7,0.2c-2.1,0.6-3.6,2.3-4.1,3.2c-0.6,1-0.9,1.7-1.3,2.4
						c-0.4,0.7-0.9,1-1.4,1c-0.7,0-1.2-0.6-1.2-1.6c0-0.1,0-0.3,0-0.5c0.1-0.9,0.7-2.3,1.5-3.6c0.7-1.3,2.6-4.3,6.9-5.2
						c0,0,0.9-0.3,2.8-0.3h0c0.6,0,1.5,0.1,2.4,0.4l0,0c-9.6-24.5-32.5-41.8-59.1-41.8c-7.7,0-15.3,1.5-22.3,4.2
						c0.3,1.1,0.5,2.4,0.5,3.7c-1.2-0.7-2.5-0.8-2.5-0.8s4.3,7-2.3,15.4c0.2-2.3-1.6-3.1-2.9-2.8c-1.2,0.3-1.6,1.2-1.7,2.2v0
						c0,0.6,0.1,1.2,0.3,1.6l0,0c0,0.1,0,0.1,0.1,0.2c0,0,0.1,0.1,0.1,0.1c0,0,0,0,0,0c0,0,0.1,0.1,0.1,0.1c0,0,0.1,0.1,0.1,0.2
						c0,0,0,0,0,0c0.1,0.1,0.1,0.2,0.2,0.2c0,0,0,0,0,0v0c0.1,0.1,0.2,0.2,0.2,0.2c0,0,0,0,0,0c0.6,0.5,1.2,1,2,1.5c0,0,0.1,0,0.1,0
						l0,0c4.3,1.7,5.7,4.9,8.2,9C149.7,58.3,151.7,60.2,152.2,60.9z"/>
					<path class="st0" d="M230.3,94.4c-0.1,0.1-0.2,0.2-0.3,0.4c-0.1,0.1-0.2,0.3-0.4,0.4c-5.6,6.2-14.9,10.1-28,10.1h0
						c-0.2,0-0.4,0-0.6,0h0c0,0,0,0.1,0.1,0.1c0.1,0.2,0.2,0.4,0.3,0.5c0,0.1,0.1,0.2,0.1,0.3c0.5,1.1,1.2,2.7,2,5.2l0.1,0.2
						c3.1,6.6,3.1,11.1,3.9,16c0,0.2,0.1,0.4,0.1,0.7c0.3,1.3,0.7,2.6,1.3,4.1c0.3,0.5,2.1,3.4,3.2,5.4c11.6-11.7,19.5-28,20.2-46
						l0,0c0,0,0,0,0,0c0,0.1-0.1,0.1-0.1,0.2c-0.1,0.2-0.2,0.4-0.3,0.5c-0.1,0.1-0.1,0.2-0.2,0.3c-0.1,0.1-0.2,0.3-0.3,0.4
						c-0.1,0.1-0.2,0.3-0.3,0.4c-0.1,0.1-0.2,0.3-0.3,0.4C230.6,94.1,230.5,94.3,230.3,94.4z"/>
				</g>
				<g>
					<g>
						<path class="st1" d="M192,14c-14.3-4.3-29.2-4-42.5,0.1c-0.1,0-0.7,0.2-1,0.3c12.9-3.6,27-3.6,40.8,0.5
							c38.7,11.7,61.3,53.4,49.6,92.1c-8,26.3-29.1,45.2-54.1,51.5c0,0,0,0,0,0c29.2-4.8,49-26.5,56.4-51.1
							C253.4,67.3,230.7,25.6,192,14z"/>
						<path class="st1" d="M231.9,109.5c2.5-8.3,3.5-16.4,3.3-24.1c-1.1-37.7-30.7-67.8-66.4-67.8c-8.2,0-16.3,1.6-23.7,4.6
							c0.2,0.5,0.4,1,0.6,1.6c0,0.1,0,0.1,0,0.2c0.1,0.2,0.1,0.4,0.2,0.6c0,0.1,0,0.2,0.1,0.2c0.1,0.2,0.1,0.5,0.2,0.7
							c0.3,1.2,0.5,2.4,0.6,3.8c-1.2-0.7-2.5-0.8-2.5-0.8s0.3,0.4,0.5,1.2c5.5-0.9,14.6-0.9,20.3,1.3c-6.9-0.5-14.5-0.1-19.7,0.8
							c0.5,2.8,0.4,7.3-3.5,12.2c0.2-2.3-1.6-3.1-2.9-2.8c-1.2,0.3-1.6,1.2-1.7,2.2v0c0,0.6,0.1,1.2,0.3,1.6l0,0
							c0,0.1,0,0.1,0.1,0.2c0,0,0.1,0.1,0.1,0.1c0,0,0,0,0,0c0,0,0.1,0.1,0.1,0.1c0,0,0.1,0.1,0.1,0.2c0,0,0,0,0,0
							c0.1,0.1,0.1,0.2,0.2,0.2c0,0,0,0,0,0v0c0.1,0.1,0.2,0.2,0.2,0.2c0,0,0,0,0,0c0.6,0.5,1.2,1,2,1.5c0,0,0.1,0,0.1,0l0,0
							c1.1-1.1,5.2-3.5,10.2-5.7h0c1.2-2.4,3.7-3.7,3.7-3.7c-0.7,0.5-1,1.7-1.2,2.7c0,0,0,0,0,0c5.4-2.1,11.5-3.8,15.9-3.1
							c-1.4,1.7-1.8,4.3-1.8,4.3c1.1-1.7,2.7-2.8,4.1-3.5c-3.2,7.5-6.6,21.4-6,32c0,0.3,0,0.6,0.1,0.8l3.6,2.5l6.3,4.3l0,0
							c1,0.7,2,1.4,2.8,2.2c0.1,0.1,0.2,0.1,0.3,0.2c-0.2-0.4-0.3-0.9-0.4-1.1c-1-3.2-1.8-6.1-2.4-9.2c-0.7-0.3-3.3-1.1-6.1-0.3
							c0,0,2.4-2.1,5.4-1.8c0.1,0,0.2,0,0.3,0c-0.5-3-0.8-6-0.9-8.9c-1.2-0.3-3.5-0.6-5.8-0.2c0,0,2.3-2.1,5.3-1.5
							c0.2,0,0.3,0.1,0.4,0.1c-0.2-7.1,0.5-13.4,1.6-17.9c0.4,1.1,0.9,2.8,1.2,5.2c0,0,0.8-2.7,0.8-5c2.9,1.8,6.1,5.2,9.2,9.3
							c2-1.1,4-4,4-4c-0.4,2.6-2.1,5.3-2.6,6c1.7,2.4,3.3,4.9,4.9,7.5c1.9-1.2,3.8-3.8,3.8-3.8c-0.4,2.6-2.1,5.2-2.6,5.9
							c1.4,2.4,2.6,4.9,3.6,7.1l3.4-3.6c-0.5,1.9-2,3.9-2.8,4.8c2,4.5,3.1,8.2,2.8,10.1c8.5-13.8,4.8-27.3-1.3-35.6
							c-2.5-3.6-6-6.6-10.4-8.5c5.1,1.4,9.1,5,10.1,6c0.9,0.3,1.9,0.8,2.9,1.3c0-1.9-0.9-4.3-0.9-4.3c1.7,1.3,2.8,4.4,3.1,5.5
							c0.9,0.5,1.8,1.1,2.7,1.6c0.7,0.4,1.4,0.9,2,1.3c0-1.8-0.7-3.2-0.7-3.2c1,1,1.8,2.8,2.2,4.3c2,1.5,3.5,2.9,3.9,4.4
							c0.9-3,0.6-6.8-0.8-10.4c11.1,12.2,17.9,28.7,17.9,47c0,19.2-8.1,36.4-20.2,48.7l0,0c-0.3,0.3-0.5,0.5-0.8,0.8c0,0,0,0,0,0
							c-0.3,0.2-0.5,0.5-0.8,0.7c-0.1,0.1-0.1,0.1-0.2,0.2c-0.2,0.2-0.4,0.4-0.6,0.5c-0.1,0.1-0.2,0.1-0.2,0.2
							c-0.2,0.2-0.4,0.3-0.5,0.5c-0.1,0.1-0.2,0.1-0.2,0.2c-0.2,0.2-0.4,0.3-0.5,0.5c-0.1,0.1-0.2,0.1-0.2,0.2
							c-0.2,0.2-0.4,0.3-0.6,0.5c-0.1,0.1-0.1,0.1-0.2,0.2c-0.2,0.2-0.4,0.3-0.6,0.5c-0.1,0.1-0.1,0.1-0.2,0.2
							c-0.2,0.2-0.4,0.3-0.6,0.5c-0.1,0.1-0.1,0.1-0.2,0.1c-0.2,0.2-0.4,0.3-0.6,0.5c-0.1,0-0.1,0.1-0.2,0.1
							c-0.2,0.2-0.5,0.3-0.7,0.5c0,0-0.1,0.1-0.1,0.1c-0.2,0.2-0.5,0.3-0.7,0.5c0,0-0.1,0.1-0.1,0.1c-0.2,0.2-0.5,0.3-0.7,0.5
							c0,0-0.1,0-0.1,0.1c-0.3,0.2-0.5,0.4-0.8,0.5c0,0-0.1,0-0.1,0.1c-0.3,0.2-0.5,0.4-0.8,0.5c0,0,0,0-0.1,0
							c-0.3,0.2-0.6,0.4-0.8,0.5c0,0,0,0,0,0c-0.3,0.2-0.6,0.4-0.9,0.5c0,0,0,0,0,0c-1.8,1.1-3.7,2.1-5.6,2.9c0,0,0,0,0,0
							c-10.9,5.1-23.4,7.4-37.1,6.2c0,0,0,0,0,0c-0.4,0-0.8-0.1-1.2-0.1c0,0,0,0,0,0c-0.6-0.1-1.2-0.1-1.8-0.2c0,0,0,0,0,0
							c-1.7-0.2-3.5-0.5-5.3-0.8c14.1,4.2,29.3,2.6,42.2-1.6C209.5,147.4,225.1,131.6,231.9,109.5z M160.1,21.9
							c1.3-0.2,2.7-0.3,4-0.4c0.3,0.1,0.6,0.2,0.6,0.2c0.3-0.1,0.5-0.2,0.8-0.3c0.6,0,1.2,0,1.8-0.1c1.1,0.2,1.9,0.7,1.9,0.7
							c-2.2-0.4-2.7,0.4-2.7,0.4c2.5,0.6,4.3,2.6,5.5,4.7C169.7,24.5,164.9,22.7,160.1,21.9z M176.8,27.2c-0.1-2.6-0.9-4.4-1.9-5.5
							c2.3,0.3,4.6,0.6,6.9,1.1C178.8,24,177.4,26,176.8,27.2z M181.9,28.5c2-1,3.9-1.6,5.5-1.9c-0.4-0.7-1.2-1.4-1.2-1.4
							c0.8,0.2,1.6,0.7,2.2,1.2c0.7-0.1,1.4-0.2,2.1-0.2c-0.4-0.6-0.9-0.9-0.9-0.9c0.6,0.2,1.1,0.5,1.6,0.9c0.3,0,0.6,0,0.9,0
							c1.5,0.6,2.9,1.3,4.3,2C191.6,27.2,186.3,27.2,181.9,28.5z"/>
					</g>
					<g>
						<path class="st2" d="M173.3,60.4c-0.3-0.1-1.1-0.1-1.1-0.1c-0.1,2.5,0.3,7.6,0.3,7.6s0.5-0.3,1.5-0.3
							C173.9,67.4,173.3,62.6,173.3,60.4z"/>
						<path class="st2" d="M161.9,34.1c6.4-1.4,10.8,0,10.8,0C167.8,31.3,161.9,34.1,161.9,34.1z"/>
						<path class="st2" d="M172.6,70.9l0.6,4l2.1,1.2c-0.4-1-0.9-4.8-0.9-4.8C173.8,70.9,172.6,70.9,172.6,70.9z"/>
						<path class="st2" d="M173.4,49l-0.3-2.4c-0.8,5.1-1.1,10-1,10.9c0,0,0.9,0,1.2,0C173.2,53.6,173.1,52,173.4,49z"/>
						<path class="st2" d="M196.2,30.5c-5.3-1.1-11.7-1.3-17.7,1.2c0,0,2.7-0.9,7.9-0.9c7.9,0.4,11.1,5.5,11.1,5.5
							c-1.2-2.6-2.9-4-4.3-4.9c0.2,0,0.4,0.1,0.6,0.1c7.4,2.1,10.6,8.3,10.6,8.3c-0.9-3.3-2.8-5.5-4.5-6.8
							c4.1,1.7,9.9,6.2,12.6,12.6C212.4,45.7,210.3,33.6,196.2,30.5z"/>
						<path class="st2" d="M178.6,35c0,0,1.8,0.5,4.5,1.6l-0.3-0.1c0.1,0,0.4,0.1,0.8,0.3c0,0,0.1,0,0.1,0.1
							c1.5,0.7,4.1,2.7,4.6,7.6c0.1-0.3,0.7-3-0.6-5.4c0.3,0.2,0.6,0.4,0.9,0.6c2.5,2,5.3,5.6,4.9,12.6c0,0,1.4-5-0.2-8.9
							c0,0,0.1,0.1,0.1,0.1c2.3,2.5,6.3,7.7,4.5,18.2c0,0,2-5,1.7-9.7c2.2,4.8,3.9,12.1,2.7,19.8c0,0,4.1-11.5-2.9-23.7
							C195.9,41.7,187.6,36,178.6,35z"/>
						<path class="st2" d="M176.1,30c0,0,0-0.1,0-0.2l0.1-0.3c0,0,0-0.1,0-0.2l-0.1,0.4c-0.1-1.4-1.1-8.1-5.8-8.6
							C174.3,22.2,176,29.8,176.1,30z"/>
						<path class="st2" d="M186.9,24c-8-0.2-9.8,6.1-9.8,6.1C177.1,30,180.6,24.2,186.9,24z"/>
						<path class="st2" d="M149.9,26.1C164.1,22.2,173,30,173,30C162.4,19.5,149.9,26.1,149.9,26.1z"/>
					</g>
				</g>
			</g>
			<path class="st2" d="M189.3,15c-13.8-4.2-27.8-4.1-40.8-0.5l0,0c-2.3,0.7-4.5,1.5-6.7,2.4c0.7,0.8,2.1,2.6,3.3,5.3v0
				c7.4-3,15.5-4.6,23.7-4.6c35.8,0,65.3,30.1,66.4,67.8c0.3,7.7-0.7,15.8-3.3,24.1c-6.7,22.2-22.3,37.9-41.8,45.2
				c-12.9,4.1-28.1,5.7-42.2,1.6c5.5,2.6,13.8,4.2,20.8,4.2c5.6,0,11-0.6,16.2-1.8c25-6.3,46.1-25.2,54.1-51.5
				C250.6,68.3,228,26.7,189.3,15z"/>
		</g>
		<g>
			<g>
				<g>
					<path class="st3" d="M201.7,105.3c13.1,0,22.4-3.9,28-10.1c0.1-0.1,0.2-0.3,0.4-0.4c0.1-0.1,0.2-0.2,0.3-0.4
						c0.1-0.1,0.2-0.3,0.4-0.4c0.1-0.1,0.2-0.2,0.3-0.4c0.1-0.1,0.2-0.3,0.3-0.4c0.1-0.1,0.2-0.3,0.3-0.4c0.1-0.1,0.1-0.2,0.2-0.3
						c0.1-0.2,0.2-0.4,0.3-0.5c0-0.1,0.1-0.1,0.1-0.2c0.1-0.2,0.3-0.5,0.4-0.7c0,0,0,0,0,0c0.5-0.9,0.9-1.8,1.3-2.8l0,0l0,0
						c0.2-0.5,0.5-1.4,0.6-1.8l0,0c0.1-0.4,0.3-0.9,0.4-1.4c0.1-0.3,0.2-0.7,0.3-1.1c0-0.2,0.1-0.4,0.1-0.6c0.4-1.9,0.7-4.1,0.7-5.9
						c0-0.1,0-0.2,0-0.3l0,0c0-0.4,0-0.8,0-1.3c-0.1-1.3-0.3-2.5-0.7-3.7l0-0.1c-0.1-0.4-0.3-0.8-0.4-1.2c-0.3-0.8-0.7-1.6-1-2.2
						c-0.5-0.8-0.8-1.3-0.9-1.3l0,0c-0.6-0.8-1.3-1.6-2-2.3l0,0l0,0c-2.5-2.2-4.7-2.5-6-2.5h0c-1.8,0-2.8,0.3-2.8,0.3
						c-4.3,0.9-6.2,3.9-6.9,5.2c-0.8,1.3-1.3,2.7-1.5,3.6c0,0.2,0,0.3,0,0.5c0,1,0.6,1.6,1.2,1.6c0.5,0,1-0.3,1.4-1
						c0.4-0.7,0.7-1.4,1.3-2.4c0.5-0.9,2-2.6,4.1-3.2l0,0c0.2-0.1,0.4-0.1,0.7-0.2c0.5-0.1,1.2-0.1,1.6-0.1c1.2,0.1,2.9,0.7,4.5,2.4
						l0,0c0.5,0.5,0.9,1.1,1.2,1.7l0,0c1,1.9,1.2,4.6,1.2,6.3c0,0.4,0,0.8,0,1v0c-0.1,1.6-0.3,3-0.6,4.3l0,0c-1,3.8-2.9,6-3.9,7.1
						l0,0c-0.8,0.9-1.7,1.6-2.7,2.3l0,0h0c-0.7,0.5-2.2,1.4-4.4,2.3l0,0l0,0c-0.1,0-0.2,0-0.2,0.1c-2.3,0.8-4.4,1.3-6.8,1.5l0,0h0
						c-0.7,0.1-1.5,0.1-2.2,0.1c-2.1,0-3.9-0.2-4.8-0.3v0h0c-2.9-0.4-5.6-1-7.9-1.8c0,0-0.1,0-0.1,0c-0.2-0.1-0.4-0.2-0.6-0.2
						c-0.2-0.1-0.4-0.2-0.6-0.2c-4.2-1.6-8.2-5-10.9-7.1l0,0c-2.5-2.1-4.9-4.2-7-5.9c-0.9-0.7-1.8-1.5-2.8-2.2l0,0l-6.3-4.3
						l-7.7-5.3c-0.2-0.2-0.5-0.3-0.8-0.5c-0.1-0.1-0.2-0.2-0.4-0.3c-1.9-1.5-4.4-3.7-6.5-5.7c-0.4-0.5-0.9-1-1.4-1.5
						c-0.6-0.6-2.5-2.5-3.5-4.1c-2.5-4.2-3.9-7.4-8.2-9l0,0c0,0-0.1,0-0.1,0c-0.8-0.5-1.4-0.9-2-1.5c0,0,0,0,0,0
						c-0.1-0.1-0.2-0.2-0.2-0.2v0c0,0,0,0,0,0c-0.1-0.1-0.1-0.2-0.2-0.2c0,0,0,0,0,0c0-0.1-0.1-0.1-0.1-0.2c0,0-0.1-0.1-0.1-0.1
						c0,0,0,0,0,0c0,0-0.1-0.1-0.1-0.1c0-0.1-0.1-0.1-0.1-0.2l0,0c-0.2-0.5-0.3-1-0.3-1.6v0c0.1-1,0.5-1.9,1.7-2.2
						c1.4-0.3,3.2,0.4,2.9,2.8c6.6-8.4,2.3-15.4,2.3-15.4s1.3,0.1,2.5,0.8c-0.5-8.2-5.3-12.9-5.3-12.9s0.2-3.4-0.2-5.4
						c-0.2-1.2-0.9-2.3-2.1-2h0c0,0,0,0,0,0c0,0-0.1,0-0.1,0c-0.6,0.2-1.1,0.4-1.7,0.6c-0.8,0.3-1.6,0.6-2.3,0.9
						c-0.6,0.2-1.8,0.8-2.1,0.6c0,0-3.6-3.1-11.4-2.5c-5.4-0.8-11-0.3-13,1.1c-0.2-0.1-0.3-0.2-0.5-0.3c-1.1-0.6-2.1-1.1-3-1.8
						c0,0,0,0-0.1,0c-1.4-0.8-2.9-1.6-4-1.7c-0.5,0-0.9,0.1-1.3,0.3c-0.4,0.2-1,0.7-1.5,1.6c0,0-0.8,1.9-0.8,4.3
						c0,0.9,0.1,1.9,0.5,2.9c-0.2,0.2-6.9,5.7-6.9,11c0,0.6,0.1,1.2,0.3,1.9c0,0,0.4,0.7,1.1,0.7c0.1,0,0.3,0,0.4-0.1
						c-0.1,0.3-1.4,3.8-1.4,7.7c0,2.6,0.5,5.3,2.3,7.4c0,0,0.5,0.4,1.1,0.4c0.5,0,1-0.2,1.5-1c-0.1,0.3-0.5,2.2-1,4.5
						c-0.5,2.5-1.2,5.3-1.6,6.8c-0.5,2.2-1,5.3-1,8c0,1,0.1,2,0.2,2.8c0,0-1.7,4.4-1.7,14.1c0,2.1,0.1,4.6,0.3,7.2
						c0.5,5.2,2.7,15.7,11.7,24c0,0,0.4,0.4,1.1,1c2.1,2,6.3,6.6,6.9,12.2c0,0.3,0,0.6,0,0.9c0,3.1-2.9,13.2-3.8,17.4l-2.5,2.6
						c-1.4-0.7-2.6-0.9-3.6-0.9c-2.9,0-4.4,2-4.5,2.1c-0.8-0.1-1.5-0.2-2.1-0.2c-2.4,0-3.9,0.8-4.8,2c-0.9,1.2-1.2,2.8-1.2,4.4
						c0,3.3,1.2,6.7,1.3,7.1v0h0c0.4,1.1,0.9,2.3,1.5,3.7l0,0v0c0,0,0.3-1.5,0.9-2.9c0.1-0.1,0.1-0.2,0.2-0.2c0.1,0,0.3,0.1,0.3,0.2
						c0.4,1.3,1,2.7,2.3,4.3l0,0v0c0.2-0.9,1.1-2.5,1.8-3.3c0.1-0.2,0.3-0.2,0.4-0.2c0.2,0,0.4,0.1,0.4,0.2c0.4,0.8,1.2,2.3,3.2,3.8
						l0,0v0c0,0,0.4-1.9,1.1-2.4c0.1-0.1,0.3-0.1,0.5-0.1c0.4,0,1.1,0.1,1.9,0.1c0.5,0,0.9,0,1.3,0c0.6,0,1,0,1.1,0.2
						c0.3,0.8,1,1.7,1.6,2.5l0,0l0,0c0.2-0.6,0.5-1.7,1-2.6c0.2-0.4,0.5-0.4,0.6-0.4l0.6,0h23c0.6,0,1.1,0,1.4,0
						c2.2,0,2.9-0.6,4.9-3.2c0.3-0.3,1.1-1.9,1.8-3.8c0.7-2.5,3-5,3.1-5.2c0,0-0.5-1.8-1.1-3.9c-0.6-2.2-1.2-4.7-1.4-6.4
						c-0.2-1.2-1-4.6-1.6-7.1l0.1-0.1c2.4-2.7,6.8-9.4,6.9-9.7c1.7,0.3,3.1,1,4.1,1.7c1,0.7,1.5,1.2,1.6,1.3c0,7.7,7.3,15.6,10.7,18
						c1.7,1.2,3.4,2,4.7,2.4c1.3,0.5,2.2,0.7,2.2,0.8c0.1,0.1,0.2,0.3,0.1,0.5c0,1.4-2.3,2.3-3.6,3.5c-0.6-0.9-2.4-1.2-3.4-1.2
						c-2,0.1-3.1,1.6-3.1,1.6s-1.7-1.4-4.6-0.2c-2.8,1.1-3.6,4-3.5,6.1c14.9,1.8,28.4-0.4,40.1-5.9c-0.1-0.7-0.4-1.5-0.5-1.9
						c-0.5-1-2.8-3.2-3-3.4c-0.2-0.2-0.4-0.5-0.7-0.8h0l0,0c0,0,0,0,0,0l-1.8-2.2c0,0,0,0,0,0l0,0h0h0h0c-0.5-0.7-1-1.4-1.4-2.1v0v0
						l0,0h0c-0.1-0.1-0.1-0.3-0.2-0.4c0,0,0,0,0,0c0-0.1-0.1-0.2-0.1-0.4c0-0.4,0.2-0.6,0.5-0.6c0.2,0,0.5,0.1,0.7,0.4
						c0.5,0.6,1.9,1.8,2.2,2h0c0.5,0.4,5.3,4.3,8.8,7c4.9-2.8,9.4-6.2,13.5-10.2c0.3-0.3,0.5-0.5,0.8-0.8c-1.1-1.9-3-4.8-3.2-5.4
						c-0.5-1.4-1-2.8-1.3-4.1c0-0.2-0.1-0.4-0.1-0.7c-0.8-5-0.8-9.5-3.9-16l-0.1-0.2c-0.8-2.5-1.5-4.1-2-5.2c0-0.1-0.1-0.2-0.1-0.3
						c-0.1-0.2-0.1-0.3-0.3-0.5c0,0,0-0.1-0.1-0.1h0C201.2,105.3,201.4,105.3,201.7,105.3L201.7,105.3z"/>
					<g>
						<path class="st1" d="M230,94.8c0.1-0.1,0.2-0.2,0.3-0.4c0.1-0.1,0.2-0.3,0.4-0.4c0.1-0.1,0.2-0.2,0.3-0.4
							c0.1-0.1,0.2-0.3,0.3-0.4c0.1-0.1,0.2-0.3,0.3-0.4c0.1-0.1,0.1-0.2,0.2-0.3c0.1-0.2,0.2-0.4,0.3-0.5c0-0.1,0.1-0.1,0.1-0.2
							c0.1-0.2,0.3-0.5,0.4-0.7c0,0,0,0,0,0c0.3-0.6,0.7-1.3,0.9-1.9c0,0,0,0,0,0c-1.3-1.7-3-2.2-4.9-2.2c-0.8,1.5-1.7,2.5-2.3,3.2
							l0,0l0,0l0,0l0,0l0,0c0.1-0.1,0.2-0.1,0.3-0.1c0.4,0,1.1,0.3,1.6,0.7c0.5,0.4,0.9,0.9,0.9,1.5c0,0.2-0.1,0.4-0.2,0.7
							c-1.1,1.7-2.6,2.8-3.8,3.7c0.1-0.2,0.2-0.8,0.2-1.4c0-1.1-0.3-2.4-1.8-2.7h0l0,0c-0.7,0.5-2.2,1.4-4.4,2.3l0,0l0,0l0,0l0,0
							l0,0c0.9,0.8,1.6,2.4,1.6,3.8c0,0.2,0,0.4-0.1,0.7c-1.7,0.8-4.2,1.7-6.1,2.2c0-0.2-0.6-3.2-2.5-5.1l0,0h0l0,0l0,0
							c-0.7,0.1-1.5,0.1-2.2,0.1c-2.1,0-3.9-0.2-4.8-0.3l0,0v0c0.2,0.1,4.5,1.8,5,6.1c-1.6,0.2-4.2,0.4-5.8,0.4
							c-1.3-2-2.7-6.7-8.5-8.9l0,0c-4.2-1.6-8.2-5-10.9-7.1l0,0c0.3,0.4,0.8,1,1.7,2.3c2.8,4.4,3.3,8.7,3.3,12.8
							c0,2.1-0.1,4.1-0.1,6.1c0,2.7,0.2,5.2,1.4,7.5v0l0,0c0.8-0.4,2-6.3,2-11.9c0-1.1,0-2.3-0.2-3.3c2.7,4.3,3.2,8,3.2,11.4
							c0,2.4-0.3,4.7-0.3,6.9c0,4.4,1.1,8.8,7.7,14l0,0c-8.4-10.7,1.5-22.8-11.5-38c4.4,3.4,8.1,10,8.7,11l0,0l0,0h0
							c0.2,0,0.4,0,0.6,0c13.1,0,22.4-3.9,28-10.1C229.8,95.1,229.9,94.9,230,94.8z"/>
						<path class="st1" d="M233.5,77.3c-1,0-2,0.5-2.5,0.9l0,0c0,0.1,0,0.2,0,0.3v0c-0.1,1.4-0.3,2.8-0.5,4l0,0
							c1.4-0.6,3.9-0.6,5,0.8l0,0c0.3-1.5,0.6-3.3,0.7-4.8C235.6,78,234.6,77.3,233.5,77.3z"/>
						<path class="st1" d="M228,68.8c1-2,2.7-2.7,3.9-2.8c0,0,0,0,0,0c-0.3-0.3-0.5-0.6-0.8-0.8l0,0l0,0c-1.3-1.1-2.4-1.7-3.4-2.1
							c-1.6,0.8-2,2.9-1.9,4.3C226.4,67.7,227.2,68.1,228,68.8L228,68.8z"/>
						<path class="st1" d="M215,73.9c0.5,0,1-0.3,1.4-1c0.4-0.7,0.7-1.4,1.3-2.4c0.5-0.9,2-2.6,4.1-3.2c0,0,0.1,0,0.1,0l-0.1-0.1
							c-0.3-0.5-0.6-1.3-0.6-2.1c0-0.7,0.2-1.4,0.7-2c0,0,0,0,0,0c-4.1,0.9-5.9,3.9-6.7,5.2c-0.8,1.3-1.3,2.7-1.5,3.6
							c0,0.2,0,0.3,0,0.5C213.8,73.3,214.3,73.9,215,73.9z"/>
						<path class="st1" d="M229.9,71.4c0.4,0.9,0.7,1.9,0.8,2.9c1.8-1.3,3.7-1.3,5.1-0.3c0,0,0,0,0,0c-0.1-0.6-0.2-1.2-0.4-1.7
							l0-0.1c-0.1-0.4-0.3-0.8-0.4-1.2c-0.1-0.3-0.3-0.7-0.4-1c0,0,0,0,0,0C233.1,69.4,230.9,70.6,229.9,71.4z"/>
						<path class="st1" d="M189,145.1c0,0-1.7,0.7-2.7,1.1c-1.7,0.6-5.2,0.2-9.8,0.7h0l0,0c0.6-0.7,1-2,3.8-2.3
							c1.4-0.2,3.1-0.6,4.5-1c1.4-0.4,2.4-0.7,2.4-0.7h0h0l0,0v0l0,0c0,0,0,0,0,0L189,145.1C189,145.1,189,145.1,189,145.1
							L189,145.1L189,145.1z"/>
						<path class="st1" d="M175.3,78.4L175.3,78.4c6,7,6.7,15.3,6.7,22.7c0,2.6-0.1,5-0.1,7.3c0,3.2,0.2,6,1.2,8.1
							c0-0.2,0-0.4,0-0.7c0-5.8,2.5-12.5,2.5-19.4C185.6,90.3,183.4,84,175.3,78.4z"/>
						<path class="st1" d="M155.5,64.9c-0.4-0.6-1.5-2.3-3.3-4.1c-0.6-0.6-2.5-2.5-3.5-4.1c-2.5-4.2-3.9-7.4-8.2-9l0,0l0,0
							c3.6,4.6,3.5,7.7,3.6,10c0.1,1.7,0.2,3.8,0.5,5.3c0.7,4.2,2.3,5.5,4.4,9.1l0,0v-0.1c0-0.3,0-0.5,0-0.8
							c0-6.5-2.4-10.3-2.4-12.8c0-0.4,0.1-0.7,0.2-1c8.6,8.2,4.7,18.2,10.4,26.6c6.9,10.3,5.4,20.5,9.8,28.1h0
							c-0.3-1.3-0.3-2.9-0.3-4.5c0-7.8,2.4-18.1,2.4-24.8c0-0.8,0-1.5-0.1-2.1c7.2,6,1.9,27.3,7.2,35.3l0,0v0
							c0.1-7.2,1.3-14,1.3-20.5c0-7.9-1.3-15.2-9.3-22l-7-4.8c-0.2-0.2-0.5-0.3-0.8-0.5c1.1,1.5,2.2,3.5,2.5,4.1
							c1.6,2.8,2.5,4.7,2.5,7.3c0,1.9-0.5,4.2-1.4,7.5C160.1,82.8,161.6,73.8,155.5,64.9z"/>
						<path class="st1" d="M189,145.1l-1.8-2.2c0,0,0,0,0,0l0,0v0l0,0h0h0c0,0-1,0.3-2.4,0.7c-1.4,0.4-3.1,0.8-4.5,1
							c-2.8,0.3-3.2,1.6-3.8,2.3l0,0h0c4.5-0.5,8.1-0.1,9.8-0.7C187.3,145.9,189,145.1,189,145.1L189,145.1L189,145.1
							C189,145.1,189,145.1,189,145.1z"/>
						<path class="st1" d="M107.3,21.7c1.9,0,3.9,0.3,5.6,0.3c2,0,3.8-0.4,4.9-2.1l0,0h0c-1.3,0.7-2.4,0.9-3.4,0.9
							c-2.2,0-4.1-1-6.2-1c-0.8,0-1.7,0.2-2.7,0.6c1.5-2.3,3.4-2.7,4.6-2.7c0.3,0,0.6,0,0.8,0.1c1,0.1,1.4,1,3.2,1.4
							c0.4,0.1,0.7,0.1,1,0.1c0.8,0,1.3-0.3,1.9-0.3c0.2,0,0.4,0,0.7,0.1l0,0l0,0c-0.7-0.9-1.5-1.9-1.9-3.2h0
							c-0.7-0.4-1.2-0.5-1.7-0.5c-1.2,0-1.9,0.7-1.9,0.7s-0.2,0.2-0.6,0.3c-0.4,0.2-0.9,0.3-1.4,0.3c-0.6,0-1.1-0.2-1.5-0.8
							c-0.1-0.1-0.2-0.4-0.2-0.7c0-0.1,0-0.1,0-0.2c0-0.9,0.7-2.3,4.1-3.8c-5.9,0.9-7.2,2.4-7.2,3.6c0,0.9,0.7,1.6,0.9,1.7
							c-0.4,0.1-5.5,1.7-6.4,9.1C101.6,22.4,104.4,21.7,107.3,21.7z"/>
						<path class="st1" d="M120.8,56c0.6,0.1,1.4,0.3,2.2,0.3c1.6,0,3.5-0.8,4.9-4.8l0,0c-1.3,1.1-3.3,1.7-5.3,1.7
							c-2.8,0-5.4-1.1-5.7-3.4v0c-4-9.7-8.7-6.4-8.8-13.5v0h0c-1.2,0-1.9,1.1-2.4,2c-0.6-1.3-1-2.7-1-4.2c0-1.3,0.3-2.6,0.8-3.9l0,0
							l0,0c-1.9,0.5-3.3,2.1-3.5,2.3c0.2-3.1,2.6-6.4,6-8.5c-9.3,1.6-10.9,8-10.9,10.4c0,0.3,0,0.5,0,0.7l0,0l0,0
							c0.8-1.1,1.6-1.7,2.5-2.1c0,0.4-0.1,0.9-0.1,1.4c0,5,2.6,10.4,6.2,13.3c-2.4-0.7-4.2-2.1-4.8-2.8l0,0l0,0
							c-1.6,5.1-2.3,9.8-2.3,13.9c0,0.5,0,1.1,0.1,1.6c0.2,4.7,1.4,8.6,3.4,11.5c3.2,4.6,10.3,13.3,12.9,17.4l0,0l0,0
							c2.9-7.7,2.2-19.1,7.4-25.5l0,0c-8.7,4.8-7.1,13.1-9.8,16.6c-1-1.3-10.6-9.7-10.6-21.2c0-1.1,0.1-2.3,0.3-3.5
							c4.1,8.2,8,11.4,9.5,12.6l0,0l0,0v0C112.1,65.7,115.3,58.1,120.8,56z"/>
						<path class="st1" d="M118.9,15.4c0,0.6,0.4,1.3,0.7,1.6l0,0v0c0.3-1.7,0.8-2.6,2.3-3.5l0,0h0
							C119.6,13.6,118.9,14.5,118.9,15.4z"/>
						<path class="st1" d="M124.8,14.2L124.8,14.2L124.8,14.2c1.2,0.9,1.9,2.4,2,3.5l0,0l0,0c0.3-0.3,0.5-0.8,0.5-1.3
							C127.4,15.4,126.6,14.2,124.8,14.2L124.8,14.2z"/>
						<path class="st1" d="M120.8,23.4L120.8,23.4L120.8,23.4L120.8,23.4c0.1,0.1,1,1,2.3,2.4c1.4,1.4,2.7,1.8,2.9,2.4
							c0.2,0.6,0.3,1.5,0.3,2.2c0,0.5-0.1,0.9-0.2,1.2c-1.3,0.1-2.7,0.3-3.7,0.3h0v0c-0.1,2,0,3.7-0.2,4.8c-0.1,0.5-0.2,0.6-0.2,0.6
							c-0.1,0-0.3-0.3-0.5-0.7c-0.3-0.6-1.3-3.8-1.7-4.7h0h0c-0.5,0-1.5-0.1-2.5-0.8c1.3-0.8,2.5-1.2,4.3-2l0,0
							c-5.8,0.2-8.8,1.6-9.1,1.8c0-0.1,0.2-0.3,0.6-0.6c0.5-0.4,1.4-0.9,3-1.4v0c-0.1-0.4-0.2-0.8-0.2-1.5v-0.1
							c0.8-0.2,1.9-0.2,2.9-0.2c0.9,0,1.9,0,2.4,0h0.1v0c-2.2-0.5-3.6-0.6-4.9-0.6c-1,0-1.8,0.1-2.7,0.1c0.9-0.6,1.8-0.9,2.2-0.9h0
							l0,0c0.4-1.9,1.4-2.5,2.6-2.9l0,0c0,0-0.4-0.1-0.8-0.1c-2,0-3.4,0.7-4.3,1.6c-0.9,1-1.3,2.3-1.3,3.7c0,0.3,0,0.6,0.1,0.9
							c-0.1,0.1-2,1.4-2,4.1c0,1.7,0.8,4,3.2,6.9l0,0c-0.1-0.5-0.2-0.9-0.2-1.4c0-2,0.9-4,3.1-4h0.1c-0.5,0.7-0.7,2.8-0.9,4.7
							c0,0.2,0,0.4,0,0.6c0,1.9,0.7,4.5,1.5,6.2c0.5,1.1,1.2,1.8,1.8,1.8c0.1,0,0.1,0,0.2,0c0.2-0.1,0.7-0.5,1.5-0.6h0v0
							c0.1-1.1,0.2-3,0.3-3.9c0-0.4,0.1-0.5,0.2-0.5c0.1,0,0.2,0.2,0.3,0.4c0.3,0.8,0.8,2.5,1.1,3.5h0c0.3,0,0.7-0.1,1.1-0.1h0.2
							c1.5,0,2.4,0.2,3,0.4v0c0.2-0.6,0.8-2.3,1.1-3.2c0.1-0.4,0.2-0.6,0.3-0.6c0.1,0,0.2,0.2,0.2,0.6c0.1,1,0.2,1.9,0.2,2.9
							c0,0.3,0,0.5,0,0.8l0,0l0,0h0c0.1,0,0.5,0.2,0.9,0.2c0.5,0,0.9-0.3,0.9-1.5c0-0.2,0-0.3,0-0.5c0-0.1,0-0.2,0-0.4
							c0-1.3,0.4-3.9,0.7-5.2c0.8-2.7,0.7-2.7,1.9-5.1c1.6-0.9,3-2.7,3-4.9c0-0.6-0.1-1.3-0.4-2c0,0.1-0.4,1.5-0.8,2.3
							c-0.4-0.2-2.6-0.6-5.5-0.9c0.6,0.2,1.8,0.7,2.9,1.1c1,0.4,1.9,0.8,2,0.8c-0.1,0.1-0.7,1.2-1.9,1.2c-0.2,0-0.4,0-0.6-0.1
							c-0.7,1.6-1.3,3.3-2,4.4c-0.2,0.5-0.4,0.7-0.5,0.7c-0.1,0-0.1-0.1-0.1-0.4v0c0-1.2,0.2-2.9,0.4-5.1v0h0
							c-0.6-0.2-1.3-0.5-2.1-0.6c0.2-0.8,0.2-1.4,0.2-2.1c0-0.3,0-0.6,0-1v0c0-0.9,1.9-2.3,3.4-4.5l0,0c0-0.1-0.4-0.8-1.2-1.1
							c-0.4-0.1-0.7-0.2-0.9-0.2c-0.4,0-0.8,0.1-1.5,0.3c-0.2,0.1-0.4,0.1-0.6,0.1c-0.9,0-1.6-0.6-2.5-0.7c-0.1,0-0.2,0-0.3,0
							c-0.9,0-1.9,0.7-2.3,0.9C121.7,23.3,120.8,23.4,120.8,23.4z"/>
						<path class="st1" d="M128.8,16.9c0,0.5-0.1,0.8-0.2,1.1l0,0l0,0c0.5-0.2,1.7-1.6,1.7-3.2c0-0.3-0.1-0.7-0.2-1
							c-0.5-1.2-2-2.4-5.4-2.9C127.6,12.3,128.8,15.1,128.8,16.9z"/>
						<path class="st1" d="M117.5,16.8L117.5,16.8c-0.2-0.5-0.5-1.4-0.5-2.4c0-1.5,0.6-3.1,2.7-4.2l0,0c-3.1,0.3-4.3,1.2-4.5,2.3
							c0,0.1,0,0.3,0,0.4C115.2,14.7,117.4,16.7,117.5,16.8z"/>
						<path class="st1" d="M157.2,157.4c0.8,0.1,1.5,0.1,2.3,0.1c-0.6-0.9-1.2-2-1.4-3C157.3,155.3,157.1,156.5,157.2,157.4
							L157.2,157.4z"/>
						<path class="st1" d="M162.3,157.7c1,0,1.9,0,2.8,0l0,0c-0.7-1.1-1.4-2.5-1.4-3.6C162.4,154.8,162.2,156.4,162.3,157.7z"/>
						<path class="st1" d="M169,157.4c1.2-0.1,2.4-0.2,3.5-0.4l0,0c-0.1-0.1-0.2-0.1-0.3-0.2c-0.7-0.4-1.9-1.4-2.2-3.1
							C168.6,154.8,168.7,156.5,169,157.4L169,157.4z"/>
						<path class="st1" d="M190.8,152.2c0.8-0.3,1.6-0.7,2.4-1.1c-0.1-0.7-0.4-1.5-0.5-1.9c-0.5-1-2.8-3.2-3-3.4l0,0
							C189.6,145.9,191.8,149.6,190.8,152.2z"/>
						<path class="st1" d="M203.5,145c1.1-0.8,2.2-1.7,3.3-2.5l0,0c-1.2-1.5-3.1-3.7-4.3-4.7c0,0,0,0,0,0
							c-4.6-3.4-10.5-8.4-14.2-16.9c-0.1,0.7-0.1,1.4-0.1,2c0,11,7,13.8,10.5,17.5C200.8,142.1,202.5,143.9,203.5,145L203.5,145z"/>
						<path class="st1" d="M210.4,139.4c0.3-0.3,0.6-0.6,0.9-0.9c0.3-0.3,0.6-0.6,0.8-0.8v0c-1.1-1.9-3-4.8-3.2-5.4
							c-0.5-1.4-1-2.8-1.3-4.1c0-0.2-0.1-0.4-0.1-0.7c-0.8-5-0.8-9.5-3.9-16c0.3,0.8,0.4,1.9,0.4,3.3c0,1.7-0.1,3.8-0.1,6.1
							c0,4.2,0.5,9,3.1,13.2C207.2,134.5,209,137.4,210.4,139.4z"/>
						<path class="st1" d="M189,141.7L189,141.7c0.5,0.4,5.3,4.3,8.8,7c1.4-0.8,2.9-1.7,4.2-2.6c-2.5-2.2-8.2-6.7-14.8-12.8
							c-4.4-3.6-6.6-12.4-6.8-16.1c-0.7,1.9-1,3.8-1,5.4c0,0.4,0,0.8,0,1.1c0.2,3.1,2.1,7.4,2.2,7.6c-0.1,0-0.9-0.2-1.7-0.6
							c-2.8-1.1-9.3-5.1-12.2-8.5l0,0c0.8,2.6,3.3,5.8,3.7,8.4c-4-4.9-8.1-3.2-13.7-9c-1.5-1.6-3.1-4-3.1-4l0,0l0,0l0,0l0.3,5.5
							c-0.2-0.2-3.1-2.6-5.2-2.8c0.4-1.4,2-4.2,3.1-6.6c2.3-5.3,6.3-7.4,6.3-14.1c0-1.6-0.2-3.5-0.8-5.8h0
							c-0.4,6.1-2.5,8.9-4.8,11.4c-0.7-1.1-0.9-3.2-0.9-5.6c0-2.7,0.2-5.7,0.3-8.4c0-0.2,0-0.4,0-0.5c0-4.9-2.2-11-6.7-17.6l0,0
							c1.2,5.1,3.2,9.3,3.2,13.7c0,1.4-0.2,2.9-0.7,4.4c0.1,9.4,1.2,10.5,2.1,15.6c-0.7,2.5-2.2,5.9-3.6,8.8
							c-0.7,1.4-1.4,2.7-1.9,3.6c-0.4,0.8-0.7,1.4-0.8,1.4c-1.5-3.1-4.8-10.7-10-10.7c-2,0-4.4,1.2-7,4.3l0,0
							c1.2-0.5,2.4-0.8,3.5-0.8c6.9,0,11.5,9.2,11.6,10.5c-3.5,6.5-8.4,10.9-9.9,13.8c-1.1-6.4-6.4-15.8-9.3-15.8
							c-0.2,0-0.4,0-0.5,0.1c-2.8,1.3-6.7,4.4-6.9,6.5l0,0l0,0c1.4-0.7,3.5-1.6,5.3-1.6c0.9,0,1.7,0.2,2.3,0.9
							c1.2,1.8,6.1,6.6,7.3,12.6c-2.9,4.2-3.2,6.5-3.2,9.9c0,0.2,0,0.4,0,0.6c-4.5,1.4-6.9,4.4-8,6.2c-0.4,0.7-1.7,1.9-2.4,1.9
							c0,0-1.5,0-3.2,0h-3c0-0.2,0.2-1.2,0.2-2.4c0-1.3-0.3-2.8-1.5-3.3c-0.4-0.1-0.8-0.2-1.2-0.2c-1.6,0-3.2,1.2-3.4,3.3
							c-2-0.7-2.3-2.8-2.3-3.8c0-0.3,0-0.5,0-0.5v0h0c-0.3-0.1-0.6-0.1-0.9-0.1c-1.8,0-3.4,1.4-4.4,3.3c-0.1-0.4-0.2-0.8-0.2-1.2
							c0-1.1,0.3-2,0.3-2c-4.2,0-5.1,2.7-5.7,4.6c0,0.1,0,0.2,0,0.2c-0.5-0.9-0.7-2.1-0.7-3.4c0-2,0.6-4.1,2-5.2c0,0,0.1,0,0.1-0.1
							c0.1-0.1,0.2-0.1,0.3-0.2c0.1-0.1,0.3-0.1,0.4-0.2l0,0c0.1,0,0.2-0.1,0.3-0.1c0,0,0.1,0,0.1,0c0.2-0.1,0.5-0.1,0.8-0.1
							c0.1,0,0.1,0,0.2,0c0.1,0,0.1,0,0.2,0c0.1,0,0.2,0,0.3,0c0.1,0,0.1,0,0.2,0c0.1,0,0.2,0,0.4,0.1c0.1,0,0.1,0,0.2,0
							c0.1,0,0.2,0.1,0.4,0.1c0.1,0,0.1,0,0.2,0.1c0.2,0.1,0.3,0.1,0.5,0.2c0,0,0.1,0,0.1,0.1c0.1,0.1,0.3,0.1,0.4,0.2
							c0.1,0,0.1,0,0.2,0.1c0.2,0.1,0.4,0.2,0.6,0.3c0,0,0,0,0,0l0,0h0v0c1.2-2,2.6-2.6,3.9-2.6c1.6,0,3,0.9,3.3,1.1l0,0v0
							c0.9-1.1,3.4-3.8,3.4-4c0-0.1,5.1-16.9,5.8-18.9l0.1-0.3c-0.1-0.4-0.1-0.8-0.1-1.2c0-2.8,1.5-6.4,1.5-6.4
							c0.1-0.3,0.3-0.7,0.5-1c0-0.1,0.1-0.2,0.1-0.3c0.1-0.2,0.2-0.4,0.3-0.6c0.1-0.1,0.1-0.2,0.2-0.3c0.1-0.2,0.2-0.4,0.3-0.6
							c0.1-0.1,0.1-0.2,0.2-0.3c0.1-0.2,0.2-0.4,0.3-0.5c0.1-0.1,0.1-0.2,0.2-0.3c0.1-0.2,0.3-0.4,0.4-0.6c0-0.1,0.1-0.1,0.1-0.1
							c0.2-0.2,0.4-0.5,0.5-0.7c0-0.1,0.1-0.1,0.1-0.1c0.1-0.2,0.3-0.4,0.4-0.6c0.1-0.1,0.1-0.1,0.2-0.2c0.1-0.2,0.2-0.3,0.4-0.4
							c0,0,0-0.1,0.1-0.1l0,0c8.7-9.9,20.3-7.3,20.3-21.4c0-0.6,0-1.2-0.1-1.8h0c-2.4,12.5-12.8,6-22.4,22.6
							c5.2-21,15.9-18.6,19.4-25.9c1.1-2.3,1.9-4.9,1.9-8.2c0-3.4-0.8-7.6-2.9-13c0,0,0,0.1,0,0.1c0,0,0,0,0,0
							c0,0.2,0.1,0.4,0.1,0.5c0.1,0.4,0.1,0.7,0.1,1.1c0,0.2,0,0.3,0,0.5c0,0.4,0.1,0.8,0.1,1.1V66v0.2v0.1c0,0.2,0,0.4,0,0.6
							c0,0.2,0,0.3,0,0.5c0,0.1,0,0.3,0,0.4c0,0.4,0,0.7-0.1,1.1c0,0.1,0,0.2,0,0.4c0,0.4-0.1,0.7-0.1,1.1c0,0.1,0,0.2-0.1,0.3
							c-0.1,0.4-0.1,0.7-0.2,1.1c0,0.1,0,0.2-0.1,0.3c-0.1,0.4-0.2,0.7-0.3,1.1c0,0.1,0,0.2-0.1,0.3c-0.1,0.4-0.2,0.7-0.3,1.1
							c0,0.1-0.1,0.1-0.1,0.2c-0.1,0.4-0.3,0.7-0.4,1.1c0,0.1-0.1,0.1-0.1,0.2c-0.2,0.3-0.3,0.7-0.5,1.1c0,0.1,0,0.1-0.1,0.1
							c-0.2,0.4-0.3,0.7-0.5,1.1c0,0,0,0.1-0.1,0.1c-0.2,0.4-0.4,0.7-0.6,1.1c0,0,0,0,0,0.1c-0.2,0.4-0.4,0.7-0.6,1.1c0,0,0,0,0,0
							c-2.4,4-5.4,7.2-7.8,10c0,0-0.1,0.1-0.1,0.1c-0.1,0.2-0.3,0.4-0.4,0.5c-0.1,0.1-0.1,0.2-0.2,0.3c-0.1,0.1-0.2,0.3-0.3,0.4
							c-0.1,0.1-0.2,0.2-0.3,0.3c-0.1,0.1-0.2,0.2-0.3,0.3c-0.1,0.1-0.2,0.3-0.3,0.4c-0.1,0.1-0.1,0.2-0.2,0.3
							c-0.1,0.1-0.2,0.3-0.3,0.4c-0.1,0.1-0.1,0.2-0.2,0.3c-0.1,0.1-0.2,0.3-0.2,0.4c0,0.1-0.1,0.2-0.1,0.3
							c-0.1,0.1-0.2,0.3-0.2,0.4c-0.1,0.1-0.1,0.2-0.1,0.3c0,0.1-0.1,0.2-0.1,0.4c-0.1,0.2-0.1,0.4-0.2,0.6c-0.3-1-0.5-2-0.5-3v-0.2
							c0.2-8.9,11.3-17.3,11.5-30.1v-0.2c0-2.3-0.4-4.7-1.2-7.3v0l0,0c0.1,0.5,0.1,1,0.1,1.6V57c0,9.8-12.8,23.9-14.2,39
							c-0.1,0.6-0.1,1.2-0.1,1.7c0,0.3,0,0.6,0,0.9v0.3c0,0.2,0,0.4,0,0.6c0,1.1,0.1,2.2,0.3,3.3c-0.1-0.2-0.1-0.5-0.2-0.7
							c0-0.1-0.1-0.1-0.1-0.2c-0.1-0.2-0.2-0.5-0.3-0.7c0-0.1-0.1-0.1-0.1-0.2c-0.1-0.2-0.2-0.4-0.3-0.7c0,0-0.1-0.1-0.1-0.2
							c-0.1-0.2-0.2-0.5-0.4-0.7c0,0,0-0.1-0.1-0.1c-0.1-0.2-0.3-0.5-0.4-0.7c0-0.1-0.1-0.1-0.1-0.1c-0.2-0.2-0.3-0.5-0.5-0.7
							c0,0,0-0.1-0.1-0.1c-0.2-0.2-0.4-0.5-0.6-0.7c0,0,0,0,0,0c-3.7-4.8-9.5-9.6-13.2-15.2c0,0,0,0,0,0c-0.2-0.3-0.4-0.6-0.6-0.9
							c0,0,0-0.1,0-0.1c-0.2-0.3-0.3-0.6-0.5-0.9c0,0,0-0.1-0.1-0.1c-0.2-0.3-0.3-0.6-0.5-0.9c0-0.1-0.1-0.1-0.1-0.2
							c-0.1-0.3-0.3-0.6-0.4-0.9c0-0.1-0.1-0.1-0.1-0.2c-0.1-0.3-0.2-0.6-0.3-0.8c0-0.1-0.1-0.2-0.1-0.3c-0.1-0.3-0.2-0.5-0.3-0.8
							c0-0.1-0.1-0.2-0.1-0.3c-0.1-0.3-0.1-0.5-0.2-0.8c0-0.1-0.1-0.2-0.1-0.3c-0.1-0.3-0.1-0.5-0.2-0.8c0-0.1,0-0.2-0.1-0.3
							c0,0,0,0,0,0l0-0.1c0,0-0.2,2.4-0.2,3.4c0,18.1,12.9,12.4,16.2,28.9c-2.4-6-9.8-7.9-15.3-15.5l0,0c4,17,14,11.7,15.8,24
							c0,0.1,0,0.2,0,0.3c0,1.2-0.8,2.7-1.3,4.4c-1.2-4-4.5-8.2-5.7-9c-5.7-4-11.7-11.5-13.4-23.1c-0.3-2.2-0.5-5.3-0.5-8.5
							c0-5,0.5-10.4,1.7-12.8c-0.1-1-0.2-2-0.2-3c0-6.2,2.1-12.9,3.6-19c0.2-0.6,0.2-1.1,0.2-1.6c0-1.7-0.9-2.7-2-2.7
							c-0.9,0-1.9,0.7-2.6,2.3c-0.3-0.6-1-3.1-1-6.1c0-3,0.7-6.5,3.4-9c0-0.1-0.1-0.1-0.4-0.2c-0.3-0.1-0.6-0.1-1.1-0.1
							c-0.7,0-1.6,0.2-2.6,0.8c0-0.1,0-0.3,0-0.4c0-3.8,5.2-9.1,7-10.7h0v0c-0.3-0.8-0.9-3.3-0.9-5.7c0-0.9,0.1-1.9,0.4-2.6
							c0.1-0.3,0.2-0.4,0.4-0.6l0,0c-0.4,0.2-1,0.7-1.5,1.6c0,0-0.8,1.9-0.8,4.3c0,0.9,0.1,1.9,0.5,2.9c-0.2,0.2-6.9,5.7-6.9,11
							c0,0.6,0.1,1.2,0.3,1.9c0,0,0.4,0.7,1.1,0.7c0.1,0,0.3,0,0.4-0.1c-0.1,0.3-1.4,3.8-1.4,7.7c0,2.6,0.5,5.3,2.3,7.4
							c0,0,0.5,0.4,1.1,0.4c0.5,0,1-0.2,1.5-1c-0.1,0.3-0.5,2.2-1,4.5c-0.5,2.5-1.2,5.3-1.6,6.8c-0.5,2.2-1,5.3-1,8
							c0,1,0.1,2,0.2,2.8c0,0-1.7,4.4-1.7,14.1c0,2.1,0.1,4.6,0.3,7.2c0.5,5.2,2.7,15.7,11.7,24c0,0,0.4,0.4,1.1,1
							c2.1,2,6.3,6.6,6.9,12.2c0,0.3,0,0.6,0,0.9c0,3.1-2.9,13.2-3.8,17.4l-2.5,2.6c-1.4-0.7-2.6-0.9-3.6-0.9c-2.9,0-4.4,2-4.5,2.1
							c-0.8-0.1-1.5-0.2-2.1-0.2c-2.4,0-3.9,0.8-4.8,2c-0.9,1.2-1.2,2.8-1.2,4.4c0,3.3,1.2,6.7,1.3,7.1v0h0c0.4,1.1,0.9,2.3,1.5,3.7
							l0,0v0c0,0,0.3-1.5,0.9-2.9c0.1-0.1,0.1-0.2,0.2-0.2c0.1,0,0.3,0.1,0.3,0.2c0.4,1.3,1,2.7,2.3,4.3l0,0v0
							c0.2-0.9,1.1-2.5,1.8-3.3c0.1-0.2,0.3-0.2,0.4-0.2c0.2,0,0.4,0.1,0.4,0.2c0.4,0.8,1.2,2.3,3.2,3.8l0,0v0c0,0,0.4-1.9,1.1-2.4
							c0.1-0.1,0.3-0.1,0.5-0.1c0.4,0,1.1,0.1,1.9,0.1c0.5,0,0.9,0,1.3,0c0.6,0,1,0,1.1,0.2c0.3,0.8,1,1.7,1.6,2.5l0,0l0,0
							c0.2-0.6,0.5-1.7,1-2.6c0.2-0.4,0.5-0.4,0.6-0.4l0.6,0h23c0.6,0,1.1,0,1.4,0c2.2,0,2.9-0.6,4.9-3.2c0.3-0.3,1-1.9,1.8-3.8
							c0.7-2.5,3-5,3.1-5.2c0,0-0.5-1.8-1.1-3.9c-0.6-2.2-1.2-4.7-1.4-6.4c-0.2-1.2-1-4.6-1.6-7.1l0.1-0.1c2.4-2.7,6.8-9.4,6.9-9.7
							c1.7,0.3,3.1,1,4.1,1.7c1,0.7,1.5,1.2,1.6,1.3c0,7.7,7.3,15.6,10.7,18c1.7,1.2,3.4,2,4.7,2.4c1.3,0.5,2.2,0.7,2.2,0.8
							c0.1,0.1,0.2,0.3,0.1,0.5c0,1.4-2.3,2.3-3.6,3.5c-0.6-0.9-2.4-1.2-3.4-1.2c-2,0.1-3.1,1.6-3.1,1.6s-1.7-1.4-4.6-0.2
							c-2.8,1.1-3.6,4-3.5,6.1c0.8,0.1,1.5,0.2,2.3,0.2c-0.2-2.1,1-4.4,3.3-4.5c1.3-0.1,2.3,0.8,2.3,0.8s0.9-1.5,2.6-1.8
							c2.7-0.3,3.5,1.7,3.5,1.7s0-1.6,2.5-2.1c1.6-0.4,4.3,0.3,6.9,2.8c0,0-0.9-3.1-3.3-3.7c0,0,0.9-1.4,1.6-2.2
							c0.4-0.5,0.6-1,0.6-1.4c0-1-0.8-1.9-1.5-2.3c-0.9-0.5-3.5-1.1-3.7-1.2c0.1-0.1,0.8-1.5,1.8-2c1.1-0.5,2.5-1.1,3.6-1.2
							c0.9,0.3,2.4,0.4,3.9,0.4c2.4,0,5-0.3,5.9-0.9l0,0c0-0.3,0.2-0.5,0.5-0.5c0.2,0,0.5,0.1,0.7,0.4
							C187.3,140.2,188.6,141.4,189,141.7z M142.1,149.7c-2.7,2.4-2.4,6.7-4.6,8.6c-0.3,0.4-1.4,1-2.4,1h-13
							c0.8-3.6,9.6-6.8,9.6-6.8c-1.5-4.6,1.9-9.8,4.6-14l2.4-3.2C139.5,139,140.5,145.5,142.1,149.7z M168.7,142.9
							c-0.1,0-0.5-0.2-1.2-0.5c-2.1-1-10.3-7.4-10.3-13.4c0-0.1-0.1-2.1-0.1-2.3c0.9,0.4,9.6,8.6,16.7,11.4
							C169.7,139,168.7,142.7,168.7,142.9z"/>
						<path class="st1" d="M140.6,34.8c0.6,0.6,1.3,1.6,1.6,2.5l0,0l0,0c0.3-0.7,0.8-2.4,0.9-4.2v0c0-2.8-1.1-5.9-5.5-6.8h0l0,0
							c2.8,2.5,2.9,4.4,2.9,4.8v0.1c-0.1,0-1.3-0.5-2.1-0.6h0l0,0c0.3,0.9,0.4,1.9,0.4,3c0,2.4-0.7,5.2-2.3,8.2
							c0.3-0.3,0.5-0.4,0.5-0.4C138.4,40,140.2,37.8,140.6,34.8z"/>
						<path class="st1" d="M135.3,15.7C135.3,15.8,135.4,15.8,135.3,15.7c0.1,0.1,0.1,0.1,0.1,0.1c0,0.1,0.1,0.1,0.1,0.2
							c0.1,0.2,0.1,0.5,0.1,0.7c0,0.8-0.4,1.5-1,1.5c-0.2,0-0.4-0.1-0.6-0.2c-0.8-1.1-1.7-1.4-2.4-1.4c-0.6,0-1.1,0.2-1.3,0.5
							c-0.2,0.9-0.4,1.6-1.1,2.8l0,0l0,0c0.1,0,0.3-0.1,0.4-0.1c0.6,0,1.3,0.4,2.1,0.4c0.4,0,0.9-0.1,1.5-0.4c0.5-0.2,1-0.3,1.6-0.3
							c1.8,0,3.9,1,5,3.1c-0.9-0.8-1.8-1.1-2.7-1.1c-1.1,0-2.2,0.3-3.5,0.3c-1.2,0-2.5-0.3-4.1-1.4l0,0l0,0c3,3,5.3,3.2,7.2,3.2h0.6
							c0.4,0,0.7,0,1,0c1.3,0.1,3,0.4,4.7,3.8l0,0c0,0,0,0,0,0h0v0c-0.5-7.6-3.3-8.4-6.4-8.9c1-0.7,1.5-1.5,1.5-2.3
							c0-1.1-0.8-2.1-2.3-2.9c-0.1,0-0.2-0.1-0.3-0.1c-1.1-0.5-2.6-0.9-4.4-1.1l0,0C132.5,12.5,134.6,14.2,135.3,15.7z"/>
						<path class="st1" d="M130.1,27.3L130.1,27.3L130.1,27.3c0.8,0.1,1.7,0.1,2.4,0.1c1.8,0,3.2-0.2,3.2-0.2l0,0
							c0,0-1.5-0.7-3.1-0.7C131.7,26.6,130.8,26.8,130.1,27.3"/>
					</g>
					<g>
						<g>
							<g>
								<g>
									<g>
										<g>
											<path class="st2" d="M110,17.6c0.3,0,0.6,0,0.8,0.1c1,0.1,1.4,1,3.2,1.4c0.4,0.1,0.7,0.1,1,0.1c0.8,0,1.3-0.3,1.9-0.3
												c0.2,0,0.4,0,0.7,0.1l0,0l0,0c-0.7-0.9-1.5-1.9-1.9-3.2h0l0,0c-0.7-0.4-1.2-0.5-1.7-0.5c-1.2,0-1.9,0.7-1.9,0.7
												s-0.2,0.2-0.6,0.3c-0.4,0.2-0.9,0.3-1.4,0.3c-0.6,0-1.1-0.2-1.5-0.8c-0.1-0.1-0.2-0.4-0.2-0.7c0,0,0-0.1,0-0.1
												c0-0.1,0-0.3,0.1-0.4c0.5-1.8,4.5-3.1,6.9-2.3v0c0,0.1,0,0.3,0,0.4c0,1.8,2.2,3.8,2.3,3.9h0c0.4,0.4,0.8,0.7,1.4,1.1
												c0,0.3-0.4,1.1-1.1,1.9v0h0c-1.3,0.7-2.4,0.9-3.4,0.9c-2.2,0-4.1-1-6.2-1c-0.8,0-1.7,0.2-2.7,0.6
												C106.9,18,108.8,17.6,110,17.6"/>
											<path class="st2" d="M120.9,23.4c0.1,0,1,1,2.3,2.4c1.4,1.4,2.7,1.8,2.9,2.4c0.2,0.6,0.3,1.5,0.3,2.2
												c0,0.5-0.1,0.9-0.2,1.2c-1.3,0.1-2.7,0.3-3.7,0.3h0v0c-0.1,2,0,3.7-0.2,4.8c-0.1,0.5-0.2,0.6-0.2,0.6
												c-0.1,0-0.3-0.3-0.5-0.7c-0.3-0.6-1.3-3.8-1.7-4.7h0h0c-0.5,0-1.5-0.1-2.5-0.8c1.3-0.8,2.5-1.2,4.3-2l0,0
												c-5.8,0.2-8.8,1.6-9.1,1.8c0-0.1,0.2-0.3,0.6-0.6c0.5-0.4,1.4-0.9,3-1.4v0l0,0c-0.1-0.4-0.2-0.8-0.2-1.5v-0.1
												c0.8-0.2,1.9-0.2,2.9-0.2c0.9,0,1.9,0,2.4,0h0.1v0c-2.2-0.5-3.6-0.6-4.9-0.6c-1,0-1.8,0.1-2.7,0.1
												c0.9-0.6,1.8-0.9,2.2-0.9h0l0,0c0.4-1.9,1.4-2.5,2.6-2.9l0,0l0,0C119.5,22.9,120.3,23.1,120.9,23.4L120.9,23.4z"/>
										</g>
									</g>
								</g>
								<path class="st2" d="M118.7,127.5L118.7,127.5c-1.1,0.3-2.1,0.8-2.9,1.2l0,0l0,0c0.2-1.5,2.1-3.4,4.2-4.9
									c2.1-6.4,2.8-11.3,1-13.7l0,0c0,0-0.1,0.1-0.1,0.1c-0.1,0.1-0.2,0.3-0.4,0.4c-0.1,0.1-0.1,0.1-0.2,0.2
									c-0.1,0.2-0.3,0.4-0.4,0.6c0,0-0.1,0.1-0.1,0.1c-0.2,0.2-0.4,0.5-0.5,0.7c0,0-0.1,0.1-0.1,0.1c-0.1,0.2-0.3,0.4-0.4,0.6
									c-0.1,0.1-0.1,0.2-0.2,0.3c-0.1,0.2-0.2,0.4-0.3,0.5c-0.1,0.1-0.1,0.2-0.2,0.3c-0.1,0.2-0.2,0.4-0.3,0.6
									c-0.1,0.1-0.1,0.2-0.2,0.3c-0.1,0.2-0.2,0.4-0.3,0.6c0,0.1-0.1,0.2-0.1,0.3c-0.2,0.3-0.3,0.6-0.5,1c0,0-1.5,3.6-1.5,6.4
									c0,0.4,0,0.8,0.1,1.2l-0.1,0.3c-0.7,2.1-5.8,18.9-5.8,18.9c0,0.1-2.6,2.9-3.4,4v0l0,0c-0.4-0.2-1.7-1.1-3.3-1.1
									c-1.3,0-2.7,0.6-3.9,2.6v0h0l0,0c0,0,0,0,0,0c-0.2-0.1-0.4-0.2-0.6-0.3c-0.1,0-0.1,0-0.2-0.1c-0.1-0.1-0.3-0.2-0.4-0.2
									c-0.1,0-0.1,0-0.1-0.1c-0.2-0.1-0.4-0.1-0.5-0.2c0,0-0.1,0-0.2-0.1c-0.1,0-0.2-0.1-0.4-0.1c0,0-0.1,0-0.2,0
									c-0.1,0-0.2-0.1-0.4-0.1c-0.1,0-0.1,0-0.2,0c-0.1,0-0.2,0-0.3,0c-0.1,0-0.1,0-0.2,0c-0.1,0-0.1,0-0.2,0
									c-0.3,0-0.5,0.1-0.8,0.1c0,0-0.1,0-0.1,0c-0.1,0-0.2,0.1-0.3,0.1l0,0c-0.1,0.1-0.3,0.1-0.4,0.2c-0.1,0.1-0.2,0.1-0.3,0.2
									c0,0-0.1,0-0.1,0.1c-1.4,1.1-2,3.2-2,5.2c0,1.3,0.3,2.5,0.7,3.4c0-0.1,0-0.1,0-0.2c0-1.7,0.8-5.9,5-5.9c0.3,0,0.7,0,1.1,0.1
									h0l0,0c-0.1,0.4-0.2,0.8-0.3,1.2c0,0,0,0,0,0h0c0,0-0.3,1-0.3,2c0,0.4,0,0.8,0.2,1.2h0c1-5.4,4.1-7.9,8.4-4.1
									c3.3-3.5,6.8,0.6,6.8,0.6s-0.5-2.2-2.9-3.5C113.4,139.6,116,135,118.7,127.5L118.7,127.5z"/>
								<g>
									<path class="st2" d="M167.8,122.1L167.8,122.1c0.8,2.6,3.3,5.8,3.7,8.4c-4-4.9-8.1-3.2-13.7-9c-1.5-1.6-3.1-4-3.1-4l0,0
										c1.7,1.7,4.7,3.7,6.4,3.9c-1.8-2.9-1-6.7-1-6.7c2.3,3.7,3.7,5.1,6.2,5.8c-2.7-3.8-1.4-6.6-1.4-6.6c0-0.1,5.5,6.6,14.6,9.3
										l0,0c0,0.1,0,0.3,0,0.4c0.2,3.1,2.1,7.4,2.2,7.6c-0.1,0-0.9-0.2-1.7-0.6C177.2,129.6,170.8,125.5,167.8,122.1L167.8,122.1"
										/>
								</g>
							</g>
							<path class="st2" d="M95.7,158.7c0,0.1-0.1,0.1-0.1,0.2l0,0c0,0.1-0.1,0.1-0.1,0.2v0c-0.4,0.9-0.7,2.2-0.7,2.4
								c-0.1-0.2-0.5-1.2-0.8-2.4c0-0.1,0-0.2-0.1-0.3c0,0,0,0,0,0c0-0.1,0-0.2-0.1-0.3c0,0,0,0,0-0.1c0-0.1,0-0.2,0-0.3
								c0,0,0,0,0,0c0-0.1,0-0.2,0-0.3c0-0.2,0-0.4,0-0.6c0-1.5,0.6-2.1,1.2-2.2c0.1,0,0.2,0,0.3,0c0.5,0,1.3,0.2,1.3,1.3
								C96.6,156.8,96.3,157.6,95.7,158.7"/>
							<path class="st2" d="M101.5,158.6c0,0.1-0.1,0.2-0.1,0.2c0,0,0,0,0,0.1c0,0.1-0.1,0.1-0.1,0.2c-0.7,1.5-0.8,3-0.8,3.2
								c-0.1-0.1-0.8-0.9-1.4-2.5c-0.1-0.3-0.2-0.5-0.2-0.7c-0.1-0.3-0.2-0.7-0.2-1c0,0,0,0,0,0c0-0.1,0-0.1,0-0.2c0,0,0,0,0-0.1
								c0-0.1,0-0.1,0-0.2c0,0,0-0.1,0-0.1c0-0.1,0-0.1,0-0.2v0c0,0,0,0,0-0.1v-0.1c0,0,0-0.1,0-0.1c0-0.1,0-0.1,0-0.2
								c0-0.1,0-0.1,0-0.2c0,0,0-0.1,0-0.1c0,0,0-0.1,0-0.1c0,0,0-0.1,0-0.1c0,0,0-0.1,0-0.1c0,0,0-0.1,0-0.1c0,0,0-0.1,0.1-0.1
								c0,0,0-0.1,0-0.1c0,0,0-0.1,0.1-0.1c0,0,0,0,0-0.1c0-0.1,0.1-0.1,0.1-0.2c0.3-0.3,0.7-0.5,1.1-0.5c0.8,0,1.8,0.7,1.8,1.9
								C102,157.5,101.9,158,101.5,158.6"/>
							<path class="st2" d="M108.4,162c0,0.2,0,0.3,0,0.5c-1-1.4-1.5-2.5-1.7-3.5c-0.1-0.4-0.2-0.8-0.2-1.2c0-0.2,0-0.3,0-0.4
								c0.2-1.2,1-1.7,1.7-1.7c0.2,0,0.3,0,0.4,0.1c0.5,0.3,0.6,0.7,0.6,1.1C109.2,158.2,108.4,159.8,108.4,162"/>
						</g>
						<g>
							<path class="st2" d="M110.7,61.9c-0.5-0.5-2.7-4.1-2.7-9.1c0-1.1,0.1-2.3,0.4-3.5c2.4,2,4,3.8,4.6,5.6
								C112.2,56,111.5,58.5,110.7,61.9"/>
						</g>
						<g>
							<path class="st2" d="M129.4,20.5L129.4,20.5C129.4,20.5,129.4,20.5,129.4,20.5L129.4,20.5c1.6,1.1,2.9,1.4,4.1,1.4
								c1.3,0,2.4-0.3,3.5-0.3c0.9,0,1.8,0.2,2.7,1.1c-1.1-2.1-3.2-3.1-5-3.1c-0.6,0-1.1,0.1-1.6,0.3c-0.6,0.3-1,0.4-1.5,0.4
								c-0.8,0-1.5-0.4-2.1-0.4c-0.1,0-0.3,0-0.4,0.1l0,0l0,0c0.8-1.2,1-1.9,1.1-2.8c0.2-0.3,0.7-0.5,1.3-0.5c0.7,0,1.6,0.4,2.4,1.4
								c0.2,0.2,0.4,0.2,0.6,0.2c0.6,0,1-0.7,1-1.5c0-0.2,0-0.5-0.1-0.7c0-0.1-0.1-0.1-0.1-0.2c0,0,0,0,0-0.1c0,0,0,0,0-0.1
								c0,0,0,0,0,0c-0.9-1.4-3.1-2.6-5.4-2.3c0.1,0.2,0.2,0.3,0.2,0.5c0.1,0.3,0.2,0.7,0.2,1c0,1.5-1.2,2.9-1.7,3.2
								c-0.4,0.3-0.9,0.2-0.9,0.2S128.1,19.3,129.4,20.5z"/>
							<path class="st2" d="M146.6,29.3c-0.5-8.2-5.3-12.9-5.3-12.9s0.2-3.4-0.2-5.4c-0.2-1.2-0.9-2.3-2.1-2c1.1,2,1.2,5,0.7,6.8
								c-1-1-2.2-2-4.4-2.7c0,0,0,0,0,0c0.1,0,0.1,0.1,0.2,0.1c1.6,0.8,2.3,1.9,2.3,2.9c0,0.8-0.5,1.7-1.5,2.3
								c3.1,0.4,5.9,1.2,6.4,8.8c0,0,0,0,0,0v0h0c0,0,0,0,0,0c0.4,1.7,0.4,3.6,0.1,5.6v0c0,0,0,0,0,0.1v0c-0.1,1.8-0.6,3.5-0.9,4.2
								l0,0l0,0c-0.2-0.9-1-1.9-1.6-2.5c-0.4,3-2.1,5.2-3.7,6.5c0,0,0,0,0,0c0,0-1.4,1.4-3,2.3c5.7-8.7,4.4-18.2-0.5-19.6
								c-0.8-0.2-1.6-0.2-2.5,0l0,0c-1.5,2.2-3.4,3.6-3.4,4.5v0c0,0.4,0,0.7,0,1c0,0.7,0,1.3-0.2,2.1c0.8,0.1,1.5,0.4,2.1,0.6h0v0
								c-0.2,2.2-0.4,3.9-0.4,5.1v0c0,0.3,0.1,0.4,0.1,0.4c0.1,0,0.3-0.2,0.5-0.7c0.6-1.1,1.3-2.8,2-4.4c0.2,0.1,0.4,0.1,0.6,0.1
								c1.2,0,1.8-1.1,1.9-1.2c-0.1,0-1-0.4-2-0.8c-1.1-0.4-2.3-0.9-2.9-1.1c2.9,0.2,5.1,0.7,5.5,0.9c0.4-0.8,0.8-2.2,0.8-2.3
								c0.3,0.7,0.4,1.3,0.4,2c0,2.2-1.4,4-3,4.9c-1.2,2.4-1.1,2.4-1.9,5.1c-0.3,1.3-0.7,3.8-0.7,5.2c0,0.1,0,0.3,0,0.4
								c0,0.2,0,0.3,0,0.5c0,1.2-0.4,1.5-0.9,1.5c-0.4,0-0.8-0.2-0.9-0.2h0l0,0l0,0c0-0.3,0-0.6,0-0.8c0-1-0.1-1.9-0.2-2.9
								c0-0.4-0.1-0.6-0.2-0.6c-0.1,0-0.2,0.3-0.3,0.6c-0.3,1-0.9,2.7-1.1,3.2v0c-0.6-0.2-1.5-0.4-3-0.4h-0.2c-0.4,0-0.8,0-1.1,0.1
								h0c-0.3-1-0.8-2.7-1.1-3.5c-0.1-0.2-0.2-0.4-0.3-0.4c-0.1,0-0.1,0.1-0.2,0.5c-0.1,0.9-0.3,2.8-0.3,3.9v0h0
								c-0.8,0.1-1.3,0.6-1.5,0.6c-0.1,0-0.1,0-0.2,0c-0.6,0-1.2-0.7-1.8-1.8c0.2,1.5,0.1,2.6,0,3.7c0,0,0,0,0,0v0
								c0.2,2.3,2.9,3.4,5.7,3.4c2,0,4-0.6,5.3-1.7l0,0c-1.5,4-3.3,4.8-4.9,4.8c-0.9,0-1.6-0.2-2.2-0.3c-5.5,2.1-8.7,9.7-8.7,12.3v0
								l0,0l0,0c-1.5-1.2-5.4-4.5-9.5-12.6c-0.2,1.2-0.3,2.4-0.3,3.5c0,11.5,9.6,19.9,10.6,21.2c2.7-3.5,1.1-11.7,9.8-16.6l0,0
								c-5.2,6.4-4.6,17.8-7.4,25.5l0,0l0,0c-2.5-4.1-9.7-12.9-12.9-17.4c-2-2.9-3.2-6.9-3.4-11.5c-1.2,4.1-1.6,8.6-1,12.6l0,0.1
								c0,0,0.1,0.2,0.1,0.3c0,0.3,0.1,0.5,0.2,0.8c0,0.1,0,0.2,0.1,0.3c0.1,0.3,0.1,0.5,0.2,0.8c0,0.1,0.1,0.2,0.1,0.3
								c0.1,0.3,0.2,0.6,0.3,0.8c0,0.1,0.1,0.2,0.1,0.3c0.1,0.3,0.2,0.6,0.3,0.8c0,0.1,0.1,0.1,0.1,0.2c0.1,0.3,0.2,0.6,0.4,0.9
								c0,0,0.1,0.1,0.1,0.2c0.2,0.3,0.3,0.6,0.5,0.9c0,0,0,0.1,0.1,0.1c0.2,0.3,0.3,0.6,0.5,0.9c0,0,0,0.1,0,0.1
								c0.2,0.3,0.4,0.6,0.6,0.9c0,0,0,0,0,0c3.8,5.6,9.5,10.5,13.2,15.2c0,0,0,0,0,0c0.2,0.2,0.4,0.5,0.6,0.7c0,0,0,0.1,0.1,0.1
								c0.2,0.2,0.3,0.5,0.5,0.7c0,0,0.1,0.1,0.1,0.1c0.2,0.2,0.3,0.5,0.4,0.7c0,0,0.1,0.1,0.1,0.1c0.1,0.2,0.3,0.5,0.4,0.7
								c0,0.1,0.1,0.1,0.1,0.2c0.1,0.2,0.2,0.5,0.3,0.7c0,0.1,0.1,0.1,0.1,0.2c0.1,0.2,0.2,0.5,0.3,0.7c0,0.1,0,0.1,0.1,0.2
								c0.1,0.2,0.2,0.5,0.2,0.7c-0.2-1.1-0.3-2.2-0.3-3.3c0-0.2,0-0.4,0-0.6v-0.3c0-0.3,0-0.6,0-0.9c0-0.6,0.1-1.2,0.1-1.7
								c1.5-15.1,14.2-29.2,14.2-39V57c0-0.5,0-1.1-0.1-1.6l0,0v0c0.8,2.6,1.2,5,1.2,7.3v0.2c-0.1,12.8-11.3,21.2-11.5,30.1v0.2
								c0,1,0.1,2,0.5,3c0-0.2,0.1-0.4,0.2-0.6c0-0.1,0.1-0.2,0.1-0.4c0-0.1,0.1-0.2,0.1-0.3c0.1-0.1,0.1-0.3,0.2-0.4
								c0-0.1,0.1-0.2,0.1-0.3c0.1-0.1,0.2-0.3,0.2-0.4c0.1-0.1,0.1-0.2,0.2-0.3c0.1-0.1,0.2-0.3,0.3-0.4c0.1-0.1,0.1-0.2,0.2-0.3
								c0.1-0.1,0.2-0.3,0.3-0.4c0.1-0.1,0.2-0.2,0.3-0.3c0.1-0.1,0.2-0.2,0.3-0.3c0.1-0.1,0.2-0.3,0.3-0.4c0.1-0.1,0.1-0.2,0.2-0.3
								c0.1-0.2,0.3-0.4,0.4-0.5c0,0,0.1-0.1,0.1-0.1c2.3-2.8,5.3-6.1,7.8-10c0,0,0,0,0,0c0.2-0.3,0.4-0.7,0.6-1.1c0,0,0,0,0-0.1
								c0.2-0.3,0.4-0.7,0.6-1.1c0,0,0-0.1,0.1-0.1c0.2-0.4,0.3-0.7,0.5-1.1c0,0,0-0.1,0.1-0.1c0.2-0.3,0.3-0.7,0.5-1
								c0-0.1,0-0.1,0.1-0.2c0.1-0.3,0.3-0.7,0.4-1.1c0-0.1,0-0.2,0.1-0.2c0.1-0.4,0.2-0.7,0.3-1.1c0-0.1,0-0.2,0.1-0.3
								c0.1-0.4,0.2-0.7,0.3-1.1c0-0.1,0-0.2,0.1-0.3c0.1-0.3,0.2-0.7,0.2-1.1c0-0.1,0-0.2,0.1-0.3c0.1-0.4,0.1-0.7,0.1-1.1
								c0-0.1,0-0.3,0-0.4c0-0.3,0.1-0.7,0.1-1.1c0-0.1,0-0.3,0-0.4c0-0.2,0-0.3,0-0.5c0-0.2,0-0.4,0-0.6v-0.1V66v-0.2
								c0-0.4,0-0.7-0.1-1.1c0-0.2,0-0.3,0-0.5c0-0.4-0.1-0.7-0.1-1.1c0-0.2,0-0.3-0.1-0.5c0,0,0,0,0,0c0,0,0-0.1,0-0.1
								c-0.2-1.2-0.6-2.3-1-3.2c2.1,1.5,3.4,3.8,4.6,5.7c0.2-5.6-2.3-10.6-3.4-15.8c-0.4-1.9-0.6-4.3-0.4-5.8c0.1-1,0.5-1.9,1.7-2.2
								c1.4-0.3,3.2,0.4,2.9,2.8c6.6-8.4,2.3-15.4,2.3-15.4S145.4,28.6,146.6,29.3z M132.5,27.4c-0.8,0-1.6,0-2.4-0.1h0l0,0
								c0.8-0.5,1.7-0.7,2.5-0.7c1.7,0,3.1,0.7,3.1,0.7S134.3,27.4,132.5,27.4z"/>
						</g>
					</g>
				</g>
			</g>
		</g>
	</g>
	<g>
		<g>
			<g>
				<path class="st0" d="M317.4,215.4c-4.7,2.2-9.3,5.6-13.3,10.7V211l-0.5,0.4c-9,7.8-30.6,12.4-30.9,12.4l-0.2,0v4.2l0.3,0
					c5.6,0.5,11.3,5.1,11.3,12.8v18.1c0,15.5-5.9,18.5-11.6,19.3l-0.2,0l-1.4,4.5h46.8l-1.5-4.5l-0.2,0c-8.1-1.3-11.9-7.5-11.9-19.3
					v-11.3l-0.4,0.3c-2.4,1.6-4.8,4.8-6.1,6.7c1.7-6.2,4.6-11.4,8.3-15c4.6-4.4,11.1-7.1,17.6-7.1c2.2,0,4.3,0.3,6.4,0.9l0.3,0.1
					L337,212C337,212,327.8,210.7,317.4,215.4z"/>
				<path class="st0" d="M126.2,278.9c-6.8-1.1-12.3-5.4-12.3-19.8v-47.8c-6.2,5.8-31.4,12.6-31.4,12.6v3.7
					c5.8,0.5,11.7,5,11.7,13.2V259c0,14.4-4.6,18.7-12,19.8l-1.3,4h46.5L126.2,278.9z"/>
				<path class="st0" d="M56.4,206.1c0-1.2,2-1.3,4.6-1.3c10.5,0,22.9,5,24.8,9.7l3.5-1.1c0,0-7-13.5-7.4-25.5
					c-36.4,6.6-69.6,0.3-72.1,0.2c-1.2,13.3-7.4,25.3-7.4,25.3l3.5,1.1c2.6-4.8,14.3-9.7,24.8-9.7c2.6,0,4.6,0.1,4.6,1.3V259
					c0,14.4-7.3,18.7-14.6,19.8l-1.3,4h53.1l-1.3-4c-7.2-0.8-14.5-5.3-14.7-19.3c-3.8,2.9-11.7,5.5-11.7,5.5
					c3.3-1.7,8.2-8.8,11-13.4c0.4-0.6,0.7-1.1,0.7-2.6C56.4,248.6,56.4,206.1,56.4,206.1"/>
				<path class="st0" d="M262.8,258.8c-2.7,5.3-8.5,13-19.7,13c-12.2,0-15.9-12.2-15.9-12.2l0.1,0.1l43.9-14.7
					c-3.6-18.8-17.8-32.6-37.8-29.4c-18.7,3-31.8,21-28.2,40.7c3.8,20.9,20.9,32.4,39.7,29.2c13-2.2,22.6-10.2,27.7-23L262.8,258.8z
					 M224.6,249.1c0-0.1-0.6-1.8-0.8-4.7c-0.5-5.1,0.5-13.6,8.5-16.3c8.2-2.5,13.1,3.1,15.7,7.6c1.5,2.7,2.2,5.1,2.2,5.1
					S232.1,246.5,224.6,249.1"/>
				<path class="st0" d="M128.6,196.3l8.7-20.9c-14.4-0.2-40,9.2-40,37.7C103.1,203.4,114.3,196.1,128.6,196.3"/>
			</g>
			<path class="st0" d="M217.8,175.2c-11-2.2-44.8,8.7-54.3,38.4c-0.6,0-1.1-0.1-1.7-0.1c0,0,0.1,0-0.1,0c-19.6,0-35.6,15-35.6,33.6
				c0,10.9,7.5,31.8,36.4,31.8c7.3,0,15.1,10.3,15.1,23c0,12.7-7.1,19.8-15.1,19.8c-8.6,0-15.1-7.1-15.1-19.8
				c0-6.7,2.1-12.7,5.2-16.9c-10.1-5.4-29.5,0.7-29.5,19.1c0,17.2,14.9,31.8,39,31.8h0.1c21.6,0,39.1-12.8,39.1-32.6
				c0-12-6.5-22.7-16.4-29.1c-0.4-0.2-0.8-0.4-1.3-0.6c8.3-6.2,13.6-15.7,13.6-26.4c0-10.3-4.9-21.2-14.6-27.7
				c-6,2.5-11.5,6.3-15.4,10c3.8,3.7,6.3,10.8,6.3,18.9c0,5.6-1.2,10.7-3.2,14.6c-0.2,0.5-0.6,1.2-1.1,1.9c-0.6,0.9-1.2,1.6-1.9,2.3
				c-1.7,1.4-3.7,2.2-5.9,2.2c-2.6,0-4.7-1.1-6.5-2.8c-3.4-3.8-5.7-10.5-5.7-18.2c0-11.6,5.2-21.1,11.7-21.5
				c-0.2,2.7-0.1,5.5,0.1,8.5c9.6-16.1,21.4-28.5,44.2-30.8L217.8,175.2z"/>
		</g>
	</g>
</g>
</svg>
