<?xml version="1.0" encoding="utf-8"?>
<!-- Generator: Adobe Illustrator 19.2.1, SVG Export Plug-In . SVG Version: 6.00 Build 0)  -->
<svg version="1.1" id="Layer_1" xmlns="http://www.w3.org/2000/svg" xmlns:xlink="http://www.w3.org/1999/xlink" x="0px" y="0px"
	 viewBox="0 0 61.5 58.2" style="enable-background:new 0 0 61.5 58.2;" xml:space="preserve">
<style type="text/css">
	.st0{fill:none;stroke:#F7941E;stroke-width:2;stroke-linecap:round;stroke-miterlimit:10;}
</style>
<g>
	<path class="st0" d="M56,38.1v6.7c-0.3,4.9-4.3,8.8-9.2,9.3H7.7c-2.8-0.4-5-2.7-5.7-5.5V15.9c0.7-2.8,3-5,5.7-5.7h39.1
		c4.9,0.7,8.8,4.6,9.2,9.5v6.5"/>
	<path class="st0" d="M60,34.1c0,2.6-1.3,4-3.7,4H46.1c-2.4,0-4.1-1.4-4.1-4v-3c0-2.6,1.7-5.2,4.1-5h10.2c2.4-0.2,3.7,2.4,3.7,5
		V34.1z"/>
	<circle class="st0" cx="48" cy="32.1" r="1"/>
	<polyline class="st0" points="48.1,10.4 45.6,2 13,10.1 	"/>
	<line class="st0" x1="7.7" y1="16.1" x2="10.3" y2="16.1"/>
	<line class="st0" x1="15.3" y1="16.1" x2="17.8" y2="16.1"/>
	<line class="st0" x1="22.9" y1="16.1" x2="25.4" y2="16.1"/>
	<line class="st0" x1="30.4" y1="16.1" x2="33" y2="16.1"/>
	<line class="st0" x1="38" y1="16.1" x2="40.5" y2="16.1"/>
	<line class="st0" x1="45.6" y1="16.1" x2="48.1" y2="16.1"/>
	<line class="st0" x1="7.7" y1="48.1" x2="10.3" y2="48.1"/>
	<line class="st0" x1="15.3" y1="48.1" x2="17.8" y2="48.1"/>
	<line class="st0" x1="22.9" y1="48.1" x2="25.4" y2="48.1"/>
	<line class="st0" x1="30.4" y1="48.1" x2="33" y2="48.1"/>
	<line class="st0" x1="38" y1="48.1" x2="40.5" y2="48.1"/>
	<line class="st0" x1="45.6" y1="48.1" x2="48.1" y2="48.1"/>
</g>
</svg>
