<?xml version="1.0" encoding="utf-8"?>
<!-- Generator: Adobe Illustrator 19.1.0, SVG Export Plug-In . SVG Version: 6.00 Build 0)  -->
<svg version="1.1" id="Layer_1" xmlns="http://www.w3.org/2000/svg" xmlns:xlink="http://www.w3.org/1999/xlink" x="0px" y="0px"
	 width="300px" height="300px" viewBox="-361 363 300 300" style="enable-background:new -361 363 300 300;" xml:space="preserve">
<path style="fill:none;stroke:#000000;stroke-width:9;stroke-linejoin:round;stroke-miterlimit:1;" d="M-104,438.8
	c-0.1-0.1-4.9-1.1-8.3,0.5c-1,0.5-1.6,0.8-2,0.9c1.2-3.3,1.3-7-2-9.4c-4.9-3.7-5.3-9.1-5.3-10.2c-0.2,1-2.6,4.5-2.9,8.8
	c-3.3-3-7.7-5.1-12.6-4.2c-11.6,2.1-7.3,3.7-17.3,3.8c-0.2,0.8,5.2,2.5,5.9,2.4c-0.8,1.1-11.9,7.3-17.6,5.1
	c-0.6,1.3,2.6,2.4,3.7,2.4c-0.9,1.1-11.7,17.2-32.3,15.3c1.6,2,7.9,9.9,14.7,8.3c-2,1.4-10.8,3.8-14.1,3.1c0.4,1.2,4.3,3.1,8.3,4.8
	c-1.5,0.6-2.6,1.2-3.4,1.7c-0.1,0-0.1,0.1-0.2,0.1c-7.1,3.2-13.1,4.9-18.1,4.9h-11c-1.4,0-3.3-0.4-5.6-1.1c-3.6-0.9-5.5-1.4-5.8-1.4
	c-7.1-1.6-14.3-2.4-21.5-2.4c-8.5,0-17,3.1-25.4,9.4c-1.3-1.6-2.5-3.4-3.6-5.3c-0.1-0.2-0.2-0.3-0.3-0.5l-0.4-0.6l-0.8-1.1
	c-0.7-0.9-1.4-1.7-2.1-2.5c-1.5-1.6-3-3.2-4.9-4.7c-1.9-1.5-4-2.9-6.6-4c-2.6-1.1-5.6-1.8-8.9-1.7c-3.3,0.1-6.8,1.2-9.7,3.1
	c-2.9,1.9-5.2,4.6-6.7,7.4c-3.1,5.7-3.2,12-1.9,17.4c1.3,5.4,4.1,10,7.3,13.6c1.6,1.8,3.4,3.3,5.2,4.6c1.6,1.2,3,2,4.4,2.9
	c2.7,1.8,5.2,3.6,6.5,5c0.7,0.7,1.1,1.2,1.3,2.1c0.3,0.8,0.3,1.9,0.2,3.1c-0.1,2.3-0.6,4.5-0.8,6.3c-0.3,1.8-0.4,3.3-0.5,4.3
	c-0.1,1-0.1,1.5-0.1,1.5s0.3-0.4,0.9-1.2c0.6-0.8,1.5-2,2.5-3.5c1.1-1.5,2.3-3.3,3.7-5.7c0.7-1.2,1.3-2.8,1.6-4.7
	c0.3-1.9,0-4.4-0.7-6.4c-1.6-4.1-4-7-6.4-9.9c-1.2-1.4-2.6-2.9-3.8-4.2c-1-1.1-1.9-2.2-2.7-3.4c-1.6-2.4-2.6-5-2.8-7.5
	c-0.3-2.5,0.3-4.8,1.1-6.3c0.4-0.8,0.9-1.3,1.3-1.7c0.4-0.4,0.9-0.7,1.6-1c1.4-0.5,4-0.2,6.6,1.2c1.3,0.7,2.6,1.5,3.8,2.5
	c0.6,0.5,1.2,1,1.7,1.5l1,0.9l0.2,0.2l0,0c-0.1-0.1,0,0,0,0l0.1,0.1l0.1,0.1c0.2,0.2,0.4,0.3,0.6,0.5c2.4,1.9,5,3.6,7.5,4.8l-1,2.9
	c-1.7,4.4-2.6,8.4-2.6,11.9c0,5.7-1.1,12.8,2.6,19.6c3.7,6.8,8.3,9.5,8.4,9.6l0.8,0.8c-0.8,2.5-2.3,4.9-4.6,7.4
	c-3.4,3.6-5.7,6.3-6.8,8c-0.4,0.7-0.4,1.5,0.1,2.2c0.3,0.4,0.6,0.9,0.7,1.2c0.2,0.4,0.6,0.8,1,1c6.8,2.9,11,4.7,12.4,5.5l1.9,0.5
	c-0.5,2-1,3.1-0.8,3.4c2.8,5.6,5.6,11.2,8.4,16.9c3.5,7.4,5.5,12.6,6,15.7c0.1,0.8,0.7,1.4,1.4,1.5c0.9,0.2,1.8,0.4,2.7,0.6
	c1.7,0.7,2.6,1.6,2.6,2.8c0,0.3-0.1,0.7-0.2,1.1c-0.1,0.4-0.2,0.9-0.4,1.4c-0.1,0.4-0.3,0.7-0.4,1c-0.3,0.9,0.1,1.9,1,2.2
	c1.3,0.5,2.6,0.7,4.1,0.7c-0.1,0,1.1,0.1,3.7,0.2c1.8,0.1,3.1,0.1,4-0.2c0.4-0.1,0.7-0.1,1.1-0.3c0.5-0.2,0.9-0.5,1.1-1
	c0.3-0.6,0.2-1.2-0.2-1.8c0,0,0,0,0,0c-0.2-0.2-0.4-0.5-0.5-0.7c-0.1-0.1-0.1-0.2-0.2-0.3c-0.2-0.2-0.3-0.4-0.5-0.7
	c-1.8-2.4-4.6-5.9-8.3-10.5c-4-4.7-6.8-9.9-8.4-15.7c-0.1-0.5-0.6-1.7-1.6-3.7c-0.6-1.2-0.9-2.7-0.9-4.7c-0.3-1.5-0.2-2.9,0.2-4.2
	l1,0.3c5.3,0.9,10,2.7,14.3,5.5c1,0.6,1.2,1.9,0.5,2.8c0,0,0,0,0,0c0,0-0.1,0.1-0.1,0.1c-0.7,0.8-1.3,1.4-1.8,2
	c-0.3,0.4-0.5,0.8-0.5,1.3v2.1c0,0.5,0.2,1,0.5,1.3c2.1,2.3,3.9,4.2,5.3,5.8c0.2,0.2,0.4,0.5,0.6,0.7c0.6,0.7,1.5,0.8,2.2,0.4
	c0.4-0.2,0.7-0.5,0.9-0.8c0,0,0,0,0,0c0.3-0.5,0.5-1,0.7-1.5c0.1-0.3,0.3-0.6,0.4-0.8c0.1-0.2,0.2-0.3,0.2-0.5
	c0.2-0.3,0.3-0.7,0.5-1c0-0.1,0.1-0.1,0.1-0.2c1.1-2.5,1.7-4.2,1.7-5.2c0-2.9-1.1-6.8-3.4-11.7c-1.3-2.4-4.2-4.3-8.9-5.8
	c-4-1.3-7-2.3-8.8-2.9c-0.5-0.2-0.9-0.3-1.4-0.5c2.4-4.5,4.8-8.9,7.2-13.2c2-3.6,4.5-7,7.5-10.1c0.6-0.5,5.2-4,5.8-3.7
	c19.6,8.1,28.7,10,31.5,10c3.8,0,6.8,0.5,9.2,1.4c0.5,0.2,0.9,0.6,1,1.2c0.9,3.4,2.2,8.9,3.8,16.7c1.9,9.1,2.8,14.7,2.8,16.8v18.1
	c0,0.8,0.5,1.5,1.2,1.7c2.7,0.8,4.6,2.5,5.6,5c0.1,0.2,0.2,0.5,0.3,0.8c0.1,0.3,0.2,0.6,0.3,0.9c0,0.2,0.1,0.3,0.1,0.5
	c0.1,0.4,0.2,0.8,0.2,1.3c0.1,0.4,0.2,0.8,0.5,1.1c0.3,0.3,0.7,0.4,1.1,0.5c0.7,0,1.6,0.1,2.6,0.2c0.3,0,0.7,0.1,1,0.1
	c0.6,0.1,1.1,0.1,1.6,0.2c1.5,0.2,2.7,0.2,3.6,0.2c0.3,0,0.6-0.1,1-0.2c0.6-0.2,1-0.7,1.1-1.3c0,0,0-0.1,0-0.1
	c0.1-0.4,0-0.7-0.2-1.1c-0.2-0.4-0.4-0.9-0.6-1.4c0,0,0-0.1,0-0.1c-0.2-0.5-0.4-1-0.5-1.5c-0.2-0.7-0.4-1.5-0.6-2.3
	c-0.1-0.4-0.3-0.7-0.5-0.9c-2.1-1.8-4.1-3.7-6.1-5.5c-0.1,0-0.1-0.1-0.2-0.2c-2.4-2.7-3.6-5.2-3.6-7.6v-11.7c0,0,0-0.1,0-0.1
	c0.2-5.1,1-8.8,2.3-11.1c0.2-0.3,0.3-0.6,0.3-0.9c0-5.7,0-8.9-0.1-9.6l0-0.6c0.5-5.4,1.7-8.1,3.8-8.3c0.5,0.1,1.1,0.3,1.7,0.5
	c3.2,0.9,5.1,1.5,5.9,1.7c0.8,0.2,4.3,0.5,10.3,1c5.1,0.5,8.3,1,9.5,1.6c0.2,0.1,0.6,0.9,1.1,2.3c0.5,1.4,0.8,2.3,0.8,2.8
	c0,8.7-1.2,15.1-3.6,19.2c-0.5,0.8-1.6,1.1-2.4,0.6c-1.1-0.6-2-0.9-2.6-0.9c-1,0-1.9,0.1-2.6,0.2c-0.5,0.1-0.9,0.4-1.1,0.8
	c-0.1,0.1-0.1,0.3-0.2,0.4c-0.2,0.8-0.6,2.1-1.2,3.8c-0.2,0.6-0.4,1.2-0.6,1.8c-0.6,1.5-1,2.8-1.3,3.7c-0.1,0.3-0.2,0.6-0.3,0.9
	c0,0.1-0.1,0.2-0.1,0.3c-0.2,0.5-0.2,0.9-0.2,1v0.9c0,0.6,0.3,1.2,0.9,1.5v0c2.1,2.2,5.2-0.1,5.3-0.1c0.2,0,0.4-0.1,0.6-0.3
	c1.8-0.9,3.9-2.3,6.3-4.2c0,0,0.1,0,0.1-0.1c2.9-2.6,5.9-5.2,8.9-7.8c0.4-0.4,0.6-0.9,0.6-1.4c-0.4-10.6,0.5-19.3,2.7-26.2
	c0.7-2.1,0.6-4.5-0.6-6.5c-1.9-3.2-4.6-5.3-8.2-6.1c-6.1-1.5-10.4-3.1-13-4.8c-0.4-0.3-0.7-0.7-0.8-1.2c2.7-4.7,4.4-9,4.5-10.3
	c0-3.8-0.3-6.5-0.9-7.9c-0.2-0.5-0.2-1,0-1.4c3.8-8.1,6.6-14.3,8.4-18.6c0.8-1.8,1.3-5.1,1.4-10.2c0.1-3,0.4-5.5,1.1-7.5
	c0.5-1.3,2.2-1.7,3.1-0.6c2.5,3,4.5,5.5,5.9,7.4c0.2,0.3,2.1,2.2,1.9,2.6c1.5,5.3-1.5,10,5.1,10.3c2.6,0,4,1.9,6.1-0.2
	c2.1-2.1,3.2-4.5,3.2-7.2l0.3-33.4c0.1-1.8,1.3-2.5,2.1-3.7C-108.3,442.2-103.3,439.4-104,438.8z"/>
<path style="fill:#F26722;" d="M-249.3,535.4c-4.2,1-9.9,8.2-10.4,10.7c-0.5,2.5,5.5,7.3,10.3,8.9c1.8,0.6,4.8,1.6,8.8,2.9
	c4.7,1.5,7.6,3.5,8.9,5.8c2.3,4.9,3.4,8.8,3.4,11.7c0,1.5-1.2,4.6-3.6,9.2c-0.6,1.2-2.2,1.4-3.1,0.4c-1.5-1.7-3.5-3.9-5.9-6.4
	c-0.3-0.4-0.5-0.8-0.5-1.3v-2.1c0-0.5,0.2-0.9,0.5-1.3c0.5-0.5,1.1-1.2,1.8-2c0.8-0.9,0.6-2.3-0.4-2.9c-4.3-2.8-9.1-4.6-14.3-5.5
	l-16.8-4.7c-1.4-0.8-5.6-2.7-12.4-5.5c-0.4-0.2-0.8-0.5-1-1c-0.2-0.4-0.4-0.8-0.7-1.2c-0.5-0.6-0.5-1.5-0.1-2.2
	c1.1-1.7,3.4-4.4,6.8-8c3.5-3.8,5.3-7.6,5.3-11.5"/>
<path style="fill:#F26722;" d="M-151.9,513.9c-0.1,3.1-0.2,6.2-0.2,9.3v1.4c0,0.6,0.3,1.2,0.8,1.5c2.6,1.8,6.9,3.4,13,4.8
	c3.5,0.8,6.2,2.8,8.2,6.1c1.2,1.9,1.3,4.3,0.6,6.5c-2.2,6.8-3.1,15.5-2.7,26.2c0,0.5-0.2,1.1-0.6,1.4c-3,2.6-6,5.2-8.9,7.8
	c0,0-0.1,0.1-0.1,0.1c-4.5,3.6-8.1,5.4-10.6,5.4c-0.1,0-0.6-0.3-1.6-0.9c-0.5-0.3-0.9-0.9-0.9-1.5v-0.9c0-0.5,0.6-2.5,1.9-5.9
	c0.9-2.6,1.6-4.4,1.9-5.6c0.2-0.6,0.7-1.1,1.3-1.2c0.7-0.1,1.6-0.2,2.6-0.2c0.6,0,1.5,0.3,2.6,0.9c0.9,0.5,1.9,0.2,2.4-0.6
	c2.4-4.1,3.6-10.5,3.6-19.2c0-0.5-0.3-1.4-0.8-2.8c-0.5-1.4-0.9-2.2-1.1-2.3c-1.2-0.6-4.3-1.1-9.5-1.6c-6.1-0.5-9.5-0.8-10.3-1
	c-0.8-0.2-2.8-0.7-5.9-1.7c-2.4-0.8-4.4-1.2-5.8-1.2"/>
<g>
	<g>
		<defs>
			<path id="SVGID_1_" d="M-124.4,429.3c-3.3-3-7.7-5.1-12.6-4.2c-11.6,2.1-7.3,3.7-17.3,3.8c-0.2,0.8,5.2,2.5,5.9,2.4
				c-0.8,1.1-11.9,7.3-17.6,5.1c-0.6,1.3,2.6,2.4,3.7,2.4c-0.9,1.1-11.7,17.2-32.3,15.3c1.6,2,7.9,9.9,14.7,8.3
				c-2,1.4-10.8,3.8-14.1,3.1c0.4,1.2,4.3,3.1,8.3,4.8c-1.5,0.6-2.6,1.2-3.4,1.7c-0.1,0-0.1,0.1-0.2,0.1c-7.1,3.2-13.1,4.9-18.1,4.9
				h-11c-1.4,0-3.3-0.4-5.6-1.1c-3.6-0.9-5.5-1.4-5.8-1.4c-7.1-1.6-14.3-2.4-21.5-2.4c-8.5,0-17,3.1-25.4,9.4
				c-1.3-1.6-2.5-3.3-3.6-5.3c-0.1-0.2-0.2-0.3-0.3-0.5l-0.4-0.6l-0.8-1.1c-0.7-0.9-1.4-1.7-2.1-2.5c-1.5-1.6-3-3.2-4.9-4.7
				c-1.9-1.5-4-2.9-6.6-4c-2.6-1.1-5.6-1.8-8.9-1.7c-3.3,0.1-6.8,1.2-9.7,3.1c-2.9,1.9-5.2,4.6-6.7,7.4c-3.1,5.7-3.2,12-1.9,17.4
				c1.3,5.4,4.1,10,7.3,13.6c1.6,1.8,3.4,3.3,5.2,4.6c1.6,1.2,3,2,4.4,2.9c2.7,1.8,5.2,3.6,6.5,5c0.7,0.7,1.1,1.2,1.3,2.1
				c0.3,0.8,0.3,1.9,0.2,3.1c-0.1,2.3-0.6,4.5-0.8,6.3c-0.3,1.8-0.4,3.3-0.5,4.3c-0.1,1-0.1,1.5-0.1,1.5s0.3-0.4,0.9-1.2
				c0.6-0.8,1.5-2,2.5-3.5c1.1-1.5,2.3-3.3,3.7-5.7c0.7-1.2,1.3-2.8,1.6-4.7c0.3-1.9,0-4.4-0.7-6.4c-1.6-4.1-4-7-6.4-9.9
				c-1.2-1.4-2.6-2.9-3.8-4.2c-1-1.1-1.9-2.2-2.7-3.4c-1.6-2.4-2.6-5-2.9-7.5c-0.3-2.5,0.3-4.8,1.1-6.3c0.4-0.8,0.9-1.3,1.3-1.7
				c0.4-0.4,0.9-0.7,1.6-1c1.4-0.5,4-0.2,6.6,1.2c1.3,0.7,2.6,1.5,3.8,2.5c0.6,0.5,1.2,1,1.7,1.5l1,0.9l0.2,0.2l0,0
				c-0.1-0.1-0.1-0.1,0-0.1c0,0,0,0,0,0l0.1,0.1l0.1,0.1c0.2,0.2,0.4,0.3,0.6,0.5c2.4,1.9,5,3.6,7.5,4.8l-1,2.9
				c-1.7,4.4-2.6,8.4-2.6,11.9c0,5.7-1.1,12.8,2.6,19.6c3.7,6.8,8.3,9.5,8.4,9.6l2,2c20.5,6.3,4,22.7,3.6,24.2
				c-0.5,2.3-1.1,3.6-0.9,3.9c2.8,5.6,5.6,11.2,8.4,16.9c3.5,7.4,5.5,12.6,6,15.7c0.1,0.8,0.7,1.4,1.4,1.5c0.9,0.2,1.8,0.4,2.7,0.6
				c1.7,0.7,2.6,1.6,2.6,2.8c0,0.6-0.2,1.4-0.6,2.5c-0.1,0.4-0.3,0.7-0.4,1c-0.3,0.9,0.1,1.9,1,2.2c1.3,0.5,2.6,0.7,4.1,0.7
				c-0.1,0,1.1,0.1,3.7,0.2c1.8,0.1,3.1,0.1,4-0.2c0.4-0.1,0.7-0.1,1.1-0.3c1.2-0.4,1.6-1.8,0.9-2.8c-1.7-2.3-4.9-6.3-9.7-12.2
				c-4-4.7-6.8-9.9-8.4-15.7c-0.1-0.5-0.6-1.7-1.6-3.7c-0.6-1.2-0.9-2.7-0.9-4.7c-0.9-4.7,2.2-8.3,3.6-11.5c2.7-5,5.4-9.8,8-14.7
				c2-3.6,4.5-7,7.5-10.1c0.6-0.5,5.2-4,5.8-3.7c19.6,8.1,28.7,10,31.5,10c3.8,0,6.8,0.5,9.2,1.4c0.5,0.2,0.9,0.6,1,1.2
				c0.9,3.4,2.2,8.9,3.8,16.7c1.9,9.1,2.8,14.7,2.8,16.8v18.1c0,0.8,0.5,1.5,1.2,1.7c3.8,1.2,6,4,6.6,8.4c0.1,0.8,0.8,1.5,1.6,1.5
				c1,0.1,2.2,0.2,3.7,0.4c2.3,0.3,4,0.4,5.2,0.4c0.3,0,0.6-0.1,1-0.2c1-0.3,1.4-1.5,1-2.5c-0.7-1.5-1.3-3.3-1.8-5.4
				c-0.1-0.4-0.3-0.7-0.5-0.9c-2.1-1.8-4.1-3.7-6.1-5.5c-0.1-0.1-0.1-0.1-0.2-0.2c-2.4-2.7-3.6-5.2-3.6-7.6v-11.7c0,0,0-0.1,0-0.1
				c0.2-5.1,1-8.8,2.4-11.1c0.2-0.3,0.3-0.6,0.3-0.9c0-5.7,0-8.9-0.1-9.6l0-0.6c0.5-5.5,1.8-8.3,4-8.3c10.4-1.2,20-21.5,20.1-24.7
				c0-3.8-0.3-6.5-0.9-7.9c-0.2-0.5-0.2-1,0-1.4c3.8-8.1,6.6-14.3,8.4-18.6c0.8-1.8,1.3-5.1,1.4-10.1c0.1-3,0.4-5.5,1.1-7.5
				c0.5-1.3,2.2-1.7,3.1-0.6c2.5,3,4.5,5.5,5.9,7.4c0.2,0.3,2.1,2.2,1.9,2.6c1.5,5.3-1.5,10,5.1,10.3c2.6,0,4,1.9,6.1-0.2
				c2.1-2.1,3.1-4.5,3.1-7.2l0.3-33.4c0.1-1.8,1.3-2.5,2.1-3.7c1.5-2.1,6.5-4.9,5.8-5.5c-0.1-0.1-4.9-1.1-8.3,0.5
				c-1,0.5-1.6,0.8-2,0.9c1.2-3.3,1.3-7-2-9.4c-4.9-3.7-5.3-9.1-5.3-10.2C-121.7,421.5-124.1,425-124.4,429.3"/>
		</defs>
		<clipPath id="SVGID_2_">
			<use xlink:href="#SVGID_1_"  style="overflow:visible;"/>
		</clipPath>
		
			<linearGradient id="SVGID_3_" gradientUnits="userSpaceOnUse" x1="-3706.4771" y1="-902.0981" x2="-3705.4771" y2="-902.0981" gradientTransform="matrix(219.9916 0 0 219.9916 815070.0625 198967.75)">
			<stop  offset="0" style="stop-color:#FFCB05"/>
			<stop  offset="0.3156" style="stop-color:#FFCB05"/>
			<stop  offset="0.8667" style="stop-color:#FAA41A"/>
			<stop  offset="1" style="stop-color:#FAA41A"/>
		</linearGradient>
		<rect x="-324.4" y="420.5" style="clip-path:url(#SVGID_2_);fill:url(#SVGID_3_);" width="221.2" height="186.5"/>
	</g>
</g>
<path style="fill:#FFFFFF;" d="M-217,483.8c0,0-3.5-0.5-8.8-1c-2.6-0.3-5.7-0.6-9-0.8c-1.6-0.1-3.3-0.2-5.1-0.3
	c-1.7-0.1-3.5-0.1-5.2-0.2c-1.7-0.1-3.4,0-5.1-0.1c-1.7-0.1-3.3-0.2-4.9-0.2c-1.6,0-3.1,0-4.5,0.2c-1.4,0.2-2.7,0.4-3.9,0.8
	c-1.2,0.4-2.2,0.9-3.1,1.4c-0.9,0.5-1.6,1.1-2.2,1.6c-0.5,0.5-1,1-1.2,1.3c-0.3,0.3-0.4,0.5-0.4,0.5s0.1-0.2,0.2-0.6
	c0.1-0.4,0.4-1,0.8-1.7c0.4-0.7,1-1.5,1.8-2.3c0.8-0.8,1.8-1.7,3-2.4c2.4-1.5,5.6-2.6,9.1-3.2c1.7-0.3,3.5-0.6,5.3-0.6
	c1.8,0,3.6,0.2,5.4,0.4c1.8,0.1,3.6,0.5,5.3,0.9c1.7,0.4,3.4,0.8,5,1.2c3.2,0.8,6.2,1.7,8.8,2.4c2.6,0.7,4.7,1.4,6.2,1.9
	C-217.9,483.6-217,483.8-217,483.8"/>
<path style="fill:#FFFFFF;" d="M-239.2,571.7c0,0.1-0.1,0.1-0.1,0.2c-0.7,0.8-1.3,1.4-1.8,2c-0.3,0.4-0.5,0.8-0.5,1.3v2.1
	c0,0.5,0.2,1,0.5,1.3c2.4,2.6,4.4,4.7,5.9,6.5c0.9,1,2.5,0.8,3.1-0.4c1-2,1.8-3.6,2.4-5L-239.2,571.7z"/>
<path style="fill:#FFFFFF;" d="M-144.6,568.9c-1.1-0.6-2-0.9-2.6-0.9c-1,0-1.9,0.1-2.6,0.2c-0.6,0.1-1.1,0.6-1.3,1.2
	c-0.3,1.1-0.9,3-1.9,5.5c-1.3,3.5-1.9,5.5-1.9,5.9v0.9c0,0.6,0.4,1.1,0.9,1.5c2.1,2.2,5.2-0.1,5.3-0.1
	C-146.3,583.3-144,569.2-144.6,568.9"/>
<path style="fill:#FFFFFF;" d="M-234.8,603.7c-0.5-0.6-1.1-1.4-1.8-2.3h-12.2c-0.1,0.4-0.2,0.9-0.4,1.4c-0.1,0.4-0.3,0.7-0.4,1
	c-0.3,0.9,0.1,1.9,1,2.2c1.3,0.5,2.6,0.7,4.1,0.7c-0.1,0,1.1,0.1,3.7,0.2c1.8,0.1,3.1,0.1,4-0.2c0.4-0.1,0.7-0.1,1.1-0.3
	C-234.5,606-234,604.7-234.8,603.7"/>
<path style="fill:#FFFFFF;" d="M-174.3,601.5c0.1,0.8,0.8,1.5,1.6,1.5c1,0.1,2.2,0.2,3.7,0.4c2.3,0.3,4,0.4,5.2,0.4
	c0.3,0,0.6-0.1,1-0.2c1-0.3,1.4-1.5,1-2.5c-0.4-0.9-0.8-2-1.2-3.1h-12.1C-174.7,599.1-174.4,600.2-174.3,601.5"/>
<path style="fill:#FFFFFF;" d="M-115.9,442c0.3-0.6,0.5-1.3,0.6-2c0-0.3,0.1-0.7,0.1-1c0-0.3-0.1-0.7-0.2-1c-0.1-0.3-0.2-0.6-0.4-1
	c-0.2-0.3-0.4-0.6-0.6-0.8c-0.2-0.2-0.5-0.5-0.8-0.7l-0.9-0.5c-0.6-0.3-1.2-0.8-1.7-1.3c-0.2-0.3-0.5-0.5-0.7-0.8
	c-0.2-0.3-0.4-0.6-0.6-0.9c-0.3-0.6-0.5-1.4-0.6-2.1c-0.1-0.4-0.1-0.7-0.1-1.1c0-0.4,0-0.7,0-1l0.5,0c-0.1,0.6-0.3,1.1-0.5,1.7
	c-0.2,0.5-0.3,1.1-0.4,1.6c-0.3,1.1-0.4,2.2-0.5,3.3v0c0,0.2-0.1,0.3-0.3,0.3c0,0-0.1,0-0.1,0l-0.1,0c-0.6-0.2-1.2-0.5-1.8-0.6
	c-0.6-0.2-1.2-0.3-1.8-0.4c-1.2-0.2-2.4-0.4-3.6-0.4c-0.6,0-1.2,0-1.8,0c-0.6,0-1.2,0.1-1.8,0.2c-0.3,0-0.6,0.1-0.9,0.2l-0.4,0.1
	l-0.5,0.1c-0.6,0.2-1.3,0.3-1.8,0.5c-0.6,0.1-1.2,0.3-1.7,0.5c-0.6,0.2-1.2,0.4-1.7,0.6c-1.1,0.5-2.2,1-3.4,1.6
	c-0.6,0.3-1.3,0.6-1.9,0.8c-0.7,0.2-1.4,0.4-2.1,0.5c-0.7,0.1-1.4,0.2-2.1,0.2c-0.7,0-1.4,0-2,0l0,0l0.8-0.6
	c0.1-0.4-0.1-0.6-0.1-0.6c0-0.1,0-0.1,0-0.1l0.2,0.1c0.2,0.1,0.3,0.1,0.5,0.1c0.4,0.1,0.8,0.2,1.2,0.2s0.8,0.1,1.2,0.1
	c0.2,0,0.4,0,0.6,0h0.3c0.1,0,0.2,0,0,0l0,0l1.4,2.2c-0.1,0.1-0.3,0.2-0.4,0.3c-0.2,0.1-0.2,0.1-0.3,0.2c-0.2,0.1-0.3,0.2-0.5,0.3
	c-0.3,0.2-0.6,0.3-0.9,0.5c-0.6,0.3-1.2,0.5-1.8,0.8c-1.2,0.5-2.4,1-3.6,1.4c-0.6,0.2-1.2,0.4-1.9,0.5c-0.3,0.1-0.6,0.2-1,0.2
	c-0.3,0.1-0.6,0.1-1,0.2c-0.7,0.1-1.3,0.2-2,0.2l-1.1-0.1l-1.1-0.2l1.1-0.5c0-0.1,0-0.1,0-0.2c0-0.1,0-0.1,0-0.2c0,0,0,0,0,0
	c0,0,0,0,0.1,0.1c0.1,0.1,0.4,0.2,0.6,0.3c0.2,0.1,0.5,0.2,0.8,0.2c0.1,0,0.3,0,0.4,0.1c0.1,0,0.2,0,0.3,0h0c0.5,0,1,0.4,1,1
	c0,0.2-0.1,0.4-0.2,0.6l0,0c-0.3,0.4-0.7,0.9-1.1,1.4c-0.4,0.5-0.8,0.9-1.2,1.3c-0.4,0.4-0.8,0.8-1.3,1.2c-0.4,0.4-0.9,0.8-1.4,1.2
	c-0.5,0.4-1,0.7-1.4,1.1c-0.5,0.4-1,0.6-1.5,1c-0.5,0.3-1,0.6-1.6,0.9c-0.5,0.3-1.1,0.5-1.6,0.8c-0.5,0.2-1.1,0.5-1.6,0.7l-1.7,0.6
	l-1.7,0.4c-0.6,0.2-1.2,0.2-1.7,0.3c-0.6,0.1-1.2,0.2-1.8,0.2l-1.8,0.1c-0.6,0.1-1.2,0-1.8,0l-1.8-0.1l0,0l0.5-1.1
	c1.5,1.5,3.1,3,4.9,4c0.5,0.3,0.9,0.5,1.4,0.7c0.2,0.1,0.5,0.2,0.7,0.3c0.2,0.1,0.5,0.2,0.7,0.2c0.2,0.1,0.5,0.1,0.8,0.2
	c0.3,0,0.5,0.1,0.8,0.1c0.3,0,0.5,0,0.8,0l0.8-0.1l0,0c0.2,0,0.3,0.1,0.4,0.3c0,0.1,0,0.2-0.1,0.3c-1.7,1.1-3.4,2.1-5.2,3
	c-0.9,0.5-1.8,0.9-2.7,1.2c-0.5,0.2-0.9,0.3-1.4,0.4c-0.2,0.1-0.5,0.1-0.7,0.1c-0.2,0-0.5,0-0.7,0c0.3,0,0.5,0,0.7,0
	c0.2,0,0.5-0.1,0.7-0.2c0.5-0.1,0.9-0.3,1.4-0.5c0.9-0.4,1.8-0.9,2.7-1.4c1.7-1,3.4-2.1,5-3.2l0.2,0.6l-0.8,0.1c-0.3,0-0.6,0-0.9,0
	c-0.3,0-0.6,0-0.8,0c-0.3,0-0.6-0.1-0.8-0.1c-0.3-0.1-0.6-0.1-0.8-0.2c-0.3-0.1-0.5-0.1-0.8-0.3c-0.5-0.2-1-0.4-1.5-0.7
	c-2-1-3.7-2.4-5.3-4c-0.3-0.2-0.3-0.7,0-0.9c0.1-0.1,0.3-0.2,0.5-0.2h0.1h0l1.7,0c0.6,0,1.1,0,1.7-0.1l1.7-0.2
	c0.6,0,1.1-0.2,1.6-0.3c0.5-0.1,1.1-0.2,1.6-0.4l1.6-0.5l1.6-0.6c0.5-0.2,1-0.4,1.5-0.7c0.5-0.2,1-0.5,1.5-0.8
	c0.5-0.3,1-0.5,1.4-0.9c0.5-0.3,0.9-0.6,1.4-0.9c0.4-0.3,0.9-0.7,1.3-1c0.4-0.4,0.9-0.7,1.3-1.1c0.4-0.4,0.8-0.8,1.2-1.1
	c0.4-0.4,0.8-0.8,1.1-1.2c0.4-0.4,0.7-0.8,1.1-1.3l0.8,1.6l0,0c-0.2,0-0.4,0-0.6,0c-0.2,0-0.4-0.1-0.5-0.1c-0.3-0.1-0.7-0.2-1-0.3
	c-0.3-0.1-0.7-0.3-1.1-0.5c-0.1-0.1-0.2-0.2-0.3-0.2c-0.1-0.1-0.2-0.2-0.3-0.4c-0.1-0.2-0.2-0.4-0.2-0.6c0-0.2,0-0.4,0.1-0.6
	c0.1-0.4,0.5-0.6,0.9-0.6l0.2,0l0.8,0.2l0.8,0c0.6,0,1.2,0,1.7-0.2c0.3,0,0.6-0.1,0.9-0.2c0.3-0.1,0.6-0.1,0.9-0.2
	c0.6-0.2,1.2-0.4,1.7-0.5c1.1-0.4,2.3-0.9,3.4-1.5c0.5-0.3,1.1-0.6,1.6-0.9c0.3-0.2,0.5-0.3,0.7-0.5c0.1-0.1,0.2-0.2,0.3-0.3
	c0,0,0.1-0.1,0.1-0.1c0,0,0,0,0,0l1.3,2.2l-0.1,0c-0.4,0-0.5,0-0.7,0l-0.4-0.1c-0.2-0.1-0.5-0.1-0.7-0.2c-0.5-0.1-0.9-0.3-1.3-0.4
	c-0.4-0.2-0.9-0.3-1.3-0.5c-0.2-0.1-0.4-0.2-0.7-0.3c-0.1-0.1-0.2-0.1-0.4-0.3c-0.1-0.1-0.2-0.1-0.3-0.3c-0.1-0.1-0.3-0.4-0.2-0.9
	l0-0.1c0.1-0.3,0.4-0.5,0.7-0.5l0,0c0.6-0.2,1.2-0.3,1.8-0.4c0.6-0.1,1.2-0.3,1.8-0.5c0.3-0.1,0.6-0.2,0.8-0.3l0.8-0.3
	c0.5-0.3,1-0.5,1.6-0.8c1.1-0.6,2.3-1.3,3.5-1.9c0.6-0.3,1.3-0.5,1.9-0.8c0.6-0.2,1.3-0.4,2-0.6c0.7-0.2,1.3-0.3,1.9-0.5l0.5-0.1
	c0.2,0,0.4-0.1,0.6-0.1c0.4-0.1,0.7-0.1,1.1-0.1c1.4-0.1,2.8,0,4.2,0.2c0.7,0.1,1.4,0.3,2,0.5c0.7,0.2,1.3,0.5,1.9,0.7
	c1.2,0.6,2.4,1.3,3.4,2.3l-0.6,0.3l0,0c0.1-1.2,0.3-2.3,0.6-3.4c0.1-0.6,0.3-1.1,0.5-1.6c0.2-0.5,0.4-1.1,0.5-1.6l0,0
	c0-0.1,0.2-0.2,0.3-0.2c0.1,0,0.2,0.1,0.2,0.3c0,0.4,0,0.7,0,1.1c0,0.3,0,0.7,0.1,1c0.1,0.7,0.3,1.3,0.6,2c0.2,0.3,0.3,0.6,0.5,0.9
	c0.2,0.3,0.4,0.5,0.6,0.8c0.5,0.5,1,0.9,1.6,1.3l0.9,0.6c0.3,0.2,0.6,0.5,0.8,0.7c0.2,0.3,0.5,0.6,0.6,0.9c0.2,0.3,0.3,0.6,0.4,1
	c0.1,0.3,0.1,0.7,0.1,1.1c0,0.4,0,0.7-0.1,1.1C-115.3,440.7-115.6,441.4-115.9,442"/>
</svg>
