<?xml version="1.0" encoding="utf-8"?>
<!-- Generator: Adobe Illustrator 19.1.0, SVG Export Plug-In . SVG Version: 6.00 Build 0)  -->
<svg version="1.1" id="Layer_1" xmlns="http://www.w3.org/2000/svg" xmlns:xlink="http://www.w3.org/1999/xlink" x="0px" y="0px"
	 width="300px" height="300px" viewBox="-361 363 300 300" style="enable-background:new -361 363 300 300;" xml:space="preserve">
<g>
	<line style="fill:none;" x1="-116.6" y1="605.6" x2="-304.2" y2="605.6"/>
</g>
<path style="fill:none;stroke:#231F20;stroke-width:9;stroke-linecap:round;stroke-linejoin:round;" d="M-106,604.6
	c-1-7-23.3-13-39.3-29.5c-3.9-4-9.1-9.7-8.4-19.1c2.5-4.7,3-9.8,3.7-13c1.3-6,24.7-2,29-3.3c4.3-1.3,5.3-9,4.7-10.7
	c-1.7-7-5.3-8.1-11-10.3c-0.3-9-4.3-14-20.3-16s-20.7,9.3-22,16c-25.3-20.7-69-31-100.3-25.3c-1.7,0.3-3.2,0.6-4.7,1v0l0,0
	c-1.4,0.4-2.8,0.7-4,1.1c-6,0.8-16.2,1.2-19.1-28.5c0.2-2.3,0.7-4.6,1.6-7c6.1-15.9,22.5-37.6,41-36c11.7,1,16.8,16.3,19.2,26.3
	c2.1,8.7,2.7,19.8-7.7,22.8c-5.8,1.7-17.4,0.6-21-5.2c0,0,0-0.1,0,0.1c-1.8-4.2,0.6-7.9,3.9-10.8c0.7-0.6-0.1-1.6-0.8-1.1
	c-6.3,4-10.6,10.7-4.7,17.3c8.9,10,28.5,11.6,37.5,1.2c12.3-14.2,4.7-44.9-8.2-56.5c-24.1-21.8-57.3,3.5-69.7,25.7
	c-8.1,14.5-11.2,30.5-5.4,45.7c2.7,9.8,10.5,27.8,14.8,35.4c4.9,10.8,9,34.2,7.3,43.3c-2,10.7-17.7,35.7-22,41.7c-4.3,6,0,15,0,15
	l30.3-1.3c0-9.7-18-9.3-18-9.3s7.7-8.7,20.3-24.7c12.7-16,15.9-35.1,18-41.7c0.4-0.6,1.4-0.9,2.9-1c-1.2,0.2-2.3,0.5-2.9,1
	c13.3,5.3,11,40.3,6.7,49.7c-4.3,9.3-6.3,17-7,21c-0.7,4,3.7,6.3,3.7,6.3h27.3c0-5.7-12.3-11.7-19.3-12.7c5-4,20-25.3,23-33.7
	c3-8.3-1-25-1-25c4.7,3.4,10,7.3,10,7.3s-1,12.3,5.3,24c6.3,11.7,50,27.3,51.7,29c1.7,1.7,3.7,11,3.7,11h5.7c1.3-1,1.7-4.7,0.7-11.7
	s-35-25.3-36.7-32c-1.4-5.6,4.4-10.4,14.7-13.8c0.9,3,2.1,6.2,3.8,9.3c6.3,11.7,51.5,27.2,53.2,28.8c1.7,1.7,3.7,11,3.7,11h5.7
	C-105.3,615.3-105,611.6-106,604.6z"/>
<path style="fill:#F16722;" d="M-261.3,547.6c13.3,5.3,11,40.3,6.7,49.7c-4.3,9.3-6.3,17-7,21s3.7,6.3,3.7,6.3h27.3
	c0-5.7-12.3-11.7-19.3-12.7c5-4,20-25.3,23-33.7c3-8.3-1-25-1-25C-237,546.8-256.7,544.7-261.3,547.6"/>
<path style="fill:#F16722;" d="M-175.3,552.6c0,0-0.2,12.2,6.2,23.8c6.3,11.7,51.5,27.2,53.2,28.8c1.7,1.7,3.7,11,3.7,11h5.7
	c1.3-1,1.7-4.7,0.7-11.7s-23.3-13-39.3-29.5c-4.7-4.8-11.3-12.2-7.2-25.3"/>
<g>
	<g>
		<defs>
			<path id="SVGID_1_" d="M-306.7,443.6c-8.1,14.5-11.2,30.5-5.4,45.7c2.7,9.8,10.5,27.8,14.8,35.4c4.9,10.8,9,34.2,7.3,43.3
				c-2,10.7-17.7,35.7-22,41.7c-4.3,6,0,15,0,15l30.3-1.3c0-9.7-18-9.3-18-9.3s7.7-8.7,20.3-24.7c12.7-16,15.9-35.1,18-41.7
				c2.1-3.3,28.7,2.3,33.3,5.7c4.7,3.4,10,7.3,10,7.3s-1,12.3,5.3,24c6.3,11.7,50,27.3,51.7,29c1.7,1.7,3.7,11,3.7,11h5.7
				c1.3-1,1.7-4.7,0.7-11.7s-35-25.3-36.7-32c-1.7-6.7,7-12.3,21.3-15.7c14.3-3.3,15-16.3,16.3-22.3c0.9-3.9,11.1-3.6,19.3-3.2
				c4.4,0.2,8.2,0.4,9.7-0.1c4.3-1.3,5.3-9,4.7-10.7c-1.7-7-5.3-8.1-11-10.3c-0.3-9-4.3-14-20.3-16c-16-2-20.7,9.3-22,16
				c-25.3-20.7-69-31-100.3-25.3c-1.7,0.3-3.2,0.6-4.7,1l0,0c-1.4,0.4-2.8,0.7-4,1.1c-6,0.8-16.2,1.2-19.1-28.5
				c0.2-2.3,0.7-4.6,1.6-7c6.1-15.9,22.5-37.6,41-36c11.7,1,16.8,16.3,19.2,26.3c2.1,8.7,2.7,19.8-7.7,22.8
				c-5.8,1.7-17.4,0.6-21-5.2c0,0,0,0,0,0c0,0,0,0,0,0.1c-1.8-4.2,0.6-7.9,3.9-10.8c0.7-0.6-0.1-1.6-0.8-1.1
				c-6.3,4-10.6,10.7-4.7,17.3c8.9,10,28.5,11.6,37.5,1.2c12.3-14.2,4.7-44.9-8.2-56.5c-6.5-5.9-13.7-8.3-21-8.3
				C-277.5,409.6-297.6,427.4-306.7,443.6"/>
		</defs>
		<clipPath id="SVGID_2_">
			<use xlink:href="#SVGID_1_"  style="overflow:visible;"/>
		</clipPath>
		
			<linearGradient id="SVGID_3_" gradientUnits="userSpaceOnUse" x1="-3709.1765" y1="-902.9113" x2="-3708.1765" y2="-902.9113" gradientTransform="matrix(198.984 0 0 198.984 737751.5 180181.9844)">
			<stop  offset="0" style="stop-color:#FFCA05"/>
			<stop  offset="0.3156" style="stop-color:#FFCA05"/>
			<stop  offset="0.8667" style="stop-color:#F9A31A"/>
			<stop  offset="1" style="stop-color:#F9A31A"/>
		</linearGradient>
		<rect x="-318" y="409.6" style="clip-path:url(#SVGID_2_);fill:url(#SVGID_3_);" width="202.3" height="215.1"/>
	</g>
</g>
<path style="fill:#F16722;" d="M-116.3,529C-116.3,529-116.3,529-116.3,529c-0.1-0.4-0.2-0.8-0.3-1.1c0-0.1-0.1-0.2-0.1-0.3
	c-0.1-0.2-0.2-0.5-0.2-0.7c0-0.1-0.1-0.2-0.1-0.4c-0.1-0.2-0.2-0.4-0.3-0.6c0-0.1-0.1-0.2-0.1-0.3c-0.1-0.3-0.3-0.5-0.4-0.8
	c-0.1-0.1-0.1-0.2-0.2-0.2c-0.1-0.2-0.2-0.3-0.3-0.5c-0.1-0.1-0.1-0.2-0.2-0.3c-0.1-0.1-0.2-0.2-0.3-0.4c-0.1-0.1-0.2-0.2-0.2-0.3
	c-0.1-0.1-0.2-0.2-0.3-0.3c-0.1-0.1-0.3-0.3-0.4-0.4c-0.1-0.1-0.2-0.2-0.4-0.3c-0.1-0.1-0.2-0.2-0.3-0.3c-0.1-0.1-0.2-0.1-0.3-0.2
	c-0.1-0.1-0.3-0.2-0.4-0.3c-0.1-0.1-0.2-0.1-0.3-0.2c-0.1-0.1-0.3-0.2-0.4-0.3c0,0,0,0,0,0c-0.4-0.2-0.8-0.4-1.2-0.6c0,0,0,0,0,0
	c-0.2-0.1-0.5-0.2-0.7-0.3c-1-0.5-2.2-0.9-3.4-1.4c-0.1-2.5-0.5-4.8-1.4-6.7c-1.2,1.2-4,1.4-9.3-1.5c-5.3-2.9-7,0.6-5.9,6.6
	c0.8,4.1-0.3,5.3-1.7,5.8c-2.2-1.7-3.8-4.4-4.7-5.8c-2.5-5.8-6.9-1-6.8,3.2c0.1,2.6,0.5,7.8,6.8,6.5c2.8-0.1,4,10.6,5.3,13.2h0
	c5.9-1,15.4-0.1,20.7-0.1c0,0,0.1,0,0.1,0c0.2,0,0.5,0,0.7,0c0.1,0,0.1,0,0.2,0c0.2,0,0.4,0,0.6,0c0,0,0.1,0,0.1,0
	c0.2,0,0.4,0,0.6-0.1c0,0,0.1,0,0.1,0c0.1,0,0.3,0,0.4-0.1c0,0,0.1,0,0.1,0c0.1,0,0.3-0.1,0.4-0.1c0,0,0,0,0,0
	C-116.7,538.3-115.7,530.6-116.3,529"/>
<path style="fill:#FFFFFF;" d="M-201.2,514.4c-16-5.2-31.6-10.7-48.7-11.1c-11.1-0.3-23.3,4.2-34.2,1.6
	c-8.8-2.1-18.8-11.9-17.1-21.7c-0.6,8.7,8.1,15.7,15,18.3c7.8,1.8,16.2-1.5,23.8-3c7.9-1.5,16.2-2.6,24.3-1.7
	C-224.9,498.4-210.6,505.2-201.2,514.4C-203,513.8-202.5,513.1-201.2,514.4"/>
</svg>
