<?xml version="1.0" encoding="utf-8"?>
<!-- Generator: Adobe Illustrator 19.1.0, SVG Export Plug-In . SVG Version: 6.00 Build 0)  -->
<svg version="1.1" id="Layer_1" xmlns="http://www.w3.org/2000/svg" xmlns:xlink="http://www.w3.org/1999/xlink" x="0px" y="0px"
	 width="300px" height="300px" viewBox="-361 363 300 300" style="enable-background:new -361 363 300 300;" xml:space="preserve">
<path style="fill:none;stroke:#000000;stroke-width:9;stroke-linejoin:round;stroke-miterlimit:1;" d="M-148.1,513.3
	c-1.7-2.7-3.9-6.2-6.7-8.4c4.6-17.8,5.1-34.7,9.6-40.4c5.3-6.7,29.3-32.2,20.8-40.3c-2.7-2.6-13.3,5.9-23,4.4
	c-8.1-1.3-14.4,1.3-18.3,4c-3.7-11.1-12.5-6.9-14.7-1.4c-2-0.3-3.8-0.4-4.9,0c-3.3,1.3-9.4,10.1,4.6,15.1
	c-0.3,16.5-11.8,25.1-18.3,29.6c-37,21.9-55.2,48.7-59.1,81.2c-1.9,16.2,2.3,28.5,8.4,37.5c-1.1-0.7-2.2-1.5-3.3-2.3
	c-0.9-0.6-1.8-1.3-2.7-2c-0.1-0.1-0.3-0.2-0.4-0.3c-1-0.7-1.9-1.5-2.9-2.2c-2.5-2.1-5.1-4.2-7.6-6.7c-2.5-2.4-4.9-5-7-7.9
	c-2.6-3.5-4.9-7.3-6.6-11.5c-0.9-2.3-1.7-4.7-2.2-7.1c-0.1-0.4-0.2-0.8-0.3-1.2c-0.7-3.7-1-7.6-0.8-11.6c0.1-0.9,0.1-1.8,0.2-2.7
	c0.3-3.1,0.9-6.2,1.7-9.4c1.8-7.1,4.7-14.2,8.3-21.1c0,0,0,0,0,0c0-0.1,0.1-0.1,0.1-0.2c0.5-0.9,1-1.9,1.5-2.8
	c0.5-0.9,1-1.7,1.4-2.6c1.7-3,3.5-6,5.3-8.9c0.8-1.2,1.5-2.4,2.3-3.6c0.4-0.7,0.9-1.4,1.3-2.1c0.3-0.4,0.5-0.8,0.7-1.2
	c1-1.6,1.9-3.3,2.8-5c0.5-1,1-2,1.5-3.1c0.6-1.3,1.1-2.6,1.6-3.9c0.3-0.8,0.5-1.5,0.8-2.3c0.1-0.4,0.3-0.9,0.4-1.3
	c1.4-4.8,2.2-9.8,2.1-14.8c0-0.6,0-1.2-0.1-1.7c-0.3-4.6-1.2-9.1-2.9-13.2c-1.7-4.1-4.2-7.8-7.3-10.8c-3.1-2.9-7-5-11.2-5.7
	c-1-0.2-2.1-0.2-3.1-0.2c-0.5,0-1,0-1.6,0.1l-0.7,0.1l-0.2,0l-0.2,0l-0.3,0.1c-1.8,0.3-3.6,0.8-5.3,1.4c-6.8,2.2-12.3,6.2-15.8,10.8
	c-0.9,1.2-1.6,2.3-2.3,3.5c0,0,0,0,0,0.1c-0.5,1-1,2.1-1.4,3.1c-0.9,2.4-1.3,4.7-1.5,6.7c0,0.1,0,0.2,0,0.3c0,0.5,0,1,0,1.5
	c0,0.5,0,1.1,0,1.6c0.1,1.1,0.2,2.2,0.3,3.1c0,0.3,0.1,0.5,0.1,0.7c0.1,0.7,0.3,1.4,0.4,1.9c0,0.1,0.1,0.3,0.1,0.4
	c0.3,1,0.5,1.8,0.7,2.3c0.2,0.5,0.3,0.8,0.3,0.8s0-0.1-0.1-0.3c0-0.1,0-0.2-0.1-0.3c0-0.1,0-0.1,0-0.2c-0.1-0.5-0.3-1.3-0.5-2.4
	c0-0.1,0-0.2,0-0.3c-0.1-0.4-0.1-0.8-0.2-1.2c-0.1-0.4-0.1-0.9-0.2-1.4c-0.1-1.7-0.2-3.8,0.1-6.2c0.1-0.7,0.2-1.5,0.4-2.2
	c0.1-0.5,0.2-0.9,0.4-1.4c0.2-0.7,0.5-1.5,0.8-2.2c0.3-0.6,0.6-1.3,0.9-1.9c0.8-1.6,1.9-3.2,3.3-4.7c3.5-4,8.8-7.3,15.1-8.9
	c1.6-0.4,3.2-0.7,4.9-0.9l0.3,0l0.1,0l0,0c0,0,0,0,0,0c0,0,0,0,0,0l0.2,0l0.7-0.1c0.4,0,0.7,0,1.1,0c0.8,0,1.6,0.1,2.4,0.3
	c3.1,0.7,6.1,2.5,8.5,5.1c1.5,1.6,2.8,3.5,3.9,5.5c0.5,0.9,0.9,1.9,1.3,2.8c0.1,0.3,0.3,0.7,0.4,1c0.4,1.1,0.7,2.2,1,3.4
	c0.6,2.6,0.9,5.3,0.9,8c0,7.9-2.6,16-6.8,23.3c-1.1,1.8-2.2,3.6-3.5,5.4c-1.3,1.9-2.6,3.7-3.9,5.6c-1.6,2.4-3.2,4.8-4.8,7.2
	c-0.9,1.5-1.9,2.9-2.8,4.4c-0.5,0.8-1,1.7-1.5,2.5c-4.2,7.3-7.9,15-10.4,23.2c-2.8,9.1-3.8,19-2.1,28.4c0.4,2.3,1,4.6,1.7,6.8
	c0.1,0.2,0.2,0.5,0.3,0.7c0.7,2,1.5,3.9,2.4,5.7c2,4.1,4.4,7.8,7.1,11.1c5.4,6.6,11.4,11.7,17.4,15.7c6,3.9,11.8,6.8,17,9.1
	c0,0,0,0,0,0c1,0.4,2.1,0.8,3,1.2c0.5,0.2,0.9,0.3,1.4,0.5c0.5,0.2,1,0.4,1.5,0.5c0.6,0.2,1.2,0.4,1.8,0.6c0.2,0.1,0.5,0.2,0.7,0.2
	c1.3,0.4,2.6,0.9,3.8,1.2c4,2.6,7.4,3.9,9.2,4.1c7,0.6,57.5,1,60.5,0.5s5.5-4-5.5-8c-3.2-1.1-5.2-1.8-6.5-2.1c0.3,0,0.5,0,0.8-0.1
	c24-14.5,14.9-37.8,14.7-41.7c-0.6-7.7,0.9-20.1,2.2-30.4c0.5,0.3,1,0.7,1.4,1.1c2.8,2.9,4.7,6.7,6.8,10.2c1.3,2.2,3.3,7.4,6.7,6.1
	c3.8-1.4,2.2-8.6,0.1-14.3c0.2,0,0.4-0.1,0.7-0.2C-138.4,531.6-145.9,516.7-148.1,513.3z"/>
<path style="fill:#F26722;" d="M-180.8,432.6c1-7,14-14,16.3,5.7c2.3,19.7-12.3,1.7-12.3,1.7L-180.8,432.6z"/>
<path style="fill:#F26722;" d="M-167.4,508.9c1.2-3.2,5.6-6.4,8.6-6c4.7,0.7,8.2,6.5,10.7,10.3c2.2,3.4,9.6,18.3,4,20.7
	c-3.4,1.4-5.6-3.6-7-5.8c-2.2-3.3-4.4-7.1-7.3-9.8C-161.5,515.6-169.7,514.6-167.4,508.9"/>
<g>
	<g>
		<defs>
			<path id="SVGID_1_" d="M-134,426.2c-4.1,1.5-8.9,3.1-13.5,2.3c-12.5-2-20.7,5.1-22.4,7.8c-1.3-3.3-12.2-6.5-15.5-5.2
				c-3.3,1.3-9.4,10.1,4.6,15.1c-0.3,16.5-11.8,25.1-18.3,29.6c-37,21.9-55.2,48.7-59.1,81.2c-1.9,16.2,2.3,28.5,8.4,37.5
				c-3-2.1-6.1-4.3-9.2-6.8c-2.5-2.1-5.1-4.2-7.6-6.7c-2.5-2.4-4.9-5-7-7.9c-4.3-5.7-7.7-12.4-9.1-19.8c-0.7-3.7-1-7.6-0.8-11.6
				c0.2-4,0.9-8,1.9-12.1c2.1-8.1,5.6-16.2,9.8-24c2.1-3.9,4.4-7.7,6.8-11.5c1.2-1.9,2.4-3.8,3.6-5.7c1.3-2,2.5-4.1,3.5-6.2
				c4.3-8.4,6.8-17.9,6.3-27.1c-0.3-4.6-1.2-9.1-2.9-13.2c-1.7-4.1-4.2-7.8-7.3-10.8c-3.1-2.9-7-5-11.2-5.7c-1-0.2-2.1-0.2-3.1-0.2
				c-0.5,0-1,0-1.6,0.1l-0.7,0.1l-0.2,0l-0.2,0l-0.3,0.1c-1.8,0.3-3.6,0.8-5.3,1.4c-6.8,2.2-12.3,6.2-15.8,10.8
				c-3.5,4.6-4.9,9.6-5.2,13.7c-0.2,4.1,0.4,7.2,1,9.3c0.3,1,0.5,1.8,0.7,2.3c0.2,0.5,0.3,0.8,0.3,0.8s-0.1-0.3-0.2-0.8
				c-0.1-0.5-0.3-1.3-0.5-2.4c-0.4-2.1-0.8-5.2-0.3-9.1c0.5-3.9,2.2-8.5,5.8-12.4c3.5-4,8.8-7.3,15.1-8.9c1.6-0.4,3.2-0.7,4.9-0.9
				l0.3,0l0.1,0c0,0,0,0,0,0l0.2,0l0.7-0.1c0.4,0,0.7,0,1.1,0c0.8,0,1.6,0.1,2.4,0.3c3.1,0.7,6.1,2.5,8.5,5.1
				c2.4,2.6,4.3,5.8,5.6,9.3c1.3,3.5,1.9,7.4,1.9,11.4c0,7.9-2.6,16-6.8,23.3c-1.1,1.8-2.2,3.6-3.4,5.4c-1.3,1.9-2.6,3.7-3.9,5.6
				c-2.6,3.8-5.1,7.7-7.6,11.7c-4.8,8-9.1,16.5-11.8,25.7c-2.8,9.1-3.8,19-2.1,28.4c0.4,2.3,1,4.6,1.7,6.8c0.8,2.2,1.6,4.4,2.6,6.4
				c2,4.1,4.4,7.8,7.1,11.1c5.4,6.6,11.4,11.7,17.4,15.7c6,3.9,11.8,6.8,17,9.1c4.6,1.9,8.8,3.3,12.3,4.4c4,2.6,7.4,3.9,9.2,4.1
				c7,0.6,57.5,1,60.5,0.5s5.5-4-5.5-8c-3.2-1.1-5.2-1.8-6.5-2.1c0.3,0,0.5,0,0.8-0.1c24-14.5,14.9-37.8,14.7-41.7
				c-0.6-7.6,0.9-20.1,2.2-30.4c0.5,0.3,1,0.7,1.4,1.1c2.8,2.9,4.7,6.7,6.8,10.2c1.3,2.2,3.3,7.4,6.7,6.1c5.8-2.1-0.9-17.4-2.9-20.9
				c-1.3-2.3-3-5.2-5-7.5c-2.4-2.9-3.6-5.7-4.1-8.3c6.6-20.2,6.5-41,11.7-47.4c5.3-6.7,29.3-32.2,20.8-40.3
				c-0.4-0.4-0.9-0.5-1.5-0.5C-127.8,423.6-130.6,424.9-134,426.2"/>
		</defs>
		<clipPath id="SVGID_2_">
			<use xlink:href="#SVGID_1_"  style="overflow:visible;"/>
		</clipPath>
		
			<linearGradient id="SVGID_3_" gradientUnits="userSpaceOnUse" x1="-3709.0562" y1="-901.0762" x2="-3708.0562" y2="-901.0762" gradientTransform="matrix(182.5995 0 0 182.5995 676966.375 165054.7813)">
			<stop  offset="0" style="stop-color:#FFCB05"/>
			<stop  offset="0.3156" style="stop-color:#FFCB05"/>
			<stop  offset="0.8667" style="stop-color:#FAA41A"/>
			<stop  offset="1" style="stop-color:#FAA41A"/>
		</linearGradient>
		<rect x="-305.4" y="423.6" style="clip-path:url(#SVGID_2_);fill:url(#SVGID_3_);" width="189.5" height="190.2"/>
	</g>
</g>
<path style="fill:#F26722;" d="M-251.2,593.4l-1.7-1.3l0,0c-2-1.4-4-2.9-6-4.5c-2.5-2.1-5.1-4.2-7.6-6.7c-2.5-2.4-4.9-5-7-7.9
	c-4.3-5.7-7.7-12.4-9.1-19.9c-0.7-3.7-1-7.6-0.8-11.6c0.2-4,0.9-8,1.9-12.1c2.1-8.1,5.6-16.2,9.8-24c2.1-3.9,4.4-7.7,6.8-11.5
	c1.2-1.9,2.4-3.8,3.6-5.7c1.3-2,2.5-4.1,3.5-6.2c4.3-8.4,6.8-17.9,6.3-27.1c-0.3-4.6-1.2-9.1-2.9-13.2c-1.7-4.1-4.2-7.8-7.3-10.8
	c-3.1-2.9-7-5-11.2-5.7c-1-0.2-2.1-0.2-3.1-0.2c-0.5,0-1,0-1.6,0.1l-0.7,0.1l-0.2,0l-0.2,0l-0.3,0.1c-1.8,0.3-3.6,0.8-5.3,1.4
	c-6.8,2.2-12.3,6.2-15.8,10.8c-3.5,4.6-4.9,9.6-5.2,13.7c-0.2,4.1,0.4,7.2,1,9.3c0.3,1,0.5,1.8,0.7,2.3c0.2,0.5,0.3,0.8,0.3,0.8
	s-0.1-0.3-0.2-0.8c-0.1-0.5-0.3-1.3-0.5-2.4c-0.4-2.1-0.8-5.2-0.3-9.1c0.5-3.9,2.2-8.5,5.8-12.4c3.5-4,8.8-7.3,15.1-8.9
	c1.6-0.4,3.2-0.7,4.9-0.9l0.3,0l0.1,0c0,0,0,0,0,0l0.2,0l0.7-0.1c0.4,0,0.7,0,1.1,0c0.8,0,1.6,0.1,2.4,0.3c3.1,0.7,6.1,2.5,8.5,5.1
	c2.4,2.6,4.3,5.8,5.6,9.3c1.3,3.6,1.9,7.4,1.9,11.4c0,7.9-2.6,16-6.8,23.3c-1.1,1.8-2.2,3.6-3.5,5.3c-1.3,1.9-2.6,3.7-3.9,5.6
	c-2.6,3.8-5.1,7.7-7.6,11.7c-4.8,8-9.1,16.5-11.8,25.7c-2.8,9.1-3.8,19-2.1,28.4c0.4,2.3,1,4.6,1.7,6.8c0.8,2.2,1.6,4.4,2.6,6.4
	c2,4.1,4.4,7.8,7.1,11.1c5.4,6.6,11.4,11.7,17.4,15.7c6,3.9,11.8,6.8,17,9.1c3.9,1.6,7.5,2.9,10.6,3.9L-251.2,593.4z"/>
</svg>
