<?xml version="1.0" encoding="utf-8"?>
<!-- Generator: Adobe Illustrator 19.1.0, SVG Export Plug-In . SVG Version: 6.00 Build 0)  -->
<svg version="1.1" id="Layer_1" xmlns="http://www.w3.org/2000/svg" xmlns:xlink="http://www.w3.org/1999/xlink" x="0px" y="0px"
	 width="300px" height="300px" viewBox="-361 363 300 300" style="enable-background:new -361 363 300 300;" xml:space="preserve">
<g>
	<g>
		<defs>
			<path id="SVGID_1_" d="M-201.3,470.6c0,0-0.2,0.1-0.2,0.1c-0.1,0.1-0.1,0.2-0.2,0.3c-0.5,0.6-1.2,5.3-14.2,6.5
				c-0.3,0-0.6,0.1-1,0.1c-1.5,0-2.7,0-3.6,0c-1.3,0-2.1-0.1-2.1-0.1s0.7,0.3,1.8,1c0.6,0.3,1.3,0.7,2,1.2c0.8,0.5,1.7,1,2.7,1.6
				c1,0.6,2,1.2,3.2,1.9c0.2,0.1,0.4,0.2,0.6,0.4c-1.3,0.8-2.5,1.7-3.7,2.7c-0.6,0.4-1.3,0.8-1.9,1.2c-0.7,0.5-1.3,1-2,1.5
				c-0.7,0.5-1.3,1.1-1.9,1.7c-0.6,0.6-1.2,1.3-1.8,1.9c-0.6,0.7-1.1,1.4-1.7,2.1c-1.1,1.5-2.1,3-2.9,4.6c-0.2,0.4-0.4,0.9-0.7,1.3
				c-0.2,0.4-0.4,0.9-0.6,1.3c-0.4,0.9-0.7,1.7-1,2.6c-0.6,1.7-1,3.4-1.4,5c-0.7,3.2-1.1,6.1-1.6,8.3c-0.2,1.1-0.5,2.1-0.9,2.9
				c-0.3,0.8-0.8,1.5-1.2,2.1c-0.5,0.5-0.9,0.9-1.2,1.2c-0.3,0.3-0.5,0.4-0.5,0.4s0.2,0,0.7,0.1c0.4,0,1.1,0,1.9-0.2
				c0.8-0.2,1.9-0.6,2.9-1.4c1-0.7,2-1.8,2.9-2.9c0.5-0.6,0.9-1.3,1.3-2c0,0.3,0.1,0.6,0.2,0.9c-0.5,2.4-0.8,4.6-1.1,6.3
				c-0.2,1.1-0.5,2.1-0.9,2.9c-0.4,0.8-0.8,1.5-1.2,2.1c-0.5,0.5-0.9,0.9-1.2,1.2c-0.3,0.3-0.5,0.4-0.5,0.4s0.2,0,0.7,0.1
				c0.4,0,1.1,0,1.9-0.2c0.8-0.2,1.9-0.6,2.9-1.4c0.5-0.3,0.9-0.8,1.4-1.2c-2.3,6.8-2.3,13.7-0.8,20.7c1.8-1.9,3.4-3.7,5-5.5
				c0,0,8.1,11-2.5,19.2c-10.6,8.2-21.2,6-21.2,6s26.7,10.1,38.9-1.4c12.2-11.4,31-18,34.1-16.9c3.1,1.2,7.2,5.4,11.2,9.5
				c1.7,1.8,2.8,4.1,3.6,6.2c-1.8-0.5-3.6-1-5.5-1.4c1.7,2,4,3.7,6.6,4.8c0,0,0,0.1,0,0.1c-2-0.4-4.1-0.7-6.3-1
				c3.4,3.3,9,5.5,13.8,4.5c6.9,0.5,9.7-3.3,12.3-5c-0.1-0.5-0.2-1-0.3-1.5c3-1.4,7-6.6,6.8-7.2c-2.3,1.1-6.6,1.8-7.7,1.7
				c-0.2-1.2-0.4-2.3-0.5-3.4c0-0.1,0-0.1,0-0.2c0,0,0,0,0-0.1c-2.3-14.8-2.4-16.6-2.4-16.6c6.7-3.8,13.5-3.4,19-2.2
				c-1.7,3.8-3.3,11.7-3.3,11.7s6.2-6.7,8.4-10.4c0.2,0.1,0.4,0.1,0.7,0.2c-1.4,3.1-2.7,9.6-2.7,9.6s5.2-5.6,6.8-8.5
				c0.2,0,0.4,0.1,0.6,0.1c5.3,0.5,7.5-5.4,8.9-9c8.8-3.4,6.1-6.8,5.3-9.2c-0.8-2.4-6.8-8.3-10.9-14.4c-4-6.1-4.2-3-5.6-7.3
				c-1.3-4.2-1.6-7.5-11-16.3c-9.4-8.8-34.6-17.9-38.1-18.7c-3.5-0.7-4.2-0.6-8.5-2.3c-0.4-0.2-0.8-0.3-1.2-0.4
				c0,0-14.2-15.2-14.4-23.3C-186.6,441.1-206.8,458.8-201.3,470.6"/>
		</defs>
		<clipPath id="SVGID_2_">
			<use xlink:href="#SVGID_1_"  style="overflow:visible;"/>
		</clipPath>
		
			<linearGradient id="SVGID_3_" gradientUnits="userSpaceOnUse" x1="-3709.0044" y1="-897.3135" x2="-3708.0044" y2="-897.3135" gradientTransform="matrix(115.1763 82.9508 -82.9508 115.1763 352535.75 411487.4063)">
			<stop  offset="0" style="stop-color:#F9A31A"/>
			<stop  offset="0.1864" style="stop-color:#FFCA05"/>
			<stop  offset="0.8667" style="stop-color:#F9A31A"/>
			<stop  offset="1" style="stop-color:#F9A31A"/>
		</linearGradient>
		<polygon style="clip-path:url(#SVGID_2_);fill:url(#SVGID_3_);" points="-193.4,369 -27.8,488.4 -145.3,651.5 -311,532.2 		"/>
	</g>
</g>
<path style="fill:none;stroke:#231F20;stroke-width:8;stroke-miterlimit:10;" d="M-201.3,470.6c0,0-0.2,0.1-0.2,0.1
	c-0.1,0.1-0.1,0.2-0.2,0.3c-0.5,0.6-1.2,5.3-14.2,6.5c-0.3,0-0.6,0.1-1,0.1c-1.5,0-2.7,0-3.6,0c-1.3,0-2-0.1-2-0.1s0.7,0.3,1.8,1
	c0.6,0.3,1.3,0.7,2,1.2c0.8,0.5,1.7,1,2.7,1.6c1,0.6,2,1.2,3.2,1.9c0.2,0.1,0.4,0.2,0.6,0.4c-1.3,0.8-2.5,1.7-3.7,2.7
	c-0.6,0.4-1.3,0.8-1.9,1.2c-0.7,0.5-1.3,1-2,1.5c-0.7,0.5-1.3,1.1-1.9,1.7c-0.6,0.6-1.2,1.3-1.8,1.9c-0.6,0.7-1.1,1.4-1.7,2.1
	c-1.1,1.5-2.1,3-2.9,4.6c-0.2,0.4-0.4,0.9-0.7,1.3c-0.2,0.4-0.4,0.9-0.6,1.3c-0.4,0.9-0.7,1.7-1,2.6c-0.6,1.7-1,3.4-1.4,5
	c-0.7,3.2-1.1,6.1-1.6,8.3c-0.2,1.1-0.5,2.1-0.9,2.9c-0.4,0.8-0.8,1.5-1.2,2.1c-0.5,0.5-0.9,0.9-1.2,1.2c-0.3,0.3-0.5,0.4-0.5,0.4
	s0.2,0,0.7,0.1c0.4,0,1.1,0,1.9-0.2c0.8-0.2,1.9-0.6,2.9-1.4c1-0.7,2-1.8,2.9-2.9c0.5-0.6,0.9-1.3,1.3-2c0,0.3,0.1,0.6,0.2,0.9
	c-0.5,2.4-0.8,4.6-1.1,6.3c-0.2,1.1-0.5,2.1-0.9,2.9c-0.3,0.8-0.8,1.5-1.2,2.1c-0.5,0.5-0.9,0.9-1.2,1.2c-0.3,0.3-0.5,0.4-0.5,0.4
	s0.2,0,0.7,0.1c0.4,0,1.1,0,1.9-0.2c0.8-0.2,1.9-0.6,2.9-1.4c0.5-0.3,0.9-0.8,1.4-1.2c-2.3,6.8-2.3,13.7-0.8,20.7
	c1.8-2,3.4-3.7,5-5.5c0,0,8.1,11-2.5,19.2c-10.6,8.2-21.2,6-21.2,6s26.7,10.1,38.9-1.4c12.2-11.4,31-18,34.1-16.9
	c3.1,1.2,7.2,5.4,11.2,9.5c1.7,1.8,2.8,4.1,3.6,6.2c-1.8-0.5-3.6-1-5.5-1.4c1.7,2,4,3.7,6.6,4.8c0,0,0,0.1,0,0.1
	c-2-0.4-4.1-0.7-6.3-1c3.4,3.3,9,5.5,13.8,4.5c6.9,0.5,9.7-3.3,12.3-5c-0.1-0.5-0.2-1-0.3-1.5c3-1.4,7-6.6,6.8-7.2
	c-2.3,1.1-6.6,1.8-7.7,1.7c-0.2-1.2-0.4-2.3-0.5-3.4c0-0.1,0-0.1,0-0.2c0,0,0,0,0-0.1c-2.3-14.8-2.4-16.6-2.4-16.6
	c6.7-3.8,13.5-3.4,19-2.2c-1.7,3.8-3.3,11.7-3.3,11.7s6.2-6.7,8.4-10.4c0.2,0.1,0.4,0.1,0.7,0.2c-1.4,3.1-2.7,9.6-2.7,9.6
	s5.2-5.6,6.8-8.5c0.2,0,0.4,0.1,0.6,0.1c5.3,0.5,7.5-5.4,8.9-9c8.8-3.4,6.1-6.8,5.3-9.2c-0.8-2.4-6.8-8.3-10.9-14.4
	c-4-6.1-4.2-3-5.6-7.3s-1.6-7.5-11-16.3c-9.4-8.8-34.6-17.9-38.1-18.7c-3.5-0.7-4.2-0.6-8.5-2.3c-0.4-0.2-0.8-0.3-1.2-0.4
	c0,0-14.2-15.2-14.4-23.3C-186.6,441.1-206.8,458.8-201.3,470.6z"/>
<g>
	<g>
		<defs>
			<path id="SVGID_4_" d="M-230,565.1c2.7-1.4,5.2-2.6,6.8-2.7c-0.6,1-2.3,2.7-5.7,4.3c-2.2,1-5.9,1.6-9.2,1.9
				C-235.1,567.7-232.3,566.3-230,565.1 M-245.8,545.5c1.7-1.3,3.1-2.5,3.9-2.5c0.1,0,0.3,0,0.5,0.2c0.2,0.1,0.3,0.2,0.3,0.4
				c0.1,0.9-0.9,3.1-3.9,5.6c-3.7,3-7.5,3.5-12.3,4.2c-0.7,0.1-1.5,0.2-2.2,0.3C-252.8,551.1-248.6,547.8-245.8,545.5 M-255.7,518.8
				c2.7-0.7,4.8-1.3,6.6-1.3c1.1,0,2.1,0.2,3.1,0.7c1.1,0.5,1.7,1.3,1.6,1.9c-0.1,0.7-0.7,1.5-2,1.9c-0.6,0.2-1.2,0.3-1.8,0.3
				c-1.1,0-2.3-0.2-3.8-0.5c-2.5-0.4-5.5-1-10-1c-1.3,0-2.6,0-4,0.1C-261.7,520.4-258.4,519.5-255.7,518.8 M-193.2,478
				c-5.9,0.4-12.2,1.5-18.2,2.5c-7.3,1.3-14.9,2.6-22.2,2.7c-22.7,0.3-38.6,14.3-39.2,14.9l-15.1,13.4l17.4-10.2
				c0.1-0.1,8.4-4.9,17.7-6.4c-6,1.3-9.3,4.8-12.5,8.1c-2.4,2.5-4.6,4.9-8,6.4c-7.1,3.2-14.5,3.8-19.4,3.8c-4.2,0-7-0.5-7-0.5
				l-11.2-1.9l9.9,5.6c0.4,0.2,9.5,5.3,24.6,5.3c1.5,0,2.9,0,4.4-0.1c-1.4,0.2-2.9,0.5-4.4,0.7c-18.1,3.5-38.1,24-39,24.9l-9.5,9.8
				l11.9-6.7c0.3-0.1,26.1-14.5,38.2-14.5c4,0,4.4,1.6,4.6,2.2c0.7,2.3,0.4,4.2-0.7,5.6c-2.5,3.4-9.5,4.6-15.2,4.6
				c-0.5,0-0.8,0-0.8,0l-8.5-0.3l7.5,4.1c0.3,0.2,7.2,3.9,16.4,3.9c1,0,2,0,3-0.1c-10.2,3.6-14.9,10.7-15.1,11l-4.9,7.6l7.6-4.8
				c0.1,0,6-3.7,13.4-3.7c0.4,0,0.9,0,1.4,0c3.3,0.2,5.5,1,7.8,1.9c1.8,0.7,3.7,1.4,6.2,1.8l8,3.4c0.2,0.1,5.8,2.4,12.4,2.4
				c0.3,0,0.5,0,0.8,0c4.6-0.1,8.4-1.2,12.8-2.4c1.9-0.5,3.9-1.1,6.1-1.6c3.9-0.9,8.1-1.6,12.5-2.3c8.7-1.4,17.6-2.9,25.3-6.2
				c3.1-1.3,29.7-14,25.5-47c-3.9-30-29.5-37.9-42.6-37.9C-191.9,477.9-192.5,477.9-193.2,478"/>
		</defs>
		<clipPath id="SVGID_5_">
			<use xlink:href="#SVGID_4_"  style="overflow:visible;"/>
		</clipPath>
		
			<radialGradient id="SVGID_6_" cx="-3711.0061" cy="-929.2383" r="0.9999" gradientTransform="matrix(-11.9467 -72.9783 60.3367 -10.0365 11495.1064 -279619.3438)" gradientUnits="userSpaceOnUse">
			<stop  offset="0" style="stop-color:#F17123"/>
			<stop  offset="1" style="stop-color:#C24C30"/>
		</radialGradient>
		<polygon style="clip-path:url(#SVGID_5_);fill:url(#SVGID_6_);" points="-320.1,604.5 -340.4,480.5 -149.1,448.7 -128.8,572.7 		
			"/>
	</g>
</g>
<path style="fill:#231F20;" d="M-191.2,479.9c13.4,0,37,8.1,40.6,36.1c3.8,29.3-18.2,42.3-24.3,44.9c-11.3,4.9-25.7,5.7-37.4,8.4
	c-7.3,1.7-12.2,3.7-18.6,3.9c-0.3,0-0.5,0-0.8,0c-6.2,0-11.6-2.3-11.6-2.3s10.5-0.2,15.3-2.5c6.5-3,8.1-7,6.6-7.7
	c-0.5-0.3-1.1-0.4-1.7-0.4c-4.7,0-12.5,7-21.1,7.5c-0.9,0.1-1.7,0.1-2.5,0.1c-9.6,0-11.3-3.7-19.3-4.2c-0.5,0-1,0-1.5,0
	c-8.1,0-14.5,4.1-14.5,4.1s4.4-6.9,14.2-10.3c9.7-3.4,17.1-1.1,23.9-6.8c4.3-3.6,6-7.8,3.3-9.3c-0.5-0.3-1-0.4-1.5-0.4
	c-3.5,0-7.2,6.8-19.2,11c-3.6,1.3-7.1,1.8-10.3,1.8c-8.9,0-15.5-3.6-15.5-3.6s0.3,0,0.9,0c4.1,0,21.1-0.7,17.8-12.7
	c-0.7-2.6-3.1-3.6-6.5-3.6c-12.7,0-39.2,14.8-39.2,14.8s20.2-20.9,37.9-24.3c5.9-1.1,10.5-1.5,14.1-1.5c7.2,0,10.7,1.5,13.8,1.5
	c0.8,0,1.6-0.1,2.4-0.3c3.9-1.2,5-5.4,0.7-7.5c-1.3-0.7-2.6-0.9-4-0.9c-4.2,0-9.2,2.4-18.5,3.7c-3.2,0.4-6.2,0.6-8.9,0.6
	c-14.8,0-23.7-5.1-23.7-5.1s2.9,0.5,7.4,0.5c5.4,0,12.9-0.7,20.2-4c8.4-3.8,10.4-12.4,20.2-14.4c1.7-0.3,3.3-0.5,4.7-0.5
	c4.6,0,8,1.3,10.1,1.3c1,0,1.8-0.3,2.2-1.3c0.9-1.9-5.8-3.9-12.5-3.9c-0.1,0-0.1,0-0.2,0c-11.7,0-23.6,7-23.6,7s15.8-14.1,37.9-14.4
	c13.7-0.2,27.6-4.4,40.5-5.2C-192.5,479.9-191.9,479.9-191.2,479.9 M-191.2,475.9L-191.2,475.9c-0.7,0-1.4,0-2.1,0.1
	c-6.1,0.4-12.3,1.5-18.4,2.5c-7.2,1.3-14.7,2.6-21.9,2.7c-23.4,0.3-39.9,14.8-40.6,15.4l-16.4,14.6c-0.7,0-1.5,0-2.1,0
	c-4,0-6.7-0.4-6.7-0.5l-22.3-3.8l19.6,11.2c0.1,0.1,0.9,0.5,2.4,1.1l-4.7,4.2l6.2-3.6c2.8,1.1,7.2,2.5,12.9,3.3
	c-15.9,6.8-30.6,21.9-31.4,22.7l-19,19.6l23.8-13.3c2.3-1.3,6.1-3.3,10.5-5.4l12.7,6.9c0.2,0.1,5.1,2.8,12.2,3.7
	c-5.7,3.7-8.5,7.9-8.6,8.2l-9.7,15.2l15.2-9.7c0,0,5.6-3.4,12.3-3.4c0.4,0,0.8,0,1.2,0c3,0.2,5,0.9,7.2,1.8c1.8,0.7,3.8,1.4,6.3,1.9
	l7.8,3.3c0.3,0.1,6.2,2.6,13.2,2.6c0.3,0,0.6,0,0.9,0c4.9-0.2,9-1.3,13.3-2.5c1.9-0.5,3.9-1.1,6.1-1.6c3.8-0.9,8-1.6,12.4-2.3
	c8.8-1.4,17.9-2.9,25.8-6.3c2.3-1,10.5-5,17.4-13.6c7.8-9.8,11-22,9.3-35.5C-150.7,484.2-177.6,475.9-191.2,475.9 M-281.4,510
	l11.9-7c0,0,1.1-0.6,2.9-1.5c-0.1,0.1-0.1,0.1-0.2,0.2c-2.2,2.4-4.4,4.6-7.3,5.9C-276.6,508.7-279,509.5-281.4,510 M-251.7,519.9
	c1-0.2,1.9-0.3,2.7-0.3c0.9,0,1.5,0.2,2.3,0.5c0,0,0.1,0,0.1,0.1c-0.1,0-0.1,0-0.2,0.1c-0.4,0.1-0.8,0.2-1.2,0.2
	c-0.9,0-2-0.2-3.4-0.5C-251.6,519.9-251.7,519.9-251.7,519.9 M-299.3,545.7c8.5-3.9,18.6-7.9,24.5-7.9c0.4,0,2.4,0,2.6,0.7
	c0.6,2.3,0.1,3.3-0.4,3.9c-2,2.6-8.2,3.8-13.6,3.8c-0.4,0-0.7,0-0.7,0L-299.3,545.7z"/>
<g>
	<g>
		<defs>
			<path id="SVGID_7_" d="M-193.1,480c-13,0.8-26.9,5-40.5,5.2c-22.2,0.3-37.9,14.4-37.9,14.4s12.1-7.1,23.8-7
				c6.7,0,13.4,2,12.5,3.9c-0.9,1.9-3,1.2-6.3,0.6c-2.7-0.5-6.3-1.1-10.7-0.2c-9.8,2-11.8,10.7-20.2,14.4c-13.4,6-27.6,3.5-27.6,3.5
				s12.5,7.2,32.6,4.5c12.4-1.7,17.1-5.4,22.5-2.8c4.3,2.1,3.2,6.4-0.7,7.5c-2.4,0.7-4.5,0.2-7.8-0.4c-4.4-0.7-10.7-1.5-22.5,0.8
				c-17.7,3.4-37.9,24.3-37.9,24.3s42.2-23.6,45.7-11.2c3.8,13.7-18.6,12.7-18.6,12.7s12.2,6.7,25.8,1.9c13.6-4.8,16.5-13,20.7-10.6
				c2.7,1.5,1,5.7-3.3,9.3c-6.8,5.7-14.2,3.5-23.9,6.8c-9.8,3.4-14.2,10.3-14.2,10.3s7.2-4.6,16-4c8.7,0.5,10,4.8,21.8,4.1
				c9.6-0.6,18.3-9.4,22.7-7.1c1.5,0.8-0.1,4.7-6.6,7.7c-4.8,2.2-15.3,2.5-15.3,2.5s5.8,2.5,12.4,2.3c6.4-0.2,11.3-2.2,18.6-3.9
				c11.7-2.7,26.2-3.5,37.4-8.4c6.1-2.7,28.1-15.6,24.3-44.9c-3.6-28-27.2-36.1-40.6-36.1C-191.9,479.9-192.5,479.9-193.1,480"/>
		</defs>
		<clipPath id="SVGID_8_">
			<use xlink:href="#SVGID_7_"  style="overflow:visible;"/>
		</clipPath>
		
			<linearGradient id="SVGID_9_" gradientUnits="userSpaceOnUse" x1="-3714.009" y1="-909.2826" x2="-3713.009" y2="-909.2826" gradientTransform="matrix(106.1685 -106.1685 103.3466 111.2544 487997.7813 -292568.5)">
			<stop  offset="0" style="stop-color:#F27321"/>
			<stop  offset="1" style="stop-color:#FFCA05"/>
		</linearGradient>
		<polygon style="clip-path:url(#SVGID_8_);fill:url(#SVGID_9_);" points="-359,525 -227.3,393.3 -101.8,528.4 -233.5,660.1 		"/>
	</g>
</g>
<g>
	<g>
		<defs>
			<path id="SVGID_10_" d="M-201.3,470.6c0,0-0.2,0.1-0.2,0.1c-0.1,0.1-0.1,0.2-0.2,0.3c-0.5,0.6-1.2,5.3-14.2,6.5
				c-0.3,0-0.6,0.1-1,0.1c-1.5,0-2.7,0-3.6,0c-1.3,0-2.1-0.1-2.1-0.1s0.7,0.3,1.8,1c0.6,0.3,1.3,0.7,2,1.2c0.8,0.5,1.7,1,2.7,1.6
				c1,0.6,2,1.2,3.2,1.9c0.2,0.1,0.4,0.2,0.6,0.4c-1.3,0.8-2.5,1.7-3.7,2.7c-0.6,0.4-1.3,0.8-1.9,1.2c-0.7,0.5-1.3,1-2,1.5
				c-0.7,0.5-1.3,1.1-1.9,1.7c-0.6,0.6-1.2,1.3-1.8,1.9c-0.6,0.7-1.1,1.4-1.7,2.1c-1.1,1.5-2.1,3-2.9,4.6c-0.2,0.4-0.4,0.9-0.7,1.3
				c-0.2,0.4-0.4,0.9-0.6,1.3c-0.4,0.9-0.7,1.7-1,2.6c-0.6,1.7-1,3.4-1.4,5c-0.7,3.2-1.1,6.1-1.6,8.3c-0.2,1.1-0.5,2.1-0.9,2.9
				c-0.3,0.8-0.8,1.5-1.2,2.1c-0.5,0.5-0.9,0.9-1.2,1.2c-0.3,0.3-0.5,0.4-0.5,0.4s0.2,0,0.7,0.1c0.4,0,1.1,0,1.9-0.2
				c0.8-0.2,1.9-0.6,2.9-1.4c1-0.7,2-1.8,2.9-2.9c0.5-0.6,0.9-1.3,1.3-2c0,0.3,0.1,0.6,0.2,0.9c-0.5,2.4-0.8,4.6-1.1,6.3
				c-0.2,1.1-0.5,2.1-0.9,2.9c-0.4,0.8-0.8,1.5-1.2,2.1c-0.5,0.5-0.9,0.9-1.2,1.2c-0.3,0.3-0.5,0.4-0.5,0.4s0.2,0,0.7,0.1
				c0.4,0,1.1,0,1.9-0.2c0.8-0.2,1.9-0.6,2.9-1.4c0.5-0.3,0.9-0.8,1.4-1.2c-2.3,6.8-2.3,13.7-0.8,20.7c1.8-1.9,3.4-3.7,5-5.5
				c0,0,8.1,11-2.5,19.2c-10.6,8.2-21.2,6-21.2,6s26.7,10.1,38.9-1.4c12.2-11.4,31-18,34.1-16.9c3.1,1.2,7.2,5.4,11.2,9.5
				c1.7,1.8,2.8,4.1,3.6,6.2c-1.8-0.5-3.6-1-5.5-1.4c1.7,2,4,3.7,6.6,4.8c0,0,0,0.1,0,0.1c-2-0.4-4.1-0.7-6.3-1
				c3.4,3.3,9,5.5,13.8,4.5c6.9,0.5,9.7-3.3,12.3-5c-0.1-0.5-0.2-1-0.3-1.5c3-1.4,7-6.6,6.8-7.2c-2.3,1.1-6.6,1.8-7.7,1.7
				c-0.2-1.2-0.4-2.3-0.5-3.4c0-0.1,0-0.1,0-0.2c0,0,0,0,0-0.1c-2.3-14.8-2.4-16.6-2.4-16.6c6.7-3.8,13.5-3.4,19-2.2
				c-1.7,3.8-3.3,11.7-3.3,11.7s6.2-6.7,8.4-10.4c0.2,0.1,0.4,0.1,0.7,0.2c-1.4,3.1-2.7,9.6-2.7,9.6s5.2-5.6,6.8-8.5
				c0.2,0,0.4,0.1,0.6,0.1c5.3,0.5,7.5-5.4,8.9-9c8.8-3.4,6.1-6.8,5.3-9.2c-0.8-2.4-6.8-8.3-10.9-14.4c-4-6.1-4.2-3-5.6-7.3
				c-1.3-4.2-1.6-7.5-11-16.3c-9.4-8.8-34.6-17.9-38.1-18.7c-3.5-0.7-4.2-0.6-8.5-2.3c-0.4-0.2-0.8-0.3-1.2-0.4
				c0,0-14.2-15.2-14.4-23.3C-186.6,441.1-206.8,458.8-201.3,470.6"/>
		</defs>
		<clipPath id="SVGID_11_">
			<use xlink:href="#SVGID_10_"  style="overflow:visible;"/>
		</clipPath>
		
			<linearGradient id="SVGID_12_" gradientUnits="userSpaceOnUse" x1="-3713.625" y1="-909.2169" x2="-3712.625" y2="-909.2169" gradientTransform="matrix(109.4414 -109.4414 109.4414 109.4414 505692.9375 -306340.0625)">
			<stop  offset="0" style="stop-color:#F27321"/>
			<stop  offset="0.1964" style="stop-color:#F27321"/>
			<stop  offset="0.7517" style="stop-color:#FFCA05"/>
			<stop  offset="1" style="stop-color:#FFCA05"/>
		</linearGradient>
		<polygon style="clip-path:url(#SVGID_11_);fill:url(#SVGID_12_);" points="-314.5,510.3 -169.4,365.1 -24.2,510.3 -169.4,655.5 		
			"/>
	</g>
</g>
<path style="fill:#231F20;" d="M-139.6,500c0,0,2.4-3.7,13.6,0.6c0,0-1.8,5.5-5.3,5.8C-134.7,506.7-137.5,503.7-139.6,500"/>
<path style="fill:#231F20;" d="M-147,492.1c0,0,0.6,2.1,9,3.8c8.4,1.7,14,4.1,19.4,7.8c0,0-10.4-4.6-16.8-3.6
	C-141.8,501-145.8,497.9-147,492.1"/>
<path style="fill:#F16722;" d="M-188.5,446.9c0,0-10.2,12.3-7.1,23.6c0,0,11.3-7.2,18.5-6.2C-177,464.3-186.2,455.7-188.5,446.9"/>
</svg>
