<?xml version="1.0" encoding="utf-8"?>
<!-- Generator: Adobe Illustrator 19.1.0, SVG Export Plug-In . SVG Version: 6.00 Build 0)  -->
<svg version="1.1" id="Layer_1" xmlns="http://www.w3.org/2000/svg" xmlns:xlink="http://www.w3.org/1999/xlink" x="0px" y="0px"
	 viewBox="0 0 250 250" style="enable-background:new 0 0 250 250;" xml:space="preserve">
<style type="text/css">
	
		.st0{fill-rule:evenodd;clip-rule:evenodd;fill:url(#SVGID_1_);stroke:#231F20;stroke-width:14;stroke-linecap:round;stroke-linejoin:round;}
	.st1{fill-rule:evenodd;clip-rule:evenodd;fill:url(#SVGID_2_);}
</style>
<g>
	<g>
		<linearGradient id="SVGID_1_" gradientUnits="userSpaceOnUse" x1="32.1218" y1="132.5618" x2="217.2498" y2="132.5618">
			<stop  offset="0.3156" style="stop-color:#FFCA05"/>
			<stop  offset="0.8667" style="stop-color:#F9A31A"/>
		</linearGradient>
		<path class="st0" d="M126.5,175.3c-14.4-1.4-31.7,9.3-39.3,6.4c-7.7-3-20.5-6.9-20.5-6.9c-10.9-4.8-23.3-14.3-34.5-18.5
			c17-6.5,29.6-16.5,49.7-13.6c-8.6-11.8-17.2-26-17.4-38.3c9.1,2,18.2,3.2,27.3,5.8c-2.3-9.2-14.7-7.9-14-18.8
			c12.5-4.8,11.4,12.7,19.1,18.1c1-7.6-5.8-13.8-5.6-20.9c1.4,1.2-0.1-1.7,1.9-3.1c0.3,0.3,0.6-0.2,0.8-0.3
			c6.8-0.3,7.7,8.6,5.3,12.2c0.6,4.1,1.2,8.2,1.9,12.3c3.8-10.5,4.6-15.8,12.2-26.3c5.7,8.6,13.1,17.9,17.8,25.9
			c0.1-5.1,1.8-11-2.8-16.8c-1.9-4.4-1.1-8.2,3.7-9.5c7.9,5,0.9,14.4,2.7,23.1c7.4-4.8,0.7-16.7,9.8-19.9c9.7,9.3-4.1,13.9-4.4,21.5
			c-0.3,0.3-0.8-0.3-1.2-0.6c0.3,1,1,2,0.4,3c6.2-4.4,13.6-9.9,22.9-13.1c1.4-0.5,2.6-1.9,3.3-1.3c1.2,0.9-0.2,6-0.1,8.4
			c0.3,7,4.3,15.6,3.1,23.4c-1,6.2-1.9,7.2-3.9,10.4c15.4-2.5,34.2,3,52.6,6.5c-11.3,6.9-41,35.9-30.3,27.2
			C169.8,185.5,140.9,176.7,126.5,175.3z M161.7,126.3c0-0.7,0.9-3.7-1.2-4.8c-0.6,0.4-0.9,3.7-3.2,4.6c-0.9-2,0-4-1.4-6
			c-1.3,1.6-2.7,3.3-4,5c-0.9-2.8-0.7-3.6-1.3-5.4c-1.3,1.2-1.4,3.8-3.2,4c-0.7-1.7-0.7-3.4-1-5.1c-2,1.4-2.3,3.3-4.3,4.7
			c-0.4-1.2,0-2.4-1-3.6c-3.5,5.2-4.6,8.8-6.4,15c4.7-0.2,8.7-3.6,14.5-2c-0.4,1.7,0.1,3.5,0.1,5.4c0,3.6-1.1,6.8-1.1,9.1
			C154.8,141.2,161.7,136.6,161.7,126.3 M180.3,149.2c-1.4-1.7-4.6,0-6.7-0.7c2.8-3.9,4.1-2.1,5.4-5.3c-10.4-0.6-23.1,3-26.7,10.2
			c4.5,0.5,11.8,1.5,14.8,4.7c-4.8,6.8-9.7,8.9-15.9,13.5c12.2,2.4,26.5,0.5,34.7-6.2c-2.5-1.5-5.9,1.4-7.6-1
			c2.8-0.7,4.8-4.8,6.4-4.4c-1.3-2.2-4.4-0.6-6.6-1.6c1.2-1.7,3.3-1.9,5.1-5c-1.8,0-5.1,1-6.1-0.1
			C178.3,153,178.7,149.7,180.3,149.2 M118,119.2c-1-1.5-2.2-4-3.1-3.8c-0.2,2-0.1,4-0.4,6c-1.8-0.9-2.1-3.3-3.6-3.2
			c0,5.4,1,10.5,4.8,17c3.1-4.3,2.6-6.9,8.3-11.7c2.5,1.5,4.1,6.9,6.4,7.3c-0.5-2.2,1.1-4,1.2-6.4c0.1-3.9-2.6-11.6-5.5-13.4
			c0.6,1.8,0.5,5.2-0.4,6c-2.6-1.9-1.7-4.7-3.7-4.4c-0.2,0.4-0.3,4.2-1.4,4.6c-0.7-0.6-1.4-2.7-2-2.3
			C118.5,116.4,118.7,117.8,118,119.2 M131,147.7c-11.2-6.8-24.3,9.7-15.4,19.2c-5.6-15.6,12.3-23,21-11.5c3.2,4.2,4.4,9.7,2.3,13.2
			C145.7,162.8,139.7,153,131,147.7 M97.1,131.3c4.8,0.5,8.6,3.2,12.1,4.4c-4.4-9.8-8.2-15.4-16-18.5c0.8,2,3.1,4.1,3.5,6.8
			c-2.4-0.9-4.9-2-7.2-2.2c0.8,1.9,3.2,3.7,3.3,5.6c-1.7-0.2-3.5-1.9-5.1-1.3c0.9,1.7,2.3,3.3,2.1,5.1c-2.5-1.3-2.2-0.6-4.7-2.6
			c-1,2.1,2.6,4.1,1.7,6.3c-1.5-0.5-3.2-2.1-4.6-2c3.9,6.9,12.7,12.9,19,14.8c-1.2-1.9-2.8-7.4-3.7-6.5
			C97.4,138,95.6,133.7,97.1,131.3 M90,156.9c4.3-1.8,9.4-2,13.2-3.1c-9.4-4.8-21-9-30.6-4.5c0.6,0.7,4.9,1.1,4.7,3.2
			c-2.5,0.3-3.4,1.3-6.1,2c2,2.3,5.2,1.7,6.2,3.4c-1.9,0.8-3.9,0.9-5.8,1.7c2.6,2.3,4.8,1.5,7.4,3.4c-1,1.6-5.5,0.4-6.3,2.3
			c2.4,1.1,4.8,1.5,5.9,3.1c-2.6,0.6-3.8,0.2-6.5,1.1c10.5,6.6,18,3.1,28.1,2.7c-4.7-3.3-10-6.6-13.6-13.1
			C86.5,158.9,91.4,157.2,90,156.9"/>
	</g>
	<g>
		<linearGradient id="SVGID_2_" gradientUnits="userSpaceOnUse" x1="32.1218" y1="132.5618" x2="217.2498" y2="132.5618">
			<stop  offset="0.3156" style="stop-color:#FFCA05"/>
			<stop  offset="0.8667" style="stop-color:#F9A31A"/>
		</linearGradient>
		<path class="st1" d="M126.5,175.3c-14.4-1.4-31.7,9.3-39.3,6.4c-7.7-3-20.5-6.9-20.5-6.9c-10.9-4.8-23.3-14.3-34.5-18.5
			c17-6.5,29.6-16.5,49.7-13.6c-8.6-11.8-17.2-26-17.4-38.3c9.1,2,18.2,3.2,27.3,5.8c-2.3-9.2-14.7-7.9-14-18.8
			c12.5-4.8,11.4,12.7,19.1,18.1c1-7.6-5.8-13.8-5.6-20.9c1.4,1.2-0.1-1.7,1.9-3.1c0.3,0.3,0.6-0.2,0.8-0.3
			c6.8-0.3,7.7,8.6,5.3,12.2c0.6,4.1,1.2,8.2,1.9,12.3c3.8-10.5,4.6-15.8,12.2-26.3c5.7,8.6,13.1,17.9,17.8,25.9
			c0.1-5.1,1.8-11-2.8-16.8c-1.9-4.4-1.1-8.2,3.7-9.5c7.9,5,0.9,14.4,2.7,23.1c7.4-4.8,0.7-16.7,9.8-19.9c9.7,9.3-4.1,13.9-4.4,21.5
			c-0.3,0.3-0.8-0.3-1.2-0.6c0.3,1,1,2,0.4,3c6.2-4.4,13.6-9.9,22.9-13.1c1.4-0.5,2.6-1.9,3.3-1.3c1.2,0.9-0.2,6-0.1,8.4
			c0.3,7,4.3,15.6,3.1,23.4c-1,6.2-1.9,7.2-3.9,10.4c15.4-2.5,34.2,3,52.6,6.5c-11.3,6.9-41,35.9-30.3,27.2
			C169.8,185.5,140.9,176.7,126.5,175.3z M161.7,126.3c0-0.7,0.9-3.7-1.2-4.8c-0.6,0.4-0.9,3.7-3.2,4.6c-0.9-2,0-4-1.4-6
			c-1.3,1.6-2.7,3.3-4,5c-0.9-2.8-0.7-3.6-1.3-5.4c-1.3,1.2-1.4,3.8-3.2,4c-0.7-1.7-0.7-3.4-1-5.1c-2,1.4-2.3,3.3-4.3,4.7
			c-0.4-1.2,0-2.4-1-3.6c-3.5,5.2-4.6,8.8-6.4,15c4.7-0.2,8.7-3.6,14.5-2c-0.4,1.7,0.1,3.5,0.1,5.4c0,3.6-1.1,6.8-1.1,9.1
			C154.8,141.2,161.7,136.6,161.7,126.3 M180.3,149.2c-1.4-1.7-4.6,0-6.7-0.7c2.8-3.9,4.1-2.1,5.4-5.3c-10.4-0.6-23.1,3-26.7,10.2
			c4.5,0.5,11.8,1.5,14.8,4.7c-4.8,6.8-9.7,8.9-15.9,13.5c12.2,2.4,26.5,0.5,34.7-6.2c-2.5-1.5-5.9,1.4-7.6-1
			c2.8-0.7,4.8-4.8,6.4-4.4c-1.3-2.2-4.4-0.6-6.6-1.6c1.2-1.7,3.3-1.9,5.1-5c-1.8,0-5.1,1-6.1-0.1
			C178.3,153,178.7,149.7,180.3,149.2 M118,119.2c-1-1.5-2.2-4-3.1-3.8c-0.2,2-0.1,4-0.4,6c-1.8-0.9-2.1-3.3-3.6-3.2
			c0,5.4,1,10.5,4.8,17c3.1-4.3,2.6-6.9,8.3-11.7c2.5,1.5,4.1,6.9,6.4,7.3c-0.5-2.2,1.1-4,1.2-6.4c0.1-3.9-2.6-11.6-5.5-13.4
			c0.6,1.8,0.5,5.2-0.4,6c-2.6-1.9-1.7-4.7-3.7-4.4c-0.2,0.4-0.3,4.2-1.4,4.6c-0.7-0.6-1.4-2.7-2-2.3
			C118.5,116.4,118.7,117.8,118,119.2 M131,147.7c-11.2-6.8-24.3,9.7-15.4,19.2c-5.6-15.6,12.3-23,21-11.5c3.2,4.2,4.4,9.7,2.3,13.2
			C145.7,162.8,139.7,153,131,147.7 M97.1,131.3c4.8,0.5,8.6,3.2,12.1,4.4c-4.4-9.8-8.2-15.4-16-18.5c0.8,2,3.1,4.1,3.5,6.8
			c-2.4-0.9-4.9-2-7.2-2.2c0.8,1.9,3.2,3.7,3.3,5.6c-1.7-0.2-3.5-1.9-5.1-1.3c0.9,1.7,2.3,3.3,2.1,5.1c-2.5-1.3-2.2-0.6-4.7-2.6
			c-1,2.1,2.6,4.1,1.7,6.3c-1.5-0.5-3.2-2.1-4.6-2c3.9,6.9,12.7,12.9,19,14.8c-1.2-1.9-2.8-7.4-3.7-6.5
			C97.4,138,95.6,133.7,97.1,131.3 M90,156.9c4.3-1.8,9.4-2,13.2-3.1c-9.4-4.8-21-9-30.6-4.5c0.6,0.7,4.9,1.1,4.7,3.2
			c-2.5,0.3-3.4,1.3-6.1,2c2,2.3,5.2,1.7,6.2,3.4c-1.9,0.8-3.9,0.9-5.8,1.7c2.6,2.3,4.8,1.5,7.4,3.4c-1,1.6-5.5,0.4-6.3,2.3
			c2.4,1.1,4.8,1.5,5.9,3.1c-2.6,0.6-3.8,0.2-6.5,1.1c10.5,6.6,18,3.1,28.1,2.7c-4.7-3.3-10-6.6-13.6-13.1
			C86.5,158.9,91.4,157.2,90,156.9"/>
	</g>
</g>
</svg>
