<?xml version="1.0" encoding="utf-8"?>
<!-- Generator: Adobe Illustrator 19.1.0, SVG Export Plug-In . SVG Version: 6.00 Build 0)  -->
<svg version="1.1" id="Layer_1" xmlns="http://www.w3.org/2000/svg" xmlns:xlink="http://www.w3.org/1999/xlink" x="0px" y="0px"
	 viewBox="0 0 250 250" style="enable-background:new 0 0 250 250;" xml:space="preserve">
<style type="text/css">
	.st0{fill:#F89C1C;stroke:#231F20;stroke-width:5;stroke-miterlimit:10;}
	.st1{fill:#FFCF46;}
	.st2{fill:#FFD900;stroke:#231F20;stroke-width:5;stroke-miterlimit:10;}
	.st3{fill:#FFFFFF;stroke:#231F20;stroke-width:5;stroke-miterlimit:10;}
	.st4{fill:#EF4923;}
</style>
<g>
	<path class="st0" d="M124.9,70.9c-24,0-43.4,11.4-43.4,25.6v58.3c0,14.1,19.4,25.6,43.4,25.6c24,0,43.4-11.4,43.4-25.6V96.4
		C168.3,82.3,148.9,70.9,124.9,70.9"/>
	<path class="st1" d="M124.3,70.9"/>
	<path class="st2" d="M124.3,70.9c-24,0-43.4,11.4-43.4,25.6v58.3c0,14.1,19.4,25.6,43.4,25.6"/>
	<path class="st3" d="M164.7,96.4c0,12.9-17.8,23.4-39.8,23.4c-22,0-39.8-10.5-39.8-23.4c0-12.9,17.8-23.4,39.8-23.4
		C146.9,73,164.7,83.5,164.7,96.4"/>
	<path class="st4" d="M141.9,96.4c0,5.5-7.6,10-17,10c-9.4,0-17-4.5-17-10s7.6-10,17-10C134.3,86.4,141.9,90.9,141.9,96.4"/>
</g>
</svg>
