<?xml version="1.0" encoding="utf-8"?>
<!-- Generator: Adobe Illustrator 19.1.0, SVG Export Plug-In . SVG Version: 6.00 Build 0)  -->
<svg version="1.1" id="Layer_1" xmlns="http://www.w3.org/2000/svg" xmlns:xlink="http://www.w3.org/1999/xlink" x="0px" y="0px"
	 viewBox="0 0 250 250" style="enable-background:new 0 0 250 250;" xml:space="preserve">
<style type="text/css">
	.st0{fill:url(#SVGID_1_);}
	.st1{fill:#231F20;}
</style>
<g>
	<g>
		<linearGradient id="SVGID_1_" gradientUnits="userSpaceOnUse" x1="16.2358" y1="132.8538" x2="233.4492" y2="132.8538">
			<stop  offset="0.3792" style="stop-color:#FFCF46"/>
			<stop  offset="0.7059" style="stop-color:#F89C1C"/>
		</linearGradient>
		<path class="st0" d="M190,220v-18.7h-6.2l1.6,18.7H162l-0.8-18.7h-6.4V220h-14.1v-75.3l-10.5-5.1l17.6-8.6l10.7,5.3l-0.8-20.2
			c-11.7-0.3-22.7-0.5-32.9-0.5c-10.1,0-21.2,0.2-32.9,0.5l-0.8,20.2l10.7-5.3l17.6,8.6l-10.5,5.1V220H94.8v-18.7h-6.4L87.7,220
			H64.4l1.6-18.7h-6.2V220H45.5v-75.3L35,139.6l17.6-8.6l17.6,8.6l-10.5,5.1v1.8h10.8l2.5-29.9c-14.8,0.6-24.8,1.1-24.9,1.1
			l-2.8,0.2l-2.6-18.7H76l0.8-9.6c-17.3-0.7-29.8-1.5-30-1.5l-2.4-0.2l-1.5-8.6H33v-4.9c-10-0.8-14.3-5.2-14.8-5.7l-1.9-2.1l6.3-6.3
			L19,45.7l6.3,4c8.3,5.3,35.5,8.4,72.8,8.4c4.5,0,7.3-0.1,7.4-0.1l38.8,0c0.1,0,2.9,0.1,7.4,0.1c37.2,0,64.4-3.1,72.8-8.4l6.3-4
			l-3.6,14.4l6.3,6.3l-1.9,2.1c-0.5,0.5-4.8,5-14.8,5.7v4.9h-9.9l-1.5,8.6l-2.4,0.2c-0.1,0-12.7,0.8-30,1.5l0.8,9.6H207l-2.6,18.7
			l-2.8-0.2c-0.1,0-10.2-0.6-24.9-1.1l2.5,29.9H190v-1.8l-10.5-5.1l17.6-8.6l17.6,8.6l-10.5,5.1V220H190z M190,187.8v-27.9h-9.7
			l2.3,27.9H190z M160.7,187.8l-1.2-27.9h-4.6v27.9H160.7z M94.8,187.8v-27.9h-4.6L89,187.8H94.8z M67,187.8l2.3-27.9h-9.7v27.9H67z
			 M159,146.5l-0.2-3.7l-3.9,1.9v1.8H159z M94.8,146.5v-1.8l-3.9-1.9l-0.2,3.7H94.8z M148.9,99.2v-8.8c-8.6,0.2-16.6,0.3-24,0.3
			c-7.4,0-15.5-0.1-24-0.3v8.8H148.9z"/>
		<path class="st1" d="M226,52.3l-2.2,8.9l5.5,5.4c0,0-4.4,4.8-15.6,4.8v4.8h-9.5l-1.5,8.8c0,0-13.9,0.9-33,1.7l1.3,15.5h32.6
			l-1.8,12.5c0,0-11.6-0.7-28.4-1.3l3,36H193v-6.6l-6.7-3.3l10.7-5.3l10.7,5.3l-6.7,3.3V217H193v-18.7h-12.5l1.6,18.7h-17.2
			l-0.8-18.7h-12.2V217h-8.1v-74.1l-6.7-3.3l10.7-5.3l10.7,5.3l-6.7,3.3v6.6h10.2l-1.5-36.4c-11-0.3-23.4-0.5-35.7-0.5
			c-12.4,0-24.7,0.2-35.7,0.5l-1.5,36.4h10.2v-6.6l-6.7-3.3l10.7-5.3l10.7,5.3l-6.7,3.3V217h-8.1v-18.7H85.6L84.8,217H67.6l1.6-18.7
			H56.7V217h-8.1v-74.1l-6.7-3.3l10.7-5.3l10.7,5.3l-6.7,3.3v6.6h16.6l3-36c-16.8,0.6-28.4,1.3-28.4,1.3l-1.8-12.5h32.6L80,86.7
			C60.9,85.9,47,85,47,85l-1.5-8.8H36v-4.8c-11.2,0-15.6-4.8-15.6-4.8l5.5-5.4l-2.2-8.9c12.7,8,56.7,8.9,74.4,8.9
			c4.6,0,7.4-0.1,7.4-0.1s0,0,19.4,0c19.4,0,19.4,0,19.4,0s2.8,0.1,7.4,0.1C169.3,61.1,213.3,60.3,226,52.3 M124.8,87.7
			c-9.1,0-18.3-0.2-27-0.4v14.9h54.1V87.3C143.1,87.5,133.9,87.7,124.8,87.7 M179.9,190.8H193v-33.9h-16L179.9,190.8 M151.9,190.8
			h11.9l-1.4-33.9h-10.5V190.8 M85.9,190.8h11.9v-33.9H87.3L85.9,190.8 M56.7,190.8h13.1l2.8-33.9h-16V190.8 M235.4,39.2l-12.6,8
			c-7.8,4.9-35,7.9-71.2,7.9c-4.5,0-7.3-0.1-7.3-0.1l-0.1,0h-0.1h-19.4h-19.4h-0.1l-0.1,0c0,0-2.8,0.1-7.3,0.1
			c-36.1,0-63.4-3-71.2-7.9l-12.6-8l3.6,14.5l1.4,5.5l-3.1,3l-4.1,4l3.9,4.3c0.5,0.6,4.8,5,14.1,6.4v5.3h6h4.4l0.7,3.8l0.8,4.6
			l4.7,0.3c0.1,0,11.2,0.7,26.9,1.4l-0.3,3.8H46.1h-6.9l1,6.8l1.8,12.5l0.8,5.5l5.5-0.3c0.1,0,8.6-0.5,21.5-1l-1.3,15.7l-2.4-1.2
			l-10.7-5.3l-2.6-1.3l-2.6,1.3l-10.7,5.3l-11,5.4l11,5.4l3.3,1.6V217v6h6h8.1h6h5h17.2h5.8l0.2-5.7l0.5-12.9h0.5V217v6h6h8.1h6v-6
			v-70.4l3.3-1.6l9.6-4.7l9.6,4.7l3.3,1.6V217v6h6h8.1h6v-6v-12.7h0.5l0.5,12.9l0.2,5.7h5.8h17.2h6.5h4.4h8.1h6v-6v-70.4l3.3-1.6
			l11-5.4l-11-5.4l-10.7-5.3l-2.6-1.3l-2.6,1.3l-10.7,5.3l-2.4,1.2l-1.3-15.7c12.9,0.5,21.4,1,21.5,1l5.5,0.3l0.8-5.5l1.8-12.5
			l1-6.8h-6.9h-27.1l-0.3-3.8c15.7-0.7,26.8-1.4,26.9-1.4l4.7-0.3l0.8-4.6l0.7-3.8h4.4h6V77c9.3-1.4,13.5-5.8,14.1-6.4l3.9-4.3
			l-4.1-4l-3.1-3l1.4-5.5L235.4,39.2L235.4,39.2z M124.8,93.7c6.5,0,13.6-0.1,21-0.2v2.8h-42.1v-2.8
			C111.2,93.6,118.3,93.7,124.8,93.7L124.8,93.7z M94.9,118.9c10.6-0.3,20.7-0.4,30-0.4c9.3,0,19.4,0.1,30,0.4l0.5,12.4l-4.9-2.4
			l-2.6-1.3l-2.6,1.3l-10.7,5.3l-9.6,4.7l-9.6-4.7l-10.7-5.3l-2.6-1.3l-2.6,1.3l-4.9,2.4L94.9,118.9L94.9,118.9z M183.6,162.9h3.4
			v21.9h-1.6L183.6,162.9L183.6,162.9z M62.7,162.9h3.4l-1.8,21.9h-1.6V162.9L62.7,162.9z"/>
	</g>
</g>
</svg>
