<?xml version="1.0" encoding="utf-8"?>
<!-- Generator: Adobe Illustrator 19.1.0, SVG Export Plug-In . SVG Version: 6.00 Build 0)  -->
<svg version="1.1" id="Layer_1" xmlns="http://www.w3.org/2000/svg" xmlns:xlink="http://www.w3.org/1999/xlink" x="0px" y="0px"
	 viewBox="0 0 250 250" style="enable-background:new 0 0 250 250;" xml:space="preserve">
<style type="text/css">
	.st0{fill:url(#SVGID_1_);}
	.st1{fill:#231F20;}
</style>
<g>
	<g>
		<linearGradient id="SVGID_1_" gradientUnits="userSpaceOnUse" x1="86.1475" y1="126.0142" x2="163.2422" y2="126.0142">
			<stop  offset="0.1964" style="stop-color:#F27321"/>
			<stop  offset="0.7517" style="stop-color:#FFCA05"/>
		</linearGradient>
		<path class="st0" d="M124.7,207.3c-11.6,0-38.5-6.2-38.5-63.2c0-43.8,35-96.1,36.5-98.3c0.5-0.7,1.2-1.1,2.1-1.1s1.6,0.4,2.1,1.1
			c1.5,2.2,36.5,54.5,36.5,98.3C163.2,201.1,136.3,207.3,124.7,207.3z M124.7,183.3c0,0,1.9-2.4,1.9-2.4c-0.3,0-0.5-0.1-0.8-0.1
			c-0.5-0.2-0.9-0.5-1.2-0.9c-0.3,0.4-0.7,0.7-1.2,0.9c-0.2,0.1-0.5,0.1-0.8,0.1C122.8,180.9,124.7,183.3,124.7,183.3z M124.7,156
			c0,0,1.9-2.4,1.9-2.4c-0.2,0-0.5-0.1-0.7-0.1c-0.5-0.2-0.9-0.5-1.2-0.9c-0.3,0.4-0.7,0.7-1.2,0.9c-0.2,0.1-0.5,0.1-0.7,0.1
			C122.8,153.6,124.7,156,124.7,156z M124.7,133.4c0,0,1.9-2.3,1.9-2.3c-0.2,0-0.5-0.1-0.7-0.1c-0.5-0.2-0.9-0.5-1.2-0.9
			c-0.3,0.4-0.7,0.7-1.2,0.9c-0.2,0.1-0.5,0.1-0.7,0.1C122.8,131,124.7,133.3,124.7,133.4z"/>
		<path class="st1" d="M124.7,47.2c0,0,36,53.4,36,96.9c0,43.5-16.1,60.7-36,60.7c-19.9,0-36-17.2-36-60.7
			C88.6,100.6,124.7,47.2,124.7,47.2 M126.7,95.8h-4l0,32.7l-9.8-12.1l-3.1,2.5l12.9,15.9l0,16.3l-15.3-18.9l-3.1,2.5l18.4,22.7
			l0,20.9l-17.4-21.9l-3.1,2.5l20.5,25.8l0,12.2h4l0-12.2l20.5-25.8l-3.1-2.5l-17.4,21.9l0-20.9l18.4-22.7l-3.1-2.5l-15.3,18.9
			l0-16.3l12.9-15.9l-3.1-2.5l-9.8,12.1L126.7,95.8 M124.7,42.2c-1.7,0-3.2,0.8-4.1,2.2c-1.5,2.2-36.9,55.1-36.9,99.7
			c0,59.3,28.7,65.7,41,65.7c12.3,0,22.5-5.6,29.6-16.2c7.6-11.3,11.4-27.9,11.4-49.4c0-44.5-35.4-97.4-36.9-99.7
			C127.9,43.1,126.4,42.2,124.7,42.2L124.7,42.2z"/>
	</g>
</g>
</svg>
