<?xml version="1.0" encoding="utf-8"?>
<!-- Generator: Adobe Illustrator 19.1.0, SVG Export Plug-In . SVG Version: 6.00 Build 0)  -->
<svg version="1.1" id="Layer_1" xmlns="http://www.w3.org/2000/svg" xmlns:xlink="http://www.w3.org/1999/xlink" x="0px" y="0px"
	 viewBox="0 0 250 250" style="enable-background:new 0 0 250 250;" xml:space="preserve">
<style type="text/css">
	.st0{fill:#E6E7E8;}
	.st1{fill:#231F20;}
	.st2{fill:#FFFFFF;}
	.st3{fill:#FFD900;}
</style>
<g>
	<g>
		<path class="st0" d="M122,196.7c-14.7,0-28.6-3.6-41.5-10.7c-42.8-23.7-54-74.8-54.4-77c-0.2-0.7,0-1.5,0.5-2.1
			c0.5-0.6,1.2-0.9,1.9-0.9h193.2c0.7,0,1.4,0.3,1.9,0.9c0.5,0.6,0.7,1.3,0.6,2c-4.7,27.3-32.4,54.8-48.5,68.8
			c-7.6,6.6-15.6,11.3-23.6,14C142.2,195,132.1,196.7,122,196.7C122,196.7,122,196.7,122,196.7z"/>
		<path class="st1" d="M221.8,108.5L221.8,108.5 M221.8,108.5c-4.6,26.8-32.5,54.2-47.7,67.3c-7.1,6.2-14.7,10.8-22.8,13.5
			c-7.5,2.5-17.7,4.8-29.4,4.8c-12.2,0-26.1-2.6-40.3-10.4c-42.3-23.4-53.2-75.3-53.2-75.3H221.8 M221.8,103.5L221.8,103.5H28.6
			c-1.5,0-2.9,0.7-3.9,1.8c-0.9,1.2-1.3,2.7-1,4.2c0.1,0.6,2.9,13.8,11.1,30.1c10.9,21.7,26.3,38.5,44.5,48.6
			c13.2,7.3,27.6,11,42.7,11c10.3,0,20.7-1.7,30.9-5.1c8.4-2.8,16.6-7.6,24.5-14.5c16.3-14.2,44.4-42.1,49.3-70.1
			c0.1-0.3,0.1-0.7,0.1-1C226.8,105.7,224.6,103.5,221.8,103.5L221.8,103.5z"/>
	</g>
	<g>
		<path class="st2" d="M125.2,150.4c-55.6,0-99.1-18-99.1-41c0-23,43.5-41,99.1-41c55.6,0,99.1,18,99.1,41
			C224.3,132.4,180.8,150.4,125.2,150.4z"/>
		<path class="st1" d="M125.2,71c53.4,0,96.6,17.2,96.6,38.5c0,21.2-43.3,38.5-96.6,38.5s-96.6-17.2-96.6-38.5
			C28.6,88.2,71.9,71,125.2,71 M125.2,66c-26.4,0-51.3,4.1-70.2,11.6C34.8,85.7,23.6,97,23.6,109.5s11.2,23.8,31.4,31.8
			c18.8,7.5,43.7,11.6,70.2,11.6s51.3-4.1,70.2-11.6c20.3-8.1,31.4-19.4,31.4-31.8s-11.2-23.8-31.4-31.8
			C176.6,70.1,151.6,66,125.2,66L125.2,66z"/>
	</g>
	<path class="st3" d="M47.2,131.7c10.6-13.5,41.5-23.2,78-23.2c36.5,0,67.4,9.7,78,23.2c-17.6,9.8-45.9,16.2-78,16.2
		S64.8,141.5,47.2,131.7"/>
</g>
</svg>
