<?xml version="1.0" encoding="utf-8"?>
<!-- Generator: Adobe Illustrator 19.1.0, SVG Export Plug-In . SVG Version: 6.00 Build 0)  -->
<svg version="1.1" id="Layer_1" xmlns="http://www.w3.org/2000/svg" xmlns:xlink="http://www.w3.org/1999/xlink" x="0px" y="0px"
	 viewBox="0 0 250 250" style="enable-background:new 0 0 250 250;" xml:space="preserve">
<style type="text/css">
	.st0{fill:#00BEE2;}
	.st1{fill:#003065;}
</style>
<g>
	<g>
		<path class="st0" d="M165.2,220.7v-51.8l-3.6,51.8h-25.4v-31.3c0-6-4.9-10.9-10.9-10.9c-6,0-10.9,4.9-10.9,10.9v31.3H88.6
			L85,168.9v51.8H74.1v-67.9c-7-0.4-12.5-2.8-16.4-7.2c-6.9-7.8-5.7-19-5.6-19.5l1.4-11.2l5.2,10.1c0.9,1.8,6.3,6,35.6,6.8
			l-0.6-10.5h-2.2c-8.1,0-14.4-2.4-18.6-7.3c-6.9-7.8-5.7-19-5.6-19.5l1.4-11.2l5.2,10.1c2.2,4.2,11.9,6.5,29.1,6.8l-0.5-9.1h-0.8
			c-8.1,0-14.4-2.4-18.6-7.3c-6.9-7.8-5.7-19-5.6-19.5l1.4-11.2l5.2,10.1c3.2,6.1,15.5,6.9,26,6.9c0.3,0,0.6,0,0.9,0l14.3-18
			l14.3,18c0.3,0,0.6,0,0.9,0c10.4,0,22.8-0.8,26-6.9l5.2-10.1l1.4,11.2c0.1,0.5,1.3,11.6-5.6,19.5c-4.3,4.8-10.5,7.3-18.6,7.3h-0.8
			l-0.5,9.1c17.1-0.3,26.9-2.6,29.1-6.8l5.2-10.1l1.4,11.2c0.1,0.5,1.3,11.6-5.6,19.5c-4.3,4.8-10.5,7.3-18.6,7.3h-2.2l-0.6,10.5
			c29.2-0.8,34.6-4.9,35.6-6.8l5.2-10.1l1.4,11.2c0.1,0.5,1.3,11.6-5.6,19.5c-3.9,4.4-9.4,6.8-16.4,7.2v67.9H165.2z"/>
		<path class="st1" d="M125.1,57.6l12.6,15.9c0.9,0,1.7,0,2.6,0c12.6,0,25.1-1.1,29.1-8.8c0,0,2.8,22.8-20.7,22.8h-4.1l-0.9,16.2
			c15.3-0.1,32-1.3,35.9-8.8c0,0,2.8,22.8-20.7,22.8h-5.5l-1,17.6c18.5-0.3,38.9-1.9,42.4-8.7c0,0,2.8,22.8-20.7,22.8h-1.2v67.9
			h-3.9v-67.9H163l-4.7,67.9h-18.6v-27.8c0-7.9-6.4-14.4-14.4-14.4s-14.4,6.4-14.4,14.4v27.8H91.8l-4.7-67.9h-5.7v67.9h-3.9v-67.9
			h-1.2c-23.5,0-20.7-22.8-20.7-22.8c3.5,6.8,23.8,8.5,42.4,8.7l-1-17.6h-5.5c-23.5,0-20.7-22.8-20.7-22.8
			c3.9,7.5,20.6,8.7,35.9,8.8l-0.9-16.2h-4.1c-23.5,0-20.7-22.8-20.7-22.8c4,7.7,16.4,8.8,29.1,8.8c0.9,0,1.7,0,2.6,0L125.1,57.6
			 M173.5,41.4l-10.4,20.1c-1.7,3.3-9.1,4.9-22.1,5l-10.5-13.2l-5.5-6.9l-5.5,6.9l-10.5,13.2c-13-0.1-20.4-1.7-22.1-5L76.6,41.4
			l-2.8,22.5c-0.2,1.3-1.4,13.3,6.5,22.2c4.5,5.1,10.8,7.9,18.8,8.4l0.1,2.1c-19.5-0.8-22-4.4-22.2-4.8L66.5,71.6l-2.8,22.5
			c-0.2,1.3-1.4,13.3,6.5,22.2c4.8,5.4,11.5,8.2,20.2,8.4l0.2,3.4c-23.6-0.9-28.2-4.3-28.8-4.9l-10.3-19.9l-2.8,22.5
			c-0.2,1.3-1.4,13.3,6.5,22.2c3.9,4.4,9.1,7.1,15.5,8v61.3v7h7h3.9h7h3.3H111h7v-7v-27.8c0-4.1,3.3-7.4,7.4-7.4
			c4.1,0,7.4,3.3,7.4,7.4v27.8v7h7h18.6h6.5h3.8h3.9h7v-7v-61.3c6.4-1,11.6-3.7,15.5-8c7.8-8.9,6.6-20.9,6.5-22.2l-2.8-22.5
			l-10.3,19.9c-0.7,0.6-5.3,4-28.8,4.9l0.2-3.4c8.6-0.2,15.4-3,20.2-8.4c7.8-8.9,6.6-20.9,6.5-22.2l-2.8-22.5l-10.4,20.1
			c-0.2,0.4-2.7,4-22.2,4.8l0.1-2.1c8-0.5,14.3-3.3,18.8-8.4c7.8-8.9,6.6-20.9,6.5-22.2L173.5,41.4L173.5,41.4z"/>
	</g>
</g>
</svg>
