<?xml version="1.0" encoding="utf-8"?>
<!-- Generator: Adobe Illustrator 19.1.0, SVG Export Plug-In . SVG Version: 6.00 Build 0)  -->
<svg version="1.1" id="Layer_1" xmlns="http://www.w3.org/2000/svg" xmlns:xlink="http://www.w3.org/1999/xlink" x="0px" y="0px"
	 viewBox="0 0 250 250" style="enable-background:new 0 0 250 250;" xml:space="preserve">
<style type="text/css">
	.st0{fill:#FFFFFF;}
	.st1{fill:#7ED2F6;}
</style>
<g>
	<g>
		<path class="st0" d="M153.5,227.3l-1.7-0.6l-0.1-0.1c0,0-0.4-0.2-1.5-0.2c-1.7,0-3.7,0.4-5.2,0.6l-1.4,0.2l-3.5-3.1l0-0.5
			c0.2-4.3-6-11.6-15.8-18.7c-1.2-0.9-2.5-1.7-3.8-2.6c-1.5-1-3-2-4.5-3.1c-4-2.9-7.6-6.4-11-9.7c-7.4-7.2-15.1-14.6-21.6-23.1
			c-6.8-9-11.5-18.3-13.8-27.7c-0.5-2-1.1-4-1.7-5.9c-1.9-6.3-3.9-12.7-1.9-20.6c0.6-2.4,1.6-4.2,2.9-5.4c-0.5-4.4,1.3-8.6,3-11.9
			c0.3-0.5,0.5-1,0.8-1.5c1-1.8,1.9-3.5,2.4-5.2c0.1-0.5,0.2-1.1,0.3-1.7c0.3-1.8,0.6-4,2.4-5.8c0.3-0.3,0.4-0.5,0.6-0.9
			c0.5-0.9,1.7-2.9,4.5-2.9c0.5,0,1,0.1,1.5,0.2l0.3,0.1c0.2-0.3,0.4-0.5,0.6-0.8c1.9-2.2,4.1-2.8,5.6-3.2c0.4-0.1,0.8-0.2,1.2-0.3
			c0,0,0.9-0.1,0.9-0.1c0.1,0,0.2,0,0.3,0c0-0.1-0.1-0.2-0.1-0.3c-0.2-0.8-0.5-1.7-0.7-2.7c-0.2-1.7,0-3.2,0.2-4.5l1.3-9.6
			c0.2-1.2,0.4-3.1,1.7-4.7c1-1.2,2.4-2,4-2.2c0.2,0,0.4,0,0.5,0c0.5,0,0.9,0.1,1.4,0.2c0.1-0.4,0.3-0.8,0.4-1.1
			c1.1-2.8,2.9-5.1,4.8-7.3c1.9-2.3,3.9-3.4,6-3.4c0.6,0,1.3,0.1,1.9,0.3l0.9,0.3l0.1,5.6l-0.9,0.4c-0.7,0.3-1.3,1.2-1.2,2
			c0.1,0.6,0.5,1.1,1.1,1.4c1.1-0.4,2.3-0.6,3.5-0.6c0.3-1.4,0.8-2.7,1.6-3.9c1.8-2.8,4.8-4.5,7.8-4.7l1.5-0.1l1.6,5.4
			c0.1-0.1,0.2-0.1,0.3-0.2c1.1-0.7,2.4-1,3.6-1c0.6,0,1.2,0.1,1.7,0.2l0.7,0.2l1.2,5.2l-0.5,0.5c-0.3,0.2-0.5,0.5-0.8,0.8
			c2.2,1.5,3.4,4.3,2.8,6.9l-0.4,1.5l-2.7,0c0.2,1.2,0.3,2.7-0.8,4.1l-0.2,0.3l-4.2,0.5c0,0.8-0.2,1.6-0.5,2.3l-0.5,1.1l-1.8-0.2
			c0.3,0.7,0.5,1.4,0.6,2.1l0,0.3c2.5,0.2,4.5,1.5,5.3,3.6l0.1,0.3l-1,3.4l-0.2,0.2c-0.9,0.7-1.8,1-2.6,1.2c1.1,1.2,2,3,1.9,4.9
			c-0.1,1.5-0.8,2.7-1.9,3.6l-0.4,0.3l-3.5-0.8c-0.1,0.9-0.3,1.9-0.9,2.8c-0.5,0.8-1.2,1.3-2.1,1.7c2,1.8,2.6,4.7,1.3,6.8l-0.2,0.4
			l-2.1,0.3c0.4,2.3-0.4,4.7-2.2,6.2l-0.8,0.7l-4.6-2.7l-1,1.3l-1.6-0.7c-0.1-0.1-0.2-0.1-0.3-0.2l-1.8,2.4c0.2,0.2,0.3,0.3,0.4,0.5
			c1,1.1,1.9,3.1,1.6,5.1c-0.2,1.4-1,2.6-2.2,3.3l-0.4,0.2l-4.4-1.7l-0.1-0.4c-0.1-0.2-0.4-0.6-1-0.7c-0.2,0-0.3-0.1-0.5-0.1
			l0.1,0.2c1.4,2.8,1,5.7-1.1,7.2l-0.6,0.4l-2.4-1.1l-0.1,0.2l-1.5,0.5l0.2,0.8l-1,0.6c0.6,0.2,1.1,0.5,1.5,0.9
			c0.5,0.5,0.9,1.1,1.2,1.7c1.4-1,2.9-1.6,4.3-1.6c1.1,0,2.2,0.3,3.2,1l0.6,0.4l-0.6,5.3l-0.7,0.3c-0.9,0.3-1.7,0.7-2.3,1
			c0.2,0,0.4,0.1,0.6,0.2c1.3,0.5,2.3,1.6,2.7,2.9c0.3,1.2,0.1,2.5-0.7,3.5l-0.1,0.2l-3.2,1.1l0,0c0.3,0.2,0.5,0.5,0.7,0.8l0.3-0.1
			l1.9,2.7c0.7-0.3,1.5-0.5,2.3-0.5c0.8,0,1.5,0.1,2.1,0.4c1.5,0.6,2.5,2,2.7,3.5l0.1,0.4l-2.6,3.4l-0.4,0c-0.4,0-0.7,0.3-1,0.7
			c-0.1,0.2-0.2,0.3-0.3,0.5c0.2-0.1,0.5-0.2,0.7-0.2c0.7-0.2,1.4-0.3,2.2-0.3c1.2,0,2.2,0.3,3.1,0.8c0.4,0.2,0.7,0.5,1,0.8
			c0.4-1.1,0.9-2.2,1.6-3.3c0.1-0.2,0.2-0.3,0.3-0.5c0.2-0.4,0.5-0.8,0.6-1c0.1-0.2,0.1-0.7,0.1-1.2c0-0.6,0-1.3,0.1-2.1
			c0.4-2.8,2.3-5.3,4.9-6.5l0.5-0.2l0.8,0.5c1.5-2,3.2-3.3,5.1-3.7c-0.3-0.9-0.7-2-0.6-3.2c0-1.1,0.3-2,0.5-2.7
			c0.1-0.3,0.2-0.6,0.2-0.8c0.1-0.4,0-1-0.1-1.6c-0.1-0.8-0.2-1.7-0.2-2.7c0.1-2,1.1-4,2.6-5.1c0.9-0.7,1.8-1,2.9-1.1
			c0.4-1.2,1-2.6,1.9-4.1c0.8-1.3,2.8-4.6,6.4-4.7l0.8,0l2.5,4.8l-0.5,0.6c-0.5,0.7-0.8,1-0.9,1.3c0,0,0,0,0,0
			c0.4-0.1,0.8-0.2,1.1-0.3c0.2-1.1,0.6-2.2,1.2-3.1c1.4-2.2,3.5-3.4,6-3.4c0.1,0,0.3,0,0.4,0l0.9,0l1.1,3.2
			c0.9-0.4,1.9-0.6,2.9-0.8l1-0.2l2.8,4.8l-0.6,0.8c-0.1,0.1-0.1,0.1-0.2,0.2c1,0.8,1.6,1.9,1.8,3.1c0.2,1.2-0.1,2.3-0.8,3.2
			l-0.7,0.9l-0.5-0.2c0,0.2,0,0.4,0,0.6l0,0.7l-3.6,2c0,0.3-0.1,0.5-0.1,0.8l-0.2,1l-1.3,0.2c0.1,0.1,0.1,0.3,0.2,0.5l0,0
			c0.4,0.1,0.8,0.2,1.2,0.3c1.4,0.5,2.4,1.6,2.7,3l0.1,0.2l-0.5,2.6l-0.1,0.1c-0.4,0.5-0.8,0.9-1.2,1.1c0.8,1.3,1.1,2.5,0.9,3.6
			c1-0.8,2.2-1.3,3.6-1.3c0.3,0,0.7,0,1,0.1l1,0.2l1,5.6l-0.9,0.5c-0.1,0.1-0.3,0.1-0.4,0.2c0,0,0,0.1,0,0.1c0.1,0,0.1,0.1,0.2,0.1
			c0.4-0.1,0.8-0.2,1.1-0.3c0.2-1.1,0.6-2.2,1.2-3.1c1.4-2.2,3.5-3.4,6-3.4c0.1,0,0.3,0,0.4,0l0.9,0l1.1,3.2
			c0.9-0.4,1.9-0.6,2.9-0.8l1-0.2l2.8,4.8l-0.7,0.9c1.2,1.1,1.8,2.6,2,4.3l0,0.6l-2.2,1.5c0.2,1.1,0.1,2.2-0.6,3.2
			c-0.7,0.9-1.7,1.5-2.9,1.5l-0.1,0c-0.1,0.3-0.1,0.6-0.2,0.8l-0.3,0.7l-0.9,0.1l0,0.2c0.4,0,0.9,0.1,1.3,0.3
			c1.3,0.5,2.4,1.5,2.8,2.9c0.3,1,0.2,2.1-0.3,3c-0.4,0.6-0.8,1-1.3,1.3c0.4,0.8,0.7,1.9,0.7,3.3c0,2.7-1.6,3.6-2.6,3.8
			c-0.3,0.1-0.6,0.1-0.9,0.1c-0.2,0-0.4,0-0.6-0.1c-0.2,0.6-0.6,1.1-1,1.5c0.8,1.1,1,2.3,1.1,3.4l0,0.5l-1.9,1.4
			c0.1,0.5,0.1,1,0.1,1.5c-0.1,1.5-0.7,2.7-1.9,3.7l-0.5,0.4l-3-1.1c-0.3,0.2-0.7,0.4-1.1,0.5c-0.3,0.1-0.5,0.1-0.8,0.1h0
			c-0.1,0.1-0.2,0.2-0.2,0.3c-0.1,0.1-0.2,0.2-0.3,0.3c1.4,2.1,1.1,4.2,0.2,5.7l-0.3,0.5l-4.2,0.3c0,0.7,0,1.5-0.3,2.3l-0.2,0.8
			l-3.4,0.5l-0.2,0.1c0,0.1,0,0.2,0,0.2c0.2,0.1,0.3,0.2,0.5,0.3l0.2,0.1c0.5-0.3,1-0.5,1.5-0.7c0.4-0.1,0.8-0.1,1.2-0.1
			c1,0,1.9,0.3,2.8,0.9l0.3,0.2l0.9,4.1l-0.2,0.3c-0.3,0.5-0.6,0.8-1,1.1c0.6,0.6,1.1,1.6,1.3,2.9l0,0.3l-2,2.7
			c0.1,0.2,0.2,0.4,0.2,0.5l0.2,0.3c0.7-0.3,1.5-0.5,2.2-0.5c0.6,0,1.1,0.1,1.6,0.3c1.4,0.6,2.3,1.9,2.4,3.4l0,0.3l-1,1.8
			c1.6,0.2,3,1.1,3.8,2.4l0.3,0.5l-1.1,2.3c0.4,0.1,0.7,0.3,1,0.6c0.9,0.7,1.4,1.7,1.5,2.8l0.1,0.9l-0.3,0.2l0.4,0.5l-0.4,0.3
			l1.2,4.2l-1,0.7l-0.6,0.5l-1.8-0.8l0,0.9L153.5,227.3z M137.8,165.1l0.2-0.1c0.7-1,1.7-2,3-2.4l-1.6-0.4l-0.6,0.3
			c0,0,0.2,0.1,0.2,0.1l-0.4,0.8L137.8,165.1z M145.9,164.2c0.2,0,0.3,0,0.5,0c1.1-1.5,2.6-2.9,4.7-3.3c-0.6-1.3-0.9-2.9-0.1-5.4
			l0.3-1.1c-0.2-0.8-0.4-1.9-0.2-3l-1.7-0.8l-0.5,1l-1.5-0.4l-0.3,0.5c1.7,2,1.9,4.6,0.4,6.4l-0.3,0.3l-3.9,0.1
			c0.2,1.5-0.2,2.8-1.3,3.8l0,0c0.2,0,0.4,0,0.6,0c1,0,1.9,0.3,2.8,0.9l0.3,0.2L145.9,164.2C145.8,164.2,145.9,164.2,145.9,164.2z
			 M156,141.2c0.3,0.4,0.5,0.8,0.7,1.2c0.4-1.1,1-2,1.9-2.7c0.2-0.4,0.4-0.8,0.6-1.2l-1.9-0.1C157.2,139.4,156.9,140.4,156,141.2z"
			/>
		<path class="st1" d="M112.9,40.1c0.3,0,0.6,0,0.9,0.1l0.9,0.3l-0.9,0.4c-2,0.8-3.3,3.1-3,5.2c0.3,2.1,2.1,3.9,4.2,4.2
			c1.2-0.5,2.4-0.8,3.7-0.8c0.9,0,1.8,0.1,2.6,0.4c-0.4-1.8,0-3.9,1.2-5.6c1.3-2,3.4-3.2,5.5-3.3l1.5-0.1l-1.3,0.8
			c-1.8,1.1-3,3.1-3.2,5.2c0.5-0.2,1-0.4,1.6-0.4c0.2,0,0.4,0,0.7,0.1c1.1,0.2,2,0.8,2.5,1.6l0.3,0.5l-0.6,0.1c-1,0.1-2,0.4-2.9,0.9
			c-0.1,0.9,0.5,1.8,1.4,2.1c0.2,0.1,0.4,0.1,0.6,0.1c0.8,0,1.6-0.4,1.9-1.1c0.2-0.4,0.3-0.9,0.3-1.4c0-0.3,0.1-0.7,0.2-1.1
			c0.3-1,1-1.9,1.9-2.4c0.7-0.4,1.4-0.6,2.1-0.6c0.3,0,0.6,0,0.9,0.1l0.7,0.2l-0.5,0.5c-1,0.9-1.9,2-2.5,3.1c-0.2,0.4-0.5,1-0.2,1.4
			c0.2,0.2,0.5,0.3,0.9,0.4c0.1,0,0.2,0.1,0.4,0.1c1.7,0.5,2.8,2.5,2.4,4.2l-0.4,1.5l-0.4-1.5c-0.2-0.6-0.8-0.9-1.4-0.9
			c0,0-0.1,0-0.1,0c-0.6,0-1.3,0.3-1.4,1c-0.1,0.5,0.1,1.2,0.3,1.8c0.3,0.9,0.6,1.9,0,2.7l-0.2,0.3l-0.3-0.3
			c-1.1-0.9-2.5-1.4-3.9-1.4c-0.7,0-1.3,0.1-2,0.3c1.3,1.2,1.8,3.2,1.1,4.8l-0.5,1.1l-0.2-1.2c-0.1-0.4-0.4-0.8-0.8-1
			c-0.3-0.2-0.7-0.2-1.1-0.2c-0.4,0-0.7,0.1-1,0.2c-1,0.5-1.6,1.5-2.1,2.5c0.1,0,0.2,0,0.3,0c0.6,0,1.3,0.2,1.9,0.6
			c0.9,0.6,1.5,1.5,1.6,2.5l0.1,0.8l-0.6-0.4c-0.5-0.3-1.1-0.5-1.7-0.5c-0.7,0-1.3,0.2-1.9,0.6c-1,0.7-1.6,2.1-1.3,3.4
			c0.1,0.3,0.3,1,0.9,1.2c0.2,0.1,0.4,0.1,0.6,0.1c0.2,0,0.4,0,0.6-0.1c0.8-0.2,1.6-0.6,2.4-1c0.6-0.3,1.2-0.6,1.9-0.9
			c0.5-0.2,1.1-0.3,1.6-0.3c1.3,0,2.6,0.5,3,1.7l0.1,0.3l-0.2,0.2c-0.8,0.6-1.8,0.7-2.7,0.7c-1.1,0.1-2,0.2-2.4,0.9
			c-0.6,1.1,0.7,2.5,1.7,3.4c0.8,0.8,1.6,2,1.6,3.1c0,0.6-0.3,1-0.7,1.4l-0.4,0.3l-0.2-0.4c-0.5-1-1.2-2.3-2.2-2.9
			c-0.4-0.2-0.8-0.3-1.2-0.3c-0.2,0-0.5,0-0.7,0.1c-0.3,0.1-0.7,0.3-0.9,0.8c-0.3,0.7,0,1.4,0.2,2.2c0.1,0.2,0.2,0.5,0.2,0.7
			c0.2,0.7,0.2,1.7-0.3,2.4c-0.3,0.4-0.7,0.6-1.1,0.7l-0.9,0.1l0.6-0.7c0.3-0.3,0.2-0.7,0.2-0.9c-0.1-0.4-0.4-0.8-0.7-1
			c-0.3-0.1-0.5-0.2-0.8-0.2c-0.6,0-1.2,0.3-1.6,0.6c-0.7,0.6-1.2,1.5-1.2,2.6c0,1.1,0.4,2,1.1,2.6c0.4,0.4,0.9,0.6,1.4,0.9
			c0.4,0.2,0.9,0.5,1.3,0.8c1,0.8,1.7,2.1,1,3.2l-0.2,0.4l-0.3-0.3c-0.5-0.5-1.2-1.1-2-1.3c-0.1,0-0.2,0-0.2,0
			c-0.3,0-0.7,0.1-0.9,0.3c-0.1,0.1-0.3,0.3-0.3,0.6c0,0.4,0.3,0.8,0.6,1.2c0.1,0.1,0.2,0.3,0.3,0.5c1,1.5,0.6,3.7-0.7,4.9l-0.8,0.7
			l0.2-1.1c0.4-1.8-0.6-3.8-2.3-4.6c-0.4-0.2-0.7-0.3-1.1-0.3c-0.1,0-0.2,0-0.2,0c-0.6,0.1-0.9,0.7-1,1.2c0,0.3,0,0.8,0.2,1.1
			c0.2,0.1,0.4,0.3,0.6,0.5l1.2,1.3l-1.6-0.7c-0.3-0.1-0.5-0.3-0.7-0.5c-0.3-0.2-0.7-0.3-1.1-0.3c-0.4,0-0.7,0.1-1.1,0.3
			c-0.9,0.5-1.3,1.6-1,2.6l0.2,0.5l-0.5,0c0,0-0.1,0-0.1,0c-0.8,0-1.6,0.3-2.2,0.8c-0.3,0.2-0.5,0.6-0.6,1.2c0,0.9,0.7,1.6,1.3,2.3
			c0.2,0.2,0.4,0.4,0.5,0.6c0.6,0.6,1,1.7,0.9,2.7c-0.1,0.5-0.4,0.9-0.8,1.2l-0.4,0.2l-0.1-0.4c-0.4-1.2-1.5-2.2-2.9-2.7
			c-0.5-0.2-1-0.2-1.5-0.2c-0.9,0-1.8,0.3-2.5,0.8c-0.4,0.3-0.7,0.7-0.8,1c-0.2,0.8,0.2,1.6,0.6,2.4c0.1,0.1,0.1,0.2,0.2,0.4
			c0.6,1.1,0.8,2.7-0.2,3.4l-0.6,0.4l0-0.7c0-0.7-0.5-1.4-1.2-1.8c-0.4-0.2-0.8-0.4-1.3-0.4c-0.2,0-0.4,0-0.6,0.1
			c0.2,0.9,0.1,1.9-0.2,2.7l-0.2,0.4l-0.4-0.2c-0.4-0.2-0.8-0.3-1.2-0.3c-0.6,0-1.2,0.2-1.7,0.6c0.8,0.4,1.4,1.2,1.6,2l0.2,1
			l-0.8-0.6c-0.3-0.2-0.7-0.3-1.1-0.3c-0.3,0-0.5,0-0.8,0.1c-0.7,0.2-1.1,0.7-1.3,1.3c-0.2,0.6,0,1.3,0.5,1.8c0.4,0.5,1,0.8,1.5,0.8
			c0.1,0,0.1,0,0.2,0c0.3,0,0.5-0.1,0.8-0.2c0.3-0.1,0.7-0.2,1-0.2c0.1,0,0.1,0,0.2,0c0.5,0,0.9,0.2,1.2,0.4
			c0.3,0.2,0.4,0.5,0.4,0.9l0,0.5l-0.4-0.1c-0.1,0-0.2,0-0.4,0c-0.6,0-1.1,0.2-1.6,0.6c-0.6,0.5-0.9,1.1-1,1.8
			c0,0.7,0.3,1.4,0.8,1.9c0.5,0.5,1.1,0.7,1.7,0.7c0.1,0,0.1,0,0.2,0c1.4-0.1,2.5-1.4,3.5-2.6c0.2-0.2,0.3-0.4,0.5-0.5
			c1-1.2,2.4-2.1,3.8-2.1c0.5,0,1,0.1,1.5,0.4l0.6,0.4l-0.7,0.3c-1.8,0.7-3.4,1.3-4.3,2.7c-0.5,0.8-0.6,1.8-0.3,2.7
			c0.2,0.6,0.7,1,1.2,1.2c0.2,0,0.4,0.1,0.6,0.1c0.3,0,0.6,0.1,1,0.2c0.4,0.2,0.7,0.5,0.9,0.9c0.1,0.3,0,0.6-0.2,0.9l-0.2,0.2
			l-0.2-0.1c-0.4-0.1-0.8-0.2-1.3-0.2c-1.9,0-3.9,1.1-4.8,2.8c-0.2,0.4-0.4,0.9-0.2,1.3c0.3,0.5,1,0.5,1.8,0.6c0.1,0,0.2,0,0.3,0
			c0.8,0,1.6,0.5,1.9,1.1c0.2,0.4,0.2,0.8,0,1.1l-0.2,0.3l-0.3-0.2c-0.4-0.3-0.8-0.4-1.3-0.4c-0.8,0-1.6,0.3-2.1,0.9
			c-0.8,0.9-1.1,2.3-0.8,3.8c0.2,1.1,1.1,2.3,2.1,2.7c0.2,0.1,0.5,0.2,0.8,0.2c0.2,0,0.4,0,0.6-0.1c-0.4-1.3-0.3-2.8,0.4-4.2
			c0.8-1.5,2-2.6,3.5-2.9l0.9-0.2l-2.3,3.6c-0.2,0.4-0.4,0.6-0.4,0.9c0,0.3,0.1,0.5,0.4,0.6c0.2,0.1,0.5,0.2,0.8,0.2
			c0.3,0,0.7-0.1,0.9-0.3c0.5-0.3,0.8-0.7,1.2-1.2c0.4-0.4,0.8-0.9,1.3-1.2c0.4-0.3,1-0.5,1.6-0.5c0.3,0,0.7,0.1,0.9,0.2
			c0.5,0.2,0.9,0.6,0.9,1.2l0.1,0.4l-0.4,0c-1.2,0.1-2.4,0.9-3.2,2c-0.8,1.1-1.1,2.5-0.8,3.7c0.2,0.8,0.6,1.5,1.2,1.7
			c0.2,0.1,0.5,0.2,0.8,0.2c0.6,0,1.2-0.2,1.9-0.5c0.2-0.1,0.5-0.2,0.7-0.2c0.4-0.1,0.8-0.2,1.2-0.2c0.5,0,1.1,0.1,1.6,0.4
			c0.5,0.3,0.7,0.7,0.8,1.2l0.1,0.5l-0.5,0c-0.3,0-0.6,0-0.9,0c-1.2,0-2.7,0.3-3.6,1.3c-0.6,0.6-0.9,1.6-0.7,2.4
			c0.1,0.7,0.5,1.2,1,1.4c0.4,0.2,0.8,0.2,1.2,0.2c0.4,0,0.9,0,1.3-0.1c0.4,0,0.9-0.1,1.3-0.1c0.9,0,1.7,0.2,2.1,1.1l0.3,0.6l-0.6,0
			c0,0,0,0-0.1,0c-1.5,0-3.2,1-4,2.4c-0.4,0.6-0.7,1.6,0,2.7c0.5,0.8,1,1.2,1.6,1.4c0.1,0,0.3,0.1,0.5,0.1c0.9,0,1.9-0.6,2.8-1.2
			c0.3-0.2,0.2-1.8,0.2-2.5c0-0.7,0-1.2,0-1.6c0.3-1.2,1-2.1,2-2.5c-0.7-3.6,0-7.4,1.9-10.5c0.1-0.2,0.2-0.3,0.3-0.5
			c0.4-0.6,0.7-1.1,0.9-1.7c0.2-0.7,0.2-1.4,0.2-2.1c0-0.5,0-1.1,0.1-1.7c0.3-1.8,1.5-3.5,3.2-4.2l0.5-0.2l0,0.6
			c0,0.5,0.2,1.1,0.6,1.5c1.1-2.3,2.7-5.1,5.5-5.2l2,0l-1.9,0.8c-0.6,0.2-1.3,0.6-1.7,1.2c-0.2,0.3-0.2,0.7-0.1,1
			c0,0.1,0.1,0.3,0.3,0.4c0.5-0.2,1.1-0.3,1.7-0.3c0.4,0,0.7,0,1.1,0.1c1-1.4,1.3-3.3,0.9-5c-0.1-0.5-0.3-0.9-0.5-1.4
			c-0.4-0.9-0.8-1.8-0.7-2.8c0-0.7,0.2-1.3,0.4-1.9c0.1-0.4,0.3-0.8,0.3-1.3c0.1-0.8,0-1.6-0.1-2.5c-0.1-0.7-0.2-1.4-0.2-2.2
			c0.1-1.1,0.6-2.3,1.5-2.9c0.4-0.3,0.9-0.5,1.4-0.5c0.2,0,0.3,0,0.5,0.1l0.6,0.1l-0.3,0.5c-0.5,0.7-0.9,1.3-1,2
			c0,0.4,0.2,0.7,0.4,1c0.1,0.1,0.3,0.2,0.5,0.2c0,0,0.1,0,0.1,0c0.3-0.1,0.6-0.3,0.9-0.5c0.3-0.2,0.6-0.4,0.9-0.5
			c-0.7-1.7-0.8-4.4,1.6-8.3c0.9-1.5,2.2-3.2,3.9-3.3l0.8,0l-0.5,0.6c-1.5,2-2.1,3-0.9,5.6c0.7,0.1,1.6,0.2,2.4,0.9
			c0.5-0.5,1.3-0.7,1.8-0.7c0.4-0.1,0.8-0.1,1.2-0.1c0.4,0,0.7,0,1.1,0.1c-0.2-1.2,0-3,0.9-4.4c0.6-0.9,1.6-2,3.4-2
			c0.1,0,0.2,0,0.2,0l0.9,0l-0.7,0.6c-1.3,1.1-2.2,2.5-2.2,3.3c0,0.1,0,0.2,0.1,0.3c0.4-0.2,1.1-0.4,1.8-0.4c0.3,0,0.6,0,0.9,0.2
			c0.3,0.1,0.7,0.5,0.8,1.1l0.1,0.3l-0.3,0.1c-0.4,0.1-0.8,0.2-1.1,0.3c-0.3,0.1-0.7,0.2-0.8,0.2c0,0,0,0,0,0l0,0
			c0.2,0.4,0.6,1.4,1.2,1.4c0,0,0,0,0.1,0c0.4,0,0.7-0.4,1-0.7c0.5-0.6,0.5-1.2,0.5-1.8c0-1.3,0.2-2.2,3.4-2.7l1-0.2l-0.6,0.8
			c-0.1,0.2-0.3,0.3-0.4,0.5c-0.9,1-1.7,2-1.1,2.7c0.2,0.3,0.6,0.4,0.9,0.6c0.2,0.1,0.5,0.3,0.7,0.4c0.5,0.3,0.8,0.8,0.9,1.3
			c0.1,0.4,0,0.7-0.2,0.9l-0.7,0.9l0-1.1c0-0.2-0.1-0.3-0.2-0.3c-0.1-0.1-0.2-0.1-0.4-0.1c-0.1,0-0.3,0-0.4,0.1
			c-0.5,0.4-0.5,1.3-0.4,1.6c0,0.3,0.1,0.5,0.2,0.8c0.1,0.4,0.2,0.9,0.2,1.3l0,0.7l-0.6-0.4c-0.8-0.5-1.7-0.7-2.6-0.7
			c-0.4,0-0.9,0.1-1.3,0.2c0.7,0.8,1.1,2,0.8,3.1l-0.2,1l-0.5-0.9c-0.2-0.4-0.7-0.6-1.2-0.6c-0.3,0-0.6,0.1-0.8,0.2
			c-0.5,0.3-1,0.9-1.2,1.6c1.2,0,2.3,0.8,2.7,1.9l0.2,0.6l-0.6-0.1c-0.2,0-0.5-0.1-0.7-0.1c-0.8,0-1.6,0.2-2.1,0.9
			c-0.3,0.4-0.4,1-0.3,1.5c0.1,0.2,0.2,0.7,0.7,0.9c0.2,0.1,0.3,0.1,0.5,0.1c0.7,0,1.4-0.5,2.1-0.9c0.1-0.1,0.3-0.2,0.4-0.3
			c0.5-0.3,1.2-0.6,1.9-0.6c0.3,0,0.6,0,0.9,0.2c0.5,0.2,0.8,0.5,0.9,1l0,0.2l-0.1,0.1c-0.4,0.6-1.2,0.7-1.8,0.8
			c-0.5,0.1-1.1,0.1-1.3,0.4c-0.5,0.6,0.3,1.7,0.9,2.3c1.3,1.2,1.7,2.4,1.1,3.3l-0.3,0.4l-0.3-0.4c-0.4-0.7-0.9-1.4-1.7-1.7
			c-0.2-0.1-0.5-0.2-0.7-0.2c-0.2,0-0.3,0-0.5,0.1c-0.2,0.1-0.4,0.2-0.6,0.5c-0.2,0.5,0,1.1,0.1,1.7c0.2,0.8,0.5,1.8-0.2,2.5
			l-0.7,0.6l0-0.9c0-0.3-0.1-0.6-0.4-0.9c-0.3-0.2-0.6-0.4-0.9-0.4c-0.1,0-0.1,0-0.2,0c-0.7,0.1-1.4,0.9-1.4,1.7
			c0,0.8,0.4,1.6,1.2,2.2c0.2,0.2,0.5,0.3,0.7,0.4c0.3,0.2,0.7,0.4,1,0.6c0.6,0.5,1.1,1.4,0.8,2.2l-0.2,0.5l-0.4-0.4
			c-0.3-0.3-0.9-0.7-1.4-0.7c-0.1,0-0.3,0-0.4,0.1c-0.5,0.4-0.1,1.4,0.2,2c0.3,0.6,0.6,1.5,0.4,2.2c-0.1,0.3-0.4,0.6-0.7,0.7
			l-0.4,0.2l-0.1-0.4c-0.2-0.8-0.4-1.7-1-2.3c-0.3-0.4-0.9-0.6-1.4-0.6c-0.2,0-0.4,0-0.6,0.2c-0.3,0.2-0.4,0.6-0.4,0.9
			c0,0.1,0,0.2,0.1,0.3c0.1,0.1,0.3,0.2,0.4,0.3l1.4,1.1l-1.7-0.4c-0.2-0.1-0.4-0.2-0.5-0.3c-0.2-0.1-0.4-0.1-0.6-0.1
			c-0.3,0-0.6,0.1-0.8,0.2c-0.5,0.3-0.8,1-0.6,1.6l0.1,0.3l-0.3,0.1c-1.1,0.4-1.7,0.8-1.8,1.4c0,0.6,0.5,1.1,1,1.6l0.2,0.2
			c0.8,0.8,1.3,2,0.6,2.8l-0.3,0.3l-0.3-0.3c-0.7-0.8-1.8-1.7-3.2-1.7c0,0,0,0-0.1,0c-0.6,0-1.3,0.4-1.7,0.9
			c-0.3,0.4-0.4,0.9-0.3,1.3c0.1,0.3,0.3,0.7,0.4,1c0.4,0.8,0.9,1.7,0.1,2.4l-0.4,0.4l-0.2-0.6c-0.1-0.4-0.5-0.8-0.9-1
			c-0.2-0.1-0.5-0.2-0.8-0.2c-0.1,0-0.2,0-0.3,0c0.1,0.6,0,1.2-0.1,1.7l-0.1,0.3l-0.3-0.1c-0.2,0-0.3-0.1-0.5-0.1
			c-0.4,0-0.8,0.1-1.2,0.4c0.4,0.3,0.7,0.7,0.9,1.2l0.3,0.8l-0.8-0.3c-0.1-0.1-0.3-0.1-0.4-0.1c-0.2,0-0.4,0.1-0.6,0.2
			c-0.4,0.2-0.6,0.5-0.7,0.8c-0.1,0.6-0.1,1,0.1,1.1c0.1,0.1,0.3,0.2,0.6,0.2c0.3,0,0.7-0.1,1.1-0.1c0.3-0.1,0.6-0.1,0.9-0.1
			c0,0,0.1,0,0.1,0c0.2,0,0.4,0.1,0.8,0.4c0.1,0.1,0.2,0.1,0.2,0.1c0,0-0.1,0-0.1,0c0,0-0.1,0-0.1,0l0.3,0.7
			c-1.3,0.6-2.2,1.2-2.3,1.6c0,0.1,0,0.3,0.2,0.5c0.3,0.3,0.5,0.5,0.7,0.8c0.4,0.5,0.7,0.9,1.2,0.9c0.2,0,0.4-0.1,0.7-0.2
			c-0.1-0.6,0.4-0.8,0.7-1.1c0.3-0.2,0.6-0.4,0.8-0.8c0.5-0.9,1.2-2.1,2.3-2.3c0.1,0,0.3-0.1,0.4-0.1c0.4,0,0.8,0.1,1.2,0.4l0.3,0.2
			l-0.2,0.3c-0.3,0.4-0.7,0.6-1.1,0.7c-0.7,0.3-1.5,0.5-1.9,2.4c-0.1,1.1,0,1.3,0.7,1.5c0.1,0,0.3,0.1,0.4,0.1c0.1,0,0.2,0,0.3,0
			c0.1,0,0.2,0,0.3,0c0.1,0,0.2,0,0.3,0c0.1-0.5,0.4-1,0.9-1.5c0.3-0.4,0.5-0.8,0.7-1.1c0.3-0.6,0.5-1.1,1.5-1.1c0.1,0,0.3,0,0.5,0
			l0.3,0l0,0.3c0,0.7,0.3,1.2,0.4,1.5c0.1-0.1,0.2-0.3,0.2-0.5c0.8-1.6,2.3-4.8,4.9-4.8c0.2,0,0.4,0,0.6,0l2.3,0.4
			c0.1-1-0.1-2.7-0.7-3.6l-0.1-0.1c-0.7-1.1-1.2-1.9-0.5-4.1l0.6-2c-0.2-0.4-0.6-1.8-0.4-2.8c0-0.2,0.1-0.6,0.1-1
			c0-1.1,0-2.6,0.9-3.5c0.4-0.4,1-0.6,1.7-0.6c0.1,0,0.2,0,0.3,0l0.3,0l0,0.3c0,0.5-0.2,1-0.4,1.5c-0.5,1.1-0.6,1.6,0,1.8
			c0.2,0.1,0.3,0.1,0.4,0.1c0.3,0,0.5-0.2,0.8-0.4c0.3-0.3,0.7-0.6,1.2-0.6c-0.3-1.1-0.3-2.4-0.3-3.3c0-0.1,0-0.3,0-0.4
			c0-0.2,0.1-3.5,2-4c0.4-1.6,1.6-4,3.7-4c0.2,0,0.3,0,0.5,0l1,0.2l-0.9,0.5c-1.2,0.7-2.9,1.6-1.2,5.5c0.7,0.1,1.6,0.2,2.4,0.9
			c0.5-0.5,1.3-0.7,1.8-0.7c0.4-0.1,0.8-0.1,1.2-0.1c0.4,0,0.7,0,1.1,0.1c-0.2-1.2,0-3,0.9-4.4c0.6-0.9,1.6-2,3.4-2
			c0.1,0,0.2,0,0.2,0l0.9,0l-0.7,0.6c-1.3,1.2-2.2,2.5-2.2,3.3c0,0.1,0,0.2,0.1,0.3c0.4-0.2,1.1-0.4,1.8-0.4c0.3,0,0.6,0,0.9,0.2
			c0.3,0.1,0.7,0.5,0.8,1.1l0.1,0.3l-0.3,0.1c-0.4,0.1-0.8,0.2-1.1,0.3c-0.3,0.1-0.7,0.2-0.8,0.2c0,0,0,0,0,0l0,0
			c0.2,0.4,0.6,1.4,1.2,1.4c0,0,0,0,0.1,0c0.4,0,0.7-0.4,1-0.7c0.5-0.6,0.5-1.2,0.5-1.8c0-1.3,0.2-2.2,3.4-2.7l1-0.2l-0.6,0.8
			c-0.1,0.2-0.3,0.3-0.4,0.5c-1.1,1.3-1.7,2.2-1.3,3c0.1,0,0.1,0,0.2,0c0.6,0,1.1,0.2,1.6,0.6c0.7,0.5,1.1,1.4,1.2,2.4l0,0.6
			l-0.6-0.3c-0.4-0.2-0.7-0.5-1-0.7c-0.1-0.1-0.3-0.3-0.4-0.3c0,0,0,0,0,0c-0.1,0-0.3,0.1-0.8,1.1c0.4,0.8,1,2.3,0.6,2.9
			c-0.1,0.2-0.3,0.2-0.5,0.2c0,0-0.1,0-0.1,0c-0.2,0-0.4-0.1-0.7-0.3c-0.6-0.3-1.3-0.6-2.1-0.6c-0.4,0-0.8,0.1-1.2,0.3
			c1.4,1,1.3,2.6,1,3.3l-0.3,0.7l-0.4-0.6c0,0-0.6-0.9-1.3-0.9c0,0,0,0-0.1,0c-0.5,0-1.2,0.4-2,2c0.1,0,0.1,0,0.2,0
			c0.2,0,0.4,0,0.6,0c0.7,0,1.4,0.2,2.1,1.6l0.1,0.1l0,0.2c-0.1,0.3-0.3,0.5-0.5,0.6c-0.1,0-0.2,0.1-0.3,0.1c-0.3,0-0.6-0.1-0.9-0.3
			c-0.3-0.1-0.6-0.2-0.8-0.2c-0.1,0-0.2,0-0.3,0.1c-0.3,0.2-0.7,0.7-0.9,2.4c0,0.1,0,0.2,0.1,0.3c0.1,0.4,0.1,0.8,0.3,0.9
			c0,0,0.1,0,0.2,0c0.3,0,0.8-0.1,1.8-0.7c1.4-0.8,2.5-1.3,3.4-1.3c0.3,0,0.6,0,0.8,0.1c0.5,0.2,0.8,0.5,1,1c0.1,0.2,0,0.3,0,0.5
			c-0.2,0.3-0.7,0.4-1.4,0.5c-0.8,0.1-1.9,0.3-2.2,0.9c-0.2,0.3-0.1,0.8,0.1,1.3c0.4,0,1,0.2,1.4,0.6c0.4,0.4,0.9,1.2,0.9,2.6
			c0,0.4,0,0.9-0.4,1c0,0-0.1,0-0.1,0c-0.3,0-0.4-0.3-0.6-0.6c-0.5-0.9-1.2-1.7-2.2-1.7c-0.3,0-0.5,0.1-0.8,0.2
			c-0.4,1-0.3,1.4,0.2,2.5c0.6,1.1-0.2,2.1-0.7,2.4l-0.6,0.4l0-0.8c0-0.6-0.1-1.5-0.5-1.6c0,0-0.1,0-0.1,0c-0.3,0-0.9,0.2-2.2,1.6
			c0,1.2,0.7,2.5,1,2.7c0.1,0,0.3,0.1,0.4,0.1c0.8,0.2,2.4,0.6,2.5,2.8l0,0.5l-0.5-0.2c-0.4-0.1-0.7-0.3-1-0.5
			c-0.4-0.2-0.7-0.4-1-0.4c0,0-0.1,0-0.1,0c-0.2,0.1-0.3,0.3-0.4,0.6c0.4,0.5,1.3,1.7,1.2,3c0,0.6-0.3,1.2-0.8,1.6l-0.5,0.4
			l-0.1-0.7c0-0.1,0-0.2,0-0.3c-0.2-1.3-0.3-2.8-2.6-2.9c-0.4,0.2-0.8,0.5-0.8,0.6c0,0.1,0.3,0.4,0.5,0.5c0.4,0.3,0.9,0.8,0.6,1.3
			c-0.1,0.1-0.2,0.2-0.3,0.2c0,0-0.1,0-0.1,0c-0.2,0-0.4-0.1-0.7-0.3c-0.3-0.2-0.6-0.4-1-0.4c-0.1,0-0.1,0-0.2,0
			c-0.3,0.1-0.5,0.3-0.8,0.8c0,0.1-0.1,0.4,0,0.9c0,0.1,0.1,0.4,0,0.6c-0.1,0.2-0.3,0.2-0.5,0.2c0,0,0,0,0,0c0,0,0,0-0.1,0
			c-0.2,0-0.6,0-1,0.5c-0.4,0.4-0.7,0.7-0.7,0.9c0,0.2,0.5,0.7,0.9,1.1c1.7,1.5,1.5,2.8,1.1,3.6l-0.3,0.5l-0.3-0.4
			c-0.1-0.1-0.1-0.2-0.2-0.3c-0.6-0.7-1.3-1.7-2.5-2c-0.1,0-0.5,0.2-1.2,0.5c-1.1,0.5-1.7,1.1-1.6,1.5c0,0.1,0.2,0.3,0.3,0.5
			c0.5,0.6,1.3,1.6,0.7,3.5l-0.2,0.8l-0.4-0.7c-0.2-0.3-0.3-0.6-0.4-0.8c-0.2-0.5-0.3-0.8-1-0.8c-0.2,0-0.5,0-0.8,0.1
			c0.3,1,0,1.8,0,1.9l-0.1,0.3l-0.3-0.1c0,0-0.4-0.1-0.8-0.1c-0.4,0-0.8,0.1-1.1,0.4c1.4,0.8,1.3,1.1,1.3,1.3c0,0.1-0.1,0.3-0.4,0.4
			c-0.1,0-0.3,0-0.5,0c-0.1,0-0.3,0-0.4,0c-0.1,0-0.3,0-0.5,0c0,0,0,0,0,0c0.3,0.3,0.7,0.9,1.3,2.2c0.3-0.2,0.6-0.3,0.9-0.3
			c0.3,0,0.7,0.1,1.2,0.5l0.5,0.4l-0.6,0.2c-0.5,0.2-0.9,0.4-1.3,0.6c0.4,0.9,0.8,1.9,1.3,3.1c0.1,0,0.3-0.1,0.5-0.2
			c-0.1-0.6,0.4-0.8,0.7-1.1c0.3-0.2,0.6-0.4,0.8-0.8c0.5-0.9,1.2-2.1,2.3-2.3c0.1,0,0.3-0.1,0.4-0.1c0.4,0,0.8,0.1,1.2,0.4l0.3,0.2
			l-0.2,0.3c-0.3,0.4-0.7,0.6-1.1,0.7c-0.7,0.3-1.5,0.5-1.9,2.4c-0.1,1.1,0,1.3,0.7,1.5c0.1,0,0.3,0.1,0.4,0.1c0.1,0,0.2,0,0.3,0
			c0.1,0,0.2,0,0.3,0c0.5,0,1,0.2,1.1,1.3l0,0.3l-0.3,0.1c-0.2,0-0.3,0-0.5,0c-0.2,0-0.4,0-0.6,0c-0.2,0-0.3,0-0.5,0
			c-0.5,0-1.1,0.2-2,1.1c-0.1,0.1-0.2,0.3-0.3,0.4c0.2,0.6,0.4,1.1,0.6,1.6c0.8,0,2,0.2,2.1,1.1c0,0.2,0,0.3-0.2,0.4
			c-0.2,0.2-0.6,0.2-1.2,0.3c0,0,0,0-0.1,0c0.2,0.6,0.4,1.1,0.5,1.5c0.4-0.9,1.2-1.5,2.4-1.8l0.8-0.2l-0.4,0.7
			c-0.1,0.2-0.2,0.4-0.4,0.7c-0.4,0.7-1.1,2-0.9,2.4c0.1,0.1,0.3,0.2,0.5,0.2l0,0c0,0,0,0,0,0c0.1,0,0.4-0.3,0.7-0.6
			c0.3-0.4,0.7-0.8,1.3-1.3c0.7-0.6,1.3-0.8,1.8-0.8c0.2,0,0.3,0,0.4,0.1c0.2,0.1,0.6,0.3,0.6,1l0,0.3l-0.2,0.1
			c-0.1,0.1-0.2,0.1-0.4,0.2c-1.3,0.6-2.3,1.2-2.2,2.1c0,0.2,0,0.4,0.1,0.6c0.1,0.9,0.2,1.9,0.7,2.3c0.1,0.1,0.3,0.1,0.5,0.1
			c0.2,0,0.3,0,0.6-0.1c0.5-0.5,1.4-0.9,2.2-0.9c0.1,0,0.1,0,0.2,0c0.7,0.1,1.3,0.4,1.7,1l0.3,0.5l-0.5,0.1c-0.2,0-0.4,0-0.7,0.1
			c-0.9,0-2.1,0.1-2.6,1.1l2,2.2c0.4-0.1,0.8-0.1,1.2-0.1c0.6,0,1,0.1,1.3,0.3c0.2,0.2,0.3,0.4,0.4,0.7l0.1,0.9l-0.7-0.6
			c0,0-0.1,0-0.1,0c-0.1,0-0.4,0.1-0.8,0.3l2.5,2.7l1.5,0l-1,0.7c-0.1,0.1-0.2,0.1-0.2,0.2l-0.5,0.4l0-0.5l-20.1-0.2l-0.1-0.1
			c-0.8-0.6-2-0.7-3.3-0.7c-1.9,0-4.1,0.4-5.7,0.7c-0.3,0.1-0.6,0.1-0.9,0.2l-0.5,0.1l0-0.5c0.4-7.8-11.5-17.3-17.1-21.2
			c-2.7-1.9-5.6-3.6-8.3-5.6c-3.8-2.8-7.3-6.1-10.7-9.4c-7.5-7.2-15-14.5-21.3-22.8c-6.1-8-10.9-16.8-13.3-26.6
			c-2.1-8.7-5.9-15.7-3.6-25.1c0.5-2,1.4-4.1,3.4-4.7c-1.3-4,0.3-8.3,2.3-12c1.2-2.4,2.7-4.7,3.5-7.3c0.7-2.1,0.3-4.7,2-6.3
			c0.5-0.5,0.8-1,1.1-1.5c0.4-0.7,0.8-1.4,1.9-1.4c0.2,0,0.5,0,0.9,0.1l0.3,0.1l0,0.3c0,0,0,0,0,0c0,1.3,0.4,2.3,0.7,2.4
			c0.5-0.2,1.2-1.7,1.7-2.7c0.4-0.8,0.8-1.5,1.1-1.9c1.3-1.5,2.7-1.8,4.1-2.2c0.4-0.1,0.9-0.2,1.3-0.4c0,0,0,0,0,0
			c0,0,0.1,0.4,0.1,0.4l0.1,0.4c-0.8,0.3-2,0.7-2.6,1.6c-0.3,0.4-0.4,1.1-0.3,1.6c0.1,0.2,0.2,0.6,0.4,0.8c0.6-0.2,1.3-0.3,1.9-0.3
			c0.7,0,1.4,0.1,2.1,0.4c1.6-2,2.3-4.8,1.8-7.4c-0.1-0.5-0.3-1.1-0.4-1.6c-0.2-0.7-0.4-1.5-0.6-2.2c-0.2-1.3,0-2.5,0.2-3.7l1.3-9.6
			c0.1-1,0.3-2.3,1.1-3.2c0.5-0.6,1.2-1,1.9-1c0.1,0,0.2,0,0.2,0c0.5,0,0.9,0.2,1.3,0.4l0.3,0.2l-0.2,0.3c-0.6,0.7-1.4,1.6-1.5,2.7
			c-0.1,0.5,0.1,1.1,0.5,1.5c0.2,0.2,0.4,0.4,0.8,0.4c0,0,0,0,0.1,0c0.5,0,1-0.3,1.5-0.7c0.5-0.3,1-0.6,1.5-0.7
			c-0.8-2.1-0.7-4.6,0.3-7c1-2.4,2.6-4.5,4.4-6.5C110.5,40.9,111.7,40.1,112.9,40.1 M151.2,167.2c0.3-0.1,1-0.3,1.7-0.3
			c0.3,0,0.7,0,1,0.2c0.1-0.5,0.4-1,0.6-1.4c0.2-0.3,0.4-0.7,0.5-1c0-0.1,0-0.2,0-0.2l-2.3,0.2c-0.7,0.1-1.6,0.8-1.8,1.5
			C150.8,166.5,150.9,166.9,151.2,167.2 M142,176.3c0.4-0.6,0.7-1.2,0.7-2.2c0-0.3,0-0.5,0-0.8c0-0.2,0-0.4,0-0.6
			c-0.1,0-0.2,0-0.4,0c-0.2,0-0.3,0-0.5,0c-0.5,0-1.1,0.2-2,1.1c-1.2,1.3-1,1.6-0.7,1.8c0.1,0.1,0.1,0.1,0.2,0.2c0.1,0,0.2,0,0.3,0
			C140.5,175.7,141.6,175.8,142,176.3 M139.4,181.8c0-0.1,0.1-0.1,0.1-0.2c0.4-0.7,0.5-1.1,0.6-1.6c0.1-0.4,0.1-0.8,0.3-1.4
			c0.1-0.4,0.3-0.8,0.6-1.1c-0.1,0-0.1,0-0.2,0c-0.7,0-1.5,0-1.8,0.5c-0.3,0.3-0.3,0.9-0.1,1.6C139,180.1,139.2,181.2,139.4,181.8
			 M112.9,34.1c-3,0-5.8,1.5-8.3,4.5c-1.8,2.1-3.6,4.4-4.9,7.2c-0.1,0-0.1,0-0.2,0c-2.4,0.2-4.5,1.4-6,3.3c-1.8,2.2-2.1,4.8-2.3,6.2
			L89.9,65c-0.2,1.5-0.4,3.3-0.2,5.3c0,0.1,0,0.2,0,0.3c-1.7,0.4-4,1.2-6.2,3.5c-0.2,0-0.3,0-0.5,0c-3,0-5.4,1.5-7.1,4.4
			c-0.1,0.1-0.1,0.2-0.2,0.3c-2.5,2.5-2.9,5.5-3.2,7.5c-0.1,0.5-0.2,1-0.2,1.3c-0.5,1.5-1.3,3-2.2,4.7c-0.3,0.5-0.6,1-0.8,1.6
			c-1.7,3.1-3.6,7.5-3.4,12.2c-1.1,1.4-2.1,3.2-2.7,5.8c-2.2,8.7-0.1,15.6,1.9,22.2c0.6,1.9,1.2,3.8,1.6,5.7
			c2.4,9.8,7.2,19.5,14.3,28.8c6.6,8.6,14.4,16.2,21.9,23.4c3.5,3.4,7.1,6.9,11.3,10c1.6,1.1,3.1,2.2,4.6,3.2
			c1.3,0.9,2.5,1.7,3.7,2.5c9.6,6.9,14.7,13.4,14.6,16.1l0,0.5l7,6.2l0.5-0.1c0.3,0,0.6-0.1,1-0.2c1.4-0.2,3.3-0.6,4.7-0.6
			c0.5,0,0.7,0,0.7,0c0,0-0.3-0.1-0.8-0.4l3.5,1.2l20.1,0.2l0-2.3l3.6,1.7l0.5-0.4l0,0l1-0.7l-1.9-6.7l2.3-1.2l-0.1-0.9
			c-0.1-2-1.1-3.8-2.7-5c0,0-0.1,0-0.1-0.1l0.9-2l-0.3-0.5c-0.6-1.1-1.5-2-2.5-2.6l0.2-0.3l0-0.3c-0.2-2.7-1.8-4.9-4.2-5.9
			c-0.3-0.1-0.6-0.3-1-0.3l0.4-0.6l0-0.3c-0.1-0.9-0.3-1.6-0.6-2.3l0,0l-1.7-8.3l-0.3-0.2c-0.2-0.2-0.5-0.3-0.8-0.5c0,0,0-0.1,0-0.1
			l3.9-0.3l0.3-0.5c0.9-1.5,1.4-3.6,1-5.8c0.2-0.1,0.4-0.3,0.6-0.4l2.9,1.1l0.5-0.4c1.7-1.5,2.8-3.5,2.9-5.8c0-0.6,0-1.2-0.1-1.8
			l1.9-1.4l0-0.5c0-0.5-0.1-1.3-0.3-2.1c1.3-0.5,4.3-2,4.4-6.5c0-0.8-0.1-1.7-0.2-2.4c0.2-0.2,0.3-0.4,0.4-0.6
			c1-1.6,1.2-3.7,0.6-5.5c-0.3-0.9-0.8-1.7-1.3-2.4c0.5-0.4,0.9-0.8,1.2-1.3c1.2-1.7,1.4-3.6,1.2-5.2l2.2-1.5l0-0.6
			c-0.2-2.7-1.4-5.1-3.4-6.7c-0.3-0.3-0.7-0.5-1.1-0.7l-3.1-5.3l-1,0.2c-0.9,0.1-1.6,0.3-2.3,0.6l-1.1-3l-0.9,0c-0.2,0-0.4,0-0.6,0
			c-2.8,0-5.3,1.1-7.2,3.1l-0.5-2.8l-1-0.2c-0.5-0.1-1-0.1-1.5-0.1c-0.2,0-0.4,0-0.6,0l0.7-4l0-0.2c-0.4-1.6-1.3-2.9-2.6-3.9
			c0.1-0.4,0.1-0.8,0.1-1.2l2.7-1.5l0.7,0.2l0.7-0.9c1.2-1.6,1.7-3.5,1.4-5.5c-0.3-2.1-1.5-4-3.3-5.3c-0.2-0.2-0.5-0.3-0.7-0.5
			l-3.3-5.6l-1,0.2c-0.9,0.1-1.6,0.3-2.3,0.6l-1.1-3l-0.9,0c-0.2,0-0.4,0-0.6,0c-3,0-5.8,1.3-7.7,3.7l-1.9-3.6l-0.8,0
			c-5.2,0.2-7.9,4.6-8.8,6.1c-0.7,1.1-1.2,2.1-1.6,3.1c-0.9,0.3-1.7,0.7-2.4,1.3c-2.2,1.7-3.7,4.5-3.8,7.4c-0.1,1.3,0.1,2.4,0.2,3.3
			c0,0.3,0.1,0.6,0.1,0.8c0,0.1-0.1,0.3-0.1,0.4c-0.2,0.8-0.6,2-0.6,3.6c0,0.5,0,1,0.1,1.4c-1.1,0.6-2.1,1.5-3.1,2.6l-0.5-0.3
			l-0.5,0.2c-3.5,1.6-6,5-6.6,8.8c0,0,0,0.1,0,0.1c-0.7-1.7-2.1-3.1-4-3.9c-0.8-0.3-1.6-0.5-2.4-0.6c1-1.6,1.3-3.6,0.7-5.4
			c-0.3-1.2-1-2.3-1.8-3.2l1-8.2l-0.6-0.4c-0.8-0.5-1.7-1-2.6-1.2c0.5-0.9,0.8-2,0.9-3.1l3.6,1.3l0.4-0.2c2-1.2,3.3-3.1,3.7-5.4
			c0.3-2.1-0.2-4.4-1.4-6.3l0.2-0.2c-0.1,0-0.1,0.1-0.2,0.1c-0.2-0.3-0.3-0.5-0.5-0.8l0.9-1.1l0.8,0.5l0.5-0.7c-0.1,0-0.2,0-0.3,0.1
			c-0.2,0-0.5,0.1-0.7,0.1c-0.1,0-0.2,0-0.3,0l1.3-1.7c0.1,0.6,0.1,1.1-0.1,1.6l1.9-2.6c0.1,0.1,0.2,0.2,0.3,0.3l0.3,0.3l0.5-0.1
			c-0.7,1-1.8,1.8-3.1,2.1c-0.1,0.3-0.2,0.6-0.4,0.8l6.5,3.8l0.8-0.7c2.1-1.8,3.2-4.4,3.3-7l1.5-0.2l0.2-0.4
			c1.4-2.4,1.5-5.3,0.3-7.8c0.1-0.2,0.3-0.3,0.4-0.5c0.4-0.6,0.7-1.2,1-1.9l2.8,0.7l0.4-0.3c1.9-1.4,3-3.5,3.2-5.9
			c0.1-1.4-0.2-2.6-0.6-3.7c0.1,0,0.1-0.1,0.2-0.1l0.2-0.2l1.9-6.9l-0.1-0.3c-0.7-1.9-2.1-3.4-3.8-4.4l0.1-0.3
			c0.3-0.6,0.4-1.2,0.6-1.8l3.9-0.5l0.2-0.3c1.3-1.8,1.6-3.7,1.5-5.2l2.5,0l0.4-1.5c0.8-3.5-0.5-7.1-3.1-9.4l-1.7-7.6l-0.7-0.2
			c-0.8-0.2-1.6-0.3-2.5-0.3c-1.4,0-2.8,0.3-4.1,0.9l-1.5-5.1l-1.5,0.1c-4,0.2-7.8,2.4-10.2,6c-0.2,0.3-0.4,0.6-0.6,0.9l-0.2-7
			l-0.9-0.3C114.8,34.3,113.9,34.1,112.9,34.1L112.9,34.1z"/>
	</g>
</g>
</svg>
