<?xml version="1.0" encoding="utf-8"?>
<!-- Generator: Adobe Illustrator 19.1.0, SVG Export Plug-In . SVG Version: 6.00 Build 0)  -->
<svg version="1.1" id="Layer_1" xmlns="http://www.w3.org/2000/svg" xmlns:xlink="http://www.w3.org/1999/xlink" x="0px" y="0px"
	 viewBox="0 0 250 250" style="enable-background:new 0 0 250 250;" xml:space="preserve">
<style type="text/css">
	.st0{fill:#F89C1C;}
	.st1{fill:#231F20;}
	.st2{fill:#F89C1C;stroke:#231F20;stroke-width:4.4995;stroke-miterlimit:10;}
	.st3{fill:#CD181F;}
	.st4{fill:#CD181F;stroke:#231F20;stroke-width:4;stroke-linecap:round;stroke-linejoin:round;stroke-miterlimit:10;}
	.st5{fill:#FFFFFF;stroke:#231F20;stroke-width:4.8908;stroke-linecap:round;stroke-linejoin:round;stroke-miterlimit:10;}
</style>
<g>
	<g>
		<g>
			<path class="st0" d="M128,157.7c-0.1-0.5-6.9-32.5-57-52.4l-2.1-0.8l3.2-8.1l2.1,0.8c33.1,13.1,48.8,31,56.1,43.7
				c4.9,8.5,6.1,14.6,6.2,15.3l0.4,2.2l-8.6,1.5L128,157.7z"/>
			<path class="st1" d="M73.4,99.3c32.6,12.9,47.9,30.5,55,42.7c4.7,8.2,5.8,14,5.9,14.6l-2.1,0.4l0,0l-2.1,0.4
				c-0.1-0.6-6.7-33.6-58.4-54.1L73.4,99.3 M132.2,156.9l-2,0.4c0,0,0,0,0,0L132.2,156.9 M130.2,157.3L130.2,157.3L130.2,157.3
				L130.2,157.3 M70.9,93.4l-1.7,4.2l-1.6,3.9l-1.7,4.2l4.2,1.7c25.5,10.1,39.3,23.4,46.3,32.7c7.5,10,9.2,17.8,9.3,18l0.8,4.4
				l4.4-0.8l2-0.4l2.1-0.4l4.4-0.8l-0.8-4.4c-0.2-1.2-1.4-7.4-6.5-16.1c-7.5-13-23.6-31.3-57.3-44.6L70.9,93.4L70.9,93.4z"/>
		</g>
	</g>
	<g>
		<g>
			<path class="st0" d="M114.2,220.6l-4-1.1l0.6-2.2c0.1-0.3,8.1-32.1-28.4-72l-1.5-1.7l6.4-5.9l1.5,1.7
				c24,26.2,30.3,49.2,31.4,63.8c0.7,9.8-0.9,15.8-1.1,16.5l-0.6,2.2L114.2,220.6z"/>
			<path class="st1" d="M87.2,140.9c23.6,25.8,29.8,48.3,30.9,62.5c0.7,9.4-0.9,15.1-1,15.7l-2.1-0.6l0,0l-2-0.6
				c0.2-0.6,8.6-33.1-28.9-74.1L87.2,140.9 M112.9,217.9L112.9,217.9L112.9,217.9L112.9,217.9 M112.9,217.9l2,0.6L112.9,217.9
				C112.9,217.9,112.9,217.9,112.9,217.9 M87.4,134.5l-3.3,3l-3.1,2.9l-3.3,3l3,3.3c18.6,20.3,25.1,38.2,27.4,49.6
				c2.4,12.2,0.6,19.8,0.5,20.3l-1.2,4.3l4.3,1.2l2,0.6l2.1,0.6l4.3,1.2l1.3-4.3c0.3-1.1,1.9-7.3,1.2-17.3c-1.1-15-7.6-38.5-32-65.2
				L87.4,134.5L87.4,134.5z"/>
		</g>
	</g>
	<g>
		<g>
			<path class="st0" d="M122.8,192.3l0.3-1.9c7.3-42.3,24.6-63.5,37.7-73.8c8.8-6.9,15.8-8.9,16.6-9.1l2-0.5l3.4,9.3l-2.4,0.7
				c-0.4,0.1-36.7,11.4-47.9,75.8l-0.4,2.5L122.8,192.3z"/>
			<path class="st1" d="M178,109.6l1,2.6l0,0l0.9,2.6c-0.6,0.2-38,11.4-49.5,77.6l-5-1.6c7.2-41.7,24.2-62.4,36.9-72.4
				C170.7,111.7,177.3,109.8,178,109.6 M179,112.2l0.9,2.5c0,0,0,0,0,0L179,112.2 M179.9,114.7L179.9,114.7L179.9,114.7L179.9,114.7
				 M180.8,104.2l-4,1.1c-0.8,0.2-8.2,2.3-17.4,9.5c-13.5,10.6-31.1,32.2-38.6,75.2l-0.7,3.9l3.8,1.2l5,1.6l4.9,1.5l0.9-5.1
				c5.7-32.9,18-51.2,27.3-60.9c10-10.3,18.8-13.1,19-13.2l4.6-1.3l-1.7-4.5l-0.9-2.5l-1-2.6L180.8,104.2L180.8,104.2z"/>
		</g>
	</g>
	<g>
		<path class="st2" d="M97.9,54c13.7,7.6,23.5,25,23.9,25.7l-3.7,2.1c-0.1-0.2-9.7-17.1-22.3-24.1L97.9,54z"/>
	</g>
	<g>
		<path class="st3" d="M70.7,117.1c-6.1,0-11.7-3.3-14.7-8.5c-4.7-8.1-1.9-18.6,6.2-23.3c2.6-1.5,5.6-2.3,8.5-2.3
			c6.1,0,11.7,3.3,14.7,8.5c2.3,3.9,2.9,8.5,1.7,12.9s-4,8.1-7.9,10.4C76.6,116.3,73.6,117.1,70.7,117.1z"/>
		<path class="st1" d="M70.6,85c5.2,0,10.2,2.7,13,7.5c4.2,7.2,1.7,16.4-5.5,20.6c-2.4,1.4-5,2-7.5,2c-5.2,0-10.2-2.7-13-7.5
			c-4.2-7.2-1.7-16.4,5.5-20.6C65.5,85.6,68.1,85,70.6,85 M70.6,81C70.6,81,70.6,81,70.6,81c-3.3,0-6.6,0.9-9.5,2.6
			c-4.4,2.6-7.5,6.7-8.8,11.6c-1.3,4.9-0.6,10,1.9,14.4c3.4,5.8,9.7,9.5,16.5,9.5c3.3,0,6.6-0.9,9.5-2.6c4.4-2.6,7.5-6.7,8.8-11.6
			c1.3-4.9,0.6-10-1.9-14.4C83.7,84.6,77.4,81,70.6,81L70.6,81z"/>
	</g>
	<g>
		<g>
			<path class="st0" d="M101.3,237.9l1.3-2.6c0,0,0.1-0.1,0.2-0.3c2.9-4.5,17.5-28.8,21.3-64.7C129.9,115,119.2,64.8,91.4,17
				l-1.1-1.9l7.5-4.4l1.1,1.9c37.4,64.4,40.5,122.7,36.5,160.3c-4.3,40.8-17.4,66.2-17.9,67.2l-0.8,1.6L101.3,237.9z"/>
			<path class="st1" d="M97,13.7c37.1,63.8,40.1,121.6,36.2,158.9c-4.3,40.4-17.2,65.4-17.7,66.4l-10.9-2.6
				c0.1-0.2,17.5-26.1,21.7-65.8c3.8-36.6,3.5-92-32.9-154.8L97,13.7 M98.7,7.6l-3.9,2.3L91.1,12l-3.9,2.3l2.3,3.9
				c27.5,47.4,38.1,97.1,32.3,152c-3.7,35.4-18.1,59.3-20.9,63.7c-0.2,0.3-0.3,0.4-0.3,0.5l-2.7,5.1l5.6,1.4l10.9,2.6l3.4,0.8
				l1.6-3.1c0.6-1.1,13.8-26.8,18.2-68c4-37.9,0.9-96.7-36.8-161.6L98.7,7.6L98.7,7.6z"/>
		</g>
	</g>
	<g>
		<g>
			<path class="st3" d="M100.4,171.2c-0.6,0-1.2,0-1.8-0.1c-8.2-0.9-14.3-8.1-14-16.4c0-0.4,0.2-0.9,0.4-1.2
				c-0.2-0.4-0.2-0.8-0.2-1.3c1.4-7.4,8-12.8,15.5-12.8c0.6,0,1.2,0,1.8,0.1c4.2,0.5,8,2.6,10.6,5.9c2.6,3.3,3.8,7.5,3.3,11.7
				C115.2,165.1,108.5,171.2,100.4,171.2C100.4,171.2,100.4,171.2,100.4,171.2z"/>
			<path class="st1" d="M100.4,141.5c0.5,0,1.1,0,1.6,0.1c7.6,0.9,13.1,7.7,12.2,15.4c-0.8,7.1-6.8,12.3-13.8,12.3
				c-0.5,0-1.1,0-1.6-0.1c-7.2-0.8-12.5-7.1-12.3-14.3l13.8,0.8l0.1-0.8l-13.7-2.2C88.1,146.2,93.8,141.5,100.4,141.5 M100.4,137.5
				C100.4,137.5,100.4,137.5,100.4,137.5c-8.5,0-15.9,6.1-17.5,14.4c-0.1,0.5-0.1,0.9,0,1.4c-0.2,0.4-0.3,0.9-0.3,1.4
				c-0.4,9.3,6.6,17.4,15.8,18.4c0.7,0.1,1.4,0.1,2.1,0.1c9.1,0,16.7-6.8,17.7-15.8c0.5-4.7-0.8-9.4-3.8-13.1c-3-3.7-7.2-6.1-12-6.6
				C101.8,137.5,101.1,137.5,100.4,137.5L100.4,137.5z"/>
		</g>
		<g>
			<path class="st3" d="M83.4,190.7c-6.3,0-12-3.7-14.5-9.5c-3.3-7.5-0.2-16.5,7.1-20.3c0.3-0.2,0.6-0.2,0.9-0.2c0.1,0,0.2,0,0.3,0
				c0.2-0.4,0.6-0.6,1-0.8c1.7-0.6,3.4-0.9,5.2-0.9c6.3,0,12,3.7,14.5,9.5c1.7,3.9,1.8,8.2,0.2,12.1c-1.5,3.9-4.5,7-8.4,8.7
				C87.7,190.2,85.6,190.7,83.4,190.7z"/>
			<path class="st1" d="M83.4,160.9c5.3,0,10.4,3.1,12.7,8.3c3.1,7-0.1,15.2-7.2,18.2c-1.8,0.8-3.7,1.2-5.5,1.2
				c-5.3,0-10.4-3.1-12.7-8.3c-2.9-6.7-0.1-14.4,6.2-17.8l6.1,12.4l0.7-0.3l-4.8-13C80.3,161.2,81.9,160.9,83.4,160.9 M83.4,156.9
				C83.4,156.9,83.4,156.9,83.4,156.9c-2,0-4,0.3-5.9,1c-0.4,0.2-0.9,0.4-1.2,0.7c-0.5,0.1-0.9,0.2-1.3,0.4
				c-8.2,4.3-11.7,14.4-8,22.9c2.8,6.5,9.3,10.7,16.4,10.7c2.5,0,4.9-0.5,7.1-1.5c4.4-1.9,7.7-5.4,9.5-9.8c1.7-4.4,1.7-9.3-0.3-13.7
				C96.9,161.2,90.5,156.9,83.4,156.9L83.4,156.9z"/>
		</g>
		<g>
			<path class="st3" d="M62.6,180.1c-5.6,0-10.8-3-13.7-7.8c-4.4-7.5-1.9-17.3,5.6-21.7c2.4-1.4,5.2-2.2,8-2.2c5.2,0,10,2.5,13,6.8
				c0.3,0.4,0.4,0.8,0.4,1.2c0.4,0.2,0.7,0.5,0.9,0.9c3.6,7.4,0.9,16.5-6.2,20.6C68.2,179.3,65.4,180.1,62.6,180.1z"/>
			<path class="st1" d="M62.5,150.4c4.4,0,8.7,2.1,11.4,5.9l-11.6,7.5l0.4,0.7l12.3-6.4c3.2,6.4,0.9,14.3-5.4,18
				c-2.2,1.3-4.6,1.9-7,1.9c-4.7,0-9.4-2.4-12-6.8c-3.9-6.6-1.7-15.1,4.9-19C57.7,151,60.1,150.4,62.5,150.4 M62.5,146.4
				c-3.2,0-6.3,0.9-9.1,2.5c-4.1,2.4-7,6.3-8.2,10.9c-1.2,4.6-0.5,9.4,1.9,13.5c3.2,5.4,9.1,8.8,15.4,8.8c3.2,0,6.3-0.9,9.1-2.5
				c8-4.7,11-14.9,7-23.2c-0.2-0.4-0.5-0.8-0.8-1.1c-0.1-0.4-0.3-0.9-0.6-1.3C73.8,149.2,68.4,146.4,62.5,146.4L62.5,146.4z"/>
		</g>
		<g>
			<path class="st3" d="M89.8,149.6c-3,0-5.9-0.8-8.5-2.5c-0.4-0.2-0.6-0.6-0.8-1c-0.4,0-0.8-0.2-1.2-0.5
				c-6.2-5.4-7.2-14.8-2.3-21.4c3-4,7.7-6.4,12.7-6.4c3.4,0,6.7,1.1,9.5,3.1c7,5.2,8.5,15.2,3.2,22.2
				C99.5,147.3,94.9,149.6,89.8,149.6C89.8,149.6,89.8,149.6,89.8,149.6z"/>
			<path class="st1" d="M89.8,119.9c2.9,0,5.8,0.9,8.3,2.7c6.1,4.6,7.4,13.3,2.8,19.4c-2.7,3.7-6.9,5.6-11.1,5.6
				c-2.5,0-5.1-0.7-7.4-2.1l7.6-11.5l-0.6-0.5l-8.7,10.7c-5.4-4.7-6.4-12.9-2-18.7C81.4,121.8,85.6,119.9,89.8,119.9 M89.8,115.9
				c-5.6,0-11,2.7-14.3,7.2c-5.5,7.4-4.4,18,2.6,24.1c0.4,0.3,0.8,0.6,1.2,0.7c0.3,0.4,0.6,0.7,1,0.9c2.9,1.8,6.2,2.8,9.5,2.8
				c5.6,0,11-2.7,14.3-7.2c2.9-3.8,4-8.5,3.3-13.3c-0.7-4.7-3.2-8.9-7-11.7C97.4,117.1,93.7,115.9,89.8,115.9L89.8,115.9z"/>
		</g>
		<g>
			<path class="st3" d="M66.7,153.4c-5.7,0-10.9-3.1-13.8-8c-4.4-7.6-1.7-17.3,5.9-21.7c2.4-1.4,5.1-2.1,7.9-2.1
				c5.7,0,11,3.1,13.8,8c4.1,7.1,2,16.4-4.8,21c-0.3,0.2-0.7,0.3-1.1,0.3c0,0-0.1,0-0.1,0c-0.2,0.4-0.5,0.7-0.9,0.9
				C71.4,152.8,69.1,153.4,66.7,153.4z"/>
			<path class="st1" d="M66.7,123.6c4.8,0,9.5,2.5,12,7c3.6,6.3,1.7,14.3-4.2,18.3L67,137.3l-0.7,0.4l6.4,12.3
				c-1.9,0.9-3.9,1.3-5.9,1.3c-4.8,0-9.5-2.5-12-7c-3.8-6.6-1.5-15.1,5.1-18.9C62,124.2,64.4,123.6,66.7,123.6 M66.7,119.6
				c-3.1,0-6.2,0.8-8.9,2.4c-8.5,4.9-11.5,15.8-6.6,24.4c3.2,5.5,9.1,9,15.5,9c2.7,0,5.2-0.6,7.6-1.7c0.4-0.2,0.8-0.5,1.1-0.8
				c0.4-0.1,0.9-0.3,1.3-0.6c7.7-5.2,10.1-15.6,5.4-23.6C79,123.1,73.1,119.6,66.7,119.6L66.7,119.6z"/>
		</g>
	</g>
	<g>
		<g>
			<path class="st3" d="M170.1,130.9c-7.4,0-13.9-5.2-15.5-12.4c-1.8-8,3-16.2,10.8-18.6c0.2-0.1,0.4-0.1,0.6-0.1
				c0.2,0,0.5,0,0.7,0.1c0.3-0.3,0.7-0.5,1.1-0.6c0.8-0.1,1.5-0.2,2.3-0.2c7.4,0,13.9,5.2,15.5,12.4c0.9,4.1,0.2,8.4-2.1,12
				c-2.3,3.6-5.8,6.1-9.9,7C172.4,130.8,171.2,130.9,170.1,130.9z"/>
			<path class="st1" d="M170.1,101.2c6.3,0,12.1,4.4,13.5,10.8c1.7,7.5-3,14.9-10.5,16.6c-1,0.2-2,0.3-3,0.3
				c-6.3,0-12.1-4.4-13.5-10.8c-1.6-7.1,2.6-14.2,9.5-16.3l3.6,13.3l0.8-0.2l-2.3-13.6C168.8,101.2,169.5,101.2,170.1,101.2
				 M170.1,97.2C170.1,97.2,170.1,97.2,170.1,97.2c-0.9,0-1.7,0.1-2.6,0.2c-0.5,0.1-0.9,0.2-1.3,0.4c-0.1,0-0.1,0-0.2,0
				c-0.4,0-0.8,0.1-1.2,0.2c-8.9,2.7-14.2,11.9-12.2,21c1.8,8.1,9.1,14,17.4,14c1.3,0,2.6-0.1,3.9-0.4c4.7-1,8.6-3.8,11.2-7.9
				c2.6-4,3.4-8.8,2.3-13.5C185.7,102.9,178.5,97.2,170.1,97.2L170.1,97.2z"/>
		</g>
		<g>
			<path class="st3" d="M187.7,111.9c-1.6,0-3.2-0.2-4.8-0.7c-7.9-2.5-12.5-10.7-10.7-18.7c0.1-0.4,0.3-0.8,0.7-1.1
				c-0.1-0.4-0.1-0.9,0.1-1.3c2.4-6,8.2-9.9,14.7-9.9c1.6,0,3.2,0.2,4.8,0.7c4,1.3,7.3,4,9.3,7.8c2,3.8,2.3,8.1,1.1,12.1
				C200.7,107.5,194.6,111.9,187.7,111.9C187.7,111.9,187.7,111.9,187.7,111.9z"/>
			<path class="st1" d="M187.7,82.2c1.4,0,2.8,0.2,4.2,0.6c7.3,2.3,11.4,10.1,9,17.4c-1.9,5.9-7.3,9.7-13.2,9.7
				c-1.4,0-2.8-0.2-4.2-0.6c-7-2.2-11-9.4-9.3-16.4l13.4,3.4l0.2-0.8l-13-4.7C177,85.5,182.1,82.2,187.7,82.2 M187.7,78.2
				C187.7,78.2,187.7,78.2,187.7,78.2c-7.3,0-13.8,4.4-16.6,11.2c-0.2,0.4-0.3,0.9-0.3,1.4c-0.3,0.4-0.4,0.8-0.5,1.3
				c-2.1,9,3.2,18.3,12,21.1c1.7,0.6,3.6,0.8,5.4,0.8c7.8,0,14.7-5,17-12.5c3-9.4-2.3-19.4-11.7-22.4
				C191.3,78.5,189.5,78.2,187.7,78.2L187.7,78.2L187.7,78.2z"/>
		</g>
		<g>
			<path class="st3" d="M175,92.3c-1.9,0-3.7-0.3-5.4-1c-0.4-0.1-0.8-0.4-1-0.8c-0.1,0-0.2,0-0.3,0c-0.3,0-0.7-0.1-1-0.2
				c-7.2-4-10.2-13-6.8-20.4c2.6-5.6,8.2-9.3,14.4-9.3c2.3,0,4.5,0.5,6.6,1.4c8,3.6,11.5,13.1,7.9,21
				C186.8,88.7,181.2,92.3,175,92.3C175,92.3,175,92.3,175,92.3z"/>
			<path class="st1" d="M175,62.6c1.9,0,3.9,0.4,5.7,1.3c7,3.2,10,11.4,6.9,18.4c-2.3,5.1-7.4,8.1-12.6,8.1c-1.6,0-3.2-0.3-4.8-0.8
				l5-12.9l-0.7-0.3l-6.3,12.3c-6.3-3.5-8.9-11.2-5.9-17.9C164.7,65.6,169.7,62.6,175,62.6 M175,58.6c-7,0-13.4,4.1-16.3,10.5
				c-3.8,8.4-0.5,18.5,7.6,23c0.4,0.2,0.9,0.4,1.3,0.5c0.4,0.3,0.8,0.5,1.2,0.7c2,0.7,4,1.1,6.1,1.1c7,0,13.4-4.1,16.3-10.5
				c4.1-9,0.1-19.6-8.9-23.7C180,59.1,177.5,58.6,175,58.6L175,58.6z"/>
		</g>
		<g>
			<path class="st3" d="M147.5,122.7c-4.4,0-8.7-1.9-11.7-5.1c-5.9-6.4-5.5-16.5,0.9-22.4c2.9-2.7,6.8-4.2,10.7-4.2
				c4,0,7.9,1.5,10.8,4.2c0.3,0.3,0.5,0.7,0.6,1.1c0.4,0.1,0.8,0.4,1.1,0.7c5.1,6.5,4.4,15.9-1.7,21.5
				C155.4,121.2,151.5,122.7,147.5,122.7z"/>
			<path class="st1" d="M147.5,92.9c3.4,0,6.8,1.2,9.4,3.7l-9.7,9.8l0.5,0.6l10.7-8.8c4.5,5.6,3.9,13.8-1.5,18.8
				c-2.7,2.5-6,3.7-9.4,3.7c-3.7,0-7.5-1.5-10.2-4.5c-5.2-5.6-4.8-14.4,0.8-19.6C140.8,94.2,144.2,92.9,147.5,92.9 M147.5,88.9
				c-4.5,0-8.8,1.7-12.1,4.7c-7.2,6.7-7.7,18-1,25.2c3.4,3.7,8.2,5.7,13.1,5.7c4.5,0,8.8-1.7,12.1-4.7c6.8-6.3,7.6-16.9,1.9-24.2
				c-0.3-0.4-0.6-0.7-1-0.9c-0.2-0.4-0.5-0.8-0.8-1.1C156.4,90.6,152,88.9,147.5,88.9L147.5,88.9z"/>
		</g>
		<g>
			<path class="st3" d="M148.8,99.3c-2.2,0-4.4-0.5-6.4-1.4c-8-3.5-11.6-12.9-8.1-20.9c2.5-5.8,8.2-9.5,14.5-9.5
				c2.2,0,4.4,0.5,6.4,1.4c7.5,3.3,11.3,12,8.6,19.8c-0.1,0.4-0.4,0.8-0.8,1c0.1,0.4,0,0.9-0.2,1.2C160,96.1,154.7,99.3,148.8,99.3z
				"/>
			<path class="st1" d="M148.8,69.6c1.9,0,3.8,0.4,5.6,1.2c6.7,2.9,9.9,10.5,7.5,17.3L149,83l-0.3,0.7L161,90
				c-2.5,4.6-7.2,7.3-12.2,7.3c-1.9,0-3.8-0.4-5.6-1.2c-7-3.1-10.2-11.3-7.1-18.3C138.4,72.6,143.5,69.6,148.8,69.6 M148.8,65.6
				C148.8,65.6,148.8,65.6,148.8,65.6c-7.1,0-13.5,4.2-16.4,10.7c-4,9,0.1,19.6,9.1,23.6c2.3,1,4.7,1.5,7.2,1.5
				c6.6,0,12.6-3.6,15.7-9.4c0.2-0.4,0.4-0.9,0.4-1.3c0.3-0.4,0.5-0.8,0.7-1.2c3.1-8.7-1.2-18.5-9.6-22.3
				C153.7,66.1,151.3,65.6,148.8,65.6L148.8,65.6z"/>
		</g>
	</g>
	<circle class="st4" cx="95.8" cy="52.3" r="15"/>
	<circle class="st5" cx="79.6" cy="152.8" r="13.4"/>
	<circle class="st5" cx="165.7" cy="95.3" r="13.4"/>
</g>
</svg>
