<?xml version="1.0" encoding="utf-8"?>
<!-- Generator: Adobe Illustrator 19.1.0, SVG Export Plug-In . SVG Version: 6.00 Build 0)  -->
<svg version="1.1" id="Layer_1" xmlns="http://www.w3.org/2000/svg" xmlns:xlink="http://www.w3.org/1999/xlink" x="0px" y="0px"
	 viewBox="0 0 250 250" style="enable-background:new 0 0 250 250;" xml:space="preserve">
<style type="text/css">
	.st0{fill-rule:evenodd;clip-rule:evenodd;fill:#221F1F;}
	.st1{fill:#221F1F;}
	.st2{fill-rule:evenodd;clip-rule:evenodd;fill:#FFFFFF;}
	.st3{fill-rule:evenodd;clip-rule:evenodd;fill:url(#SVGID_1_);}
	.st4{fill-rule:evenodd;clip-rule:evenodd;fill:url(#SVGID_2_);}
	.st5{fill-rule:evenodd;clip-rule:evenodd;fill:url(#SVGID_3_);}
	.st6{fill-rule:evenodd;clip-rule:evenodd;fill:url(#SVGID_4_);}
	.st7{fill-rule:evenodd;clip-rule:evenodd;fill:url(#SVGID_5_);}
	.st8{fill-rule:evenodd;clip-rule:evenodd;fill:url(#SVGID_6_);}
	.st9{fill-rule:evenodd;clip-rule:evenodd;fill:url(#SVGID_7_);}
	.st10{fill-rule:evenodd;clip-rule:evenodd;fill:url(#SVGID_8_);}
</style>
<g>
	<g>
		<g>
			<path class="st0" d="M110.7,59.9c-2.2,0-4-1.8-4-4v-7.7c0-2.2,1.8-4,4-4H140c2.2,0,4,1.8,4,4v7.7c0,2.2-1.8,4-4,4H110.7z"/>
			<path class="st1" d="M140,48.2v7.7h-29.3v-7.7H140 M140,40.2h-29.3c-4.4,0-8,3.6-8,8v7.7c0,4.4,3.6,8,8,8H140c4.4,0,8-3.6,8-8
				v-7.7C148,43.8,144.5,40.2,140,40.2L140,40.2z"/>
		</g>
		<g>
			<path class="st0" d="M113.2,54.6c-2.2,0-4-1.8-4-4V35c0-2.2,1.8-4,4-4h24.4c2.2,0,4,1.8,4,4v15.6c0,2.2-1.8,4-4,4H113.2z"/>
			<path class="st1" d="M137.6,35v15.6h-24.4V35H137.6 M137.6,27h-24.4c-4.4,0-8,3.6-8,8v15.6c0,4.4,3.6,8,8,8h24.4c4.4,0,8-3.6,8-8
				V35C145.6,30.6,142,27,137.6,27L137.6,27z"/>
		</g>
		<g>
			<path class="st0" d="M122.9,67.7c-2.2,0-4-1.8-4-4V48.1c0-2.2,1.8-4,4-4h4.9c2.2,0,4,1.8,4,4v15.6c0,2.2-1.8,4-4,4H122.9z"/>
			<path class="st1" d="M127.8,48.1v15.6h-4.9V48.1H127.8 M127.8,40.1h-4.9c-4.4,0-8,3.6-8,8v15.6c0,4.4,3.6,8,8,8h4.9
				c4.4,0,8-3.6,8-8V48.1C135.8,43.7,132.2,40.1,127.8,40.1L127.8,40.1z"/>
		</g>
		<g>
			<path class="st2" d="M136.9,89.3c-0.2,0-0.4,0-0.6,0l-11.1-1.6l-11.1,1.6c-0.2,0-0.4,0-0.6,0c-1,0-1.9-0.3-2.6-1
				c-0.9-0.7-1.4-1.8-1.4-2.9l-19.9-2.9c-1.2-0.2-2.2-0.9-2.8-1.9c-0.6-1-0.8-2.3-0.4-3.4c0.4-1.2,4.1-11.4,10.8-15.8
				c1.4-0.9,2.3-1.5,2.8-1.9c0.6-1.4,1.9-2.4,3.5-2.4c0.1,0,43.4,0,43.4,0c1.6,0.1,2.9,1,3.5,2.4c0.5,0.4,1.3,1,2.8,1.9
				c6.7,4.4,10.4,14.6,10.8,15.8c0.4,1.1,0.3,2.4-0.4,3.4c-0.6,1-1.7,1.7-2.8,1.9l-19.9,2.9c0,1.1-0.5,2.2-1.4,2.9
				C138.8,88.9,137.8,89.3,136.9,89.3z"/>
			<path class="st1" d="M146.7,61.1C146.7,61.1,146.7,61.1,146.7,61.1L146.7,61.1C146.7,61.1,146.7,61.1,146.7,61.1 M103.6,61.1
				C103.6,61.1,103.6,61.1,103.6,61.1L103.6,61.1C103.6,61.1,103.6,61.1,103.6,61.1 M146.7,61.1c-0.1,0-1.2,0.1,4.3,3.7
				c5.8,3.8,9.3,13.8,9.3,13.8l-23.4,3.4v3.4l-11.7-1.7l-11.7,1.7v-3.4l-23.4-3.4c0,0,3.5-10,9.3-13.8c5.5-3.6,4.4-3.7,4.3-3.7h9.9
				h23.4H146.7 M146.7,53.1C146.7,53.1,146.7,53.1,146.7,53.1l-9.9,0h-23.4h-9.8c0,0,0,0,0,0c-0.1,0-0.2,0-0.3,0
				c-2.7,0.1-5.1,1.6-6.4,3.7c-0.4,0.3-1,0.7-1.8,1.3c-7.6,5-11.7,15.7-12.4,17.8c-0.8,2.3-0.5,4.7,0.7,6.8c1.2,2,3.3,3.4,5.7,3.8
				l17.4,2.5c0.5,0.9,1.1,1.7,1.9,2.4c1.5,1.3,3.3,2,5.2,2c0.4,0,0.8,0,1.1-0.1l10.5-1.5l10.5,1.5c0.4,0.1,0.8,0.1,1.1,0.1
				c1.9,0,3.8-0.7,5.2-2c0.8-0.7,1.4-1.5,1.9-2.4l17.4-2.5c2.4-0.3,4.5-1.7,5.7-3.8c1.2-2,1.5-4.5,0.7-6.8
				c-0.7-2.1-4.8-12.8-12.4-17.8c-0.8-0.5-1.4-1-1.9-1.3c-1.4-2.1-3.7-3.6-6.4-3.7C147,53.1,146.9,53.1,146.7,53.1L146.7,53.1z"/>
		</g>
		<g>
			<linearGradient id="SVGID_1_" gradientUnits="userSpaceOnUse" x1="86.1221" y1="151.3994" x2="164.6221" y2="151.3994">
				<stop  offset="0" style="stop-color:#F68F1E"/>
				<stop  offset="0.6844" style="stop-color:#FFD700"/>
			</linearGradient>
			<path class="st3" d="M90.1,228.3c-2.2,0-4-1.8-4-4V78.5c0-2.2,1.8-4,4-4h70.5c2.2,0,4,1.8,4,4v145.8c0,2.2-1.8,4-4,4H90.1z"/>
			<path class="st1" d="M160.6,78.5v145.8H90.1V78.5H160.6 M160.6,70.5H90.1c-4.4,0-8,3.6-8,8v145.8c0,4.4,3.6,8,8,8h70.5
				c4.4,0,8-3.6,8-8V78.5C168.6,74.1,165,70.5,160.6,70.5L160.6,70.5z"/>
		</g>
		<g>
			<linearGradient id="SVGID_2_" gradientUnits="userSpaceOnUse" x1="82.46" y1="228.8169" x2="168.2842" y2="228.8169">
				<stop  offset="0.3156" style="stop-color:#FFD700"/>
				<stop  offset="1" style="stop-color:#F68F1E"/>
			</linearGradient>
			<path class="st4" d="M86.5,237.4c-2.2,0-4-1.8-4-4v-9.1c0-2.2,1.8-4,4-4h77.8c2.2,0,4,1.8,4,4v9.1c0,2.2-1.8,4-4,4H86.5z"/>
			<path class="st1" d="M164.3,224.3v9.1H86.5v-9.1H164.3 M164.3,216.3H86.5c-4.4,0-8,3.6-8,8v9.1c0,4.4,3.6,8,8,8h77.8
				c4.4,0,8-3.6,8-8v-9.1C172.3,219.9,168.7,216.3,164.3,216.3L164.3,216.3z"/>
		</g>
		<g>
			<linearGradient id="SVGID_3_" gradientUnits="userSpaceOnUse" x1="82.46" y1="78.5225" x2="168.2842" y2="78.5225">
				<stop  offset="0.3156" style="stop-color:#FFD700"/>
				<stop  offset="1" style="stop-color:#F68F1E"/>
			</linearGradient>
			<path class="st5" d="M86.5,87.1c-2.2,0-4-1.8-4-4V74c0-2.2,1.8-4,4-4h77.8c2.2,0,4,1.8,4,4v9.1c0,2.2-1.8,4-4,4H86.5z"/>
			<path class="st1" d="M164.3,74v9.1H86.5V74H164.3 M164.3,66H86.5c-4.4,0-8,3.6-8,8v9.1c0,4.4,3.6,8,8,8h77.8c4.4,0,8-3.6,8-8V74
				C172.3,69.6,168.7,66,164.3,66L164.3,66z"/>
		</g>
		<g>
			<linearGradient id="SVGID_4_" gradientUnits="userSpaceOnUse" x1="93.3115" y1="61.0806" x2="157.4326" y2="61.0806">
				<stop  offset="0.3156" style="stop-color:#FFD700"/>
				<stop  offset="1" style="stop-color:#F68F1E"/>
			</linearGradient>
			<path class="st6" d="M97.3,67.7c-2.2,0-4-1.8-4-4v-5.3c0-2.2,1.8-4,4-4h56.1c2.2,0,4,1.8,4,4v5.3c0,2.2-1.8,4-4,4H97.3z"/>
			<path class="st1" d="M153.4,58.4v5.3H97.3v-5.3H153.4 M153.4,50.4H97.3c-4.4,0-8,3.6-8,8v5.3c0,4.4,3.6,8,8,8h56.1
				c4.4,0,8-3.6,8-8v-5.3C161.4,54,157.9,50.4,153.4,50.4L153.4,50.4z"/>
		</g>
	</g>
	<g>
		<rect x="110.7" y="48.2" class="st2" width="29.3" height="7.7"/>
		<rect x="113.2" y="35" class="st2" width="24.4" height="15.6"/>
		<rect x="122.9" y="48.1" class="st2" width="4.9" height="15.6"/>
		<path class="st2" d="M136.9,81.9l23.4-3.4c0,0-3.5-10-9.3-13.8c-5.8-3.7-4.3-3.7-4.3-3.7h-9.9h-23.4h-9.9c0,0,1.5-0.1-4.3,3.7
			c-5.8,3.8-9.3,13.8-9.3,13.8l23.4,3.4v3.4l11.7-1.7l11.7,1.7V81.9z"/>
		<linearGradient id="SVGID_5_" gradientUnits="userSpaceOnUse" x1="90.1219" y1="151.3996" x2="160.6219" y2="151.3996">
			<stop  offset="0" style="stop-color:#F68F1E"/>
			<stop  offset="0.6844" style="stop-color:#FFD700"/>
		</linearGradient>
		<rect x="90.1" y="78.5" class="st7" width="70.5" height="145.8"/>
		<linearGradient id="SVGID_6_" gradientUnits="userSpaceOnUse" x1="86.4598" y1="228.8171" x2="164.284" y2="228.8171">
			<stop  offset="0.3156" style="stop-color:#FFD700"/>
			<stop  offset="1" style="stop-color:#F68F1E"/>
		</linearGradient>
		<rect x="86.5" y="224.3" class="st8" width="77.8" height="9.1"/>
		<linearGradient id="SVGID_7_" gradientUnits="userSpaceOnUse" x1="86.4598" y1="78.5224" x2="164.284" y2="78.5224">
			<stop  offset="0.3156" style="stop-color:#FFD700"/>
			<stop  offset="1" style="stop-color:#F68F1E"/>
		</linearGradient>
		<rect x="86.5" y="74" class="st9" width="77.8" height="9.1"/>
		<linearGradient id="SVGID_8_" gradientUnits="userSpaceOnUse" x1="97.3114" y1="61.0807" x2="153.4324" y2="61.0807">
			<stop  offset="0.3156" style="stop-color:#FFD700"/>
			<stop  offset="1" style="stop-color:#F68F1E"/>
		</linearGradient>
		<rect x="97.3" y="58.4" class="st10" width="56.1" height="5.3"/>
	</g>
</g>
</svg>
