<?xml version="1.0" encoding="utf-8"?>
<!-- Generator: Adobe Illustrator 19.1.0, SVG Export Plug-In . SVG Version: 6.00 Build 0)  -->
<svg version="1.1" id="Layer_1" xmlns="http://www.w3.org/2000/svg" xmlns:xlink="http://www.w3.org/1999/xlink" x="0px" y="0px"
	 viewBox="0 0 250 250" style="enable-background:new 0 0 250 250;" xml:space="preserve">
<style type="text/css">
	.st0{fill:#F89C1C;}
	.st1{fill:#231F20;}
	.st2{fill:#FFCF46;}
</style>
<g>
	<g>
		<path class="st0" d="M9.9,137l0.9-2.3c3.1-7.6,7.1-14.9,11.9-21.7l1.4-2l84.7,59.2l-0.5,1.7c-0.3,0.9-0.4,1.8-0.6,2.8l-0.4,3.3
			L9.9,137z"/>
		<path class="st1" d="M24.8,114.4l81.2,56.7c-0.3,1-0.5,2.1-0.6,3.2l-92.2-38.6C16.4,127.7,20.3,120.7,24.8,114.4 M23.5,107.4
			l-2.9,4.1c-4.9,7-9,14.4-12.1,22.2l-1.9,4.6l4.6,1.9l92.2,38.6l6.1,2.6l0.8-6.6c0.1-0.8,0.3-1.6,0.5-2.3l1-3.4l-2.9-2.1
			l-81.2-56.7L23.5,107.4L23.5,107.4z"/>
	</g>
	<g>
		<path class="st2" d="M23,112.5l1.5-2.1c5.6-7.5,12.2-14.4,19.8-20.5l1.9-1.5l65.5,77.1l-1.1,1.6c-0.4,0.6-0.9,1.4-1.3,2.3
			l-1.3,2.7L23,112.5z"/>
		<g>
			<path class="st1" d="M45.9,91.9l62.7,73.7c-0.6,0.8-1,1.7-1.5,2.6l-80.6-56.3C32.3,104.1,38.9,97.4,45.9,91.9 M46.5,84.9L42.7,88
				c-7.7,6.2-14.6,13.3-20.3,21l-3.1,4.1l4.2,2.9l80.6,56.3l4.8,3.4l2.5-5.3c0.4-0.8,0.7-1.4,1.1-1.9l2.1-3.1l-2.5-2.9L49.7,88.6
				L46.5,84.9L46.5,84.9z"/>
		</g>
	</g>
	<g>
		<path class="st0" d="M44.6,89.6l2.1-1.6c7.9-6,16.8-11.3,26.5-15.6l2.3-1l40.9,90.2l-1.7,1.2c-0.9,0.6-1.7,1.4-2.5,2.2l-1.9,2
			L44.6,89.6z"/>
		<path class="st1" d="M74.3,74.7l39.1,86c-1,0.7-2,1.6-2.8,2.5L48.3,90C56.7,83.5,65.6,78.5,74.3,74.7 M76.8,68.1l-4.5,2
			c-9.8,4.4-18.9,9.7-27,15.9L41,89.2l3.4,4l62.2,73.2l3.6,4.3l3.8-4.1c0.6-0.7,1.4-1.3,2.1-1.9l3.3-2.4l-1.7-3.7l-39.1-86
			L76.8,68.1L76.8,68.1z"/>
	</g>
	<g>
		<path class="st2" d="M73.7,72.2l2.4-1c10.2-4.3,21.1-7.6,32.3-9.8l2.6-0.5l12.1,98.5l-2.2,0.5c-1.3,0.3-2.6,0.8-3.8,1.4l-2.3,1.2
			L73.7,72.2z"/>
		<g>
			<path class="st1" d="M108.8,63.9l11.5,93.7c-1.5,0.4-3,0.9-4.3,1.6L77,73.5C89,68.4,100.2,65.5,108.8,63.9 M113.1,57.9l-5.3,1
				c-11.3,2.2-22.4,5.5-32.8,9.9l-4.7,2l2.1,4.7l38.9,85.7l2.2,4.8l4.7-2.4c1-0.5,2.1-0.9,3.2-1.2l4.3-1l-0.5-4.4l-11.5-93.7
				L113.1,57.9L113.1,57.9z"/>
		</g>
	</g>
	<g>
		<path class="st0" d="M109,61.2l2.3-0.4c8.1-1.4,13.2-1.7,13.4-1.7l0.1,0l0.1,0c0.2,0,5.3,0.3,13.4,1.7l2.3,0.4l-12.1,98.5
			l-2.4-0.2c-0.5,0-0.9-0.1-1.4-0.1c-0.5,0-0.9,0-1.4,0.1l-2.4,0.2L109,61.2z"/>
		<path class="st1" d="M124.8,61.7c0,0,5.1,0.2,13.1,1.6L126.4,157c-0.5,0-1.1-0.1-1.6-0.1c-0.5,0-1.1,0-1.6,0.1l-11.5-93.7
			C119.8,61.9,124.8,61.7,124.8,61.7 M124.8,56.7l-0.2,0c-0.2,0-5.5,0.3-13.7,1.7l-4.7,0.8l0.6,4.7l11.5,93.7l0.6,4.8l4.8-0.4
			c0.4,0,0.8-0.1,1.2-0.1c0.4,0,0.8,0,1.2,0.1l4.8,0.4l0.6-4.8l11.5-93.7l0.6-4.7l-4.7-0.8c-8.2-1.4-13.5-1.7-13.7-1.7L124.8,56.7
			L124.8,56.7z"/>
	</g>
	<g>
		<path class="st2" d="M132.6,161.3c-1.2-0.6-2.5-1.1-3.8-1.4l-2.2-0.5l12.1-98.6l2.6,0.5c11.2,2.2,22,5.5,32.3,9.8l2.4,1l-41,90.4
			L132.6,161.3z"/>
		<g>
			<path class="st1" d="M140.9,63.8c8.6,1.7,19.8,4.6,31.8,9.6l-38.9,85.6c-1.4-0.7-2.8-1.2-4.3-1.6L140.9,63.8 M136.6,57.9
				l-0.7,5.3l-11.5,93.7l-0.5,4.4l4.3,1c1.1,0.3,2.2,0.7,3.2,1.2l4.7,2.4l2.2-4.8l38.9-85.6l2.1-4.7l-4.7-2
				c-10.4-4.4-21.4-7.7-32.8-9.9L136.6,57.9L136.6,57.9z"/>
		</g>
	</g>
	<g>
		<path class="st0" d="M137.4,164.9c-0.8-0.8-1.6-1.5-2.5-2.2l-1.7-1.2l40.9-90.2l2.3,1c9.7,4.3,18.6,9.6,26.5,15.6l2.1,1.6
			L139.3,167L137.4,164.9z"/>
		<path class="st1" d="M175.4,74.7c8.6,3.9,17.5,8.9,26,15.3l-62.2,73.2c-0.9-0.9-1.8-1.8-2.8-2.5L175.4,74.7 M172.9,68.1l-2.1,4.5
			l-39.1,86l-1.7,3.7l3.3,2.4c0.8,0.6,1.5,1.2,2.1,1.9l3.8,4.1l3.6-4.3l62.2-73.2l3.4-4l-4.2-3.2c-8.1-6.2-17.2-11.5-27-15.9
			L172.9,68.1L172.9,68.1z"/>
	</g>
	<g>
		<path class="st2" d="M140.3,169.3c-0.4-0.9-0.8-1.6-1.3-2.3l-1.1-1.6l65.5-77l1.9,1.5c7.6,6.1,14.2,13,19.8,20.5l1.5,2.1
			l-85.1,59.4L140.3,169.3z"/>
		<g>
			<path class="st1" d="M203.8,91.9c6.9,5.6,13.6,12.2,19.4,20l-80.6,56.3c-0.4-0.9-0.9-1.8-1.5-2.6L203.8,91.9 M203.1,84.9
				l-3.2,3.7l-62.7,73.7l-2.5,2.9l2.1,3.1c0.4,0.5,0.7,1.2,1.1,1.9l2.5,5.3l4.8-3.4L226,116l4.2-2.9l-3.1-4.1
				c-5.7-7.7-12.5-14.7-20.3-21L203.1,84.9L203.1,84.9z"/>
		</g>
	</g>
	<g>
		<path class="st0" d="M141.9,174.5c-0.1-0.9-0.3-1.9-0.6-2.8l-0.5-1.7l84.7-59.2l1.4,2c4.8,6.8,8.8,14.1,11.9,21.7l0.9,2.3
			l-97.5,40.9L141.9,174.5z"/>
		<path class="st1" d="M224.9,114.4c4.4,6.3,8.4,13.3,11.6,21.3l-92.2,38.6c-0.1-1.1-0.3-2.1-0.6-3.2L224.9,114.4 M226.2,107.4
			l-4.1,2.9L140.8,167l-2.9,2.1l1,3.4c0.2,0.8,0.4,1.5,0.5,2.3l0.8,6.6l6.1-2.6l92.2-38.6l4.6-1.9l-1.9-4.6
			c-3.2-7.8-7.3-15.3-12.1-22.2L226.2,107.4L226.2,107.4z"/>
	</g>
	<g>
		<path class="st0" d="M124.8,192.3c-8.6,0-15.6-7-15.6-15.6c0-8.6,7-15.6,15.6-15.6c8.6,0,15.7,7,15.7,15.6c0,4.2-1.6,8.1-4.6,11.1
			C133,190.6,129,192.3,124.8,192.3L124.8,192.3z"/>
		<path class="st1" d="M124.8,163.5c7.3,0,13.1,5.9,13.2,13.2c0,7.3-5.9,13.1-13.1,13.1c0,0,0,0,0,0c-7.3,0-13.1-5.9-13.2-13.2
			C111.7,169.4,117.6,163.5,124.8,163.5 M124.8,158.5L124.8,158.5L124.8,158.5c-10,0-18.2,8.1-18.2,18.1c0,10,8.1,18.2,18.2,18.2
			c4.9,0,9.4-1.9,12.8-5.3c3.4-3.4,5.3-8,5.3-12.8C143,166.6,134.8,158.5,124.8,158.5L124.8,158.5z"/>
	</g>
</g>
</svg>
