<?xml version="1.0" encoding="utf-8"?>
<!-- Generator: Adobe Illustrator 19.1.0, SVG Export Plug-In . SVG Version: 6.00 Build 0)  -->
<svg version="1.1" id="Layer_1" xmlns="http://www.w3.org/2000/svg" xmlns:xlink="http://www.w3.org/1999/xlink" x="0px" y="0px"
	 viewBox="0 0 250 250" style="enable-background:new 0 0 250 250;" xml:space="preserve">
<style type="text/css">
	.st0{fill:#FFCF46;}
	.st1{fill:#231F20;}
	.st2{fill:#F89C1C;}
</style>
<g>
	<g>
		<path class="st0" d="M25.1,128.7c-1,0-1.9-0.6-2.2-1.5c-0.4-0.9-0.2-1.9,0.4-2.7l26.8-29.6c0.5-0.5,1.1-0.8,1.9-0.8c0,0,0,0,0,0
			c0.7,0,1.4,0.3,1.9,0.9l26.6,30.5c0.6,0.7,0.8,1.8,0.4,2.7c-0.4,0.9-1.3,1.4-2.3,1.4C78.5,129.7,25.1,128.7,25.1,128.7z"/>
		<path class="st1" d="M51.9,96.6l26.6,30.5l-53.4-1L51.9,96.6 M51.9,91.6c-1.4,0-2.8,0.6-3.7,1.6l-26.8,29.6
			c-1.3,1.5-1.7,3.5-0.9,5.3c0.8,1.8,2.5,3,4.5,3l53.4,1c0,0,0.1,0,0.1,0c1.9,0,3.7-1.1,4.5-2.9c0.8-1.8,0.5-3.9-0.8-5.4L55.7,93.3
			C54.8,92.3,53.4,91.6,51.9,91.6C52,91.6,52,91.6,51.9,91.6L51.9,91.6z"/>
	</g>
	<g>
		<path class="st2" d="M88.6,188.6c-1,0-1.9-0.6-2.3-1.6L49.6,97.6c-0.4-0.9-0.2-2,0.6-2.7c0.5-0.5,1.1-0.7,1.7-0.7
			c0.3,0,0.7,0.1,1,0.2l54.1,23.6c1.1,0.5,1.7,1.7,1.4,2.9l-17.4,65.9c-0.3,1-1.2,1.8-2.3,1.9C88.8,188.6,88.7,188.6,88.6,188.6z"/>
		<path class="st1" d="M51.9,96.6l54.1,23.6l-17.4,65.9L51.9,96.6 M51.9,91.6c-1.3,0-2.5,0.5-3.5,1.4c-1.5,1.4-1.9,3.6-1.1,5.5
			L84,188c0.8,1.9,2.6,3.1,4.6,3.1c0.1,0,0.2,0,0.3,0c2.1-0.1,4-1.6,4.5-3.7l17.4-65.9c0.6-2.4-0.6-4.9-2.8-5.9L53.9,92
			C53.3,91.7,52.6,91.6,51.9,91.6L51.9,91.6z"/>
	</g>
	<g>
		<path class="st0" d="M225.2,222.3c-0.4,0-0.9-0.1-1.3-0.3l-42.3-25c-0.8-0.5-1.3-1.4-1.2-2.4c0.1-1,0.7-1.8,1.6-2.1l31.5-11.2
			c0.3-0.1,0.6-0.1,0.8-0.1c0.4,0,0.8,0.1,1.1,0.3c0.6,0.3,1.1,0.9,1.3,1.5l10.9,36.3c0.3,1,0,2.1-0.9,2.7
			C226.3,222.2,225.7,222.3,225.2,222.3z"/>
		<path class="st1" d="M214.3,183.6l10.9,36.3l-42.3-25L214.3,183.6 M214.3,178.6c-0.6,0-1.1,0.1-1.7,0.3l-31.5,11.2
			c-1.8,0.7-3.1,2.3-3.3,4.2c-0.2,1.9,0.8,3.8,2.4,4.8l42.3,25c0.8,0.5,1.7,0.7,2.5,0.7c1.1,0,2.2-0.4,3.1-1.1
			c1.6-1.3,2.3-3.4,1.7-5.4l-10.9-36.3c-0.4-1.3-1.3-2.4-2.5-3C215.9,178.8,215.1,178.6,214.3,178.6L214.3,178.6z"/>
	</g>
	<g>
		<path class="st2" d="M145.9,143.1c-1,0-1.9-0.6-2.3-1.5L115.9,75c-0.5-1.1-0.1-2.4,0.9-3L171,36.3c0.4-0.3,0.9-0.4,1.4-0.4
			c0.5,0,1,0.2,1.5,0.5c0.8,0.6,1.2,1.7,1,2.7l-26.5,102.3c-0.3,1-1.2,1.8-2.2,1.9C146,143.1,146,143.1,145.9,143.1z"/>
		<path class="st1" d="M172.4,38.3L172.4,38.3 M172.4,38.3l-26.5,102.3L118.2,74L172.4,38.3 M172.4,33.3
			C172.4,33.3,172.4,33.3,172.4,33.3C172.4,33.3,172.4,33.3,172.4,33.3C172.4,33.3,172.4,33.3,172.4,33.3c-1.1,0-2,0.3-2.8,0.9
			l-54.1,35.6c-2,1.3-2.8,3.9-1.9,6.1l27.7,66.6c0.8,1.9,2.6,3.1,4.6,3.1c0.1,0,0.2,0,0.4,0c2.1-0.2,4-1.7,4.5-3.7l26.5-102.1
			c0.1-0.5,0.2-0.9,0.2-1.4C177.4,35.6,175.2,33.3,172.4,33.3C172.4,33.3,172.4,33.3,172.4,33.3L172.4,33.3z"/>
	</g>
	<g>
		<path class="st2" d="M182.8,229.7c-0.6,0-1.2-0.2-1.7-0.7l-38-34.7c-0.7-0.7-1-1.7-0.7-2.6c0.3-0.9,1.1-1.6,2.1-1.7l69.4-9
			c0.1,0,0.2,0,0.3,0c0.9,0,1.7,0.5,2.1,1.2c0.5,0.9,0.5,1.9-0.1,2.7l-31.5,43.7c-0.4,0.6-1.1,1-1.8,1
			C183,229.7,182.9,229.7,182.8,229.7z"/>
		<path class="st1" d="M214.3,183.6L214.3,183.6 M214.3,183.6l-31.5,43.7l-38-34.7L214.3,183.6 M214.3,178.6c-0.1,0-0.1,0-0.2,0
			c-0.2,0-0.3,0-0.5,0l-69.4,9c-1.9,0.3-3.5,1.6-4.1,3.5c-0.6,1.9,0,3.9,1.4,5.2l38,34.7c0.9,0.8,2.1,1.3,3.4,1.3c0.2,0,0.3,0,0.5,0
			c1.4-0.1,2.7-0.9,3.5-2l31.4-43.6c0.6-0.8,1-1.9,1-3c0-2.7-2.2-4.9-4.9-5C214.4,178.6,214.4,178.6,214.3,178.6L214.3,178.6z"/>
	</g>
	<g>
		<path class="st0" d="M182.8,229.7c-0.3,0-0.7-0.1-1-0.2l-94.2-41.1c-1.1-0.5-1.7-1.7-1.4-2.9l29.6-112.2c0.3-1,1.2-1.8,2.2-1.9
			c0.1,0,0.1,0,0.2,0c1,0,1.9,0.6,2.3,1.5l64.6,153.3c0.4,0.9,0.2,2-0.5,2.8C184.1,229.5,183.5,229.7,182.8,229.7z"/>
		<path class="st1" d="M118.2,74l64.6,153.3l-94.2-41.1L118.2,74 M118.2,69c-0.1,0-0.2,0-0.4,0c-2.1,0.2-3.9,1.6-4.5,3.7L83.8,184.9
			c-0.6,2.4,0.6,4.9,2.8,5.9l94.2,41.1c0.6,0.3,1.3,0.4,2,0.4c1.3,0,2.6-0.5,3.5-1.4c1.5-1.4,1.9-3.6,1.1-5.5L122.8,72
			C122,70.2,120.2,69,118.2,69L118.2,69z"/>
	</g>
</g>
</svg>
