<?xml version="1.0" encoding="utf-8"?>
<!-- Generator: Adobe Illustrator 19.1.0, SVG Export Plug-In . SVG Version: 6.00 Build 0)  -->
<svg version="1.1" id="Layer_1" xmlns="http://www.w3.org/2000/svg" xmlns:xlink="http://www.w3.org/1999/xlink" x="0px" y="0px"
	 viewBox="0 0 250 250" style="enable-background:new 0 0 250 250;" xml:space="preserve">
<style type="text/css">
	.st0{fill:url(#SVGID_1_);}
	.st1{fill:#231F20;}
	.st2{fill:#FFFFFF;}
</style>
<g>
	<g>
		<g>
			<linearGradient id="SVGID_1_" gradientUnits="userSpaceOnUse" x1="124.9671" y1="233.0977" x2="124.9671" y2="32.0649">
				<stop  offset="0.1964" style="stop-color:#F27321"/>
				<stop  offset="0.7517" style="stop-color:#FFCA05"/>
			</linearGradient>
			<path class="st0" d="M125,233.1c-0.6,0-1.1-0.2-1.6-0.5l-2.2-1.7c-1-0.8-23.6-19.1-27.8-43.7c-6.1,2.3-13.1,3.4-20.6,3.4
				c-16.5,0-30.5-5.4-31.1-5.6l-2.6-1c-1.1-0.4-1.7-1.5-1.6-2.7l0.4-2.7c0.2-1.3,4.7-30,23.9-45.9C42.8,116.7,38.2,88,38,86.7
				l-0.4-2.7c-0.2-1.2,0.5-2.3,1.6-2.7l2.6-1c0.6-0.2,14.6-5.7,31-5.7c7.6,0,14.5,1.2,20.7,3.4c4.2-24.6,26.8-42.9,27.8-43.7
				l2.2-1.7c0.5-0.4,1-0.5,1.6-0.5s1.1,0.2,1.6,0.5l2.2,1.7c1,0.8,23.6,19.1,27.8,43.7c6.2-2.3,13.1-3.4,20.7-3.4
				c16.4,0,30.4,5.4,31,5.7l2.6,1c1.1,0.4,1.7,1.5,1.6,2.7l-0.4,2.7c-0.2,1.3-4.7,30-23.9,45.9c19.2,15.9,23.7,44.6,23.9,45.9
				l0.4,2.7c0.2,1.2-0.5,2.3-1.6,2.7l-2.6,1c-0.6,0.2-14.6,5.6-31.1,5.6c-7.6,0-14.5-1.1-20.6-3.4c-4.2,24.6-26.8,42.9-27.8,43.7
				l-2.2,1.7C126.1,232.9,125.5,233.1,125,233.1z M104.8,181.1c0.9,16.5,14,31.1,20.2,37.1c6.2-6,19.3-20.6,20.2-37.1
				c-6.1-4.5-11.3-10.5-15.6-18.1l-2.1,44.1c-0.1,1.3-1.2,2.4-2.5,2.4s-2.4-1-2.5-2.4l-2.1-44.1
				C116.1,170.5,110.8,176.6,104.8,181.1z M50.9,175.4c5.1,1.5,13.2,3.3,22,3.3c8.5,0,15.8-1.7,21.7-5.1
				c11.4-6.6,17.8-19.7,21.2-29.5l-54.1,28c-0.4,0.2-0.8,0.3-1.1,0.3c-0.9,0-1.7-0.5-2.2-1.3c-0.7-1.2-0.3-2.6,0.8-3.4l51.3-32.9
				c-4.2-0.8-9.2-1.5-14.4-1.5c-8.5,0-15.8,1.7-21.7,5.1C59.5,147,53,166.7,50.9,175.4z M134.1,144c3.4,9.8,9.8,22.9,21.2,29.5
				c5.9,3.4,13.2,5.1,21.7,5.1c8.8,0,16.9-1.8,22-3.3c-2.2-8.6-8.6-28.4-23.4-36.9c-5.9-3.4-13.2-5.1-21.7-5.1
				c-5.2,0-10.2,0.7-14.4,1.5l51.3,32.9c1.1,0.7,1.5,2.2,0.8,3.4c-0.5,0.8-1.3,1.3-2.2,1.3c-0.4,0-0.8-0.1-1.1-0.3L134.1,144z
				 M50.9,89.8c2.1,8.3,8.2,27.1,22,36c6.8-3,14.6-4.5,23.2-4.5c0.1,0,0.3,0,0.4,0L59.2,97.5c-1.1-0.7-1.5-2.2-0.8-3.4
				c0.5-0.8,1.3-1.3,2.2-1.3c0.4,0,0.8,0.1,1.1,0.3l39.3,20.3c-4.4-7.5-7-15.1-7.9-22.6c-5.6-2.9-12.4-4.3-20.2-4.3
				C64,86.5,55.9,88.4,50.9,89.8z M153.9,121.4c8.6,0,16.4,1.5,23.2,4.5c13.8-9,19.9-27.7,22-36c-5.1-1.4-13.2-3.3-22-3.3
				c-7.8,0-14.6,1.4-20.2,4.3c-0.8,7.5-3.5,15.1-7.9,22.6l39.3-20.3c0.4-0.2,0.8-0.3,1.1-0.3c0.9,0,1.7,0.5,2.2,1.3
				c0.7,1.2,0.3,2.6-0.8,3.4l-37.2,23.9C153.6,121.4,153.7,121.4,153.9,121.4z M125,47c-6.4,6.2-20.3,21.7-20.3,38.8
				c0,13.2,8.1,25.3,14.9,33.1l2.8-60.9c0.1-1.3,1.2-2.4,2.5-2.4s2.4,1,2.5,2.4l2.8,60.8c6.8-7.8,14.9-19.9,14.9-33.1
				C145.2,68.6,131.4,53.2,125,47z"/>
			<path class="st1" d="M125,34.6l2.2,1.7c1.1,0.9,24.8,20.1,27.3,45.3c7.4-3.3,15.3-4.5,22.8-4.5c15.8,0,29.2,5.2,30.1,5.5l2.6,1
				l-0.4,2.7c-0.2,1.3-5,31.5-25.5,46.3c20.5,14.7,25.3,44.9,25.5,46.3l0.4,2.7l-2.6,1c-0.6,0.2-14.2,5.5-30.2,5.5
				c-8.5,0-16.1-1.5-22.7-4.5c-2.5,25.1-26.2,44.4-27.3,45.2l-2.2,1.7l-2.2-1.7c-1.1-0.9-24.8-20.1-27.3-45.2
				c-6.6,3-14.2,4.5-22.7,4.5c-16,0-29.6-5.3-30.2-5.5l-2.6-1l0.4-2.7c0.2-1.3,5-31.5,25.5-46.3c-20.5-14.7-25.3-44.9-25.5-46.3
				l-0.4-2.7l2.6-1c0.9-0.3,14.3-5.5,30.1-5.5c7.4,0,15.4,1.1,22.8,4.5c2.5-25.1,26.2-44.4,27.3-45.3L125,34.6 M121.9,125l3.1-66.8
				l3.1,66.8c7.3-7.4,19.6-22.3,19.6-39.2c0-19.7-16.7-36.7-22.8-42.2c-6.1,5.5-22.8,22.6-22.8,42.2
				C102.2,102.7,114.5,117.6,121.9,125 M72.7,128.7c6.7-3.2,14.6-4.8,23.4-4.8c3.4,0,6.8,0.2,9.9,0.6L60.6,95.4l47.9,24.7
				c-6.1-8.1-12-18.8-13-30.9c-7-3.9-15-5.2-22.6-5.2c-10.7,0-20.4,2.6-24.9,4.1C49.7,96,56,118.7,72.7,128.7 M141.5,120.1
				l47.9-24.7L144,124.5c3.1-0.4,6.4-0.6,9.9-0.6c8.8,0,16.7,1.6,23.4,4.8c16.7-10,23-32.6,24.8-40.6c-4.6-1.4-14.3-4.1-25-4.1
				c-7.5,0-15.6,1.3-22.6,5.2C153.5,101.3,147.6,112.1,141.5,120.1 M189.4,169.8L130,139.1c2.7,10,9.5,28.2,24.1,36.6
				c6.3,3.6,14,5.5,23,5.5c10.7,0,20.4-2.6,24.9-4.1c-1.8-8-8.2-31-25.2-40.8c-6.3-3.6-14-5.5-23-5.5c-8.1,0-15.6,1.5-20.8,2.9
				L189.4,169.8 M72.8,181.1c9,0,16.7-1.8,23-5.5c14.6-8.4,21.4-26.6,24.1-36.6l-59.4,30.7l56.3-36.1c-5.2-1.4-12.7-2.9-20.8-2.9
				c-9,0-16.7,1.8-23,5.5c-17,9.8-23.4,32.8-25.2,40.8C52.5,178.5,62.2,181.1,72.8,181.1 M125,207l-2.5-53.8
				c-3.9,9.3-10.3,19.8-20.2,26.7c0.2,19.5,16.7,36.3,22.7,41.8c6-5.5,22.5-22.3,22.7-41.8c-9.9-6.9-16.3-17.4-20.2-26.7L125,207
				 M125,29.6c-1.1,0-2.2,0.4-3.1,1.1l-2.2,1.7c-1,0.8-22.6,18.3-28.1,42.3c-5.7-1.8-12-2.7-18.8-2.7c-16.5,0-30.4,5.2-31.9,5.8
				l-2.6,1c-2.2,0.9-3.5,3.1-3.1,5.4l0.4,2.7c0.2,1.3,4.5,28.7,22.6,45.5c-18.1,16.8-22.4,44.3-22.6,45.5l-0.4,2.7
				c-0.4,2.3,0.9,4.6,3.1,5.4l2.6,1c0.6,0.2,15,5.8,32,5.8c6.8,0,13-0.9,18.7-2.6c5.5,24.1,27.1,41.5,28.1,42.3l2.2,1.7
				c0.9,0.7,2,1.1,3.1,1.1c1.1,0,2.2-0.4,3.1-1.1l2.2-1.7c1-0.8,22.6-18.3,28.1-42.3c5.7,1.8,12,2.6,18.7,2.6c17,0,31.4-5.6,32-5.8
				l2.6-1c2.2-0.9,3.5-3.1,3.1-5.4l-0.4-2.7c-0.2-1.3-4.5-28.7-22.6-45.5c18.1-16.8,22.4-44.3,22.6-45.5l0.4-2.7
				c0.4-2.3-0.9-4.6-3.1-5.4l-2.6-1c-1.5-0.6-15.4-5.8-31.9-5.8c-6.8,0-13.1,0.9-18.8,2.7c-5.5-24.1-27.1-41.6-28.1-42.3l-2.2-1.7
				C127.2,29.9,126.1,29.6,125,29.6L125,29.6z M117.4,112.2c-5.3-7.2-10.2-16.5-10.2-26.4c0-14.8,11.1-28.4,17.8-35.2
				c6.6,6.8,17.7,20.4,17.7,35.2c0,9.9-4.9,19.2-10.2,26.4L130,58c-0.1-2.7-2.3-4.8-5-4.8c0,0,0,0,0,0c-2.7,0-4.9,2.1-5,4.8
				L117.4,112.2L117.4,112.2z M53.9,91.6c4.9-1.2,11.7-2.5,18.9-2.5c6.9,0,12.9,1.2,17.9,3.5c0.7,5,2.2,10.1,4.4,15.2L62.8,90.9
				c-0.7-0.4-1.5-0.6-2.3-0.6c-1.7,0-3.4,0.9-4.3,2.5c-1.3,2.3-0.6,5.3,1.6,6.7l30.7,19.7c-5.5,0.6-10.7,1.8-15.4,3.7
				C62,115,56.4,100.1,53.9,91.6L53.9,91.6z M159.2,92.5c5-2.3,11-3.5,17.9-3.5c7.3,0,14.1,1.3,18.9,2.5c-2.4,8.5-8,23.5-19.2,31.4
				c-4.7-1.9-9.8-3.1-15.4-3.7l30.7-19.7c2.2-1.4,3-4.4,1.6-6.7c-0.9-1.6-2.6-2.5-4.3-2.5c-0.8,0-1.6,0.2-2.3,0.6l-32.3,16.7
				C157,102.6,158.5,97.5,159.2,92.5L159.2,92.5z M146.4,136.2c2.4-0.3,4.9-0.4,7.5-0.4c8.1,0,15,1.6,20.5,4.8
				c12.8,7.4,19.1,23.9,21.6,33c-4.9,1.3-11.6,2.5-18.9,2.5c-8.1,0-15-1.6-20.5-4.8c-8.6-4.9-14.2-13.9-17.8-22.1l48.2,24.9
				c0.7,0.4,1.5,0.6,2.3,0.6c1.7,0,3.4-0.9,4.3-2.5c1.3-2.3,0.6-5.3-1.6-6.7L146.4,136.2L146.4,136.2z M53.9,173.6
				c2.6-9.1,8.8-25.6,21.6-33c5.5-3.2,12.4-4.8,20.5-4.8c2.6,0,5.1,0.2,7.5,0.4l-45.7,29.3c-2.2,1.4-3,4.4-1.6,6.7
				c0.9,1.6,2.6,2.5,4.3,2.5c0.8,0,1.6-0.2,2.3-0.6l48.2-24.9c-3.6,8.2-9.2,17.1-17.8,22.1c-5.5,3.2-12.4,4.8-20.5,4.8
				C65.6,176.1,58.8,174.9,53.9,173.6L53.9,173.6z M125,212c2.7,0,4.9-2.1,5-4.8l1.7-36.4c3.3,4.5,6.9,8.3,10.9,11.4
				c-1.3,13.7-11.4,26-17.6,32.4c-6.2-6.3-16.3-18.7-17.6-32.4c4-3.1,7.7-6.9,10.9-11.4l1.7,36.3C120.1,209.9,122.3,212,125,212
				L125,212z"/>
		</g>
	</g>
	<g>
		<path class="st2" d="M154.5,89.3c16.9-9.5,39.8-3.6,47.5-1.2c-1.7,8-8.1,30.6-24.8,40.6c-6.7-3.2-14.6-4.8-23.4-4.8
			c-3.4,0-6.8,0.2-9.9,0.6l45.4-29.1l-47.9,24.7C147.6,112.1,153.5,101.3,154.5,89.3z M125,43.6c6.1,5.5,22.8,22.5,22.8,42.2
			c0,16.8-12.3,31.8-19.6,39.2L125,58.2l-3.1,66.8c-7.3-7.4-19.6-22.3-19.6-39.2C102.2,66.2,118.9,49.1,125,43.6z M47.9,88.1
			c7.8-2.5,30.5-8.3,47.5,1.2c1,12.1,6.9,22.8,13,30.9L60.6,95.4l45.4,29.1c-3.1-0.4-6.4-0.6-9.9-0.6c-8.8,0-16.7,1.6-23.4,4.8
			C56,118.7,49.7,96,47.9,88.1z M72.8,181.1c-10.7,0-20.4-2.6-24.9-4.1c1.8-8,8.1-31,25.2-40.8c6.3-3.6,14-5.5,23-5.5
			c8.1,0,15.6,1.5,20.8,2.9l-56.3,36.1l59.4-30.7c-2.7,10-9.5,28.2-24.1,36.6C89.5,179.3,81.8,181.1,72.8,181.1z M125,221.6
			c-6-5.5-22.5-22.3-22.7-41.8c9.9-6.9,16.3-17.4,20.2-26.7L125,207l2.5-53.8c3.9,9.3,10.3,19.8,20.2,26.7
			C147.5,199.2,131,216.1,125,221.6z M177.1,181.1c-9,0-16.7-1.8-23-5.5c-14.6-8.4-21.4-26.6-24.1-36.6l59.4,30.7l-56.3-36.1
			c5.2-1.4,12.7-2.9,20.8-2.9c9,0,16.7,1.8,23,5.5c17,9.8,23.4,32.8,25.2,40.8C197.5,178.5,187.8,181.1,177.1,181.1z"/>
	</g>
</g>
</svg>
