<?xml version="1.0" encoding="utf-8"?>
<!-- Generator: Adobe Illustrator 19.1.0, SVG Export Plug-In . SVG Version: 6.00 Build 0)  -->
<svg version="1.1" id="Layer_1" xmlns="http://www.w3.org/2000/svg" xmlns:xlink="http://www.w3.org/1999/xlink" x="0px" y="0px"
	 width="300px" height="300px" viewBox="-361 363 300 300" style="enable-background:new -361 363 300 300;" xml:space="preserve">
<path style="fill:#FFFFFF;" d="M-199.7,618.6c-33.4,0-60.4-17.4-72.2-46.4c-6.6-16.3-6.7-31.7-6.8-47.9c0-4-0.1-8.2-0.2-12.5
	c-0.2-7.1-4.1-15.7-11-18.5c-1.4-0.6-2.8-0.9-4.1-0.9c-1.9,0-3.7,0.6-5.6,1.7c-1,1.2-1.4,1.9-1.5,2.2c-1.5,3.6-6.8,27.6-2.4,38.3
	c10,18.9,19,54.2,0.8,68.7c-0.5,0.4-1,0.5-1.6,0.5c-0.5,0-1-0.1-1.4-0.4c-0.9-0.6-1.3-1.8-1-2.8c0,0,0.4-1.2,0.6-2.9
	c-1.8,2.1-4.6,4.2-9.9,8c-0.4,0.3-1,0.5-1.5,0.5c-0.5,0-1-0.1-1.4-0.4c-0.9-0.6-1.3-1.7-1-2.7c0.5-1.8,1.3-3.9,2.2-6.2
	c2.1-5.5,5.1-13.1,2.8-16.4c-3.6-5.4-7.4-13.1-5-24.9c0.4-1.8,0.3-5.7,0.2-10.2c-0.2-12.7-0.5-31.9,6.6-46.6
	c4.3-11.6,12.2-18.3,21.7-18.3c2.2,0,4.5,0.4,6.8,1c13.4,4,23.6,19.2,23.1,34.1c1.7,28.9,9.9,49.5,24.2,61.3c3,2.5,6.4,4.5,10.1,6
	c-0.1-0.5,0-1,0.3-1.5l0.4-0.7c0.4-0.8,1.3-1.3,2.2-1.3c0.2,0,0.4,0,0.6,0.1c0.1,0,1.9,0.5,4.6,1.3l0.4,0.1c1.3,0.4,2.7,0.8,4.2,1.3
	c1.2,0.4,2.5,0.9,3.8,1.3l1.3,0.5c0.7,0.3,1.5,0.5,2.4,0.7c0.4,0.1,0.9,0.2,1.4,0.4c-0.1-0.4-0.2-0.8-0.1-1.3l0.1-0.8
	c0.2-1.1,1.1-2,2.2-2.1c0.1,0,2-0.2,4.8-0.4l0.5,0c1.3-0.1,2.8-0.1,4.3-0.2c0.9,0,1.8-0.1,2.8-0.1l2.6,0c0.8,0,1.6,0,2.5-0.1
	c0.6,0,1.2-0.1,1.8-0.1c0.5,0,1,0,1.4,0.1c0.5,0.1,1,0.2,1.6,0.3c0.5-0.2,0.9-0.4,1.4-0.6c-2.1-0.8-3.4-1.4-3.4-1.4
	c-1-0.4-1.7-1.5-1.5-2.7l0.1-0.8c0.2-1.1,1.1-2,2.2-2.1c0.1,0,2-0.2,4.8-0.4l0.5,0c1.3-0.1,2.8-0.1,4.3-0.2c0.9,0,1.9-0.1,2.9-0.1
	l0.4,0c1.3-1.5,2.3-3.2,3-4.9c-0.3,0.1-0.7,0.2-1,0.2c-0.3,0-0.6,0-0.8-0.1l-0.8-0.3c-1-0.4-1.7-1.3-1.7-2.4c0-0.1,0-1.6,0.2-3.9
	l0-0.4c0.1-0.6,0.1-1.3,0.2-2.1c-0.1-0.1-0.1-0.1-0.2-0.2c0-0.1-1.2-1.6-2.7-3.9l-0.2-0.3c-0.7-1.1-1.6-2.4-2.4-3.7
	c-0.4-0.6-0.7-1.2-1.1-1.8c-0.1,0.9-0.6,1.7-1.4,2.1l-0.7,0.3c-0.3,0.2-0.7,0.2-1.1,0.2c-0.7,0-1.4-0.3-1.9-0.9
	c-0.1-0.1-1.3-1.5-3-3.7l-0.3-0.3c-0.8-1-1.7-2.2-2.6-3.5c-0.8-1-1.6-2.2-2.3-3.3c0,0-0.8-1.2-0.9-1.3c0,0-0.8-0.2-0.8-0.3
	c0.7,1.5,1,2.5,1,2.5c0.4,1.1,0.1,2.3-0.9,2.9l-0.6,0.5c-0.4,0.3-1,0.5-1.5,0.5c-0.6,0-1.1-0.2-1.6-0.6c-0.1-0.1-1.5-1.2-3.6-3.1
	l-0.3-0.3c-1-0.9-2.1-1.9-3.2-3c-0.9-0.9-1.9-1.9-2.9-2.8l-1-1c-0.2-0.2-0.4-0.3-0.5-0.5c0,0-0.1,0-0.1,0c0,0.8-0.4,1.5-1,2
	l-0.6,0.5c-0.4,0.3-1,0.5-1.5,0.5c-0.6,0-1.1-0.2-1.6-0.6c-0.1-0.1-1.5-1.2-3.6-3.1l-0.3-0.3c-1-0.9-2.1-1.9-3.3-3
	c-0.5-0.5-1-0.9-1.5-1.4c0,0.2,0.1,0.3,0.1,0.3c0.2,1.1-0.4,2.2-1.4,2.7l-0.7,0.3c-0.3,0.2-0.7,0.2-1.1,0.2c-0.7,0-1.4-0.3-1.9-0.9
	c-0.1-0.1-1.3-1.5-2.9-3.8l-0.2-0.3c-0.8-1.1-1.7-2.3-2.6-3.6c-0.6-0.9-1.3-1.9-1.9-2.8c-0.1,0-0.1,0.1-0.2,0.1l-0.7,0.3
	c-0.3,0.2-0.7,0.2-1.1,0.2c-0.7,0-1.4-0.3-1.9-0.9c-0.1-0.1-1.3-1.5-2.9-3.8l-0.2-0.3c-0.8-1.1-1.7-2.3-2.6-3.6
	c-0.4-0.6-0.9-1.2-1.3-1.9c-0.4,0.5-1.1,0.8-1.7,0.8c0,0-0.9,0-0.9,0c-1.1,0-2.1-0.7-2.4-1.8c0-0.1-0.6-1.9-1.2-4.6l-0.1-0.4
	c-0.3-1.3-0.7-2.7-1-4.3c0,0,0,0,0,0c-0.2,0-0.4,0.1-0.6,0.1c-0.1,0-0.1,0-0.2,0l-0.8-0.1c-1.1-0.1-2.1-0.9-2.3-2
	c0-0.1-0.4-1.9-0.7-4.7l-0.1-0.5c-0.2-1.3-0.3-2.7-0.5-4.3c-0.2-1.3-0.3-2.7-0.3-4l-0.1-1.4c-0.1-0.7-0.1-1.5-0.3-2.3
	c-1,0.7-1.6,1.1-1.6,1.2c-0.4,0.3-0.9,0.5-1.4,0.5c-0.6,0-1.1-0.2-1.6-0.6l-0.6-0.5c-0.9-0.7-1.1-2-0.7-3c0-0.1,0.8-1.8,2.2-4.3
	l0.2-0.4c0.6-1.2,1.3-2.5,2.1-3.9c0.6-1.1,1.3-2.3,2.1-3.5l0.2-0.3c-2.6,0.8-4.4,1.2-4.5,1.2c-0.2,0-0.4,0.1-0.6,0.1
	c-0.9,0-1.8-0.5-2.2-1.3l-0.4-0.7c-0.5-1-0.3-2.2,0.5-3c0.1-0.1,1.5-1.3,3.6-3.1l0.3-0.3c1-0.8,2.2-1.8,3.4-2.8
	c0.9-0.7,1.8-1.4,2.8-2.1c-0.8-0.2-1.2-0.3-1.3-0.3c-1.1-0.2-1.9-1.2-2-2.3l0-0.8c0-1.1,0.7-2.2,1.8-2.5c0.1,0,1.7-0.5,4.1-1.1
	c-0.3-0.4-0.5-0.9-0.5-1.4l0-0.8c0-1.1,0.7-2.2,1.8-2.5c0.1,0,1.4-0.4,3.5-1c-0.1-0.2-0.1-0.5-0.1-0.7l0-0.8c0-1.1,0.7-2.2,1.8-2.5
	c0.1,0,1.9-0.6,4.6-1.3c0,0,1.3-0.3,1.7-0.4c-0.3-0.1-0.4-0.2-0.5-0.2c-1-0.4-1.7-1.5-1.5-2.7l0.1-0.8c0.2-1.1,1.1-2,2.2-2.1
	c0.1,0,2-0.2,4.8-0.4l0.5,0c1.3-0.1,2.8-0.1,4.3-0.2c0.8,0,1.6,0,2.5-0.1c0-0.3-0.1-0.5,0-0.8l0.1-0.8c0.2-1.1,1.1-2,2.2-2.1
	c0.1,0,2-0.2,4.8-0.4l0.5,0c1.3-0.1,2.8-0.1,4.3-0.2c0.9,0,1.8,0,2.8,0l1.4,0c-0.9-0.7-1.2-2-0.6-3.1l0.2-0.4
	c0.4-0.8,1.3-1.4,2.2-1.4c0.2,0,0.4,0,0.6,0.1c0.1,0,1.4,0.4,3.4,1l0.3,0.1c0.9,0.3,2,0.6,3.1,1c0.9,0.3,1.9,0.7,2.9,1l1,0.4
	c0.5,0.2,1,0.3,1.5,0.5c0.8,0.2,1.7,0.5,2.6,0.9c1.6,0.8,2.8,1.9,3.5,2.6c0.1,0.1,0.2,0.2,0.3,0.3c0.2,0,0.4,0,0.6,0
	c0.3,0,0.6,0,1,0c-0.1-0.1-0.1-0.1-0.2-0.2c-3.7-2.8-18-18.8-20.5-22.6c-0.6-0.9-0.6-2.1,0.1-3c0.5-0.6,1.2-0.9,2-0.9
	c0.3,0,0.6,0.1,0.9,0.2c4.8,1.9,20.9,14.9,24.3,17.6c-3.4-4.9-6.1-9.2-6.8-11.6c-0.3-1,0.1-2.1,0.9-2.8c0.4-0.3,0.9-0.5,1.5-0.5
	c0.5,0,1,0.2,1.5,0.5c3.3,2.4,17.7,16.2,20.2,19.3c0.9,1.1,1.7,2.3,2.4,3.4c0.4,0.6,0.8,1.3,1.3,1.9l0,0.1c6.2,1,13.9,7.7,18,11.8
	c1.5,1.4,2.2,3.4,2.1,5.5c-0.1,1.4-0.5,3-0.8,4.3c-0.1,0.5-0.3,1.2-0.4,1.6c0.7,1.3,4.4,4.5,8.6,7.3c0.7-3.6,0.5-6.9-0.5-8.4
	c-1.1-1.7-2.5-3.6-3.9-5.4c-1.1-1.5-2.3-3.1-3.4-4.7c-2.2-3.1-3.7-6.5-5.1-9.7c-1.2-2.6-2.3-5.1-3.7-7.5c-3.7-6-10.1-11.9-16.6-15.3
	c-1.1-0.6-1.6-1.9-1.2-3.1c0.4-1,1.3-1.6,2.4-1.6c0.2,0,0.4,0,0.5,0.1c14.7,3.2,20.7,14,26.6,24.3c1.3,2.3,2.6,4.6,4,6.9
	c1,1.6,2.3,3,3.6,4.5c1.9,2.1,3.9,4.3,5.1,7c1.6,3.5,1.5,12.2,0,17.6c0.6,0.9,1,2.3,0.9,4.1c-0.1,4.5-2.7,9.6-8.2,10.1
	c-0.2,0-0.5,0-0.8,0c-0.9,0-1.9-0.1-2.9-0.4l-1.8,1.7c2.1,1.4,3.5,2.3,3.7,2.4c0.6,0.4,1,1,1.1,1.7c0.1,0.7-0.1,1.4-0.5,1.9
	c-0.5,0.6-5.1,6-10.8,6c-0.4,0-0.8,0-1.2-0.1c-3.4-0.5-6-3.1-8.5-5.6c-2-2-4.1-4.1-6.2-4.8c-1.6-0.5-2.6-0.5-3.8-0.6
	c-3.3-0.2-5.9-0.7-12-5.1c-4.4-3.2-8.2-8.3-11.5-12.8c-2.8-3.7-5.6-7.5-7.7-8.6c-1.2-0.5-2.6-0.7-4.7-0.8c-0.2,0-0.4,0-0.7,0
	c-3.2,0-14.3,1.5-20.1,20.7c0,0,0,0.1,0,0.1c-2.6,13,5.7,22.8,26.1,30.7c0.3-0.9,0.7-1.8,1.1-2.6c0.4-0.9,1.3-1.4,2.3-1.4h0
	c1,0,1.9,0.6,2.3,1.4c1.4,2.9,3,4.9,5.2,6.3c4.8,1.4,9.5,2.7,13.6,3.8l1.9,0.5c1.5,0.3,2.8,0.6,4,0.9c2,0.5,4.9,0.8,7.7,0.8
	c6.5,0,14-1.5,15.2-5.9c0.3-1.4,0.3-3.9,0.3-6.4c0-4.5,0-8.8,1.8-11.2c0.9-1.2,2.6-2.5,5.9-2.5c3.8,0,8.2,1.8,11.5,3
	c0.9,0.4,1.7,0.7,2.2,0.8c0.9,0.3,1.6,1.1,1.7,2c5,0.7,6.4,6.1,7.2,9c0.3,1.1,0.5,1.8,0.5,1.8c0.2,1.1-0.2,2.1-1.1,2.7
	c-0.4,0.2-0.8,0.4-1.3,0.4c-0.6,0-1.2-0.2-1.6-0.6c-1-0.8-1.8-1.8-2.4-2.7c-0.5-0.7-1.4-1.8-1.8-1.9c0,0-0.2,0-0.7,0.4
	c-0.1,0.1-0.3,0.3-0.5,0.4c-0.5,0.3-1.3,0.9-2.3,1.7c0.4,0,0.7,0,1.1,0c2.6,0,4.7,0.6,6.2,1.9c0.1,0.1,0.2,0.2,0.3,0.3
	c1.3,1.7,2,4.5,2.2,8.8c0,0,0,0.2,0,0.3c0.2,1.7,0.3,2.8-0.6,3.8c-0.5,0.5-1.2,0.8-1.9,0.8c-2,0-2.6-1.8-3.3-3.9
	c-1-3.2-1.3-3.2-2.7-3.2c-0.5,0-1.1,0.1-1.8,0.2c-4.6,0.7-9.6,3.9-12.5,6.7c-0.3,0.3-0.7,0.5-1,0.6c-1.1,0.9-2.1,1.8-3.1,2.7
	c-0.9,0.8-1.8,1.7-2.8,2.5c10.2,9.7,16.2,22.3,16.5,35.1c0.7,30.5-28.7,49.2-58.2,54.2C-188.5,618.1-194.2,618.6-199.7,618.6
	 M-129.4,497.9c0.1,0.7,0.1,1.4,0.2,2c0,0,0,0.1,0,0.1c0.8-0.6,1.6-1.3,2.2-1.7c0.1-0.1,0.3-0.2,0.4-0.3
	C-127.5,497.9-128.5,497.9-129.4,497.9 M-160.8,467.7c5.1,1.3,13.1,5.9,19.2,9.7v-1.6c-3.7-2-7.6-4.6-10.6-6.6
	c-1.7-1.1-3.6-2.4-4.2-2.7c-0.3-0.1-0.5-0.2-0.8-0.3c-1.3-0.8-2.8-2.1-4.4-3.5c-0.8-0.7-2-1.8-2.9-2.5c-0.1,0.8-0.1,1.9,0.2,3.1
	C-163.6,465.2-162.5,466.7-160.8,467.7"/>
<path d="M-205.6,403.8c4.3,1.7,20.6,14.7,24.2,17.7c3,2.5,6.1,4.9,9.1,7.3c1.6,1.3,3.2,2.6,4.8,3.9c-0.2-0.3-0.5-0.7-0.7-1
	c-3-4.2-15.1-20-16.6-24.9c3.2,2.3,17.3,15.9,19.8,18.9c1.3,1.6,2.4,3.5,3.6,5.2c0.2,0.3,0.5,0.7,0.7,1l0.1,0
	c5.8,0.3,14.2,7.9,17.6,11.2c0.9,0.9,1.4,2.2,1.3,3.5c-0.2,2.2-1.3,5.4-1.2,6.3c0.1,2.4,7.9,8.3,12.7,11.1c1.5-4.9,2-10.7-0.1-13.8
	c-2.1-3.2-5-6.8-7.3-10.1c-3.7-5.4-5.4-11.6-8.8-17.1c-4-6.5-10.8-12.7-17.6-16.2c16.7,3.6,21.2,17.5,29,30.1c2.5,4,6.7,7,8.6,11.2
	c1.4,3.1,1.2,12.7-0.6,17.3c2.3,0.3,2,10.3-4.7,11c-0.2,0-0.3,0-0.5,0c-1,0-2.3-0.3-3.6-0.8l-3.2,3.1v-4.4
	c-7.2-3.5-15.6-10.2-16.8-10.2c-2.7-1.6-7.4-7.1-9.4-7.1c-0.2,0-0.3,0-0.4,0.1c-1.7,1-2.7,9.5,4,13c8.3,2,27,14.7,27,14.7
	s-4.2,5.1-8.8,5.1c-0.3,0-0.6,0-0.8-0.1c-5-0.7-8.7-8.7-14.3-10.3c-5.7-1.7-6.3,1-15-5.3c-8.1-5.9-14.3-19-19.7-21.7
	c-1.4-0.6-3-0.9-5.6-1c-0.3,0-0.5,0-0.8,0c-16.6,0-22.5,22.7-22.6,22.7c0,0,0,0,0,0c-3.8,18.2,12.3,28.2,30.1,34.6
	c0.4-1.5,1-3.1,1.8-4.8c1.7,3.7,3.9,6,6.4,7.5c5.7,1.7,11.2,3.1,16,4.4c1.3,0.3,2.6,0.6,4,0.9c2,0.5,5.1,0.9,8.4,0.9
	c7.3,0,15.9-1.8,17.6-7.7c1.1-4.4-0.5-13.8,1.8-16.8c0.9-1.1,2.2-1.5,3.9-1.5c4.3,0,10.4,3,13,3.8c-1.8,0.1-3.7,0.1-5.5,0.1
	c-2.4,0-4.8,0-7.1-0.1c0.8,5.4,0.3,8.3,1.6,8.3c0.8,0,2.3-1.1,5.2-3.4c1-0.8,2.1-1.5,3.3-1.9c1.6-0.6,2.9-0.9,3.9-0.9
	c3.4,0,4.8,2.9,5.9,7.3c0.3,1,0.4,1.7,0.4,1.7c-2.3-2-3.6-5.1-5.9-5.1c-0.7,0-1.6,0.3-2.6,1.1c0,0,0,0,0,0s0,0,0,0
	c0,0,0.1-0.1,0.1-0.1s0,0,0,0c-1.1,0.7-8.6,6.3-7.3,7.4c2.9-0.7,5.4-1.1,7.4-1.1c1.9,0,3.4,0.4,4.5,1.3c1.1,1.4,1.5,4.3,1.6,7.4
	c0,0.3,0.3,2.3,0.1,2.3c-0.1,0-0.4-0.6-0.9-2.2c-1-3.1-1.8-5-5.1-5c-0.6,0-1.3,0.1-2.2,0.2c-4.9,0.8-10.4,4.1-13.8,7.4
	c0,0,0-0.1,0-0.2c-3.2,2.5-5.9,5.6-9.1,7.8c10.4,8.9,17.6,21.4,17.9,35.4c0.7,30.5-29.9,47.2-56.1,51.7c-5.5,0.9-11,1.4-16.5,1.4
	c-30.3,0-57.6-14.8-69.9-44.9c-8.1-20-6.2-38.7-6.9-59.5c-0.3-8-4.7-17.5-12.5-20.7c-1.8-0.7-3.4-1-5-1c-2.7,0-5.1,0.9-7.3,2.3
	c-1,1.2-1.8,2.3-2.1,3.1c-1.7,4-7.1,28.9-2.3,40.3c9.3,17.7,18.7,52,1.5,65.7c0,0,2.3-7.2-0.7-13c-1.8,7.6-1.8,7.6-12.5,15.3
	c1.7-6.3,8.7-18.7,4.7-24.7s-6.7-13-4.7-23c1.4-7.2-3-36.6,6.7-56.3c3.4-9.1,9.8-16.8,19.4-16.8c1.9,0,3.9,0.3,6,0.9
	c13.3,4,22.1,19,21.3,32.4l0,0.1c0,0,0,0,0-0.1l0-0.6c1.3,22.2,7,48.3,25.1,63.1c6.1,5.1,13.1,7.9,20.4,9.2c-1-0.8-1.9-1.6-2.8-2.3
	c-2.1-1.8-3.5-3.1-3.5-3.1l0.4-0.7c0,0,1.8,0.5,4.5,1.3c1.3,0.4,2.9,0.9,4.5,1.4c1.7,0.5,3.4,1.2,5.1,1.8c0.9,0.3,1.8,0.6,2.6,0.8
	c0.9,0.2,1.7,0.5,2.5,0.9c0.3,0.2,0.6,0.3,0.8,0.5c3-0.2,6.1-0.6,9.1-1.2c-1.4-0.5-2.7-1-3.8-1.4c-2.6-1-4.3-1.7-4.3-1.7l0.1-0.8
	c0,0,1.9-0.2,4.6-0.4c1.4-0.1,3-0.2,4.7-0.2c0.9,0,1.8,0,2.8,0c0.8,0,1.6,0,2.4,0c0.1,0,0.1,0,0.2,0c0.9,0,1.8-0.1,2.8-0.1
	c0.5,0,1.1-0.1,1.6-0.1c0.4,0,0.7,0,1.1,0.1c0.7,0.1,1.4,0.3,2,0.5c2.5-1,5-2.3,7.2-3.8c-1.5-0.5-2.9-1-4.1-1.5
	c-2.6-1-4.3-1.7-4.3-1.7l0.1-0.8c0,0,1.9-0.2,4.6-0.4c1.4-0.1,3-0.2,4.7-0.2c0.9,0,1.9-0.1,2.8-0.1c0.5,0,1,0,1.6,0
	c2.7-3,4.8-6.6,5.6-11c-0.2-1.5-0.4-3-0.7-4.5c-0.6,1-1.2,1.9-1.8,2.7c-1.3,1.9-2.2,3.1-2.2,3.1l-0.8-0.3c0,0,0-1.5,0.2-3.8
	c0.1-1.1,0.2-2.4,0.4-3.8c0.1-1.4,0.4-2.8,0.6-4.3c0.2-1.2,0.1-2.5,0.3-3.6c-0.9-1.8-2-3.6-3.4-5.4c0.3,1.1,0.5,2.1,0.7,3.2
	c0.4,1.7,0.7,3.3,0.9,4.6c0.5,2.7,0.7,4.6,0.7,4.6l-0.7,0.3c0,0-1.1-1.5-2.7-3.8c-0.8-1.2-1.7-2.5-2.6-4c-0.9-1.4-1.9-3-2.8-4.6
	c-0.5-0.8-1-1.6-1.5-2.3c-0.5-0.7-1-1.5-1.4-2.3c-0.1-0.2-0.1-0.4-0.2-0.6c-0.8-0.3-1.5-0.5-2.3-0.8c0.1,0.3,0.2,0.5,0.2,0.8
	c0.5,1.7,0.9,3.2,1.2,4.6c0.7,2.7,1,4.5,1,4.5l-0.7,0.3c0,0-1.2-1.4-2.9-3.6c-0.8-1.1-1.8-2.4-2.8-3.8c-1-1.4-2-2.9-3.1-4.4
	c-0.2-0.3-0.4-0.6-0.6-0.8c-2.3-0.7-4.6-1.4-6.9-2.1c0.5,1.1,1,2.2,1.5,3.2c1.1,2.5,1.8,4.3,1.8,4.3l-0.6,0.5c0,0-1.5-1.2-3.5-3
	c-1-0.9-2.2-2-3.5-3.2c-1.3-1.2-2.5-2.5-3.8-3.8c-0.3-0.3-0.6-0.6-1-0.9c-2-0.7-3.9-1.5-5.8-2.3c0,0.1,0.1,0.1,0.1,0.2
	c1.1,2.5,1.8,4.3,1.8,4.3l-0.6,0.5c0,0-1.5-1.2-3.5-3c-1-0.9-2.2-2-3.5-3.2c-1-0.9-2.1-2-3.1-3c-1.4-0.8-2.7-1.6-4-2.5
	c0.2,0.8,0.4,1.5,0.5,2.2c0.6,2.7,1,4.6,1,4.6l-0.7,0.3c0,0-1.2-1.4-2.9-3.7c-0.8-1.1-1.8-2.4-2.8-3.8c-1-1.4-2-2.9-3-4.5
	c-0.5-0.8-1.1-1.5-1.6-2.2c-0.6-0.7-1.1-1.4-1.5-2.2c0,0,0-0.1,0-0.1c-0.1-0.1-0.2-0.2-0.2-0.2c0.1,0.4,0.2,0.7,0.3,1.1
	c0.6,2.7,1,4.6,1,4.6l-0.7,0.3c0,0-1.2-1.4-2.9-3.7c-0.8-1.1-1.8-2.4-2.8-3.8c-1-1.4-2-2.9-3-4.5c-0.4-0.6-0.9-1.2-1.3-1.8
	c-0.4,2.5-0.8,4.2-0.8,4.2l-0.8,0c0,0-0.5-1.8-1.2-4.5c-0.3-1.3-0.7-2.9-1.1-4.6c-0.4-1.7-0.7-3.5-1-5.3c-0.1-0.6-0.3-1.2-0.4-1.8
	c-0.1,0.2-0.1,0.5-0.2,0.7c-0.8,2.7-1.4,4.4-1.4,4.4l-0.8-0.1c0,0-0.3-1.8-0.7-4.6c-0.2-1.4-0.4-3-0.6-4.7c-0.2-1.7-0.3-3.5-0.4-5.4
	c-0.1-0.9-0.2-1.8-0.3-2.7c-0.1-0.9-0.3-1.8-0.2-2.6c0-0.7,0.2-1.3,0.3-1.9c-0.7,0.5-1.3,1-1.9,1.5c-2.2,1.7-3.7,2.8-3.7,2.8
	l-0.6-0.5c0,0,0.8-1.7,2.1-4.1c0.7-1.2,1.4-2.6,2.3-4.1c0.8-1.5,1.8-3.1,2.8-4.6c0.5-0.8,0.9-1.6,1.3-2.4c0.2-0.3,0.3-0.6,0.5-0.9
	c0.1-0.4,0.2-0.8,0.4-1.2c-0.3,0.1-0.6,0.2-0.9,0.3c-1.6,0.5-3.2,1-4.5,1.4c-2.7,0.8-4.5,1.2-4.5,1.2l-0.4-0.7c0,0,1.4-1.3,3.5-3
	c1.1-0.9,2.3-1.9,3.7-3c1.3-1.1,2.8-2.1,4.3-3.2c0.7-0.5,1.4-1.1,2.1-1.8c0.2-0.2,0.5-0.4,0.7-0.6c-0.7-0.1-1.4-0.2-2.1-0.3
	c-2.7-0.5-4.6-0.9-4.6-0.9l0-0.8c0,0,1.8-0.5,4.5-1.2c1.4-0.3,2.9-0.7,4.6-1.1c0.6-0.1,1.2-0.3,1.8-0.4c0.3-0.4,0.7-0.8,1.1-1.2
	c-0.7-0.1-1.4-0.2-2-0.3c-2.7-0.5-4.6-0.9-4.6-0.9l0-0.8c0,0,1.8-0.5,4.5-1.2c1.3-0.3,2.9-0.7,4.6-1.1c1-0.2,2-0.4,3-0.6
	c-0.8-0.1-1.6-0.3-2.4-0.4c-2.7-0.5-4.6-0.9-4.6-0.9l0-0.8c0,0,1.8-0.5,4.5-1.2c1.4-0.3,2.9-0.7,4.6-1.1c1.7-0.4,3.5-0.7,5.3-1.1
	c0,0,0.1,0,0.1,0c-1.5-0.5-2.9-1-4.1-1.5c-2.6-1-4.3-1.7-4.3-1.7l0.1-0.8c0,0,1.9-0.2,4.6-0.4c1.4-0.1,3-0.2,4.7-0.2
	c0.9,0,1.8,0,2.8,0c0.8,0,1.6,0,2.4,0c0.1,0,0.1,0,0.2,0c0.9,0,1.8-0.1,2.8-0.1c0.5,0,1.1-0.1,1.6-0.1c0.4,0,0.7,0,1.1,0.1
	c0.6,0.1,1.1,0.2,1.6,0.4c0.2,0,0.3-0.1,0.5-0.1c-1.4-0.5-2.6-0.9-3.7-1.3c-2.6-1-4.3-1.7-4.3-1.7l0.1-0.8c0,0,1.9-0.2,4.6-0.4
	c1.4-0.1,3-0.2,4.7-0.2c0.9,0,1.8-0.1,2.8-0.1c0.8,0,1.6,0,2.4,0c0.1,0,0.1,0,0.2,0c0.9,0,1.8-0.1,2.8-0.1c0.5,0,1.1-0.1,1.6-0.1
	c0.4,0,0.7,0,1.1,0.1c0.3,0,0.6,0.1,0.9,0.2c-0.1-0.1-0.2-0.1-0.3-0.2c-1.1-0.8-2-1.5-2.9-2.1c-1.7-1.3-2.8-2.1-2.8-2.1l0.2-0.4
	c0,0,1.4,0.4,3.3,1c1,0.3,2.2,0.7,3.4,1.1c1.2,0.4,2.5,0.9,3.8,1.4c1.3,0.5,2.7,0.7,3.9,1.3c1.1,0.6,2.1,1.4,2.9,2.1
	c0.3,0.3,0.6,0.7,0.9,1c0.6,0,1.1,0.1,1.7,0.1c2.4,0.1,5.4,0,8.4,0.2c-2-1.6-3.9-3.2-6-4.8C-189.1,423.1-203.2,407.4-205.6,403.8
	 M-148,449.5c0,0,6.3,0-4.4-8.5C-152.4,441-153,446.2-148,449.5 M-132.5,493.5c0.1-0.2,0.1-0.3,0.1-0.3c0,0-0.1,0-0.1,0.1
	C-132.5,493.3-132.5,493.4-132.5,493.5 M-134.5,495.3L-134.5,495.3c0.1,0,0.3,0,0.5,0c0.1,0,0.3,0,0.3,0c-0.1,0-0.1,0-0.2,0
	c-0.1,0-0.3,0-0.4,0C-134.4,495.3-134.5,495.3-134.5,495.3 M-138.2,509.9C-138.2,510-138.2,510-138.2,509.9L-138.2,509.9
	C-138.2,509.9-138.2,510-138.2,509.9C-138.2,510-138.2,509.9-138.2,509.9C-138.2,509.9-138.2,509.9-138.2,509.9
	C-138.2,509.9-138.2,509.9-138.2,509.9 M-205.6,398.8c-1.5,0-2.9,0.7-3.9,1.9c-1.4,1.7-1.5,4.1-0.2,5.9c1.5,2.2,6.8,8.3,11.7,13.7
	c-0.5-0.2-1-0.4-1.5-0.5c-1.1-0.4-2.2-0.7-3.1-1l-0.3-0.1c-2.1-0.6-3.5-1-3.6-1c-0.4-0.1-0.9-0.2-1.3-0.2c-1.8,0-3.6,1-4.4,2.7
	l-0.2,0.4c-0.3,0.6-0.5,1.1-0.5,1.7c-0.3,0-0.7,0-1,0c-1.6,0-3.1,0.1-4.3,0.2l-0.5,0c-2.9,0.2-4.8,0.4-4.9,0.4
	c-2.1,0.2-3.8,1.7-4.3,3.7c-0.1,0-0.2,0-0.3,0c-1.6,0-3.1,0.1-4.3,0.2l-0.5,0c-2.9,0.2-4.8,0.4-4.9,0.4c-2.3,0.2-4.1,2-4.4,4.2
	l-0.1,0.8c-0.1,0.6-0.1,1.2,0,1.8c-1.6,0.4-2.6,0.7-2.7,0.8c-2,0.6-3.4,2.4-3.5,4.5c-1,0.3-1.5,0.4-1.6,0.4c-2.2,0.7-3.6,2.7-3.5,5
	l0,0.3c-1.1,0.3-1.8,0.5-1.8,0.5c-2.2,0.7-3.6,2.7-3.5,5l0,0.8c0,1.1,0.4,2.1,1.1,2.9c-1.1,0.9-2.2,1.7-3.1,2.5l-0.3,0.3
	c-2.2,1.9-3.7,3.2-3.7,3.2c-1.7,1.5-2.1,4-1,6l0.4,0.7c0.9,1.7,2.6,2.6,4.4,2.7c-0.5,0.9-1,1.8-1.4,2.6l-0.2,0.4
	c-1.4,2.6-2.2,4.3-2.2,4.4c-1,2.1-0.4,4.5,1.3,6l0.6,0.5c0.9,0.8,2.1,1.2,3.2,1.2c0.3,0,0.6,0,0.9-0.1c0.1,1.3,0.2,2.7,0.4,4
	c0.2,1.6,0.3,3.1,0.5,4.4l0.1,0.4c0.4,2.9,0.7,4.8,0.7,4.9c0.4,2.1,2.1,3.8,4.3,4.1c0.2,0.9,0.4,1.7,0.6,2.4l0.1,0.4
	c0.7,2.8,1.3,4.7,1.3,4.8c0.6,2.1,2.6,3.6,4.8,3.6c0.1,0,0.1,0,0.2,0l0.8,0c0.3,0,0.6,0,0.8-0.1l0.1,0.1c0.9,1.3,1.8,2.5,2.6,3.5
	l0.3,0.4c1.7,2.3,3,3.8,3,3.9c1,1.2,2.4,1.8,3.8,1.8c0.3,0,0.7,0,1-0.1c0.3,0.4,0.6,0.8,0.9,1.2c0.9,1.3,1.8,2.5,2.6,3.5l0.3,0.4
	c1.7,2.3,3,3.8,3,3.9c1,1.2,2.4,1.8,3.8,1.8c0.7,0,1.4-0.2,2.1-0.5l0.7-0.3c0.5-0.2,0.9-0.5,1.3-0.9c0.7,0.6,1.4,1.3,2,1.8l0.3,0.3
	c2.2,1.9,3.7,3.2,3.7,3.2c0.9,0.7,2,1.1,3.2,1.1c1,0,2.1-0.3,3-1l0.6-0.5c0,0,0,0,0.1,0c0.7,0.8,1.5,1.5,2.3,2.2
	c1.1,1.1,2.2,2.1,3.2,3l0.3,0.3c2.2,1.9,3.7,3.2,3.7,3.2c0.9,0.7,2,1.1,3.2,1.1c1,0,2.1-0.3,3-1l0.6-0.5c0.3-0.2,0.5-0.4,0.7-0.6
	c0.8,1.1,1.6,2.1,2.2,3l0.3,0.3c1.8,2.3,3,3.8,3.1,3.8c1,1.1,2.4,1.8,3.8,1.8c0.7,0,1.5-0.2,2.2-0.5l0.7-0.3c0,0,0,0,0.1,0
	c0.6,0.9,1.2,1.8,1.7,2.5l0.2,0.3c1.1,1.6,2,2.8,2.4,3.5c0,0.4-0.1,0.8-0.1,1.1l0,0.3c-0.2,2.4-0.2,4-0.2,4.1c0,2,1.1,3.8,2.9,4.6
	c-0.1,0.2-0.2,0.3-0.3,0.5c-0.7,0-1.5,0-2.2,0.1c-1.6,0-3.1,0.1-4.4,0.2l-0.4,0c-2.9,0.2-4.8,0.4-4.9,0.4c-2.3,0.2-4.1,2-4.4,4.2
	l-0.1,0.8c-0.1,0.8,0,1.6,0.2,2.3c-0.5,0-1,0.1-1.5,0.1h-0.2l-1.2,0l-1.2,0c-0.8,0-1.9,0-2.9,0.1c-1.6,0-3.1,0.1-4.4,0.2l-0.4,0
	c-2.9,0.2-4.8,0.4-4.9,0.4c-2,0.2-3.6,1.6-4.2,3.4c-0.2-0.1-0.4-0.1-0.6-0.2c-0.4-0.2-0.9-0.3-1.3-0.5c-1.3-0.5-2.6-1-3.9-1.4
	c-1.5-0.5-2.9-1-4.2-1.3l-0.4-0.1c-2.8-0.8-4.7-1.3-4.7-1.3c-0.4-0.1-0.8-0.1-1.2-0.1c-1.8,0-3.5,1-4.4,2.6c-2.5-1.2-4.8-2.8-7-4.5
	c-13.8-11.3-21.6-31.3-23.3-59.4c0.5-16.2-10.2-32.1-24.9-36.5c-2.5-0.8-5.1-1.2-7.5-1.2h0c-10.5,0-19.3,7.2-24,19.8
	c-7.3,15.2-7,34.7-6.8,47.6c0.1,4.2,0.1,8.1-0.2,9.7c-2.6,12.9,1.9,21.4,5.4,26.8c1.5,2.3-1.6,10.3-3.1,14.1
	c-0.9,2.3-1.8,4.6-2.3,6.5c-0.5,2,0.3,4.2,2,5.4c0.9,0.6,1.8,0.9,2.8,0.9c1,0,2.1-0.3,2.9-1c2.3-1.7,4.2-3,5.7-4.2
	c0.4,0.8,0.9,1.4,1.7,2c0.9,0.6,1.9,0.9,2.8,0.9c1.1,0,2.2-0.4,3.1-1.1c9-7.2,12.8-19.5,11-35.8c-1.3-11.6-5.4-25-11.1-35.9
	c-3.8-9.3,0.7-32.2,2.4-36.3c0,0,0.2-0.4,0.9-1.3c1.3-0.8,2.6-1.1,3.9-1.1c1,0,2,0.2,3.1,0.7c5.9,2.4,9.2,10.2,9.4,16.3
	c0.1,4.2,0.2,8.4,0.2,12.4c0.1,16.5,0.2,32,7,48.8c6.2,15.3,16.7,27.8,30.2,36.1c12.7,7.8,28,11.9,44.3,11.9
	c5.7,0,11.5-0.5,17.3-1.5c15.5-2.6,29.8-8.7,40.5-17.1c13.3-10.5,20.2-24.2,19.8-39.7c-0.3-12.7-5.8-25.1-15.3-35
	c0.3-0.3,0.6-0.5,0.9-0.8c0.9-0.8,1.8-1.6,2.6-2.4c0.6-0.2,1.1-0.6,1.5-1c3.1-3,7.7-5.5,11.1-6.1c0.5-0.1,0.9-0.1,1.2-0.1
	c0.1,0.3,0.3,0.8,0.5,1.4c0.7,2.1,1.8,5.7,5.7,5.7c1.4,0,2.8-0.6,3.7-1.7c1.6-1.8,1.4-3.9,1.2-5.7c0-0.1,0-0.2,0-0.2
	c-0.1-2.5-0.4-4.5-0.8-6.1c0.2-0.1,0.3-0.2,0.5-0.2c1.9-1.1,2.8-3.3,2.3-5.4c0-0.1-0.2-0.8-0.5-1.9c-0.7-2.8-2.4-8.9-7.7-10.5
	c-0.6-1-1.6-1.9-2.8-2.3c-0.5-0.2-1.3-0.5-2.1-0.8c-2.8-1.1-6.5-2.5-10-3c0.4-0.8,0.5-1.8,0.4-2.7c-0.1-1-0.6-1.9-1.3-2.7
	c6.9-0.8,10.2-7,10.3-12.5c0-1.8-0.3-3.3-0.8-4.5c1.3-5.7,1.5-14.2-0.3-18.3c-1.4-3.1-3.6-5.5-5.6-7.7c-1.3-1.4-2.5-2.8-3.4-4.1
	c-1.4-2.2-2.7-4.5-3.9-6.8c-6.1-10.9-12.4-22.1-28.2-25.6c-0.4-0.1-0.7-0.1-1.1-0.1c-2.1,0-4,1.3-4.7,3.3c-0.9,2.4,0.2,5,2.4,6.1
	c6.1,3.2,12.2,8.8,15.7,14.4c1.4,2.2,2.4,4.6,3.6,7.2c0,0.1,0.1,0.2,0.1,0.2c-3.5-2.7-7.4-5-10.9-5.8c-0.2-0.3-0.5-0.7-0.7-1.1
	c-0.8-1.2-1.6-2.4-2.6-3.6c-2.7-3.3-17.2-17.2-20.7-19.8c-0.9-0.6-1.9-0.9-2.9-0.9c-1,0-2.1,0.3-2.9,0.9c-1.7,1.3-2.5,3.5-1.9,5.5
	c0.1,0.2,0.1,0.4,0.2,0.6c-5.5-4.2-11.5-8.5-14.3-9.6C-204.4,398.9-205,398.8-205.6,398.8 M-137.8,451.9c0-0.1,0.1-0.3,0.1-0.4
	c0.2-0.7,0.4-1.5,0.5-2.4c1,1.3,1.9,2.6,2.7,3.7c0.3,0.4,0.5,1.2,0.5,2.4C-135.7,453.9-137.1,452.7-137.8,451.9 M-217.5,475.3
	L-217.5,475.3c1-3.2,6.3-19,17.7-19c0.2,0,0.4,0,0.6,0c2.2,0.1,3.2,0.3,3.8,0.6c1.6,0.9,4.4,4.7,6.7,7.8c3.4,4.6,7.4,9.9,12.1,13.3
	c6.5,4.8,9.6,5.3,13.3,5.6c1.1,0.1,2,0.1,3.3,0.5c1.5,0.5,3.4,2.3,5.1,4.1c2.7,2.7,5.7,5.8,10,6.4c0.5,0.1,1,0.1,1.5,0.1
	c0.4,0,0.9,0,1.3-0.1c-0.5,2.4-0.5,5.2-0.5,8.1c0,2.1,0,4.6-0.3,5.8c-0.7,2.3-6.1,4-12.7,4c-3.2,0-5.8-0.4-7.1-0.7
	c-1.3-0.3-2.6-0.6-4.1-1l-1.9-0.5c-4-1.1-8.6-2.3-13.2-3.6c-1.6-1.1-2.9-2.7-4-5.1c-0.8-1.8-2.6-2.9-4.5-2.9h0
	c-1.9,0-3.7,1.1-4.5,2.9c-0.1,0.2-0.1,0.3-0.2,0.5C-217.9,492.8-219,482.5-217.5,475.3"/>
<path style="fill:#FFFFFF;" d="M-112.3,504.7C-112,505.7-112.4,504.1-112.3,504.7"/>
<path d="M-112.3,504.5c0,0,0.1,0.5,0.1,0.5C-112.2,505-112.3,504.5-112.3,504.5 M-112.2,505L-112.2,505"/>
<g>
	<g>
		<g>
			<defs>
				<polygon id="SVGID_1_" points="-139,478.7 -132.7,472.7 -139,469.4 				"/>
			</defs>
			<clipPath id="SVGID_2_">
				<use xlink:href="#SVGID_1_"  style="overflow:visible;"/>
			</clipPath>
			
				<linearGradient id="SVGID_3_" gradientUnits="userSpaceOnUse" x1="-3826.1833" y1="2331.5002" x2="-3825.1833" y2="2331.5002" gradientTransform="matrix(6.3333 0 0 -6.3333 24093.4316 15240.1377)">
				<stop  offset="0" style="stop-color:#FFCB05"/>
				<stop  offset="0.3156" style="stop-color:#FFCB05"/>
				<stop  offset="0.8667" style="stop-color:#FAA41A"/>
				<stop  offset="1" style="stop-color:#FAA41A"/>
			</linearGradient>
			<rect x="-139" y="469.4" style="clip-path:url(#SVGID_2_);fill:url(#SVGID_3_);" width="6.3" height="9.3"/>
		</g>
	</g>
</g>
<g>
	<g>
		<g>
			<defs>
				<path id="SVGID_4_" d="M-317.4,556c-2,10,0.7,17,4.7,23c4,6-3,18.3-4.7,24.7c10.7-7.8,10.7-7.8,12.5-15.3c3,5.8,0.7,13,0.7,13
					c17.2-13.7,7.8-48-1.5-65.7c-4.8-11.4,0.7-36.3,2.3-40.3c1.7-4,11.7-12.3,11.7-12.3C-324.7,493-315.4,546-317.4,556"/>
			</defs>
			<clipPath id="SVGID_5_">
				<use xlink:href="#SVGID_4_"  style="overflow:visible;"/>
			</clipPath>
			
				<linearGradient id="SVGID_6_" gradientUnits="userSpaceOnUse" x1="-3732.9866" y1="2579.9038" x2="-3731.9863" y2="2579.9038" gradientTransform="matrix(26.3513 0 0 -26.3513 98050.8594 68527.1953)">
				<stop  offset="0" style="stop-color:#FFCB05"/>
				<stop  offset="0.3156" style="stop-color:#FFCB05"/>
				<stop  offset="0.8667" style="stop-color:#FAA41A"/>
				<stop  offset="1" style="stop-color:#FAA41A"/>
			</linearGradient>
			<rect x="-324.7" y="483" style="clip-path:url(#SVGID_5_);fill:url(#SVGID_6_);" width="37.7" height="120.7"/>
		</g>
	</g>
</g>
<g>
	<g>
		<g>
			<defs>
				<path id="SVGID_7_" d="M-112.3,504.7c0,0,0,0.1,0,0.1c0.1,0.4,0.1,0.2,0,0c0-0.1-0.1-0.2-0.1-0.2
					C-112.3,504.6-112.3,504.6-112.3,504.7 M-136.4,493.1c-2.3,3-0.7,12.5-1.8,16.9c0,0,0,0,0,0c0,0,0,0,0-0.1
					c-2.4,8.6-19.5,8.5-26,6.8c-13-3.4-21.2-1.9-26.4-12.9c-7.4,16,2,21.4,19.4,27c7.1,2.3,16.2,1.2,23.1-1.5
					c4.8-1.9,7.9-6.2,12.1-9.4c0,0.1,0,0.2,0,0.2c3.4-3.3,8.9-6.6,13.8-7.4c5.2-0.8,6.1,1,7.3,4.8c1.5,4.8,0.9,0.4,0.8-0.1
					c-0.1-3.1-0.6-6-1.6-7.4c-2.2-1.9-6.3-1.5-11.9-0.2c-1.3-1.1,6.2-6.7,7.3-7.4c0.1,0,0,0,0,0c0,0-0.1,0-0.1,0
					c4.2-3.3,5.4,1.4,8.4,4c0,0-0.1-0.6-0.4-1.5c0,0,0-0.1,0-0.1c0-0.1,0-0.1,0-0.1c-1.5-5.7-3.4-8.8-9.9-6.3
					c-1.2,0.5-2.3,1.1-3.3,1.9c-7.5,6-5.5,3.9-6.8-4.9c4.2,0.1,8.4,0.2,12.7,0c-2.5-0.8-8.6-3.8-13-3.8
					C-134.2,491.6-135.6,492-136.4,493.1"/>
			</defs>
			<clipPath id="SVGID_8_">
				<use xlink:href="#SVGID_7_"  style="overflow:visible;"/>
			</clipPath>
			
				<linearGradient id="SVGID_9_" gradientUnits="userSpaceOnUse" x1="-3713.0723" y1="2632.9795" x2="-3712.0723" y2="2632.9795" gradientTransform="matrix(81.1729 0 0 -81.1729 301207.7188 214238.875)">
				<stop  offset="0" style="stop-color:#FFCB05"/>
				<stop  offset="0.3156" style="stop-color:#FFCB05"/>
				<stop  offset="0.8667" style="stop-color:#FAA41A"/>
				<stop  offset="1" style="stop-color:#FAA41A"/>
			</linearGradient>
			<rect x="-197.9" y="491.6" style="clip-path:url(#SVGID_8_);fill:url(#SVGID_9_);" width="86" height="41.5"/>
		</g>
	</g>
</g>
<g>
	<g>
		<g>
			<defs>
				<path id="SVGID_10_" d="M-208.1,422.9c0,0,1.1,0.9,2.8,2.1c0.8,0.6,1.8,1.4,2.9,2.1c1,0.8,2.2,1.5,3.3,2.3
					c1.2,0.8,2.2,1.8,3.3,2.4c1.1,0.6,2.3,0.9,3.4,1.1c0.5,0.1,1,0.1,1.5,0.2c0.5,0,0.9,0,1.2,0c0.7,0,1.1-0.1,1.1-0.1l0.2-0.4
					c0,0-0.2-0.4-0.5-1c-0.2-0.3-0.4-0.6-0.7-1c-0.3-0.4-0.6-0.7-1-1.1c-0.8-0.8-1.7-1.6-2.9-2.1c-1.2-0.6-2.6-0.8-3.9-1.3
					c-1.3-0.5-2.6-1-3.8-1.4c-1.2-0.4-2.4-0.8-3.4-1.1c-2-0.6-3.3-1-3.3-1L-208.1,422.9z"/>
			</defs>
			<clipPath id="SVGID_11_">
				<use xlink:href="#SVGID_10_"  style="overflow:visible;"/>
			</clipPath>
			
				<linearGradient id="SVGID_12_" gradientUnits="userSpaceOnUse" x1="-3742.866" y1="2553.5728" x2="-3741.8657" y2="2553.5728" gradientTransform="matrix(19.7382 0 0 -19.7382 73669.3125 50830.7188)">
				<stop  offset="0" style="stop-color:#FFCB05"/>
				<stop  offset="0.3156" style="stop-color:#FFCB05"/>
				<stop  offset="0.8667" style="stop-color:#FAA41A"/>
				<stop  offset="1" style="stop-color:#FAA41A"/>
			</linearGradient>
			<rect x="-208.1" y="422.5" style="clip-path:url(#SVGID_11_);fill:url(#SVGID_12_);" width="19.7" height="10.6"/>
		</g>
	</g>
</g>
<g>
	<g>
		<g>
			<defs>
				<path id="SVGID_13_" d="M-205.7,427.2c-0.9,0.1-1.8,0.1-2.8,0.1c-0.5,0-1,0-1.4,0c-1.3,0-2.7,0-4,0c-1.7,0-3.3,0.1-4.7,0.2
					c-2.8,0.2-4.6,0.4-4.6,0.4l-0.1,0.8c0,0,1.7,0.7,4.3,1.7c1.3,0.5,2.8,1,4.5,1.6c1.6,0.6,3.4,1.1,5.1,1.6c0.9,0.3,1.7,0.6,2.6,1
					c0.9,0.3,1.7,0.7,2.5,0.8c0.8,0.1,1.7,0.2,2.5,0.1c0.8-0.1,1.6-0.2,2.3-0.3c0.7-0.2,1.4-0.4,2-0.6c0.6-0.2,1.1-0.5,1.6-0.7
					c0.4-0.2,0.8-0.4,1-0.6c0.2-0.2,0.4-0.3,0.4-0.3l0.1-0.8c0,0-0.1-0.1-0.3-0.3c-0.2-0.2-0.5-0.5-0.8-0.9
					c-0.4-0.3-0.8-0.7-1.3-1.1c-0.5-0.4-1.1-0.8-1.7-1.1c-0.6-0.4-1.3-0.7-2.1-1c-0.7-0.3-1.5-0.5-2.4-0.6c-0.4,0-0.7-0.1-1.1-0.1
					C-204.7,427.1-205.2,427.2-205.7,427.2"/>
			</defs>
			<clipPath id="SVGID_14_">
				<use xlink:href="#SVGID_13_"  style="overflow:visible;"/>
			</clipPath>
			
				<linearGradient id="SVGID_15_" gradientUnits="userSpaceOnUse" x1="-3730.4675" y1="2586.6211" x2="-3729.4675" y2="2586.6211" gradientTransform="matrix(28.812 0 0 -28.812 107259 74957.1016)">
				<stop  offset="0" style="stop-color:#FFCB05"/>
				<stop  offset="0.3156" style="stop-color:#FFCB05"/>
				<stop  offset="0.8667" style="stop-color:#FAA41A"/>
				<stop  offset="1" style="stop-color:#FAA41A"/>
			</linearGradient>
			<rect x="-223.4" y="427.1" style="clip-path:url(#SVGID_14_);fill:url(#SVGID_15_);" width="28.8" height="8.5"/>
		</g>
	</g>
</g>
<g>
	<g>
		<g>
			<defs>
				<path id="SVGID_16_" d="M-220.1,431.6c-0.9,0.1-1.8,0.1-2.8,0.1c-0.5,0-1,0-1.4,0c-1.4,0-2.7,0-4,0c-1.7,0-3.3,0.1-4.7,0.2
					c-2.8,0.2-4.6,0.4-4.6,0.4l-0.1,0.8c0,0,1.7,0.7,4.3,1.7c1.3,0.5,2.8,1,4.5,1.6c1.6,0.6,3.4,1.1,5.1,1.6c0.9,0.3,1.7,0.6,2.6,1
					c0.9,0.3,1.7,0.7,2.5,0.8c0.8,0.1,1.7,0.2,2.5,0.1c0.8-0.1,1.6-0.2,2.3-0.3c0.7-0.2,1.4-0.4,2-0.6c0.6-0.2,1.1-0.5,1.6-0.7
					c0.4-0.2,0.8-0.4,1-0.6c0.2-0.2,0.4-0.2,0.4-0.2l0.1-0.8c0,0-0.1-0.1-0.3-0.3c-0.2-0.2-0.5-0.5-0.8-0.9
					c-0.4-0.3-0.8-0.7-1.3-1.1c-0.5-0.4-1.1-0.8-1.7-1.1c-0.6-0.4-1.3-0.7-2.1-1c-0.7-0.3-1.5-0.5-2.4-0.6c-0.3,0-0.7-0.1-1.1-0.1
					C-219,431.5-219.5,431.5-220.1,431.6"/>
			</defs>
			<clipPath id="SVGID_17_">
				<use xlink:href="#SVGID_16_"  style="overflow:visible;"/>
			</clipPath>
			
				<linearGradient id="SVGID_18_" gradientUnits="userSpaceOnUse" x1="-3730.4675" y1="2586.6172" x2="-3729.4675" y2="2586.6172" gradientTransform="matrix(28.8121 0 0 -28.8121 107244.8203 74961.5859)">
				<stop  offset="0" style="stop-color:#FFCB05"/>
				<stop  offset="0.3156" style="stop-color:#FFCB05"/>
				<stop  offset="0.8667" style="stop-color:#FAA41A"/>
				<stop  offset="1" style="stop-color:#FAA41A"/>
			</linearGradient>
			<rect x="-237.7" y="431.5" style="clip-path:url(#SVGID_17_);fill:url(#SVGID_18_);" width="28.8" height="8.5"/>
		</g>
	</g>
</g>
<g>
	<g>
		<g>
			<defs>
				<path id="SVGID_19_" d="M-164.5,574.9c-0.9,0.1-1.8,0.1-2.8,0.1c-0.5,0-1,0-1.4,0c-1.4,0-2.7,0-4,0c-1.7,0-3.3,0.1-4.7,0.2
					c-2.8,0.2-4.6,0.4-4.6,0.4l-0.1,0.8c0,0,1.7,0.7,4.3,1.7c1.3,0.5,2.8,1,4.5,1.6c1.6,0.6,3.4,1.1,5.1,1.6c0.9,0.3,1.7,0.6,2.6,1
					c0.9,0.3,1.7,0.7,2.5,0.8c0.8,0.1,1.7,0.2,2.5,0.1c0.8-0.1,1.6-0.2,2.3-0.3c0.7-0.2,1.4-0.4,2-0.6c0.6-0.2,1.1-0.5,1.6-0.7
					c0.4-0.2,0.8-0.4,1-0.6c0.2-0.2,0.4-0.3,0.4-0.3l0.1-0.8c0,0-0.1-0.1-0.3-0.3c-0.2-0.2-0.4-0.5-0.8-0.9
					c-0.4-0.3-0.8-0.7-1.3-1.1c-0.5-0.4-1.1-0.8-1.7-1.1c-0.6-0.4-1.3-0.7-2.1-1c-0.7-0.3-1.5-0.5-2.4-0.6c-0.3,0-0.7-0.1-1.1-0.1
					C-163.5,574.8-164,574.9-164.5,574.9"/>
			</defs>
			<clipPath id="SVGID_20_">
				<use xlink:href="#SVGID_19_"  style="overflow:visible;"/>
			</clipPath>
			
				<linearGradient id="SVGID_21_" gradientUnits="userSpaceOnUse" x1="-3730.468" y1="2586.6206" x2="-3729.468" y2="2586.6206" gradientTransform="matrix(28.812 0 0 -28.812 107300.2031 75104.7578)">
				<stop  offset="0" style="stop-color:#FFCB05"/>
				<stop  offset="0.3156" style="stop-color:#FFCB05"/>
				<stop  offset="0.8667" style="stop-color:#FAA41A"/>
				<stop  offset="1" style="stop-color:#FAA41A"/>
			</linearGradient>
			<rect x="-182.2" y="574.8" style="clip-path:url(#SVGID_20_);fill:url(#SVGID_21_);" width="28.8" height="8.5"/>
		</g>
	</g>
</g>
<g>
	<g>
		<g>
			<defs>
				<path id="SVGID_22_" d="M-185.6,582.9c-0.9,0.1-1.8,0.1-2.8,0.1c-0.5,0-1,0-1.4,0c-1.3,0-2.7,0-4,0c-1.7,0-3.3,0.1-4.7,0.2
					c-2.8,0.2-4.6,0.4-4.6,0.4l-0.1,0.8c0,0,1.7,0.7,4.3,1.7c1.3,0.5,2.8,1,4.5,1.6c1.6,0.6,3.4,1.1,5.1,1.6
					c0.9,0.3,1.7,0.6,2.6,0.9c0.9,0.3,1.7,0.7,2.5,0.8c0.8,0.1,1.7,0.2,2.5,0.1c0.8-0.1,1.6-0.2,2.3-0.3c0.7-0.2,1.4-0.4,2-0.6
					c0.6-0.2,1.1-0.5,1.5-0.7c0.4-0.2,0.8-0.4,1-0.6c0.2-0.2,0.4-0.3,0.4-0.3l0.1-0.8c0,0-0.1-0.1-0.3-0.3c-0.2-0.2-0.4-0.5-0.8-0.9
					c-0.4-0.3-0.8-0.7-1.3-1.1c-0.5-0.4-1.1-0.8-1.7-1.1c-0.6-0.4-1.3-0.7-2.1-1c-0.7-0.3-1.5-0.5-2.4-0.6c-0.4,0-0.7-0.1-1.1-0.1
					C-184.6,582.8-185.1,582.9-185.6,582.9"/>
			</defs>
			<clipPath id="SVGID_23_">
				<use xlink:href="#SVGID_22_"  style="overflow:visible;"/>
			</clipPath>
			
				<linearGradient id="SVGID_24_" gradientUnits="userSpaceOnUse" x1="-3730.4675" y1="2586.6165" x2="-3729.4675" y2="2586.6165" gradientTransform="matrix(28.8121 0 0 -28.8121 107279.2422 75112.8984)">
				<stop  offset="0" style="stop-color:#FFCB05"/>
				<stop  offset="0.3156" style="stop-color:#FFCB05"/>
				<stop  offset="0.8667" style="stop-color:#FAA41A"/>
				<stop  offset="1" style="stop-color:#FAA41A"/>
			</linearGradient>
			<rect x="-203.3" y="582.8" style="clip-path:url(#SVGID_23_);fill:url(#SVGID_24_);" width="28.8" height="8.5"/>
		</g>
	</g>
</g>
<g>
	<g>
		<g>
			<defs>
				<path id="SVGID_25_" d="M-224.7,582.7c0,0,1.4,1.3,3.5,3.1c1.1,0.9,2.3,1.9,3.6,3c1.3,1.1,2.8,2.2,4.3,3.3
					c0.7,0.6,1.4,1.2,2.1,1.8c0.7,0.6,1.4,1.2,2.1,1.6c0.7,0.4,1.5,0.7,2.3,0.9c0.8,0.2,1.5,0.4,2.3,0.5c0.7,0.1,1.4,0.1,2,0.1
					c0.6,0,1.2-0.1,1.7-0.1c0.5-0.1,0.9-0.1,1.2-0.2c0.3-0.1,0.4-0.1,0.4-0.1l0.4-0.7c0,0,0-0.1-0.1-0.4c-0.1-0.3-0.2-0.6-0.5-1.1
					c-0.2-0.4-0.5-1-0.8-1.5c-0.3-0.5-0.7-1.1-1.2-1.7c-0.5-0.6-1-1.1-1.6-1.6c-0.6-0.5-1.3-1-2-1.4c-0.8-0.4-1.6-0.7-2.5-0.9
					c-0.9-0.2-1.8-0.5-2.6-0.8c-1.7-0.6-3.4-1.3-5.1-1.8c-1.6-0.6-3.2-1-4.5-1.4c-2.7-0.8-4.5-1.3-4.5-1.3L-224.7,582.7z"/>
			</defs>
			<clipPath id="SVGID_26_">
				<use xlink:href="#SVGID_25_"  style="overflow:visible;"/>
			</clipPath>
			
				<linearGradient id="SVGID_27_" gradientUnits="userSpaceOnUse" x1="-3733.5615" y1="2578.3691" x2="-3732.5615" y2="2578.3691" gradientTransform="matrix(25.8469 0 0 -25.8469 96276.1797 67232.3984)">
				<stop  offset="0" style="stop-color:#FFCB05"/>
				<stop  offset="0.3156" style="stop-color:#FFCB05"/>
				<stop  offset="0.8667" style="stop-color:#FAA41A"/>
				<stop  offset="1" style="stop-color:#FAA41A"/>
			</linearGradient>
			<rect x="-224.7" y="582" style="clip-path:url(#SVGID_26_);fill:url(#SVGID_27_);" width="25.8" height="15"/>
		</g>
	</g>
</g>
<g>
	<g>
		<g>
			<defs>
				<path id="SVGID_28_" d="M-224.1,435.1c-0.8,0-1.7,0.3-2.6,0.5c-0.9,0.3-1.8,0.5-2.7,0.7c-1.8,0.3-3.6,0.7-5.3,1.1
					c-1.7,0.4-3.3,0.8-4.6,1.1c-2.7,0.7-4.5,1.2-4.5,1.2l0,0.8c0,0,1.8,0.4,4.6,0.9c1.4,0.2,3,0.5,4.7,0.7c1.7,0.3,3.5,0.4,5.4,0.6
					c0.9,0.1,1.8,0.3,2.7,0.5c0.9,0.2,1.8,0.3,2.6,0.3c0.9,0,1.7-0.2,2.4-0.4c0.8-0.2,1.5-0.5,2.2-0.8c0.7-0.3,1.3-0.6,1.8-0.9
					c0.5-0.3,1-0.7,1.4-1c0.4-0.3,0.7-0.6,0.9-0.8c0.2-0.2,0.3-0.3,0.3-0.3l0-0.8c0,0-0.1-0.1-0.3-0.3c-0.2-0.2-0.5-0.4-0.9-0.7
					c-0.4-0.3-0.9-0.6-1.5-0.9c-0.6-0.3-1.2-0.6-1.9-0.8c-0.7-0.2-1.4-0.4-2.2-0.6c-0.6-0.1-1.3-0.2-1.9-0.2
					C-223.8,435.1-224,435.1-224.1,435.1"/>
			</defs>
			<clipPath id="SVGID_29_">
				<use xlink:href="#SVGID_28_"  style="overflow:visible;"/>
			</clipPath>
			
				<linearGradient id="SVGID_30_" gradientUnits="userSpaceOnUse" x1="-3730.2683" y1="2587.1509" x2="-3729.2683" y2="2587.1509" gradientTransform="matrix(29.0279 0 0 -29.0279 108037.9063 75538.8516)">
				<stop  offset="0" style="stop-color:#FFCB05"/>
				<stop  offset="0.3156" style="stop-color:#FFCB05"/>
				<stop  offset="0.8667" style="stop-color:#FAA41A"/>
				<stop  offset="1" style="stop-color:#FAA41A"/>
			</linearGradient>
			<rect x="-243.8" y="435.1" style="clip-path:url(#SVGID_29_);fill:url(#SVGID_30_);" width="29" height="8.4"/>
		</g>
	</g>
</g>
<g>
	<g>
		<g>
			<defs>
				<path id="SVGID_31_" d="M-229.2,440.1c-0.8,0-1.7,0.3-2.6,0.5c-0.9,0.3-1.8,0.5-2.7,0.7c-1.8,0.3-3.6,0.7-5.3,1.1
					c-1.7,0.4-3.3,0.8-4.6,1.1c-2.7,0.7-4.5,1.2-4.5,1.2l0,0.8c0,0,1.8,0.4,4.6,0.9c1.4,0.2,3,0.5,4.7,0.7c1.7,0.3,3.5,0.4,5.4,0.6
					c0.9,0.1,1.8,0.3,2.7,0.4c0.9,0.2,1.8,0.3,2.6,0.3c0.9,0,1.7-0.2,2.4-0.4c0.8-0.2,1.5-0.5,2.2-0.8c0.7-0.3,1.3-0.6,1.8-0.9
					c0.5-0.3,1-0.7,1.4-1c0.4-0.3,0.7-0.6,0.9-0.8c0.2-0.2,0.3-0.3,0.3-0.3l0-0.8c0,0-0.1-0.1-0.3-0.3c-0.2-0.2-0.5-0.4-0.9-0.7
					c-0.4-0.3-0.9-0.6-1.5-0.9c-0.6-0.3-1.2-0.6-1.9-0.8c-0.7-0.2-1.4-0.4-2.2-0.6c-0.6-0.1-1.3-0.2-1.9-0.2
					C-228.9,440.1-229.1,440.1-229.2,440.1"/>
			</defs>
			<clipPath id="SVGID_32_">
				<use xlink:href="#SVGID_31_"  style="overflow:visible;"/>
			</clipPath>
			
				<linearGradient id="SVGID_33_" gradientUnits="userSpaceOnUse" x1="-3730.2678" y1="2587.1506" x2="-3729.2678" y2="2587.1506" gradientTransform="matrix(29.0279 0 0 -29.0279 108032.7969 75543.8203)">
				<stop  offset="0" style="stop-color:#FFCB05"/>
				<stop  offset="0.3156" style="stop-color:#FFCB05"/>
				<stop  offset="0.8667" style="stop-color:#FAA41A"/>
				<stop  offset="1" style="stop-color:#FAA41A"/>
			</linearGradient>
			<rect x="-248.9" y="440.1" style="clip-path:url(#SVGID_32_);fill:url(#SVGID_33_);" width="29" height="8.4"/>
		</g>
	</g>
</g>
<g>
	<g>
		<g>
			<defs>
				<path id="SVGID_34_" d="M-234.6,445.9c-0.8,0-1.7,0.3-2.6,0.5c-0.9,0.3-1.8,0.5-2.7,0.7c-1.8,0.3-3.6,0.7-5.3,1.1
					c-1.7,0.4-3.3,0.8-4.6,1.1c-2.7,0.7-4.5,1.2-4.5,1.2l0,0.8c0,0,1.8,0.4,4.6,0.9c1.4,0.2,3,0.5,4.7,0.7c1.7,0.3,3.5,0.4,5.4,0.6
					c0.9,0.1,1.8,0.3,2.7,0.4c0.9,0.2,1.8,0.3,2.6,0.3c0.8,0,1.7-0.2,2.4-0.4c0.8-0.2,1.5-0.5,2.2-0.8c0.7-0.3,1.3-0.6,1.8-0.9
					c0.5-0.3,1-0.7,1.4-1c0.4-0.3,0.7-0.6,0.9-0.8c0.2-0.2,0.3-0.3,0.3-0.3l0-0.8c0,0-0.1-0.1-0.3-0.3c-0.2-0.2-0.5-0.4-0.9-0.7
					c-0.4-0.3-0.9-0.6-1.5-0.9c-0.6-0.3-1.2-0.6-1.9-0.8c-0.7-0.2-1.4-0.4-2.2-0.6c-0.6-0.1-1.3-0.2-1.9-0.2
					C-234.2,445.9-234.4,445.9-234.6,445.9"/>
			</defs>
			<clipPath id="SVGID_35_">
				<use xlink:href="#SVGID_34_"  style="overflow:visible;"/>
			</clipPath>
			
				<linearGradient id="SVGID_36_" gradientUnits="userSpaceOnUse" x1="-3730.2683" y1="2587.1528" x2="-3729.2683" y2="2587.1528" gradientTransform="matrix(29.0279 0 0 -29.0279 108027.5469 75549.7109)">
				<stop  offset="0" style="stop-color:#FFCB05"/>
				<stop  offset="0.3156" style="stop-color:#FFCB05"/>
				<stop  offset="0.8667" style="stop-color:#FAA41A"/>
				<stop  offset="1" style="stop-color:#FAA41A"/>
			</linearGradient>
			<rect x="-254.3" y="445.9" style="clip-path:url(#SVGID_35_);fill:url(#SVGID_36_);" width="29" height="8.4"/>
		</g>
	</g>
</g>
<g>
	<g>
		<g>
			<defs>
				<path id="SVGID_37_" d="M-241.6,450.1c-0.7,0.1-1.5,0.2-2.3,0.4c-0.8,0.2-1.6,0.5-2.3,0.9c-0.7,0.4-1.4,1-2.1,1.6
					c-0.7,0.6-1.4,1.2-2.1,1.8c-1.5,1.1-3,2.1-4.3,3.2c-1.4,1.1-2.6,2.1-3.7,3c-2.1,1.8-3.5,3-3.5,3l0.4,0.7c0,0,1.8-0.4,4.5-1.2
					c1.3-0.4,2.9-0.8,4.5-1.4c1.7-0.5,3.4-1.1,5.1-1.7c0.9-0.3,1.8-0.6,2.7-0.8c0.9-0.2,1.8-0.5,2.5-0.9c0.8-0.4,1.4-0.9,2-1.4
					c0.6-0.5,1.2-1.1,1.6-1.6c0.5-0.5,0.9-1.1,1.2-1.6c0.4-0.5,0.6-1,0.8-1.5c0.2-0.4,0.4-0.8,0.5-1.1c0.1-0.3,0.1-0.4,0.1-0.4
					l-0.4-0.7c0,0-0.2,0-0.4-0.1c-0.3-0.1-0.7-0.2-1.2-0.2c-0.5-0.1-1.1-0.1-1.7-0.1c-0.1,0-0.2,0-0.3,0
					C-240.4,450-241,450.1-241.6,450.1"/>
			</defs>
			<clipPath id="SVGID_38_">
				<use xlink:href="#SVGID_37_"  style="overflow:visible;"/>
			</clipPath>
			
				<linearGradient id="SVGID_39_" gradientUnits="userSpaceOnUse" x1="-3733.3438" y1="2578.959" x2="-3732.3438" y2="2578.959" gradientTransform="matrix(26.0363 0 0 -26.0363 96940.6641 67603.9453)">
				<stop  offset="0" style="stop-color:#FFCB05"/>
				<stop  offset="0.3156" style="stop-color:#FFCB05"/>
				<stop  offset="0.8667" style="stop-color:#FAA41A"/>
				<stop  offset="1" style="stop-color:#FAA41A"/>
			</linearGradient>
			<rect x="-261.9" y="450" style="clip-path:url(#SVGID_38_);fill:url(#SVGID_39_);" width="26" height="14.7"/>
		</g>
	</g>
</g>
<g>
	<g>
		<g>
			<defs>
				<path id="SVGID_40_" d="M-242.8,457.1c-0.3,0-0.7,0.1-1.2,0.2c-0.5,0.1-1,0.3-1.6,0.5c-0.6,0.2-1.2,0.5-1.9,0.9
					c-0.6,0.3-1.3,0.8-1.9,1.3c-0.6,0.5-1.3,1-1.8,1.7c-0.5,0.7-1,1.5-1.4,2.3c-0.4,0.8-0.8,1.6-1.3,2.4c-1,1.6-1.9,3.1-2.8,4.6
					c-0.9,1.5-1.6,2.9-2.3,4.1c-1.3,2.5-2.1,4.1-2.1,4.1l0.6,0.5c0,0,1.5-1.1,3.7-2.8c1.1-0.9,2.4-1.9,3.7-3
					c1.4-1.1,2.7-2.3,4.1-3.5c0.7-0.6,1.4-1.2,2.2-1.7c0.7-0.5,1.4-1.1,2-1.7c0.6-0.6,1-1.3,1.4-2.1c0.4-0.7,0.7-1.4,0.9-2.1
					c0.2-0.7,0.4-1.4,0.5-2c0.1-0.6,0.2-1.2,0.2-1.7c0-0.5,0-0.9,0-1.2c0-0.3,0-0.4,0-0.4l-0.6-0.5
					C-242.3,457.1-242.5,457.1-242.8,457.1"/>
			</defs>
			<clipPath id="SVGID_41_">
				<use xlink:href="#SVGID_40_"  style="overflow:visible;"/>
			</clipPath>
			
				<linearGradient id="SVGID_42_" gradientUnits="userSpaceOnUse" x1="-3743.8049" y1="2551.0679" x2="-3742.8044" y2="2551.0679" gradientTransform="matrix(19.2781 0 0 -19.2781 71912.4297 49648.1992)">
				<stop  offset="0" style="stop-color:#FFCB05"/>
				<stop  offset="0.3156" style="stop-color:#FFCB05"/>
				<stop  offset="0.8667" style="stop-color:#FAA41A"/>
				<stop  offset="1" style="stop-color:#FAA41A"/>
			</linearGradient>
			<rect x="-261" y="457.1" style="clip-path:url(#SVGID_41_);fill:url(#SVGID_42_);" width="19.3" height="22.8"/>
		</g>
	</g>
</g>
<g>
	<g>
		<g>
			<defs>
				<path id="SVGID_43_" d="M-251,468.8c-0.2,0.2-0.5,0.5-0.8,0.9c-0.3,0.4-0.7,0.8-1,1.4c-0.3,0.5-0.7,1.1-1,1.8
					c-0.3,0.7-0.6,1.4-0.8,2.1c-0.3,0.8-0.4,1.6-0.5,2.4c0,0.8,0.1,1.7,0.2,2.6c0.2,0.9,0.3,1.8,0.3,2.7c0.1,1.8,0.2,3.7,0.4,5.4
					c0.2,1.7,0.4,3.3,0.6,4.7c0.4,2.8,0.7,4.6,0.7,4.6l0.8,0.1c0,0,0.6-1.8,1.4-4.4c0.4-1.3,0.8-2.9,1.3-4.6
					c0.5-1.7,0.8-3.5,1.2-5.3c0.2-0.9,0.5-1.8,0.8-2.7c0.3-0.9,0.5-1.7,0.6-2.6c0.1-0.8,0-1.7-0.1-2.5c-0.1-0.8-0.3-1.5-0.5-2.2
					c-0.2-0.7-0.5-1.3-0.7-1.9c-0.3-0.6-0.6-1.1-0.8-1.5c-0.3-0.4-0.5-0.7-0.7-1c-0.2-0.2-0.3-0.3-0.3-0.3l-0.8-0.1
					C-250.7,468.5-250.8,468.6-251,468.8"/>
			</defs>
			<clipPath id="SVGID_44_">
				<use xlink:href="#SVGID_43_"  style="overflow:visible;"/>
			</clipPath>
			
				<linearGradient id="SVGID_45_" gradientUnits="userSpaceOnUse" x1="-3796.426" y1="2410.8184" x2="-3795.4265" y2="2410.8184" gradientTransform="matrix(8.3614 0 0 -8.3614 31488.459 20640.8594)">
				<stop  offset="0" style="stop-color:#FFCB05"/>
				<stop  offset="0.3156" style="stop-color:#FFCB05"/>
				<stop  offset="0.8667" style="stop-color:#FAA41A"/>
				<stop  offset="1" style="stop-color:#FAA41A"/>
			</linearGradient>
			<rect x="-255.1" y="468.5" style="clip-path:url(#SVGID_44_);fill:url(#SVGID_45_);" width="8.4" height="29"/>
		</g>
	</g>
</g>
<g>
	<g>
		<g>
			<defs>
				<path id="SVGID_46_" d="M-247.8,479.6c0,0-0.1,0.1-0.3,0.3c-0.2,0.2-0.4,0.5-0.7,0.9c-0.3,0.4-0.6,0.9-0.9,1.5
					c-0.3,0.6-0.6,1.2-0.8,1.9c-0.2,0.7-0.5,1.4-0.6,2.2c-0.2,0.8-0.2,1.6-0.2,2.5c0.1,0.9,0.3,1.7,0.5,2.6c0.3,0.9,0.5,1.8,0.6,2.7
					c0.3,1.8,0.6,3.6,1,5.3c0.4,1.7,0.7,3.3,1.1,4.6c0.7,2.7,1.2,4.5,1.2,4.5l0.8,0c0,0,0.4-1.8,0.9-4.6c0.2-1.4,0.5-3,0.7-4.7
					c0.3-1.7,0.4-3.5,0.7-5.4c0.1-0.9,0.3-1.8,0.5-2.7c0.2-0.9,0.3-1.8,0.3-2.6c0-0.9-0.1-1.7-0.4-2.4c-0.2-0.8-0.5-1.5-0.7-2.2
					c-0.3-0.7-0.6-1.3-0.9-1.8c-0.3-0.5-0.7-1-1-1.4c-0.3-0.4-0.6-0.7-0.8-0.9c-0.2-0.2-0.3-0.3-0.3-0.3L-247.8,479.6z"/>
			</defs>
			<clipPath id="SVGID_47_">
				<use xlink:href="#SVGID_46_"  style="overflow:visible;"/>
			</clipPath>
			
				<linearGradient id="SVGID_48_" gradientUnits="userSpaceOnUse" x1="-3796.6201" y1="2410.2871" x2="-3795.6201" y2="2410.2871" gradientTransform="matrix(8.3441 0 0 -8.3441 31428.0723 20605.7617)">
				<stop  offset="0" style="stop-color:#FFCB05"/>
				<stop  offset="0.3156" style="stop-color:#FFCB05"/>
				<stop  offset="0.8667" style="stop-color:#FAA41A"/>
				<stop  offset="1" style="stop-color:#FAA41A"/>
			</linearGradient>
			<rect x="-251.3" y="479.6" style="clip-path:url(#SVGID_47_);fill:url(#SVGID_48_);" width="8.4" height="29"/>
		</g>
	</g>
</g>
<g>
	<g>
		<g>
			<defs>
				<path id="SVGID_49_" d="M-247.4,491.9c0,0,0,0.1-0.1,0.4c-0.1,0.3-0.2,0.7-0.3,1.1c-0.1,0.5-0.2,1.1-0.2,1.7
					c0,0.6-0.1,1.3,0,2.1c0,0.7,0.2,1.5,0.3,2.3c0.2,0.8,0.4,1.6,0.8,2.3c0.4,0.8,0.9,1.5,1.5,2.2c0.6,0.7,1.1,1.5,1.6,2.2
					c1,1.5,2,3.1,3,4.5c1,1.4,2,2.7,2.8,3.8c1.7,2.2,2.9,3.7,2.9,3.7l0.7-0.3c0,0-0.3-1.8-1-4.6c-0.3-1.4-0.7-2.9-1.2-4.6
					c-0.4-1.7-1-3.4-1.5-5.2c-0.3-0.9-0.5-1.8-0.6-2.7c-0.2-0.9-0.4-1.8-0.7-2.6c-0.3-0.8-0.8-1.5-1.3-2.1c-0.5-0.6-1-1.2-1.5-1.7
					c-0.5-0.5-1.1-0.9-1.6-1.3c-0.5-0.4-1-0.7-1.4-0.9c-0.4-0.2-0.8-0.4-1.1-0.5c-0.3-0.1-0.4-0.2-0.4-0.2L-247.4,491.9z"/>
			</defs>
			<clipPath id="SVGID_50_">
				<use xlink:href="#SVGID_49_"  style="overflow:visible;"/>
			</clipPath>
			
				<linearGradient id="SVGID_51_" gradientUnits="userSpaceOnUse" x1="-3760.2747" y1="2507.168" x2="-3759.2751" y2="2507.168" gradientTransform="matrix(13.6856 0 0 -13.6856 51213.5352 34816.9648)">
				<stop  offset="0" style="stop-color:#FFCB05"/>
				<stop  offset="0.3156" style="stop-color:#FFCB05"/>
				<stop  offset="0.8667" style="stop-color:#FAA41A"/>
				<stop  offset="1" style="stop-color:#FAA41A"/>
			</linearGradient>
			<rect x="-248.1" y="491.6" style="clip-path:url(#SVGID_50_);fill:url(#SVGID_51_);" width="13.7" height="26.6"/>
		</g>
	</g>
</g>
<g>
	<g>
		<g>
			<defs>
				<path id="SVGID_52_" d="M-235.8,502.6c0,0,0,0.1-0.1,0.4c-0.1,0.3-0.2,0.7-0.3,1.1c-0.1,0.5-0.2,1.1-0.2,1.7c0,0.6-0.1,1.3,0,2
					c0,0.7,0.2,1.5,0.3,2.3c0.2,0.8,0.4,1.6,0.8,2.3c0.4,0.8,0.9,1.5,1.5,2.2c0.6,0.7,1.1,1.5,1.6,2.2c1,1.5,2,3.1,3,4.5
					c1,1.4,2,2.7,2.8,3.8c1.7,2.2,2.9,3.7,2.9,3.7l0.7-0.3c0,0-0.3-1.8-1-4.6c-0.3-1.4-0.7-2.9-1.1-4.6c-0.4-1.7-1-3.4-1.5-5.2
					c-0.3-0.9-0.5-1.8-0.6-2.7c-0.2-0.9-0.4-1.8-0.7-2.5c-0.3-0.8-0.8-1.5-1.3-2.1c-0.5-0.6-1-1.2-1.5-1.7c-0.5-0.5-1.1-0.9-1.6-1.3
					c-0.5-0.4-1-0.7-1.4-0.9c-0.4-0.2-0.8-0.4-1.1-0.5c-0.3-0.1-0.4-0.2-0.4-0.2L-235.8,502.6z"/>
			</defs>
			<clipPath id="SVGID_53_">
				<use xlink:href="#SVGID_52_"  style="overflow:visible;"/>
			</clipPath>
			
				<linearGradient id="SVGID_54_" gradientUnits="userSpaceOnUse" x1="-3760.2761" y1="2507.166" x2="-3759.2761" y2="2507.166" gradientTransform="matrix(13.6856 0 0 -13.6856 51225.0586 34827.668)">
				<stop  offset="0" style="stop-color:#FFCB05"/>
				<stop  offset="0.3156" style="stop-color:#FFCB05"/>
				<stop  offset="0.8667" style="stop-color:#FAA41A"/>
				<stop  offset="1" style="stop-color:#FAA41A"/>
			</linearGradient>
			<rect x="-236.5" y="502.3" style="clip-path:url(#SVGID_53_);fill:url(#SVGID_54_);" width="13.7" height="26.6"/>
		</g>
	</g>
</g>
<g>
	<g>
		<g>
			<defs>
				<path id="SVGID_55_" d="M-227.3,510.3c0,0,0,0.2-0.1,0.4c0,0.3-0.1,0.7,0,1.2c0,0.5,0,1.1,0.1,1.7c0.1,0.6,0.2,1.3,0.4,2
					c0.2,0.7,0.4,1.4,0.8,2.2c0.3,0.7,0.7,1.5,1.2,2.1c0.5,0.7,1.2,1.3,1.9,1.9c0.7,0.6,1.4,1.2,2,1.9c1.3,1.3,2.6,2.6,3.8,3.8
					c1.2,1.2,2.4,2.3,3.5,3.2c2.1,1.9,3.5,3,3.5,3l0.6-0.5c0,0-0.7-1.7-1.8-4.3c-0.6-1.3-1.3-2.7-2-4.3c-0.7-1.6-1.6-3.2-2.5-4.8
					c-0.4-0.8-0.8-1.7-1.2-2.5c-0.4-0.8-0.7-1.7-1.2-2.4c-0.5-0.7-1.1-1.3-1.7-1.8c-0.6-0.5-1.2-1-1.8-1.4c-0.6-0.4-1.2-0.7-1.8-1
					c-0.6-0.3-1.1-0.5-1.6-0.6c-0.5-0.2-0.9-0.3-1.1-0.3c-0.3-0.1-0.4-0.1-0.4-0.1L-227.3,510.3z"/>
			</defs>
			<clipPath id="SVGID_56_">
				<use xlink:href="#SVGID_55_"  style="overflow:visible;"/>
			</clipPath>
			
				<linearGradient id="SVGID_57_" gradientUnits="userSpaceOnUse" x1="-3746.9519" y1="2542.6804" x2="-3745.9517" y2="2542.6804" gradientTransform="matrix(17.8817 0 0 -17.8817 66774.4609 45989.1719)">
				<stop  offset="0" style="stop-color:#FFCB05"/>
				<stop  offset="0.3156" style="stop-color:#FFCB05"/>
				<stop  offset="0.8667" style="stop-color:#FAA41A"/>
				<stop  offset="1" style="stop-color:#FAA41A"/>
			</linearGradient>
			<rect x="-227.4" y="509.8" style="clip-path:url(#SVGID_56_);fill:url(#SVGID_57_);" width="17.9" height="23.9"/>
		</g>
	</g>
</g>
<g>
	<g>
		<g>
			<defs>
				<path id="SVGID_58_" d="M-210.9,518.6c0,0,0,0.2,0,0.4c0,0.3-0.1,0.7-0.1,1.2c0,0.5,0,1.1,0.1,1.7c0.1,0.6,0.2,1.3,0.4,2
					c0.2,0.7,0.4,1.4,0.8,2.2c0.3,0.7,0.7,1.5,1.2,2.1c0.5,0.7,1.2,1.3,1.9,1.9c0.7,0.6,1.4,1.2,2,1.9c1.3,1.3,2.6,2.6,3.8,3.8
					c1.2,1.2,2.4,2.3,3.5,3.2c2.1,1.9,3.5,3,3.5,3l0.6-0.5c0,0-0.7-1.7-1.8-4.3c-0.6-1.3-1.3-2.7-2-4.3c-0.7-1.6-1.6-3.2-2.5-4.8
					c-0.4-0.8-0.8-1.7-1.1-2.5c-0.4-0.8-0.7-1.7-1.2-2.4c-0.5-0.7-1.1-1.3-1.7-1.8c-0.6-0.5-1.2-1-1.8-1.4c-0.6-0.4-1.2-0.7-1.8-1
					c-0.6-0.3-1.1-0.5-1.6-0.6c-0.5-0.2-0.9-0.3-1.1-0.3c-0.3-0.1-0.4-0.1-0.4-0.1L-210.9,518.6z"/>
			</defs>
			<clipPath id="SVGID_59_">
				<use xlink:href="#SVGID_58_"  style="overflow:visible;"/>
			</clipPath>
			
				<linearGradient id="SVGID_60_" gradientUnits="userSpaceOnUse" x1="-3746.9519" y1="2542.6804" x2="-3745.9517" y2="2542.6804" gradientTransform="matrix(17.8817 0 0 -17.8817 66790.8359 45997.5313)">
				<stop  offset="0" style="stop-color:#FFCB05"/>
				<stop  offset="0.3156" style="stop-color:#FFCB05"/>
				<stop  offset="0.8667" style="stop-color:#FAA41A"/>
				<stop  offset="1" style="stop-color:#FAA41A"/>
			</linearGradient>
			<rect x="-211" y="518.1" style="clip-path:url(#SVGID_59_);fill:url(#SVGID_60_);" width="17.9" height="23.9"/>
		</g>
	</g>
</g>
<g>
	<g>
		<g>
			<defs>
				<path id="SVGID_61_" d="M-192.7,522.8c0,0,0,0.1-0.1,0.4c-0.1,0.3-0.2,0.7-0.3,1.1c-0.1,0.5-0.2,1.1-0.2,1.7c0,0.6,0,1.3,0,2
					c0.1,0.7,0.2,1.5,0.3,2.3c0.2,0.8,0.4,1.6,0.8,2.3c0.4,0.8,0.9,1.5,1.5,2.2c0.6,0.7,1.2,1.4,1.7,2.2c1,1.5,2,3,3.1,4.4
					c1,1.4,2,2.7,2.8,3.8c1.7,2.2,2.9,3.6,2.9,3.6l0.7-0.3c0,0-0.4-1.8-1-4.5c-0.3-1.3-0.7-2.9-1.2-4.6c-0.4-1.7-1-3.4-1.6-5.2
					c-0.3-0.9-0.5-1.8-0.7-2.7c-0.2-0.9-0.4-1.8-0.8-2.5s-0.8-1.5-1.3-2.1c-0.5-0.6-1-1.2-1.6-1.7c-0.5-0.5-1.1-0.9-1.6-1.3
					c-0.5-0.4-1-0.7-1.4-0.9c-0.4-0.2-0.8-0.4-1.1-0.5c-0.3-0.1-0.4-0.2-0.4-0.2L-192.7,522.8z"/>
			</defs>
			<clipPath id="SVGID_62_">
				<use xlink:href="#SVGID_61_"  style="overflow:visible;"/>
			</clipPath>
			
				<linearGradient id="SVGID_63_" gradientUnits="userSpaceOnUse" x1="-3759.272" y1="2509.8398" x2="-3758.2708" y2="2509.8398" gradientTransform="matrix(13.9317 0 0 -13.9317 52179.6758 35502.0039)">
				<stop  offset="0" style="stop-color:#FFCB05"/>
				<stop  offset="0.3156" style="stop-color:#FFCB05"/>
				<stop  offset="0.8667" style="stop-color:#FAA41A"/>
				<stop  offset="1" style="stop-color:#FAA41A"/>
			</linearGradient>
			<rect x="-193.3" y="522.4" style="clip-path:url(#SVGID_62_);fill:url(#SVGID_63_);" width="13.9" height="26.5"/>
		</g>
	</g>
</g>
<g>
	<g>
		<g>
			<defs>
				<path id="SVGID_64_" d="M-179.3,530.1c0,0-0.1,0.1-0.2,0.4c-0.1,0.3-0.2,0.7-0.3,1.1c-0.1,0.5-0.2,1-0.3,1.7
					c-0.1,0.6-0.1,1.3-0.1,2c0,0.7,0.1,1.5,0.2,2.3c0.1,0.8,0.3,1.6,0.7,2.4c0.3,0.8,0.8,1.5,1.4,2.3c0.5,0.7,1.1,1.5,1.5,2.3
					c0.9,1.6,1.8,3.2,2.8,4.6c0.9,1.5,1.8,2.8,2.6,4c1.6,2.3,2.7,3.8,2.7,3.8l0.7-0.3c0,0-0.2-1.9-0.7-4.6c-0.3-1.4-0.5-3-0.9-4.6
					c-0.3-1.7-0.8-3.5-1.2-5.3c-0.2-0.9-0.4-1.8-0.5-2.7c-0.1-0.9-0.3-1.8-0.6-2.6c-0.3-0.8-0.7-1.5-1.2-2.2
					c-0.5-0.7-0.9-1.3-1.4-1.8c-0.5-0.5-1-1-1.5-1.4c-0.5-0.4-1-0.7-1.4-1c-0.4-0.3-0.8-0.5-1-0.6c-0.3-0.1-0.4-0.2-0.4-0.2
					L-179.3,530.1z"/>
			</defs>
			<clipPath id="SVGID_65_">
				<use xlink:href="#SVGID_64_"  style="overflow:visible;"/>
			</clipPath>
			
				<linearGradient id="SVGID_66_" gradientUnits="userSpaceOnUse" x1="-3765.3596" y1="2493.6118" x2="-3764.3586" y2="2493.6118" gradientTransform="matrix(12.5609 0 0 -12.5609 47115.9297 31865.3848)">
				<stop  offset="0" style="stop-color:#FFCB05"/>
				<stop  offset="0.3156" style="stop-color:#FFCB05"/>
				<stop  offset="0.8667" style="stop-color:#FAA41A"/>
				<stop  offset="1" style="stop-color:#FAA41A"/>
			</linearGradient>
			<rect x="-180.2" y="529.8" style="clip-path:url(#SVGID_65_);fill:url(#SVGID_66_);" width="12.6" height="27.2"/>
		</g>
	</g>
</g>
<g>
	<g>
		<g>
			<defs>
				<path id="SVGID_67_" d="M-160.9,543.4c-0.2,0.1-0.6,0.2-0.9,0.5c-0.2,0.1-0.4,0.2-0.6,0.3c-0.2,0.1-0.4,0.3-0.6,0.4
					c-0.4,0.3-0.9,0.7-1.3,1.1c-0.4,0.4-0.8,0.9-1.2,1.4c-0.4,0.5-0.7,1.1-0.9,1.7c-0.4,1.3-0.2,2.9-0.5,4.3
					c-0.2,1.4-0.5,2.9-0.6,4.3c-0.2,1.4-0.3,2.7-0.4,3.8c-0.2,2.2-0.2,3.8-0.2,3.8l0.8,0.3c0,0,0.9-1.2,2.2-3.1
					c0.6-0.9,1.3-2,2.1-3.2c0.8-1.2,1.5-2.4,2.2-3.7c0.7-1.3,1.8-2.4,2.3-3.7c0.2-0.6,0.3-1.3,0.4-1.9c0-0.6,0-1.3-0.1-1.9
					c-0.1-0.6-0.2-1.2-0.3-1.7c-0.1-0.3-0.2-0.5-0.2-0.7c-0.1-0.2-0.2-0.4-0.3-0.6c-0.2-0.4-0.3-0.7-0.5-0.9
					c-0.1-0.2-0.2-0.3-0.2-0.3l-0.8-0.3C-160.5,543.2-160.7,543.3-160.9,543.4"/>
			</defs>
			<clipPath id="SVGID_68_">
				<use xlink:href="#SVGID_67_"  style="overflow:visible;"/>
			</clipPath>
			
				<linearGradient id="SVGID_69_" gradientUnits="userSpaceOnUse" x1="-3782.0388" y1="2449.1619" x2="-3781.0393" y2="2449.1619" gradientTransform="matrix(9.8931 0 0 -9.8931 37248.0508 24784.0918)">
				<stop  offset="0" style="stop-color:#FFCB05"/>
				<stop  offset="0.3156" style="stop-color:#FFCB05"/>
				<stop  offset="0.8667" style="stop-color:#FAA41A"/>
				<stop  offset="1" style="stop-color:#FAA41A"/>
			</linearGradient>
			<rect x="-168.1" y="543.2" style="clip-path:url(#SVGID_68_);fill:url(#SVGID_69_);" width="9.9" height="22.1"/>
		</g>
	</g>
</g>
<g>
	<g>
		<g>
			<defs>
				<path id="SVGID_70_" d="M-171.3,542.5L-171.3,542.5C-171.2,542.6-171.2,542.6-171.3,542.5C-171.2,542.6-171.2,542.5-171.3,542.5
					 M-152.4,441c10.8,8.5,4.4,8.5,4.4,8.5C-153,446.2-152.4,441-152.4,441 M-185.6,425.8c2,1.6,4,3.2,6,4.8c-2.9-0.2-5.9,0-8.4-0.2
					c-6-0.3-13-0.4-19.1,0.1c-23.1,2-43.3,16.9-46.2,38.8c-2.3,17.6,10.2,37,23.7,48.4c17.1,14.4,38.4,16.4,58.3,24.7
					c6.4,7.7,7.7,14.3,8.7,21.6c-2.2,12.1-13.5,18.2-23.6,21.3c-0.1,0,0,0,0,0c0,0,0.1,0,0.1,0c-17.7,5.3-37.5,6-52.6-6.4
					c-18.1-14.9-23.8-40.9-25.1-63.1l0,0.7c0.9-13.5-8-28.5-21.3-32.5c-15.9-4.8-24.9,9.5-27.4,23.1c2.2-4.5,5.4-9.9,9.6-13.4
					c3.9-3.3,8.7-5,14.2-2.7c7.8,3.2,12.3,12.8,12.5,20.7c0.7,20.9-1.3,39.5,6.8,59.5c14.4,35.5,49.8,49.7,86.3,43.5
					c26.3-4.5,56.9-21.1,56.1-51.7c-0.5-22.5-18.7-41.3-39.8-46.9c-22.2-5.9-61.2-14.8-55.5-42c0,0.2,1.5-5.6,5.1-11.3
					c3.7-5.8,9.5-11.7,18.2-11.3c2.6,0.1,4.3,0.4,5.6,1c5.4,2.6,11.6,15.8,19.7,21.7c8.7,6.3,9.3,3.7,15,5.3
					c5.7,1.7,9.3,9.7,14.3,10.3c5,0.7,9.7-5,9.7-5s-18.7-12.7-27-14.7c-6.7-3.5-5.7-12-4-13c1.7-1,7,5.3,9.8,7
					c1.7,0,17.5,13,24.2,12.3c6.7-0.7,7-10.7,4.7-11c1.8-4.6,2-14.2,0.6-17.3c-1.9-4.3-6.1-7.2-8.6-11.2
					c-7.8-12.6-12.3-26.5-29-30.1c6.8,3.5,13.6,9.7,17.6,16.2c3.4,5.5,5,11.7,8.8,17.1c2.3,3.3,5.1,6.9,7.3,10.1
					c2.1,3.1,1.5,8.9,0.1,13.8c-4.8-2.8-12.6-8.7-12.7-11.1c-0.1-0.9,1-4,1.2-6.3c0.1-1.3-0.4-2.6-1.3-3.5
					c-3.3-3.3-11.8-11-17.6-11.2l-0.1,0c-0.2-0.3-0.5-0.7-0.7-1c-1.2-1.7-2.3-3.6-3.6-5.2c-2.5-3-16.6-16.6-19.8-18.9
					c1.5,4.9,13.6,20.7,16.6,24.9c0.2,0.3,0.5,0.7,0.7,1c-1.6-1.3-3.2-2.6-4.8-3.8c-3-2.4-6.1-4.8-9.1-7.3c-3.6-3-19.9-16-24.2-17.7
					C-203.2,407.4-189.1,423.1-185.6,425.8"/>
			</defs>
			<clipPath id="SVGID_71_">
				<use xlink:href="#SVGID_70_"  style="overflow:visible;"/>
			</clipPath>
			
				<linearGradient id="SVGID_72_" gradientUnits="userSpaceOnUse" x1="-3707.6509" y1="2647.4248" x2="-3706.6509" y2="2647.4248" gradientTransform="matrix(187.2126 0 0 -187.2126 693806.25 496143.625)">
				<stop  offset="0" style="stop-color:#FFCB05"/>
				<stop  offset="0.3156" style="stop-color:#FFCB05"/>
				<stop  offset="0.8667" style="stop-color:#FAA41A"/>
				<stop  offset="1" style="stop-color:#FAA41A"/>
			</linearGradient>
			<rect x="-312.7" y="403.8" style="clip-path:url(#SVGID_71_);fill:url(#SVGID_72_);" width="188" height="217.1"/>
		</g>
	</g>
</g>
<path style="fill:#F05123;" d="M-235.2,608.3c14.9,6.6,32.3,8.4,49.9,5.4c26.3-4.5,56.9-21.1,56.1-51.7
	c-0.3-12.4-5.9-23.6-14.5-32.2c0,0,9.8,26.7-4.2,46.7S-204.7,610.3-235.2,608.3"/>
<path style="fill:#FFFFFF;" d="M-238.6,500.8c0,0-25.3-42.2,11.9-60.5c0,0,17.1-7.2,30.7-6.4c0,0-34.7,5.4-39.2,23.5
	c-4.5,18.1,4.4,50.5,16.8,60.8C-218.5,518.2-233.6,507.7-238.6,500.8"/>
</svg>
