<?xml version="1.0" encoding="utf-8"?>
<!-- Generator: Adobe Illustrator 19.1.0, SVG Export Plug-In . SVG Version: 6.00 Build 0)  -->
<svg version="1.1" id="Layer_1" xmlns="http://www.w3.org/2000/svg" xmlns:xlink="http://www.w3.org/1999/xlink" x="0px" y="0px"
	 width="300px" height="300px" viewBox="-361 363 300 300" style="enable-background:new -361 363 300 300;" xml:space="preserve">
<path style="fill:#FFFFFF;" d="M-135.3,509.6c0,0-1.7-6-13.4-3.1c-3.8,0.9-7.4,1.5-10.6,1.6c0,0,0,0,0,0c-0.9-2.5-8.6-5.7-8.2-11.1
	s-0.2-11.8-0.2-13.1c0-1.3,11,6.1,10.4,2.6c-0.6-3.5-4.4-1.9-4.1-5.7c0.3-3.8,5.1,1,5.1,1c1.1,1.2,3,1.3,4.1,0.2
	c0.6-0.6,1.4-1.4,2.2-2.4c2.5-2.9,5.7-7.6,0-13.6c-5.7-6-10.5-12.4-10.8-17.1c-0.3-4.8-9.5-10.8-11.4-14.3c-0.3-0.6-0.6-1.1-0.9-1.7
	c-3.9-11.7-14-24.4-25.1-27.3c-5.9-1.6-11-0.6-15.1,2c-1.4,0-2.9,0-4.2,0.2c-18.6,2.3-24.3,21.3-17,36.6c3.2,6.6,7.5,12.2,14.5,14.8
	c4.7,1.8,17.7,2.2,20.2-4.2c0.7,0.3,1.3,0.4,1.6,0.5c1.7,0.3,3.5,0.3,5.2,0c0,0.7-0.1,1.4-0.2,2.2c-1.3,7.9-20.9,16.8-20.3,25.4
	c0.6,8.6-11.7,26.6-24.1,27.3c-12.4,0.6-43.1,6-45,20c0,0-13,4.1-19-3.2c0,0-4.4-6.7-1.6-10.5c-2.2,1.3-13,20.9,9.5,24.1
	c-8.6,2.2-11.1,0-11.1,0s10.5,13.3,25.7,6.3c1.3,2.5,12.7,23.5,7,31.1c-5.7,7.6-13.6,7-13,16.2c0.6,9.2,12.4,10.8,14.3,22.5l1.6,9.2
	h12.4l-0.3-7.6c0,0-13.6-11.4-8.6-20.6c3.2-3.5,10.1-2.5,13.9-7c0.5-0.2,1-0.7,1.6-1.3c0.1,0.5,0.2,1,0.4,1.5
	c2.7,8.8,12.6,8.1,16.8,19.1l2.1,7.1l10.9-0.2l-1.6-8c0,0-13.7-8.4-11.8-18.4c1.8-4,7.6-4.4,9.7-9.5c2.2-2,4.3-13.3,6.5-23.9
	c3.2-0.5,6-1.1,7.8-2.2c5.1-3.2,28.2-18.7,30.7-19c2.5-0.3,25.7,13.6,25.7,13.6l-14.3,10.8c0,0-5.1-2.5-5.4-4.4s-5.1-4.4-5.1-4.4
	l-7,6.7l8.9,6.3c0,0,5.4,7.3,14.9,4.1c9.5-3.2,19.7-14.9,19.7-14.9s4.4-4.7-3.3-13.6l2-0.9c0,0,7.6-0.7,9.4-9
	C-131.3,522-135.3,509.6-135.3,509.6 M-219.2,446l0.5,0.7c-1.8-3.8-4.3-9.7-3.9-14.6c0.7,4.8,2.5,9.2,6.3,12.6
	c1.6,1.5,5.1,3.4,8.6,4.3c0.2,2,3.5,4,6.3,5.3C-207.2,457.9-216.5,450.2-219.2,446 M-196.5,445.2
	C-196.5,445.2-196.5,445.2-196.5,445.2c-1.5-0.2-5.1-0.1-7.8,0.7c-3.8-2.2-6.6-8.1-7.3-11.2l0.2,0.7c-0.1-2.9-0.2-6.9,0.7-10.3
	c1.7,0.4,3.3,0.9,4.6,1.5c6.7,3,8.4,9.2,12.6,15.2C-197.3,444.1-196.5,445.2-196.5,445.2 M-147.4,533.2c-0.7-0.3-1.9,0.1-3,0.5
	c-2.8-3.3-5-6.6-6.6-10c6-3.5,13.6-7.5,13.6-7.5l1.6,15C-141.8,531.3-145.9,533.8-147.4,533.2"/>
<path style="fill:none;stroke:#000000;stroke-width:8;stroke-linecap:round;stroke-linejoin:round;" d="M-135.3,509.6
	c0,0-1.7-6-13.4-3.1c-3.8,0.9-7.4,1.5-10.6,1.6c0,0,0,0,0,0c-0.9-2.5-8.6-5.7-8.2-11.1s-0.2-11.8-0.2-13.1c0-1.3,11,6.1,10.4,2.6
	c-0.6-3.5-4.4-1.9-4.1-5.7c0.3-3.8,5.1,1,5.1,1c1.1,1.2,3,1.3,4.1,0.2c0.6-0.6,1.4-1.4,2.2-2.4c2.5-2.9,5.7-7.6,0-13.6
	c-5.7-6-10.5-12.4-10.8-17.1c-0.3-4.8-9.5-10.8-11.4-14.3c-0.3-0.6-0.6-1.1-0.9-1.7c-3.9-11.7-14-24.4-25.1-27.3
	c-5.9-1.6-11-0.6-15.1,2c-1.4,0-2.9,0-4.2,0.2c-18.6,2.3-24.3,21.3-17,36.6c3.2,6.6,7.5,12.2,14.5,14.8c4.7,1.8,17.7,2.2,20.2-4.2
	c0.7,0.3,1.3,0.4,1.6,0.5c1.7,0.3,3.5,0.3,5.2,0c0,0.7-0.1,1.4-0.2,2.2c-1.3,7.9-20.9,16.8-20.3,25.4c0.6,8.6-11.7,26.6-24.1,27.3
	c-12.4,0.6-43.1,6-45,20c0,0-13,4.1-19-3.2c0,0-4.4-6.7-1.6-10.5c-2.2,1.3-13,20.9,9.5,24.1c-8.6,2.2-11.1,0-11.1,0
	s10.5,13.3,25.7,6.3c1.3,2.5,12.7,23.5,7,31.1c-5.7,7.6-13.6,7-13,16.2c0.6,9.2,12.4,10.8,14.3,22.5l1.6,9.2h12.4l-0.3-7.6
	c0,0-13.6-11.4-8.6-20.6c3.2-3.5,10.1-2.5,13.9-7c0.5-0.2,1-0.7,1.6-1.3c0.1,0.5,0.2,1,0.4,1.5c2.7,8.8,12.6,8.1,16.8,19.1l2.1,7.1
	l10.9-0.2l-1.6-8c0,0-13.7-8.4-11.8-18.4c1.8-4,7.6-4.4,9.7-9.5c2.2-2,4.3-13.3,6.5-23.9c3.2-0.5,6-1.1,7.8-2.2
	c5.1-3.2,28.2-18.7,30.7-19c2.5-0.3,25.7,13.6,25.7,13.6l-14.3,10.8c0,0-5.1-2.5-5.4-4.4s-5.1-4.4-5.1-4.4l-7,6.7l8.9,6.3
	c0,0,5.4,7.3,14.9,4.1c9.5-3.2,19.7-14.9,19.7-14.9s4.4-4.7-3.3-13.6l2-0.9c0,0,7.6-0.7,9.4-9C-131.3,522-135.3,509.6-135.3,509.6z
	 M-219.2,446l0.5,0.7c-1.8-3.8-4.3-9.7-3.9-14.6c0.7,4.8,2.5,9.2,6.3,12.6c1.6,1.5,5.1,3.4,8.6,4.3c0.2,2,3.5,4,6.3,5.3
	C-207.2,457.9-216.5,450.2-219.2,446z M-196.5,445.2C-196.5,445.2-196.5,445.2-196.5,445.2c-1.5-0.2-5.1-0.1-7.8,0.7
	c-3.8-2.2-6.6-8.1-7.3-11.2l0.2,0.7c-0.1-2.9-0.2-6.9,0.7-10.3c1.7,0.4,3.3,0.9,4.6,1.5c6.7,3,8.4,9.2,12.6,15.2
	C-197.3,444.1-196.5,445.2-196.5,445.2z M-147.4,533.2c-0.7-0.3-1.9,0.1-3,0.5c-2.8-3.3-5-6.6-6.6-10c6-3.5,13.6-7.5,13.6-7.5
	l1.6,15C-141.8,531.3-145.9,533.8-147.4,533.2z"/>
<path style="fill:#F26722;" d="M-164.4,528.9c0.9-2,21-12.6,21-12.6l1.6,15c0,0-4,2.6-5.5,2c-1.5-0.6-5.4,1.7-5.4,1.7l1.8,7.9
	l8.4-3.6c0,0,7.6-0.7,9.4-9s-2.2-20.7-2.2-20.7s-1.7-6-13.4-3.1c-11.7,2.9-20.5,2-27.4-3.7"/>
<path style="fill:#FFFFFF;" d="M-142.6,539.2c0,0-3.3-5.4-4.8-6s-5.4,1.7-5.4,1.7l1.8,7.9L-142.6,539.2"/>
<path style="fill:#F26722;" d="M-256.1,543.9c1.6,2.2,15.8,20.3,12.9,28.8c-2.8,8.5-9.4,9.4-6.8,18.3c2.7,8.8,12.6,8.1,16.8,19.1
	l2.1,7.1l10.9-0.2l-1.6-8c0,0-13.7-8.4-11.8-18.4c1.8-4,7.6-4.4,9.7-9.5c2.9-2.7,5.6-20.9,8.4-33"/>
<path style="fill:#F26722;" d="M-171.6,440.6c-1.1-13.1-13.1-31.4-26.7-35c-15.1-4.1-25.6,8.9-24.7,23.1c0.4,6.1,2,11.8,6.6,16.1
	c3.5,3.2,15.6,8.4,18.2,1.1c-6.5,4.3-12.5-6.5-13.4-11.1l0.2,0.7c-0.2-4.5-0.3-11.8,3.5-15c4.1-3.5,9.7,0.4,12.6,3.5
	c4.2,4.4,6.8,10.4,8.2,16.3"/>
<g>
	<g>
		<defs>
			<path id="SVGID_1_" d="M-221.6,428.5c3-5.6,10.9-3.9,15.6-1.8c6.7,3,8.4,9.2,12.6,15.2c-3.9,2.2-3,3.4-3,3.4c0,0,0,0,0,0
				c-2.5-0.3-10.8,0.2-11.3,3.4c-0.3,2.1,3.3,4.4,6.3,5.7c-5.7,3.6-15-4.1-17.8-8.3l0.5,0.7C-221,441.9-224.4,433.8-221.6,428.5
				 M-217.6,407.8c-18.6,2.3-24.3,21.3-17,36.6c3.2,6.6,7.5,12.2,14.5,14.8c4.7,1.8,17.7,2.2,20.2-4.2c0.7,0.3,1.3,0.4,1.6,0.5
				c1.7,0.3,3.5,0.3,5.2,0c0,0.7-0.1,1.4-0.2,2.2c-1.3,7.9-20.9,16.8-20.3,25.4c0.6,8.6-11.7,26.6-24.1,27.3c-12.4,0.6-43.1,6-45,20
				c0,0-13,4.1-19-3.2c0,0-4.4-6.7-1.6-10.5c-2.2,1.3-13,20.9,9.5,24.1c-8.6,2.2-11.1,0-11.1,0s10.5,13.3,25.7,6.3
				c1.3,2.5,12.7,23.5,7,31.1c-5.7,7.6-13.6,7-13,16.2c0.6,9.2,12.4,10.8,14.3,22.5l1.6,9.2h12.4l-0.3-7.6c0,0-13.6-11.4-8.6-20.6
				c3.2-3.5,10.1-2.5,13.9-7c4.1-1.9,12.4-19,19-30.1c4.4-3.5,18.4-2.5,23.5-5.7c5.1-3.2,28.2-18.7,30.7-19
				c2.5-0.3,25.7,13.6,25.7,13.6l-14.3,10.8c0,0-5.1-2.5-5.4-4.4c-0.3-1.9-5.1-4.4-5.1-4.4l-7,6.7l8.9,6.3c0,0,5.4,7.3,14.9,4.1
				s19.7-14.9,19.7-14.9s5.1-5.4-5.1-15.5c-10.1-10.1-14.6-19.7-13-30.1c-0.9-2.5-8.6-5.7-8.2-11.1s-0.2-11.8-0.2-13.1
				c0-0.6,2.2,0.6,4.5,1.7c3,1.4,6.2,2.9,5.9,0.9c-0.6-3.5-4.4-1.9-4.1-5.7c0.3-3.8,5.1,1,5.1,1c1.1,1.2,3,1.3,4.1,0.2
				c0.6-0.6,1.4-1.4,2.2-2.4c2.5-2.9,5.7-7.6,0-13.6c-5.7-6-10.5-12.4-10.8-17.1c-0.3-4.8-9.5-10.8-11.4-14.3
				c-6.6-13.2-25.9-27-42-27C-215.5,407.6-216.5,407.6-217.6,407.8"/>
		</defs>
		<clipPath id="SVGID_2_">
			<use xlink:href="#SVGID_1_"  style="overflow:visible;"/>
		</clipPath>
		
			<linearGradient id="SVGID_3_" gradientUnits="userSpaceOnUse" x1="-3711.7612" y1="-896.2444" x2="-3710.7612" y2="-896.2444" gradientTransform="matrix(167.7602 0 0 167.7602 622377.9375 150870.9219)">
			<stop  offset="0" style="stop-color:#FFD800"/>
			<stop  offset="0.3156" style="stop-color:#FFD800"/>
			<stop  offset="1" style="stop-color:#F7901E"/>
		</linearGradient>
		<rect x="-316.2" y="407.6" style="clip-path:url(#SVGID_2_);fill:url(#SVGID_3_);" width="180" height="218.4"/>
	</g>
</g>
<path style="fill:#FFFFFF;" d="M-233.9,423.2c0,0,14.3-30.6,56.3,8.9C-177.6,432.1-211.6,405.6-233.9,423.2"/>
<polyline style="fill:#FFFFFF;" points="-233,610.1 -230.9,617.2 -220,617 -221.6,609 "/>
<path style="fill:#FFFFFF;" d="M-172.6,556c-0.3-1.9-5.1-4.4-5.1-4.4l-7,6.7l6,4.3 M-270.9,616.8l1.6,9.2h12.4l-0.3-7.6"/>
</svg>
