<?xml version="1.0" encoding="utf-8"?>
<!-- Generator: Adobe Illustrator 19.1.0, SVG Export Plug-In . SVG Version: 6.00 Build 0)  -->
<svg version="1.1" id="Layer_1" xmlns="http://www.w3.org/2000/svg" xmlns:xlink="http://www.w3.org/1999/xlink" x="0px" y="0px"
	 width="300px" height="300px" viewBox="-361 363 300 300" style="enable-background:new -361 363 300 300;" xml:space="preserve">
<path style="fill:#FFFFFF;" d="M-153.5,465.4c7.7-0.3,11.3-5.3,8.1-13.1c-2.4-5.8-1.8-8.4,6.8-9.5c-2.6-4.2-6.9-2.3-8.1-4.2
	c-2.3-3.5-3.8-6.5-0.5-12.5c0.7-1.2,0.2-3.1-0.3-4.4c0.2-0.6,0.3-1.3,0.3-2c0-3.7-3-6.7-6.7-6.7c-1,0-2,0.2-2.9,0.7
	c-0.9-1.4-2.5-2.4-4.3-2.4c-0.2,0-0.5,0-0.7,0.1c-0.9-0.3-2,0.2-3.5,2c-0.7,0.8-1.4,1.3-2,1.5c-0.4-2-2.1-3.5-4.1-3.5
	c-2.1,0-3.9,1.6-4.2,3.7c-1.8,2.7-3.5,1.5-6,1.4c-4-0.2-7.8,3-9.6,5.7c-2.1,3.1-0.4,7.4,4.1,9.4c3.1,1.3,6.1,0,9.8,0.5
	c-10.3,12.2-13.8,26.7-16,41.7c-0.7,4.7-2.2,9.1-5.9,12.4c-7,6.4-15.9,9.9-23,17.1c-1.4-6.6,0.1-11.1,2.5-15.6
	c7.3-13.3,3.8-27.6-9.3-35.6c-23.3-14.3-62.6-9.6-61.6,38c6.4-26.7,33-42.4,46.1-28.7c-8-2.8-9.5-2.5-10.5-1
	c5.8,2.7,8.8,4.8,6.3,8.2c-1.6-0.5-3.2-1-4.9-1.4c-15.9-3.5-32.8,7.9-31.3,23.6c0.7,8.2-0.3,17.5,4.5,25.3c0.2,0.3,0.8,0.3,1.3,0.4
	c4.3-2.1,3.8-9.1,10-9.9c1.4,9.4-1.2,22.8,0.8,33c4.3-8.8,8.2-7.2,6.2-2.8c-7.5,16.1,5.5,1,6.5,4c0.4,1.1-6.5,13.7-4.8,12.5
	c3.6-2.6,6.8-7.5,8.3-7c1.6,0.5,1.4,6.5,2.9,7.4c2.9-1.4,6.6-5.1,8.3,1.7c2,7.9,6.9,11.6,15.3,9.8c1.9-0.4,4.2,0.2,6,1.1
	c4,2,5.1,7.9,2.6,9c-7.3,3.1-1.2,5.2,0,7c3.3,5,4.3,8.6,2.5,11.6c-4.2,0.5-10.8,3.9-12.1,7.4c1.1-0.5,2.9-1.1,5.3-1.4
	c8.2-0.5,13.5,2.6,18,7.5l5.7,6.9c0,0-0.7-6.4-2.2-9.8c1-0.7,2.5-0.1,3.8,0.3c4.9,11,3.6,0.4,3.1-0.8c-0.3-0.9-8.1-5.2-10.5-7.5
	c-5.2-5.6-7-14.9-3.5-21.5l2.7-3.2c0.9-0.5,2-0.8,3.3-0.7c3.5,0.3,3.7,3,4.1,5.6c0.2,1.2-1.3,4.2,0.5,3.5c8.8-3.5,4,4.3,5.7,6.5
	c-1,1.6-3,3.6-2,3.4c0.9-0.2,5.2-2.5,6.2-5.5c1.2-0.6,2.4-0.8,3.8,0.3c0,0,1.3,1.5,1.1,3.6c-0.3,1-0.8,2-1.1,3
	c-2.6,3.6-3.1,3.7-3.1,3.7s4-0.3,7.3-4.7c1.9-1,2.3-2.2,3-4.7c1.1-4-0.5-5.4-3.3-7.2c-4.3-2.8-9.2-4.8-13.5-7.7
	c-3.3-2.2-4.8-5.5-4.2-8.3l3.7-4.4c9.4-4.2,15.8-12,24.2-17.1c20.3-12.3,34.6-38.6,19-66.6C-151.1,471.5-153.1,468.9-153.5,465.4
	 M-275.3,486.9c2-5.1,5.2-6.6,11.1-4C-268.7,484.5-272,485.7-275.3,486.9"/>
<path style="fill:none;stroke:#231F20;stroke-width:9;stroke-linecap:round;stroke-linejoin:round;" d="M-153.5,465.4
	c7.7-0.3,11.3-5.3,8.1-13.1c-2.4-5.8-1.8-8.4,6.8-9.5c-2.6-4.2-6.9-2.3-8.1-4.2c-2.3-3.5-3.8-6.5-0.5-12.5c0.7-1.2,0.2-3.1-0.3-4.4
	c0.2-0.6,0.3-1.3,0.3-2c0-3.7-3-6.7-6.7-6.7c-1,0-2,0.2-2.9,0.7c-0.9-1.4-2.5-2.4-4.3-2.4c-0.2,0-0.5,0-0.7,0.1
	c-0.9-0.3-2,0.2-3.5,2c-0.7,0.8-1.4,1.3-2,1.5c-0.4-2-2.1-3.5-4.1-3.5c-2.1,0-3.9,1.6-4.2,3.7c-1.8,2.7-3.5,1.5-6,1.4
	c-4-0.2-7.8,3-9.6,5.7c-2.1,3.1-0.4,7.4,4.1,9.4c3.1,1.3,6.1,0,9.8,0.5c-10.3,12.2-13.8,26.7-16,41.7c-0.7,4.7-2.2,9.1-5.9,12.4
	c-7,6.4-15.9,9.9-23,17.1c-1.4-6.6,0.1-11.1,2.5-15.6c7.3-13.3,3.8-27.6-9.3-35.6c-23.3-14.3-62.6-9.6-61.6,38
	c6.4-26.7,33-42.4,46.1-28.7c-8-2.8-9.5-2.5-10.5-1c5.8,2.7,8.8,4.8,6.3,8.2c-1.6-0.5-3.2-1-4.9-1.4c-15.9-3.5-32.8,7.9-31.3,23.6
	c0.7,8.2-0.3,17.5,4.5,25.3c0.2,0.3,0.8,0.3,1.3,0.4c4.3-2.1,3.8-9.1,10-9.9c1.4,9.4-1.2,22.8,0.8,33c4.3-8.8,8.2-7.2,6.2-2.8
	c-7.5,16.1,5.5,1,6.5,4c0.4,1.1-6.5,13.7-4.8,12.5c3.6-2.6,6.8-7.5,8.3-7c1.6,0.5,1.4,6.5,2.9,7.4c2.9-1.4,6.6-5.1,8.3,1.7
	c2,7.9,6.9,11.6,15.3,9.8c1.9-0.4,4.2,0.2,6,1.1c4,2,5.1,7.9,2.6,9c-7.3,3.1-1.2,5.2,0,7c3.3,5,4.3,8.6,2.5,11.6
	c-4.2,0.5-10.8,3.9-12.1,7.4c1.1-0.5,2.9-1.1,5.3-1.4c8.2-0.5,13.5,2.6,18,7.5l5.7,6.9c0,0-0.7-6.4-2.2-9.8c1-0.7,2.5-0.1,3.8,0.3
	c4.9,11,3.6,0.4,3.1-0.8c-0.3-0.9-8.1-5.2-10.5-7.5c-5.2-5.6-7-14.9-3.5-21.5l2.7-3.2c0.9-0.5,2-0.8,3.3-0.7c3.5,0.3,3.7,3,4.1,5.6
	c0.2,1.2-1.3,4.2,0.5,3.5c8.8-3.5,4,4.3,5.7,6.5c-1,1.6-3,3.6-2,3.4c0.9-0.2,5.2-2.5,6.2-5.5c1.2-0.6,2.4-0.8,3.8,0.3
	c0,0,1.3,1.5,1.1,3.6c-0.3,1-0.8,2-1.1,3c-2.6,3.6-3.1,3.7-3.1,3.7s4-0.3,7.3-4.7c1.9-1,2.3-2.2,3-4.7c1.1-4-0.5-5.4-3.3-7.2
	c-4.3-2.8-9.2-4.8-13.5-7.7c-3.3-2.2-4.8-5.5-4.2-8.3l3.7-4.4c9.4-4.2,15.8-12,24.2-17.1c20.3-12.3,34.6-38.6,19-66.6
	C-151.1,471.5-153.1,468.9-153.5,465.4z M-275.3,486.9c2-5.1,5.2-6.6,11.1-4C-268.7,484.5-272,485.7-275.3,486.9z"/>
<path style="fill:#F16722;" d="M-207,574.7c1.3-2.5,3-4.2,6-3.9c3.5,0.3,3.7,3,4.1,5.6c0.2,1.2-1.3,4.2,0.5,3.5
	c8.8-3.5,4,4.3,5.7,6.5c-1,1.6-3,3.6-2,3.4c0.9-0.2,5.2-2.5,6.2-5.5c1.2-0.6,2.4-0.8,3.8,0.3c0,0,1.3,1.5,1.1,3.6
	c-0.3,1-0.8,2-1.1,3c-2.6,3.6-3.1,3.7-3.1,3.7s4-0.3,7.3-4.7c1.9-1,2.3-2.2,3-4.7c1.1-4-0.5-5.4-3.3-7.2c-4.3-2.8-9.2-4.8-13.5-7.7
	c-5.4-3.6-6-10.2-0.5-12.7"/>
<g>
	<g>
		<defs>
			<path id="SVGID_1_" d="M-264.2,482.9c-4.5,1.6-7.8,2.8-11.1,4C-273.4,481.8-270.1,480.3-264.2,482.9 M-161.7,411.3
				c-0.9-0.3-2,0.2-3.5,2c-0.7,0.8-1.4,1.3-2,1.5c-0.4-2-2.1-3.5-4.1-3.5c-2.1,0-3.9,1.6-4.1,3.7c-1.8,2.7-3.5,1.5-6,1.4
				c-4-0.2-7.8,3-9.6,5.7c-2.1,3.1-0.4,7.4,4.1,9.4c1.8,0.8,3.6,0.6,5.5,0.5c1.3-0.1,2.7-0.2,4.2,0c-10.3,12.2-13.8,26.7-16,41.7
				c-0.7,4.7-2.2,9.1-5.9,12.4c-7,6.4-15.9,9.9-23,17.1c-1.4-6.6,0.1-11.1,2.5-15.6c7.3-13.3,3.8-27.6-9.3-35.6
				c-23.3-14.3-62.6-9.6-61.6,38c6.4-26.7,33-42.4,46.1-28.7c-8-2.8-9.5-2.5-10.5-1c5.8,2.7,8.8,4.8,6.3,8.2c-1.6-0.5-3.2-1-4.9-1.4
				c-15.9-3.5-32.8,7.9-31.3,23.6c0.8,8.2-0.3,17.5,4.5,25.3c0.2,0.3,0.8,0.3,1.3,0.4c4.3-2.1,3.8-9.1,10-9.9
				c1.4,9.4-1.2,22.8,0.8,33c4.3-8.8,8.2-7.2,6.2-2.8c-4.7,10.2-1.3,7.9,2.2,5.6c2-1.3,4-2.7,4.3-1.6c0.4,1.1-6.5,13.7-4.8,12.5
				c3.6-2.6,6.8-7.5,8.3-7c1.6,0.5,1.4,6.5,2.9,7.4c2.9-1.4,6.6-5.1,8.3,1.7c2,7.9,6.9,11.6,15.3,9.8c1.9-0.4,4.2,0.2,6,1.1
				c4,2,5.1,7.9,2.6,9c-7.3,3.1-1.2,5.2,0,7c3.3,5,4.3,8.6,2.5,11.6c-4.2,0.5-10.8,3.9-12.1,7.4c1.1-0.5,2.9-1.1,5.3-1.4
				c8.2-0.5,13.5,2.6,18,7.5l5.7,6.9c0,0-0.7-6.4-2.2-9.8c1-0.7,2.5-0.1,3.8,0.3c4.9,11,3.6,0.4,3.1-0.8c-0.3-0.9-8.1-5.2-10.5-7.5
				c-5.2-5.6-7-14.9-3.5-21.5c3.9-3.9,10.5-12.3,14.2-16.6c9.4-4.2,15.8-12,24.2-17.1c20.3-12.3,34.6-38.6,19-66.6
				c-1.6-2.8-3.6-5.5-4-9c7.7-0.3,11.3-5.3,8.1-13.1c-2.4-5.8-1.8-8.4,6.8-9.5c-2.6-4.2-6.9-2.3-8.1-4.2c-2.3-3.4-3.8-6.5-0.5-12.5
				c0.7-1.2,0.2-3.1-0.3-4.4c0.2-0.6,0.3-1.3,0.3-2c0-3.7-3-6.7-6.7-6.7c-1,0-2,0.2-2.9,0.7c-0.9-1.4-2.5-2.4-4.3-2.4
				C-161.2,411.2-161.5,411.3-161.7,411.3"/>
		</defs>
		<clipPath id="SVGID_2_">
			<use xlink:href="#SVGID_1_"  style="overflow:visible;"/>
		</clipPath>
		
			<linearGradient id="SVGID_3_" gradientUnits="userSpaceOnUse" x1="-3710.5237" y1="-896.9886" x2="-3709.5237" y2="-896.9886" gradientTransform="matrix(151.9801 0 0 151.9801 563635.25 136837.7031)">
			<stop  offset="0" style="stop-color:#FFCA05"/>
			<stop  offset="0.3156" style="stop-color:#FFCA05"/>
			<stop  offset="0.8667" style="stop-color:#F9A31A"/>
			<stop  offset="1" style="stop-color:#F9A31A"/>
		</linearGradient>
		<rect x="-291.6" y="411" style="clip-path:url(#SVGID_2_);fill:url(#SVGID_3_);" width="157.6" height="204.5"/>
	</g>
</g>
<path style="fill:#F16722;" d="M-153.5,465.4L-153.5,465.4c7.7-0.3,11.3-5.3,8.1-13.1c-2.4-5.8-1.8-8.4,6.8-9.5
	c-2.6-4.2-6.9-2.3-8.1-4.2c-2.3-3.5-3.8-6.5-0.5-12.5c0.7-1.2,0.2-3.1-0.3-4.4c0.2-0.6,0.3-1.3,0.3-2c0-3.7-3-6.7-6.7-6.7
	c-1,0-2,0.2-2.9,0.7c-0.9-1.4-2.5-2.4-4.3-2.4c-0.2,0-0.5,0-0.7,0.1c-0.9-0.3-2,0.2-3.5,2c-0.7,0.8-1.4,1.3-2,1.5
	c-0.4-2-2.1-3.5-4.1-3.5c-2.1,0-3.9,1.6-4.2,3.7c-0.2,0.3-0.4,0.5-0.6,0.7v0c-0.1,0.1-0.2,0.2-0.3,0.3c0,0,0,0,0,0
	c-0.1,0.1-0.2,0.2-0.3,0.2c0,0,0,0,0,0c-0.1,0.1-0.2,0.1-0.3,0.2c-1.2,0.6-2.4,0.2-4,0c0,0-0.1,0-0.1,0c-0.1,0-0.3,0-0.5,0h0
	c-0.2,0-0.5,0-0.7,0c-1.2,0.1-2.4,0.4-3.6,1c-2.3,1.1-4.2,3-5.3,4.7c-0.3,0.4-0.5,0.8-0.6,1.2c-0.2,0.6-0.3,1.3-0.3,2
	c0.1,1.1,0.5,2.2,1.2,3.2c0.1,0.2,0.3,0.4,0.5,0.6c0.3,0.4,0.7,0.8,1.1,1.1c0.2,0.2,0.4,0.3,0.7,0.5c0.5,0.3,1,0.6,1.6,0.8
	c1.2,0.5,2.3,0.6,3.5,0.6c1.4,0,2.8-0.2,4.3-0.2c0.4,0,0.9,0,1.3,0c0.2,0,0.4,0,0.7,0.1c2.6-0.5,7-3.1,12.6-5
	c-3,6.6-4.6,22.8,5.5,20.7C-161.6,452.4-162.7,460.7-153.5,465.4"/>
</svg>
