<?xml version="1.0" encoding="utf-8"?>
<!-- Generator: Adobe Illustrator 19.1.0, SVG Export Plug-In . SVG Version: 6.00 Build 0)  -->
<svg version="1.1" id="Layer_1" xmlns="http://www.w3.org/2000/svg" xmlns:xlink="http://www.w3.org/1999/xlink" x="0px" y="0px"
	 width="250px" height="250px" viewBox="-386 388 250 250" style="enable-background:new -386 388 250 250;" xml:space="preserve">
<g>
	<g>
		<g>
			<defs>
				<path id="SVGID_1_" d="M-204,436c-3.4,0.7-5.7,1.8-7.1,2.9l22.7-3.1c-1-0.1-2-0.2-2.9-0.3c-0.4-3.8,4.6-8.3,3.5-9.2
					c-0.5-0.5-1.2-0.7-2-0.7C-193.4,425.7-199.1,430-204,436"/>
			</defs>
			<clipPath id="SVGID_2_">
				<use xlink:href="#SVGID_1_"  style="overflow:visible;"/>
			</clipPath>
			
				<linearGradient id="SVGID_3_" gradientUnits="userSpaceOnUse" x1="-3777.981" y1="-874.6741" x2="-3776.981" y2="-874.6741" gradientTransform="matrix(22.9661 0.7613 -0.7613 22.9661 85888.7656 23395.9648)">
				<stop  offset="0" style="stop-color:#FFD700"/>
				<stop  offset="0.3156" style="stop-color:#FFD700"/>
				<stop  offset="1" style="stop-color:#F68F1E"/>
			</linearGradient>
			<polygon style="clip-path:url(#SVGID_2_);fill:url(#SVGID_3_);" points="-211,424.9 -186.3,425.7 -186.8,439.8 -211.5,439 			"/>
		</g>
	</g>
	<path style="fill:#FFFFFF;" d="M-166.4,458.5c-3.3-1.7-8.3-0.7-13.9-5.1c-0.5-1.4-0.9-3-1-4.7c-0.4-5.5-3.9-10.1-8.2-12.8l1.1-0.2
		c-0.5-0.1-1.1-0.1-1.6-0.2c-0.4-0.3-0.9-0.5-1.3-0.7c0.1-3.7,4.5-7.7,3.5-8.6c-2.2-1.9-6.8,0.3-11.5,4.7c0.9-3.2,3.9-6.3,3-7
		c-3-2.5-10.1,2.6-15.9,10.2c-3.4,0.8-5.7,1.9-7,3.2c-3.7,3.6-11,12.7-13.2,17.1c-1.7,3.3-4.3,10.9-8.6,11.7
		c-1.9,0.4-4.1,0.5-5.7,1.1c-0.6,0.2-0.3,0.2,0.3,0.2c-4.9,1-24,6.6-26.4,6.1c-2.6-0.5-18.4-1.5-22.2-2.1c-3.8-0.6-5.9-2.6-14.5-1.6
		c-3.6,0.5-7.5,1.9-11,3.7c-1-1.6-2.1-3-3.1-4.6c-1.6-2.5-3.1-5.1-4.2-7.9c-1.7-4.5-1.9-8.6,1.6-12.2c0.1-0.1-0.1,0.1,0,0
		c2.5-2.4,5.3-3.9,8.9-3.7c3.9,0.2,8.9,2.6,10.3,6.5c1.4,3.9-4.1,7.4-7.2,8.6c-1.6,0.6-3.3,0.7-4.9,0.4c-1.6-0.3-2.3,1.8-1,2.6
		c6.1,3.5,16.3,0.4,20.1-5.3c6.9-10.2-4.2-22-13.7-24.9c-9.2-2.8-19.3,0.4-25.4,7.7c-8.1,9.5-5.3,22.1,1.9,31.2
		c1.5,1.9,3.8,5.2,4.3,9.6c-7.6,7-10.9,18.6-11.3,25.8c-0.4,7.7,2.5,19.7,2.6,28.8c0,9.1-1.4,17.8-4.1,22.5
		c-2.8,4.7-5.4,6.9-5.3,12.1c0.1,5.1-1.2,23.7-0.1,28c1.1,4.3,7.5,4.8,10.5,4c3-0.8,3.4-1.5,3.4-1.5s-0.8-3.6-1.6-4
		c-0.8-0.4-2-1.1-2.8-4.6c-0.8-3.4-0.2-12.1,0.4-15.2c0.6-3.1,3-6.5,4.3-9.9c1.3-3.4,19.9-22,21.3-25.7c0.1-0.3,0.2-0.5,0.3-0.7
		c-0.7,4.3-1.8,8-3.3,10.6c-2.8,4.7-5.4,6.9-5.3,12.1c0.1,5.1-1.2,23.7-0.1,28c1.1,4.3,7.5,4.8,10.5,4c3-0.8,3.4-1.5,3.4-1.5
		s-0.8-3.6-1.6-4c-0.8-0.4-2-1.1-2.8-4.6c-0.8-3.4-0.2-12.1,0.4-15.2c0.6-3.1,3-6.5,4.3-9.9c1.3-3.4,19.9-22,21.3-25.7
		c0.2-0.4,0.5-1,0.9-1.7c6.4,1,20.7,0.1,25.8,1.8c3.6,1.2,7.6,2.1,12.2,3h0c1.2,1.4,6.1,6.2,5.1,13.3c-0.3,2.1,0.6,38.9,1.1,41.8
		c0.5,3,1.8,6.2,2.2,7.8c0.4,1.6,0.7,5.9,3.4,6.3c2.7,0.4,10.7,1.1,12.5,0.1c1.8-1-0.2-6.3-2.1-7.2c-1.9-0.9-3.9-0.2-4.4-4.4
		c-0.4-3.6-1.3-7.6-1.2-12.7c0,0.7,0.1,1.2,0.1,1.5c0.5,3,1.8,6.2,2.2,7.8c0.4,1.6,0.7,5.9,3.4,6.3c2.7,0.4,10.7,1.1,12.5,0.1
		c1.8-1-0.2-6.3-2.1-7.2c-1.9-0.9-3.9-0.2-4.4-4.4c-0.5-4.2-1.7-9.1-1-15.6s3-26.2,7.4-31.4c1.1-1.3,1.9-2.4,2.5-3.3
		c1.7-1.3,3.4-2.5,4.9-3.7c5.8-4.8,7.2-13.3,10.7-23c3.4-9.7,6.1-16.4,7-20c1.4-5.4,1.5-7.3,1.4-8c0-0.2,2.4-6.1,4.7-7.4
		c1.8-0.5,8.8-2.3,9.6-2.7c0.9-0.5,1.1-2.3,2.7-2.7c1.6-0.4,3.6-1.7,5-3.3C-164.6,464.7-165,459.5-166.4,458.5"/>
	<path style="fill:none;stroke:#231F20;stroke-width:9;stroke-linecap:round;stroke-linejoin:round;" d="M-166.4,458.5
		c-3.3-1.7-8.3-0.7-13.9-5.1c-0.5-1.4-0.9-3-1-4.7c-0.4-5.5-3.9-10.1-8.2-12.8l1.1-0.2c-0.5-0.1-1.1-0.1-1.6-0.2
		c-0.4-0.3-0.9-0.5-1.3-0.7c0.1-3.7,4.5-7.7,3.5-8.6c-2.2-1.9-6.8,0.3-11.5,4.7c0.9-3.2,3.9-6.3,3-7c-3-2.5-10.1,2.6-15.9,10.2
		c-3.4,0.8-5.7,1.9-7,3.2c-3.7,3.6-11,12.7-13.2,17.1c-1.7,3.3-4.3,10.9-8.6,11.7c-1.9,0.4-4.1,0.5-5.7,1.1
		c-0.6,0.2-0.3,0.2,0.3,0.2c-4.9,1-24,6.6-26.4,6.1c-2.6-0.5-18.4-1.5-22.2-2.1c-3.8-0.6-5.9-2.6-14.5-1.6c-3.6,0.5-7.5,1.9-11,3.7
		c-1-1.6-2.1-3-3.1-4.6c-1.6-2.5-3.1-5.1-4.2-7.9c-1.7-4.5-1.9-8.6,1.6-12.2c0.1-0.1-0.1,0.1,0,0c2.5-2.4,5.3-3.9,8.9-3.7
		c3.9,0.2,8.9,2.6,10.3,6.5c1.4,3.9-4.1,7.4-7.2,8.6c-1.6,0.6-3.3,0.7-4.9,0.4c-1.6-0.3-2.3,1.8-1,2.6c6.1,3.5,16.3,0.4,20.1-5.3
		c6.9-10.2-4.2-22-13.7-24.9c-9.2-2.8-19.3,0.4-25.4,7.7c-8.1,9.5-5.3,22.1,1.9,31.2c1.5,1.9,3.8,5.2,4.3,9.6
		c-7.6,7-10.9,18.6-11.3,25.8c-0.4,7.7,2.5,19.7,2.6,28.8c0,9.1-1.4,17.8-4.1,22.5c-2.8,4.7-5.4,6.9-5.3,12.1
		c0.1,5.1-1.2,23.7-0.1,28c1.1,4.3,7.5,4.8,10.5,4c3-0.8,3.4-1.5,3.4-1.5s-0.8-3.6-1.6-4c-0.8-0.4-2-1.1-2.8-4.6
		c-0.8-3.4-0.2-12.1,0.4-15.2c0.6-3.1,3-6.5,4.3-9.9c1.3-3.4,19.9-22,21.3-25.7c0.1-0.3,0.2-0.5,0.3-0.7c-0.7,4.3-1.8,8-3.3,10.6
		c-2.8,4.7-5.4,6.9-5.3,12.1c0.1,5.1-1.2,23.7-0.1,28c1.1,4.3,7.5,4.8,10.5,4c3-0.8,3.4-1.5,3.4-1.5s-0.8-3.6-1.6-4
		c-0.8-0.4-2-1.1-2.8-4.6c-0.8-3.4-0.2-12.1,0.4-15.2c0.6-3.1,3-6.5,4.3-9.9c1.3-3.4,19.9-22,21.3-25.7c0.2-0.4,0.5-1,0.9-1.7
		c6.4,1,20.7,0.1,25.8,1.8c3.6,1.2,7.6,2.1,12.2,3h0c1.2,1.4,6.1,6.2,5.1,13.3c-0.3,2.1,0.6,38.9,1.1,41.8c0.5,3,1.8,6.2,2.2,7.8
		c0.4,1.6,0.7,5.9,3.4,6.3c2.7,0.4,10.7,1.1,12.5,0.1c1.8-1-0.2-6.3-2.1-7.2c-1.9-0.9-3.9-0.2-4.4-4.4c-0.4-3.6-1.3-7.6-1.2-12.7
		c0,0.7,0.1,1.2,0.1,1.5c0.5,3,1.8,6.2,2.2,7.8c0.4,1.6,0.7,5.9,3.4,6.3c2.7,0.4,10.7,1.1,12.5,0.1c1.8-1-0.2-6.3-2.1-7.2
		c-1.9-0.9-3.9-0.2-4.4-4.4c-0.5-4.2-1.7-9.1-1-15.6s3-26.2,7.4-31.4c1.1-1.3,1.9-2.4,2.5-3.3c1.7-1.3,3.4-2.5,4.9-3.7
		c5.8-4.8,7.2-13.3,10.7-23c3.4-9.7,6.1-16.4,7-20c1.4-5.4,1.5-7.3,1.4-8c0-0.2,2.4-6.1,4.7-7.4c1.8-0.5,8.8-2.3,9.6-2.7
		c0.9-0.5,1.1-2.3,2.7-2.7c1.6-0.4,3.6-1.7,5-3.3C-164.6,464.7-165,459.5-166.4,458.5z"/>
	<path style="fill:#F16722;" d="M-317.6,495.6c-0.4,7.7,3.2,24.7,3.3,33.8c0,9.1-1.4,17.8-4.1,22.5c-2.8,4.7-5.4,6.9-5.3,12.1
		c0.1,5.1-1.2,23.7-0.1,28c1.1,4.3,7.5,4.8,10.5,4c3-0.8,3.4-1.5,3.4-1.5s-0.8-3.6-1.6-4c-0.8-0.4-2-1.1-2.8-4.6s-0.2-12.1,0.4-15.2
		c0.6-3.1,3-6.5,4.3-9.9c1.3-3.4,19.9-22,21.3-25.7c1.3-3.7,14.1-17.4,18-21.4"/>
	<path style="fill:#F16722;" d="M-204.1,529.6c-6.6,3.7-6.1,5.6-10.5,10.8c-4.4,5.2-6.7,24.9-7.4,31.4c-0.7,6.5,0.5,11.4,1,15.6
		c0.5,4.2,2.6,3.6,4.4,4.4c1.9,0.9,3.9,6.2,2.1,7.2s-9.8,0.2-12.5-0.1c-2.7-0.4-3-4.7-3.4-6.3c-0.4-1.6-1.6-4.8-2.2-7.8
		c-0.5-3-1.4-39.7-1.1-41.8c0.3-2.1-1.5-7.4-2.6-8.8"/>
	<g>
		<g>
			<defs>
				<path id="SVGID_4_" d="M-212.2,434.2c-3.4,0.8-5.7,1.9-7,3.2c-3.7,3.6-11,12.7-13.2,17.1c-1.7,3.3-4.3,10.9-8.6,11.7
					c-1.9,0.4-4.1,0.5-5.7,1.1c-0.6,0.2-0.3,0.2,0.3,0.2c-4.9,1-24,6.6-26.4,6.1c-2.6-0.5-18.4-1.5-22.2-2.1
					c-3.8-0.6-5.9-2.6-14.5-1.5c-3.6,0.5-7.5,1.9-11,3.7c-0.9-1.6-2.1-3.1-3.1-4.6c-1.6-2.5-3.1-5.1-4.2-7.9
					c-1.7-4.5-1.9-8.6,1.6-12.2c0,0,0,0,0,0c0,0,0,0,0,0c2.5-2.4,5.3-3.9,8.9-3.7c3.9,0.2,8.9,2.6,10.3,6.5c1.4,3.9-4.1,7.4-7.2,8.6
					c-1.6,0.6-3.3,0.7-4.9,0.4c-1.6-0.3-2.3,1.8-1,2.6c6.1,3.5,16.3,0.4,20.1-5.3c6.9-10.2-4.2-22-13.7-24.9
					c-9.2-2.8-19.3,0.4-25.4,7.7c-8.1,9.5-5.3,22.1,1.9,31.2c1.5,1.9,3.8,5.2,4.3,9.6c-7.6,7-10.9,18.6-11.2,25.8
					c-0.4,7.8,2.5,19.7,2.6,28.8c0,9.1-1.4,17.8-4.1,22.5c-2.8,4.7-5.4,6.9-5.3,12.1c0.1,5.1-1.2,23.7-0.1,28
					c1.1,4.3,7.5,4.8,10.5,4c3-0.8,3.4-1.5,3.4-1.5s-0.8-3.6-1.6-4c-0.8-0.4-2-1.1-2.8-4.6c-0.8-3.4-0.2-12.1,0.4-15.2
					c0.6-3.1,3-6.5,4.3-9.9c1.3-3.4,19.9-22,21.3-25.7c3-8,48.1-8.8,53.9-6.8c3.6,1.2,7.6,2.1,12.2,3c1.2,1.4,6.1,6.2,5.1,13.3
					c-0.3,2.1,0.6,38.9,1.1,41.8c0.5,3,1.8,6.2,2.2,7.8c0.4,1.6,0.7,5.9,3.4,6.3c2.7,0.4,10.7,1.1,12.5,0.1c1.8-1-0.2-6.3-2.1-7.2
					c-1.9-0.9-3.9-0.2-4.4-4.4c-0.5-4.2-1.7-9.1-1-15.6c0.7-6.5,3-26.2,7.4-31.4c1.1-1.4,1.9-2.5,2.6-3.5
					c4.1-4.4,10.7-8.3,15.3-12.2c5.8-4.8,7.2-13.3,10.7-23c3.4-9.7,6.1-16.4,7-20c1.4-5.4,1.5-7.3,1.4-8c0-0.2,2.4-6.1,4.7-7.4
					c1.8-0.5,8.8-2.3,9.6-2.7c0.9-0.5,1.1-2.3,2.7-2.7c1.6-0.4,3.5-1.7,5-3.3c1.4-1.6,1-6.7-0.4-7.7c-3.3-1.7-8.3-0.7-13.9-5.1
					c-0.5-1.4-0.9-3-1-4.7c-0.6-8.4-8.4-14.7-15.3-15.3c-1-0.1-2-0.1-2.9-0.2c-0.5-3.8,4.3-8.4,3.2-9.3c-0.5-0.4-1.2-0.6-1.9-0.6
					C-201.8,423.4-207.4,428-212.2,434.2"/>
			</defs>
			<clipPath id="SVGID_5_">
				<use xlink:href="#SVGID_4_"  style="overflow:visible;"/>
			</clipPath>
			
				<linearGradient id="SVGID_6_" gradientUnits="userSpaceOnUse" x1="-3757.5229" y1="-902.6732" x2="-3756.5234" y2="-902.6732" gradientTransform="matrix(186.4041 0 0 186.4041 700066.0625 168777.9531)">
				<stop  offset="0" style="stop-color:#FFD700"/>
				<stop  offset="0.3156" style="stop-color:#FFD700"/>
				<stop  offset="1" style="stop-color:#F68F1E"/>
			</linearGradient>
			<rect x="-352.2" y="423.4" style="clip-path:url(#SVGID_5_);fill:url(#SVGID_6_);" width="187.6" height="185.2"/>
		</g>
	</g>
	<path style="fill:#FFFFFF;" d="M-336.5,503.1c0,0,1.7-28.3,36.7-28.7c35-0.3,28,8,53,0c0,0-26,13-46.7,11
		C-314.1,483.4-329.1,492-336.5,503.1"/>
</g>
</svg>
