<?xml version="1.0" encoding="utf-8"?>
<!-- Generator: Adobe Illustrator 19.1.0, SVG Export Plug-In . SVG Version: 6.00 Build 0)  -->
<svg version="1.1" id="Layer_1" xmlns="http://www.w3.org/2000/svg" xmlns:xlink="http://www.w3.org/1999/xlink" x="0px" y="0px"
	 width="300px" height="300px" viewBox="-361 363 300 300" style="enable-background:new -361 363 300 300;" xml:space="preserve">
<path style="fill:#FFFFFF;" d="M-171.8,616.2c2.2,4.1,2.5,4.2,2.5,4.2h13.8c0,0-0.1-0.4-1.3-6L-171.8,616.2z"/>
<path style="fill:none;stroke:#000000;stroke-width:9;stroke-miterlimit:10;" d="M-108.3,435.1c-4.2-5-11.1-13.1-13.5-13.3
	c-3.5-0.3-0.8,6.5-3.3,9.8c-2.8,4.5-16.8,4.3-22.5,4.3s-15.5-0.9-21.5,0.8c-4-2.7-6.5-19.3-8.5-21.8c-10.3,0.3-13,18.3-13.3,29.8
	c0,0-37.3,9.3-43.5,23.8s-17.3,20.3-22.5,22.8c-50,23.3-44.5,62.5-45.8,79.5c-0.8,11.5,3.4,23.6,8.2,31.8c-4.2,1-8.1,1.6-9.6,1.6
	c-0.1,0,0.2,0,0.1,0c-3,0.1-6-3.7-3.8-5.7c0.5-0.4,1.2-0.5,1.8-0.3c0.1,0,0.1,0,0.2,0.1c1.7,0.6,3.2-1.3,2.2-2.7
	c-0.8-1.1-1.8-2-3.1-2.2l0.3,0c-7.2-1.6-10,8.1-7.3,13.2c1.7,3.2,5.2,5,8.8,5.4c4.6,0.5,9.4-1.1,13.4-3.2c0.3-0.1,0.6-0.3,1-0.5
	c1,1.2,2,2.2,2.9,3c4.8,10.3,15.3,9.3,15.3,9.3h76.8c-1-10.5-7-11-12.3-11.5c13.3-3.5,21.4-15.6,24.4-22.8
	c2.7,16.5,14.1,34.3,14.1,34.3h13.8c0,0-0.4-1.9-1.1-5c0.4,0.9,0.6,1.4,0.6,1.4h13.8c0,0-15.9-43-14.5-66
	c6.6-9.6,15.2-23.8,16.4-27.4c1.8-5-2.3-16.5,0-20.8c9.3-1.3,13-9.8,15.3-14.3s1.3-12.8,3.3-20.5c1.4-5.6,9.6-18.1,13.9-24.6
	C-106.2,440.7-106.4,437.4-108.3,435.1z"/>
<path style="fill:#F26722;" d="M-156.2,546.2c-4.3,21.3,13.9,70.4,13.9,70.4H-156c0,0-13.1-27.3-15.8-43.8"/>
<path style="fill:#FFFFFF;" d="M-156,616.7h13.8c0,0-0.3-0.5-2.4-7l-13.8,2.5C-156.3,617.1-156,616.7-156,616.7"/>
<g>
	<g>
		<defs>
			<path id="SVGID_1_" d="M-190.9,444.6c0,0-37.3,9.3-43.5,23.8s-17.3,20.2-22.5,22.8c-50,23.3-44.5,62.5-45.8,79.5
				c-0.8,11.5,3.4,23.6,8.2,31.8c-4.2,1-8.1,1.6-9.6,1.6c-0.1,0,0,0,0.1,0c0,0,0.1,0,0.1,0c-3,0.1-6-3.7-3.8-5.7
				c0.5-0.4,1.2-0.5,1.8-0.3c0.1,0,0.1,0,0.2,0.1c1.7,0.6,3.2-1.3,2.2-2.7c-0.8-1.1-1.8-2-3.1-2.2l0.3,0c-7.2-1.6-10,8.1-7.3,13.2
				c1.7,3.2,5.2,5,8.8,5.4c4.6,0.5,9.4-1.1,13.4-3.2c0.3-0.1,0.6-0.3,1-0.5c1,1.2,2,2.2,2.9,3c4.8,10.3,15.3,9.3,15.3,9.3h76.7
				c-1-10.5-7-11-12.3-11.5c13.3-3.5,21.4-15.6,24.4-22.8c2.7,16.5,14.1,34.3,14.1,34.3h13.8c0,0-12.3-56.5-7.5-61.3
				c4.7-4.8,21-30.8,22.8-35.8c1.7-5-2.3-16.5,0-20.8c9.2-1.2,13-9.7,15.3-14.3c2.2-4.5,1.2-12.7,3.2-20.5
				c1.4-5.6,9.6-18.1,13.9-24.6c1.7-2.5,1.5-5.8-0.4-8.1c-4.2-5-11.1-13.1-13.5-13.3c-3.5-0.3-0.8,6.5-3.2,9.8
				c-2.8,4.5-16.8,4.3-22.5,4.3c-5.8,0-15.5-0.9-21.5,0.8c-4-2.7-6.5-19.3-8.5-21.8C-187.9,415.1-190.6,433.1-190.9,444.6"/>
		</defs>
		<clipPath id="SVGID_2_">
			<use xlink:href="#SVGID_1_"  style="overflow:visible;"/>
		</clipPath>
		
			<linearGradient id="SVGID_3_" gradientUnits="userSpaceOnUse" x1="-3710.2205" y1="-901.7991" x2="-3709.2205" y2="-901.7991" gradientTransform="matrix(207.8705 0 0 207.8705 770930.5 187975.5)">
			<stop  offset="0" style="stop-color:#FFCB05"/>
			<stop  offset="0.3156" style="stop-color:#FFCB05"/>
			<stop  offset="0.8667" style="stop-color:#FAA41A"/>
			<stop  offset="1" style="stop-color:#FAA41A"/>
		</linearGradient>
		<rect x="-316.3" y="414.8" style="clip-path:url(#SVGID_2_);fill:url(#SVGID_3_);" width="210.1" height="206.5"/>
	</g>
</g>
<path style="fill:#FFFFFF;" d="M-204.6,459.8c0,0-0.5,0.1-1.5,0.4c-0.5,0.1-1.1,0.3-1.8,0.5c-0.7,0.3-1.5,0.5-2.3,0.9
	c-1.7,0.7-3.7,1.6-5.8,3c-2.1,1.3-4.3,3-6.4,5.1c-2,2.1-3.9,4.7-5.1,7.6c-0.4,0.7-0.6,1.5-0.9,2.3c-0.3,0.9-0.6,1.8-0.9,2.7
	l-0.2,0.7l-0.3,0.8c-0.2,0.5-0.4,1-0.7,1.6c-0.5,1-1,2-1.5,3c-2.3,3.9-5.6,7.7-9.8,10.3c-1,0.6-2.1,1.2-3.2,1.8
	c-1.1,0.5-2.2,1-3.1,1.4c-1.9,0.7-3.6,1.6-5.4,2.5c-3.5,1.8-6.9,4-10.1,6.3c-1.6,1.2-3.1,2.4-4.5,3.7c-1.4,1.3-2.8,2.6-4.1,4
	c-2.6,2.7-4.9,5.6-6.8,8.5c-2,2.9-3.6,5.8-4.9,8.5c-0.6,1.4-1.3,2.7-1.8,4.1c-0.3,0.7-0.5,1.3-0.8,1.9c-0.2,0.6-0.5,1.3-0.7,1.9
	c-0.5,1.2-0.8,2.3-1.1,3.4c-0.4,1.1-0.6,2.1-0.9,2.9c-0.5,1.8-0.9,3.2-1.1,4.2c-0.3,1-0.4,1.5-0.4,1.5s0-0.5-0.1-1.5
	c-0.1-1-0.2-2.5-0.2-4.4c0-1,0-2,0.1-3.2c0.1-1.2,0.1-2.4,0.3-3.7c0.3-2.7,0.9-5.7,1.8-8.9c0.9-3.2,2.2-6.6,4-10.1
	c1.8-3.5,4-7,6.6-10.3c2.7-3.3,5.8-6.5,9.3-9.3c3.5-2.9,7.3-5.3,11.3-7.5c2-1,4.2-2,6.2-2.8c1-0.4,1.9-0.7,2.7-1.1
	c0.8-0.4,1.6-0.8,2.4-1.2c1.5-0.9,2.9-1.9,4.2-3.1c1.2-1.2,2.4-2.5,3.4-3.9c0.5-0.7,1-1.5,1.4-2.2c0.2-0.4,0.4-0.7,0.6-1.1l0.3-0.5
	l0.3-0.7c0.4-0.9,0.8-1.7,1.2-2.6c0.5-1,0.9-1.9,1.5-2.8c2.1-3.6,4.9-6.4,7.7-8.4c2.8-2.1,5.7-3.4,8.3-4.3c2.6-0.9,4.9-1.4,6.9-1.6
	c1.9-0.2,3.4-0.2,4.5-0.2C-205.2,459.7-204.6,459.8-204.6,459.8"/>
<path style="fill:#FFFFFF;" d="M-195.6,620.3c-0.7-7.8-4.2-10.1-8.1-10.9l-7,10.9H-195.6z"/>
</svg>
