<?xml version="1.0" encoding="utf-8"?>
<!-- Generator: Adobe Illustrator 19.1.0, SVG Export Plug-In . SVG Version: 6.00 Build 0)  -->
<svg version="1.1" id="Layer_1" xmlns="http://www.w3.org/2000/svg" xmlns:xlink="http://www.w3.org/1999/xlink" x="0px" y="0px"
	 width="250px" height="250px" viewBox="-386 388 250 250" style="enable-background:new -386 388 250 250;" xml:space="preserve">
<g>
	<path style="fill:none;stroke:#000000;stroke-width:9;stroke-linejoin:round;stroke-miterlimit:10;" d="M-162.7,440.3
		c-1.6-3.9-3.1-7.6-6.2-11.9c20.5-3.3,22.2-13.7,22.8-17.1c-12.6,14.3-30.4,5.8-47.8,7c-0.6-2.4,1.7-5,3.5-4.8
		c34.1,5.1,38.5-8.5,39.7-12.5c-14.6,12.4-31.2,1.2-48.7,0.1c-17.5-1.2-18.3,11.7-16.7,21.8c-11.7-10.1-24.9-1.6-21.8,0
		c3.1,1.6,20.2,6.3,15.9,6.6c-33.8,2.7-62.2,19-65.3,28.8c-3.1,9.7-5.8,11.7-10.9,12.4c-18.3,3.5-29.5,16.3-37.3,23.7
		c-4.7,4.4-12.1,7-18.3,9.8c-3.4-4.8-6.2-10.4-7.7-14.3c-3.9-9.8-5.1-20.2-2.2-30.4c0,0-0.1,0.3,0,0.1c2.3-6.3,4.5-12.8,9.4-17.5
		c14.3-13.6,26.1-14.6,26.1-14.8c3.4,1.9,9.7,3.2,16.9,3.2c10.8,0,14.8,3.2,16.7,2.2c-1.3-4.3-5.9-15.1-16.7-15.1
		c-7.7,0-14.3,1.5-17.5,3.6c0-0.1-9.9,3.1-13.9,4.9c-6.9,3.2-13.2,7.8-18.3,13.5c-4.4,4.9-8.2,10.7-10.7,16.9
		c-5.2,12.7-2.9,42.1,7.5,58.1c-1.7,11.5,0.9,23.9,2.3,25.7c1.6,1.9,8.3,5.4,14.5,29.9c4.4,17.2-0.3,25.9-3.2,30.7
		c-1.2,2-1.3,4.5-0.1,6.6c3.2,5.7,7.5,19.1,7.5,19.1h11.3l-1.2-3.1c-5.4-7.4-5.7-22.2,0-28c11.1-11.3,21.4-23.7,23.7-29.9
		c1-2.5,2.1-5,3.7-7.4c0.7,3.2,1.6,7.1,2.9,12.1c3.8,15,6.5,23.3,4,27.5c-1.1,1.8-1.1,4-0.1,5.8c2.8,4.9,6.6,16.6,6.6,16.6h9.8
		l-1-2.7c-4.7-6.4-4.9-19.4,0-24.4c9.7-9.8,18.7-20.7,20.7-26.1c1.7-4.5-7.4-16.6-6.1-22.9c14-0.4,29.1,0.3,33.8-0.5
		c3.4-0.6,10.1-2.5,16.8-4.5c7.2,4.8,16.1,9.4,21.5,12.1c-0.4,5.6-3.2,13.2-5.7,20.4c-0.9,2.5-3,7.1-3.3,9.8
		c0.2,1.3,1.8,1.6,3.4,2.3c1.9,0.9,2,1.3,3.2,0.4c2.2-1.6,14.9-25.2,16.3-28.9c2.2-5.8,3.5-8.3-1.6-14.6c-2.8-3.5-5.5-7-8.5-10.4
		c1.8-1.1,3.6-2.5,4.7-4.3c0.9-1.3,1.6-3.9,2.1-7c5.8,0.3,11.4,0.3,15.3,0.3c2.2,5.2,3.1,13.3,4.1,20.7c0.4,2.6,0.6,7.7,1.5,10.3
		c0.8,1.1,2.3,0.6,4.1,0.5c2.1-0.1,2.3,0.3,3.1-1.1c1.3-2.4,2-29.2,1.5-33.1c-0.7-6.2-0.6-9-8-12.3c-7.2-3.2-14.4-6.8-22-8.8
		c-0.2-0.7-0.4-1.3-0.7-1.8c-3.1-6.2-2.3-11.1-0.3-18.7c2.2-8.2,1.7-12.9,9-12.5c7.4,0.4,8.7,9.8,18.5,7.1
		c9.7-2.7,15.1-10.2,13.9-12.9C-147.4,453.5-160.3,445.7-162.7,440.3z"/>
	<path style="fill:#F26722;" d="M-164.6,503.8c-7.7-3.5-15.5-7.4-23.8-9.2c-7.7-1.7-15.7-3-21.4,3.7c-0.5,2.7-1.6,5.6-0.7,8.1
		c1.4,4.1,2.9,9,6.8,10c9.5,2.5,24.7,2.5,32.9,2.5c2.2,5.2,3.1,13.3,4.1,20.7c0.4,2.6,0.6,7.7,1.5,10.3c0.8,1.1,2.3,0.6,4.1,0.5
		c2.1-0.1,2.3,0.3,3.1-1.1c1.3-2.4,2-29.2,1.5-33.1C-157.2,509.9-157.2,507.2-164.6,503.8"/>
	<path style="fill:#F26722;" d="M-207.6,442.3c-3-9.8-4.1-22.6,13.4-23.9c17.5-1.4,35.5,7.3,48.2-7.1c-0.7,4.1-3,18.3-37.5,18.1
		c-2.4,0-5,5.3-0.6,7.2"/>
	<path style="fill:#F26722;" d="M-266.6,540.8c-7.8,4.1,5.9,20.5,3.8,26c-2,5.4-11,16.3-20.7,26.1c-4.9,5-4.7,18,0,24.4l1,2.7h-9.8
		c0,0-3.7-11.7-6.6-16.6c-1-1.8-1-4,0.1-5.8c2.5-4.2-0.2-12.5-4-27.5c-5.4-21.4-4.5-23.7-5.8-25.4"/>
	<g>
		<g>
			<defs>
				<path id="SVGID_1_" d="M-216.1,422.9c-11.7-10.1-24.9-1.6-21.8,0c3.1,1.6,20.2,6.3,15.9,6.6c-33.8,2.7-62.2,19-65.3,28.8
					c-3.1,9.7-5.8,11.7-10.9,12.4c-18.3,3.5-29.5,16.3-37.3,23.7c-4.6,4.4-12.1,7-18.3,9.8c-3.4-4.8-6.2-10.4-7.7-14.3
					c-3.9-9.8-5.1-20.2-2.2-30.4c0,0,0,0,0,0.1c0,0,0,0,0,0c0,0,0,0,0,0c2.3-6.3,4.5-12.8,9.4-17.5c14.3-13.6,26.1-14.6,26.1-14.8
					c3.4,1.9,9.7,3.2,16.9,3.2c10.8,0,14.8,3.2,16.7,2.2c-1.3-4.3-5.9-15.1-16.7-15.1c-7.7,0-14.3,1.5-17.5,3.6
					c0-0.1-9.9,3.1-13.9,4.9c-6.9,3.2-13.2,7.8-18.3,13.5c-4.4,4.9-8.2,10.7-10.7,16.9c-5.2,12.7-2.9,42.1,7.5,58.1
					c-1.7,11.5,0.9,23.9,2.3,25.7c1.6,1.9,8.3,5.4,14.5,29.9c4.4,17.2-0.3,25.9-3.2,30.7c-1.2,2-1.3,4.5-0.1,6.6
					c3.2,5.7,7.5,19.1,7.5,19.1h11.3l-1.2-3.1c-5.4-7.4-5.7-22.2,0-28c11.1-11.3,21.4-23.7,23.7-29.9c2.3-6.2,5.8-12.2,14.8-16.9
					c5.5-5,27-4.9,42.9-4.8c7.5,0,13.8,0.1,16.6-0.4c3.4-0.6,10.1-2.5,16.8-4.5c7.2,4.8,16.1,9.4,21.5,12.1
					c-0.4,5.6-3.2,13.2-5.7,20.4c-0.9,2.5-3,7.1-3.3,9.8c0.2,1.3,1.8,1.6,3.4,2.3c1.9,0.9,2,1.3,3.2,0.4
					c2.2-1.6,14.9-25.2,16.3-28.9c2.2-5.8,3.5-8.3-1.6-14.6c-2.8-3.5-5.5-7-8.5-10.4c1.8-1.1,3.6-2.5,4.7-4.3
					c3.2-4.9,4-26.1,0.9-32.3c-3.1-6.2-2.3-11.1-0.3-18.6c2.2-8.2,1.7-12.9,9-12.5c7.4,0.4,8.7,9.8,18.5,7.1
					c9.7-2.7,15.1-10.2,13.9-12.9c-1.2-2.7-14.1-10.5-16.4-15.9s-4.2-10.7-11.1-17.6c-3.8-2.1-7.2-1.8-10.5-1.5
					c-2.7,0.2-5.2,0.4-7.8-0.6c-4.1-2.4-0.7-7.4,1.7-7c34.1,5.1,38.5-8.5,39.7-12.5c-14.6,12.4-31.2,1.2-48.7,0.1
					c-0.7-0.1-1.5-0.1-2.2-0.1C-216.9,401.1-217.6,413.2-216.1,422.9"/>
			</defs>
			<clipPath id="SVGID_2_">
				<use xlink:href="#SVGID_1_"  style="overflow:visible;"/>
			</clipPath>
			
				<linearGradient id="SVGID_3_" gradientUnits="userSpaceOnUse" x1="-3756.3718" y1="-899.1396" x2="-3755.3718" y2="-899.1396" gradientTransform="matrix(228.23 0 0 228.23 856942.4375 205724.4063)">
				<stop  offset="0" style="stop-color:#FFCB05"/>
				<stop  offset="0.3156" style="stop-color:#FFCB05"/>
				<stop  offset="0.8667" style="stop-color:#FAA41A"/>
				<stop  offset="1" style="stop-color:#FAA41A"/>
			</linearGradient>
			<rect x="-376.9" y="401.1" style="clip-path:url(#SVGID_2_);fill:url(#SVGID_3_);" width="231.8" height="225.4"/>
		</g>
	</g>
	<path style="fill:#FFFFFF;" d="M-193.8,404.4c0,0-0.5,0-1.4,0c-0.8,0-2,0-3.4,0.1c-1.4,0.1-3,0.3-4.6,0.8c-1.6,0.5-3.2,1.1-4.5,2.2
		c-0.7,0.5-1.3,1.1-1.8,1.7c-0.5,0.6-1,1.3-1.4,2.1c-0.4,0.7-0.7,1.5-1,2.2c-0.3,0.7-0.5,1.4-0.7,2.1c-0.2,0.7-0.4,1.3-0.5,1.9
		c-0.1,0.6-0.3,1.1-0.3,1.5c-0.2,0.8-0.3,1.3-0.3,1.3s-0.1-0.5-0.3-1.3c-0.1-0.4-0.2-0.9-0.2-1.6c-0.1-0.6-0.1-1.3-0.1-2
		c0-0.8,0.1-1.6,0.2-2.5c0.2-0.9,0.4-1.8,0.8-2.7c0.4-0.9,0.8-1.9,1.5-2.7c0.6-0.9,1.4-1.7,2.3-2.3c0.9-0.7,1.8-1.2,2.8-1.6
		c1-0.4,2-0.6,3-0.8c1.9-0.3,3.7-0.2,5.2,0.1c1.5,0.3,2.7,0.7,3.5,1C-194.2,404.1-193.8,404.4-193.8,404.4"/>
	<path style="fill:#FFFFFF;" d="M-260.2,446.5c0,0-1.1,0.6-2.9,1.6c-1.9,1-4.5,2.5-7.7,4.2c-1.6,0.9-3.2,1.9-4.9,3
		c-1.6,1.1-3.3,2.4-4.4,4c-0.6,0.8-0.9,1.6-1.1,2.4l-0.1,0.6c0,0.3,0,0.6-0.1,0.9c0,0.6-0.1,1.3-0.2,1.9c-0.4,2.5-1.1,5.1-2.4,7.5
		c-0.7,1.2-1.5,2.3-2.5,3.4c-0.5,0.5-1.1,1-1.8,1.4l-0.2,0.1l-0.1,0.1l-0.1,0l-0.1,0.1l-0.4,0.2c-0.3,0.1-0.5,0.2-0.9,0.4l-0.9,0.3
		l-0.9,0.3c-0.6,0.2-1.1,0.3-1.7,0.5c-1.1,0.3-2.2,0.7-3.3,1c-2.2,0.7-4.2,1.3-6.2,1.9c-2,0.6-3.8,1.2-5.5,1.8
		c-1.7,0.6-3.2,1.2-4.5,1.8c-1.3,0.6-2.4,1.2-3.3,1.7c-0.4,0.3-0.8,0.5-1.2,0.8c-0.4,0.2-0.6,0.5-0.8,0.7c-0.4,0.4-0.7,0.6-0.7,0.6
		s0.2-0.3,0.5-0.7c0.3-0.5,0.9-1.1,1.6-1.9c0.8-0.7,1.8-1.6,3.1-2.4c1.2-0.9,2.7-1.7,4.4-2.6c0.8-0.4,1.7-0.8,2.6-1.3
		c0.9-0.4,1.8-0.8,2.8-1.2c1.9-0.8,4-1.7,6.1-2.4c1.1-0.4,2.1-0.8,3.2-1.2c0.5-0.2,1.1-0.4,1.6-0.6l0.8-0.3l0.7-0.3
		c0.2-0.1,0.5-0.2,0.8-0.3l0.4-0.2c-0.2,0.1,0,0-0.1,0l0,0l0,0l0.1,0l0.1-0.1c0.4-0.2,0.7-0.5,1.1-0.8c0.7-0.7,1.3-1.5,1.8-2.4
		c1-1.9,1.7-4,2.1-6.2c0.1-0.5,0.2-1,0.2-1.6c0-0.3,0.1-0.6,0.1-0.9l0.2-1.1c0.4-1.4,1.1-2.7,2-3.7c1.7-2.1,3.7-3.3,5.6-4.3
		c1.9-1.1,3.7-1.8,5.5-2.5c3.4-1.4,6.3-2.3,8.4-2.9C-261.4,446.8-260.2,446.5-260.2,446.5"/>
</g>
</svg>
