<?xml version="1.0" encoding="utf-8"?>
<!-- Generator: Adobe Illustrator 19.1.0, SVG Export Plug-In . SVG Version: 6.00 Build 0)  -->
<svg version="1.1" id="Layer_1" xmlns="http://www.w3.org/2000/svg" xmlns:xlink="http://www.w3.org/1999/xlink" x="0px" y="0px"
	 width="300px" height="300px" viewBox="-361 363 300 300" style="enable-background:new -361 363 300 300;" xml:space="preserve">
<path style="fill:#231F20;" d="M-128.2,420c0.3,0,0.6,0,0.9,0c1.7,0.2,2.9,0.9,2.9,2.6c0,1.1-0.2,2.2-0.4,3.4
	c-1,5.3-2,10.5-3.1,15.8c-0.6,2.9-3.3,14-3.9,17c-0.6,3.5-9,14.7-10.6,17.7c-0.1,0.1,0,0.7,0.1,1.5c4,1.8,8.1,3.6,9.7,4.5
	c3.2,1.7,6,3.7,7.9,6.7c1.7,2.7,3.3,5.4,4.9,8.1c0.4,0.7,2.6,4.9,3.4,6.1c1.4,2.2,3,4.1,3.8,6.9c1.4,4.6,1.1,8.7-0.9,13.1
	c-0.1-0.1-0.2-0.1-0.3-0.1c-0.4,0-0.5,0.6-0.8,0.6c-0.1,0-0.1,0-0.2-0.1c0,0-1.8,1-2.9,1c-0.2,0-0.3,0-0.4-0.1
	c-0.9,0.4-1.7,0.8-2.4,1.3c-1.1,0.6-3.7,0.8-5.9,0.8c-1.3,0-2.4,0-3,0c-0.2,0-0.3,0-0.4,0c0,0,0,0,0,0c0,0-0.7,6.1-1.1,7.3
	c0,1.5-1.3,3.6-1.8,5.1c-0.6,1.7-1.1,3.4-1.7,5.1c-0.3,0.8-0.8,1.8-1.6,1.8c-0.1,0-0.1,0-0.2,0c0.6,1.3,1,2.8,0.9,4.3
	c0,0.9-1.6,2.2-1.7,2.6c0,0,0,0-0.1,0c-0.4,0-0.9,5.8-3.2,8.5c-2.3,2.9-17,12.9-17.3,13.3c-0.5,0.5-6,2.8-6.8,2.8c0,0-0.1,0-0.1,0
	c-0.6,1.1-1,3.1-1.3,3.1c0,0,0,0,0,0c-0.2,1.9,1,4.2,1.7,5.9c0.1,0,0.1-0.1,0.2-0.1c0.1,0.6,0.3,1.1,0.5,1.7c0.3,0.8,0.6,1.5,0.9,2
	c0,0.1,0.1,0.1,0.1,0.2c1.4,2.2,10.1,5.1,10.1,5.1l3.9,1.7c0,0,1.5,3.9,1.5,7.1c0,2.3-1.3,2.6-2.1,2.6c-0.3,0-0.5-0.1-0.5-0.1
	l-16.9-0.3c-0.8,0.2-2.3,0.3-3.2,0.3c-0.5,0-0.8,0-0.8,0c-0.8-0.1-1.6-0.1-2.4-0.1c-0.5,0-1.1-0.6-1.5-1.1c-1.1-1-2-2.2-3.3-3
	c-3-1.8-4.9-4.6-7.1-7.1c-2.3-2.5-7.7-13.3-8.6-13.3c0,0,0,0-0.1,0c0-0.1-3-1.2-5.9-1.2c-1.4,0-2.9,0.3-4,1.1
	c-3.5,2.5-4.1,2-6.3,4.8c-2.2,2.9-13,2.5-11.5,3c1.5,0.5,10.3,4.4,13,6.9c5,7.7-6.7,9.3-13.6,9.3c-2.2,0-3.8-0.2-4.4-0.3
	c0,0,0,0-0.2,0c-2,0-15.5,0.8-15.5,0.8c-11.6-0.4-23-0.2-34.1-2.1c0,0-8.1-1-9.6-1.4c-1.5-0.4-2.2-3.8-3-5.7c-0.8-1.9-3.4-3-6.1-3.7
	c-1.1-0.3-1.3-0.8-1.2-1.4c0-0.1-7.5-1.7-7.5-1.7s-1.7-2.2-2.6-3.1c-0.9-0.9-1.5-6.1-1.5-6.1s-2.4-4.8-2.4-6.4c0-1.7,2-8.1,2-8.1
	s2.8,1.9,4,3.5c1.5,1.7,2.9,2.5,4.3,2.5c0.9,0,1.8-0.3,2.6-0.9c-0.2-2.3,0.2-4.7,0.6-6.9c0.6-3.3,1.5-6.6,2.6-9.9
	c1.5-4.4,15.2-26.9,16.8-28.5c23.4-24.3,52.7-27.6,67-27.6c4.9,0,8,0.4,8.6,0.4c2.1,0.2,7.7,3.2,8.7,3.9c0.4,0.3,0.8,0.6,1.2,0.6
	c0,0,0,0,0.1,0c1.3-0.2,2.8-0.2,3.8-0.8c1.7-1.1,11.6-5.6,11.6-5.6c0.5-1.2,9.6,0.1,3.5-14.5c-0.1-0.2-3.8-2.4-4-2.5
	c-0.8-0.8-1.7-1.5-2.4-2.4c-12.1-14.7-13.2-33.1-13.3-37.7c-0.1-4-1.4-8.4,1.8-12.1c0.7-0.8,1.5-1.4,2.4-1.4c0.5,0,0.9,0.2,1.4,0.5
	c0.9,0.7,1.7,1.5,2.5,2.3c3.7,3.9,7.4,7.7,11.1,11.6c2.1,2.2,9.6,10.8,11.6,13c0.3,0.3,0.6,0.7,0.9,1.3
	c5.6-16.7,18.6-27.1,22.2-29.7C-135.1,423.3-132.5,420-128.2,420 M-128.2,414c-5.5,0-9.2,3.1-11.9,5.3c-0.6,0.5-1.2,1-1.7,1.4
	c-3.4,2.5-13.4,10.6-20.3,23.4c0,0,0,0,0,0c-2.6-3-5.3-6-6.5-7.3c-3.6-3.8-7.4-7.7-11.1-11.7c-0.9-0.9-1.9-2-3.1-2.9
	c-1.5-1.2-3.3-1.8-5.1-1.8c-1.8,0-4.4,0.6-6.9,3.4c-4.2,4.8-3.7,10.3-3.4,13.9c0.1,0.8,0.1,1.6,0.1,2.2c0.1,5.7,1.5,25.4,14.7,41.4
	c0.7,0.9,1.5,1.6,2.1,2.1c0.2,0.2,0.5,0.4,0.7,0.7c0.6,0.6,0.9,0.8,2.7,1.8c0.2,0.1,0.4,0.3,0.7,0.4c0.8,2.2,1,3.4,1,4.1
	c-0.1,0-0.2,0.1-0.2,0.1c-0.6,0.2-1.7,0.5-2.6,1.2c-3.5,1.6-8.6,3.9-10.9,5.3c-2.3-1.3-7.3-3.9-10.5-4.2l-0.2,0
	c-1-0.1-4.2-0.4-8.9-0.4c-16.1,0-46.7,3.8-71.3,29.4c-2.5,2.6-16.5,26-18.1,30.7c-0.9,2.6-2.1,6.4-2.8,10.4c-1.1-0.9-2-1.6-2.3-1.8
	l-9.1,3.2c-2.3,7.4-2.3,9.3-2.3,9.9c0,0.7,0,2.8,2.5,8.1c0.8,6.3,2.3,7.8,3.1,8.6c0.4,0.4,1.4,1.6,2,2.5l3.5,2.3
	c1.6,0.4,3.4,0.8,4.8,1.1c0.9,0.9,2.1,1.6,3.7,2c1.3,0.3,2,0.6,2.3,0.8c0.1,0.2,0.1,0.4,0.2,0.6c0.9,2.8,2.3,6.9,6.6,8.1
	c1.7,0.4,8.1,1.3,10.1,1.5c9.1,1.5,18.3,1.7,27.3,1.9c2.5,0.1,5.1,0.1,7.6,0.2l0.5,0c4.8-0.3,12.5-0.7,14.7-0.8
	c1.3,0.2,2.9,0.3,5.1,0.3c7.1,0,16.4-1.3,19.7-7.4c1.1-2,2.3-6-1.1-11.2l-1-1.1c-0.4-0.4-0.9-0.7-1.4-1.1c0.2-0.2,0.4-0.4,0.6-0.7
	c0.7-0.9,0.8-1,1.8-1.6c0.7-0.4,1.7-1,3.1-2c0.1,0,0.3-0.1,0.7-0.1c0.8,0,1.8,0.2,2.5,0.4c0.7,1.1,1.6,2.7,2.3,3.9
	c2.4,4.1,4,6.7,5.4,8.3c0.5,0.5,1,1.1,1.5,1.7c1.8,2.2,3.9,4.7,7,6.5c0.1,0.1,0.6,0.5,0.9,0.9c0.4,0.4,0.9,0.9,1.4,1.4
	c0,0,0.1,0.1,0.1,0.1c0.8,0.7,2.5,2.4,5.2,2.4c0.4,0,0.9,0,1.5,0.1l0.7,0v0c0.4,0,0.8,0,1.2,0c1.5,0,2.7-0.1,3.7-0.2l15.8,0.3
	c0.3,0,0.6,0.1,1,0.1c4,0,8.1-2.9,8.1-8.6c0-4.1-1.6-8.7-1.8-9.2l-3.2-3.4l-3.9-1.7l-0.5-0.2c-2.7-0.9-5.8-2.3-7.1-3.1
	c-0.1-0.2-0.2-0.5-0.3-0.8c-0.1-0.3-0.2-0.6-0.3-1l-1.2-0.4l0.8-0.3c-0.1-0.3-0.3-0.6-0.4-0.9c-0.1-0.3-0.3-0.7-0.5-1.1
	c0.3-0.1,0.6-0.2,0.9-0.4c3.1-1.3,4.1-1.9,4.8-2.5c0.3-0.2,0.8-0.6,1.6-1.1c10.4-7.4,14.8-10.9,16.6-13c2.3-2.9,3.3-6.8,3.8-9.3
	c0.9-1.1,2.4-2.9,2.4-5.4c0-0.9,0-1.8-0.2-2.7c0.3-0.5,0.5-1,0.7-1.6c0.3-0.8,0.6-1.7,0.8-2.5c0.3-0.8,0.5-1.7,0.8-2.5
	c0.1-0.2,0.3-0.7,0.5-1c0.6-1.4,1.4-3.1,1.6-5.1c0.1-0.6,0.2-1.3,0.4-2.2c3.5-0.1,5.6-0.6,7.3-1.6c0.2-0.1,0.4-0.3,0.6-0.4
	c1.3-0.2,2.6-0.6,3.6-1.1c1.1-0.3,2.4-0.9,3.6-2.4c-0.5,0.6-1.3,1.3-2.4,1.6l-0.9-1.6l4.8-1.5c2.6-5.6,3-11.3,1.3-17.3
	c-0.9-3-2.3-5.2-3.5-7c-0.3-0.5-0.6-0.9-0.9-1.4c-0.4-0.6-1.3-2.4-2-3.6c-0.7-1.4-1.1-2.1-1.4-2.5c-0.6-1-1.3-2.1-1.9-3.1
	c-1-1.7-2-3.4-3.1-5.1c-2.9-4.5-6.9-7-10.2-8.7c-1-0.5-2.5-1.3-4.5-2.2c5.3-7.8,7.8-11.9,8.4-15.1c0.3-1.3,1-4.4,1.7-7.5
	c0.9-3.8,1.8-7.8,2.2-9.5c1-5.2,2.1-10.5,3.1-15.8c0.2-1.2,0.5-2.7,0.5-4.2c0.2-4.7-3.2-8.3-8.3-8.8C-127.2,414-127.7,414-128.2,414
	"/>
<path style="fill:#F16722;" d="M-138.4,498.6c-0.5-4.2-4.4-21.5-4.1-22.1c1.7-3,10-14.1,10.6-17.7c0.6-2.9,3.3-14,3.9-17
	c1-5.3,2.1-10.5,3.1-15.8c0.2-1.1,0.4-2.2,0.4-3.4c0.1-1.7-1.2-2.4-2.9-2.6c-4.9-0.5-7.6,3.1-10.9,5.5c-3.8,2.8-18.1,14.3-23.1,32.7
	c-0.3,1.1-0.3,2.2-0.5,3.4c0,0.2,0.3,4.6,0.2,4.7"/>
<g>
	<g>
		<defs>
			<path id="SVGID_1_" d="M-190.3,427.9c-3.2,3.7-1.9,8-1.8,12.1c0.1,4.7,1.2,23,13.3,37.7c0.7,0.9,1.6,1.6,2.4,2.4
				c0.1,0.2,3.9,2.4,4,2.5c6.1,14.5-3,13.2-3.5,14.5c0,0-9.9,4.4-11.6,5.6c-1,0.7-2.5,0.7-3.8,0.8c-0.4,0-0.8-0.4-1.2-0.6
				c-1-0.7-6.6-3.7-8.7-3.9c-2.1-0.2-44.2-5.5-75.6,27.2c-1.6,1.7-15.3,24.2-16.8,28.5c-1.1,3.2-2.1,6.5-2.6,9.9
				c-0.4,2.3-0.8,4.6-0.6,6.9c-2.1,1.4-4.4,1.3-6.9-1.6c-1.3-1.7-4-3.5-4-3.5s-2,6.5-2,8.1c0,1.7,2.4,6.4,2.4,6.4s0.6,5.1,1.5,6.1
				c0.9,0.9,2.6,3.1,2.6,3.1s7.5,1.7,7.5,1.7c-0.1,0.7,0.1,1.1,1.2,1.4c2.7,0.7,5.3,1.7,6.1,3.7c0.8,1.9,1.5,5.3,3,5.7
				c1.5,0.4,9.5,1.4,9.6,1.4c11.1,1.9,22.5,1.7,34.1,2.1c0,0,16.2-0.9,15.8-0.8c2.2,0.7,24.6,1.2,18-8.9c-2.7-2.5-11.5-6.4-13-6.9
				c-1.5-0.5,9.3-0.1,11.5-3c2.2-2.9,2.8-2.4,6.3-4.8c3.5-2.5,9.9,0.1,10,0.1c0.7-0.5,6.4,10.7,8.7,13.3c2.2,2.5,4.1,5.3,7.1,7.1
				c1.2,0.7,2.2,2,3.3,3c0.5,0.4,1,1,1.5,1.1c0.8,0,1.6,0.1,2.4,0.1c0,0,2.8,0.1,4-0.2l16.9,0.3c0,0,2.6,0.6,2.6-2.5
				s-1.5-7.1-1.5-7.1l-3.9-1.7c0,0-8.7-3-10.1-5.1c0-0.1-0.1-0.1-0.1-0.2c-0.2-0.5-0.5-1.2-0.9-2c-0.2-0.5-0.4-1.1-0.5-1.7
				c-0.1,0-0.1,0.1-0.2,0.1c-0.7-1.7-1.9-4-1.7-5.9c0.3,0.1,0.8-1.9,1.4-3.1c0.3,0.2,6.3-2.3,6.8-2.8c0.4-0.3,15-10.4,17.3-13.3
				c2.4-2.9,2.8-9.1,3.2-8.5c0.1-0.4,1.7-1.7,1.7-2.6c0-1.5-0.3-3-0.9-4.3c0.9,0.2,1.5-0.9,1.8-1.7c0.6-1.7,1.1-3.4,1.7-5.1
				c0.5-1.5,1.8-3.5,1.8-5.1c0.4-1.3,1.1-7.4,1.1-7.3c0.2,0,0.8,0,1.7,0c2.3,0,6.3,0.1,7.7-0.7c0.7-0.4,1.5-0.9,2.4-1.3
				c0.8,0.4,3.3-0.9,3.3-0.9c0.3,0.2,0.4,0,0.6-0.2c0.2-0.2,0.4-0.4,0.7-0.2c2-4.3,2.3-8.4,0.9-13.1c-0.8-2.7-2.4-4.6-3.8-6.9
				c-0.8-1.3-3-5.4-3.4-6.1c-1.7-2.7-3.2-5.5-4.9-8.1c-2-3-4.8-5-7.9-6.7c-3.7-2-20.1-8.9-20.4-9.5c-1.4-3.1-5.7-16.4-8.3-18.9
				c-2-2.2-9.5-10.8-11.6-13c-3.7-3.9-7.4-7.8-11.1-11.6c-0.8-0.8-1.6-1.6-2.5-2.3c-0.5-0.4-1-0.5-1.4-0.5
				C-188.7,426.6-189.5,427.1-190.3,427.9"/>
		</defs>
		<clipPath id="SVGID_2_">
			<use xlink:href="#SVGID_1_"  style="overflow:visible;"/>
		</clipPath>
		
			<linearGradient id="SVGID_3_" gradientUnits="userSpaceOnUse" x1="-3711.001" y1="-899.1165" x2="-3710.0015" y2="-899.1165" gradientTransform="matrix(197.912 0 0 197.912 734141.9375 178462.8438)">
			<stop  offset="0" style="stop-color:#FFCA05"/>
			<stop  offset="0.3156" style="stop-color:#FFCA05"/>
			<stop  offset="0.8667" style="stop-color:#F9A31A"/>
			<stop  offset="1" style="stop-color:#F9A31A"/>
		</linearGradient>
		<rect x="-309.7" y="426.6" style="clip-path:url(#SVGID_2_);fill:url(#SVGID_3_);" width="198.4" height="180.6"/>
	</g>
</g>
<path style="fill:#FFFFFF;" d="M-263.4,534.2c38.5-13.3,49.3,22.1,43.1,50.6C-218.1,559.5-234.2,530.7-263.4,534.2"/>
</svg>
