<?xml version="1.0" encoding="utf-8"?>
<!-- Generator: Adobe Illustrator 19.1.0, SVG Export Plug-In . SVG Version: 6.00 Build 0)  -->
<svg version="1.1" id="Layer_1" xmlns="http://www.w3.org/2000/svg" xmlns:xlink="http://www.w3.org/1999/xlink" x="0px" y="0px"
	 width="1024px" height="1024px" viewBox="0 0 1024 1024" style="enable-background:new 0 0 1024 1024;" xml:space="preserve">
<g>
	<linearGradient id="SVGID_1_" gradientUnits="userSpaceOnUse" x1="968.1304" y1="41.0215" x2="190.5948" y2="846.0805">
		<stop  offset="0" style="stop-color:#89D1F5"/>
		<stop  offset="1" style="stop-color:#11306F"/>
	</linearGradient>
	<rect x="0.6" y="0.6" style="fill:url(#SVGID_1_);" width="1024" height="1024"/>
	<linearGradient id="SVGID_2_" gradientUnits="userSpaceOnUse" x1="97.3336" y1="512.6378" x2="927.9418" y2="512.6378">
		<stop  offset="0" style="stop-color:#89D1F5"/>
		<stop  offset="1" style="stop-color:#11306F"/>
	</linearGradient>
	<path style="fill:url(#SVGID_2_);" d="M512.6,927.9c-229,0-415.3-186.3-415.3-415.3c0-229,186.3-415.3,415.3-415.3
		c229,0,415.3,186.3,415.3,415.3C927.9,741.6,741.6,927.9,512.6,927.9z M512.6,120.8c-216.1,0-391.9,175.8-391.9,391.9
		c0,216.1,175.8,391.9,391.9,391.9c216.1,0,391.9-175.8,391.9-391.9C904.5,296.6,728.7,120.8,512.6,120.8z"/>
	<linearGradient id="SVGID_3_" gradientUnits="userSpaceOnUse" x1="128.085" y1="512.6378" x2="897.1906" y2="512.6378">
		<stop  offset="0" style="stop-color:#89D1F5"/>
		<stop  offset="1" style="stop-color:#11306F"/>
	</linearGradient>
	<path style="fill:url(#SVGID_3_);" d="M512.6,897.2c-212,0-384.6-172.5-384.6-384.6c0-212,172.5-384.6,384.6-384.6
		c212,0,384.6,172.5,384.6,384.6C897.2,724.7,724.7,897.2,512.6,897.2z M512.6,151.5c-199.1,0-361.1,162-361.1,361.1
		s162,361.1,361.1,361.1s361.1-162,361.1-361.1S711.8,151.5,512.6,151.5z"/>
	<linearGradient id="SVGID_4_" gradientUnits="userSpaceOnUse" x1="158.8363" y1="512.6378" x2="866.4392" y2="512.6378">
		<stop  offset="0" style="stop-color:#89D1F5"/>
		<stop  offset="1" style="stop-color:#11306F"/>
	</linearGradient>
	<path style="fill:url(#SVGID_4_);" d="M512.6,866.4c-195.1,0-353.8-158.7-353.8-353.8c0-195.1,158.7-353.8,353.8-353.8
		c195.1,0,353.8,158.7,353.8,353.8C866.4,707.7,707.7,866.4,512.6,866.4z M512.6,182.3c-182.2,0-330.4,148.2-330.4,330.4
		S330.5,843,512.6,843S843,694.8,843,512.6S694.8,182.3,512.6,182.3z"/>
	<linearGradient id="SVGID_5_" gradientUnits="userSpaceOnUse" x1="189.5876" y1="512.6378" x2="835.6879" y2="512.6378">
		<stop  offset="0" style="stop-color:#89D1F5"/>
		<stop  offset="1" style="stop-color:#11306F"/>
	</linearGradient>
	<path style="fill:url(#SVGID_5_);" d="M512.6,835.7c-178.1,0-323.1-144.9-323.1-323.1c0-178.1,144.9-323,323.1-323
		c178.1,0,323,144.9,323,323C835.7,690.8,690.8,835.7,512.6,835.7z M512.6,213C347.4,213,213,347.4,213,512.6
		s134.4,299.6,299.6,299.6s299.6-134.4,299.6-299.6S677.8,213,512.6,213z"/>
	<linearGradient id="SVGID_6_" gradientUnits="userSpaceOnUse" x1="220.339" y1="512.6378" x2="804.9365" y2="512.6378">
		<stop  offset="0" style="stop-color:#89D1F5"/>
		<stop  offset="1" style="stop-color:#11306F"/>
	</linearGradient>
	<path style="fill:url(#SVGID_6_);" d="M512.6,804.9c-161.2,0-292.3-131.1-292.3-292.3c0-161.2,131.1-292.3,292.3-292.3
		c161.2,0,292.3,131.1,292.3,292.3C804.9,673.8,673.8,804.9,512.6,804.9z M512.6,243.8c-148.3,0-268.9,120.6-268.9,268.9
		s120.6,268.9,268.9,268.9s268.9-120.6,268.9-268.9S660.9,243.8,512.6,243.8z"/>
	<linearGradient id="SVGID_7_" gradientUnits="userSpaceOnUse" x1="251.0903" y1="512.6378" x2="774.1852" y2="512.6378">
		<stop  offset="0" style="stop-color:#89D1F5"/>
		<stop  offset="1" style="stop-color:#11306F"/>
	</linearGradient>
	<path style="fill:url(#SVGID_7_);" d="M512.6,774.2c-144.2,0-261.5-117.3-261.5-261.5s117.3-261.5,261.5-261.5
		s261.5,117.3,261.5,261.5S656.9,774.2,512.6,774.2z M512.6,274.5c-131.3,0-238.1,106.8-238.1,238.1s106.8,238.1,238.1,238.1
		s238.1-106.8,238.1-238.1S643.9,274.5,512.6,274.5z"/>
	<linearGradient id="SVGID_8_" gradientUnits="userSpaceOnUse" x1="281.8416" y1="512.6378" x2="743.4339" y2="512.6378">
		<stop  offset="0" style="stop-color:#89D1F5"/>
		<stop  offset="1" style="stop-color:#11306F"/>
	</linearGradient>
	<path style="fill:url(#SVGID_8_);" d="M512.6,743.4c-127.3,0-230.8-103.5-230.8-230.8s103.5-230.8,230.8-230.8
		s230.8,103.5,230.8,230.8S639.9,743.4,512.6,743.4z M512.6,305.3c-114.3,0-207.4,93-207.4,207.4S398.3,720,512.6,720
		C627,720,720,627,720,512.6S627,305.3,512.6,305.3z"/>
	<linearGradient id="SVGID_9_" gradientUnits="userSpaceOnUse" x1="312.593" y1="512.6378" x2="712.6826" y2="512.6378">
		<stop  offset="0" style="stop-color:#89D1F5"/>
		<stop  offset="1" style="stop-color:#11306F"/>
	</linearGradient>
	<path style="fill:url(#SVGID_9_);" d="M512.6,712.7c-110.3,0-200-89.7-200-200s89.7-200,200-200s200,89.7,200,200
		S622.9,712.7,512.6,712.7z M512.6,336C415.3,336,336,415.3,336,512.6s79.2,176.6,176.6,176.6c97.4,0,176.6-79.2,176.6-176.6
		S610,336,512.6,336z"/>
	<linearGradient id="SVGID_10_" gradientUnits="userSpaceOnUse" x1="343.3443" y1="512.6378" x2="681.9312" y2="512.6378">
		<stop  offset="0" style="stop-color:#89D1F5"/>
		<stop  offset="1" style="stop-color:#11306F"/>
	</linearGradient>
	<path style="fill:url(#SVGID_10_);" d="M512.6,681.9c-93.3,0-169.3-75.9-169.3-169.3s75.9-169.3,169.3-169.3
		s169.3,75.9,169.3,169.3S606,681.9,512.6,681.9z M512.6,366.8c-80.4,0-145.9,65.4-145.9,145.9s65.4,145.9,145.9,145.9
		c80.4,0,145.9-65.4,145.9-145.9S593.1,366.8,512.6,366.8z"/>
	<linearGradient id="SVGID_11_" gradientUnits="userSpaceOnUse" x1="374.0956" y1="512.6378" x2="651.1799" y2="512.6378">
		<stop  offset="0" style="stop-color:#89D1F5"/>
		<stop  offset="1" style="stop-color:#11306F"/>
	</linearGradient>
	<path style="fill:url(#SVGID_11_);" d="M512.6,651.2c-76.4,0-138.5-62.2-138.5-138.5s62.2-138.5,138.5-138.5
		s138.5,62.1,138.5,138.5S589,651.2,512.6,651.2z M512.6,397.5c-63.5,0-115.1,51.6-115.1,115.1s51.6,115.1,115.1,115.1
		c63.5,0,115.1-51.6,115.1-115.1S576.1,397.5,512.6,397.5z"/>
</g>
<g>
</g>
<g>
</g>
<g>
</g>
<g>
</g>
<g>
</g>
<g>
</g>
<g>
</g>
<g>
</g>
<g>
</g>
<g>
</g>
<g>
</g>
<g>
</g>
<g>
</g>
<g>
</g>
<g>
</g>
</svg>
