<?xml version="1.0" encoding="utf-8"?>
<!-- Generator: Adobe Illustrator 19.1.0, SVG Export Plug-In . SVG Version: 6.00 Build 0)  -->
<svg version="1.1" id="Layer_1" xmlns="http://www.w3.org/2000/svg" xmlns:xlink="http://www.w3.org/1999/xlink" x="0px" y="0px"
	 width="1024px" height="1024px" viewBox="0 0 1024 1024" style="enable-background:new 0 0 1024 1024;" xml:space="preserve">
<g>
	<linearGradient id="SVGID_1_" gradientUnits="userSpaceOnUse" x1="967.4927" y1="40.3837" x2="189.957" y2="845.4427">
		<stop  offset="0.2899" style="stop-color:#EF8000"/>
		<stop  offset="0.687" style="stop-color:#FFCB00"/>
	</linearGradient>
	<rect style="fill:url(#SVGID_1_);" width="1024" height="1024"/>
	<linearGradient id="SVGID_2_" gradientUnits="userSpaceOnUse" x1="96.6959" y1="512" x2="927.3041" y2="512">
		<stop  offset="0.1964" style="stop-color:#EC6A06"/>
		<stop  offset="0.7517" style="stop-color:#FFCB00"/>
	</linearGradient>
	<path style="fill:url(#SVGID_2_);" d="M512,927.3C283,927.3,96.7,741,96.7,512C96.7,283,283,96.7,512,96.7
		C741,96.7,927.3,283,927.3,512C927.3,741,741,927.3,512,927.3z M512,120.1c-216.1,0-391.9,175.8-391.9,391.9
		c0,216.1,175.8,391.9,391.9,391.9c216.1,0,391.9-175.8,391.9-391.9C903.9,295.9,728.1,120.1,512,120.1z"/>
	<linearGradient id="SVGID_3_" gradientUnits="userSpaceOnUse" x1="127.4472" y1="512" x2="896.5528" y2="512">
		<stop  offset="0.1964" style="stop-color:#EC6A06"/>
		<stop  offset="0.7517" style="stop-color:#FFCB00"/>
	</linearGradient>
	<path style="fill:url(#SVGID_3_);" d="M512,896.6C300,896.6,127.4,724,127.4,512c0-212,172.5-384.6,384.6-384.6
		c212,0,384.6,172.5,384.6,384.6C896.6,724,724,896.6,512,896.6z M512,150.9c-199.1,0-361.1,162-361.1,361.1s162,361.1,361.1,361.1
		s361.1-162,361.1-361.1S711.1,150.9,512,150.9z"/>
	<linearGradient id="SVGID_4_" gradientUnits="userSpaceOnUse" x1="158.1985" y1="512" x2="865.8015" y2="512">
		<stop  offset="0.1964" style="stop-color:#EC6A06"/>
		<stop  offset="0.7517" style="stop-color:#FFCB00"/>
	</linearGradient>
	<path style="fill:url(#SVGID_4_);" d="M512,865.8c-195.1,0-353.8-158.7-353.8-353.8c0-195.1,158.7-353.8,353.8-353.8
		c195.1,0,353.8,158.7,353.8,353.8C865.8,707.1,707.1,865.8,512,865.8z M512,181.6c-182.2,0-330.4,148.2-330.4,330.4
		S329.8,842.4,512,842.4S842.4,694.2,842.4,512S694.2,181.6,512,181.6z"/>
	<linearGradient id="SVGID_5_" gradientUnits="userSpaceOnUse" x1="188.9499" y1="512" x2="835.0501" y2="512">
		<stop  offset="0.1964" style="stop-color:#EC6A06"/>
		<stop  offset="0.7517" style="stop-color:#FFCB00"/>
	</linearGradient>
	<path style="fill:url(#SVGID_5_);" d="M512,835.1c-178.1,0-323.1-144.9-323.1-323.1c0-178.1,144.9-323,323.1-323
		c178.1,0,323,144.9,323,323C835.1,690.1,690.1,835.1,512,835.1z M512,212.4c-165.2,0-299.6,134.4-299.6,299.6
		S346.8,811.6,512,811.6S811.6,677.2,811.6,512S677.2,212.4,512,212.4z"/>
	<linearGradient id="SVGID_6_" gradientUnits="userSpaceOnUse" x1="219.7012" y1="512" x2="804.2988" y2="512">
		<stop  offset="0.1964" style="stop-color:#EC6A06"/>
		<stop  offset="0.7517" style="stop-color:#FFCB00"/>
	</linearGradient>
	<path style="fill:url(#SVGID_6_);" d="M512,804.3c-161.2,0-292.3-131.1-292.3-292.3c0-161.2,131.1-292.3,292.3-292.3
		c161.2,0,292.3,131.1,292.3,292.3C804.3,673.2,673.2,804.3,512,804.3z M512,243.1c-148.3,0-268.9,120.6-268.9,268.9
		S363.7,780.9,512,780.9S780.9,660.3,780.9,512S660.3,243.1,512,243.1z"/>
	<linearGradient id="SVGID_7_" gradientUnits="userSpaceOnUse" x1="250.4525" y1="512" x2="773.5474" y2="512">
		<stop  offset="0.1964" style="stop-color:#EC6A06"/>
		<stop  offset="0.7517" style="stop-color:#FFCB00"/>
	</linearGradient>
	<path style="fill:url(#SVGID_7_);" d="M512,773.5c-144.2,0-261.5-117.3-261.5-261.5S367.8,250.5,512,250.5S773.5,367.8,773.5,512
		S656.2,773.5,512,773.5z M512,273.9c-131.3,0-238.1,106.8-238.1,238.1S380.7,750.1,512,750.1S750.1,643.3,750.1,512
		S643.3,273.9,512,273.9z"/>
	<linearGradient id="SVGID_8_" gradientUnits="userSpaceOnUse" x1="281.2039" y1="512" x2="742.7961" y2="512">
		<stop  offset="0.1964" style="stop-color:#EC6A06"/>
		<stop  offset="0.7517" style="stop-color:#FFCB00"/>
	</linearGradient>
	<path style="fill:url(#SVGID_8_);" d="M512,742.8c-127.3,0-230.8-103.5-230.8-230.8S384.7,281.2,512,281.2S742.8,384.7,742.8,512
		S639.3,742.8,512,742.8z M512,304.6c-114.3,0-207.4,93-207.4,207.4s93,207.4,207.4,207.4c114.3,0,207.4-93,207.4-207.4
		S626.3,304.6,512,304.6z"/>
	<linearGradient id="SVGID_9_" gradientUnits="userSpaceOnUse" x1="311.9552" y1="512" x2="712.0448" y2="512">
		<stop  offset="0.1964" style="stop-color:#EC6A06"/>
		<stop  offset="0.7517" style="stop-color:#FFCB00"/>
	</linearGradient>
	<path style="fill:url(#SVGID_9_);" d="M512,712c-110.3,0-200-89.7-200-200s89.7-200,200-200s200,89.7,200,200S622.3,712,512,712z
		 M512,335.4c-97.4,0-176.6,79.2-176.6,176.6S414.6,688.6,512,688.6c97.4,0,176.6-79.2,176.6-176.6S609.4,335.4,512,335.4z"/>
	<linearGradient id="SVGID_10_" gradientUnits="userSpaceOnUse" x1="342.7065" y1="512" x2="681.2935" y2="512">
		<stop  offset="0.1964" style="stop-color:#EC6A06"/>
		<stop  offset="0.7517" style="stop-color:#FFCB00"/>
	</linearGradient>
	<path style="fill:url(#SVGID_10_);" d="M512,681.3c-93.3,0-169.3-75.9-169.3-169.3S418.7,342.7,512,342.7S681.3,418.7,681.3,512
		S605.3,681.3,512,681.3z M512,366.1c-80.4,0-145.9,65.4-145.9,145.9S431.6,657.9,512,657.9c80.4,0,145.9-65.4,145.9-145.9
		S592.4,366.1,512,366.1z"/>
	<linearGradient id="SVGID_11_" gradientUnits="userSpaceOnUse" x1="373.4579" y1="512" x2="650.5421" y2="512">
		<stop  offset="0.1964" style="stop-color:#EC6A06"/>
		<stop  offset="0.7517" style="stop-color:#FFCB00"/>
	</linearGradient>
	<path style="fill:url(#SVGID_11_);" d="M512,650.5c-76.4,0-138.5-62.2-138.5-138.5S435.6,373.5,512,373.5S650.5,435.6,650.5,512
		S588.4,650.5,512,650.5z M512,396.9c-63.5,0-115.1,51.6-115.1,115.1S448.5,627.1,512,627.1c63.5,0,115.1-51.6,115.1-115.1
		S575.5,396.9,512,396.9z"/>
</g>
<g>
</g>
<g>
</g>
<g>
</g>
<g>
</g>
<g>
</g>
<g>
</g>
<g>
</g>
<g>
</g>
<g>
</g>
<g>
</g>
<g>
</g>
<g>
</g>
<g>
</g>
<g>
</g>
<g>
</g>
</svg>
