<?xml version="1.0" encoding="utf-8"?>
<!-- Generator: Adobe Illustrator 19.1.0, SVG Export Plug-In . SVG Version: 6.00 Build 0)  -->
<svg version="1.1" id="Layer_1" xmlns="http://www.w3.org/2000/svg" xmlns:xlink="http://www.w3.org/1999/xlink" x="0px" y="0px"
	 width="1024px" height="1024px" viewBox="0 0 1024 1024" style="enable-background:new 0 0 1024 1024;" xml:space="preserve">
<g>
	<rect x="0" style="fill:#383737;" width="1024" height="1024"/>
	<g style="opacity:0.15;">
		<path d="M85.5,512L512,938.5L938.5,512L512,85.5L85.5,512z M512,964.6L59.4,512L512,59.4L964.6,512L512,964.6z"/>
		<path d="M125,512l387,387l387-387L512,125L125,512z M512,925.1L98.9,512L512,98.9L925.1,512L512,925.1z"/>
		<path d="M164.5,512L512,859.5L859.5,512L512,164.5L164.5,512z M512,885.6L138.5,512L512,138.4L885.5,512L512,885.6z"/>
		<path d="M204,512l308,308l308-308L512,204L204,512z M512,846L178,512l334-334l334,334L512,846z"/>
		<path d="M243.5,512L512,780.5L780.5,512L512,243.5L243.5,512z M512,806.5L217.5,512L512,217.5L806.5,512L512,806.5z"/>
		<path d="M283,512l229,229l229-229L512,283L283,512z M512,767L257,512l255-255l255,255L512,767z"/>
		<path d="M322.6,512L512,701.4L701.4,512L512,322.6L322.6,512z M512,727.5L296.5,512L512,296.5L727.5,512L512,727.5z"/>
		<path d="M362.1,512L512,661.9L661.9,512L512,362.1L362.1,512z M512,688L336,512l176-176l176,176L512,688z"/>
		<path d="M401.6,512L512,622.4L622.4,512L512,401.6L401.6,512z M512,648.5L375.5,512L512,375.5L648.5,512L512,648.5z"/>
		<path d="M441.1,512l70.9,70.9l70.9-70.9L512,441.1L441.1,512z M512,609l-97-97l97-97l97,97L512,609z"/>
	</g>
</g>
<g>
</g>
<g>
</g>
<g>
</g>
<g>
</g>
<g>
</g>
<g>
</g>
<g>
</g>
<g>
</g>
<g>
</g>
<g>
</g>
<g>
</g>
<g>
</g>
<g>
</g>
<g>
</g>
<g>
</g>
</svg>
