<?xml version="1.0" encoding="utf-8"?>
<!-- Generator: Adobe Illustrator 19.1.0, SVG Export Plug-In . SVG Version: 6.00 Build 0)  -->
<svg version="1.1" id="Layer_1" xmlns="http://www.w3.org/2000/svg" xmlns:xlink="http://www.w3.org/1999/xlink" x="0px" y="0px"
	 width="1024px" height="1024px" viewBox="0 0 1024 1024" style="enable-background:new 0 0 1024 1024;" xml:space="preserve">
<g>
	<rect x="0" style="fill:#383737;" width="1024" height="1024"/>
	<g style="opacity:0.15;">
		<path d="M50,131.6h923.5L511.8,892.4L50,131.6z M948.5,146H75.1l436.7,719.5L948.5,146z"/>
		<path d="M85.8,152.2h851.9l-426,701.9L85.8,152.2z M912.7,166.7H110.9l400.9,660.6L912.7,166.7z"/>
		<path d="M121.6,172.8H902L511.8,815.8L121.6,172.8z M876.9,187.3H146.7l365.1,601.6L876.9,187.3z"/>
		<path d="M157.4,193.5h708.8L511.8,777.4L157.4,193.5z M841.1,207.9H182.5l329.3,542.6L841.1,207.9z"/>
		<path d="M193.2,214.1h637.2l-318.6,525L193.2,214.1z M805.3,228.6h-587l293.5,483.6L805.3,228.6z"/>
		<path d="M229,234.8h565.6l-282.8,466L229,234.8z M769.5,249.2H254.1l257.7,424.7L769.5,249.2z"/>
		<path d="M264.8,255.4h494l-247,407L264.8,255.4z M733.7,269.9H289.9l221.9,365.7L733.7,269.9z"/>
		<path d="M300.6,276H723l-211.2,348L300.6,276z M697.9,290.5H325.7l186.1,306.7L697.9,290.5z"/>
		<path d="M336.4,296.7h350.8l-175.4,289L336.4,296.7z M662.1,311.1H361.5l150.3,247.7L662.1,311.1z"/>
		<path d="M372.2,317.3h279.3L511.8,547.4L372.2,317.3z M626.4,331.8H397.2l114.6,188.8L626.4,331.8z"/>
	</g>
</g>
<g>
</g>
<g>
</g>
<g>
</g>
<g>
</g>
<g>
</g>
<g>
</g>
<g>
</g>
<g>
</g>
<g>
</g>
<g>
</g>
<g>
</g>
<g>
</g>
<g>
</g>
<g>
</g>
<g>
</g>
</svg>
