<?xml version="1.0" encoding="utf-8"?>
<!-- Generator: Adobe Illustrator 19.1.0, SVG Export Plug-In . SVG Version: 6.00 Build 0)  -->
<svg version="1.1" id="Layer_1" xmlns="http://www.w3.org/2000/svg" xmlns:xlink="http://www.w3.org/1999/xlink" x="0px" y="0px"
	 width="1024px" height="1024px" viewBox="0 0 1024 1024" style="enable-background:new 0 0 1024 1024;" xml:space="preserve">
<g>
	<linearGradient id="SVGID_1_" gradientUnits="userSpaceOnUse" x1="967.4927" y1="40.3837" x2="189.957" y2="845.4427">
		<stop  offset="0" style="stop-color:#004997"/>
		<stop  offset="1" style="stop-color:#0C1B49"/>
	</linearGradient>
	<rect style="fill:url(#SVGID_1_);" width="1024" height="1024"/>
	<g>
		<linearGradient id="SVGID_2_" gradientUnits="userSpaceOnUse" x1="13.589" y1="806.8033" x2="667.2695" y2="218.491">
			<stop  offset="0" style="stop-color:#004997"/>
			<stop  offset="1" style="stop-color:#0C1B49"/>
		</linearGradient>
		<path style="fill:url(#SVGID_2_);" d="M333.2,525.6c1,0.6,2.2,1.1,3.6,1.6c0.7,0.2,1.5,0.4,2.3,0.5c0.8,0.1,1.6,0.1,2.5,0.2
			c0.8,0,1.6-0.1,2.5-0.2c0.8-0.1,1.5-0.3,2.3-0.5c1.4-0.5,2.6-0.9,3.6-1.6c1.5-0.9,2.6-2,3-2.3c0.4-0.4,1.4-1.5,2.3-3
			c0.6-1,1.1-2.2,1.6-3.6c0.2-0.7,0.4-1.5,0.5-2.3c0.1-0.8,0.1-1.6,0.2-2.5c0-0.8-0.1-1.6-0.2-2.5c-0.1-0.8-0.3-1.5-0.5-2.3
			c-0.5-1.4-0.9-2.6-1.6-3.6c-1.1-1.9-2.6-3.1-2.5-3.2v0l0,0v0c0,0,0,0,0,0c0,0-0.9-0.9-2.6-2.7c-0.5-0.3-1.1-0.6-1.6-0.9
			c-2-1-4.4-1.5-6.9-1.5c-2.5,0.1-4.9,0.6-6.9,1.5c-1,0.5-1.9,1.1-2.9,1.8c-0.9,0.7-1.9,1.6-2.6,2.5c-1.5,1.8-2.4,3.5-3,5.4
			c-0.6,1.9-0.8,4-0.8,5.8c0.3,3.8,1.5,6.4,2.6,8c0.6,0.8,1.2,1.4,1.5,1.9c0.5,0.4,0.6,0.7,0.6,0.7l0,0
			C330.1,523.1,331.3,524.5,333.2,525.6z"/>
		<linearGradient id="SVGID_3_" gradientUnits="userSpaceOnUse" x1="16.3183" y1="809.8358" x2="669.9987" y2="221.5234">
			<stop  offset="0" style="stop-color:#004997"/>
			<stop  offset="1" style="stop-color:#0C1B49"/>
		</linearGradient>
		<polygon style="fill:url(#SVGID_3_);" points="277.9,575.3 286.6,566.6 295.3,557.9 286.6,566.6 277.9,575.3 		"/>
		<linearGradient id="SVGID_4_" gradientUnits="userSpaceOnUse" x1="5.6048" y1="797.932" x2="659.2853" y2="209.6196">
			<stop  offset="0" style="stop-color:#004997"/>
			<stop  offset="1" style="stop-color:#0C1B49"/>
		</linearGradient>
		<path style="fill:url(#SVGID_4_);" d="M523.5,352.6c0.1-0.1,0.2-0.2,0.3-0.3c0,0,0.1-0.1,0.1-0.1c0.3-0.5,0.9-1.1,1.5-1.9
			c1.1-1.7,2.3-4.3,2.6-8c0.1-1.9-0.2-3.9-0.8-5.8c-0.6-1.9-1.5-3.7-3-5.4c-0.8-0.9-1.7-1.8-2.6-2.5c-0.9-0.7-1.8-1.3-2.9-1.8
			c-2-1-4.4-1.5-6.9-1.5c-2.5,0.1-4.9,0.6-6.9,1.5c-1,0.5-1.9,1.1-2.9,1.8c-0.9,0.7-1.9,1.6-2.6,2.5c-1.1,1.3-1.9,2.6-2.5,4
			c-0.1,0.2-0.2,0.5-0.3,0.8c-0.1,0.2-0.2,0.4-0.2,0.7c-0.2,0.5-0.3,1-0.4,1.5c0,0,0,0,0,0c-0.1,0.7-0.2,1.4-0.3,2
			c0,0.3-0.1,0.7-0.1,1c0,0.3,0,0.6,0,0.8c0,0.6,0.1,1.2,0.1,1.8c0.1,0.4,0.1,0.8,0.2,1.1c0,0.1,0,0.2,0,0.2
			c0.2,0.7,0.3,1.3,0.5,1.9c0.2,0.4,0.3,0.8,0.5,1.2c0.2,0.5,0.4,0.9,0.6,1.3c0.1,0.1,0.1,0.3,0.2,0.4c0.1,0.1,0.1,0.2,0.2,0.3
			c4.9,4.8,9.6,9.8,14.1,14.9c0.3-0.3,0.6-0.7,0.9-1c0.3-0.4,0.7-0.8,1-1.1c1.2-1.4,2.3-2.6,3.3-3.6c0.6-0.7,1.2-1.3,1.8-1.9
			c0.5-0.6,1-1.1,1.5-1.6c1.1-1.2,1.9-2,2.3-2.4c0.3-0.3,0.4-0.4,0.4-0.4S523.4,352.7,523.5,352.6z"/>
		<linearGradient id="SVGID_5_" gradientUnits="userSpaceOnUse" x1="166.3201" y1="976.5045" x2="820.0005" y2="388.1921">
			<stop  offset="0" style="stop-color:#004997"/>
			<stop  offset="1" style="stop-color:#0C1B49"/>
		</linearGradient>
		<path style="fill:url(#SVGID_5_);" d="M666.9,507.3c-0.2,0.7-0.4,1.5-0.5,2.3c-0.1,0.8-0.1,1.6-0.2,2.5c0,0.8,0.1,1.6,0.2,2.5
			c0.1,0.3,0.1,0.6,0.2,1c0,0.2,0.1,0.3,0.1,0.4c0.1,0.3,0.1,0.6,0.2,0.9c0.1,0.2,0.2,0.4,0.2,0.6c0.2,0.5,0.3,0.9,0.5,1.3
			c0.1,0.3,0.3,0.6,0.4,0.9c0.1,0.3,0.3,0.5,0.4,0.8c0,0.1,0.1,0.1,0.1,0.2c1.8,1.7,2.7,2.6,2.7,2.6s0.9,0.9,2.6,2.7
			c1.7,1,4.1,2.1,7.6,2.3c1.9,0.1,3.9-0.2,5.8-0.8c1.9-0.6,3.7-1.5,5.4-3c0.9-0.8,1.8-1.7,2.5-2.6c0.7-0.9,1.3-1.8,1.8-2.9
			c1-2,1.5-4.4,1.5-6.9c-0.1-2.5-0.6-4.9-1.5-6.9c-0.5-1-1.1-1.9-1.8-2.9c-0.7-0.9-1.6-1.9-2.5-2.6c-1.8-1.5-3.5-2.4-5.4-3
			c-1.9-0.6-4-0.8-5.8-0.8c-3.8,0.3-6.4,1.5-8,2.6c-0.8,0.5-1.4,1.2-1.9,1.5c0,0-0.1,0.1-0.1,0.1c-0.1,0.1-0.2,0.3-0.3,0.3
			c-0.2,0.2-0.2,0.3-0.2,0.3l0,0c0.1,0.1-1.4,1.3-2.5,3.2C667.9,504.7,667.4,505.9,666.9,507.3z"/>
		<linearGradient id="SVGID_6_" gradientUnits="userSpaceOnUse" x1="20.6385" y1="814.636" x2="674.3189" y2="226.3237">
			<stop  offset="0" style="stop-color:#004997"/>
			<stop  offset="1" style="stop-color:#0C1B49"/>
		</linearGradient>
		<polygon style="fill:url(#SVGID_6_);" points="208.4,644.8 199.7,653.5 191,662.2 191,662.2 199.7,653.5 		"/>
		<linearGradient id="SVGID_7_" gradientUnits="userSpaceOnUse" x1="174.8223" y1="985.9514" x2="828.5027" y2="397.639">
			<stop  offset="0" style="stop-color:#004997"/>
			<stop  offset="1" style="stop-color:#0C1B49"/>
		</linearGradient>
		<path style="fill:url(#SVGID_7_);" d="M525.8,690.9c0.6-1,1.1-2.2,1.6-3.6c0.2-0.7,0.4-1.5,0.5-2.3c0.1-0.8,0.1-1.6,0.2-2.5
			c0-0.8-0.1-1.7-0.2-2.5c-0.1-0.8-0.3-1.5-0.5-2.3c-0.5-1.4-0.9-2.6-1.6-3.6c-1.1-1.9-2.6-3.1-2.5-3.2l0,0l0,0c0,0-0.3-0.2-0.7-0.6
			c-0.5-0.3-1.1-1-1.9-1.5c-1.7-1.1-4.3-2.3-8-2.6c-1.9-0.1-3.9,0.2-5.8,0.8c-1.9,0.6-3.6,1.5-5.3,2.9c-0.4,0.4-0.7,0.7-0.8,0.7
			c0,0,0,0,0,0c0,0-0.2,0.3-0.6,0.7c-0.3,0.5-1,1.1-1.5,1.9c-1.1,1.7-2.3,4.3-2.6,8c-0.1,1.9,0.2,3.9,0.8,5.8c0.6,1.9,1.5,3.7,3,5.4
			c0.8,0.9,1.7,1.8,2.6,2.5c0.9,0.7,1.8,1.3,2.9,1.8c2,1,4.4,1.5,6.9,1.5c2.5-0.1,4.9-0.6,6.9-1.5c1-0.5,1.9-1.1,2.9-1.8
			c0.3-0.2,0.5-0.4,0.8-0.7c0.2-0.3,0.4-0.4,0.5-0.4c0,0,0,0,0,0C523.3,694,524.7,692.8,525.8,690.9z"/>
		<linearGradient id="SVGID_8_" gradientUnits="userSpaceOnUse" x1="647.6671" y1="488.5103" x2="659.5779" y2="477.7905">
			<stop  offset="0" style="stop-color:#004997"/>
			<stop  offset="1" style="stop-color:#0C1B49"/>
		</linearGradient>
		<polygon style="fill:url(#SVGID_8_);" points="653.6,483.2 653.6,483.1 653.6,483.2 		"/>
		<linearGradient id="SVGID_9_" gradientUnits="userSpaceOnUse" x1="6.5455" y1="798.9771" x2="660.2259" y2="210.6647">
			<stop  offset="0" style="stop-color:#004997"/>
			<stop  offset="1" style="stop-color:#0C1B49"/>
		</linearGradient>
		<polygon style="fill:url(#SVGID_9_);" points="483.3,369.9 483,370.2 483,370.2 483.3,369.9 		"/>
		<linearGradient id="SVGID_10_" gradientUnits="userSpaceOnUse" x1="89.9804" y1="891.6826" x2="743.6608" y2="303.3702">
			<stop  offset="0" style="stop-color:#004997"/>
			<stop  offset="1" style="stop-color:#0C1B49"/>
		</linearGradient>
		<path style="fill:url(#SVGID_10_);" d="M886.2,416.2c-7-14.8-15.5-28.8-25.3-41.4c-9.8-12.7-20.6-24-32.4-34.1
			c-23.6-20.2-50.8-34.8-78-43.3c-6.4-2-12.7-3.7-19-5.1c-1.4-6.3-3.1-12.7-5.1-19c-8.6-27.2-23.1-54.4-43.3-78
			c-10.1-11.8-21.4-22.6-34.1-32.4c-12.7-9.8-26.6-18.3-41.4-25.3c-29.6-14-62.7-21.3-95.8-21.4c-33,0-66.1,7.4-95.8,21.4
			c-14.8,7-28.8,15.5-41.4,25.3c-7.8,6-15.1,12.5-22,19.3l0,0c0,0-1,1-2.7,2.8c-0.4,0.4-0.8,0.8-1.2,1.3c-0.2,0.2-0.3,0.4-0.5,0.5
			c-1.6,1.7-3.6,3.8-5.8,6.4c-6.4,7.2-15,18.1-23.6,32.3c-4.9,8-9.6,17.1-13.9,27.1c-0.2,0.5-0.5,1.1-0.7,1.7
			c-0.3,0.8-0.6,1.5-0.9,2.3c-0.4,0.9-0.7,1.8-1.1,2.6c-0.1,0.3-0.3,0.7-0.4,1c-0.6,1.5-1.2,3.1-1.7,4.6c-0.3,0.8-0.6,1.7-0.9,2.5
			c-0.2,0.4-0.3,0.9-0.4,1.3c-1,2.8-1.9,5.7-2.8,8.7c-0.6,2-1.1,4-1.7,6c0,0,0,0.1,0,0.1c-0.4,1.5-0.8,3-1.1,4.5
			c-0.1,0.2-0.1,0.5-0.2,0.7c-0.3,1.1-0.5,2.2-0.8,3.3c-16.1,3.6-31.7,8.9-46.5,15.9c-14.8,7-28.8,15.5-41.4,25.3
			c-12.7,9.8-24,20.6-34.1,32.4c-20.2,23.6-34.8,50.8-43.3,78c-8.6,27.2-11.5,54.3-10.3,79.1c1.3,24.8,6.4,47.2,13.4,66.2
			c7,19,15.5,34.7,23.5,46.8c8,12.1,15.5,20.8,20.6,26.6c5.2,5.7,8.1,8.6,8.1,8.6l0,0c0,0,1,1,2.8,2.7c1.9,1.8,4.5,4.4,8.2,7.6
			c7.2,6.4,18.1,15,32.3,23.6c14.2,8.6,32,16.9,51.9,22.8c4.7,1.4,9.5,2.6,14.4,3.7c3.6,16.3,9,32.2,16,47.2
			c7,14.8,15.5,28.8,25.3,41.4c9.8,12.7,20.6,24,32.4,34.1c23.6,20.2,50.8,34.8,78,43.3c27.2,8.6,54.3,11.5,79.1,10.3
			c24.8-1.3,47.2-6.4,66.2-13.4c19-7,34.7-15.5,46.8-23.5c9.7-6.4,17.2-12.5,22.8-17.3c0,0,0,0,0.1-0.1c1.4-1.2,2.6-2.2,3.7-3.2
			c1-0.9,1.8-1.7,2.6-2.5c1.3-1.2,2.7-2.5,4-3.8c1.3-1.2,1.9-1.9,1.9-1.9v0c0,0,0.1-0.1,0.2-0.2c4.3-4.3,8.4-8.7,12.3-13.3
			c20.2-23.6,34.8-50.8,43.3-78c2-6.3,3.7-12.6,5.1-18.8c6.2-1.4,12.5-3.1,18.7-5c27.2-8.6,54.4-23.1,78-43.3
			c11.8-10.1,22.6-21.4,32.4-34.1c9.8-12.7,18.3-26.6,25.3-41.4c14-29.6,21.3-62.7,21.4-95.8C907.6,478.9,900.2,445.9,886.2,416.2z
			 M382.1,172.6c12-9.2,25.1-17.3,39.1-23.9c28-13.2,59.3-20.2,90.6-20.2c31.2,0,62.5,7,90.6,20.2c14,6.6,27.2,14.7,39.1,23.9
			c12,9.2,22.7,19.5,32.2,30.6c19.1,22.3,32.8,48,40.9,73.7c1.4,4.3,2.5,8.5,3.6,12.8c-4.4-0.7-8.8-1.3-13.2-1.7
			c-0.7-2.4-1.4-4.9-2.2-7.3c-7.6-24.2-20.6-48.4-38.6-69.4c-9-10.5-19.1-20.2-30.4-28.9c-11.3-8.7-23.7-16.3-36.9-22.5
			c-26.4-12.5-55.9-19-85.3-19c-29.5,0-58.9,6.6-85.3,19c-13.2,6.2-25.6,13.8-36.9,22.5c-7,5.4-13.5,11.1-19.6,17.2l0,0
			c0,0-0.8,0.9-2.4,2.5c-1.6,1.7-4,4-6.7,7.3c-5.7,6.4-13.4,16.1-21,28.8c-7.7,12.7-15,28.5-20.3,46.2c-2.6,8.9-4.7,18.2-6.1,27.8
			c-1.4,9.6-2.1,19.4-2.1,29.2c0,9.8,0.8,19.6,2.1,29.2c1.4,9.6,3.5,18.9,6.1,27.8c5.3,17.7,12.6,33.5,20.3,46.2
			c7.7,12.7,15.3,22.4,21,28.8c2.8,3.3,5.2,5.6,6.7,7.3c1.6,1.7,2.4,2.5,2.4,2.5l0,0l0.3-0.3v0l-0.3,0.3c0,0,0.2,0.2,0.5,0.6
			c0.3,0.4,0.9,0.8,1.4,1.5c1.2,1.3,2.7,3.3,4.3,5.8c1.6,2.5,2.9,5.7,4.1,9.3c0.5,1.8,0.9,3.7,1.2,5.7c0.2,2,0.4,4,0.4,6
			c0,2-0.2,4-0.4,6c-0.3,2-0.8,3.9-1.2,5.7c-1.1,3.6-2.5,6.7-4.1,9.3c-1.6,2.5-3,4.5-4.3,5.8c-0.5,0.7-1.1,1.2-1.4,1.5
			c-0.3,0.4-0.5,0.6-0.5,0.6l0,0c-6.1,6.1-11.8,12.6-17.2,19.6c-8.7,11.3-16.3,23.7-22.5,36.9c-12.5,26.4-19,55.9-19,85.3
			c0,29.5,6.6,58.9,19,85.3c6.2,13.2,13.8,25.6,22.5,36.9c8.7,11.3,18.4,21.4,28.9,30.4c21,18,45.2,30.9,69.4,38.6
			c24.3,7.7,48.4,10.2,70.5,9.2c22.1-1.1,42.1-5.7,59-11.9c16.9-6.2,30.9-13.8,41.7-21c10.8-7.2,18.5-13.8,23.7-18.3
			c5-4.7,7.7-7.3,7.7-7.3s0.8-0.9,2.4-2.5c1.6-1.7,4-4,6.7-7.3c5.7-6.4,13.4-16.1,21-28.8c7.7-12.7,15-28.5,20.3-46.2
			c2.6-8.9,4.7-18.2,6.1-27.8c1.4-9.6,2.1-19.4,2.1-29.2c0-9.8-0.8-19.6-2.1-29.2c-1.4-9.6-3.5-18.9-6.1-27.8
			c-5.3-17.7-12.6-33.5-20.3-46.2c-7.7-12.7-15.3-22.4-21-28.8c-2.8-3.3-5.2-5.6-6.7-7.3c-1.6-1.6-2.4-2.5-2.4-2.5l0,0
			c0,0-0.2-0.2-0.5-0.6c-0.3-0.4-0.9-0.8-1.4-1.5c-1.1-1.1-2.4-2.8-3.7-4.9c-0.2-0.3-0.4-0.6-0.6-0.9c-0.2-0.3-0.4-0.6-0.6-1
			c-1.3-2.3-2.5-5.2-3.5-8.3c-0.5-1.8-0.9-3.7-1.2-5.7c-0.2-2-0.4-4-0.4-6c0-2,0.2-4,0.4-6c0.3-2,0.8-3.9,1.2-5.7
			c1.1-3.6,2.5-6.7,4.1-9.3c1.6-2.5,3-4.5,4.3-5.8c0.5-0.7,1.1-1.2,1.4-1.5c0.3-0.4,0.5-0.6,0.5-0.6h0l0,0c0,0,0.6-0.5,1.6-1.5
			c1.1-0.9,2.7-2.3,4.8-3.7c4.3-2.8,11.2-6.1,20.4-6.6c4.6-0.2,9.5,0.3,14.4,1.9c4.9,1.6,9.6,4.1,14,7.8c2.2,1.9,4.3,4,6,6.3
			c1.8,2.3,3.3,4.8,4.5,7.4c2.5,5.3,3.8,11.3,3.9,17.4c-0.1,6.1-1.4,12.1-3.9,17.4c-1.3,2.6-2.8,5.1-4.5,7.4c-1.8,2.3-3.9,4.5-6,6.3
			c-4.3,3.7-9.1,6.2-14,7.8c-0.2,0.1-0.3,0.1-0.5,0.1c-2.9-4-5.7-7.6-8.2-10.8c1.7-0.2,3.4-0.6,5-1.1c3.4-1.1,6.7-2.8,9.7-5.4
			c1.5-1.3,3-2.9,4.3-4.5c1.2-1.6,2.3-3.3,3.2-5.1c1.7-3.6,2.6-7.9,2.7-12.1c-0.1-4.3-1-8.5-2.7-12.1c-0.9-1.8-1.9-3.5-3.2-5.1
			c-1.2-1.6-2.7-3.2-4.3-4.5c-3-2.6-6.3-4.3-9.7-5.4c-3.4-1.1-6.9-1.4-10.1-1.3c-6.5,0.4-11.2,2.7-14.2,4.6c-1.5,1-2.6,2-3.4,2.6
			c-0.7,0.8-1.2,1.1-1.2,1.1l0,0l0,0l0,0l0,0l0,0c0,0-0.1,0.1-0.3,0.4c-0.2,0.3-0.7,0.6-1,1.1c-0.9,0.9-1.9,2.3-3,4.1
			c-0.3,0.4-0.5,0.9-0.8,1.4c-0.3,0.5-0.5,1-0.7,1.5c-0.5,1.1-0.9,2.2-1.3,3.5c-0.3,1.3-0.6,2.6-0.9,4c-0.2,1.4-0.3,2.8-0.3,4.2
			c0,1.4,0.2,2.8,0.3,4.2c0.2,1.4,0.5,2.7,0.9,4c0.8,2.5,1.7,4.7,2.8,6.4c0.3,0.4,0.5,0.8,0.8,1.2c0.3,0.4,0.5,0.8,0.8,1.1
			c0.5,0.7,1,1.3,1.4,1.7c0.3,0.5,0.8,0.8,1,1.1c0.2,0.3,0.3,0.4,0.3,0.4l0,0c0,0,0.9,0.9,2.6,2.7c1.7,1.8,4.2,4.3,7.1,7.8
			c6,6.8,14.2,17.1,22.3,30.6c8.2,13.4,15.9,30.2,21.6,49c2.7,9.4,5,19.3,6.5,29.5c1.5,10.2,2.2,20.6,2.3,31c0,10.4-0.8,20.8-2.3,31
			c-1.5,10.2-3.8,20-6.5,29.5c-5.6,18.8-13.4,35.6-21.6,49c-8.1,13.5-16.3,23.8-22.3,30.6c-2.9,3.5-5.5,6-7.1,7.8
			c-1.7,1.8-2.6,2.7-2.6,2.7s-2.8,2.7-8.1,7.7c-5.5,4.8-13.7,11.9-25.1,19.5c-11.4,7.6-26.2,15.7-44.2,22.3
			c-18,6.6-39.2,11.5-62.6,12.7c-23.4,1.1-49-1.6-74.8-9.7c-25.7-8.1-51.4-21.9-73.7-40.9c-11.1-9.5-21.4-20.2-30.6-32.2
			c-9.2-12-17.3-25.1-23.9-39.1c-13.2-28-20.2-59.3-20.2-90.6c0-31.2,7-62.5,20.2-90.6c6.6-14,14.7-27.2,23.9-39.1
			c5.7-7.4,11.8-14.3,18.2-20.8l0,0c0,0,0.1-0.1,0.3-0.4c0.2-0.3,0.7-0.6,1-1.1c0.9-0.9,1.9-2.3,3-4.1c1.1-1.7,2-3.9,2.8-6.4
			c0.3-1.3,0.6-2.6,0.9-4c0.2-1.4,0.3-2.8,0.3-4.2c0-1.4-0.2-2.8-0.3-4.2c-0.2-1.4-0.5-2.7-0.9-4c-0.8-2.5-1.7-4.7-2.8-6.4
			c-1.1-1.7-2.1-3.2-3-4.1c-0.3-0.5-0.8-0.8-1-1.1c-0.2-0.3-0.3-0.4-0.3-0.4l0.3-0.3l0,0l-0.3,0.3c0,0-0.9-0.9-2.6-2.7
			c-1.7-1.8-4.2-4.3-7.1-7.8c-6-6.8-14.2-17.1-22.3-30.6c-8.2-13.4-15.9-30.2-21.6-49c-2.7-9.4-5-19.3-6.5-29.5
			c-1.5-10.2-2.2-20.6-2.3-31c0-10.4,0.8-20.8,2.3-31c1.5-10.2,3.8-20,6.5-29.5c5.6-18.8,13.4-35.6,21.6-49
			c8.1-13.5,16.3-23.8,22.3-30.6c2.9-3.5,5.5-6,7.1-7.8c1.7-1.8,2.6-2.7,2.6-2.7l0,0C367.8,184.4,374.7,178.3,382.1,172.6z
			 M679.2,286.9c-6.7-20.8-17.9-41.6-33.4-59.7c-15.6-18.4-35.8-34.2-59-45.1c-23.1-10.9-49-16.7-74.9-16.7
			c-25.9,0-51.7,5.8-74.9,16.7c-18.7,8.8-35.5,20.9-49.5,34.9l0,0c0,0-0.7,0.8-2.1,2.2c-1.4,1.5-3.5,3.5-5.9,6.4
			c-5,5.6-11.7,14.2-18.4,25.3c-6.7,11.1-13.1,25-17.8,40.5c-2.2,7.8-4.1,16-5.4,24.4c-1.2,8.4-1.8,17-1.9,25.6
			c0,8.6,0.7,17.2,1.9,25.6c1.3,8.4,3.1,16.6,5.4,24.4c4.7,15.5,11.1,29.4,17.8,40.5c6.7,11.1,13.4,19.7,18.4,25.3
			c2.4,2.9,4.5,4.9,5.9,6.4c1.4,1.5,2.1,2.2,2.1,2.2v0l0.3-0.3l0,0l-0.3,0.3c0,0,0.3,0.3,0.8,0.9c0.5,0.6,1.4,1.3,2.2,2.4
			c1.9,2.1,4.4,5.3,6.9,9.4c2.5,4.1,4.8,9.2,6.6,14.9c0.8,2.9,1.5,5.9,2,9.1c0.4,3.1,0.7,6.4,0.7,9.6c0,3.2-0.3,6.4-0.7,9.6
			c-0.5,3.1-1.2,6.2-2,9.1c-1.8,5.7-4.1,10.9-6.6,14.9c-2.5,4.1-4.9,7.3-6.9,9.4c-0.9,1.1-1.7,1.8-2.2,2.4c-0.5,0.6-0.8,0.9-0.8,0.9
			l0,0c-14,14-26.1,30.8-34.9,49.5c-10.9,23.1-16.7,49-16.7,74.9c0,25.9,5.8,51.7,16.7,74.9c10.9,23.2,26.8,43.4,45.1,59
			c18.4,15.8,39.7,27.1,60.9,33.8c21.3,6.7,42.5,9,61.9,8c19.4-1,36.9-5,51.8-10.5c14.9-5.5,27.1-12.1,36.5-18.4
			c9.5-6.3,16.2-12.1,20.8-16.1c4.4-4.1,6.7-6.4,6.7-6.4s0.7-0.8,2.1-2.2c1.4-1.5,3.5-3.5,5.9-6.4c5-5.6,11.7-14.2,18.4-25.3
			c6.7-11.1,13.1-25,17.8-40.5c2.2-7.8,4.1-16,5.4-24.4c1.2-8.4,1.8-17,1.9-25.6c0-8.6-0.7-17.2-1.9-25.6
			c-1.3-8.4-3.1-16.6-5.4-24.4c-4.7-15.5-11.1-29.4-17.8-40.5c-6.7-11.1-13.4-19.7-18.4-25.3c-2.4-2.9-4.5-4.9-5.9-6.4
			c-1.4-1.5-2.1-2.2-2.1-2.2v0c0,0-0.3-0.3-0.8-0.9c-0.5-0.6-1.4-1.3-2.2-2.4c-1.2-1.3-2.6-3-4.1-5.2c-0.3-0.4-0.6-0.9-0.9-1.3
			c-0.6-0.9-1.2-1.9-1.9-2.9c-0.6-1-1.2-2.1-1.8-3.2c-0.3-0.6-0.6-1.2-0.9-1.8c-1.4-3-2.7-6.3-3.9-9.9c-0.8-2.9-1.5-5.9-2-9.1
			c-0.4-3.1-0.7-6.4-0.7-9.6c0-3.2,0.3-6.4,0.7-9.6c0.5-3.1,1.2-6.2,2-9.1c1.8-5.7,4.1-10.9,6.6-14.9c2.2-3.6,4.3-6.5,6.1-8.5
			c0.3-0.3,0.5-0.6,0.7-0.8c0.2-0.3,0.4-0.5,0.6-0.8c0.4-0.5,0.8-0.9,1.2-1.2c0.2-0.2,0.3-0.3,0.4-0.5c0.5-0.6,0.8-0.9,0.8-0.9l0,0
			l0,0l0,0l0,0l0,0c0,0,0.9-0.8,2.5-2.4c1.7-1.5,4.2-3.7,7.7-6c3.5-2.3,8-4.7,13.5-6.8c5.5-2,12-3.5,19.3-3.9
			c7.2-0.3,15.2,0.5,23.1,3c7.9,2.5,15.6,6.6,22.5,12.5c7,6,12.8,13.5,16.9,22c4,8.5,6.1,18.1,6.2,27.8c-0.1,9.7-2.2,19.3-6.2,27.8
			c-4,8.5-9.9,16-16.9,22c-5.2,4.5-10.9,7.9-16.8,10.4c-1-1.8-2.1-3.6-3.1-5.3c-1.1-1.8-2.2-3.6-3.3-5.3c5.3-2.1,10.5-5,15.3-9.1
			c5.7-4.9,10.5-11,13.7-17.8c3.3-6.9,5-14.7,5-22.6c-0.1-7.9-1.8-15.7-5-22.6c-3.2-6.9-8-13-13.7-17.8c-5.6-4.8-11.8-8.1-18.2-10.1
			c-6.4-2-12.9-2.7-18.8-2.4c-5.9,0.4-11.2,1.5-15.6,3.2c-4.4,1.7-8.1,3.6-10.9,5.5c-2.8,1.9-4.9,3.7-6.3,4.9c-1.3,1.3-2.1,2-2.1,2
			l0,0l0,0l0,0v0v0c0,0-0.2,0.2-0.6,0.7c-0.4,0.5-1.1,1.1-1.8,2c-1.6,1.7-3.5,4.3-5.6,7.6c-2,3.3-3.9,7.5-5.3,12.1
			c-0.6,2.4-1.2,4.8-1.6,7.4c-0.3,2.6-0.5,5.2-0.6,7.8c0,2.6,0.2,5.2,0.6,7.8c0.4,2.5,1,5,1.6,7.4c1.5,4.6,3.3,8.8,5.3,12.1
			c2,3.3,4,5.9,5.6,7.6c0.7,0.9,1.4,1.5,1.8,2c0.1,0.1,0.2,0.2,0.3,0.3c0.2,0.2,0.3,0.3,0.3,0.4c0,0,0,0,0,0v0c0,0,0.8,0.8,2.3,2.4
			c1.5,1.6,3.7,3.8,6.3,6.9c5.4,6,12.5,15.1,19.7,27c7.2,11.9,14.1,26.7,19.1,43.3c2.4,8.3,4.4,17.1,5.7,26.1c1.3,9,2,18.2,2,27.4
			c0,9.2-0.7,18.4-2,27.4c-1.3,9-3.3,17.7-5.7,26.1c-5,16.6-11.8,31.5-19.1,43.3c-7.2,11.9-14.4,21-19.7,27
			c-2.6,3.1-4.9,5.3-6.3,6.9c-1.5,1.6-2.3,2.4-2.3,2.4s-2.5,2.4-7.2,6.8c-4.9,4.3-12.1,10.5-22.2,17.2
			c-10.1,6.7-23.2,13.8-39.1,19.7c-15.9,5.8-34.7,10.1-55.4,11.2c-20.7,1-43.4-1.4-66.2-8.6c-22.7-7.2-45.5-19.3-65.2-36.2
			c-9.9-8.4-18.9-17.9-27.1-28.5c-8.2-10.6-15.3-22.2-21.1-34.6c-11.7-24.8-17.8-52.5-17.9-80.1c0-27.7,6.2-55.3,17.9-80.1
			c5.8-12.4,13-24,21.1-34.6c5-6.5,10.4-12.7,16.2-18.4l0,0c0,0,0.2-0.2,0.6-0.7c0.4-0.5,1.1-1.1,1.8-2c1.6-1.7,3.5-4.3,5.6-7.6
			c2-3.3,3.9-7.5,5.3-12.1c0.6-2.4,1.2-4.8,1.6-7.4c0.3-2.6,0.5-5.2,0.6-7.8c0-2.6-0.2-5.2-0.6-7.8c-0.4-2.5-1-5-1.6-7.4
			c-1.5-4.6-3.3-8.8-5.3-12.1c-2-3.3-4-5.9-5.6-7.6c-0.7-0.9-1.4-1.5-1.8-2c-0.4-0.5-0.6-0.7-0.6-0.7l0.3-0.3l0,0l-0.3,0.3
			c0,0-0.8-0.8-2.3-2.4c-1.5-1.6-3.7-3.8-6.3-6.9c-5.4-6-12.5-15.1-19.7-27c-7.2-11.9-14.1-26.7-19.1-43.3
			c-2.4-8.3-4.4-17.1-5.7-26.1c-1.3-9-2-18.2-2-27.4c0-9.2,0.7-18.4,2-27.4c1.3-9,3.3-17.7,5.7-26.1c5-16.6,11.8-31.5,19.1-43.3
			c7.2-11.9,14.4-21,19.7-27c2.6-3.1,4.9-5.3,6.3-6.9c1.5-1.6,2.3-2.4,2.3-2.4l0,0c5.7-5.7,11.8-11.1,18.4-16.2
			c10.6-8.2,22.2-15.3,34.6-21.1c24.8-11.7,52.5-17.8,80.1-17.9c27.7,0,55.3,6.2,80.1,17.9c12.4,5.8,24,13,34.6,21.1
			c10.6,8.2,20.1,17.3,28.5,27.1c16.9,19.7,29,42.5,36.2,65.2c0.3,0.9,0.6,1.8,0.8,2.7C687.7,286.9,683.4,286.9,679.2,286.9z
			 M653.8,288.7c-5.9-16-14.9-31.7-26.8-45.6c-13.5-15.8-30.9-29.5-50.8-38.8c-19.9-9.4-42.2-14.3-64.4-14.4
			c-22.3,0-44.5,5-64.4,14.4c-16.1,7.6-30.5,17.9-42.6,30l0,0c0,0-0.6,0.7-1.8,1.9c-1.2,1.3-3,3-5.1,5.5
			c-4.3,4.8-10.1,12.2-15.9,21.7c-5.8,9.5-11.3,21.5-15.3,34.8c-1.9,6.7-3.5,13.7-4.6,21c-1,7.2-1.6,14.7-1.6,22.1
			c0,7.4,0.6,14.8,1.6,22.1c1.1,7.2,2.7,14.3,4.6,21c4,13.3,9.5,25.3,15.3,34.8c5.8,9.6,11.5,16.9,15.9,21.7
			c2.1,2.5,3.9,4.3,5.1,5.5c1.2,1.3,1.8,1.9,1.8,1.9l0.3-0.3v0l-0.3,0.3c0,0,0.4,0.4,1.1,1.2c0.7,0.8,1.8,1.8,3.1,3.3
			c2.6,2.9,6,7.3,9.4,12.9c3.5,5.6,6.6,12.7,9.1,20.6c1.1,4,2.1,8.2,2.7,12.5c0.6,4.3,0.9,8.7,1,13.2c0,4.4-0.4,8.8-1,13.2
			c-0.7,4.3-1.6,8.5-2.7,12.5c-2.4,7.9-5.6,15-9.1,20.6c-3.4,5.6-6.8,10-9.4,12.9c-1.2,1.5-2.4,2.5-3.1,3.3
			c-0.7,0.8-1.1,1.2-1.1,1.2l0,0c-12.1,12.1-22.4,26.5-30,42.6c-9.4,19.9-14.3,42.2-14.4,64.4c0,22.3,5,44.5,14.4,64.4
			c9.4,19.9,23,37.3,38.8,50.8c15.9,13.6,34.1,23.3,52.4,29.1c18.3,5.8,36.6,7.7,53.2,6.9c16.7-0.9,31.8-4.3,44.6-9
			c12.8-4.7,23.3-10.4,31.4-15.8c8.2-5.4,14-10.4,17.9-13.8c3.8-3.6,5.8-5.5,5.8-5.5s0.6-0.7,1.8-1.9c1.2-1.3,3-3,5.1-5.5
			c4.3-4.8,10.1-12.2,15.9-21.7c5.8-9.5,11.3-21.5,15.3-34.8c1.9-6.7,3.5-13.7,4.6-21c1-7.2,1.6-14.7,1.6-22.1
			c0-7.4-0.6-14.8-1.6-22.1c-1.1-7.2-2.7-14.3-4.6-21c-4-13.3-9.5-25.3-15.3-34.8c-5.8-9.6-11.5-16.9-15.9-21.7
			c-2.1-2.5-3.9-4.3-5.1-5.5c-1.2-1.3-1.8-1.9-1.8-1.9l0,0c0,0,0,0-0.1-0.1c-0.1-0.1-0.5-0.5-1-1.1c-0.7-0.8-1.8-1.8-3.1-3.3
			c-2.6-2.9-6-7.3-9.4-12.9c-3.5-5.6-6.6-12.7-9.1-20.6c-0.3-1-0.5-2-0.8-3c-0.8-3.1-1.4-6.2-1.9-9.4c-0.6-4.3-0.9-8.7-1-13.2
			c0-4.4,0.4-8.8,1-13.2c0.7-4.3,1.6-8.5,2.7-12.5c1.2-4,2.6-7.7,4.2-11.2c0.4-0.9,0.8-1.7,1.2-2.5c1.2-2.5,2.5-4.8,3.7-6.9
			c3.4-5.6,6.8-10,9.4-12.9c1.2-1.5,2.4-2.5,3.1-3.3c0.7-0.8,1.1-1.2,1.1-1.2l0,0h0h0c0,0,1.2-1.1,3.5-3.3c2.4-2,5.8-5,10.6-8.2
			c4.8-3.2,11-6.6,18.6-9.3c7.6-2.8,16.5-4.8,26.5-5.4c9.9-0.4,20.8,0.7,31.7,4.1c10.8,3.4,21.6,9.2,31,17.2
			c9.5,8.1,17.6,18.4,23.1,30.2c5.6,11.8,8.5,25,8.5,38.3c-0.1,13.3-3,26.5-8.5,38.3c-5.5,11.8-13.6,22.1-23.1,30.2
			c-6.8,5.8-14.2,10.4-21.9,13.8c-1.6-3.9-3.4-7.6-5.1-11.2c6.7-2.9,13.1-6.9,19.1-12c8.2-7,15.2-15.9,20-26.1
			c4.8-10.1,7.3-21.6,7.4-33.1c-0.1-11.5-2.6-22.9-7.4-33.1c-4.8-10.1-11.8-19-20-26.1c-8.2-7-17.4-11.9-26.8-14.9
			c-9.4-3-18.8-4-27.4-3.6c-8.6,0.5-16.4,2.2-22.9,4.6c-6.5,2.4-11.9,5.3-16,8.1c-4.2,2.8-7.1,5.4-9.2,7.1c-2,1.9-3,2.9-3,2.9l0,0v0
			l0,0c0,0-0.3,0.4-0.9,1c-0.6,0.7-1.6,1.6-2.6,2.9c-2.3,2.5-5.2,6.3-8.1,11.1c-0.7,1.2-1.5,2.5-2.2,3.9s-1.4,2.8-2.1,4.3
			c-1.3,3-2.5,6.2-3.6,9.6c-1,3.4-1.8,7-2.4,10.8c-0.5,3.7-0.8,7.5-0.8,11.4c0,3.8,0.3,7.6,0.8,11.4c0.6,3.7,1.4,7.3,2.4,10.8
			c2.1,6.8,4.8,12.9,7.8,17.8c0.7,1.2,1.5,2.4,2.2,3.4c1.1,1.6,2.1,3.1,3.1,4.4c1,1.3,1.9,2.4,2.8,3.3c0.3,0.3,0.5,0.6,0.8,0.9
			c0.3,0.3,0.5,0.5,0.7,0.8c0.5,0.5,0.9,0.9,1.2,1.2c0.6,0.7,0.9,1,0.9,1l0,0c0,0,0.7,0.7,2,2.1c1.3,1.4,3.2,3.3,5.5,6
			c4.7,5.2,10.9,13.2,17.2,23.5c6.3,10.3,12.2,23.2,16.6,37.7c2.1,7.2,3.8,14.8,5,22.7c1.1,7.8,1.7,15.8,1.7,23.9
			c0,8-0.6,16-1.7,23.9c-1.2,7.8-2.9,15.4-5,22.7c-4.4,14.4-10.3,27.3-16.6,37.7c-6.3,10.3-12.5,18.3-17.2,23.5
			c-2.3,2.7-4.2,4.6-5.5,6c-1.3,1.4-2,2.1-2,2.1s-2.2,2.1-6.3,5.9c-4.2,3.7-10.5,9.1-19.3,15c-8.8,5.8-20.2,12-34,17.1
			c-13.8,5.1-30.1,8.8-48.2,9.7c-18,0.8-37.8-1.2-57.5-7.5c-19.8-6.2-39.5-16.8-56.6-31.5c-17.1-14.6-31.8-33.3-42-54.9
			c-10.2-21.5-15.5-45.6-15.5-69.7c0-24.1,5.4-48.1,15.5-69.7c8.2-17.4,19.4-33,32.4-46.1l0,0c0,0,0.3-0.4,0.9-1
			c0.6-0.7,1.6-1.6,2.6-2.9c2.3-2.5,5.2-6.3,8.1-11.1c3-4.9,5.7-11,7.8-17.8c1-3.4,1.8-7,2.4-10.8c0.5-3.7,0.8-7.5,0.8-11.4
			c0-3.8-0.3-7.6-0.8-11.4c-0.6-3.7-1.4-7.3-2.4-10.8c-2.1-6.8-4.8-12.9-7.8-17.8c-3-4.9-5.9-8.7-8.1-11.1c-1-1.3-2.1-2.2-2.6-2.9
			c-0.6-0.7-0.9-1-0.9-1l0.3-0.3v0l-0.3,0.3c0,0-0.7-0.7-2-2.1c-1.3-1.4-3.2-3.3-5.5-6c-4.7-5.2-10.9-13.2-17.2-23.5
			c-6.3-10.3-12.2-23.2-16.6-37.7c-2.1-7.2-3.8-14.8-5-22.7c-1.1-7.8-1.7-15.8-1.7-23.9c0-8,0.6-16,1.7-23.9
			c1.2-7.8,2.9-15.4,5-22.7c4.4-14.4,10.3-27.3,16.6-37.7c6.3-10.3,12.5-18.3,17.2-23.5c2.3-2.7,4.2-4.6,5.5-6c1.3-1.4,2-2.1,2-2.1
			l0,0c13-13,28.6-24.2,46.1-32.4c21.5-10.2,45.6-15.5,69.7-15.5c24.1,0,48.1,5.4,69.7,15.5c21.6,10.1,40.3,24.9,54.9,42
			c13.6,15.9,23.7,34,30,52.3C662.1,287.8,657.9,288.2,653.8,288.7z M629.2,293.3c-4.9-12-11.9-23.7-20.8-34.2
			c-11.3-13.3-25.9-24.7-42.5-32.6c-16.6-7.9-35.3-12-54-12c-18.7,0-37.3,4.2-54,12c-13.5,6.3-25.6,15-35.7,25.1l0,0
			c0,0-0.5,0.6-1.5,1.6c-1,1.1-2.5,2.5-4.3,4.6c-3.6,4-8.4,10.2-13.3,18.2c-4.9,8-9.4,18-12.8,29.1c-1.6,5.6-2.9,11.5-3.9,17.6
			c-0.9,6.1-1.3,12.3-1.4,18.5c0,6.2,0.5,12.4,1.4,18.5c0.9,6.1,2.3,11.9,3.9,17.6c3.4,11.2,8,21.2,12.8,29.1
			c4.8,8,9.7,14.2,13.3,18.2c1.7,2.1,3.3,3.6,4.3,4.6c1,1.1,1.5,1.6,1.5,1.6l0,0c0,0,0.5,0.5,1.4,1.5c0.9,1,2.3,2.3,3.9,4.2
			c3.3,3.7,7.6,9.2,12,16.4c4.4,7.2,8.5,16.2,11.6,26.3c1.4,5.1,2.7,10.4,3.5,15.9c0.8,5.5,1.2,11.1,1.2,16.7
			c0,5.6-0.5,11.2-1.2,16.7c-0.8,5.5-2,10.8-3.5,15.9c-3.1,10.1-7.2,19.1-11.6,26.3c-4.4,7.2-8.7,12.8-12,16.4
			c-1.6,1.9-3,3.2-3.9,4.2c-0.9,1-1.4,1.5-1.4,1.5l0,0c-10.1,10.1-18.8,22.2-25.1,35.7c-7.9,16.6-12,35.3-12,54
			c0,18.7,4.2,37.3,12,54c7.8,16.7,19.3,31.2,32.6,42.5c13.3,11.4,28.5,19.5,43.8,24.4c15.3,4.9,30.6,6.5,44.6,5.8
			c14-0.7,26.7-3.6,37.3-7.6c10.7-3.9,19.5-8.7,26.3-13.2c6.8-4.5,11.7-8.7,15-11.6c3.2-3,4.9-4.6,4.9-4.6l0,0c0,0,0.5-0.6,1.5-1.6
			c1-1.1,2.5-2.5,4.3-4.6c3.6-4,8.4-10.2,13.3-18.2c4.9-8,9.4-18,12.8-29.1c1.6-5.6,2.9-11.5,3.9-17.6c0.9-6.1,1.3-12.3,1.4-18.5
			c0-6.2-0.5-12.4-1.4-18.5c-0.9-6.1-2.3-11.9-3.9-17.6c-3.4-11.2-8-21.2-12.8-29.1c-4.8-8-9.7-14.2-13.3-18.2
			c-1.7-2.1-3.3-3.6-4.3-4.6c-1-1.1-1.5-1.6-1.5-1.6l0,0c0,0-0.5-0.5-1.4-1.5c-0.9-1-2.3-2.3-3.9-4.2c-3.3-3.7-7.6-9.2-12-16.4
			c-4.4-7.2-8.5-16.2-11.6-26.3c-1.1-3.8-2-7.7-2.8-11.8c-0.3-1.3-0.5-2.7-0.7-4.1c-0.2-1.4-0.4-2.7-0.5-4.1
			c-0.4-4.2-0.7-8.4-0.7-12.6c0-5.6,0.5-11.2,1.2-16.7c0.8-5.5,2-10.8,3.5-15.9c3.1-10.1,7.2-19.1,11.6-26.3
			c4.4-7.2,8.7-12.8,12-16.4c1.6-1.9,3-3.2,3.9-4.2c0.2-0.2,0.4-0.5,0.6-0.6c0.5-0.5,0.8-0.8,0.8-0.8h0l0,0v0c0,0,1.5-1.5,4.4-4.2
			c3-2.6,7.4-6.4,13.5-10.5c6.1-4.1,14.1-8.4,23.7-11.9c9.6-3.6,21.1-6.1,33.7-6.8c12.6-0.6,26.5,0.9,40.3,5.2
			c13.8,4.4,27.5,11.7,39.6,22c12,10.3,22.3,23.4,29.4,38.4c7.1,15,10.8,31.9,10.9,48.7c-0.1,16.9-3.8,33.7-10.9,48.7
			c-7.1,15-17.4,28.2-29.4,38.4c-9.1,7.8-19.1,13.9-29.5,18.2c-1.2-4-2.5-7.9-3.9-11.7c8.9-3.9,17.5-9.2,25.4-15.9
			c10.8-9.2,20-20.9,26.3-34.3c6.3-13.4,9.6-28.4,9.7-43.5c-0.1-15.1-3.4-30.1-9.7-43.5c-6.3-13.4-15.5-25.1-26.3-34.3
			c-10.7-9.2-23-15.7-35.3-19.6c-12.3-3.9-24.7-5.2-36-4.7c-11.3,0.6-21.5,2.9-30.1,6.1c-8.6,3.2-15.7,7-21.2,10.6
			c-5.5,3.6-9.4,7.1-12.1,9.4c-2.6,2.4-3.9,3.7-3.9,3.7h0v0v0c0,0-0.4,0.5-1.2,1.3c-0.8,0.9-2.1,2.1-3.5,3.8
			c-3,3.3-6.8,8.2-10.7,14.7c-3.4,5.6-6.7,12.5-9.3,20.1c-0.4,1.1-0.7,2.2-1.1,3.3c-0.6,2.3-1.2,4.6-1.8,6.9c-0.5,2.4-1,4.8-1.4,7.2
			c-0.7,4.9-1.1,9.9-1.1,14.9c0,3.8,0.3,7.5,0.6,11.2c0.1,1.2,0.3,2.5,0.5,3.7c0.7,4.9,1.8,9.6,3.1,14.2c0.3,1.1,0.7,2.2,1.1,3.3
			c2.2,6.6,4.9,12.5,7.8,17.6c0.5,0.9,1,1.7,1.5,2.5c2.4,4,4.9,7.5,7.1,10.3c1.3,1.7,2.6,3.2,3.7,4.4c0.3,0.4,0.7,0.8,1,1.2
			c1,1.1,1.9,1.9,2.4,2.6c0.2,0.2,0.4,0.4,0.5,0.6c0.5,0.5,0.7,0.7,0.7,0.7v0c0,0,0.6,0.6,1.7,1.8c1.1,1.2,2.8,2.8,4.7,5.1
			c4,4.4,9.3,11.2,14.6,20c5.3,8.8,10.4,19.7,14.1,32c1.8,6.2,3.2,12.6,4.2,19.3c0.9,6.7,1.4,13.5,1.5,20.3c0,6.8-0.6,13.6-1.5,20.3
			c-1,6.6-2.5,13.1-4.2,19.3c-3.7,12.3-8.7,23.2-14.1,32c-5.3,8.8-10.6,15.5-14.6,20c-1.9,2.3-3.6,3.9-4.7,5.1
			c-1.1,1.2-1.7,1.8-1.7,1.8s-1.9,1.8-5.3,5.1c-3.6,3.1-8.9,7.8-16.4,12.7c-7.5,5-17.1,10.2-28.8,14.5c-11.7,4.3-25.6,7.5-40.9,8.3
			c-15.3,0.7-32.1-1-48.9-6.4c-16.8-5.3-33.5-14.2-48.1-26.7c-14.6-12.4-27.1-28.4-35.7-46.7c-8.6-18.3-13.2-38.7-13.2-59.2
			c0-20.5,4.6-40.9,13.2-59.2c7-14.8,16.5-28,27.6-39.1l0,0c0,0,0.4-0.5,1.2-1.3c0.8-0.9,2.1-2.1,3.5-3.8c3-3.3,6.8-8.2,10.7-14.7
			c3.9-6.4,7.6-14.5,10.3-23.5c1.3-4.5,2.4-9.3,3.1-14.2c0.7-4.9,1.1-9.9,1.1-14.9c0-5-0.4-10-1.1-14.9c-0.7-4.9-1.8-9.6-3.1-14.2
			c-2.8-9-6.4-17-10.3-23.5c-3.9-6.4-7.8-11.4-10.7-14.7c-1.4-1.7-2.7-2.9-3.5-3.8c-0.8-0.9-1.2-1.3-1.2-1.3l0.3-0.3l0,0l-0.3,0.3
			c0,0-0.6-0.6-1.7-1.8c-1.1-1.2-2.8-2.8-4.7-5.1c-4-4.4-9.3-11.2-14.6-20c-5.3-8.8-10.4-19.7-14.1-32c-1.8-6.2-3.2-12.6-4.2-19.3
			c-0.9-6.7-1.4-13.5-1.5-20.3c0-6.8,0.6-13.6,1.5-20.3c1-6.6,2.5-13.1,4.2-19.3c3.7-12.3,8.7-23.2,14.1-32
			c5.3-8.8,10.6-15.5,14.6-20c1.9-2.3,3.6-3.9,4.7-5.1c1.1-1.2,1.7-1.8,1.7-1.8l0,0c11.1-11.1,24.4-20.6,39.1-27.6
			c18.3-8.6,38.7-13.2,59.2-13.2c20.5,0,40.9,4.6,59.2,13.2c18.3,8.6,34.2,21.1,46.7,35.7c10.4,12.1,18.3,25.7,23.7,39.5
			C637.2,291.4,633.1,292.3,629.2,293.3z M605.5,300.4c-3.9-8.9-9.2-17.5-15.9-25.3c-9.2-10.8-20.9-20-34.3-26.3
			c-13.4-6.3-28.4-9.6-43.5-9.7c-15.1,0.1-30.1,3.4-43.5,9.7c-10.8,5.1-20.6,12.1-28.8,20.3l0,0c0,0-0.4,0.5-1.2,1.3
			c-0.8,0.9-2.1,2.1-3.5,3.8c-3,3.3-6.8,8.2-10.7,14.7c-3.9,6.4-7.6,14.5-10.3,23.5c-1.3,4.5-2.4,9.3-3.1,14.2
			c-0.7,4.9-1.1,9.9-1.1,14.9c0,5,0.4,10,1.1,14.9c0.7,4.9,1.8,9.6,3.1,14.2c2.8,9,6.4,17,10.3,23.5c3.9,6.4,7.8,11.4,10.7,14.7
			c1.4,1.7,2.7,2.9,3.5,3.8c0.8,0.9,1.2,1.3,1.2,1.3v0c0,0,0.6,0.6,1.7,1.8c1.1,1.2,2.8,2.8,4.7,5.1c4,4.4,9.3,11.2,14.6,20
			c5.3,8.8,10.4,19.7,14.1,32c1.8,6.2,3.2,12.6,4.2,19.3c0.9,6.7,1.4,13.5,1.5,20.3c0,6.8-0.6,13.6-1.5,20.3
			c-1,6.6-2.5,13.1-4.2,19.3c-3.7,12.3-8.7,23.2-14.1,32c-5.3,8.8-10.6,15.5-14.6,20c-1.9,2.3-3.6,3.9-4.7,5.1
			c-1.1,1.2-1.7,1.8-1.7,1.8l0,0c-8.2,8.2-15.2,17.9-20.3,28.8c-6.3,13.4-9.6,28.4-9.7,43.5c0.1,15.1,3.4,30.1,9.7,43.5
			c6.3,13.4,15.5,25.1,26.3,34.3c10.7,9.2,23,15.7,35.3,19.6c12.3,3.9,24.7,5.2,36,4.7c11.3-0.6,21.5-2.9,30.1-6.1
			c8.6-3.2,15.7-7,21.2-10.6c5.5-3.6,9.4-7.1,12.1-9.4c2.6-2.4,3.9-3.7,3.9-3.7l0,0l0,0l0,0c0,0,0.4-0.5,1.2-1.3
			c0.8-0.9,2.1-2.1,3.5-3.8c3-3.3,6.8-8.2,10.7-14.7c3.9-6.4,7.6-14.5,10.3-23.5c1.3-4.5,2.4-9.3,3.1-14.2c0.7-4.9,1.1-9.9,1.1-14.9
			c0-5-0.4-10-1.1-14.9c-0.7-4.9-1.8-9.6-3.1-14.2c-2.8-9-6.4-17-10.3-23.5c-3.9-6.4-7.8-11.4-10.7-14.7c-1.4-1.7-2.7-2.9-3.5-3.8
			c-0.8-0.9-1.2-1.3-1.2-1.3l0,0c0,0-0.6-0.6-1.7-1.8c-1.1-1.2-2.8-2.8-4.7-5.1c-4-4.4-9.3-11.2-14.6-20c-1.9-3.1-3.7-6.4-5.4-10
			c1.9-6.6,3.5-13.5,4.8-20.5c3.2,9.1,7.1,17.4,11.2,24.1c2.4,4,4.8,7.5,7.1,10.6c2.3,3,4.4,5.6,6.2,7.6c1.7,2.1,3.3,3.6,4.3,4.6
			c1,1.1,1.5,1.6,1.5,1.6l0,0c0,0,0.5,0.5,1.4,1.5c0.9,1,2.3,2.3,3.9,4.2c3.3,3.7,7.6,9.2,12,16.4c4.4,7.2,8.5,16.2,11.6,26.3
			c1.4,5.1,2.7,10.4,3.5,15.9c0.8,5.5,1.2,11.1,1.2,16.7c0,5.6-0.5,11.2-1.2,16.7c-0.8,5.5-2,10.8-3.5,15.9
			c-3.1,10.1-7.2,19.1-11.6,26.3c-4.4,7.2-8.7,12.8-12,16.4c-1.6,1.9-3,3.2-3.9,4.2c-0.9,1-1.4,1.5-1.4,1.5h0c0,0-1.5,1.5-4.4,4.2
			c-3,2.6-7.4,6.4-13.5,10.5c-6.1,4.1-14.1,8.4-23.7,11.9c-9.6,3.6-21.1,6.1-33.7,6.8c-12.6,0.6-26.5-0.9-40.3-5.2
			c-13.8-4.4-27.5-11.7-39.6-22c-12-10.3-22.3-23.4-29.4-38.4c-7.1-15-10.8-31.9-10.9-48.7c0.1-16.9,3.8-33.7,10.9-48.7
			c5.7-12.1,13.6-23.1,22.7-32.2l0,0c0,0,0.5-0.6,1.5-1.6c1-1.1,2.5-2.5,4.3-4.6c3.6-4,8.4-10.2,13.3-18.2c4.9-8,9.4-18,12.8-29.1
			c1.6-5.6,2.9-11.5,3.9-17.6c0.9-6.1,1.3-12.3,1.4-18.5c0-6.2-0.5-12.4-1.4-18.5c-0.9-6.1-2.3-11.9-3.9-17.6
			c-3.4-11.2-8-21.2-12.8-29.1c-4.8-8-9.7-14.2-13.3-18.2c-1.7-2.1-3.3-3.6-4.3-4.6c-1-1.1-1.5-1.6-1.5-1.6l0,0c0,0-0.5-0.5-1.4-1.5
			c-0.9-1-2.3-2.3-3.9-4.2c-3.3-3.7-7.6-9.2-12-16.4c-4.4-7.2-8.5-16.2-11.6-26.3c-1.4-5.1-2.7-10.4-3.5-15.9
			c-0.8-5.5-1.2-11.1-1.2-16.7c0-5.6,0.5-11.2,1.2-16.7c0.8-5.5,2-10.8,3.5-15.9c3.1-10.1,7.2-19.1,11.6-26.3
			c4.4-7.2,8.7-12.8,12-16.4c1.6-1.9,3-3.2,3.9-4.2c0.9-1,1.4-1.5,1.4-1.5l0,0c9.2-9.2,20.1-17,32.2-22.7
			c15-7.1,31.9-10.8,48.7-10.9c16.9,0.1,33.7,3.8,48.7,10.9c15,7.1,28.2,17.4,38.4,29.4c7.8,9.1,13.8,19.1,18.2,29.4
			C613.2,297.7,609.3,299.1,605.5,300.4z M582.9,310.1c-2.9-6.7-6.9-13.1-11.9-19c-7-8.2-15.9-15.2-26.1-20
			c-10.1-4.8-21.6-7.3-33.1-7.4c-11.5,0.1-22.9,2.6-33.1,7.4c-8.2,3.9-15.6,9.2-21.8,15.4l0,0c0,0-0.3,0.4-0.9,1
			c-0.6,0.7-1.6,1.6-2.6,2.9c-2.3,2.5-5.2,6.3-8.1,11.1c-3,4.9-5.7,11-7.8,17.8c-1,3.4-1.8,7-2.4,10.8c-0.5,3.7-0.8,7.5-0.8,11.4
			c0,3.8,0.3,7.6,0.8,11.4c0.6,3.7,1.4,7.3,2.4,10.8c2.1,6.8,4.8,12.9,7.8,17.8c3,4.9,5.9,8.7,8.1,11.1c1,1.3,2.1,2.2,2.6,2.9
			c0.6,0.7,0.9,1,0.9,1l0.3-0.3l0,0l-0.3,0.3c0,0,0.7,0.7,2,2.1c1.3,1.4,3.2,3.3,5.5,6c4.7,5.2,10.9,13.2,17.2,23.5
			c6.3,10.3,12.2,23.2,16.6,37.7c2.1,7.2,3.8,14.8,5,22.7c1.1,7.8,1.7,15.8,1.7,23.9c0,8-0.6,16-1.7,23.9c-1.2,7.8-2.9,15.4-5,22.7
			c-4.4,14.4-10.3,27.3-16.6,37.7c-6.3,10.3-12.5,18.3-17.2,23.5c-2.3,2.7-4.2,4.6-5.5,6c-1.3,1.4-2,2.1-2,2.1l0,0
			c-6.2,6.3-11.6,13.6-15.4,21.8c-4.8,10.1-7.3,21.6-7.4,33.1c0.1,11.5,2.6,22.9,7.4,33.1c4.8,10.1,11.8,19,20,26.1
			c8.2,7,17.4,11.9,26.8,14.9c9.4,3,18.8,4,27.4,3.6c8.6-0.5,16.4-2.2,22.9-4.6c6.5-2.4,11.9-5.3,16-8.1c4.2-2.8,7.1-5.4,9.2-7.1
			c2-1.9,3-2.9,3-2.9l0,0l0,0l0,0c0,0,0.3-0.4,0.9-1c0.6-0.7,1.6-1.6,2.6-2.9c2.3-2.5,5.2-6.3,8.1-11.1c3-4.9,5.7-11,7.8-17.8
			c1-3.4,1.8-7,2.4-10.8c0.5-3.7,0.8-7.5,0.8-11.4c0-3.8-0.3-7.6-0.8-11.4c-0.6-3.7-1.4-7.3-2.4-10.8c-2.1-6.8-4.8-12.9-7.8-17.8
			c-3-4.9-5.9-8.7-8.1-11.1c-1-1.3-2.1-2.2-2.6-2.9c-0.6-0.7-0.9-1-0.9-1h0c0,0-0.7-0.7-2-2.1c-1-1-2.3-2.4-3.9-4.1
			c-0.5-0.6-1.1-1.2-1.6-1.9c-0.3-0.3-0.6-0.7-0.9-1c-0.6-0.7-1.2-1.4-1.9-2.2c-0.3-0.4-0.7-0.8-1-1.2c-2.7-3.3-5.6-7.2-8.6-11.7
			c2-4.5,3.9-9.1,5.7-14c0,0.1,0.1,0.2,0.1,0.2c5.8,9.6,11.5,16.9,15.9,21.7c2.1,2.5,3.9,4.3,5.1,5.5c1.2,1.3,1.8,1.9,1.8,1.9l0,0
			c0,0,0.4,0.4,1.1,1.2c0.7,0.8,1.8,1.8,3.1,3.3c2.6,2.9,6,7.3,9.4,12.9c3.5,5.6,6.6,12.7,9.1,20.6c1.1,4,2.1,8.2,2.7,12.5
			c0.6,4.3,0.9,8.7,1,13.2c0,4.4-0.4,8.8-1,13.2c-0.7,4.3-1.6,8.5-2.7,12.5c-2.4,7.9-5.6,15-9.1,20.6c-3.4,5.6-6.8,10-9.4,12.9
			c-1.2,1.5-2.4,2.5-3.1,3.3c-0.7,0.8-1.1,1.2-1.1,1.2l0,0l0,0l0,0c0,0-1.2,1.1-3.5,3.3c-2.4,2-5.8,5-10.6,8.2
			c-4.8,3.2-11,6.6-18.6,9.3c-7.6,2.8-16.5,4.8-26.5,5.4c-9.9,0.4-20.8-0.7-31.7-4.1c-10.8-3.4-21.6-9.2-31-17.2
			c-9.5-8.1-17.6-18.4-23.1-30.2c-5.6-11.8-8.5-25-8.5-38.3c0.1-13.3,3-26.5,8.5-38.3c4.5-9.5,10.6-18.1,17.8-25.3l0,0
			c0,0,0.6-0.7,1.8-1.9c1.2-1.3,3-3,5.1-5.5c4.3-4.8,10.1-12.2,15.9-21.7c5.8-9.5,11.3-21.5,15.3-34.8c1.9-6.7,3.5-13.7,4.6-21
			c1-7.2,1.6-14.7,1.6-22.1c0-7.4-0.6-14.8-1.6-22.1c-1.1-7.2-2.7-14.3-4.6-21c-4-13.3-9.5-25.3-15.3-34.8
			c-5.8-9.6-11.5-16.9-15.9-21.7c-2.1-2.5-3.9-4.3-5.1-5.5c-1.2-1.3-1.8-1.9-1.8-1.9l0.3-0.3l0,0l-0.3,0.3c0,0-0.4-0.4-1.1-1.2
			c-0.7-0.8-1.8-1.8-3.1-3.3c-2.6-2.9-6-7.3-9.4-12.9c-3.5-5.6-6.6-12.7-9.1-20.6c-1.1-4-2.1-8.2-2.7-12.5c-0.6-4.3-0.9-8.7-1-13.2
			c0-4.4,0.4-8.8,1-13.2c0.7-4.3,1.6-8.5,2.7-12.5c2.4-7.9,5.6-15,9.1-20.6c3.4-5.6,6.8-10,9.4-12.9c1.2-1.5,2.4-2.5,3.1-3.3
			c0.7-0.8,1.1-1.2,1.1-1.2l0,0c7.2-7.2,15.8-13.4,25.3-17.8c11.8-5.6,25-8.5,38.3-8.5c13.3,0.1,26.5,3,38.3,8.5
			c11.8,5.5,22.1,13.6,30.2,23.1c5.8,6.8,10.4,14.2,13.8,21.9C590.2,306.6,586.5,308.3,582.9,310.1z M561.3,322.2
			c-2.1-5.3-5-10.5-9.1-15.2c-4.9-5.7-11-10.5-17.8-13.7c-6.9-3.3-14.7-5-22.6-5c-7.9,0.1-15.7,1.8-22.6,5
			c-5.6,2.6-10.6,6.3-14.9,10.6l0,0c0,0-0.2,0.2-0.6,0.7c-0.4,0.5-1.1,1.1-1.8,2c-1.6,1.7-3.5,4.3-5.6,7.6c-2,3.3-3.9,7.5-5.3,12.1
			c-0.6,2.4-1.2,4.8-1.6,7.4c-0.3,2.6-0.5,5.2-0.6,7.8c0,2.6,0.2,5.2,0.6,7.8c0.4,2.5,1,5,1.6,7.4c1.5,4.6,3.3,8.8,5.3,12.1
			c2,3.3,4,5.9,5.6,7.6c0.7,0.9,1.4,1.5,1.8,2c0.4,0.5,0.6,0.7,0.6,0.7l0.3-0.3v0l-0.3,0.3c0,0,0.8,0.8,2.3,2.4
			c1.5,1.6,3.7,3.8,6.3,6.9c5.4,6,12.5,15.1,19.7,27c7.2,11.9,14.1,26.7,19.1,43.3c2.4,8.3,4.4,17.1,5.7,26.1c1.3,9,2,18.2,2,27.4
			c0,9.2-0.7,18.4-2,27.4c-1.3,9-3.3,17.7-5.7,26.1c-5,16.6-11.8,31.5-19.1,43.3c-7.2,11.9-14.4,21-19.7,27
			c-2.6,3.1-4.9,5.3-6.3,6.9c-1.5,1.6-2.3,2.4-2.3,2.4l0,0c-4.3,4.3-7.9,9.4-10.6,14.9c-3.3,6.9-5,14.7-5,22.6
			c0.1,7.9,1.8,15.7,5,22.6c3.2,6.9,8,13,13.7,17.8c5.6,4.8,11.8,8.1,18.2,10.1c6.4,2,12.9,2.7,18.8,2.4c5.9-0.4,11.2-1.5,15.6-3.2
			c4.4-1.7,8.1-3.6,10.9-5.5c2.8-1.9,4.9-3.7,6.3-4.9c1.3-1.3,2.1-2,2.1-2s0.2-0.2,0.6-0.7c0.4-0.5,1.1-1.1,1.8-2
			c1.6-1.7,3.5-4.3,5.6-7.6c2-3.3,3.9-7.5,5.3-12.1c0.6-2.4,1.2-4.8,1.6-7.4c0.3-2.6,0.5-5.2,0.6-7.8c0-2.6-0.2-5.2-0.6-7.8
			c-0.4-2.5-1-5-1.6-7.4c-1.5-4.6-3.3-8.8-5.3-12.1c-2-3.3-4-5.9-5.6-7.6c-0.7-0.9-1.4-1.5-1.8-2c-0.4-0.5-0.6-0.7-0.6-0.7l0,0
			c0,0,0-0.1-0.1-0.2c-0.2-0.2-0.6-0.6-1.2-1.2c-0.1-0.1-0.3-0.3-0.5-0.5c-0.2-0.2-0.3-0.4-0.5-0.5c-0.9-1-2.1-2.2-3.6-3.8
			c-0.3-0.3-0.6-0.6-0.9-1c-0.6-0.7-1.2-1.4-1.9-2.2c-2-2.2-4.2-4.9-6.6-7.9c0,0,0-0.1,0.1-0.1c2.2-3.6,4.4-7.5,6.5-11.6
			c3.4,4.6,6.6,8.5,9.3,11.5c1.8,2.2,3.5,3.9,4.8,5.2c0.2,0.2,0.4,0.4,0.6,0.6c0.2,0.2,0.4,0.4,0.5,0.6c1.4,1.5,2.1,2.2,2.1,2.2v0
			c0,0,0.3,0.3,0.8,0.9c0.5,0.6,1.4,1.3,2.2,2.4c1.9,2.1,4.4,5.3,6.9,9.4c2.5,4.1,4.8,9.2,6.6,14.9c0.8,2.9,1.5,5.9,2,9.1
			c0.4,3.1,0.7,6.4,0.7,9.6c0,3.2-0.3,6.4-0.7,9.6c-0.5,3.1-1.2,6.2-2,9.1c-1.8,5.7-4.1,10.9-6.6,14.9c-2.5,4.1-4.9,7.3-6.9,9.4
			c-0.9,1.1-1.7,1.8-2.2,2.4c-0.5,0.6-0.8,0.9-0.8,0.9v0c0,0-0.9,0.8-2.5,2.4c-1.7,1.5-4.2,3.7-7.7,6c-3.5,2.3-8,4.7-13.5,6.8
			c-5.5,2-12,3.5-19.3,3.9c-7.2,0.3-15.2-0.5-23.1-3c-7.9-2.5-15.6-6.6-22.5-12.5c-7-6-12.8-13.5-16.9-22c-4-8.5-6.1-18.1-6.2-27.8
			c0.1-9.7,2.2-19.3,6.2-27.8c3.2-6.9,7.7-13.1,13-18.4l0,0c0,0,0.7-0.8,2.1-2.2c1.4-1.5,3.5-3.5,5.9-6.4c5-5.6,11.7-14.2,18.4-25.3
			c6.7-11.1,13.1-25,17.8-40.5c2.2-7.8,4.1-16,5.4-24.4c1.2-8.4,1.8-17,1.9-25.6c0-8.6-0.7-17.2-1.9-25.6
			c-1.3-8.4-3.1-16.6-5.4-24.4c-4.7-15.5-11.1-29.4-17.8-40.5c-6.7-11.1-13.4-19.7-18.4-25.3c-2.4-2.9-4.5-4.9-5.9-6.4
			c-1.4-1.5-2.1-2.2-2.1-2.2l0.3-0.3l0,0l-0.3,0.3c0,0-0.3-0.3-0.8-0.9c-0.5-0.6-1.4-1.3-2.2-2.4c-1.9-2.1-4.4-5.3-6.9-9.4
			c-2.5-4.1-4.8-9.2-6.6-14.9c-0.8-2.9-1.5-5.9-2-9.1c-0.4-3.1-0.7-6.4-0.7-9.6c0-3.2,0.3-6.4,0.7-9.6c0.5-3.1,1.2-6.2,2-9.1
			c1.8-5.7,4.1-10.9,6.6-14.9c2.5-4.1,4.9-7.3,6.9-9.4c0.9-1.1,1.7-1.8,2.2-2.4c0.5-0.6,0.8-0.9,0.8-0.9l0,0
			c5.3-5.3,11.5-9.8,18.4-13c8.5-4,18.1-6.1,27.8-6.2c9.7,0.1,19.3,2.2,27.8,6.2c8.5,4,16,9.9,22,16.9c4.5,5.2,7.9,10.9,10.4,16.8
			C568.2,317.9,564.7,320.1,561.3,322.2z M520.5,355.6c-0.4,0.5-0.9,1-1.5,1.6c-0.5,0.6-1.1,1.2-1.8,1.9c-1,1.1-2.1,2.3-3.3,3.6
			c-0.3,0.4-0.7,0.8-1,1.1c-0.3,0.3-0.6,0.7-0.9,1c-4.4-5.2-9.1-10.1-14.1-14.9c-0.1-0.1-0.1-0.2-0.2-0.3c-0.1-0.1-0.1-0.2-0.2-0.4
			c-0.2-0.4-0.4-0.8-0.6-1.3c-0.2-0.4-0.3-0.8-0.5-1.2c-0.2-0.6-0.4-1.2-0.5-1.9c0-0.1,0-0.2,0-0.2c-0.1-0.4-0.1-0.7-0.2-1.1
			c-0.1-0.6-0.1-1.2-0.1-1.8c0-0.3,0-0.6,0-0.8c0-0.3,0-0.7,0.1-1c0.1-0.7,0.2-1.4,0.3-2c0,0,0,0,0,0c0.1-0.5,0.2-1,0.4-1.5
			c0.1-0.2,0.1-0.4,0.2-0.7c0.1-0.3,0.2-0.5,0.3-0.8c0.6-1.4,1.4-2.7,2.5-4c0.8-0.9,1.7-1.8,2.6-2.5c0.9-0.7,1.8-1.3,2.9-1.8
			c2-1,4.4-1.5,6.9-1.5c2.5,0.1,4.9,0.6,6.9,1.5c1,0.5,1.9,1.1,2.9,1.8c0.9,0.7,1.9,1.6,2.6,2.5c1.5,1.8,2.4,3.5,3,5.4
			c0.6,1.9,0.8,4,0.8,5.8c-0.3,3.8-1.5,6.4-2.6,8c-0.5,0.8-1.2,1.4-1.5,1.9c0,0-0.1,0.1-0.1,0.1c-0.1,0.1-0.3,0.2-0.3,0.3
			c-0.2,0.2-0.3,0.2-0.3,0.2s-0.1,0.1-0.4,0.4C522.5,353.7,521.7,354.5,520.5,355.6z M547.1,381.3c1.5-1.6,2.3-2.4,2.3-2.4l0,0l0,0
			l0,0l0,0l0,0c0,0,2.5-2.4,7.2-6.8c4.9-4.3,12.1-10.5,22.2-17.2c10.1-6.7,23.2-13.8,39.1-19.7c15.9-5.8,34.7-10.1,55.4-11.2
			c20.7-1,43.4,1.4,66.2,8.6c22.7,7.2,45.5,19.3,65.2,36.2c9.9,8.4,18.9,17.9,27.1,28.5c8.2,10.6,15.3,22.2,21.1,34.6
			c11.7,24.8,17.8,52.5,17.9,80.1c0,27.7-6.2,55.3-17.9,80.1c-5.8,12.4-13,24-21.1,34.6c-8.2,10.6-17.3,20.1-27.1,28.5
			c-19.7,16.9-42.5,29-65.2,36.2c-0.9,0.3-1.8,0.6-2.7,0.8c0.1-3.2,0.2-6.4,0.2-9.6c0-1.1,0-2.2,0-3.3c20.8-6.7,41.6-17.9,59.7-33.4
			c18.4-15.6,34.2-35.8,45.1-59c10.9-23.1,16.7-49,16.7-74.9c0-25.9-5.8-51.7-16.7-74.9c-10.9-23.2-26.8-43.4-45.1-59
			c-18.4-15.8-39.7-27.1-60.9-33.8c-21.3-6.7-42.5-9-61.9-8c-19.4,1-36.9,5-51.8,10.5c-14.9,5.5-27.1,12.1-36.5,18.4
			c-9.5,6.3-16.2,12.1-20.8,16.1c-4.4,4.1-6.7,6.4-6.7,6.4l0,0l0,0l0,0l0,0l0,0c0,0-0.7,0.8-2.1,2.2c-1.4,1.5-3.5,3.5-5.9,6.4
			c-2.7,3-5.9,6.9-9.3,11.5c-2.1-4.1-4.3-7.9-6.5-11.5c0-0.1-0.1-0.1-0.1-0.2c2.4-3.1,4.6-5.7,6.6-7.9
			C543.3,385,545.6,382.8,547.1,381.3z M671,500.5c0,0,0.1-0.1,0.2-0.3c0.1-0.1,0.2-0.2,0.3-0.3c0,0,0.1-0.1,0.1-0.1
			c0.5-0.3,1.1-0.9,1.9-1.5c1.7-1.1,4.3-2.3,8-2.6c1.9-0.1,3.9,0.2,5.8,0.8c1.9,0.6,3.7,1.5,5.4,3c0.9,0.8,1.8,1.7,2.5,2.6
			c0.7,0.9,1.3,1.8,1.8,2.9c1,2,1.5,4.4,1.5,6.9c-0.1,2.5-0.6,4.9-1.5,6.9c-0.5,1-1.1,1.9-1.8,2.9c-0.7,0.9-1.6,1.9-2.5,2.6
			c-1.8,1.5-3.5,2.4-5.4,3c-1.9,0.6-4,0.8-5.8,0.8c-3.5-0.2-5.9-1.3-7.6-2.3c-1.7-1.8-2.6-2.7-2.6-2.7s-1-0.9-2.7-2.6
			c0-0.1-0.1-0.1-0.1-0.2c-0.2-0.2-0.3-0.5-0.4-0.8c-0.1-0.3-0.3-0.6-0.4-0.9c-0.2-0.4-0.3-0.9-0.5-1.3c-0.1-0.2-0.2-0.4-0.2-0.6
			c-0.1-0.3-0.1-0.6-0.2-0.9c0-0.1-0.1-0.3-0.1-0.4c-0.1-0.3-0.1-0.6-0.2-1c-0.1-0.8-0.1-1.6-0.2-2.5c0-0.8,0.1-1.6,0.2-2.5
			c0.1-0.8,0.3-1.5,0.5-2.3c0.5-1.4,0.9-2.6,1.6-3.6C669.6,501.8,671.1,500.6,671,500.5L671,500.5z M797.3,458
			c-7.8-16.7-19.3-31.2-32.6-42.5c-13.3-11.4-28.5-19.5-43.8-24.4c-15.3-4.9-30.6-6.5-44.6-5.8c-14,0.7-26.7,3.6-37.3,7.6
			c-10.7,3.9-19.5,8.7-26.3,13.2c-6.8,4.5-11.7,8.7-15,11.6c-3.2,3-4.9,4.6-4.9,4.6l0,0l0,0v0l0,0c0,0-0.5,0.6-1.5,1.6
			c-0.1,0.1-0.3,0.3-0.4,0.4c-1,1-2.4,2.4-3.9,4.2c-0.9,1-1.9,2.2-2.9,3.4c-0.5,0.6-1.1,1.3-1.6,2c-2.7,3.5-5.7,7.8-8.8,12.8
			c-4.1,6.8-8,15-11.2,24.1c-1.3-7-2.9-13.8-4.8-20.5c1.7-3.6,3.6-6.9,5.4-10c4-6.6,8-12,11.4-16.2c0.6-0.7,1.1-1.4,1.7-2
			c0.5-0.6,1.1-1.2,1.6-1.8c1.9-2.3,3.6-3.9,4.7-5.1c0.1-0.1,0.3-0.3,0.4-0.4c0.1-0.1,0.2-0.2,0.3-0.4c0.2-0.2,0.4-0.4,0.5-0.6
			c0.1-0.1,0.1-0.1,0.2-0.2c0.2-0.2,0.2-0.3,0.2-0.3l0,0l0,0l0,0l0,0l0,0c0,0,1.9-1.8,5.3-5.1c3.6-3.1,8.9-7.8,16.4-12.7
			c7.5-5,17.1-10.2,28.8-14.5c11.7-4.3,25.6-7.5,40.9-8.3c15.3-0.7,32.1,1,48.9,6.4c16.8,5.3,33.5,14.2,48.1,26.7
			c14.6,12.4,27.1,28.4,35.7,46.7c8.6,18.3,13.2,38.7,13.2,59.2c0,20.5-4.6,40.9-13.2,59.2c-8.6,18.3-21.1,34.2-35.7,46.7
			c-12.1,10.4-25.7,18.3-39.6,23.7c-0.8-4.1-1.7-8.2-2.6-12.2c12-4.9,23.7-11.9,34.2-20.9c13.3-11.3,24.7-25.9,32.6-42.5
			c7.9-16.6,12-35.3,12-54C809.2,493.3,805.1,474.7,797.3,458z M523.2,694.2c-0.1,0-0.2,0.2-0.5,0.4c-0.3,0.2-0.5,0.5-0.8,0.7
			c-0.9,0.7-1.8,1.3-2.9,1.8c-2,1-4.4,1.5-6.9,1.5c-2.5-0.1-4.9-0.6-6.9-1.5c-1-0.5-1.9-1.1-2.9-1.8c-0.9-0.7-1.9-1.6-2.6-2.5
			c-1.5-1.8-2.4-3.5-3-5.4c-0.6-1.9-0.8-4-0.8-5.8c0.3-3.8,1.5-6.4,2.6-8c0.6-0.8,1.2-1.4,1.5-1.9c0.4-0.4,0.6-0.6,0.6-0.7
			c0,0,0,0,0,0c0.1,0,0.3-0.3,0.8-0.7c1.7-1.4,3.4-2.3,5.3-2.9c1.9-0.6,4-0.8,5.8-0.8c3.8,0.3,6.4,1.5,8,2.6
			c0.8,0.6,1.4,1.2,1.9,1.5c0.4,0.5,0.7,0.6,0.7,0.6l0,0l0,0c-0.1,0.1,1.4,1.3,2.5,3.2c0.6,1,1.1,2.2,1.6,3.6
			c0.2,0.7,0.4,1.5,0.5,2.3c0.1,0.8,0.1,1.6,0.2,2.5c0,0.8-0.1,1.6-0.2,2.5c-0.1,0.8-0.3,1.5-0.5,2.3c-0.5,1.4-0.9,2.6-1.6,3.6
			C524.7,692.8,523.3,694,523.2,694.2C523.3,694.1,523.3,694.2,523.2,694.2z M564.7,398.3c1.3-1.4,2-2.1,2-2.1h0l0,0l0,0l0,0l0,0
			c0,0,2.2-2.1,6.3-5.9c4.2-3.7,10.5-9.1,19.3-15c8.8-5.8,20.2-12,34-17.1c13.8-5.1,30.1-8.8,48.2-9.7c18-0.8,37.8,1.2,57.5,7.5
			c19.8,6.2,39.5,16.8,56.6,31.5c17.1,14.6,31.8,33.3,42,54.9c10.2,21.5,15.5,45.6,15.5,69.7c0,24.1-5.4,48.1-15.5,69.7
			c-10.1,21.6-24.9,40.3-42,54.9c-15.9,13.6-34,23.7-52.3,30c-0.3-4.2-0.7-8.4-1.2-12.6c16-5.9,31.7-14.9,45.6-26.8
			c15.8-13.5,29.5-30.9,38.8-50.8c9.4-19.9,14.3-42.2,14.4-64.4c0-22.3-5-44.5-14.4-64.4c-9.4-19.9-23-37.3-38.8-50.8
			c-15.9-13.6-34.1-23.3-52.4-29.1c-18.3-5.8-36.6-7.7-53.2-6.9c-16.7,0.9-31.8,4.3-44.6,9c-12.8,4.7-23.3,10.4-31.4,15.8
			c-8.2,5.4-14,10.4-17.9,13.8c-3.8,3.6-5.8,5.5-5.8,5.5l0,0h0l0,0l0,0l0,0c0,0-0.6,0.7-1.8,1.9c-1.2,1.3-3,3-5.1,5.5
			c-1.1,1.2-2.3,2.6-3.5,4.1c-0.3,0.4-0.6,0.8-0.9,1.2c-0.6,0.8-1.3,1.6-1.9,2.5c-0.3,0.4-0.7,0.9-1,1.3c-2.7,3.6-5.6,7.9-8.5,12.6
			c0,0.1-0.1,0.2-0.1,0.2c-1.8-4.8-3.7-9.5-5.7-14c1.5-2.2,3-4.3,4.4-6.3c0.7-1,1.4-1.9,2.2-2.8c0.4-0.5,0.7-0.9,1-1.3
			c1.7-2.2,3.3-4.1,4.8-5.7C561.5,401.6,563.5,399.7,564.7,398.3z M540.1,337.7c-0.2-1.7-0.6-3.3-1.1-5c-1.1-3.4-2.8-6.7-5.4-9.7
			c-1.3-1.5-2.9-3-4.5-4.3c-1.6-1.2-3.3-2.3-5.1-3.2c-3.6-1.7-7.9-2.6-12.1-2.7c-4.3,0.1-8.5,1-12.1,2.7c-1.8,0.9-3.5,1.9-5.1,3.2
			c-1,0.8-2,1.6-2.9,2.5l0,0c0,0-0.1,0.1-0.3,0.4c-0.2,0.3-0.7,0.6-1,1.1c-0.9,0.9-1.9,2.3-3,4.1c-1.1,1.7-2,3.9-2.8,6.4
			c-0.3,1.3-0.6,2.6-0.9,4c-0.2,1.4-0.3,2.8-0.3,4.2c0,1.4,0.2,2.8,0.3,4.2c0.2,1.4,0.5,2.7,0.9,4c0.8,2.5,1.7,4.7,2.8,6.4
			c1.1,1.7,2.1,3.2,3,4.1c0.3,0.5,0.8,0.8,1,1.1c0.2,0.3,0.3,0.4,0.3,0.4l0.3-0.3l0,0l-0.3,0.3c0,0,0.9,0.9,2.6,2.7
			c1.7,1.8,4.2,4.3,7.1,7.8c6,6.8,14.2,17.1,22.3,30.6c8.2,13.4,15.9,30.2,21.6,49c2.7,9.4,5,19.3,6.5,29.5
			c1.5,10.2,2.2,20.6,2.3,31c0,10.4-0.8,20.8-2.3,31c-1.5,10.2-3.8,20-6.5,29.5c-5.6,18.8-13.4,35.6-21.6,49
			c-8.1,13.5-16.3,23.8-22.3,30.6c-2.9,3.5-5.5,6-7.1,7.8c-1.7,1.8-2.6,2.7-2.6,2.7l0,0c-0.9,0.9-1.8,1.9-2.5,2.9
			c-1.2,1.6-2.3,3.3-3.2,5.1c-1.7,3.6-2.6,7.9-2.7,12.1c0.1,4.3,1,8.5,2.7,12.1c0.9,1.8,1.9,3.5,3.2,5.1c1.2,1.6,2.7,3.2,4.3,4.5
			c3,2.6,6.3,4.3,9.7,5.4c3.4,1.1,6.9,1.4,10.1,1.3c6.5-0.4,11.2-2.7,14.2-4.6c1.5-1,2.6-2,3.4-2.6c0.7-0.8,1.2-1.1,1.2-1.1
			s0.1-0.1,0.3-0.4c0.2-0.3,0.7-0.6,1-1.1c0.9-0.9,1.9-2.3,3-4.1c1.1-1.7,2-3.9,2.8-6.4c0.3-1.3,0.6-2.6,0.9-4
			c0.2-1.4,0.3-2.8,0.3-4.2c0-1.4-0.2-2.8-0.3-4.2c-0.2-1.4-0.5-2.7-0.9-4c-0.8-2.5-1.7-4.7-2.8-6.4c-1.1-1.7-2.1-3.2-3-4.1
			c-0.3-0.5-0.8-0.8-1-1.1c-0.2-0.3-0.3-0.4-0.3-0.4l0,0c0,0-0.9-0.9-2.6-2.7c-0.6-0.7-1.4-1.4-2.2-2.3c-0.3-0.3-0.6-0.6-0.9-0.9
			c-1.2-1.3-2.6-2.8-4.1-4.5c-0.8-0.8-1.5-1.8-2.4-2.7c-0.1-0.1-0.1-0.1-0.2-0.2c2.4-3.1,4.9-6.5,7.4-10.3c1.5,1.9,3,3.6,4.3,5.1
			c2.8,3.3,5.2,5.6,6.7,7.3c1.6,1.7,2.4,2.5,2.4,2.5h0c0,0,0.2,0.2,0.5,0.6c0.3,0.4,0.9,0.8,1.4,1.5c1.2,1.3,2.7,3.3,4.3,5.8
			c1.6,2.5,2.9,5.7,4.1,9.3c0.5,1.8,0.9,3.7,1.2,5.7c0.2,2,0.4,4,0.4,6c0,2-0.2,4-0.4,6c-0.3,2-0.8,3.9-1.2,5.7
			c-1.1,3.6-2.5,6.7-4.1,9.3c-1.6,2.5-3,4.5-4.3,5.8c-0.5,0.7-1.1,1.2-1.4,1.5c-0.3,0.4-0.5,0.6-0.5,0.6l0,0c0,0-0.6,0.5-1.6,1.5
			c-1.1,0.9-2.7,2.3-4.8,3.7c-4.3,2.8-11.2,6.1-20.4,6.6c-4.6,0.2-9.5-0.3-14.4-1.9c-4.9-1.6-9.6-4.1-14-7.8c-2.2-1.9-4.3-4-6-6.3
			c-1.8-2.3-3.3-4.8-4.5-7.4c-2.5-5.3-3.8-11.3-3.9-17.4c0.1-6.1,1.4-12.1,3.9-17.4c1.3-2.6,2.8-5.1,4.5-7.4
			c1.1-1.4,2.3-2.8,3.6-4.1l0,0c0,0,0.8-0.9,2.4-2.5c1.6-1.7,4-4,6.7-7.3c5.7-6.4,13.4-16.1,21-28.8c7.7-12.7,15-28.5,20.3-46.2
			c2.6-8.9,4.7-18.2,6.1-27.8c1.4-9.6,2.1-19.4,2.1-29.2c0-9.8-0.8-19.6-2.1-29.2c-1.4-9.6-3.5-18.9-6.1-27.8
			c-5.3-17.7-12.6-33.5-20.3-46.2c-7.7-12.7-15.3-22.4-21-28.8c-2.8-3.3-5.2-5.6-6.7-7.3c-1.6-1.7-2.4-2.5-2.4-2.5v0
			c0,0-0.2-0.2-0.5-0.6c-0.3-0.4-0.9-0.8-1.4-1.5c-1.2-1.3-2.7-3.3-4.3-5.8c-1.6-2.5-2.9-5.7-4.1-9.3c-0.5-1.8-0.9-3.7-1.2-5.7
			c-0.2-2-0.4-4-0.4-6c0-2,0.2-4,0.4-6c0.3-2,0.8-3.9,1.2-5.7c1.1-3.6,2.5-6.7,4.1-9.3c1.6-2.5,3-4.5,4.3-5.8
			c0.5-0.7,1.1-1.2,1.4-1.5c0.3-0.4,0.5-0.6,0.5-0.6l0,0c1.3-1.3,2.6-2.5,4.1-3.6c2.3-1.8,4.8-3.3,7.4-4.5
			c5.3-2.5,11.3-3.8,17.4-3.9c6.1,0.1,12.1,1.4,17.4,3.9c2.6,1.3,5.1,2.8,7.4,4.5c2.3,1.8,4.5,3.9,6.3,6c3.7,4.3,6.2,9.1,7.8,14
			c0,0.1,0.1,0.3,0.1,0.4C546.8,332.3,543.2,335.1,540.1,337.7z M219.8,621.2c-3.7-4.2-9.1-10.5-15-19.3c-5.8-8.8-12-20.2-17.1-34
			c-5.1-13.8-8.8-30.1-9.7-48.2c-0.8-18,1.2-37.8,7.5-57.5c6.2-19.8,16.8-39.5,31.5-56.6c14.6-17.1,33.3-31.8,54.9-42
			c5-2.4,10.2-4.5,15.4-6.3c0.3,4.2,0.7,8.4,1.2,12.6c-3.9,1.4-7.7,3-11.4,4.8c-19.9,9.4-37.3,23-50.8,38.8
			c-13.6,15.9-23.3,34.1-29.1,52.4c-5.8,18.3-7.7,36.6-6.9,53.2c0.9,16.7,4.3,31.8,9,44.6c4.7,12.8,10.4,23.3,15.8,31.4
			c5.4,8.2,10.4,14,13.8,17.9c3.6,3.8,5.5,5.8,5.5,5.8h0c0,0,0.7,0.6,1.9,1.8c1.3,1.2,3,3,5.5,5.1c4.8,4.3,12.2,10.1,21.7,15.9
			c7.1,4.3,15.6,8.5,25,12c-0.5,4.2-1,8.4-1.3,12.6c-11.3-4-21.5-8.9-30-14.1c-10.3-6.3-18.3-12.5-23.5-17.2c-2.7-2.3-4.6-4.2-6-5.5
			c-1.4-1.3-2.1-2-2.1-2l0,0C225.8,627.4,223.7,625.2,219.8,621.2z M293.1,394.4c-1.9,0.8-3.7,1.6-5.5,2.4
			c-16.7,7.8-31.2,19.3-42.5,32.6c-11.4,13.3-19.5,28.5-24.4,43.8c-4.9,15.3-6.5,30.6-5.8,44.6c0.7,14,3.6,26.7,7.6,37.3
			c3.9,10.7,8.7,19.5,13.2,26.3c4.5,6.8,8.7,11.7,11.6,15c3,3.2,4.6,4.9,4.6,4.9v0c0,0,0.6,0.5,1.6,1.5c1.1,1,2.5,2.5,4.6,4.3
			c4,3.6,10.2,8.4,18.2,13.3c4.9,3,10.6,5.9,16.9,8.5c-1,4-1.9,8.1-2.6,12.2c-7.7-3-14.7-6.5-20.6-10.1c-8.8-5.3-15.5-10.6-20-14.6
			c-2.3-1.9-3.9-3.6-5.1-4.7c-1.2-1.1-1.8-1.7-1.8-1.7h0c0,0-1.8-1.9-5.1-5.3c-3.1-3.6-7.8-8.9-12.7-16.4
			c-5-7.5-10.2-17.1-14.5-28.8c-4.3-11.7-7.5-25.6-8.3-40.9c-0.7-15.3,1-32.1,6.4-48.9c5.3-16.8,14.2-33.5,26.7-48.1
			c12.4-14.6,28.4-27.1,46.7-35.7c2.7-1.3,5.4-2.4,8.1-3.5C291.2,386.4,292.1,390.4,293.1,394.4z M300.2,418.1
			c-0.7,0.3-1.5,0.7-2.2,1c-13.4,6.3-25.1,15.5-34.3,26.3c-9.2,10.7-15.7,23-19.6,35.3c-3.9,12.3-5.2,24.7-4.7,36
			c0.6,11.3,2.9,21.5,6.1,30.1c3.2,8.6,7,15.7,10.6,21.2c3.6,5.5,7.1,9.4,9.4,12.1c2.4,2.6,3.7,3.9,3.7,3.9v0c0,0,0.5,0.4,1.3,1.2
			c0.9,0.8,2.1,2.1,3.8,3.5c3.3,3,8.2,6.8,14.7,10.7c3.4,2.1,7.2,4.1,11.4,5.9c-1.4,3.9-2.7,7.8-3.9,11.7c-5.1-2.2-9.8-4.6-13.9-7
			c-7.2-4.4-12.8-8.7-16.4-12c-1.9-1.6-3.2-3-4.2-3.9c-1-0.9-1.5-1.4-1.5-1.4h0c0,0-1.5-1.5-4.2-4.4c-2.6-3-6.4-7.4-10.5-13.5
			c-4.1-6.1-8.4-14.1-11.9-23.7c-3.6-9.6-6.1-21.1-6.8-33.7c-0.6-12.6,0.9-26.5,5.2-40.3c4.4-13.8,11.7-27.5,22-39.6
			c10.3-12,23.4-22.3,38.4-29.4c1.2-0.5,2.3-1.1,3.5-1.6C297.5,410.4,298.8,414.3,300.2,418.1z M309.8,440.7
			c-0.5,0.2-0.9,0.4-1.4,0.6c-10.1,4.8-19,11.8-26.1,20c-7,8.2-11.9,17.4-14.9,26.8c-3,9.4-4,18.8-3.6,27.4
			c0.5,8.6,2.2,16.4,4.6,22.9c2.4,6.5,5.3,11.9,8.1,16c2.8,4.2,5.4,7.1,7.1,9.2c1.9,2,2.9,3,2.9,3l8.7-8.7c0,0-0.8-0.9-2.4-2.5
			c-1.5-1.7-3.7-4.2-6-7.7c-2.3-3.5-4.7-8-6.8-13.5c-2-5.5-3.5-12-3.9-19.3c-0.3-7.2,0.5-15.2,3-23.1c2.5-7.9,6.6-15.6,12.5-22.5
			c6-7,13.5-12.8,22-16.9c0.6-0.3,1.2-0.5,1.9-0.8c1.1,1.9,2.1,3.7,3.2,5.5c1.1,1.8,2.1,3.5,3.2,5.1c-1,0.4-2,0.8-3,1.3
			c-6.9,3.2-13,8-17.8,13.7c-4.8,5.6-8.1,11.8-10.1,18.2c-2,6.4-2.7,12.9-2.4,18.8c0.4,5.9,1.5,11.2,3.2,15.6
			c1.7,4.4,3.6,8.1,5.5,10.9c1.9,2.8,3.7,4.9,4.9,6.3c1.3,1.3,2,2.1,2,2.1l0,0c0,0,0.2,0.2,0.7,0.6c0.5,0.4,1.1,1.1,2,1.8
			c1.7,1.6,4.3,3.5,7.6,5.6c2.3,1.4,5,2.7,8,3.9c-2.2,3.5-4.4,7-6.4,10.7c-2.9-1.2-5.6-2.6-7.9-4c-4.1-2.5-7.3-4.9-9.4-6.9
			c-1.1-0.9-1.8-1.7-2.4-2.2c-0.6-0.5-0.9-0.8-0.9-0.8l-8.7,8.7c0,0,0.4,0.3,1,0.9c0.7,0.6,1.6,1.6,2.9,2.6
			c2.5,2.3,6.3,5.2,11.1,8.1c2.5,1.5,5.4,3,8.5,4.4c-0.7,1.4-1.4,2.8-2,4.2c-1.1,2.3-2.1,4.6-3.1,7c-3.5-1.6-6.8-3.2-9.6-5
			c-5.6-3.4-10-6.8-12.9-9.4c-1.5-1.2-2.5-2.4-3.3-3.1c-0.8-0.7-1.2-1.1-1.2-1.1h0c0,0-1.1-1.2-3.3-3.5c-2-2.4-5-5.8-8.2-10.6
			c-3.2-4.8-6.6-11-9.3-18.6c-2.8-7.6-4.8-16.5-5.4-26.5c-0.4-9.9,0.7-20.8,4.1-31.7c3.4-10.8,9.2-21.6,17.2-31
			c8.1-9.5,18.4-17.6,30.2-23.1c0.5-0.2,1-0.5,1.5-0.7C306.3,433.4,308.1,437.2,309.8,440.7z M330,523.1c0,0-0.2-0.3-0.6-0.7
			c-0.3-0.5-1-1.1-1.5-1.9c-1.1-1.7-2.3-4.3-2.6-8c-0.1-1.9,0.2-3.9,0.8-5.8c0.6-1.9,1.5-3.7,3-5.4c0.8-0.9,1.7-1.8,2.6-2.5
			c0.9-0.7,1.8-1.3,2.9-1.8c2-1,4.4-1.5,6.9-1.5c2.5,0.1,4.9,0.6,6.9,1.5c0.6,0.3,1.1,0.6,1.6,0.9c1.7,1.7,2.5,2.6,2.6,2.7
			c0,0,0,0,0,0v0l0,0v0c-0.1,0.1,1.4,1.3,2.5,3.2c0.6,1,1.1,2.2,1.6,3.6c0.2,0.7,0.4,1.5,0.5,2.3c0.1,0.8,0.1,1.6,0.2,2.5
			c0,0.8-0.1,1.6-0.2,2.5c-0.1,0.8-0.3,1.5-0.5,2.3c-0.5,1.4-0.9,2.6-1.6,3.6c-0.9,1.5-2,2.6-2.3,3c-0.4,0.4-1.5,1.4-3,2.3
			c-1,0.6-2.2,1.1-3.6,1.6c-0.7,0.2-1.5,0.4-2.3,0.5c-0.8,0.1-1.6,0.1-2.5,0.2c-0.8,0-1.6-0.1-2.5-0.2c-0.8-0.1-1.5-0.3-2.3-0.5
			c-1.4-0.5-2.6-0.9-3.6-1.6C331.3,524.5,330.1,523.1,330,523.1L330,523.1z M337.2,483.5c-2.8,0.4-5.5,1.2-7.9,2.3
			c-1.8,0.9-3.5,1.9-5.1,3.2c-1.6,1.2-3.2,2.7-4.5,4.3c-2.6,3-4.3,6.3-5.4,9.7c-1.1,3.4-1.4,6.9-1.3,10.1c0.4,6.5,2.7,11.2,4.6,14.2
			c1,1.5,2,2.6,2.6,3.4c0.8,0.7,1.1,1.2,1.1,1.2v0c0,0,0.1,0.1,0.4,0.3c0.3,0.2,0.6,0.7,1.1,1c0.9,0.9,2.3,1.9,4.1,3
			c1.7,1.1,3.9,2,6.4,2.8c1.3,0.3,2.6,0.6,4,0.9c0.2,0,0.3,0,0.5,0c-1.5,1.8-3,3.7-4.4,5.5c-1.3,1.7-2.6,3.5-3.9,5.2
			c-3.4-1.1-6.5-2.4-8.9-4c-2.5-1.6-4.5-3-5.8-4.3c-0.7-0.5-1.2-1.1-1.5-1.4c-0.4-0.3-0.6-0.5-0.6-0.5s-0.5-0.6-1.5-1.6
			c-0.9-1.1-2.3-2.7-3.7-4.8c-2.8-4.3-6.1-11.2-6.6-20.4c-0.2-4.6,0.3-9.5,1.9-14.4c1.6-4.9,4.1-9.6,7.8-14c1.9-2.2,4-4.3,6.3-6
			c2.3-1.8,4.8-3.3,7.4-4.5c1.6-0.7,3.2-1.4,4.9-1.9C331.9,476.8,334.7,480.4,337.2,483.5z M281.1,715.8
			c-18.8-5.6-35.6-13.4-49-21.6c-13.5-8.1-23.8-16.3-30.6-22.3c-3.5-2.9-6-5.5-7.8-7.1c-1.8-1.7-2.7-2.6-2.7-2.6l0,0l0,0
			c0,0-2.7-2.8-7.7-8.1c-4.8-5.5-11.9-13.7-19.5-25.1c-7.6-11.4-15.7-26.2-22.3-44.2c-6.6-18-11.5-39.2-12.7-62.6
			c-1.1-23.4,1.6-49,9.7-74.8c8.1-25.7,21.9-51.4,40.9-73.7c9.5-11.1,20.2-21.4,32.2-30.6c12-9.2,25.1-17.3,39.1-23.9
			c12.3-5.8,25.3-10.4,38.7-13.8c-0.2,1.1-0.4,2.2-0.5,3.3c-0.5,3.3-0.9,6.6-1.2,9.9c-10.9,3-21.6,6.9-31.7,11.7
			c-13.2,6.2-25.6,13.8-36.9,22.5c-11.3,8.7-21.4,18.4-30.4,28.9c-18,21-30.9,45.2-38.6,69.4c-7.7,24.3-10.2,48.4-9.2,70.5
			c1.1,22.1,5.7,42.1,11.9,59c6.2,16.9,13.8,30.9,21,41.7c7.2,10.8,13.8,18.5,18.3,23.7c4.7,5,7.3,7.7,7.3,7.7l8.7-8.7
			c0,0-2.4-2.5-6.8-7.2c-4.3-4.9-10.5-12.1-17.2-22.2c-6.7-10.1-13.8-23.2-19.7-39.1c-5.8-15.9-10.1-34.7-11.2-55.4
			c-1-20.7,1.4-43.4,8.6-66.2c7.2-22.7,19.3-45.5,36.2-65.2c8.4-9.9,17.9-18.9,28.5-27.1c10.6-8.2,22.2-15.3,34.6-21.1
			c8.2-3.9,16.8-7.1,25.5-9.8c-0.1,3.3-0.2,6.6-0.3,9.9c0,1,0,2.1,0,3.1c-6.9,2.2-13.6,4.9-20.1,8c-23.2,10.9-43.4,26.8-59,45.1
			c-15.8,18.4-27.1,39.7-33.8,60.9c-6.7,21.3-9,42.5-8,61.9c1,19.4,5,36.9,10.5,51.8c5.5,14.9,12.1,27.1,18.4,36.5
			c6.3,9.5,12.1,16.2,16.1,20.8c4.1,4.4,6.4,6.7,6.4,6.7s0.8,0.7,2.2,2.1c1.5,1.4,3.5,3.5,6.4,5.9c5.6,5,14.2,11.7,25.3,18.4
			c9.9,6,22.1,11.8,35.7,16.3c0,1.3-0.1,2.5-0.1,3.8c0,3.1,0.1,6.1,0.2,9.2c-16.2-5-30.6-11.7-42.2-18.7c-11.9-7.2-21-14.4-27-19.7
			c-3.1-2.6-5.3-4.9-6.9-6.3c-1.6-1.5-2.4-2.3-2.4-2.3h0l-8.7,8.7c0,0,0.9,0.8,2.5,2.4c1.7,1.6,4,4,7.3,6.7
			c6.4,5.7,16.1,13.4,28.8,21c12.7,7.7,28.5,15,46.2,20.3c1.1,0.3,2.2,0.6,3.3,0.9c0.4,4.4,1,8.8,1.7,13.1
			C286.7,717.3,283.8,716.6,281.1,715.8z M875.1,602.6c-6.6,14-14.7,27.2-23.9,39.1c-9.2,12-19.5,22.7-30.6,32.2
			c-22.3,19.1-48,32.8-73.7,40.9c-4.3,1.4-8.5,2.5-12.8,3.6c0.2-1,0.3-2,0.5-3c0.5-3.4,0.9-6.7,1.2-10.1c2.5-0.7,4.9-1.4,7.4-2.2
			c24.2-7.6,48.4-20.6,69.4-38.6c10.5-9,20.2-19.1,28.9-30.4c8.7-11.3,16.3-23.7,22.5-36.9c12.5-26.4,19-55.9,19-85.3
			c0-29.5-6.6-58.9-19-85.3c-6.2-13.2-13.8-25.6-22.5-36.9c-8.7-11.3-18.4-21.4-28.9-30.4c-21-18-45.2-30.9-69.4-38.6
			c-24.3-7.7-48.4-10.2-70.5-9.2c-22.1,1.1-42.1,5.7-59,11.9c-16.9,6.2-30.9,13.8-41.7,21c-10.8,7.2-18.5,13.8-23.7,18.3
			c-5,4.7-7.7,7.3-7.7,7.3l0,0h0l0,0c0,0-0.8,0.9-2.4,2.5c-1.6,1.7-4,4-6.7,7.3c-1.4,1.5-2.8,3.2-4.4,5.1c-2.6-3.7-5.1-7.2-7.4-10.3
			c0.9-1,1.7-2,2.5-2.9c2.6-3.1,4.8-5.3,6.5-7.1c0.2-0.2,0.5-0.5,0.7-0.7c1.7-1.8,2.6-2.7,2.6-2.7l0,0l0,0l0,0c0,0,2.8-2.7,8.1-7.7
			c5.5-4.8,13.7-11.9,25.1-19.5c11.4-7.6,26.2-15.7,44.2-22.3c18-6.6,39.2-11.5,62.6-12.7c23.4-1.1,49,1.6,74.8,9.7
			c25.7,8.1,51.4,21.9,73.7,40.9c11.1,9.5,21.4,20.2,30.6,32.2c9.2,12,17.3,25.1,23.9,39.1c13.2,28,20.2,59.3,20.2,90.6
			C895.3,543.2,888.3,574.5,875.1,602.6z"/>
	</g>
</g>
<g>
</g>
<g>
</g>
<g>
</g>
<g>
</g>
<g>
</g>
<g>
</g>
<g>
</g>
<g>
</g>
<g>
</g>
<g>
</g>
<g>
</g>
<g>
</g>
<g>
</g>
<g>
</g>
<g>
</g>
</svg>
