<?xml version="1.0" encoding="utf-8"?>
<!-- Generator: Adobe Illustrator 19.1.0, SVG Export Plug-In . SVG Version: 6.00 Build 0)  -->
<svg version="1.1" id="Layer_1" xmlns="http://www.w3.org/2000/svg" xmlns:xlink="http://www.w3.org/1999/xlink" x="0px" y="0px"
	 width="1024px" height="1024px" viewBox="0 0 1024 1024" style="enable-background:new 0 0 1024 1024;" xml:space="preserve">
<g>
	<radialGradient id="SVGID_1_" cx="512" cy="512" r="512" gradientUnits="userSpaceOnUse">
		<stop  offset="0.1875" style="stop-color:#FFCB00"/>
		<stop  offset="0.7845" style="stop-color:#F28F00"/>
		<stop  offset="0.9282" style="stop-color:#EF8000"/>
	</radialGradient>
	<rect style="fill:url(#SVGID_1_);" width="1024" height="1024"/>
	<g>
		
			<rect x="420.4" y="652.3" transform="matrix(0.7071 0.7071 -0.7071 0.7071 664.0482 -80.2066)" style="fill:#EE7D00;" width="16.8" height="218.4"/>
		
			<rect x="444.2" y="676" transform="matrix(0.7071 0.7071 -0.7071 0.7071 687.8077 -90.0481)" style="fill:#EE7D00;" width="16.8" height="218.4"/>
		
			<rect x="468" y="699.8" transform="matrix(0.7071 0.7071 -0.7071 0.7071 711.5671 -99.8895)" style="fill:#EE7D00;" width="16.8" height="218.4"/>
		
			<rect x="491.7" y="723.5" transform="matrix(0.7071 0.7071 -0.7071 0.7071 735.3265 -109.731)" style="fill:#EE7D00;" width="16.8" height="218.4"/>
		
			<rect x="515.5" y="747.3" transform="matrix(0.7071 0.7071 -0.7071 0.7071 759.0859 -119.5725)" style="fill:#EE7D00;" width="16.8" height="218.4"/>
		
			<rect x="539.2" y="771.1" transform="matrix(0.7071 0.7071 -0.7071 0.7071 782.8453 -129.414)" style="fill:#EE7D00;" width="16.8" height="218.4"/>
		
			<rect x="563" y="794.8" transform="matrix(0.7071 0.7071 -0.7071 0.7071 806.6047 -139.2554)" style="fill:#EE7D00;" width="16.8" height="218.4"/>
		
			<rect x="111.6" y="343.4" transform="matrix(0.7071 0.7071 -0.7071 0.7071 355.1759 47.7325)" style="fill:#EE7D00;" width="16.8" height="218.4"/>
		
			<rect x="135.3" y="367.2" transform="matrix(0.7071 0.7071 -0.7071 0.7071 378.9353 37.891)" style="fill:#EE7D00;" width="16.8" height="218.4"/>
		
			<rect x="159.1" y="390.9" transform="matrix(0.7071 0.7071 -0.7071 0.7071 402.6947 28.0496)" style="fill:#EE7D00;" width="16.8" height="218.4"/>
		
			<rect x="182.8" y="414.7" transform="matrix(0.7071 0.7071 -0.7071 0.7071 426.4541 18.2081)" style="fill:#EE7D00;" width="16.8" height="218.4"/>
		
			<rect x="206.6" y="438.4" transform="matrix(0.7071 0.7071 -0.7071 0.7071 450.2135 8.3666)" style="fill:#EE7D00;" width="16.8" height="218.4"/>
		
			<rect x="230.4" y="462.2" transform="matrix(0.7071 0.7071 -0.7071 0.7071 473.9729 -1.4748)" style="fill:#EE7D00;" width="16.8" height="218.4"/>
		
			<rect x="254.1" y="486" transform="matrix(0.7071 0.7071 -0.7071 0.7071 497.7323 -11.3163)" style="fill:#EE7D00;" width="16.8" height="218.4"/>
		
			<rect x="408.6" y="497.8" transform="matrix(-0.7071 0.7071 -0.7071 -0.7071 1141.0397 741.4412)" style="fill:#EE7D00;" width="16.8" height="218.4"/>
		
			<rect x="384.8" y="521.6" transform="matrix(-0.7071 0.7071 -0.7071 -0.7071 1117.2803 798.8015)" style="fill:#EE7D00;" width="16.8" height="218.4"/>
		
			<rect x="361" y="545.4" transform="matrix(-0.7071 0.7071 -0.7071 -0.7071 1093.5209 856.1617)" style="fill:#EE7D00;" width="16.8" height="218.4"/>
		
			<rect x="337.3" y="569.1" transform="matrix(-0.7071 0.7071 -0.7071 -0.7071 1069.7615 913.522)" style="fill:#EE7D00;" width="16.8" height="218.4"/>
		
			<rect x="313.5" y="592.9" transform="matrix(-0.7071 0.7071 -0.7071 -0.7071 1046.0021 970.8824)" style="fill:#EE7D00;" width="16.8" height="218.4"/>
		
			<rect x="289.8" y="616.6" transform="matrix(-0.7071 0.7071 -0.7071 -0.7071 1022.2426 1028.2427)" style="fill:#EE7D00;" width="16.8" height="218.4"/>
		
			<rect x="266" y="640.4" transform="matrix(-0.7071 0.7071 -0.7071 -0.7071 998.4832 1085.6029)" style="fill:#EE7D00;" width="16.8" height="218.4"/>
		
			<rect x="420.4" y="343.4" transform="matrix(0.7071 0.7071 -0.7071 0.7071 445.6425 -170.6732)" style="fill:#EE7D00;" width="16.8" height="218.4"/>
		
			<rect x="444.2" y="367.2" transform="matrix(0.7071 0.7071 -0.7071 0.7071 469.4019 -180.5147)" style="fill:#EE7D00;" width="16.8" height="218.4"/>
		
			<rect x="468" y="390.9" transform="matrix(0.7071 0.7071 -0.7071 0.7071 493.1613 -190.3562)" style="fill:#EE7D00;" width="16.8" height="218.4"/>
		
			<rect x="491.7" y="414.7" transform="matrix(0.7071 0.7071 -0.7071 0.7071 516.9207 -200.1976)" style="fill:#EE7D00;" width="16.8" height="218.4"/>
		
			<rect x="515.5" y="438.4" transform="matrix(0.7071 0.7071 -0.7071 0.7071 540.6801 -210.0391)" style="fill:#EE7D00;" width="16.8" height="218.4"/>
		
			<rect x="539.2" y="462.2" transform="matrix(0.7071 0.7071 -0.7071 0.7071 564.4396 -219.8806)" style="fill:#EE7D00;" width="16.8" height="218.4"/>
		
			<rect x="563" y="486" transform="matrix(0.7071 0.7071 -0.7071 0.7071 588.199 -229.722)" style="fill:#EE7D00;" width="16.8" height="218.4"/>
		
			<rect x="717.4" y="497.8" transform="matrix(-0.7071 0.7071 -0.7071 -0.7071 1668.3177 523.0354)" style="fill:#EE7D00;" width="16.8" height="218.4"/>
		
			<rect x="693.7" y="521.6" transform="matrix(-0.7071 0.7071 -0.7071 -0.7071 1644.5583 580.3957)" style="fill:#EE7D00;" width="16.8" height="218.4"/>
		
			<rect x="669.9" y="545.4" transform="matrix(-0.7071 0.7071 -0.7071 -0.7071 1620.799 637.756)" style="fill:#EE7D00;" width="16.8" height="218.4"/>
		
			<rect x="646.2" y="569.1" transform="matrix(-0.7071 0.7071 -0.7071 -0.7071 1597.0396 695.1163)" style="fill:#EE7D00;" width="16.8" height="218.4"/>
		
			<rect x="622.4" y="592.9" transform="matrix(-0.7071 0.7071 -0.7071 -0.7071 1573.2802 752.4766)" style="fill:#EE7D00;" width="16.8" height="218.4"/>
		
			<rect x="598.6" y="616.6" transform="matrix(-0.7071 0.7071 -0.7071 -0.7071 1549.5208 809.8369)" style="fill:#EE7D00;" width="16.8" height="218.4"/>
		
			<rect x="574.9" y="640.4" transform="matrix(-0.7071 0.7071 -0.7071 -0.7071 1525.7614 867.1972)" style="fill:#EE7D00;" width="16.8" height="218.4"/>
		
			<rect x="408.6" y="189" transform="matrix(-0.7071 0.7071 -0.7071 -0.7071 922.6339 214.1631)" style="fill:#EE7D00;" width="16.8" height="218.4"/>
		
			<rect x="384.8" y="212.7" transform="matrix(-0.7071 0.7071 -0.7071 -0.7071 898.8745 271.5233)" style="fill:#EE7D00;" width="16.8" height="218.4"/>
		
			<rect x="361" y="236.5" transform="matrix(-0.7071 0.7071 -0.7071 -0.7071 875.1151 328.8836)" style="fill:#EE7D00;" width="16.8" height="218.4"/>
		
			<rect x="337.3" y="260.2" transform="matrix(-0.7071 0.7071 -0.7071 -0.7071 851.3557 386.244)" style="fill:#EE7D00;" width="16.8" height="218.4"/>
		
			<rect x="313.5" y="284" transform="matrix(-0.7071 0.7071 -0.7071 -0.7071 827.5963 443.6042)" style="fill:#EE7D00;" width="16.8" height="218.4"/>
		
			<rect x="289.8" y="307.8" transform="matrix(-0.7071 0.7071 -0.7071 -0.7071 803.8369 500.9645)" style="fill:#EE7D00;" width="16.8" height="218.4"/>
		
			<rect x="266" y="331.5" transform="matrix(-0.7071 0.7071 -0.7071 -0.7071 780.0775 558.3248)" style="fill:#EE7D00;" width="16.8" height="218.4"/>
		
			<rect x="728.8" y="344" transform="matrix(0.7071 0.7071 -0.7071 0.7071 536.3387 -388.5247)" style="fill:#EE7D00;" width="16.8" height="218.4"/>
		
			<rect x="752.5" y="367.7" transform="matrix(0.7071 0.7071 -0.7071 0.7071 560.0981 -398.3661)" style="fill:#EE7D00;" width="16.8" height="218.4"/>
		
			<rect x="776.3" y="391.5" transform="matrix(0.7071 0.7071 -0.7071 0.7071 583.8575 -408.2076)" style="fill:#EE7D00;" width="16.8" height="218.4"/>
		
			<rect x="800" y="415.2" transform="matrix(0.7071 0.7071 -0.7071 0.7071 607.6169 -418.0491)" style="fill:#EE7D00;" width="16.8" height="218.4"/>
		
			<rect x="823.8" y="439" transform="matrix(0.7071 0.7071 -0.7071 0.7071 631.3763 -427.8906)" style="fill:#EE7D00;" width="16.8" height="218.4"/>
		
			<rect x="847.6" y="462.7" transform="matrix(0.7071 0.7071 -0.7071 0.7071 655.1358 -437.732)" style="fill:#EE7D00;" width="16.8" height="218.4"/>
		
			<rect x="871.3" y="486.5" transform="matrix(0.7071 0.7071 -0.7071 0.7071 678.8952 -447.5735)" style="fill:#EE7D00;" width="16.8" height="218.4"/>
		
			<rect x="419.9" y="35.1" transform="matrix(0.7071 0.7071 -0.7071 0.7071 227.4663 -260.5855)" style="fill:#EE7D00;" width="16.8" height="218.4"/>
		
			<rect x="443.6" y="58.8" transform="matrix(0.7071 0.7071 -0.7071 0.7071 251.2258 -270.427)" style="fill:#EE7D00;" width="16.8" height="218.4"/>
		
			<rect x="467.4" y="82.6" transform="matrix(0.7071 0.7071 -0.7071 0.7071 274.9852 -280.2685)" style="fill:#EE7D00;" width="16.8" height="218.4"/>
		
			<rect x="491.2" y="106.4" transform="matrix(0.7071 0.7071 -0.7071 0.7071 298.7446 -290.11)" style="fill:#EE7D00;" width="16.8" height="218.4"/>
		
			<rect x="514.9" y="130.1" transform="matrix(0.7071 0.7071 -0.7071 0.7071 322.504 -299.9514)" style="fill:#EE7D00;" width="16.8" height="218.4"/>
		
			<rect x="538.7" y="153.9" transform="matrix(0.7071 0.7071 -0.7071 0.7071 346.2634 -309.7929)" style="fill:#EE7D00;" width="16.8" height="218.4"/>
		
			<rect x="562.4" y="177.6" transform="matrix(0.7071 0.7071 -0.7071 0.7071 370.0228 -319.6344)" style="fill:#EE7D00;" width="16.8" height="218.4"/>
		
			<rect x="716.9" y="189.5" transform="matrix(-0.7071 0.7071 -0.7071 -0.7071 1449.3578 -2.9045)" style="fill:#EE7D00;" width="16.8" height="218.4"/>
		
			<rect x="693.1" y="213.3" transform="matrix(-0.7071 0.7071 -0.7071 -0.7071 1425.5984 54.4558)" style="fill:#EE7D00;" width="16.8" height="218.4"/>
		
			<rect x="669.4" y="237" transform="matrix(-0.7071 0.7071 -0.7071 -0.7071 1401.8389 111.8161)" style="fill:#EE7D00;" width="16.8" height="218.4"/>
		
			<rect x="645.6" y="260.8" transform="matrix(-0.7071 0.7071 -0.7071 -0.7071 1378.0795 169.1764)" style="fill:#EE7D00;" width="16.8" height="218.4"/>
		
			<rect x="621.8" y="284.6" transform="matrix(-0.7071 0.7071 -0.7071 -0.7071 1354.3201 226.5367)" style="fill:#EE7D00;" width="16.8" height="218.4"/>
		
			<rect x="598.1" y="308.3" transform="matrix(-0.7071 0.7071 -0.7071 -0.7071 1330.5607 283.897)" style="fill:#EE7D00;" width="16.8" height="218.4"/>
		
			<rect x="574.3" y="332.1" transform="matrix(-0.7071 0.7071 -0.7071 -0.7071 1306.8013 341.2573)" style="fill:#EE7D00;" width="16.8" height="218.4"/>
	</g>
</g>
<g>
</g>
<g>
</g>
<g>
</g>
<g>
</g>
<g>
</g>
<g>
</g>
<g>
</g>
<g>
</g>
<g>
</g>
<g>
</g>
<g>
</g>
<g>
</g>
<g>
</g>
<g>
</g>
<g>
</g>
</svg>
