<?xml version="1.0" encoding="utf-8"?>
<!-- Generator: Adobe Illustrator 19.1.0, SVG Export Plug-In . SVG Version: 6.00 Build 0)  -->
<svg version="1.1" id="Layer_1" xmlns="http://www.w3.org/2000/svg" xmlns:xlink="http://www.w3.org/1999/xlink" x="0px" y="0px"
	 viewBox="0 0 250 250" style="enable-background:new 0 0 250 250;" xml:space="preserve">
<style type="text/css">
	.st0{fill:#231F20;stroke:#231F20;stroke-width:4;stroke-miterlimit:10;}
	.st1{fill:url(#SVGID_1_);stroke:#231F20;stroke-width:4;stroke-linecap:round;stroke-linejoin:round;stroke-miterlimit:10;}
	.st2{fill:url(#SVGID_2_);stroke:#231F20;stroke-width:4;stroke-linecap:round;stroke-linejoin:round;stroke-miterlimit:10;}
	.st3{fill:url(#SVGID_3_);stroke:#231F20;stroke-width:4;stroke-linecap:round;stroke-linejoin:round;stroke-miterlimit:10;}
	.st4{fill:url(#SVGID_4_);}
	.st5{fill:#231F20;}
	.st6{fill:url(#SVGID_5_);stroke:#231F20;stroke-width:4;stroke-linecap:round;stroke-linejoin:round;stroke-miterlimit:10;}
	.st7{fill:#EF5323;}
	.st8{fill:url(#SVGID_6_);}
	.st9{fill:url(#SVGID_7_);}
	.st10{fill:#FFFFFF;}
	.st11{fill:url(#SVGID_8_);}
	.st12{fill:#FFF11E;stroke:#231F20;stroke-width:4;stroke-linecap:round;stroke-linejoin:round;stroke-miterlimit:10;}
	.st13{fill:url(#SVGID_9_);}
	.st14{fill:#EC1C24;stroke:#231F20;stroke-width:4;stroke-linecap:round;stroke-linejoin:round;stroke-miterlimit:10;}
	.st15{fill:url(#SVGID_10_);stroke:#231F20;stroke-width:4;stroke-linecap:round;stroke-linejoin:round;stroke-miterlimit:10;}
	.st16{fill:url(#SVGID_11_);stroke:#231F20;stroke-width:4;stroke-linecap:round;stroke-linejoin:round;stroke-miterlimit:10;}
	.st17{fill:url(#SVGID_12_);stroke:#231F20;stroke-width:4;stroke-linecap:round;stroke-linejoin:round;stroke-miterlimit:10;}
	.st18{fill:url(#SVGID_13_);}
	.st19{fill:url(#SVGID_14_);stroke:#231F20;stroke-width:4;stroke-linecap:round;stroke-linejoin:round;stroke-miterlimit:10;}
	.st20{fill:url(#SVGID_15_);}
	.st21{fill:url(#SVGID_16_);}
	.st22{fill:url(#SVGID_17_);}
	.st23{fill:url(#SVGID_18_);}
</style>
<g>
	<polygon class="st0" points="35.1,119.4 50,89.8 42.6,40.9 52.8,34 82.9,55.4 150.5,52.1 171.5,51.4 195.1,34 203.1,46.2 
		198.3,86.2 211.1,127.1 205.8,182.9 162.5,196.4 130.5,228.4 103.3,200.1 60.2,197 41.8,164.2 	"/>
	<g>
		<linearGradient id="SVGID_1_" gradientUnits="userSpaceOnUse" x1="84.2183" y1="76.9233" x2="124.7516" y2="76.9233">
			<stop  offset="0.3156" style="stop-color:#FFCA05"/>
			<stop  offset="0.8667" style="stop-color:#F9A31A"/>
		</linearGradient>
		<polyline class="st1" points="124.8,38.1 110.8,38.1 84.2,50.7 117.3,115.8 124.8,115.8 		"/>
		<linearGradient id="SVGID_2_" gradientUnits="userSpaceOnUse" x1="104.4849" y1="148.494" x2="124.7516" y2="148.494">
			<stop  offset="0.3156" style="stop-color:#FFCA05"/>
			<stop  offset="0.8667" style="stop-color:#F9A31A"/>
		</linearGradient>
		<polyline class="st2" points="124.8,119.4 115.7,119.4 104.5,156.3 108,177.6 124.8,174.6 		"/>
		<linearGradient id="SVGID_3_" gradientUnits="userSpaceOnUse" x1="105.905" y1="188.1239" x2="124.7516" y2="188.1239">
			<stop  offset="0.3156" style="stop-color:#FFCA05"/>
			<stop  offset="0.8667" style="stop-color:#F9A31A"/>
		</linearGradient>
		<path class="st3" d="M124.8,176.8h-3.2l-13.3,2.6l-2.3,4.5l5,4.4l2.7-1.7c0,0,3.6,5.2,4.8,7.2s4.5,5.6,4.5,5.6h1.8"/>
		<g>
			<linearGradient id="SVGID_4_" gradientUnits="userSpaceOnUse" x1="76.9258" y1="200.0649" x2="120.9824" y2="200.0649">
				<stop  offset="0.3156" style="stop-color:#FFCA05"/>
				<stop  offset="0.8667" style="stop-color:#F9A31A"/>
			</linearGradient>
			<path class="st4" d="M105.9,218.5c-0.3,0-0.5-0.1-0.8-0.2l-20.8-9c-0.4-0.2-0.7-0.5-0.9-0.9l-6.2-11.1c-0.3-0.5-0.3-1-0.2-1.6
				l3.9-12.7c0.3-0.8,1-1.4,1.9-1.4c0.1,0,0.1,0,0.2,0l20.4,1.7c0.5,0,0.9,0.2,1.2,0.5l15.8,15.1c0.4,0.4,0.6,0.9,0.6,1.4v9.2
				c0,0.7-0.4,1.4-1.1,1.8l-13.1,6.8C106.5,218.4,106.2,218.5,105.9,218.5z"/>
			<path class="st5" d="M82.8,183.7l20.4,1.7l15.8,15.1v9.2l-13.1,6.8l-20.8-9l-6.2-11.1L82.8,183.7 M82.8,179.7
				c-1.7,0-3.3,1.1-3.8,2.8l-3.9,12.7c-0.3,1-0.2,2.2,0.3,3.1l6.2,11.1c0.4,0.8,1.1,1.4,1.9,1.7l20.8,9c0.5,0.2,1.1,0.3,1.6,0.3
				c0.6,0,1.3-0.2,1.9-0.5l13.1-6.8c1.3-0.7,2.1-2.1,2.1-3.5v-9.2c0-1.1-0.4-2.1-1.2-2.9L106,182.5c-0.7-0.6-1.5-1-2.4-1.1
				l-20.4-1.7C83,179.7,82.9,179.7,82.8,179.7L82.8,179.7z"/>
		</g>
		<linearGradient id="SVGID_5_" gradientUnits="userSpaceOnUse" x1="106.8089" y1="225.7531" x2="124.7516" y2="225.7531">
			<stop  offset="0.3156" style="stop-color:#FFCA05"/>
			<stop  offset="0.8667" style="stop-color:#F9A31A"/>
		</linearGradient>
		<polyline class="st6" points="124.8,213.2 106.8,220.7 108.6,230.1 107.7,232.5 110.3,236.1 121.5,238.3 124.8,238.3 		"/>
		<g>
			<path class="st7" d="M65.2,226.7c-0.3,0-0.6-0.1-0.9-0.2c-0.7-0.4-1.1-1.1-1.1-1.8l0.2-5.9l-2.5,1.1c-0.3,0.1-0.5,0.2-0.8,0.2
				c-0.4,0-0.8-0.1-1.2-0.4c-0.6-0.4-0.9-1.1-0.8-1.8l0.1-1.7l-4.1,3.4c-0.4,0.3-0.8,0.5-1.3,0.5c-0.3,0-0.7-0.1-1-0.2
				c-0.7-0.4-1.1-1.2-1-2l1.4-11.5c0-0.1,0-0.2,0.1-0.3l5.4-19.2c0.2-0.7,0.8-1.3,1.6-1.4c0.1,0,0.2,0,0.3,0c0.7,0,1.3,0.3,1.7,0.9
				l20.8,30.7c0.4,0.6,0.5,1.3,0.2,2c-0.3,0.6-0.9,1.1-1.6,1.1l-6.6,0.7l-7.7,5.6C66.1,226.6,65.7,226.7,65.2,226.7z"/>
			<path class="st5" d="M59.7,187.3L80.5,218l-7.1,0.8l-8.1,5.9l0.3-9l-5.4,2.3l0.4-6.3l-7.6,6.3l1.4-11.5L59.7,187.3 M59.7,183.3
				c-0.2,0-0.4,0-0.6,0.1c-1.5,0.2-2.8,1.4-3.2,2.9l-5.4,19.2c-0.1,0.2-0.1,0.4-0.1,0.6l-1.4,11.5c-0.2,1.6,0.6,3.2,2.1,4
				c0.6,0.3,1.3,0.5,1.9,0.5c0.9,0,1.8-0.3,2.6-0.9l1.2-1c0.3,0.5,0.7,0.9,1.1,1.2c0.7,0.5,1.5,0.7,2.3,0.7c0.4,0,0.8-0.1,1.2-0.2
				l-0.1,2.8c0,1.5,0.8,2.9,2.1,3.7c0.6,0.3,1.2,0.5,1.9,0.5c0.8,0,1.7-0.3,2.4-0.8l7.3-5.3l6-0.7c1.4-0.2,2.6-1,3.2-2.3
				c0.6-1.3,0.5-2.8-0.3-3.9L63,185C62.3,183.9,61,183.3,59.7,183.3L59.7,183.3z"/>
		</g>
		<g>
			<linearGradient id="SVGID_6_" gradientUnits="userSpaceOnUse" x1="17.8799" y1="146.0918" x2="58.0459" y2="146.0918">
				<stop  offset="0.1964" style="stop-color:#F27321"/>
				<stop  offset="0.7517" style="stop-color:#FFCA05"/>
			</linearGradient>
			<polygon class="st8" points="36.8,179.7 29.6,184.7 33.6,162.4 25.3,164 31,139.6 17.9,141.5 29.6,107.6 52.3,84.7 50.1,130 
				58,180.8 40,207.5 			"/>
			<g>
				<path class="st5" d="M50,89.8l-1.9,40.3l7.9,50.2l-14.6,21.6l-3-25.7l-5.9,4.1l3.6-20.4l-8.1,1.5l5.7-24.3L20.8,139l10.5-30.4
					L50,89.8 M54.5,79.6L47.2,87l-18.7,18.8l-0.6,0.6l-0.3,0.9l-10.5,30.4l-2.1,6.2l6.5-0.9l7-1L24,160.6l-1.4,6l6-1.2l2.4-0.5
					l-2.6,14.7l-1.7,9.5l7.9-5.5l0.4-0.3l2.2,19l1.2,10.7l6-8.9l14.6-21.6l0.9-1.3l-0.2-1.6l-7.8-49.8L54,90L54.5,79.6L54.5,79.6z"
					/>
			</g>
		</g>
		<g>
			<linearGradient id="SVGID_7_" gradientUnits="userSpaceOnUse" x1="52.3986" y1="142.6204" x2="96.2868" y2="142.6204">
				<stop  offset="0.3156" style="stop-color:#FFCA05"/>
				<stop  offset="0.8667" style="stop-color:#F9A31A"/>
			</linearGradient>
			<path class="st9" d="M77.6,177.8c-0.6,0-1.3-0.3-1.6-0.9l-23.2-33.2c-0.3-0.5-0.4-1.1-0.3-1.6l7.9-33.2c0.2-0.7,0.7-1.3,1.4-1.5
				c0.2-0.1,0.4-0.1,0.5-0.1c0.5,0,1,0.2,1.4,0.6l17.6,17.7l14.2,9.8c0.8,0.5,1.1,1.6,0.7,2.4l-16.7,38.6c-0.3,0.7-0.9,1.1-1.6,1.2
				C77.8,177.8,77.7,177.8,77.6,177.8z"/>
			<path class="st5" d="M62.3,109.4L80,127.3l14.3,9.9l-16.7,38.6l-23.2-33.2L62.3,109.4 M62.3,105.4c-0.4,0-0.7,0-1.1,0.1
				c-1.4,0.4-2.5,1.5-2.8,2.9l-7.9,33.2c-0.3,1.1,0,2.3,0.6,3.2l23.2,33.2c0.8,1.1,2,1.7,3.3,1.7c0.1,0,0.3,0,0.4,0
				c1.4-0.1,2.7-1.1,3.3-2.4L98,138.8c0.8-1.7,0.2-3.8-1.4-4.9l-14-9.7l-17.4-17.6C64.4,105.9,63.3,105.4,62.3,105.4L62.3,105.4z"/>
		</g>
		<g>
			<path class="st10" d="M74.3,197.2c-0.5,0-1.1-0.2-1.5-0.6L62.1,185c-0.2-0.2-0.4-0.5-0.5-0.8L53,153.1c-0.3-0.9,0.2-1.9,1-2.3
				c0.3-0.1,0.6-0.2,0.9-0.2c0.6,0,1.2,0.3,1.6,0.8l20.1,25.1l0.9-0.4l19.7-39.8c0.2-0.4,0.5-0.7,0.9-0.9l7.9-3.9
				c0.3-0.1,0.6-0.2,0.9-0.2c0.5,0,0.9,0.2,1.3,0.5c0.6,0.5,0.9,1.3,0.6,2.1l-7,23.1l3,20.3c0.1,0.5-0.1,1.1-0.4,1.5
				c-0.3,0.4-0.8,0.7-1.4,0.8l-20.1,1.8L76.2,196c-0.3,0.6-0.8,1-1.5,1.1C74.6,197.2,74.4,197.2,74.3,197.2z"/>
			<path class="st5" d="M106.8,133.3L106.8,133.3 M106.8,133.3l-7.1,23.5l3.1,20.8l-21.3,1.9l-7.2,15.6l-10.8-11.5l-8.6-31.1
				l21,26.3l3-1.3l20-40.4L106.8,133.3 M106.8,129.3c-0.1,0-0.1,0-0.2,0c-0.6,0-1.1,0.2-1.6,0.4l-7.8,3.8c-0.8,0.4-1.4,1-1.8,1.8
				l-18.8,37.9L58,150.1c-0.8-1-1.9-1.5-3.1-1.5c-0.6,0-1.2,0.1-1.8,0.4c-1.7,0.9-2.5,2.8-2,4.6l8.6,31.1c0.2,0.6,0.5,1.2,0.9,1.7
				l10.8,11.5c0.8,0.8,1.8,1.3,2.9,1.3c0.2,0,0.4,0,0.6-0.1c1.3-0.2,2.4-1.1,3-2.3l6.2-13.5l19-1.7c1.1-0.1,2.1-0.6,2.8-1.5
				c0.7-0.9,1-2,0.8-3.1l-3-19.9l6.8-22.5c0.1-0.4,0.2-0.9,0.2-1.3C110.8,131.1,109,129.3,106.8,129.3
				C106.8,129.3,106.8,129.3,106.8,129.3L106.8,129.3z"/>
		</g>
		<g>
			<linearGradient id="SVGID_8_" gradientUnits="userSpaceOnUse" x1="50.85" y1="104.604" x2="112.294" y2="104.604">
				<stop  offset="0.3156" style="stop-color:#FFCA05"/>
				<stop  offset="0.8667" style="stop-color:#F9A31A"/>
			</linearGradient>
			<path class="st11" d="M109,121.4c-0.4,0-0.9-0.1-1.2-0.4L91,107.7L54.3,95.3c-0.5-0.2-0.9-0.5-1.1-0.9l-2.1-3.6
				c-0.4-0.7-0.3-1.5,0.1-2.1c0.4-0.5,1-0.9,1.6-0.9c0.1,0,0.2,0,0.3,0L102,96c0.6,0.1,1.2,0.5,1.5,1.1l8.6,17.3
				c0.2,0.5,0.3,1,0.1,1.5l-1.3,4.1c-0.2,0.6-0.7,1.1-1.3,1.3C109.4,121.4,109.2,121.4,109,121.4z"/>
			<path class="st5" d="M52.8,89.8l48.8,8.1l8.6,17.3l-1.3,4.1L92,106l-37-12.5L52.8,89.8 M52.8,85.8c-1.3,0-2.5,0.6-3.3,1.7
				c-0.9,1.3-1,2.9-0.2,4.3l2.1,3.6c0.5,0.8,1.3,1.5,2.2,1.8L90,109.5l16.5,13c0.7,0.6,1.6,0.9,2.5,0.9c0.4,0,0.8-0.1,1.2-0.2
				c1.3-0.4,2.2-1.4,2.6-2.6l1.3-4.1c0.3-1,0.2-2.1-0.2-3l-8.6-17.3c-0.6-1.1-1.7-1.9-2.9-2.2l-48.8-8.1
				C53.3,85.8,53.1,85.8,52.8,85.8L52.8,85.8z"/>
		</g>
		<g>
			<path class="st5" d="M103.3,126.4c-0.4,0-0.9-0.1-1.3-0.4l-10.2-8.3l-14-2.1c-0.5-0.1-0.9-0.3-1.2-0.6l-7.5-8.1
				c-0.6-0.6-0.7-1.6-0.3-2.4c0.4-0.6,1-1,1.7-1c0.1,0,0.3,0,0.4,0l24,5.3c0.5,0.1,1,0.4,1.3,0.9l8.6,13.7c0.5,0.8,0.4,1.9-0.4,2.6
				C104.3,126.3,103.8,126.4,103.3,126.4z"/>
			<path class="st5" d="M70.7,105.4l24,5.3l8.6,13.7l-10.6-8.6l-14.6-2.2L70.7,105.4 M70.7,101.4c-1.4,0-2.7,0.7-3.5,2
				c-0.9,1.5-0.7,3.4,0.5,4.7l7.5,8.1c0.6,0.7,1.4,1.1,2.3,1.2l13.5,2l9.7,7.9c0.7,0.6,1.6,0.9,2.5,0.9c1,0,1.9-0.3,2.7-1
				c1.5-1.3,1.8-3.5,0.7-5.1l-8.6-13.7c-0.6-0.9-1.5-1.5-2.5-1.8l-24-5.3C71.2,101.5,71,101.4,70.7,101.4L70.7,101.4z"/>
		</g>
		<g>
			<path class="st5" d="M92,132.7c-0.5,0-0.9-0.2-1.3-0.4l-11.1-9c-0.8-0.6-1-1.7-0.5-2.6c0.4-0.6,1-1,1.7-1c0.3,0,0.5,0,0.8,0.1
				l10.5,4.2H96c0.2,0,0.4,0,0.6,0.1l3,0.9c0.8,0.2,1.3,0.9,1.4,1.7c0.1,0.8-0.3,1.6-1,2l-7,3.7C92.6,132.7,92.3,132.7,92,132.7z"/>
			<path class="st5" d="M80.9,121.7l10.8,4.4H96l3,0.9l-7,3.7L80.9,121.7 M80.9,117.7c-1.4,0-2.7,0.7-3.4,2c-1,1.7-0.6,3.9,0.9,5.1
				l11.1,9c0.7,0.6,1.6,0.9,2.5,0.9c0.6,0,1.3-0.2,1.9-0.5l7-3.7c1.4-0.8,2.3-2.3,2.1-3.9c-0.2-1.6-1.3-3-2.8-3.4l-3-0.9
				c-0.4-0.1-0.8-0.2-1.2-0.2h-3.5L82.4,118C81.9,117.8,81.4,117.7,80.9,117.7L80.9,117.7z"/>
		</g>
		<polyline class="st12" points="55.9,87.5 78.9,64.5 82.9,55.4 100.1,93.7 55.9,88.1 		"/>
		<g>
			<linearGradient id="SVGID_9_" gradientUnits="userSpaceOnUse" x1="82.4761" y1="117.2329" x2="99.671" y2="117.2329">
				<stop  offset="0.3156" style="stop-color:#FFCA05"/>
				<stop  offset="0.8667" style="stop-color:#F9A31A"/>
			</linearGradient>
			<path class="st13" d="M91.1,125.8c-4.8,0-8.6-3.9-8.6-8.6c0-4,2.7-7.5,6.7-8.4c0.1,0,0.3-0.1,0.4-0.1c0.7,0,1.3,0.3,1.7,0.9
				l1.8,2.7c0.4,0.6,0.4,1.5,0.1,2.1c-0.4,0.6-1,1-1.7,1c0,0-0.3,0-0.3,0c-1,0-1.8,0.8-1.8,1.8c0,1,0.8,1.8,1.8,1.8
				c1,0,1.8-0.8,1.8-1.8c0-0.2,0-0.4-0.1-0.5c-0.3-0.8,0-1.7,0.7-2.2c0.4-0.3,0.8-0.4,1.2-0.4c0.4,0,0.8,0.1,1.1,0.3l3,2
				c0.6,0.4,1,1.2,0.9,1.9C99.1,122.5,95.4,125.8,91.1,125.8z"/>
			<path class="st5" d="M89.6,110.7l1.8,2.7c-0.1,0-0.2,0-0.3,0c-2.1,0-3.8,1.7-3.8,3.8c0,2.1,1.7,3.8,3.8,3.8
				c2.1,0,3.8-1.7,3.8-3.8c0-0.4-0.1-0.8-0.2-1.1l3,2c-0.4,3.3-3.2,5.8-6.6,5.8c-3.7,0-6.6-3-6.6-6.6
				C84.5,114,86.7,111.4,89.6,110.7 M89.6,106.7c-0.3,0-0.6,0-0.9,0.1c-4.8,1.1-8.2,5.4-8.2,10.4c0,5.9,4.8,10.6,10.6,10.6
				c5.3,0,9.8-4,10.5-9.3c0.2-1.5-0.5-3-1.7-3.8l-3-2c-0.5-0.4-1.1-0.6-1.8-0.6c-0.1-0.3-0.3-0.6-0.4-0.9l-1.8-2.7
				C92.2,107.4,90.9,106.7,89.6,106.7L89.6,106.7z"/>
		</g>
		<polygon class="st14" points="54.9,82.6 54.7,82.8 51.2,86.2 46.5,88.3 39.6,60.9 41.1,34.2 54.4,26.3 78.9,44.4 80.9,50.3 
			76.3,61.6 57.9,38.1 51.9,39.6 49.4,58.3 		"/>
		<linearGradient id="SVGID_10_" gradientUnits="userSpaceOnUse" x1="124.7516" y1="76.9233" x2="165.2849" y2="76.9233">
			<stop  offset="0.3156" style="stop-color:#FFCA05"/>
			<stop  offset="0.8667" style="stop-color:#F9A31A"/>
		</linearGradient>
		<polyline class="st15" points="124.8,38.1 138.7,38.1 165.3,50.7 132.2,115.8 124.8,115.8 		"/>
		<linearGradient id="SVGID_11_" gradientUnits="userSpaceOnUse" x1="124.7516" y1="148.494" x2="145.0182" y2="148.494">
			<stop  offset="0.3156" style="stop-color:#FFCA05"/>
			<stop  offset="0.8667" style="stop-color:#F9A31A"/>
		</linearGradient>
		<polyline class="st16" points="124.8,119.4 133.8,119.4 145,156.3 141.5,177.6 124.8,174.6 		"/>
		<linearGradient id="SVGID_12_" gradientUnits="userSpaceOnUse" x1="124.7516" y1="188.1239" x2="143.5981" y2="188.1239">
			<stop  offset="0.3156" style="stop-color:#FFCA05"/>
			<stop  offset="0.8667" style="stop-color:#F9A31A"/>
		</linearGradient>
		<path class="st17" d="M124.8,176.8h3.2l13.3,2.6l2.3,4.5l-5,4.4l-2.7-1.7c0,0-3.6,5.2-4.8,7.2c-1.2,2.1-4.5,5.6-4.5,5.6h-1.8"/>
		<g>
			<linearGradient id="SVGID_13_" gradientUnits="userSpaceOnUse" x1="128.5205" y1="200.0649" x2="172.5772" y2="200.0649">
				<stop  offset="0.3156" style="stop-color:#FFCA05"/>
				<stop  offset="0.8667" style="stop-color:#F9A31A"/>
			</linearGradient>
			<path class="st18" d="M143.6,218.5c-0.3,0-0.6-0.1-0.9-0.2l-13.1-6.8c-0.7-0.3-1.1-1-1.1-1.8v-9.2c0-0.5,0.2-1.1,0.6-1.4
				l15.8-15.1c0.3-0.3,0.8-0.5,1.2-0.5l20.4-1.7c0.1,0,0.1,0,0.2,0c0.9,0,1.7,0.6,1.9,1.4l3.9,12.7c0.2,0.5,0.1,1.1-0.2,1.6
				l-6.2,11.1c-0.2,0.4-0.5,0.7-0.9,0.9l-20.8,9C144.1,218.4,143.9,218.5,143.6,218.5z"/>
			<path class="st5" d="M166.7,183.7l3.9,12.7l-6.2,11.1l-20.8,9l-13.1-6.8v-9.2l15.8-15.1L166.7,183.7 M166.7,179.7
				c-0.1,0-0.2,0-0.3,0l-20.4,1.7c-0.9,0.1-1.8,0.5-2.4,1.1l-15.8,15.1c-0.8,0.8-1.2,1.8-1.2,2.9v9.2c0,1.5,0.8,2.9,2.1,3.5
				l13.1,6.8c0.6,0.3,1.2,0.5,1.9,0.5c0.5,0,1.1-0.1,1.6-0.3l20.8-9c0.8-0.3,1.5-1,1.9-1.7l6.2-11.1c0.5-1,0.7-2.1,0.3-3.1
				l-3.9-12.7C170,180.8,168.5,179.7,166.7,179.7L166.7,179.7z"/>
		</g>
		<linearGradient id="SVGID_14_" gradientUnits="userSpaceOnUse" x1="124.7516" y1="225.7531" x2="142.6943" y2="225.7531">
			<stop  offset="0.3156" style="stop-color:#FFCA05"/>
			<stop  offset="0.8667" style="stop-color:#F9A31A"/>
		</linearGradient>
		<polyline class="st19" points="124.8,213.2 142.7,220.7 140.9,230.1 141.8,232.5 139.2,236.1 128,238.3 124.8,238.3 		"/>
		<g>
			<path class="st7" d="M184.3,226.7c-0.4,0-0.8-0.1-1.2-0.4l-7.7-5.6l-6.6-0.7c-0.7-0.1-1.3-0.5-1.6-1.1c-0.3-0.6-0.2-1.4,0.2-2
				l20.8-30.7c0.4-0.6,1-0.9,1.7-0.9c0.1,0,0.2,0,0.3,0c0.8,0.1,1.4,0.7,1.6,1.4l5.4,19.2c0,0.1,0,0.2,0.1,0.3l1.4,11.5
				c0.1,0.8-0.3,1.6-1,2c-0.3,0.2-0.6,0.2-1,0.2c-0.5,0-0.9-0.2-1.3-0.5l-4.1-3.4l0.1,1.7c0,0.7-0.3,1.4-0.8,1.8
				c-0.3,0.2-0.7,0.4-1.2,0.4c-0.3,0-0.5-0.1-0.8-0.2l-2.5-1.1l0.2,5.9c0,0.8-0.4,1.5-1.1,1.8C184.9,226.6,184.6,226.7,184.3,226.7z
				"/>
			<path class="st5" d="M189.8,187.3l5.4,19.2l1.4,11.5l-7.6-6.3l0.4,6.3l-5.4-2.3l0.3,9l-8.1-5.9L169,218L189.8,187.3 M189.8,183.3
				c-1.3,0-2.6,0.6-3.3,1.8l-20.8,30.7c-0.8,1.2-0.9,2.6-0.3,3.9s1.8,2.1,3.2,2.3l6,0.7l7.3,5.3c0.7,0.5,1.5,0.8,2.4,0.8
				c0.6,0,1.3-0.2,1.9-0.5c1.4-0.7,2.2-2.1,2.1-3.7l-0.1-2.8c0.4,0.1,0.8,0.2,1.2,0.2c0.8,0,1.6-0.2,2.3-0.7
				c0.5-0.3,0.8-0.7,1.1-1.2l1.2,1c0.7,0.6,1.6,0.9,2.6,0.9c0.7,0,1.3-0.2,1.9-0.5c1.4-0.8,2.3-2.4,2.1-4l-1.4-11.5
				c0-0.2-0.1-0.4-0.1-0.6l-5.4-19.2c-0.4-1.5-1.7-2.6-3.2-2.9C190.2,183.3,190,183.3,189.8,183.3L189.8,183.3z"/>
		</g>
		<g>
			<linearGradient id="SVGID_15_" gradientUnits="userSpaceOnUse" x1="191.457" y1="146.0918" x2="231.623" y2="146.0918">
				<stop  offset="0.1964" style="stop-color:#F27321"/>
				<stop  offset="0.7517" style="stop-color:#FFCA05"/>
			</linearGradient>
			<polygon class="st20" points="191.5,180.8 199.4,130 197.2,84.7 220,107.6 231.6,141.5 218.5,139.6 224.2,164 215.9,162.4 
				219.9,184.7 212.7,179.7 209.5,207.5 			"/>
			<g>
				<path class="st5" d="M199.5,89.8l18.7,18.8l10.5,30.4l-12.8-1.8l5.7,24.3l-8.1-1.5l3.6,20.4l-5.9-4.1l-3,25.7l-14.6-21.6
					l7.9-50.2L199.5,89.8 M195,79.6l0.5,10.4l1.9,39.9l-7.8,49.8l-0.2,1.6l0.9,1.3l14.6,21.6l6,8.9l1.2-10.7l2.2-19l0.4,0.3l7.9,5.5
					l-1.7-9.5l-2.6-14.7l2.4,0.5l6,1.2l-1.4-6l-4.3-18.6l7,1l6.5,0.9l-2.1-6.2L222,107.4l-0.3-0.9l-0.6-0.6L202.3,87L195,79.6
					L195,79.6z"/>
			</g>
		</g>
		<g>
			<linearGradient id="SVGID_16_" gradientUnits="userSpaceOnUse" x1="153.2167" y1="142.6204" x2="197.1048" y2="142.6204">
				<stop  offset="0.3156" style="stop-color:#FFCA05"/>
				<stop  offset="0.8667" style="stop-color:#F9A31A"/>
			</linearGradient>
			<path class="st21" d="M171.9,177.8c-0.1,0-0.1,0-0.2,0c-0.7-0.1-1.3-0.5-1.6-1.2L153.4,138c-0.4-0.9-0.1-1.9,0.7-2.4l14.2-9.8
				l17.6-17.7c0.4-0.4,0.9-0.6,1.4-0.6c0.2,0,0.4,0,0.5,0.1c0.7,0.2,1.2,0.8,1.4,1.5l7.9,33.2c0.1,0.6,0,1.1-0.3,1.6l-23.2,33.2
				C173.1,177.5,172.5,177.8,171.9,177.8z"/>
			<path class="st5" d="M187.2,109.4l7.9,33.2l-23.2,33.2l-16.7-38.6l14.3-9.9L187.2,109.4 M187.2,105.4c-1.1,0-2.1,0.4-2.8,1.2
				L167,124.2l-14,9.7c-1.6,1.1-2.1,3.1-1.4,4.9l16.7,38.6c0.6,1.3,1.8,2.2,3.3,2.4c0.1,0,0.3,0,0.4,0c1.3,0,2.5-0.6,3.3-1.7
				l23.2-33.2c0.7-0.9,0.9-2.1,0.6-3.2l-7.9-33.2c-0.3-1.4-1.4-2.5-2.8-2.9C188,105.5,187.6,105.4,187.2,105.4L187.2,105.4z"/>
		</g>
		<g>
			<path class="st10" d="M175.2,197.2c-0.1,0-0.2,0-0.3,0c-0.7-0.1-1.2-0.5-1.5-1.1l-6.7-14.6l-20.1-1.8c-0.5,0-1.1-0.3-1.4-0.8
				c-0.3-0.4-0.5-1-0.4-1.5l3-20.3l-7-23.1c-0.2-0.8,0-1.6,0.6-2.1c0.4-0.3,0.8-0.5,1.3-0.5c0.3,0,0.6,0.1,0.9,0.2l7.9,3.9
				c0.4,0.2,0.7,0.5,0.9,0.9l19.7,39.8l0.9,0.4l20.1-25.1c0.4-0.5,1-0.8,1.6-0.8c0.3,0,0.6,0.1,0.9,0.2c0.8,0.4,1.3,1.4,1,2.3
				l-8.6,31.1c-0.1,0.3-0.2,0.6-0.5,0.8l-10.8,11.5C176.2,196.9,175.7,197.2,175.2,197.2z"/>
			<path class="st5" d="M142.7,133.3l7.9,3.9l20,40.4l3,1.3l21-26.3l-8.6,31.1l-10.8,11.5l-7.2-15.6l-21.3-1.9l3.1-20.8L142.7,133.3
				 M194.6,152.6L194.6,152.6 M142.7,129.3c-0.9,0-1.8,0.3-2.6,0.9c-1.2,1-1.7,2.7-1.2,4.2l6.8,22.6l-3,19.9
				c-0.2,1.1,0.1,2.2,0.8,3.1c0.7,0.9,1.7,1.4,2.8,1.5l19,1.7l6.2,13.5c0.6,1.2,1.7,2.1,3,2.3c0.2,0,0.4,0.1,0.6,0.1
				c1.1,0,2.2-0.5,2.9-1.3l10.8-11.5c0.4-0.5,0.8-1,0.9-1.7l8.6-31c0.1-0.4,0.2-0.8,0.2-1.2c0-2.1-1.7-3.9-3.8-4c-0.1,0-0.1,0-0.2,0
				c-0.1,0-0.2,0-0.3,0c-0.7,0-1.3,0.3-1.9,0.6c-0.3,0.2-0.6,0.4-0.9,0.7c0,0.1-0.1,0.1-0.1,0.2l-18.5,23.2l-18.8-37.9
				c-0.4-0.8-1-1.4-1.8-1.8l-7.9-3.9C143.9,129.5,143.3,129.3,142.7,129.3L142.7,129.3z"/>
		</g>
		<g>
			<linearGradient id="SVGID_17_" gradientUnits="userSpaceOnUse" x1="137.2088" y1="104.604" x2="198.6533" y2="104.604">
				<stop  offset="0.3156" style="stop-color:#FFCA05"/>
				<stop  offset="0.8667" style="stop-color:#F9A31A"/>
			</linearGradient>
			<path class="st22" d="M140.5,121.4c-0.2,0-0.4,0-0.6-0.1c-0.6-0.2-1.1-0.7-1.3-1.3l-1.3-4.1c-0.2-0.5-0.1-1,0.1-1.5l8.6-17.3
				c0.3-0.6,0.8-1,1.5-1.1l48.8-8.1c0.1,0,0.2,0,0.3,0c0.6,0,1.3,0.3,1.6,0.9c0.4,0.6,0.5,1.5,0.1,2.1l-2.1,3.6
				c-0.2,0.4-0.6,0.7-1.1,0.9l-36.7,12.4L141.7,121C141.4,121.2,140.9,121.4,140.5,121.4z"/>
			<path class="st5" d="M196.7,89.8L196.7,89.8 M196.7,89.8l-2.1,3.6l-37,12.5l-17,13.4l-1.3-4.1l8.6-17.3L196.7,89.8 M196.7,85.8
				c-0.1,0-0.1,0-0.2,0c-0.2,0-0.4,0-0.5,0.1L147.2,94c-1.3,0.2-2.3,1-2.9,2.2l-8.6,17.3c-0.5,0.9-0.5,2-0.2,3l1.3,4.1
				c0.4,1.3,1.4,2.2,2.6,2.6c0.4,0.1,0.8,0.2,1.2,0.2c0.9,0,1.8-0.3,2.5-0.9l16.5-13l36.4-12.3c0.9-0.3,1.7-1,2.2-1.8l2-3.5
				c0.4-0.6,0.6-1.3,0.6-2.1C200.7,87.6,198.9,85.9,196.7,85.8C196.7,85.8,196.7,85.8,196.7,85.8L196.7,85.8z"/>
		</g>
		<g>
			<path class="st5" d="M146.2,126.4c-0.5,0-0.9-0.2-1.3-0.5c-0.7-0.7-0.9-1.7-0.4-2.6l8.6-13.7c0.3-0.4,0.7-0.8,1.3-0.9l24-5.3
				c0.1,0,0.3,0,0.4,0c0.7,0,1.4,0.4,1.7,1c0.4,0.8,0.3,1.7-0.3,2.4l-7.5,8.1c-0.3,0.3-0.7,0.6-1.2,0.6l-14,2.1l-10.2,8.3
				C147.1,126.3,146.6,126.4,146.2,126.4z"/>
			<path class="st5" d="M178.8,105.4L178.8,105.4 M178.8,105.4l-7.5,8.1l-14.6,2.2l-10.6,8.6l8.6-13.7L178.8,105.4 M178.8,101.4
				c-0.1,0-0.2,0-0.3,0c-0.2,0-0.4,0.1-0.6,0.1l-23.9,5.3c-1,0.2-1.9,0.9-2.5,1.8l-8.6,13.7c-1,1.7-0.7,3.8,0.7,5.1
				c0.8,0.7,1.7,1,2.7,1c0.9,0,1.8-0.3,2.5-0.9l9.7-7.9l13.5-2c0.9-0.1,1.7-0.6,2.3-1.2l7.4-8.1c0.7-0.7,1.1-1.7,1.1-2.8
				c0-2.1-1.7-3.9-3.8-4C179,101.4,178.9,101.4,178.8,101.4L178.8,101.4z"/>
		</g>
		<g>
			<path class="st5" d="M157.5,132.7c-0.3,0-0.6-0.1-0.9-0.2l-7-3.7c-0.7-0.4-1.1-1.2-1-2c0.1-0.8,0.6-1.5,1.4-1.7l3-0.9
				c0.2-0.1,0.4-0.1,0.6-0.1h3.9l10.5-4.2c0.2-0.1,0.5-0.1,0.7-0.1c0.7,0,1.4,0.4,1.7,1c0.5,0.9,0.3,1.9-0.5,2.6l-11.1,9
				C158.4,132.6,158,132.7,157.5,132.7z"/>
			<path class="st5" d="M168.6,121.7L168.6,121.7 M168.6,121.7l-11.1,9l-7-3.7l3-0.9h4.3L168.6,121.7 M168.6,117.7
				c-0.2,0-0.4,0-0.6,0c-0.3,0.1-0.7,0.1-1,0.3l-10,4.1h-3.5c-0.4,0-0.8,0.1-1.2,0.2l-3,0.9c-1.5,0.5-2.7,1.8-2.8,3.4
				c-0.2,1.6,0.7,3.2,2.1,3.9l7,3.7c0.6,0.3,1.2,0.5,1.9,0.5c0.9,0,1.8-0.3,2.5-0.9l11-9c0.9-0.7,1.5-1.9,1.5-3.2
				c0-2.1-1.7-3.9-3.8-4C168.8,117.7,168.7,117.7,168.6,117.7L168.6,117.7z"/>
		</g>
		<polyline class="st12" points="193.6,87.5 170.6,64.5 166.6,55.4 149.4,93.7 193.6,88.1 		"/>
		<g>
			<linearGradient id="SVGID_18_" gradientUnits="userSpaceOnUse" x1="149.832" y1="117.2329" x2="167.0273" y2="117.2329">
				<stop  offset="0.3156" style="stop-color:#FFCA05"/>
				<stop  offset="0.8667" style="stop-color:#F9A31A"/>
			</linearGradient>
			<path class="st23" d="M158.4,125.8c-4.3,0-8-3.2-8.5-7.5c-0.1-0.8,0.2-1.5,0.9-1.9l3-2c0.3-0.2,0.7-0.3,1.1-0.3
				c0.4,0,0.8,0.1,1.2,0.4c0.7,0.5,1,1.4,0.7,2.2c-0.1,0.2-0.1,0.3-0.1,0.5c0,1,0.8,1.8,1.8,1.8c1,0,1.8-0.8,1.8-1.8
				c0-1-0.8-1.8-1.8-1.8c0,0-0.2,0-0.3,0c-0.7,0-1.4-0.4-1.7-1c-0.4-0.7-0.4-1.5,0-2.1l1.8-2.7c0.4-0.6,1-0.9,1.7-0.9
				c0.1,0,0.3,0,0.4,0.1c3.9,0.9,6.7,4.4,6.7,8.4C167,121.9,163.2,125.8,158.4,125.8z"/>
			<path class="st5" d="M159.9,110.7c2.9,0.7,5.1,3.3,5.1,6.5c0,3.7-3,6.6-6.6,6.6c-3.4,0-6.1-2.5-6.6-5.8l3-2
				c-0.1,0.4-0.2,0.7-0.2,1.1c0,2.1,1.7,3.8,3.8,3.8c2.1,0,3.8-1.7,3.8-3.8c0-2.1-1.7-3.8-3.8-3.8c-0.1,0-0.2,0-0.3,0L159.9,110.7
				 M159.9,106.7c-1.3,0-2.6,0.7-3.3,1.8l-1.8,2.7c-0.2,0.3-0.3,0.6-0.4,0.9c-0.6,0.1-1.2,0.3-1.8,0.6l-3,2
				c-1.3,0.8-1.9,2.3-1.7,3.8c0.7,5.3,5.2,9.3,10.5,9.3c5.9,0,10.6-4.8,10.6-10.6c0-5-3.4-9.2-8.2-10.4
				C160.5,106.7,160.2,106.7,159.9,106.7L159.9,106.7z"/>
		</g>
		<polygon class="st14" points="194.6,82.6 194.8,82.8 198.3,86.2 203,88.3 209.9,60.9 208.4,34.2 195.1,26.3 170.6,44.4 
			168.6,50.3 173.2,61.6 191.6,38.1 197.6,39.6 200.1,58.3 		"/>
	</g>
</g>
</svg>
