<?xml version="1.0" encoding="utf-8"?>
<!-- Generator: Adobe Illustrator 19.1.0, SVG Export Plug-In . SVG Version: 6.00 Build 0)  -->
<svg version="1.1" id="Layer_1" xmlns="http://www.w3.org/2000/svg" xmlns:xlink="http://www.w3.org/1999/xlink" x="0px" y="0px"
	 viewBox="0 0 250 250" style="enable-background:new 0 0 250 250;" xml:space="preserve">
<style type="text/css">
	.st0{fill:#FFFFFF;}
	.st1{fill:#00C1F2;}
</style>
<g>
	<g>
		<path class="st0" d="M171.6,148.5c-2.7-9.1-9.7-16.3-18.7-19.2c-2.8-0.9-5.8-1.4-8.8-1.4l-2.3,0l-0.5-2c-0.2-0.7-0.8-1.1-1.5-1.1
			c-0.2,0-0.3,0-0.5,0.1c-0.7,0.2-1.1,0.8-1.1,1.5l0,1.8l-11.5,3.7l0.8,1l-1.7-0.6v2.2l-1.1-1.5l-1.3,1.7V133l-2.1,0.7l1.6-2.2
			l-12.5-4.1l0-1.8c0-0.7-0.5-1.3-1.1-1.5c-0.2-0.1-0.3-0.1-0.5-0.1c-0.7,0-1.3,0.5-1.5,1.1c0,0.1-0.1,0.2-0.1,0.4l-0.2,2.3l-2.3,0
			c-12.3,0.2-23.1,8.1-26.9,19.8l-0.9,2.7l-2.6-1.2c-5.6-2.7-10.2-6.9-13.2-12.4c-3.8-6.9-4.6-14.8-2.4-22.3
			c2.2-7.5,7.2-13.7,14-17.5c4.3-2.4,9.2-3.6,14.1-3.6c3,0,6.1,0.5,9,1.4c0.2-7.2,3-14,7.9-19.3c5.5-5.9,13.3-9.2,21.4-9.2
			c7.5,0,14.6,2.8,20.1,8c5.9,5.5,9.2,13.2,9.2,21.2c2.7-0.8,5.5-1.2,8.3-1.2c4.3,0,8.5,0.9,12.5,2.8c7.1,3.3,12.4,9.2,15.1,16.6
			c2.6,7.4,2.3,15.3-1.1,22.4c-2.9,6.2-7.9,11.2-14.2,14.1l-2.6,1.2L171.6,148.5z M133.6,119.7c0.2,0,0.3,0.1,0.5,0.1
			c0.5,0,1-0.2,1.3-0.7c0.3-0.4,0.4-0.8,0.3-1.2c-0.1-0.4-0.3-0.8-0.7-1.1c-0.4-0.3-0.7-0.3-1-0.3c-0.5,0-1,0.2-1.3,0.7
			c-0.4,0.6-0.4,1.3,0,1.9l0.3,0.5L133.6,119.7z M114.9,116c-0.2,0-0.6,0.1-1,0.3c-0.7,0.5-0.9,1.6-0.4,2.3c0.3,0.4,0.8,0.7,1.3,0.7
			c0.2,0,0.3,0,0.5-0.1l0.5-0.2l0.3-0.5c0.4-0.6,0.4-1.3,0-1.9C115.9,116.3,115.4,116,114.9,116z M124.6,113.2
			c-0.9,0-1.6,0.7-1.6,1.6c0,0.7,0.4,1.3,1.1,1.5l0.5,0.2l0.5-0.2c0.7-0.2,1.1-0.8,1.1-1.5C126.2,113.9,125.5,113.2,124.6,113.2z"/>
		<path class="st1" d="M125.1,68.7c6.6,0,13.2,2.4,18.4,7.3c6.5,6.1,9.3,14.8,8.2,23.1c3.5-1.6,7.2-2.4,11.1-2.4
			c3.8,0,7.7,0.8,11.4,2.6c13.4,6.3,19.1,22.3,12.8,35.7c-2.8,5.9-7.5,10.3-12.9,12.9c-2.8-9.5-10.2-17.5-20.3-20.8
			c-3.1-1-6.3-1.5-9.5-1.5c-0.1,0-0.2,0-0.3,0c0-0.1,0-0.1-0.1-0.2c-0.6-1.7-2.2-2.9-3.9-2.9c-0.4,0-0.9,0.1-1.3,0.2
			c-1.7,0.6-2.8,2.2-2.8,3.9l-7.8,2.5l5-6.9c0.4,0.1,0.8,0.2,1.2,0.2c1.3,0,2.5-0.6,3.3-1.7c1.3-1.8,0.9-4.4-0.9-5.8
			c-0.7-0.5-1.6-0.8-2.4-0.8c-1.3,0-2.5,0.6-3.3,1.7c-1.1,1.5-1,3.4,0,4.8l-4.8,6.6v-8.5c1.6-0.6,2.8-2.1,2.8-3.9
			c0-2.3-1.8-4.1-4.1-4.1c-2.3,0-4.1,1.8-4.1,4.1c0,1.8,1.2,3.4,2.8,3.9v8.2l-5-6.9c1-1.4,1-3.3,0-4.8c-0.8-1.1-2.1-1.7-3.3-1.7
			c-0.8,0-1.7,0.3-2.4,0.8c-1.8,1.3-2.3,3.9-0.9,5.8c0.8,1.1,2.1,1.7,3.4,1.7c0.4,0,0.8-0.1,1.2-0.2l4.8,6.6l-8.1-2.6
			c0-1.7-1.1-3.3-2.9-3.9c-0.4-0.1-0.9-0.2-1.3-0.2c-1.7,0-3.4,1.1-3.9,2.9c-0.1,0.3-0.2,0.7-0.2,1c-13,0.2-25,8.5-29.2,21.5
			c-4.9-2.3-9.2-6.2-12-11.3c-7.1-13-2.4-29.3,10.6-36.4c4.1-2.2,8.5-3.3,12.9-3.3c4,0,8,0.9,11.6,2.6c-0.8-7.5,1.5-15.4,7.1-21.3
			C110.8,71.5,118,68.7,125.1,68.7 M125.1,63.7L125.1,63.7c-8.7,0-17.2,3.7-23.2,10c-4.7,5-7.6,11.2-8.4,17.8
			c-2.2-0.5-4.5-0.7-6.7-0.7c-5.3,0-10.6,1.4-15.3,3.9c-7.4,4.1-12.9,10.8-15.2,19c-2.4,8.2-1.4,16.8,2.7,24.2
			c3.2,5.9,8.2,10.6,14.3,13.5l5.1,2.4l1.8-5.4c3.5-10.6,13.4-17.9,24.6-18l4.6-0.1l0-0.6l2,0.6l7.5,2.4l-4.1,5.6l6.1-2v6.1l3.8-5.2
			l3.6,4.9v-6.4l5.8,1.9l-3.2-4.5l6.5-2.1l2.7-0.9l0,0.2l3.9,0l0.3,0c2.8,0,5.4,0.4,8,1.3c8.2,2.7,14.6,9.2,17.1,17.5l1.7,5.5
			l5.2-2.4c6.7-3.1,12.2-8.6,15.4-15.3c3.6-7.7,4-16.3,1.2-24.3c-2.9-8-8.7-14.4-16.4-18c-4.3-2-8.8-3-13.5-3c-2,0-4,0.2-6,0.6
			c-0.8-7.5-4.2-14.6-9.8-19.9C141,66.7,133.2,63.7,125.1,63.7L125.1,63.7z"/>
	</g>
	<g>
		<path class="st0" d="M144,186c-3.1,0-6.1-0.5-9.1-1.4c-3.8-1.3-7.4-3.3-10.4-5.9c-5.3,4.7-12.3,7.4-19.4,7.4
			c-3.1,0-6.1-0.5-9.1-1.4C88.6,182.2,82.6,177,79,170c-3.6-7-4.2-14.9-1.8-22.4c3.9-12.1,15.1-20.3,27.9-20.3
			c3.1,0,6.1,0.5,9.1,1.4c3.8,1.3,7.4,3.3,10.4,5.9c5.3-4.7,12.3-7.4,19.5-7.4c3.1,0,6.1,0.5,9.1,1.4c15.4,5,23.8,21.6,18.8,36.9
			C168,177.9,156.8,186,144,186C144,186,144,186,144,186z"/>
		<path class="st1" d="M144,129.9c2.7,0,5.5,0.4,8.3,1.3c14.1,4.6,21.8,19.7,17.2,33.8c-3.7,11.3-14.2,18.5-25.5,18.5
			c-2.7,0-5.5-0.4-8.3-1.3c-4.4-1.4-8.2-3.9-11.2-7c-5,5.3-12.1,8.4-19.5,8.4c-2.7,0-5.5-0.4-8.3-1.3c-14.1-4.6-21.8-19.7-17.2-33.8
			c3.7-11.3,14.2-18.5,25.5-18.5c2.7,0,5.5,0.4,8.3,1.3c4.4,1.4,8.2,3.9,11.2,7C129.6,132.9,136.7,129.9,144,129.9 M144,124.9
			c-7,0-13.9,2.4-19.4,6.6c-2.9-2.2-6.1-3.9-9.6-5.1c-3.2-1-6.5-1.6-9.8-1.6c-13.8,0-26,8.8-30.3,22c-5.4,16.7,3.7,34.7,20.4,40.1
			c3.2,1,6.5,1.6,9.8,1.6c7,0,13.9-2.4,19.4-6.6c2.9,2.2,6.1,3.9,9.6,5.1c3.2,1,6.5,1.6,9.8,1.6c13.8,0,26-8.8,30.3-22
			c5.4-16.7-3.7-34.7-20.4-40.1C150.7,125.4,147.4,124.9,144,124.9L144,124.9z"/>
	</g>
</g>
</svg>
