<?xml version="1.0" encoding="utf-8"?>
<!-- Generator: Adobe Illustrator 19.1.0, SVG Export Plug-In . SVG Version: 6.00 Build 0)  -->
<svg version="1.1" id="Layer_1" xmlns="http://www.w3.org/2000/svg" xmlns:xlink="http://www.w3.org/1999/xlink" x="0px" y="0px"
	 viewBox="0 0 250 250" style="enable-background:new 0 0 250 250;" xml:space="preserve">
<style type="text/css">
	.st0{fill:#00BEE2;}
	.st1{fill:#CBEBFB;}
</style>
<g>
	<path class="st0" d="M132.5,247.4c-1.2-1.5-28-38-7-64.4l0.3-0.4c19.4-24.3,31.2-39,22.2-51.9c-3.9-5.7-8.4-8.6-13.3-8.6
		c-6.6,0-11.7,4.9-12.2,5.6c-3.3,4.5-3.2,8.9-2.1,11.4c-0.3-1.4-0.4-3-0.4-4.8v-0.5l0.2-0.4c0.1-0.4,3.7-9.7,13.4-9.7
		c4.9,0,9.1,1.8,11.8,5.1c2.1,2.5,4.3,7.2,2.7,15c-1.8,9.1-10.1,15.3-20.7,15.3c-5,0-9.9-1.4-14.2-4.1c-10.2-6.3-16.2-20.4-9.3-33.7
		l-0.8-0.8l2-1.8c0.3-0.2,0.5-0.4,0.7-0.7c1.1-1.5,2.3-3,3.7-4.5c0.4-0.7,0.8-1.5,1.1-2.2l0.3-0.8l0.7-0.4c0.5-0.3,1-0.6,1.5-0.9
		l-1.5,0.7l-0.2-3.6c-0.3-6-4.9-10.9-6.1-11.7c-2.3-1.5-4.8-2.3-7.2-2.3c-1.3,0-2.5,0.2-3.5,0.7c1.3-0.3,2.7-0.5,4.3-0.6l0.5,0
		l0.4,0.1c0.4,0.1,9.7,3.2,10.2,12.7c0.2,4.4-1.1,8.4-3.7,11.2c-2.7,2.9-6.7,4.4-11.4,4.4c-1.2,0-2.5-0.1-3.8-0.3
		c-5.9-0.9-10.8-4.6-13.7-10.2c-3.5-7.1-3.2-16.1,0.9-23.5c3.9-7.1,11.3-12,19.3-13c-1.4-7.1,0.2-14.3,4.4-19.4
		c2.9-3.6,6.8-5.8,11.2-6.4c1.1-0.2,2.1-0.2,3.1-0.2c1.3,0,2.6,0.1,3.8,0.4c-2.7-1.9-4.8-4.7-5.8-8c-0.9-3-1.4-7.9,1.8-13.6
		c3.1-5.7,8.7-8.9,15.2-8.9c4,0,7.7,1.3,9.5,3.5l0.1,0.1l0.1,0.1c2.5,3.4,5.2,9.5,2.7,14c0.7-0.2,2.1-0.4,3.9-0.4
		c4.1,0,10,1.3,15.3,7.3c5.7,6.5,9.6,19.7,5.9,32.4l-0.5,1.6l0,0l0,0l-0.1,0.4c2.4,3.1,4.2,6.8,5.4,11.1c4.9,17.3-1.4,26.6-7.6,31.4
		l-0.4,0.3l0.2,0.2l-0.6,0.4c3.1,4.3,4.9,9.2,5.4,14.1c2.2,25.4-10.8,42.1-31,59.4c-19.4,16.6-2.6,50.9-2.4,51.3L132.5,247.4z
		 M149.2,108.5c0.3,0.1,0.7,0.3,1,0.4l1.9-2.2c1.6-1.8,2.5-4,3-6c-0.2,0.7-0.6,1.4-0.9,2.1c-1.1,2.2-2.7,4-4.6,5.4L149.2,108.5z
		 M146.1,84.3c0.6,0.2,1.2,0.4,1.9,0.7c0.7,0.3,1.4,0.6,2,0.9l0.1,0.1c0.4,0.2,0.7,0.5,1.1,0.8c-0.8-0.7-1.7-1.3-2.6-1.7
		C147.8,84.6,147,84.4,146.1,84.3z M130.2,71.6c-1.9,3.1-4.9,4.7-6.6,5.4c0.6-0.1,1.2-0.2,1.8-0.3l3.5-0.9c0.2-0.2,0.3-0.3,0.5-0.5
		c0.9-1,1.9-1.8,2.8-2.6c-0.1,0-0.1-0.1-0.2-0.1C131.3,72.2,130.8,71.9,130.2,71.6z M125.3,50.6c0.7,0.5,1.4,1.1,2.1,1.8
		c0.3-0.5,0.6-0.9,1-1.4C127.3,51,126.3,50.9,125.3,50.6z"/>
	<path class="st1" d="M130.9,20.2c3.4,0,6.3,1.1,7.6,2.6c0,0,6.5,9,1,13.1c0,0-3,1.3-5.9,1.3c-2.7,0-5.2-1.2-4.7-5.8
		c0,0-3.7,0.9-2,5c1,2.4,4.4,3.2,7.9,3.2c3.8,0,7.7-0.9,8.7-1.7c0,0,1.4-0.4,3.6-0.4c3.4,0,8.7,1.1,13.5,6.5
		c5.2,5.9,8.8,18.4,5.4,30c-1.4-1.3-4.2-3.5-8.3-4.9c1.2-5.8,1.5-13.7-4.1-18.1c0,0-3.5-6.1-9.7-6.1c-0.4,0-0.9,0-1.4,0.1
		c-7,1-6.5,1-9.6,2.5c-1.4,0.7-2.9,1.1-4.5,1.1c-1.8,0-3.7-0.5-6-1.7c-5-2.5-9.5-10-4.5-19.1C121.1,22.2,126.4,20.2,130.9,20.2
		 M140.9,47.4c4.2,0,8.7,2.1,12.1,7.5c2.6,4.1,2.9,8.9,1.8,13.3c-1.8-0.4-3.8-0.6-6-0.6c-0.4,0-0.8,0-1.2,0c0.9-3.3-1.2-6.3-1.9-7.1
		c-1.3-1.4-1.9-2-2.2-2c-0.6,0,1.1,3.7,0.4,6.9c-0.2,1-0.6,1.9-1,2.7c-2.7,0.5-5.6,1.3-8.7,2.5c-0.4-0.1-0.8-0.3-1.2-0.4
		c-1.5-0.6-2.7-1.6-3.7-2.9c-1.4,6.3-7.8,7.7-7.8,7.7c-0.3,0-0.5,0-0.8,0c-10.6-0.3-9.6-6.5-9.3-7.6c-0.9,2.6-0.6,4.9,0.5,6.9
		c1.8,3.3,5.8,5.3,10.3,5.3c1.2,0,2.5-0.2,3.8-0.5c-0.5,0.7-0.9,1.3-1.3,2c-1.4,2.4-2.4,5-2.9,7.6c-0.3,1.3-0.4,2.5-0.4,3.8
		c-8.4-0.4-15.6-5.6-19-11.9c-0.8-1.4-1.4-2.9-1.8-4.3c-2.3-7.3-1-15.1,3.1-20.2c2.4-2.9,5.6-5,9.6-5.6c1-0.1,1.9-0.2,2.7-0.2
		c5.9,0,9.8,3,11.8,7.1c0.6-2,1.7-4,3.2-5.7C133.4,49.2,137,47.4,140.9,47.4 M148.3,69.8c1.9,0,3.8,0.2,5.8,0.7c1,0.3,2.1,0.6,3.1,1
		c0.7,0.3,1.4,0.6,2.1,1c1.2,0.6,2.3,1.4,3.5,2.3c0.8,0.6,1.6,1.3,2.3,2c0,0.1-0.1,0.1-0.1,0.2c2.5,2.8,4.6,6.6,5.9,11.3
		c3.7,12.9,1.1,22.6-6.7,28.7c-0.5-0.8-1.1-1.6-1.9-2.5c-1.9-2.2-4.5-4.4-8.3-6.2c6-6.7,3.7-16.5,2.7-18.5c-1.8-3.5-4.3-6-7.1-7.2
		c-1.5-0.7-3-1-4.4-1c-1.1,0-2.2,0.2-3.2,0.7c-0.6,0.7-1.2,1.4-1.9,2.1c-0.1,0.1-0.2,0.2-0.4,0.3c0,0-0.1,0-0.1,0
		c-0.2,0-0.4,0-0.6,0c-0.3,0.4-0.5,0.8-0.7,1.2c0,0.1-0.1,0.2-0.1,0.3c-0.3,0.7-0.6,1.5-0.8,2.4c0,0,0.9-2.8,4.7-2.8
		c1.3,0,2.9,0.3,5,1.2c0.6,0.2,1.2,0.5,1.8,0.9c0,0,7.8,4.6,3.1,13.6c-1,1.9-2.3,3.4-3.9,4.5c-1.3-0.4-2.7-0.7-4.2-0.9c0,0,0,0,0,0
		c-3.6-0.6-8.6-1.5-13.9-1.6c-2.9-2.6-4.5-5.9-5-9.5c-0.1-0.6-0.1-1.2-0.2-1.8c-0.1-4.5,1.5-9.2,4.4-13.2c0.6-0.8,1.2-1.5,1.8-2.2
		c1.5-1.6,3.2-3,5.1-4.2c1-0.6,2-1.1,3.1-1.5c2.2-0.7,4.5-1.2,7-1.4C147,69.8,147.6,69.8,148.3,69.8 M97.7,76.4
		c0.5,2.2,1.3,4.4,2.4,6.4c3.6,6.5,11.2,11.9,20,11.9c0.5,0,1,0,1.4,0c0.5,3.4,2,6.4,4.9,8.8c0.1,0,0.1,0.1,0.2,0.1c0,0,0,0.1,0,0.1
		c-4.3,0.1-8.7,0.9-12.8,2.7c-0.3-7.1-5.7-12.7-7.2-13.7c-2.9-1.9-5.9-2.8-8.6-2.8c-6.4,0-11.1,4.7-8.7,11.6c0,0-1.3-5.9,9.5-6.4
		c0,0,8,2.5,8.4,10.4c0.4,7-3.7,12.9-12.7,12.9c-1.1,0-2.2-0.1-3.5-0.3c-12.4-1.8-17.8-17.6-10.9-30C83.4,82.3,90,77.3,97.7,76.4
		 M132.3,107.9c1.5,0,3,0.1,4.6,0.2c3.5,0.3,7.1,1.1,10.6,2.4c0.9,0.3,1.7,0.7,2.5,1.1c3.2,1.5,6.2,3.3,8.7,5.3
		c0.2,0.1,0.3,0.3,0.5,0.4c0.7,0.6,1.4,1.2,2,1.8c-0.1,0-0.2,0.1-0.3,0.1c3.7,4.3,6.2,9.4,6.6,15.1c2,23.1-9,39.2-30.1,57.3
		c-21.1,18.1-3,54.3-3,54.3s-27.1-36.2-7-61.3c20.1-25.1,32.7-40.7,22.6-55.3c-5-7.3-10.5-9.6-15.4-9.6c-7.2,0-13.1,5.1-14.2,6.6
		c-6.3,8.5-3,18.6,4.9,18.6c1,0,2-0.2,3.1-0.5c0,0-0.1,0-0.4,0c-1.3,0-5.6-0.7-5.6-10.1c0,0,3-8,11.1-8c8,0,14.4,5.6,12.1,17.1
		c-1.7,8.4-9.5,13.3-18.3,13.3c-4.3,0-8.8-1.2-12.9-3.7c-9-5.6-15.4-19.1-7.5-32l-0.3-0.3c0.4-0.3,0.7-0.6,1-0.9
		c1-1.5,2.3-3,3.8-4.5c0.6-0.9,1.1-1.9,1.4-2.8c1.3-0.8,3.2-1.8,5.9-2.7c2.1-0.7,4.7-1.2,7.8-1.6C128.3,108,130.2,107.9,132.3,107.9
		 M130.9,15.2c-7.3,0-13.8,3.8-17.3,10.2c-3.6,6.5-3.1,12.1-2,15.6c0.5,1.6,1.2,3.1,2.1,4.5c-0.4,0-0.7,0.1-1.1,0.1
		c-5.1,0.7-9.5,3.3-12.8,7.3c-4.1,5.1-6,12-5.3,18.9c-7.8,1.7-14.8,6.9-18.7,13.9c-4.5,8.1-4.8,18-0.9,25.8
		c3.2,6.4,8.8,10.6,15.5,11.6c1.4,0.2,2.8,0.3,4.2,0.3c2.2,0,4.1-0.3,5.8-0.8c-2.4,5.9-2.7,12.4-0.9,18.5c2,6.6,6.5,12.5,12.2,16
		c4.7,2.9,10.1,4.5,15.5,4.5c5.5,0,10.4-1.5,14.4-4.2c-4.2,6.5-10.3,14.2-17.8,23.6l-0.3,0.4c-9.3,11.7-11,27.2-4.8,44.9
		c4.5,12.8,11.5,22.2,11.8,22.6l8.5-5.2c-0.2-0.3-16.1-32.9,1.8-48.2c11.9-10.2,19.8-19.1,24.8-28.1c5.8-10.3,8.1-21.2,7-33.4
		c-0.4-4.5-1.9-9-4.3-13l1.2-0.7l-0.6-0.6c6.1-5.6,11.5-15.6,6.7-32.6c-1.1-4.1-2.8-7.7-5-10.7l0.3-0.6l-0.2-0.2l0.1-0.2
		c3.9-13.5-0.3-27.7-6.5-34.7c-4.6-5.3-10.8-8.2-17.2-8.2c-0.2,0-0.3,0-0.5,0c0.4-4.2-1.4-8.8-4.1-12.6l-0.1-0.2l-0.1-0.2
		C140,16.8,135.7,15.2,130.9,15.2L130.9,15.2z"/>
</g>
</svg>
