<?xml version="1.0" encoding="utf-8"?>
<!-- Generator: Adobe Illustrator 19.1.0, SVG Export Plug-In . SVG Version: 6.00 Build 0)  -->
<svg version="1.1" id="Layer_1" xmlns="http://www.w3.org/2000/svg" xmlns:xlink="http://www.w3.org/1999/xlink" x="0px" y="0px"
	 viewBox="0 0 250 250" style="enable-background:new 0 0 250 250;" xml:space="preserve">
<style type="text/css">
	.st0{fill:url(#SVGID_1_);}
	.st1{fill:#0097D8;}
	.st2{fill:#F2F3F3;}
</style>
<g>
	<g>
		<linearGradient id="SVGID_1_" gradientUnits="userSpaceOnUse" x1="18.8672" y1="126.1208" x2="230.7715" y2="126.1208">
			<stop  offset="0.1094" style="stop-color:#0065AD"/>
			<stop  offset="0.2201" style="stop-color:#0065AD"/>
		</linearGradient>
		<path class="st0" d="M166.5,161.4c-4.7,0-5.2-2.1-5.2-6.5c0-14.4-14.5-36.1-36.5-36.1s-36.5,21.7-36.5,36.1c0,4.4-0.5,6.5-5.2,6.5
			H18.9v-7.1l1.3-0.1c0,0,2.8-0.3,7.2-1.3V150l-0.5-2l0.5-0.1v-5h4.7v3.6c2.4-0.8,4.8-1.6,7.1-2.5v-5.8H44v3.7
			c2.5-1.2,4.8-2.4,7.1-3.8v-5.6h4.7v2.6c2.5-1.8,4.9-3.7,7.1-5.7v-5.3h4.7v0.7c2.4-2.3,4.8-4.6,7.1-6.6v-5h4.7v1.1
			c2.4-1.9,4.8-3.6,7.1-5.2v-5.8h4.7v2.8c2.4-1.4,4.8-2.7,7.1-3.7v-5.9h4.7v3.9c2.4-0.9,4.8-1.6,7.1-2.2v-5.9h4.7v4.9
			c2.3-0.4,4.7-0.6,7.1-0.7v-5.6h4.7v5.3c2.4,0.1,4.8,0.3,7.1,0.7v-4.6h4.7v5.5c2.4,0.6,4.8,1.3,7.1,2.2v-3.5h4.7v5.5
			c2.4,1.1,4.8,2.3,7.1,3.7v-2.4h4.7v5.4c2.4,1.6,4.8,3.3,7.1,5.2v-0.7h4.7v4.7c2.3,2,4.7,4.2,7.1,6.6v-0.3h4.7v4.9
			c2.2,2,4.6,3.9,7.1,5.7v-2.2h4.7v5.3c2.3,1.4,4.7,2.6,7.1,3.8v-3.4h4.7v5.5c2.3,0.9,4.7,1.8,7.1,2.5v-3.8h4.7v10.5
			c4.4,1,7.2,1.3,7.2,1.3l1.3,0.1l0,7.1H166.5z M210.3,149.2c2.4,0.9,4.8,1.7,7.1,2.4v-0.5c-2.4-0.7-4.8-1.5-7.1-2.4V149.2z
			 M32.2,151.6c2.4-0.7,4.8-1.5,7.1-2.4V149c-2.3,0.9-4.7,1.7-7.1,2.4V151.6z M198.4,143.7c2.3,1.3,4.7,2.5,7.1,3.5v-0.5
			c-2.4-1.1-4.8-2.3-7.1-3.6V143.7z M44,147.2c2.4-1.1,4.8-2.3,7.1-3.5v-0.2c-2.3,1.3-4.7,2.5-7.1,3.6V147.2z M186.6,135.8
			c2.3,1.8,4.6,3.5,7.1,5.1v-0.6c-2.5-1.6-4.9-3.3-7.1-5.2V135.8z M55.9,140.9c2.5-1.6,4.9-3.3,7.1-5.1v-0.3
			c-2.3,1.8-4.7,3.6-7.1,5.2V140.9z M67.8,131.7c0.6-0.5,1.1-1,1.6-1.6c1.8-1.8,3.7-3.6,5.5-5.3v-0.3c-1.9,1.8-3.9,3.6-5.9,5.6
			c-0.4,0.4-0.9,0.8-1.3,1.2V131.7z M174.7,124.8c1.8,1.7,3.7,3.5,5.5,5.3c0.5,0.5,1.1,1.1,1.6,1.6V131c-0.4-0.4-0.9-0.8-1.3-1.2
			c-2-2-3.9-3.8-5.9-5.6V124.8z M162.8,115c2.3,1.7,4.7,3.6,7.1,5.6V120c-2.4-2-4.8-3.9-7.1-5.6V115z M79.7,120.6
			c2.4-2,4.8-3.9,7.1-5.6v-0.2c-2.3,1.7-4.7,3.6-7.1,5.6V120.6z M91.6,111.8c2.4-1.5,4.8-2.9,7.1-4.1v-0.2c-2.4,1.2-4.8,2.5-7.1,4
			V111.8z M150.9,107.7c2.4,1.2,4.7,2.5,7.1,4.1v-0.5c-2.4-1.5-4.8-2.9-7.1-4V107.7z M139.1,103.1c2.4,0.6,4.8,1.4,7.1,2.4v-0.5
			c-2.4-1-4.8-1.8-7.1-2.4V103.1z M103.4,105.5c2.4-1,4.8-1.8,7.1-2.4V103c-2.4,0.6-4.8,1.4-7.1,2.4V105.5z M115.3,102.1
			c2.3-0.4,4.7-0.7,7.1-0.8v-0.1c-2.4,0.1-4.8,0.4-7.1,0.8V102.1z M127.2,101.3c2.4,0.1,4.8,0.4,7.1,0.8v-0.5
			c-2.3-0.4-4.7-0.7-7.1-0.8V101.3z"/>
		<path class="st1" d="M125.7,92.4v5.2c3.4,0,6.8,0.4,10.1,1v-4.9h1.7V99c3.4,0.8,6.8,1.8,10.1,3.2v-4.2h1.7v5
			c3.4,1.5,6.7,3.3,10.1,5.4v-3.6h1.7v4.7c3.3,2.2,6.7,4.7,10.1,7.6v-2.4h1.7v3.9c3.2,2.7,6.4,5.7,9.6,9c0.2,0.2,0.3,0.3,0.5,0.5
			v-2.4h1.7v4.1c3.3,3,6.7,5.6,10.1,7.8v-3.5h1.7v4.6c3.4,2.1,6.8,3.8,10.1,5.3v-4.2h1.7v5c3.6,1.5,7.1,2.7,10.1,3.6v-4.3h1.7V154
			c5.2,1.3,8.6,1.6,8.6,1.6v4.2c0,0-59.5,0-62.8,0c-3.2,0-3.7-0.6-3.7-5c0-16.1-16.1-37.6-38-37.6c-21.9,0-38,21.6-38,37.6
			c0,4.4-0.5,5-3.7,5c-3.2,0-62.8,0-62.8,0v-4.2c0,0,3.3-0.3,8.6-1.6v-4.3l-0.2-0.7l0.2-0.1v-4.6h1.7v4.2c3.1-0.9,6.5-2,10.1-3.6
			v-5.3h1.7v4.6c3.3-1.5,6.7-3.2,10.1-5.3v-5h1.7v3.9c3.4-2.2,6.9-4.8,10.1-7.8v-4.4h1.7v2.8c0.2-0.2,0.3-0.3,0.5-0.5
			c3.3-3.3,6.5-6.3,9.6-9v-4.2h1.7v2.8c3.4-2.9,6.8-5.4,10.1-7.6v-5.1h1.7v4c3.4-2.1,6.8-4,10.1-5.4v-5.3h1.7v4.6
			c3.4-1.4,6.8-2.4,10.1-3.2v-5.6h1.7V99c3.4-0.6,6.7-1,10.1-1v-5.6H125.7 M135.8,103.9v-3.5c-3.4-0.7-6.7-1-10.1-1.1v3.5
			C129.1,102.8,132.5,103.2,135.8,103.9 M113.8,103.9c3.4-0.7,6.7-1.1,10.1-1.1v-3.1c-3.4,0-6.8,0.4-10.1,1.1V103.9 M147.7,107.8
			V104c-3.4-1.4-6.8-2.5-10.1-3.3v3.6C140.9,105.1,144.3,106.3,147.7,107.8 M101.9,107.8c3.4-1.5,6.8-2.7,10.1-3.5v-3.2
			c-3.4,0.8-6.8,1.9-10.1,3.3V107.8 M159.6,114.6v-4.2c-3.4-2.2-6.8-4.1-10.1-5.6v3.8C152.8,110.2,156.1,112.2,159.6,114.6
			 M90.1,114.6c3.4-2.3,6.8-4.3,10.1-5.9v-3.5c-3.4,1.5-6.7,3.4-10.1,5.6V114.6 M171.5,123.9v-4.6c-3.4-2.9-6.8-5.5-10.1-7.8v4.2
			C164.6,118.1,168,120.8,171.5,123.9 M78.2,123.9c3.5-3.1,6.8-5.8,10.1-8.1v-3.9c-3.3,2.3-6.7,4.8-10.1,7.8V123.9 M183.3,135v-4.7
			c-0.6-0.5-1.2-1.1-1.7-1.7c-2.9-2.9-5.7-5.5-8.4-7.9v4.6c2,1.8,3.9,3.7,6,5.7C180.5,132.5,181.9,133.8,183.3,135 M66.3,135
			c1.4-1.2,2.8-2.5,4.2-3.9c2-2,4-3.9,6-5.7v-4.3c-2.8,2.4-5.6,5-8.4,7.9c-0.6,0.6-1.2,1.1-1.7,1.7V135 M195.2,143.6v-4.1
			c-3.4-2.2-6.8-4.7-10.1-7.6v4.6C188.4,139.2,191.8,141.6,195.2,143.6 M54.4,143.6c3.4-2,6.8-4.4,10.1-7.1v-4.2
			c-3.3,2.9-6.7,5.4-10.1,7.6V143.6 M207.1,149.5v-3.8c-3.3-1.4-6.7-3.1-10.1-5.2v4C200.4,146.5,203.8,148.2,207.1,149.5
			 M42.5,149.5c3.2-1.3,6.7-3,10.1-4.9v-3.7c-3.4,2-6.9,3.7-10.1,5.2V149.5 M219,153.6v-3.6c-3.1-0.9-6.5-2-10.1-3.5v3.8
			C212.6,151.7,216,152.8,219,153.6 M30.7,153.6c3-0.8,6.4-1.9,10.1-3.3v-3.4c-3.6,1.5-7.1,2.6-10.1,3.5V153.6 M128.7,89.4h-3H124
			h-3v3v2.7c-1.4,0.1-2.8,0.2-4.1,0.4v-1.7v-3h-3h-1.7h-3v3V97c-1.4,0.4-2.8,0.8-4.1,1.2v-0.3v-3h-3h-1.7h-3v3v3.4
			c-1.4,0.7-2.8,1.4-4.1,2.1v-1.7h-3h-1.7h-3v3v3.5c-1.6,1.1-3.2,2.2-4.7,3.4h-2.4h-1.7h-3v3v2.8c-1.8,1.6-3.7,3.3-5.5,5.1h-1.6
			h-1.7h-3v3v3.1c-1.3,1.2-2.7,2.3-4.1,3.4v-1.1h-3h-1.7h-3v3v3.3c-1.4,0.8-2.7,1.5-4.1,2.3v-2.8h-3h-1.7h-3v3v3.3
			c-1.4,0.5-2.7,1-4.1,1.5v-0.1v-3h-3h-1.7h-3v3v2.4l-0.9,0.2l0.8,2.9l0.1,0.3v1.5c-3.6,0.8-5.9,1-5.9,1l-2.7,0.3l0,2.7v4.2v3h3
			h62.8c6.2,0,6.7-3.6,6.7-8c0-7.3,3.8-16.1,10-22.8c7-7.6,15.8-11.8,25-11.8c9.2,0,18,4.2,25,11.8c6.2,6.7,10,15.5,10,22.8
			c0,4.4,0.5,8,6.7,8h62.8h3v-3v-4.2v-2.7l-2.7-0.3c0,0-2.3-0.2-5.9-1v-7.8v-3h-3H219h-3v3v0.2c-1.4-0.5-2.8-1-4.1-1.5v-2.9v-3h-3
			h-1.7h-3v2.5c-1.4-0.7-2.8-1.5-4.1-2.3v-2.9v-3h-3h-1.7h-3v0.8c-1.4-1.1-2.8-2.2-4.1-3.4v-2.7v-3h-3h-1.7h-1.2
			c-2-1.9-4-3.7-5.9-5.4v-2.5v-3h-3h-1.7h-1.9c-1.7-1.3-3.5-2.6-5.2-3.8v-3.1v-3h-3h-1.7h-3v1.3c-1.4-0.8-2.8-1.5-4.1-2.1v-3v-3h-3
			h-1.7h-3v2.9c-1.4-0.5-2.8-0.9-4.1-1.2v-2.9v-3h-3h-1.7h-3v3v1.3c-1.4-0.2-2.8-0.3-4.1-0.4v-2.3V89.4L128.7,89.4z"/>
	</g>
	<path class="st2" d="M84.1,135.5c7.4,0.7,2.7,5-4.3,11.4c-6.3,7-10.7,11.7-11.4,4.3c0.1-7.3,2.1-14.3,1.7-13.9
		C69.8,137.7,76.8,135.6,84.1,135.5z"/>
	<path class="st2" d="M97.1,118.4c5.5,0.5,2,3.8-3.2,8.5c-4.7,5.2-8,8.8-8.5,3.2c0-5.5,1.6-10.7,1.3-10.4
		C86.4,120,91.6,118.5,97.1,118.4z"/>
	<path class="st2" d="M164.3,130.2c-0.5,5.5-3.8,2-8.5-3.2c-5.2-4.7-8.8-8-3.2-8.5c5.5,0,10.7,1.6,10.4,1.3
		C162.7,119.4,164.2,124.7,164.3,130.2z"/>
	<path class="st2" d="M115.1,111.3c3.7,2.2,0.2,3.3-5.1,4.9c-5.1,2.1-8.5,3.6-7-0.5c1.8-3.8,4.7-7,4.4-6.9
		C107,108.9,111.2,109.5,115.1,111.3z"/>
	<path class="st2" d="M146.7,115.5c1.7,4-1.9,2.7-7,0.9c-5.3-1.3-8.9-2.3-5.3-4.7c3.8-2,7.9-2.8,7.6-2.9
		C141.7,108.8,144.7,111.8,146.7,115.5z"/>
	<path class="st2" d="M119.7,108.4c-2.2-2.6,0.8-2.5,5.1-2.3c4.3-0.2,7.3-0.4,5.1,2.3c-2.4,2.4-5.3,4-5.1,4
		C125.1,112.3,122.1,110.7,119.7,108.4z"/>
	<path class="st2" d="M182,151.2c-0.7,7.4-5,2.7-11.4-4.3c-7-6.3-11.7-10.7-4.3-11.4c7.3,0.1,14.3,2.1,13.9,1.7
		C179.8,136.9,181.9,143.9,182,151.2z"/>
</g>
</svg>
