<?xml version="1.0" encoding="utf-8"?>
<!-- Generator: Adobe Illustrator 19.1.0, SVG Export Plug-In . SVG Version: 6.00 Build 0)  -->
<svg version="1.1" id="Layer_1" xmlns="http://www.w3.org/2000/svg" xmlns:xlink="http://www.w3.org/1999/xlink" x="0px" y="0px"
	 viewBox="0 0 250 250" style="enable-background:new 0 0 250 250;" xml:space="preserve">
<style type="text/css">
	.st0{fill:#FFFFFF;}
	.st1{fill:#231F20;}
	.st2{fill:url(#SVGID_1_);}
	.st3{fill:url(#SVGID_2_);}
	.st4{fill:url(#SVGID_3_);}
	.st5{fill:url(#SVGID_4_);}
	.st6{fill:url(#SVGID_5_);}
	.st7{fill:url(#SVGID_6_);}
	.st8{fill:url(#SVGID_7_);}
	.st9{fill:url(#SVGID_8_);}
	.st10{fill:url(#SVGID_9_);}
	.st11{fill:url(#SVGID_10_);}
	.st12{fill:url(#SVGID_11_);}
	.st13{fill:url(#SVGID_12_);}
</style>
<g>
	<g>
		<path class="st0" d="M80.9,234.3l18.7-11.8l4.9-14.2l-1.4,0.2l-54.1-42.1l20-46.7l-29.5-8.2L84.5,94v64.1l19.6-0.2l64.3-126.2
			l25.8,24.4l21.6,22.6V167l-45.4,33.2l-39.4,4.2l7,29.8H80.9z M112,231.9l7-8.1l-1.4-3.6L112,231.9z"/>
		<path class="st1" d="M169.2,36.6l22.9,21.6l20.7,21.6v38.9v46.7l-43.6,31.8l-40.2,4.3l-1.8,0.3l6.9,29.4h-17.6l5.9-6.8l-4.4-11.9
			l-9.1,18.7H91.3l10.8-6.8l6.9-19.9l-5,0.7l-51.3-39.9l20.4-47.7L49,111.1l32.4-12.7V120v41.1l24.4-0.3L169.2,36.6 M167.5,26.7
			l-3.6,7.1l-61.7,121L87.5,155v-35V98.4v-8.8l-8.2,3.2l-32.4,12.7L30,112l17.4,4.8l17.5,4.8l-17.7,41.4l-1.8,4.3l3.7,2.8l51.3,39.9
			l0.4,0.3l-3.5,10.2l-9,5.7l-17.6,11.1h20.8H109h3.8h3.8h17.6h7.6l-1.7-7.4l-5.3-22.9l35.2-3.8l1.6-0.2l1.3-0.9l43.6-31.8l2.5-1.8
			v-3v-46.7V79.9v-2.4l-1.7-1.7l-20.7-21.6l-0.1-0.1l-0.1-0.1l-22.9-21.6L167.5,26.7L167.5,26.7z"/>
	</g>
	<linearGradient id="SVGID_1_" gradientUnits="userSpaceOnUse" x1="91.3408" y1="211.7861" x2="125.9663" y2="211.7861">
		<stop  offset="0.3156" style="stop-color:#FFD700"/>
		<stop  offset="1" style="stop-color:#F68F1E"/>
	</linearGradient>
	<polygon class="st2" points="113.3,192.3 102.2,224.5 91.3,231.3 109,231.3 126,196.2 	"/>
	
		<linearGradient id="SVGID_2_" gradientUnits="userSpaceOnUse" x1="675.8455" y1="211.7861" x2="710.471" y2="211.7861" gradientTransform="matrix(1 0 0.7185 1 -725.4875 0)">
		<stop  offset="0.3156" style="stop-color:#FFD700"/>
		<stop  offset="1" style="stop-color:#F68F1E"/>
	</linearGradient>
	<polygon class="st3" points="110.5,192.3 122.5,224.5 116.5,231.3 134.1,231.3 126,196.2 	"/>
	<linearGradient id="SVGID_3_" gradientUnits="userSpaceOnUse" x1="49.0136" y1="109.2122" x2="81.4542" y2="109.2122">
		<stop  offset="0.3156" style="stop-color:#FFD700"/>
		<stop  offset="1" style="stop-color:#F68F1E"/>
	</linearGradient>
	<polygon class="st4" points="49,111.1 81.5,98.4 81.5,120 	"/>
	<linearGradient id="SVGID_4_" gradientUnits="userSpaceOnUse" x1="52.7211" y1="131.9206" x2="81.4542" y2="131.9206">
		<stop  offset="0.3156" style="stop-color:#FFD700"/>
		<stop  offset="1" style="stop-color:#F68F1E"/>
	</linearGradient>
	<polygon class="st5" points="52.7,165.4 81.5,98.4 81.5,161.1 	"/>
	<linearGradient id="SVGID_5_" gradientUnits="userSpaceOnUse" x1="52.7211" y1="183.053" x2="105.8618" y2="183.053">
		<stop  offset="0.3156" style="stop-color:#FFD700"/>
		<stop  offset="1" style="stop-color:#F68F1E"/>
	</linearGradient>
	<polygon class="st6" points="52.7,165.4 104,205.3 105.9,160.8 81.5,161.1 	"/>
	<linearGradient id="SVGID_6_" gradientUnits="userSpaceOnUse" x1="104.008" y1="183.053" x2="129.0336" y2="183.053">
		<stop  offset="0.3156" style="stop-color:#FFD700"/>
		<stop  offset="1" style="stop-color:#F68F1E"/>
	</linearGradient>
	<polygon class="st7" points="105.9,160.8 129,201.6 104,205.3 	"/>
	<linearGradient id="SVGID_7_" gradientUnits="userSpaceOnUse" x1="105.8618" y1="181.1993" x2="169.198" y2="181.1993">
		<stop  offset="0" style="stop-color:#F68F1E"/>
		<stop  offset="0.6844" style="stop-color:#FFD700"/>
	</linearGradient>
	<polygon class="st8" points="169.2,197.3 129,201.6 105.9,160.8 	"/>
	<linearGradient id="SVGID_8_" gradientUnits="userSpaceOnUse" x1="105.8618" y1="179.0366" x2="212.761" y2="179.0366">
		<stop  offset="0.3156" style="stop-color:#FFD700"/>
		<stop  offset="1" style="stop-color:#F68F1E"/>
	</linearGradient>
	<polygon class="st9" points="169.2,197.3 212.8,165.4 105.9,160.8 	"/>
	<linearGradient id="SVGID_9_" gradientUnits="userSpaceOnUse" x1="105.8618" y1="142.1162" x2="212.761" y2="142.1162">
		<stop  offset="0" style="stop-color:#F68F1E"/>
		<stop  offset="0.6844" style="stop-color:#FFD700"/>
	</linearGradient>
	<polygon class="st10" points="212.8,118.8 212.8,165.4 105.9,160.8 	"/>
	<linearGradient id="SVGID_10_" gradientUnits="userSpaceOnUse" x1="105.8618" y1="120.3347" x2="212.761" y2="120.3347">
		<stop  offset="0.3156" style="stop-color:#FFD700"/>
		<stop  offset="1" style="stop-color:#F68F1E"/>
	</linearGradient>
	<polygon class="st11" points="212.8,118.8 212.8,79.9 105.9,160.8 	"/>
	<linearGradient id="SVGID_11_" gradientUnits="userSpaceOnUse" x1="105.8618" y1="109.5212" x2="212.761" y2="109.5212">
		<stop  offset="0" style="stop-color:#F68F1E"/>
		<stop  offset="0.6844" style="stop-color:#FFD700"/>
	</linearGradient>
	<polygon class="st12" points="192.1,58.2 212.8,79.9 105.9,160.8 	"/>
	<linearGradient id="SVGID_12_" gradientUnits="userSpaceOnUse" x1="105.8618" y1="98.7077" x2="192.0609" y2="98.7077">
		<stop  offset="0.3156" style="stop-color:#FFD700"/>
		<stop  offset="1" style="stop-color:#F68F1E"/>
	</linearGradient>
	<polygon class="st13" points="192.1,58.2 169.2,36.6 105.9,160.8 	"/>
</g>
</svg>
