<?xml version="1.0" encoding="utf-8"?>
<!-- Generator: Adobe Illustrator 19.1.0, SVG Export Plug-In . SVG Version: 6.00 Build 0)  -->
<svg version="1.1" id="Layer_1" xmlns="http://www.w3.org/2000/svg" xmlns:xlink="http://www.w3.org/1999/xlink" x="0px" y="0px"
	 viewBox="0 0 250 250" style="enable-background:new 0 0 250 250;" xml:space="preserve">
<style type="text/css">
	.st0{fill:#F89C1C;}
	.st1{fill:#231F20;}
	.st2{fill:#FFCF46;}
</style>
<g>
	<g>
		<g>
			<path class="st0" d="M115.4,225.8c-4.5-14.1-4.3-26.7,0.4-37.3c-27-29.6-38.7-60.8-34.8-92.8c-3.9,1.8-7.7,2.7-11.5,2.7
				c-3.9,0-7.8-1-11.6-3l-2.3-1.2l1.3-2.2c8.8-15.2,19-23.3,30.5-24c1.5-5.9,3.5-11.3,5.8-16.1c1.1-2.2,2.2-4.2,3.3-6.2
				c-0.3,0.3-0.7,0.6-0.9,1c-0.9,1-1.5,2-1.9,3.3c-0.5,1.5-1.1,2.7-1.8,3.6c-0.8,1-1.8,1.7-2.9,2.1c-0.4,0.1-0.8,0.2-1.2,0.2
				c0,0-0.1,0-0.1,0c-0.2,0-0.4,0-0.6,0c-1.3,0-2.7-0.4-4.1-1.2l-0.1,0l-0.1-0.1c-0.5-0.3-0.9-0.7-1.2-1.3l-0.1-0.2l-0.5-1l0-0.2
				l-0.2-0.3l0-0.5c0-0.9,0.2-1.7,0.7-2.3c0.5-0.7,1.3-1.1,2.2-1.1c0.3,0,0.9,0.1,1.4,0.4c0.4,0.2,0.6,0.2,0.7,0.2c0,0,0,0,0,0
				c0,0,0.2-0.2,0.5-0.8c0,0,0.1-0.2,0.1-0.5l0-0.2l0.1-0.2l0-0.2l0-0.2c1.3-4.8,4.2-8.8,8.7-11.7c1.2-0.9,2.6-1.7,4.2-2.5
				c2.6-1.3,5.9-2.6,9.7-3.6c0.2-0.1,0.3-0.1,0.5-0.2c2.4-2.1,4.9-3.8,7.4-5c3.6-1.6,7.4-2.4,11.3-2.4c5.4,0,11.3,1.5,17.4,4.4
				c11.1,5.2,16.6,14,16.4,26c1.8,3.2,3.1,6.1,4.1,8.8c0.6,1.5,1.1,3.1,1.4,4.6c1.1,5.2,0.5,10-1.9,14.4c-0.1,0.3-0.2,0.5-0.4,0.7
				c-0.1,0.2-0.1,0.3-0.2,0.4l0,0.1l-0.1,0.1c-0.2,0.5-0.2,0.8-0.2,0.8c0,0,0,0,0,0c0,0,0.2,0.2,0.8,0.4c1.1,0.4,1.9,1.3,2,2.3
				l0.1,0.6l-0.2,0.6c-0.2,0.7-0.7,1.3-1.3,1.7c-0.1,0.1-0.3,0.2-0.5,0.4l-0.5,0.4l-0.4,0.1l-0.2,0.1c-0.4,0.1-0.8,0.2-1.2,0.2
				c-0.4,0-0.7-0.1-1.1-0.2c-1.8-0.5-3.3-1.3-4.3-2.4l-0.1-0.1l-0.6-0.8l-0.1-0.1c-0.6-1.1-0.8-2.3-0.7-3.6c0.1-1.2,0.5-2.5,1.3-3.9
				c0.5-1.1,0.8-2.3,0.9-3.6c0-0.7,0-1.5-0.1-2.3c-2,6.7-5,14.1-8.7,22.1c10.2,9.4,15.6,20.2,16,32.3l0.1,2.4l-2.4,0.1
				c-1.4,0.1-2.8,0.1-4.1,0.1c-10.9,0-16.7-3.1-19.6-7c-4.5,18.4-3.9,38.2,1.8,59.1l26.8,16.8l-3.1,2.2c-7.1,5-14.4,7.6-21.6,7.6
				c-2.1,0-4.2-0.2-6.3-0.7c-4.9,9.7-11.1,16.8-18.4,21.3l-2.7,1.7L115.4,225.8z"/>
			<path class="st1" d="M128.3,23.1c5,0,10.5,1.4,16.4,4.2c10.2,4.8,15.2,12.8,15,23.8c0,0.2,0,0.4,0,0.6c1.9,3.3,3.3,6.3,4.2,9
				c0.6,1.5,1,2.9,1.3,4.3c1,4.6,0.4,8.9-1.7,12.8c-0.1,0.2-0.2,0.3-0.3,0.5c-0.2,0.3-0.3,0.6-0.4,0.9c-1.1,2.2-0.4,3.8,2,4.6
				c0.2,0.1,0.3,0.2,0.4,0.3c-0.1,0.2-0.2,0.4-0.5,0.6c-0.1,0.1-0.2,0.2-0.4,0.3c-0.1,0-0.3,0.1-0.4,0.1c-0.2,0-0.3,0.1-0.4,0.1
				c-0.1,0-0.2,0-0.3-0.1c-1.4-0.4-2.4-0.9-3.1-1.7c-0.1-0.2-0.3-0.3-0.4-0.5c-0.3-0.6-0.5-1.3-0.4-2.1c0.1-0.9,0.4-1.9,1-3
				c0.7-1.5,1.1-3,1.2-4.6c0.1-3.2-0.9-6.7-3.1-10.5c-1.9,8.9-5.7,19.1-11.3,30.7c10.6,9.2,16.2,19.8,16.6,31.8
				c-1.4,0.1-2.7,0.1-4,0.1c-12.8,0-19.4-4.2-19.9-12.7c-6.9,21.2-6.9,44.2-0.1,68.9l24.4,15.4c-6.7,4.8-13.4,7.1-20.1,7.1
				c-2.6,0-5.1-0.4-7.7-1.1c-4.8,10.2-10.9,17.6-18.4,22.1c-4.5-14.2-4.2-26.6,1-37C90,156.9,78.5,124.6,84.2,91
				c-5,3.3-9.9,4.9-14.7,4.9c-3.5,0-7-0.9-10.4-2.7c8.7-15.2,18.7-22.8,30-22.8c0.1,0,0.2,0,0.3,0C91,63.9,93,58,95.5,52.9
				c2.5-5.1,5.1-9.5,7.6-13.3c-4.2,1.2-7.4,3-9.5,5.4c-1.1,1.2-1.9,2.6-2.3,4.1c-0.4,1.2-0.8,2.2-1.4,2.8c-0.5,0.7-1.1,1.1-1.8,1.3
				c-0.1,0.1-0.3,0.1-0.4,0.1c-0.1,0-0.1,0-0.2,0c-0.2,0-0.4,0-0.5,0c-0.9,0-1.8-0.3-2.9-0.9c-0.2-0.1-0.4-0.3-0.6-0.6
				c-0.1-0.2-0.1-0.3-0.2-0.5c0-0.1-0.1-0.3-0.1-0.4c0-0.3,0-0.6,0.2-0.7c0.1-0.1,0.1-0.1,0.2-0.1c0.1,0,0.2,0,0.3,0.1
				c0.7,0.3,1.3,0.4,1.8,0.4c1.3,0,2.2-0.8,2.8-2.5c0.1-0.2,0.2-0.5,0.2-0.9c0.1-0.2,0.1-0.4,0.1-0.6c1.1-4.2,3.7-7.7,7.7-10.3
				c1.1-0.8,2.4-1.6,3.9-2.2c2.6-1.3,5.7-2.5,9.4-3.5c0.4-0.1,0.7-0.2,0.9-0.2c2.4-2.2,4.8-3.9,7.3-5
				C121.2,23.8,124.6,23.1,128.3,23.1 M128.3,18.1c-4.3,0-8.5,0.9-12.3,2.6l0,0l0,0c-2.6,1.2-5.1,2.9-7.5,5c0,0,0,0,0,0
				c-3.9,1.1-7.3,2.4-10.1,3.8c-1.7,0.8-3.2,1.7-4.5,2.6c-4.9,3.3-8.2,7.6-9.6,12.9c-0.2,0-0.3,0-0.5,0c-1.6,0-3.1,0.7-4.2,2
				c-0.6,0.8-1.3,2.1-1.2,4l0,1l0.2,0.4l0,0.2l0.3,0.7l0.1,0.2L79,54l0.2,0.3l0.2,0.3c0.5,0.8,1.2,1.5,1.9,2l0.2,0.1l0.2,0.1
				c1.8,1,3.6,1.5,5.3,1.5c0.2,0,0.5,0,0.7,0c0,0,0.1,0,0.1,0c-0.9,2.3-1.6,4.8-2.3,7.3C73.9,67,63.5,75.5,54.8,90.7l-2.6,4.5
				l4.6,2.4c4.1,2.2,8.4,3.3,12.7,3.3c2.8,0,5.7-0.5,8.6-1.4c-2.5,30.9,9.2,60.9,34.8,89.5c-4.4,10.9-4.4,23.5,0.1,37.6l1.9,6.1
				l5.4-3.3c7.3-4.5,13.5-11.4,18.5-20.7c1.7,0.2,3.3,0.4,5,0.4c7.7,0,15.4-2.7,23-8.1l6.1-4.3l-6.3-4l-22.8-14.3
				c-4.9-18.5-5.7-36.2-2.5-52.6c3.7,2.7,9.4,4.6,18.2,4.6c1.4,0,2.8,0,4.3-0.1l4.9-0.3l-0.2-4.9c-0.4-12.2-5.7-23.2-15.5-32.8
				c1-2.1,1.9-4.1,2.7-6.1c0.1,0.1,0.2,0.2,0.2,0.3l0.1,0.2l0.1,0.2c1.3,1.5,3.1,2.5,5.4,3.1c0.6,0.2,1.2,0.3,1.8,0.3
				c0.6,0,1.3-0.1,1.9-0.3l0,0l0.9-0.1l1.1-0.8c0.2-0.2,0.4-0.3,0.6-0.4c1-0.7,1.7-1.7,2.1-2.8l0.4-1.1l-0.2-1.2
				c-0.2-1.4-0.9-2.7-2.1-3.6c2.6-4.9,3.3-10.2,2.1-16l0,0l0,0c-0.4-1.6-0.9-3.2-1.5-4.9c-0.9-2.6-2.2-5.5-3.9-8.5
				c0-12.6-6.2-22.1-17.8-27.7C140.3,19.7,134,18.1,128.3,18.1L128.3,18.1z"/>
		</g>
	</g>
	<g>
		<path class="st2" d="M136.1,202.9c-4.8,10.2-10.9,17.6-18.4,22.1c-4.5-14.2-4.2-26.6,1-37C90,156.9,78.5,124.6,84.2,91
			c-8.7,5.7-17.1,6.4-25.1,2.2C67.9,77.8,78,70.2,89.4,70.4C91,63.9,93,58,95.5,52.9c2.5-5.1,5.1-9.5,7.6-13.3
			c-4.2,1.2-7.4,3-9.5,5.4c-1.1,1.2-1.9,2.6-2.3,4.1c-0.4,1.2-0.8,2.2-1.4,2.8c-0.5,0.7-1.1,1.1-1.8,1.3c-0.2,0.1-0.4,0.1-0.6,0.1
			c-1,0.1-2.2-0.1-3.4-0.8c-0.2-0.1-0.4-0.3-0.6-0.6c-0.1-0.2-0.1-0.3-0.2-0.5c0-0.1-0.1-0.3-0.1-0.4c0-0.3,0-0.6,0.2-0.7
			c0.1-0.2,0.3-0.2,0.5,0c2.3,1,3.8,0.3,4.7-2.1c0.1-0.2,0.2-0.5,0.2-0.9c0.1-0.2,0.1-0.4,0.1-0.6c1.1-4.2,3.7-7.7,7.7-10.3
			c1.1-0.8,2.4-1.6,3.9-2.2c2.6-1.3,5.7-2.5,9.4-3.5c0.4-0.1,0.7-0.2,0.9-0.2c2.4-2.2,4.8-3.9,7.3-5c7.7-3.4,16.5-2.8,26.6,2
			C120.7,69.3,80.7,81.3,136.1,202.9z"/>
	</g>
</g>
</svg>
