<?xml version="1.0" encoding="utf-8"?>
<!-- Generator: Adobe Illustrator 19.1.0, SVG Export Plug-In . SVG Version: 6.00 Build 0)  -->
<svg version="1.1" id="Layer_1" xmlns="http://www.w3.org/2000/svg" xmlns:xlink="http://www.w3.org/1999/xlink" x="0px" y="0px"
	 viewBox="0 0 250 250" style="enable-background:new 0 0 250 250;" xml:space="preserve">
<style type="text/css">
	.st0{fill:url(#SVGID_1_);}
	.st1{fill:#231F20;}
</style>
<g>
	<linearGradient id="SVGID_1_" gradientUnits="userSpaceOnUse" x1="27.8677" y1="132.6179" x2="221.8677" y2="132.6179">
		<stop  offset="0.3792" style="stop-color:#FFCF46"/>
		<stop  offset="0.7059" style="stop-color:#F89C1C"/>
	</linearGradient>
	<circle class="st0" cx="124.9" cy="132.6" r="97"/>
	<path class="st1" d="M200.4,172.1c2.1-4.1,4-8.4,5.4-12.9h-43.1v-6.4h41.3v-38.5h-41.3v-8.6h43c-1.5-4.5-3.3-8.8-5.5-12.9h-37.4
		V80.3h29.1c-3.7-4.7-7.9-9-12.5-12.9h-16.6V56.6c-4.1-2-8.4-3.8-12.9-5.1v15.9h-24.9H100V51.4c-4.5,1.4-8.8,3.1-12.9,5.1v10.8H70.5
		c-4.6,3.8-8.8,8.1-12.5,12.9h29.1V93H49.6c-2.2,4.1-4,8.4-5.5,12.9h43v8.6H45.8v38.5h41.3v6.4H44c1.5,4.5,3.3,8.8,5.4,12.9h37.7
		v6.7H53.3c3,4.6,6.4,8.9,10.2,12.9h45.1v12.8H78.9c10.6,6.8,22.7,11.3,35.8,12.9h6.7v-38.5H100v-6.7h24.9h24.9v6.7h-21.4v38.5h6.7
		c13.1-1.6,25.2-6.1,35.8-12.9h-29.6v-12.8h45.1c3.8-3.9,7.2-8.3,10.2-12.9h-33.8v-6.7H200.4z M100,80.3h24.9h24.9V93h-24.9H100
		V80.3z M87.1,140.1h-7.1H58.7v-12.8h21.3h7.1H100h4.3h4.3v12.8h-4.3H100H87.1z M149.8,159.3h-24.9H100v-6.4h21.4v-38.5H100v-8.6
		h24.9h24.9v8.6h-21.4v38.5h21.4V159.3z M149.8,140.1h-4.3h-4.3v-12.8h4.3h4.3h12.9h6h22.5v12.8h-22.5h-6H149.8z"/>
</g>
</svg>
