<?xml version="1.0" encoding="utf-8"?>
<!-- Generator: Adobe Illustrator 19.1.0, SVG Export Plug-In . SVG Version: 6.00 Build 0)  -->
<svg version="1.1" id="Layer_1" xmlns="http://www.w3.org/2000/svg" xmlns:xlink="http://www.w3.org/1999/xlink" x="0px" y="0px"
	 viewBox="0 0 250 250" style="enable-background:new 0 0 250 250;" xml:space="preserve">
<style type="text/css">
	.st0{fill:#9EDCF8;}
	.st1{fill:#231F20;}
	.st2{fill:url(#SVGID_1_);}
	.st3{fill:#FFFFFF;}
</style>
<g>
	<g>
		<path class="st0" d="M119.1,199c-8.3,0-15.6-5-18.9-12.2c-2.3,0.9-4.8,1.3-7.3,1.3c-5.6,0-10.8-2.2-14.7-6.1l-8.8-8.8
			c-5.9-5.9-7.5-14.6-4.7-22c-7.2-3.3-12.2-10.6-12.2-18.9v-12.5c0-8.3,5-15.6,12.2-18.9c-2.8-7.5-1.1-16.1,4.7-22l8.8-8.8
			c3.9-3.9,9.1-6.1,14.7-6.1c2.5,0,5,0.5,7.3,1.3c3.3-7.2,10.6-12.2,18.9-12.2h12.5c8.3,0,15.6,5,18.9,12.2c2.3-0.9,4.8-1.3,7.3-1.3
			c5.6,0,10.8,2.2,14.7,6.1l8.8,8.8c5.9,5.9,7.5,14.6,4.7,22c7.2,3.3,12.2,10.6,12.2,18.9v12.5c0,8.3-5,15.6-12.2,18.9
			c2.8,7.5,1.1,16.1-4.7,22l-8.8,8.8c-3.9,3.9-9.1,6.1-14.7,6.1h0c-2.5,0-5-0.5-7.3-1.3c-3.3,7.2-10.6,12.2-18.9,12.2H119.1z"/>
		<path class="st1" d="M131.6,57.9c8.4,0,15.2,6.6,15.8,14.8c3-2.6,6.7-3.9,10.5-3.9c4,0,8.1,1.5,11.2,4.6l8.8,8.8
			c5.9,5.9,6.1,15.4,0.7,21.6c8.2,0.6,14.8,7.4,14.8,15.8v12.5c0,8.4-6.6,15.2-14.8,15.8c5.4,6.2,5.2,15.7-0.7,21.6l-8.8,8.8
			c-3.1,3.1-7.1,4.6-11.2,4.6c-3.7,0-7.5-1.3-10.5-3.9c-0.6,8.2-7.4,14.8-15.8,14.8h-12.5c-8.4,0-15.2-6.6-15.8-14.8
			c-3,2.6-6.7,3.9-10.5,3.9c-4,0-8.1-1.5-11.2-4.6l-8.8-8.8c-5.9-5.9-6.1-15.4-0.7-21.6c-8.2-0.6-14.8-7.4-14.8-15.8v-12.5
			c0-8.4,6.6-15.2,14.8-15.8c-5.4-6.2-5.2-15.7,0.7-21.6l8.8-8.8c3.1-3.1,7.1-4.6,11.2-4.6c3.7,0,7.5,1.3,10.5,3.9
			c0.6-8.2,7.4-14.8,15.8-14.8H131.6 M131.6,47.9h-12.5c-8.8,0-16.7,4.5-21.3,11.4c-1.6-0.3-3.3-0.5-4.9-0.5
			c-6.9,0-13.4,2.7-18.2,7.5l-8.8,8.8c-6.2,6.2-8.6,15-7,23.1c-6.9,4.7-11.4,12.5-11.4,21.3v12.5c0,8.8,4.5,16.7,11.4,21.3
			c-1.6,8.2,0.8,16.9,7,23.1l8.8,8.8c4.9,4.9,11.3,7.5,18.2,7.5c1.7,0,3.3-0.2,4.9-0.5c4.7,6.9,12.5,11.4,21.3,11.4h12.5
			c8.8,0,16.7-4.5,21.3-11.4c1.6,0.3,3.3,0.5,4.9,0.5c6.9,0,13.4-2.7,18.2-7.5l8.8-8.8c6.2-6.2,8.6-15,7.1-23.1
			c6.9-4.7,11.4-12.5,11.4-21.3v-12.5c0-8.8-4.5-16.7-11.4-21.3c1.6-8.2-0.8-16.9-7.1-23.1l-8.8-8.8c-4.9-4.9-11.3-7.5-18.2-7.5
			c-1.7,0-3.3,0.2-4.9,0.5C148.3,52.4,140.4,47.9,131.6,47.9L131.6,47.9z"/>
	</g>
	<path class="st0" d="M178.5,103.9c5.4-6.2,5.2-15.7-0.7-21.6l-8.8-8.8c-5.9-5.9-15.4-6.1-21.6-0.7c-0.6-8.2-7.4-14.8-15.8-14.8
		h-12.5c-8.4,0-15.2,6.6-15.8,14.8c-6.2-5.4-15.7-5.2-21.6,0.7l-8.8,8.8c-5.9,5.9-6.1,15.4-0.7,21.6c-8.2,0.6-14.8,7.4-14.8,15.8
		v12.5c0,8.4,6.6,15.2,14.8,15.8c-5.4,6.2-5.2,15.7,0.7,21.6l8.8,8.8c5.9,5.9,15.4,6.1,21.6,0.7c0.6,8.2,7.4,14.8,15.8,14.8h12.5
		c8.4,0,15.2-6.6,15.8-14.8c6.2,5.4,15.7,5.2,21.6-0.7l8.8-8.8c5.9-5.9,6.1-15.4,0.7-21.6c8.2-0.6,14.8-7.4,14.8-15.8v-12.5
		C193.4,111.3,186.8,104.5,178.5,103.9z M159.8,160.5c-5.2,5.2-13.1,6-19.2,2.4c-1.8,6.8-8,11.9-15.3,11.9
		c-7.3,0-13.5-5.1-15.3-11.9c-6.1,3.5-14,2.8-19.2-2.4c-5.2-5.2-6-13.1-2.4-19.2c-6.8-1.8-11.9-8-11.9-15.3
		c0-7.3,5.1-13.5,11.9-15.3c-3.5-6.1-2.8-14,2.4-19.2c5.2-5.2,13.1-6,19.2-2.4c1.8-6.8,8-11.9,15.3-11.9c7.3,0,13.5,5.1,15.3,11.9
		c6.1-3.5,14-2.8,19.2,2.4c5.2,5.2,6,13.1,2.4,19.2c6.8,1.8,11.9,8,11.9,15.3c0,7.3-5.1,13.5-11.9,15.3
		C165.8,147.3,165,155.3,159.8,160.5z"/>
	<linearGradient id="SVGID_1_" gradientUnits="userSpaceOnUse" x1="76.5232" y1="125.9438" x2="174.1458" y2="125.9438">
		<stop  offset="0.3792" style="stop-color:#FFCF46"/>
		<stop  offset="0.7059" style="stop-color:#F89C1C"/>
	</linearGradient>
	<path class="st2" d="M162.3,141.2c6.8-1.8,11.9-8,11.9-15.3c0-7.3-5.1-13.5-11.9-15.3c3.5-6.1,2.8-14-2.4-19.2
		c-5.2-5.2-13.1-6-19.2-2.4c-1.8-6.8-8-11.9-15.3-11.9c-7.3,0-13.5,5.1-15.3,11.9c-6.1-3.5-14-2.8-19.2,2.4
		c-5.2,5.2-6,13.1-2.4,19.2c-6.8,1.8-11.9,8-11.9,15.3c0,7.3,5.1,13.5,11.9,15.3c-3.5,6.1-2.8,14,2.4,19.2c5.2,5.2,13.1,6,19.2,2.4
		c1.8,6.8,8,11.9,15.3,11.9c7.3,0,13.5-5.1,15.3-11.9c6.1,3.5,14,2.8,19.2-2.4C165,155.3,165.8,147.3,162.3,141.2z M125.3,147.8
		c-12,0-21.8-9.8-21.8-21.8c0-12,9.8-21.8,21.8-21.8c12,0,21.8,9.8,21.8,21.8C147.1,138,137.4,147.8,125.3,147.8z"/>
	<circle class="st3" cx="125.3" cy="125.9" r="21.8"/>
</g>
</svg>
