<?xml version="1.0" encoding="utf-8"?>
<!-- Generator: Adobe Illustrator 19.1.0, SVG Export Plug-In . SVG Version: 6.00 Build 0)  -->
<svg version="1.1" id="Layer_1" xmlns="http://www.w3.org/2000/svg" xmlns:xlink="http://www.w3.org/1999/xlink" x="0px" y="0px"
	 viewBox="0 0 250 250" style="enable-background:new 0 0 250 250;" xml:space="preserve">
<style type="text/css">
	
		.st0{fill-rule:evenodd;clip-rule:evenodd;fill:url(#SVGID_1_);stroke:#75D0F6;stroke-width:5;stroke-linecap:round;stroke-linejoin:round;stroke-miterlimit:10;}
	.st1{fill:#FFFFFF;}
</style>
<g>
	<g>
		
			<linearGradient id="SVGID_1_" gradientUnits="userSpaceOnUse" x1="-6461.9238" y1="4494.4668" x2="-6315.978" y2="4494.4668" gradientTransform="matrix(0.3073 0.9516 -0.9516 0.3073 6353.2944 4846.5864)">
			<stop  offset="0" style="stop-color:#75D0F6"/>
			<stop  offset="1" style="stop-color:#003375"/>
		</linearGradient>
		<path class="st0" d="M134.2,128.2c-2.3-8,9.5-11.6,12.7-12.1l7.1-10.1l-19-14.6l-24.1-15.8L83,81l-21.1,28.8l-53,40.5v45.7h135.3
			H191c25.8,1.8,52.5-19.4,41.9-46.8c-4.5-11.7-19.2-17.6-27.9-8.3c-4,4.3-5.4,11.2-4.6,16.9c11.1-15.6,22.7-3.2,19.3,7.3
			c-3,9.1-18.1,18-36.4,15.4C183.3,180.5,147.8,174.6,134.2,128.2z"/>
	</g>
	<path class="st1" d="M193.3,107.1c-2.1-1.7-4.1-3.4-6.5-4.4c-2.5-1-5-1.1-7-0.3c0-0.5-0.4-1-0.7-1.5c-0.3-0.5-0.6-1-0.7-1.5
		c0-0.4,0.2-0.7,0.4-0.9c0.4-0.4,1-0.6,1.5-0.5c1,0.1,1.9,0.9,2.7,1.5l0.3,0.2l0.2-0.3c0.3-0.4,0.5-0.9,0.4-1.5
		c-0.1-0.7-0.5-1.4-1-1.9c-1-0.8-2.2-0.9-3.2-1.1l-9.6-1.3c-1.2-0.2-2.5-0.3-3.7-0.2c-0.8,0.1-1.5,0.3-2.2,0.6
		c-0.5,0.2-1.1,0.3-1.6,0.4c-2.5,0.5-5.3-0.1-7.4-1.8c0.5-1.3,0.5-2.7,0-4c0.2-0.3,0.6-0.4,0.8-0.4c0.5-0.1,1.1,0,1.6,0.3
		c0.9,0.6,1.4,1.8,1.6,2.6l0.4-0.1l0,0l0,0l0.4-0.1c0,0,0,0,0,0c-0.1-0.5-0.3-0.9-0.4-1.3c-0.4-1.4-0.7-2.8-2.2-4.1
		c-0.4-0.3-1.1-0.7-1.9-1.1c-1-0.5-2.5-1.2-2.7-1.7c0.1-0.2,1.1-0.7,2.4-0.7c0,0,0,0,0,0l0.3,0l0.1-0.3c0.4-1.8-0.4-2.2-1.3-2.8
		c-0.5-0.3-1-0.6-1.5-1.1c-1.6-1.6-2.6-1.6-5.3-1.7c-0.3,0-0.7,0-1.1-0.1c-2-0.1-3-1.1-4-2c-0.6-0.6-1.3-1.2-2.2-1.6
		c-0.8-0.3-1.5-0.5-2-0.6c-0.8-0.2-1.3-0.3-2.3-1c-1.7-1.2-4.8-1.1-8.9-0.8c-0.2-0.8-1.1-2.8-3.6-3.1c-0.4,0-0.8-0.1-1.2-0.1
		c-2.2-0.2-4.1-0.5-5.2-1c-1-0.5-3.6-0.1-6.9,0.4c-1.1,0.2-2,0.4-2.6,0.4c-1.5,0.1-2.7,1.3-3.7,2.2c-0.4,0.4-0.9,0.8-1.1,1
		c-0.3,0.2-0.8,0.1-1.5,0.1c-1.2,0-3.1-0.1-6.1,0.7c-3.5,0.9-5.8,2.1-7.3,2.8c-0.6,0.3-1,0.5-1.4,0.7c-0.1,0-8,3.1-10.1,5.6
		c-1.7,2-3.8,3.3-6.1,4.7c-1,0.6-2,1.2-3,2c-3.7,2.6-7.2,5.7-10.2,9.1c-0.7,0.8-1.4,1.7-2.1,2.5c-1.8,2.1-3.7,4.3-5.8,6.1
		c-0.6,0.5-1.3,1-1.9,1.5c-1.7,1.2-3.4,2.5-4.6,4.3c-0.5,0.7-0.9,1.5-1.2,2.3c-0.4,0.9-0.9,1.8-1.4,2.5c-0.4,0.6-1,1.1-1.5,1.7
		c-0.5,0.5-1.1,1-1.5,1.7c-0.7,0.9-1.2,1.9-1.6,2.8c-0.3,0.5-0.5,1.1-0.8,1.6c-1.1,2-2.8,3.7-4.3,5.3c-2.5,2.7-5.4,5.7-8.6,8.2
		l-0.1,0.1c-2.4,1.9-6.5,5.1-9.5,4.9l-0.5,0l0.1,0.5c0,0.3,0.1,0.6,0.2,0.9c0.5,2.7,1.3,7.2-0.1,9l-0.1,0.1l-0.2,20.1l-0.5,0
		l0.4,0.5c0.1,0.1,0.1,0.2,0.2,0.2l0.7,1l0-1.5l2.7-2.5c0.3,0.5,0.3,0.8,0.3,0.9l-0.6,0.7l0.9-0.1c0.3,0,0.5-0.1,0.7-0.4
		c0.3-0.4,0.4-1.3,0.2-2.5l2.2-2c1,0.5,1.1,1.7,1.1,2.6c0,0.3,0,0.5,0.1,0.7l0.1,0.5l0.5-0.3c0.6-0.3,0.9-0.9,1-1.7
		c0.1-0.9-0.3-1.9-0.8-2.5c-0.1-0.5-0.1-0.8,0.1-1.1c0.4-0.6,1.4-0.7,2.3-0.7c0.2,0,0.4,0,0.6-0.1c0.9-0.1,1.5,0.9,2.1,2.2
		c0.1,0.1,0.1,0.3,0.2,0.4l0.1,0.2l0.3,0c0.6-0.1,0.9-0.4,1-0.6c0.2-0.6,0-1.4-0.7-2.3c-0.5-0.6-0.9-1-1.3-1.3
		c-0.3-0.3-0.6-0.6-0.6-0.7l0,0c0-0.2,0.1-0.5,0.2-0.5c0.4-0.2,1.6,0.5,2.4,0.9c0.2,0.1,0.5,0.3,0.7,0.4l0.7,0.4l-0.2-0.8
		c-0.3-1.1-0.9-1.9-1.8-2.4c0.4-0.1,0.9-0.3,1.5-0.5c0,0,0,0,0,0.1c0,0.5,0,0.9,0.3,1.2c0.1,0.1,0.3,0.2,0.4,0.2
		c0.9,0,1.1-1.2,1.1-2.1c0.5-0.2,1-0.4,1.6-0.6c0.1,0.1,0.3,0.2,0.4,0.3c1.3,1.1,1.2,1.8,1.1,2.5c0,0.3-0.1,0.7,0,1l0.1,0.3l0.3,0
		c1.3-0.1,1.4-0.7,1.3-1.4c0-0.2,0-0.5,0-0.8c0.2-0.8,0.4-0.9,1.5-0.7c1.8,0.4,2.1,1.1,2.4,1.9c0.2,0.4,0.3,0.9,0.7,1.1l0.3,0.2
		l0.2-0.3c0.3-0.5,0.5-1.1,0.3-1.6c-0.3-1.1-1.5-1.8-2.3-2.3c-0.4-0.2-0.6-0.5-0.8-0.8c-0.2-0.3-0.5-0.8-1.1-0.7
		c-0.1-0.2-0.1-0.3-0.2-0.5c1.2-0.5,2.2-0.9,3.1-1.3c0.2,0.3,0.4,0.8,0.6,1.3l0.2,0.6l0.4-0.5c0.8-0.9,0.6-1.4,0.2-2.1
		c1.3-0.6,1.9-1,2.2-1.3c0,0.2,0,0.4,0,0.5c0,0.4,0,0.7,0,0.9c0.1,0.3,0.3,0.4,0.4,0.4c0.2,0,0.5,0.1,1.3-1.3
		c0.6,0.6,0.3,1.9,0.3,1.9l-0.1,0.3l0.3,0.1c0,0,0.9,0.3,1.9,0c0.3,1.3-0.1,1.5-0.7,1.8c-0.2,0.1-0.5,0.2-0.8,0.4l-0.7,0.4l0.8,0.2
		c1.9,0.5,2.8-0.2,3.5-0.7c0.2-0.1,0.3-0.3,0.5-0.3c0.4-0.2,1,0.5,1.5,1.6c0.4,0.8,0.5,1.1,0.5,1.2c-0.3,1.3-1.2,2-2,2.5
		c-0.1,0.1-0.2,0.1-0.3,0.2l-0.4,0.3l0.5,0.3c0.8,0.5,2,0.7,3.6-1.1c0.4-0.5,0.8-0.9,1.1-0.9c0.2,0,0.5,0.3,0.9,0.7
		c0.5,0.5,0.5,0.8,0.5,1.1c0,0.1,0,0.4,0.2,0.5c0.2,0.2,0.5,0.1,0.6,0c0.5-0.1,0.8,0,0.9,0c0.4,0.3,0.7,0.5,0.8,0.8
		c0.1,0.4-0.2,0.8-0.4,1.1c-0.2,0.3-0.4,0.5-0.3,0.8c0,0.1,0.1,0.2,0.2,0.3c0.5,0.3,1-0.2,1.3-0.6c0.2-0.2,0.4-0.4,0.5-0.5
		c0.1,0,0.4,0.3,0.6,0.8c-0.1,2.3-1.6,2.5-2.9,2.6c-0.1,0-0.2,0-0.3,0l-0.7,0.1l0.4,0.5c0.4,0.5,1,0.8,1.6,0.8
		c1.3,0.1,2.6-0.9,3-1.2c0.3,0.1,0.6,0.3,0.6,0.4c0.1,0.2-0.1,0.7-0.4,1.1c-0.2,0.3-0.3,0.7-0.5,1l-0.2,0.5l0.5,0
		c2.2-0.1,2.6-1.6,2.8-2.5c0-0.2,0.1-0.4,0.1-0.4c0.2-0.4,1.5-1.1,2.7-1c1.7,1.6,1.6,2.2,1.6,2.4c-0.2,0.4-1.1,0.5-1.6,0.5l-0.8,0
		l0.4,0.6c0.3,0.5,1.3,1.3,2.4,0.7c1-0.5,1.5-0.6,2.5-0.2c0.6,1.5-0.5,2.4-1.6,3c-0.4,0.2-0.7,0.4-0.6,0.8c0.1,0.4,0.5,0.4,1,0.4
		c1.4,0,2.2-0.5,2.6-0.9c0.4-0.5,0.6-1,0.6-1.4c0.6-0.3,1-0.3,1.3-0.1c0.6,0.3,0.8,1.4,0.9,2.2c0.1,0.7,0.2,1.2,0.5,1.4
		c0.1,0.1,0.3,0.1,0.5,0c0.5-0.2,0.8-0.5,1-1c0.4-1,0-2.4-1.1-4.2c-0.8-1.3-0.8-1.8-0.7-2c0.1-0.2,0.5-0.3,0.9-0.3
		c0.1,0,0.2,0,0.3-0.1c1.7,0.2,2.3,0.6,2.4,0.9c0.1,0.3,0,0.6-0.2,1c-0.2,0.4-0.4,0.8-0.2,1.2c0.1,0.2,0.3,0.4,0.6,0.5l0.2,0
		l0.1-0.1c1.7-0.9,1.6-1.8,1.5-2.7c0-0.1,0-0.1,0-0.2c1.6,0.8,2,1.5,2,2c0.1,0.8-0.9,1.4-0.9,1.4l-0.6,0.4l0.7,0.3
		c0.7,0.3,2.2,0.4,3.3-1c0.7,1.2,0.1,2.5-0.3,3.3c-0.1,0.3-0.2,0.5-0.3,0.7c0,0.2,0.1,0.4,0.2,0.6c0.6,0.4,2.1-0.2,2.9-0.6
		c1,0.5,1.1,0.8,1.1,0.8c0,0.1-0.2,0.3-0.3,0.4c-0.2,0.2-0.5,0.6-0.7,1l-0.3,0.6l0.6,0c1-0.1,1.9-0.5,2.4-1.2
		c0.4-0.5,0.6-1.1,0.6-1.8c0.8-0.4,1.6,0.2,3,1.3c0.2,0.1,0.3,0.3,0.5,0.4l0.8,0.6l-0.2-1c-0.5-3.2-1.4-3.4-2.7-3.4
		c-0.6,0-1.1,0-1.8-0.5c-0.3-0.3-0.7-0.7-0.7-1.1c0.1-0.6,1.1-1,1.4-1.2l0,0c0,0,0,0,0,0c0.1,0.1,0.2,0.5,0.2,0.8
		c0.1,0.3,0.2,0.7,0.3,1.1l0.1,0.3l0.3-0.1c0.7-0.1,1-0.5,1.1-0.8c0.4-0.8,0-2-0.2-2.6c0.1,0,0.2-0.1,0.3-0.1c0,0,0,0,0,0
		c0.8,0,2.1,0.9,3.3,2.2l0.6,0.7l0-0.9c0.1-1.9-1-3.1-2-3.7c-1.4-0.9-3.2-1.1-4.4-0.9c0.1-0.7,0.1-1.6,0-2.3
		c-0.1-0.5-0.3-1.3-0.7-1.8c0.7-0.8,0.9-1.7,0.9-2.4c3.9-1.7,4.8,0,5.5,1.2l0.5,0.9l0.2-1c0.4-2.4-2.3-3.8-3.9-4.3
		c-0.4-1.9-3.8-2-4-2c-0.1,0-0.2,0-0.4,0c-0.8,0-2.2-0.1-3.3,0.3c0-0.5-0.3-0.9-0.6-1.2c-0.4-0.5-0.6-0.7-0.3-1.2
		c0.3-0.6,0.7-0.5,1.8,0c0.5,0.2,1.1,0.5,1.5,0.4l0.3,0l0-0.3c0.1-0.8-0.1-1.5-0.6-2c-0.8-0.9-2.4-0.9-3.5-0.9c-0.4,0-0.8,0-1-0.1
		c-1-0.3-2.3,0.2-2.8,0.4l-2-0.6c-2.2-0.7-3.1-0.2-4.1,0.5l-0.1,0.1c-0.9,0.6-2.6,0.8-3.6,0.7l0.4-2.3c0.5-2.9-3-4.7-4.7-5.5
		c-0.2-0.1-0.3-0.2-0.5-0.2c0.2-0.2,0.8-0.4,1.5-0.4l0.3,0l0-0.3c0.2-1.4-0.4-1.7-1.1-2c-0.3-0.2-0.7-0.3-1.1-0.7
		c-0.5-0.4-1-0.7-1.5-0.9c0-0.2,0-0.4,0-0.6c0-0.2,0-0.5,0-0.8c0.2-0.8,0.4-0.9,1.5-0.7c1.8,0.4,2.1,1.1,2.4,1.9
		c0.2,0.4,0.3,0.9,0.7,1.1l0.3,0.2l0.2-0.3c0.3-0.5,0.5-1.1,0.3-1.6c-0.3-1.1-1.5-1.8-2.3-2.3c-0.4-0.2-0.6-0.5-0.8-0.8
		c-0.2-0.3-0.5-0.8-1.1-0.7c-0.5-1-0.1-1.3,0.7-1.9c0.2-0.2,0.5-0.4,0.8-0.7c0.2-0.2,0.4-0.2,0.5-0.2c0.5,0.1,1.1,0.9,1.6,2.3
		l0.7-0.3c0.1,0.1,0,0.3,0,0.3c0,0,0.1-0.1,0.1-0.2c0.2-0.5,0.3-0.7,0.4-0.8c0-0.3,0-0.6-0.1-1c-0.1-0.6-0.3-1.4,0-1.7
		c0.2-0.2,0.6-0.2,1.1-0.1c0.3,0.1,0.6,0.3,0.8,0.7c0.2,0.4,0.2,0.7,0.1,1.1l-0.3,0.8l0.8-0.3c0.5-0.2,0.9-0.5,1.2-0.9
		c0.3,0.5,0.5,1.1,0.3,1.7l-0.1,0.3l0.3,0.1c0.6,0.2,1.2,0.2,1.7,0.1c0.1,0.3,0,0.7-0.1,1.1c-0.2,0.5-0.6,0.8-1,0.9l-0.6,0.2
		l0.4,0.4c0.7,0.8,1.7,0.3,2.4-0.1c0.3-0.2,0.7-0.4,1-0.4c0.4-0.1,0.9,0,1.3,0.3c0.5,0.4,0.9,1.1,0.9,1.7c0,1.3-0.9,2.5-1.7,3.2
		l-0.3,0.3l0.3,0.3c0.8,0.7,2,0.2,2.8-0.6l0.2-0.2c0.5-0.5,1.1-1.1,1.6-1c0.6,0,1.1,0.6,1.4,1.8l0.1,0.3l0.3-0.1
		c0.6-0.1,1.3,0.1,1.6,0.6c0.2,0.4,0.3,0.9,0.1,1.3c-0.1,0.1-0.2,0.3-0.3,0.5l-0.4,1.7l1.1-1.4c0.1-0.1,0.2-0.3,0.3-0.4
		c0.1-0.1,0.3-0.1,0.3-0.1c0.3-0.1,0.7,0.1,0.9,0.4c0.4,0.6,0,1.5-0.5,1.9c-0.6,0.6-1.5,0.8-2.3,1l-0.4,0.1l0.2,0.4
		c0.1,0.3,0.4,0.6,0.7,0.7c0.7,0.2,1.6,0,2.2-0.4c0.6-0.3,1.6-0.8,2-0.2c0.4,0.5-0.3,1.4-0.6,1.8l-0.4,0.4L91,152
		c0.8,0.3,1.7-0.1,2.2-0.8c0.3-0.3,0.4-0.7,0.6-1c0.1-0.3,0.3-0.5,0.4-0.7c0.5-0.8,1.4-1.2,2.2-1.2c0.8,0,1.6,0.6,1.7,1.4
		c0.1,0.4-0.1,0.8-0.3,1.1c-0.2,0.3-0.6,0.4-0.9,0.4l-0.9,0l0.6,0.7c0.7,0.7,1.6,0.4,2.5,0.2c0.6-0.2,1.3-0.4,1.7-0.1
		c0.3,0.1,0.4,0.4,0.5,0.6c0.1,0.4,0.1,0.9-0.1,1.2c-0.4,0.7-1.1,1.2-1.7,1.7l-0.4,0.3l0.4,0.3c0.9,0.7,2.1,0.2,3.3-1.1
		c0.5-0.6,1.6-1.5,2.3-0.9c0.3,0.3,0.4,0.8,0.4,1.3c0.1,0.7,0.2,1.4,0.8,1.8l0.1,0.1l0.2,0c0.5-0.1,0.8-0.5,1-0.9
		c0.4-0.9,0-2.1-0.4-2.8c-0.1-0.1-0.2-0.3-0.3-0.4c-0.6-0.9-1.2-1.8-0.8-2.6c0.2-0.5,0.6-0.6,0.9-0.7c0.5-0.1,1.1,0,1.5,0.3
		c0.9,0.7,1,2,0.8,2.9l-0.1,0.6l0.6-0.2c1.1-0.4,1.9-1.5,1.9-2.7c0.7,0.2,1.3,0.7,1.6,1.2c0.3,0.6,0.2,1.6-0.4,2l-0.9,0.5l1,0.2
		c1.1,0.2,2.3-0.1,3.1-0.8c0.4,1.3,0.2,2.7-0.5,3.9l-0.4,0.6l0.7,0c0.5,0,0.9-0.1,1.3-0.2c0.3-0.1,0.5-0.1,0.8-0.2
		c0.3,0,1.2-0.1,1.6,0.4c0.1,0.2,0.2,0.5,0,0.7c-0.1,0.1-0.2,0.2-0.3,0.2l-1.1,0l0.9,0.7c0.3,0.2,0.6,0.3,0.9,0.2
		c0.5-0.1,1-0.4,1.3-0.9c0.2-0.2,0.3-0.5,0.4-0.7c0.2-0.3,0.4-0.7,0.6-0.9c0.7-0.7,1.7,0.1,2.7,1.1c0.2,0.2,0.4,0.3,0.5,0.4l0.8,0.6
		l-0.2-1c-0.5-3.2-1.4-3.4-2.7-3.4c-0.6,0-1.1,0-1.8-0.5c-0.3-0.3-0.7-0.7-0.7-1.1c0.1-0.6,1.1-1,1.4-1.2l0,0c0,0,0,0,0,0
		c0.1,0.1,0.2,0.5,0.2,0.8c0.1,0.3,0.2,0.7,0.3,1.1l0.1,0.3l0.3-0.1c0.7-0.1,1-0.5,1.1-0.8c0.4-0.8,0-2-0.2-2.6
		c0.1,0,0.2-0.1,0.3-0.1c0,0,0,0,0,0c0.8,0,2.1,0.9,3.3,2.2l0.6,0.7l0-0.9c0.1-1.9-1-3.1-2-3.7c-1.4-0.9-3.2-1.1-4.4-0.9
		c0.1-0.7,0.1-1.6,0-2.3c-0.1-0.5-0.3-1.3-0.7-1.8c0.7-0.8,0.9-1.7,0.9-2.4c2.6-1.1,3.6-0.6,5.6,0.9l0.6,0.5l0-0.8
		c-0.1-1.7-1.8-3-3.3-3.9c-3.9-2.4-6.6-2.3-8.3-1.6c-0.1-0.3-0.3-0.7-0.5-0.9c-0.2-0.3-0.4-0.6-0.5-0.9c0-0.2,0.1-0.5,0.2-0.6
		c0.2-0.3,0.6-0.5,1-0.4c0.7,0,1.3,0.5,2,1l0.5,0.3l0.1-0.6c0.1-0.6,0-1.3-0.4-1.8c-0.6-0.8-1.8-1.4-2.9-1.5c-0.7,0-1.5,0.1-2.2,0.2
		c-0.9,0.1-1.7,0.2-2.5,0.1c-0.4-0.1-0.8-0.2-1.3-0.3c-0.6-0.2-1.2-0.4-1.9-0.4c-1,0-1.9,0.4-2.8,0.7c-0.5,0.2-0.9,0.4-1.4,0.5
		c-1.7,0.5-3.6,0.1-5-0.9c0.2-0.9,0.1-1.8-0.2-2.7c0.1-0.2,0.3-0.2,0.4-0.3c0.3-0.1,0.7-0.1,1,0.1c0.6,0.4,1,1.1,1.2,1.7l0.8,1.9
		l0-2c-0.1-2.8-2.9-4.5-5.2-5.5c0.4-0.3,1-0.6,1.5-0.6l0.6,0l-0.2-0.5c-0.8-1.7-2.4-2.9-4.2-3.2c-0.6-0.1-1.1-0.1-1.7-0.1
		c-0.7,0-1.4,0-2.1-0.2c-0.6-0.2-1.1-0.5-1.7-0.9c-0.2-0.1-0.3-0.2-0.5-0.3c-3.1-1.9-6.9-2.6-10.5-1.9c-0.4-0.9-1.3-1.7-2.5-2
		c-0.3-0.1-0.9-0.1-1.6,0c-0.7,0-2.3,0.1-2.5-0.2c-0.7-1.1-1.4-2.2-1.1-3.2c0.1-0.6,0.6-1.1,1.4-1.6c1.1-0.6,2.1-0.3,2.7,0
		c1.3,0.8,2.4,2.6,2.4,4.1l0,0.6l0.6-0.3c1.3-0.7,1.1-2.1,1-3.4c-0.1-0.9-0.2-1.9,0.1-2.6c0.2-0.5,0.7-0.9,1.4-1
		c0.9-0.2,1.8,0.1,2.4,0.7c1.2,1.2,1.3,3.1,1.2,4.5l0,0.5l0.5-0.1c0.5-0.1,0.9-0.4,1.2-0.8c0.5-0.8,0.5-2,0.2-2.8
		c-0.1-0.2-0.2-0.5-0.2-0.7c-0.3-1-0.7-1.9-0.3-2.7c0.3-0.6,0.9-1,1.7-1.2c1.2-0.3,2.5,0,3.7,0.8c1.1,0.8,1.9,1.9,2,3.2l0,0.4
		l0.4-0.1c0.5-0.1,0.9-0.4,1.2-0.9c0.3-0.8,0.2-1.8-0.3-2.5c-0.3-0.5-0.8-0.9-1.2-1.3c-0.5-0.4-0.9-0.8-1.2-1.2
		c-0.3-0.5-0.3-1.2-0.1-1.7c0.1-0.3,0.4-0.4,0.6-0.4c0,0,0,0,0,0c0.3,0,0.6,0.2,0.9,0.4l3.6,2.3l-0.2-0.9c-0.4-1.5-1.4-2.8-2.9-3.5
		c-1.4-0.7-2.9-0.8-4.2-0.4c-0.2-0.5-0.1-1,0.1-1.3c0.4-1,1.6-1.9,2.7-2.1c1.5-0.3,2.9,0,3.8,0.8c1,0.9,1.3,2.5,0.5,3.4l-0.2,0.3
		l0.3,0.2c0.3,0.2,0.7,0.2,1.1,0c0.6-0.3,1.1-1.1,1.1-1.9c0-0.1,0-0.2,0-0.3c0-0.8,0.1-1.5,0.6-1.8c0.4-0.2,0.9,0,1.3,0.2
		c2.1,1.1,3.3,3.8,2.6,6.1l-0.1,0.2l0.2,0.2c0.2,0.2,0.5,0.2,0.9,0.2c0.4-0.1,0.8-0.4,0.9-0.9c0.1-0.3,0.2-0.7,0.2-1
		c0-0.2,0-0.4,0.1-0.6c0.1-0.5,0.6-1,1.2-1.2c0.9-0.3,2-0.2,2.7,0.3c1.3,0.9,2,2.4,2.7,4.3l0.3,0.7l0.4-0.6c1.1-1.7-0.1-3.9-1.7-5.2
		c-0.2-0.2-0.4-0.3-0.5-0.5c-1.2-1-2.5-2.1-2.6-3.5c-0.1-0.7,0.2-1.4,0.7-1.9c0.5-0.5,1.2-0.8,1.9-0.8c0.7,0,1.3,0.4,1.8,1
		c0.5,0.6,0.7,1.3,0.6,2l-0.1,0.4l0.5,0c0.3,0,0.6-0.2,0.9-0.4c0.3-0.4,0.5-0.9,0.4-1.4c0-0.4-0.1-0.7-0.2-1
		c-0.1-0.3-0.2-0.6-0.2-0.8c-0.1-0.6,0.2-1.2,0.7-1.7c0.5-0.5,1.2-0.6,1.8-0.5c0.6,0.2,1.1,0.6,1.3,1.3c0.2,0.7,0.2,1.4-0.2,1.8
		l-0.6,0.8l1-0.2c0.9-0.2,1.6-0.8,2-1.6c0.6,0.8,0.8,1.9,0.3,2.8l-0.2,0.4l0.4,0.2c0.9,0.3,1.8,0.4,2.7,0.2c0.2,0.6,0.1,1.3-0.3,1.9
		c-0.4,0.7-1.1,1.2-1.8,1.2l-0.7,0l0.4,0.6c0.8,1.1,2.4,0.8,3.4,0.2c0.1-0.1,0.2-0.1,0.4-0.2c0.8-0.4,1.6-0.9,2.4-0.6
		c0.4,0.1,0.7,0.4,1,0.8c0.8,1,1,2.5,0.6,3.9c-0.4,1.4-1.4,2.5-2.7,2.9l-0.4,0.1l0.2,0.4c0.3,0.4,0.7,0.7,1.2,0.8
		c0.9,0.2,2-0.3,2.7-0.9c0.2-0.2,0.4-0.3,0.6-0.5c0.7-0.7,1.4-1.3,2.3-1.3c0,0,0,0,0,0c0.6,0,1,0.3,1.2,0.6c0.5,0.5,0.9,1.4,0.8,2.3
		l0,0.5l0.5-0.2c1-0.3,2.1,0.2,2.6,1c0.4,0.7,0.3,1.5,0,2.2c-0.2,0.2-0.4,0.4-0.5,0.7l-0.7,1.6l1.3-1.2c0.2-0.2,0.3-0.4,0.5-0.6
		c0.3-0.2,0.7-0.2,1.1-0.2c0.5,0.1,1.1,0.4,1.2,1c0.1,0.4,0,0.8-0.3,1.3c-0.8,1.6-2.8,2.6-4.6,2.3l-1.1-0.2l0.7,0.8
		c1.2,1.3,3.4,1.7,4.9,0.7c0.2-0.1,0.3-0.2,0.5-0.3c0.4-0.3,0.8-0.6,1.2-0.6c0.3,0,0.5,0.2,0.6,0.3c0.2,0.3,0.4,0.8,0.3,1.2
		c-0.1,0.8-0.8,1.5-1.3,2l-0.3,0.3l0.4,0.2c1.1,0.7,2.5,0,3.2-1c0.3-0.4,0.5-0.8,0.8-1.3c0.3-0.5,0.5-1,0.9-1.4
		c0.6-0.7,1.6-1.1,2.6-1.1c1.1,0,2,0.5,2.6,1.2c0.5,0.6,0.8,1.6,0.4,2.4c-0.2,0.4-0.6,0.7-1,0.7c-0.2,0-0.6,0.1-0.9-0.2l-0.7-0.6
		l0.1,0.9c0,0.5,0.3,0.8,0.7,1.1c0.7,0.5,1.7,0.5,2.4,0.3c0.2-0.1,0.5-0.1,0.7-0.2c0.8-0.3,1.6-0.5,2.2-0.2c0.5,0.2,0.7,0.6,0.8,0.9
		c0.2,0.6,0.1,1.4-0.2,1.9c-0.6,1.1-1.9,1.7-2.9,2.2l-0.4,0.2l0.3,0.4c0.3,0.4,0.8,0.7,1.4,0.7c1.1,0.1,2.4-0.7,3.1-1.6
		c0.9-1,2.3-2.3,3.4-1.7c0.7,0.4,0.8,1.3,0.9,2.4c0.1,1,0.2,2,0.7,2.7l0.2,0.2l0.3-0.1c1.7-0.6,2.1-2.8,1.5-4.6
		c-0.2-0.7-0.6-1.3-0.9-1.9c-0.4-0.8-0.8-1.6-1-2.4c-0.1-0.5-0.1-0.9,0-1.1c0.3-0.6,0.9-0.8,1.2-0.9c1.2-0.3,2.6,0.2,3.4,1.3
		c0.7,1,0.8,2.5,0.1,3.6l-0.4,0.6l0.8-0.1c1-0.1,1.9-0.7,2.5-1.6c0.4-0.7,0.6-1.5,0.6-2.2c1,0.5,2,1.1,2.5,2.1
		c0.3,0.6,0.3,1.5,0,2.1c-0.2,0.5-0.6,0.8-1,0.8l-1.2,0.2l1.1,0.5c1.6,0.7,3.6,0.2,4.8-1.1c0.7,2,0.3,4.3-1,5.9l-0.3,0.3l0.3,0.2
		c0.8,0.6,1.8,0.3,2.7,0c0.6-0.2,1.2-0.4,1.8-0.3c0.7,0.1,1,0.8,1,1.4c0,0.6-0.2,1.3-0.9,1.5l-1.5,0.4l1.5,0.4
		c1.8,0.4,3.7-0.7,4.2-2.4c0-0.1,0.1-0.2,0.1-0.4c0.1-0.4,0.2-0.7,0.4-0.9c0.4-0.3,1.1,0,1.4,0.2c1.2,0.6,2.3,1.5,3.1,2.5l0.5,0.5
		l0.2-0.7c0.3-1,0.1-2.1-0.5-3.1s-1.5-1.7-2.4-1.9c-0.4-0.1-0.7-0.1-1.1-0.2c-0.5-0.1-1-0.1-1.4-0.3c-0.9-0.4-1.3-1.5-1.1-2.4
		c0.3-0.9,1.2-1.5,2.1-1.4c0.5,0.9,0.7,1.9,0.9,2.9l0.1,0.6l0.5-0.3c0.8-0.5,1.4-1.4,1.6-2.5c0.1-0.8,0-1.6-0.3-2.2
		c2.1,0.2,4.1,1.4,5.2,3.2l0.8,1.3l-0.1-1.5c-0.1-2.1-1.3-4.2-3.3-5.5c-1.7-1.2-3.8-1.6-5.6-1.2c0.6-2.1,0.5-4.3-0.4-6.3
		c0.3-2.1,2.1-3.9,4.2-4.2c2.1-0.3,4.4,1,5.2,3l0.4,0.9l0.3-0.9C196,110.3,195.2,108.8,193.3,107.1z M61.7,140.7
		c-1,0-1.6-0.3-2.2-0.7c0.5-0.4,0.6-1.5,0.6-2.4c0-0.1,0-0.2,0-0.3c0.1-0.1,0.1-0.1,0.2-0.2c0.3-0.3,0.5-0.5,1.8,0.7
		c1.3,1.1,1.2,1.8,1.1,2.5c0,0.1,0,0.2,0,0.4c-0.2,0-0.4,0-0.6,0C62.2,140.7,61.9,140.7,61.7,140.7z M58.3,139
		c-0.3-0.2-0.7-0.5-1.1-0.6c-0.6-0.2-1.1-0.3-1.4-0.3c-0.6-0.1-0.9-0.2-1.6-0.6c-0.1,0-0.1-0.1-0.2-0.1c0.6-0.2,1.7-0.5,2.2-0.6
		c0.7-0.2,1.3-0.1,1.6,0.1c0.5,0.4,0.5,1.2,0.5,1.8C58.3,138.9,58.3,139,58.3,139z M71,153c-0.3-0.1-0.6-0.3-1-0.5
		c-0.4-0.2-0.9-0.5-1.4-0.6c0.4-1,0-2.2-0.2-2.7c0.3-0.3,0.7-0.4,1.1-0.3c0.7,0.2,1.4,1.1,1.5,1.8l0.2,2.3C71.2,153,71.1,153,71,153
		z"/>
</g>
</svg>
