<?xml version="1.0" encoding="utf-8"?>
<!-- Generator: Adobe Illustrator 19.1.0, SVG Export Plug-In . SVG Version: 6.00 Build 0)  -->
<svg version="1.1" id="Layer_1" xmlns="http://www.w3.org/2000/svg" xmlns:xlink="http://www.w3.org/1999/xlink" x="0px" y="0px"
	 viewBox="0 0 250 250" style="enable-background:new 0 0 250 250;" xml:space="preserve">
<style type="text/css">
	.st0{fill:#F89C1C;}
	.st1{fill:#231F20;}
	.st2{fill:#FFFFFF;}
	.st3{fill:#FFC609;}
</style>
<g>
	<g>
		<path class="st0" d="M133.4,59.1V47.3c0-4.8-3.9-8.8-8.8-8.8s-8.8,3.9-8.8,8.8v11.8H105V45c0-10.8,8.8-19.5,19.5-19.5
			c10.8,0,19.5,8.8,19.5,19.5v14.1H133.4z"/>
		<path class="st1" d="M124.6,28c9.4,0,17,7.7,17,17v11.6h-5.8v-9.3c0-6.2-5.1-11.3-11.3-11.3c-6.2,0-11.3,5.1-11.3,11.3v9.3h-5.8
			V45C107.5,35.6,115.2,28,124.6,28 M124.6,23c-12.2,0-22,9.9-22,22v11.6v5h5h5.8h5v-5v-9.3c0-3.5,2.8-6.3,6.3-6.3
			c3.5,0,6.3,2.8,6.3,6.3v9.3v5h5h5.8h5v-5V45C146.6,32.9,136.8,23,124.6,23L124.6,23z"/>
	</g>
	<g>
		<path class="st0" d="M108.6,225.8c-2,0-3.6-1.6-3.6-3.6v-13.5h12.2v13.5c0,2-1.6,3.6-3.6,3.6H108.6z"/>
		<path class="st1" d="M114.7,211.3v11c0,0.6-0.5,1.1-1.1,1.1h-5c-0.6,0-1.1-0.5-1.1-1.1v-11H114.7 M119.7,206.3h-5h-7.2h-5v5v11
			c0,3.4,2.7,6.1,6.1,6.1h5c3.4,0,6.1-2.7,6.1-6.1v-11V206.3L119.7,206.3z"/>
	</g>
	<g>
		<path class="st0" d="M122.1,238.7c-2,0-3.6-1.6-3.6-3.6v-26.3h12.2v26.3c0,2-1.6,3.6-3.6,3.6H122.1z"/>
		<path class="st1" d="M128.2,211.3v23.8c0,0.6-0.5,1.1-1.1,1.1h-5c-0.6,0-1.1-0.5-1.1-1.1v-23.8H128.2 M133.2,206.3h-5H121h-5v5
			v23.8c0,3.4,2.7,6.1,6.1,6.1h5c3.4,0,6.1-2.7,6.1-6.1v-23.8V206.3L133.2,206.3z"/>
	</g>
	<g>
		<path class="st0" d="M135.6,225.8c-2,0-3.6-1.6-3.6-3.6v-13.5h12.2v13.5c0,2-1.6,3.6-3.6,3.6H135.6z"/>
		<path class="st1" d="M141.6,211.3v11c0,0.6-0.5,1.1-1.1,1.1h-5c-0.6,0-1.1-0.5-1.1-1.1v-11H141.6 M146.6,206.3h-5h-7.2h-5v5v11
			c0,3.4,2.7,6.1,6.1,6.1h5c3.4,0,6.1-2.7,6.1-6.1v-11V206.3L146.6,206.3z"/>
	</g>
	<g>
		<path class="st2" d="M101.1,213.8c-3.6,0-6.4-2.9-6.4-6.4V188l3.6,1.8c8.2,4.1,17.1,6.2,26.3,6.2c9.3,0,18.1-2.1,26.3-6.2l3.6-1.8
			v19.3c0,3.6-2.9,6.4-6.4,6.4H101.1z"/>
		<path class="st1" d="M152.1,192v15.3c0,2.2-1.8,3.9-3.9,3.9h-6.5h-7.2h-6.3H121h-6.3h-7.2h-6.5c-2.2,0-3.9-1.8-3.9-3.9V192
			c8.3,4.1,17.6,6.4,27.5,6.4C134.5,198.4,143.8,196.1,152.1,192 M157.1,184l-7.2,3.6c-7.9,3.9-16.4,5.9-25.2,5.9
			c-8.9,0-17.4-2-25.2-5.9l-7.2-3.6v8.1v15.3c0,4.9,4,8.9,8.9,8.9h6.5h7.2h6.3h7.2h6.3h7.2h6.5c4.9,0,8.9-4,8.9-8.9V192V184
			L157.1,184z"/>
	</g>
	<g>
		<path class="st2" d="M150.9,83.4c-8.2-4.1-17.1-6.2-26.3-6.2c-9.2,0-18.1,2.1-26.3,6.2l-3.6,1.8v-23c0-4.4,3.6-8.1,8.1-8.1h43.8
			c4.4,0,8.1,3.6,8.1,8.1v23L150.9,83.4z"/>
		<path class="st1" d="M146.5,56.6c3.1,0,5.6,2.5,5.6,5.6v19c-8.3-4.1-17.6-6.4-27.5-6.4c-9.9,0-19.2,2.3-27.5,6.4v-19
			c0-3.1,2.5-5.6,5.6-5.6h4.8h5.8h22.5h5.8H146.5 M146.5,51.6h-4.8h-5.8h-22.5h-5.8h-4.8c-5.8,0-10.6,4.7-10.6,10.6v19v8.1l7.2-3.6
			c7.9-3.9,16.4-5.9,25.2-5.9c8.9,0,17.4,2,25.2,5.9l7.2,3.6v-8.1v-19C157.1,56.4,152.3,51.6,146.5,51.6L146.5,51.6z"/>
	</g>
	<g>
		<path class="st0" d="M60.4,142.1l-0.1-2.4c-0.1-1.1-0.1-2.1-0.1-3.1c0-3.1,0.2-6.3,0.7-9.4l0.3-2.1h126.7l0.3,2.1
			c0.5,3.1,0.7,6.3,0.7,9.4c0,1,0,2.1-0.1,3.1l-0.1,2.4H60.4z"/>
		<path class="st1" d="M185.8,127.5c0.4,3,0.7,6,0.7,9.1c0,1,0,2-0.1,3H62.8c0-1-0.1-2-0.1-3c0-3.1,0.2-6.1,0.7-9.1H185.8
			 M190.1,122.5h-4.3H63.4h-4.3l-0.6,4.3c-0.5,3.2-0.7,6.5-0.7,9.8c0,1.1,0,2.2,0.1,3.3l0.2,4.8h4.8h123.6h4.8l0.2-4.8
			c0.1-1.1,0.1-2.2,0.1-3.3c0-3.3-0.2-6.5-0.7-9.8L190.1,122.5L190.1,122.5z"/>
	</g>
	<g>
		<path class="st0" d="M63.9,114.9l1.5-3.5c1.9-4.4,4.3-8.6,7.1-12.6l0.7-1H176l0.7,1c2.8,3.9,5.2,8.1,7.1,12.6l1.5,3.5H63.9z"/>
		<path class="st1" d="M174.7,100.4c2.7,3.7,5,7.8,6.8,12.1H67.6c1.8-4.3,4.1-8.3,6.8-12.1H174.7 M177.3,95.4h-2.6H74.4h-2.6
			l-1.5,2.1c-2.9,4.1-5.4,8.5-7.4,13l-2.9,7h7.6h113.9h7.6l-2.9-7c-1.9-4.6-4.4-9-7.4-13L177.3,95.4L177.3,95.4z"/>
	</g>
	<g>
		<path class="st0" d="M124.6,200.9c-10,0-19.6-2.2-28.6-6.7c-5.6-2.8-10.7-6.3-15.3-10.6l-4.6-4.3h97l-4.6,4.3
			c-4.6,4.3-9.7,7.8-15.3,10.6C144.2,198.7,134.6,200.9,124.6,200.9z"/>
		<path class="st1" d="M166.7,181.8c-4.4,4.1-9.3,7.5-14.7,10.2c-8.3,4.1-17.6,6.4-27.5,6.4c-9.9,0-19.2-2.3-27.5-6.4
			c-5.4-2.7-10.3-6.1-14.7-10.2H166.7 M179.4,176.8h-12.7H82.4H69.7l9.3,8.7c4.7,4.4,10.1,8.1,15.9,11c9.3,4.6,19.3,6.9,29.7,6.9
			s20.4-2.3,29.7-6.9c5.8-2.9,11.1-6.6,15.9-11L179.4,176.8L179.4,176.8z"/>
	</g>
	<g>
		<path class="st0" d="M69.1,169.3l-0.7-1.3c-2.2-4-4-8.2-5.4-12.6l-1-3.2h125.1l-1,3.2c-1.3,4.4-3.1,8.6-5.4,12.6l-0.7,1.3H69.1z"
			/>
		<path class="st1" d="M183.8,154.7c-1.3,4.2-3,8.3-5.2,12.1h-108c-2.1-3.8-3.9-7.8-5.2-12.1H183.8 M190.5,149.7h-6.8H65.4h-6.8
			l2,6.5c1.4,4.5,3.3,8.9,5.6,13.1l1.4,2.6h2.9h108h2.9l1.4-2.6c2.3-4.1,4.2-8.5,5.6-13.1L190.5,149.7L190.5,149.7z"/>
	</g>
	<g>
		<path class="st0" d="M81.8,87.8l6.8-4.6c2.3-1.6,4.8-3,7.4-4.3c8.9-4.4,18.5-6.7,28.6-6.7s19.6,2.2,28.6,6.7
			c2.6,1.3,5.1,2.7,7.4,4.3l6.8,4.6H81.8z"/>
		<path class="st1" d="M124.6,74.7c9.9,0,19.2,2.3,27.5,6.4c2.5,1.2,4.9,2.6,7.1,4.1H90c2.3-1.5,4.6-2.9,7.1-4.1
			C105.4,77,114.7,74.7,124.6,74.7 M124.6,69.7c-10.4,0-20.4,2.3-29.7,6.9c-2.7,1.3-5.3,2.8-7.7,4.5l-13.5,9.1H90h69.2h16.3
			L162,81.2c-2.4-1.6-5-3.2-7.7-4.5C145,72.1,135,69.7,124.6,69.7L124.6,69.7z"/>
	</g>
	<g>
		<path class="st3" d="M67.3,102.9c-2.7,0-4.8-2.2-4.8-4.8V87.6c0-2.7,2.2-4.8,4.8-4.8h114.5c2.7,0,4.8,2.2,4.8,4.8v10.4
			c0,2.7-2.2,4.8-4.8,4.8H67.3z"/>
		<path class="st1" d="M181.9,85.3c1.3,0,2.3,1,2.3,2.3v10.4c0,1.3-1,2.3-2.3,2.3h-7.1H74.4h-7.1c-1.3,0-2.3-1-2.3-2.3V87.6
			c0-1.3,1-2.3,2.3-2.3H90h69.2H181.9 M181.9,80.3h-22.7H90H67.3c-4,0-7.3,3.3-7.3,7.3v10.4c0,4,3.3,7.3,7.3,7.3h7.1h100.3h7.1
			c4,0,7.3-3.3,7.3-7.3V87.6C189.2,83.6,185.9,80.3,181.9,80.3L181.9,80.3z"/>
	</g>
	<g>
		<path class="st3" d="M55.3,130c-2.7,0-4.8-2.2-4.8-4.8v-10.4c0-2.7,2.2-4.8,4.8-4.8h138.7c2.7,0,4.8,2.2,4.8,4.8v10.4
			c0,2.7-2.2,4.8-4.8,4.8H55.3z"/>
		<path class="st1" d="M193.9,112.4c1.3,0,2.3,1,2.3,2.3v10.4c0,1.3-1,2.3-2.3,2.3h-8.1H63.4h-8.1c-1.3,0-2.3-1-2.3-2.3v-10.4
			c0-1.3,1-2.3,2.3-2.3h12.4h113.9H193.9 M193.9,107.4h-12.4H67.6H55.3c-4,0-7.3,3.3-7.3,7.3v10.4c0,4,3.3,7.3,7.3,7.3h8.1h122.4
			h8.1c4,0,7.3-3.3,7.3-7.3v-10.4C201.3,110.7,198,107.4,193.9,107.4L193.9,107.4z"/>
	</g>
	<g>
		<path class="st3" d="M55.3,157.2c-2.7,0-4.8-2.2-4.8-4.8v-10.4c0-2.7,2.2-4.8,4.8-4.8h138.7c2.7,0,4.8,2.2,4.8,4.8v10.4
			c0,2.7-2.2,4.8-4.8,4.8H55.3z"/>
		<path class="st1" d="M193.9,139.6c1.3,0,2.3,1,2.3,2.3v10.4c0,1.3-1,2.3-2.3,2.3h-10.2H65.4H55.3c-1.3,0-2.3-1-2.3-2.3v-10.4
			c0-1.3,1-2.3,2.3-2.3h7.6h123.6H193.9 M193.9,134.6h-7.6H62.8h-7.6c-4,0-7.3,3.3-7.3,7.3v10.4c0,4,3.3,7.3,7.3,7.3h10.2h118.3
			h10.2c4,0,7.3-3.3,7.3-7.3v-10.4C201.3,137.9,198,134.6,193.9,134.6L193.9,134.6z"/>
	</g>
	<g>
		<path class="st3" d="M67.3,184.3c-2.7,0-4.8-2.2-4.8-4.8v-10.4c0-2.7,2.2-4.8,4.8-4.8h114.5c2.7,0,4.8,2.2,4.8,4.8v10.4
			c0,2.7-2.2,4.8-4.8,4.8H67.3z"/>
		<path class="st1" d="M181.9,166.8c1.3,0,2.3,1,2.3,2.3v10.4c0,1.3-1,2.3-2.3,2.3h-15.1H82.4H67.3c-1.3,0-2.3-1-2.3-2.3v-10.4
			c0-1.3,1-2.3,2.3-2.3h3.3h108H181.9 M181.9,161.8h-3.3h-108h-3.3c-4,0-7.3,3.3-7.3,7.3v10.4c0,4,3.3,7.3,7.3,7.3h15.1h84.3h15.1
			c4,0,7.3-3.3,7.3-7.3v-10.4C189.2,165,185.9,161.8,181.9,161.8L181.9,161.8z"/>
	</g>
</g>
</svg>
