<?xml version="1.0" encoding="utf-8"?>
<!-- Generator: Adobe Illustrator 19.1.0, SVG Export Plug-In . SVG Version: 6.00 Build 0)  -->
<svg version="1.1" xmlns="http://www.w3.org/2000/svg" xmlns:xlink="http://www.w3.org/1999/xlink" x="0px" y="0px" width="1024px"
	 height="1024px" viewBox="32 792 1024 1024" style="enable-background:new 32 792 1024 1024;" xml:space="preserve">
<style type="text/css">
	.st0{opacity:0;fill:#FFFFFF;}
	.st1{fill:#F89C1C;}
	.st2{fill:#003375;}
	.st3{fill:#FFFFFF;}
	.st4{fill:#FFCF46;}
	.st5{opacity:0.5;fill:none;stroke:#FFFFFF;stroke-width:2;stroke-linecap:round;stroke-miterlimit:10;enable-background:new    ;}
</style>
<g id="Layer_2">
	<rect x="32" y="792" class="st0" width="1024" height="1024"/>
</g>
<g id="Layer_1">
	<g>
		<g>
			<path class="st1" d="M695.3,848.1c-1.6,0.7-3.1,1.8-4.4,3.5v-5l-0.2,0.1c-2.9,2.6-10.1,4.1-10.1,4.1h-0.1v1.4h0.1
				c1.8,0.2,3.7,1.7,3.7,4.2v5.9c0,5.1-1.9,6.1-3.8,6.4h-0.1l-0.5,1.5h15.4l-0.5-1.5h-0.1c-2.7-0.4-3.9-2.5-3.9-6.4v-3.7l-0.2,0.1
				c-0.8,0.5-1.6,1.6-2,2.2c0.6-2,1.5-3.7,2.7-4.9c1.5-1.5,3.7-2.3,5.8-2.3c0.7,0,1.4,0.1,2.1,0.3h0.1l2.3-7.1
				C701.7,847,698.7,846.5,695.3,848.1"/>
			<path class="st1" d="M632.5,868.9c-2.2-0.4-4-1.8-4-6.5v-15.7c-2,1.9-10.3,4.1-10.3,4.1v1.2c1.9,0.2,3.8,1.6,3.8,4.3v6
				c0,4.7-1.5,6.2-3.9,6.5l-0.4,1.3H633L632.5,868.9z"/>
			<path class="st1" d="M609.5,845c0-0.4,0.6-0.4,1.5-0.4c3.5,0,7.5,1.7,8.2,3.2l1.1-0.4c0,0-2.3-4.5-2.4-8.4
				c-12,2.2-22.9,0.1-23.7,0.1c-0.4,4.4-2.4,8.3-2.4,8.3l1.2,0.4c0.8-1.6,4.7-3.2,8.2-3.2c0.9,0,1.5,0,1.5,0.4v17.4
				c0,4.7-2.4,6.2-4.8,6.5l-0.4,1.3H615l-0.4-1.3c-2.4-0.3-4.8-1.7-4.8-6.3c-1.2,1-3.8,1.8-3.8,1.8c1.1-0.6,2.7-2.9,3.6-4.4
				c0.1-0.2,0.2-0.4,0.2-0.8C609.5,859,609.5,845,609.5,845"/>
			<path class="st1" d="M677.3,862.3c-0.9,1.7-2.8,4.3-6.5,4.3c-4,0-5.2-4-5.2-4l0,0l14.4-4.8c-1.2-6.2-5.8-10.7-12.4-9.7
				c-6.2,1-10.5,6.9-9.3,13.4c1.2,6.9,6.9,10.7,13,9.6c4.3-0.7,7.4-3.4,9.1-7.6L677.3,862.3z M664.8,859.1c0,0-0.2-0.6-0.3-1.6
				c-0.2-1.7,0.2-4.5,2.8-5.4c2.7-0.8,4.3,1,5.2,2.5c0.5,0.9,0.7,1.7,0.7,1.7S667.3,858.3,664.8,859.1"/>
			<path class="st1" d="M633.2,841.8l2.9-6.9c-4.7-0.1-13.1,3-13.1,12.4C624.9,844.1,628.5,841.7,633.2,841.8"/>
			<path class="st1" d="M662.5,834.9c-3.6-0.7-14.7,2.8-17.8,12.6c-0.2,0-0.4,0-0.6,0l0,0c-6.5,0-11.7,4.9-11.7,11
				c0,3.6,2.5,10.4,12,10.4c2.4,0,4.9,3.4,4.9,7.6s-2.3,6.5-4.9,6.5c-2.8,0-5-2.3-5-6.5c0-2.2,0.7-4.2,1.7-5.6
				c-3.3-1.8-9.7,0.2-9.7,6.3c0,5.6,4.9,10.4,12.8,10.4l0,0c7.1,0,12.8-4.2,12.8-10.7c0-3.9-2.1-7.4-5.4-9.6
				c-0.1-0.1-0.3-0.1-0.4-0.2c2.7-2,4.5-5.2,4.5-8.7c0-3.4-1.6-7-4.8-9.1c-2,0.8-3.8,2.1-5.1,3.3c1.2,1.2,2.1,3.5,2.1,6.2
				c0,1.8-0.4,3.5-1.1,4.8c-0.1,0.2-0.2,0.4-0.4,0.6c-0.2,0.3-0.4,0.5-0.6,0.8c-0.6,0.5-1.2,0.7-1.9,0.7c-0.8,0-1.6-0.3-2.1-0.9
				c-1.1-1.3-1.9-3.5-1.9-6c0-3.8,1.7-6.9,3.8-7.1c-0.1,0.9,0,1.8,0,2.8c3.2-5.3,7-9.4,14.5-10.1L662.5,834.9z"/>
			<path class="st1" d="M734.1,850.6c0.2,0.2,0.3,0.4,0.5,0.5c0.8,0.7,1.6,1.5,2.3,2l0.1,0.1c0.1,0.1,0.2,0.1,0.3,0.2l2.7,1.9
				l2.2,1.5l0,0c0.4,0.3,0.7,0.5,1,0.8c0.7,0.6,1.6,1.4,2.5,2.1l0,0c1,0.7,2.4,2,3.9,2.5c0.1,0,0.1,0.1,0.2,0.1
				c0.1,0,0.1,0.1,0.2,0.1l0,0c0.8,0.3,1.8,0.5,2.8,0.6l0,0l0,0c0.3,0,1,0.1,1.7,0.1c0.2,0,0.5,0,0.8,0l0,0l0,0
				c0.8-0.1,1.6-0.2,2.4-0.5h0.1l0,0l0,0c0.8-0.3,1.3-0.6,1.6-0.8l0,0l0,0c0.3-0.2,0.7-0.5,0.9-0.8l0,0c0.4-0.4,1-1.2,1.4-2.5
				c0.1-0.5,0.2-1,0.2-1.5l0,0c0-0.1,0-0.2,0-0.4c0-0.6,0-1.6-0.4-2.2c-0.1-0.2-0.3-0.4-0.4-0.6l0,0c-0.6-0.6-1.2-0.8-1.6-0.9
				c-0.1,0-0.4,0-0.6,0c-0.1,0-0.2,0-0.2,0.1c-0.8,0.2-1.3,0.8-1.5,1.1s-0.3,0.6-0.5,0.9c-0.1,0.2-0.3,0.4-0.5,0.4s-0.4-0.2-0.4-0.6
				c0-0.1,0-0.1,0-0.2c0-0.3,0.3-0.8,0.5-1.3c0.3-0.5,0.9-1.5,2.5-1.9c0,0,0.3-0.1,1-0.1l0,0c0.2,0,0.5,0,0.9,0.1
				c-3.4-8.7-11.5-14.8-21-14.8c-2.7,0-5.4,0.5-7.9,1.5c0.1,0.4,0.2,0.9,0.2,1.3c-0.4-0.3-0.9-0.3-0.9-0.3s1.5,2.5-0.8,5.5
				c0.1-0.8-0.6-1.1-1-1c-0.4,0.1-0.6,0.4-0.6,0.8l0,0c0,0.2,0,0.4,0.1,0.6l0,0c0,0,0,0,0,0.1l0,0l0,0l0,0c0,0,0,0,0,0.1l0,0
				c0,0,0,0.1,0.1,0.1l0,0l0,0l0.1,0.1l0,0c0.2,0.2,0.4,0.4,0.7,0.5l0,0l0,0c1.5,0.6,2,1.7,2.9,3.2
				C733.2,849.7,733.9,850.4,734.1,850.6"/>
			<path class="st1" d="M761.8,862.5L761.8,862.5c-0.1,0.2-0.2,0.2-0.2,0.3c-2,2.2-5.3,3.6-9.9,3.6c-0.1,0-0.1,0-0.2,0l0,0l0,0
				c0,0.1,0.1,0.1,0.1,0.2v0.1c0.2,0.4,0.4,1,0.7,1.8v0.1c1.1,2.3,1.1,3.9,1.4,5.7c0,0.1,0,0.2,0,0.2c0.1,0.5,0.3,0.9,0.4,1.4
				c0.1,0.2,0.8,1.2,1.1,1.9c4.1-4.2,6.9-9.9,7.2-16.3l0,0c0,0,0,0,0,0.1s-0.1,0.1-0.1,0.2c0,0,0,0.1-0.1,0.1c0,0.1-0.1,0.1-0.1,0.2
				s-0.1,0.1-0.1,0.1l-0.1,0.1C761.9,862.4,761.8,862.4,761.8,862.5"/>
			<path class="st2" d="M748.2,833.9c-5.1-1.5-10.4-1.4-15.1,0.1l-0.3,0.1c4.6-1.3,9.6-1.3,14.5,0.2c13.7,4.2,21.7,18.9,17.5,32.7
				c-2.8,9.3-10.3,16-19.2,18.3l0,0c10.4-1.7,17.4-9.4,20-18.1C770,852.9,761.9,838.1,748.2,833.9"/>
			<path class="st2" d="M762.3,867.8c0.9-3,1.3-5.8,1.2-8.6c-0.4-13.4-10.9-24-23.6-24c-2.9,0-5.8,0.6-8.4,1.6
				c0.1,0.2,0.1,0.4,0.2,0.6c0,0,0,0,0,0.1s0,0.1,0.1,0.2v0.1c0,0.1,0,0.2,0.1,0.3c0.1,0.4,0.2,0.9,0.2,1.4
				c-0.4-0.3-0.9-0.3-0.9-0.3s0.1,0.2,0.2,0.4c1.9-0.3,5.2-0.3,7.2,0.5c-2.5-0.2-5.1-0.1-7,0.3c0.2,1,0.1,2.6-1.2,4.3
				c0.1-0.8-0.6-1.1-1-1c-0.4,0.1-0.6,0.4-0.6,0.8l0,0c0,0.2,0,0.4,0.1,0.6l0,0c0,0,0,0,0,0.1l0,0l0,0l0,0c0,0,0,0,0,0.1l0,0
				c0,0,0,0.1,0.1,0.1l0,0l0,0l0.1,0.1l0,0c0.2,0.2,0.4,0.4,0.7,0.5l0,0l0,0c0.4-0.4,1.8-1.2,3.6-2l0,0c0.4-0.9,1.3-1.3,1.3-1.3
				c-0.2,0.2-0.4,0.6-0.4,1l0,0c1.9-0.8,4.1-1.3,5.6-1.1c-0.5,0.6-0.6,1.5-0.6,1.5c0.4-0.6,1-1,1.5-1.2c-1.1,2.7-2.3,7.6-2.1,11.4
				c0,0.1,0,0.2,0,0.3l1.3,0.9l2.2,1.5l0,0c0.4,0.3,0.7,0.5,1,0.8c0,0,0.1,0,0.1,0.1c-0.1-0.1-0.1-0.3-0.1-0.4
				c-0.4-1.1-0.7-2.2-0.9-3.3c-0.3-0.1-1.2-0.4-2.2-0.1c0,0,0.9-0.8,1.9-0.6h0.1c-0.2-1.1-0.3-2.1-0.3-3.2c-0.4-0.1-1.2-0.2-2-0.1
				c0,0,0.8-0.8,1.9-0.5c0.1,0,0.1,0,0.2,0c-0.1-2.5,0.2-4.8,0.6-6.3c0.2,0.4,0.3,1,0.4,1.9c0,0,0.3-1,0.3-1.8
				c1,0.6,2.2,1.8,3.3,3.3c0.7-0.4,1.4-1.4,1.4-1.4c-0.1,0.9-0.8,1.9-0.9,2.1c0.6,0.8,1.2,1.7,1.7,2.7c0.7-0.4,1.3-1.4,1.3-1.4
				c-0.1,0.9-0.7,1.9-0.9,2.1c0.5,0.9,0.9,1.7,1.3,2.5l1.2-1.3c-0.2,0.7-0.7,1.4-1,1.7c0.7,1.6,1.1,2.9,1,3.6
				c3-4.9,1.7-9.7-0.5-12.6c-0.9-1.3-2.1-2.3-3.7-3c1.8,0.5,3.2,1.8,3.6,2.1c0.3,0.1,0.7,0.3,1,0.5c0-0.7-0.3-1.5-0.3-1.5
				c0.6,0.5,1,1.6,1.1,2c0.3,0.2,0.6,0.4,1,0.6c0.2,0.2,0.5,0.3,0.7,0.5c0-0.6-0.2-1.1-0.2-1.1c0.4,0.4,0.6,1,0.8,1.5
				c0.7,0.5,1.2,1,1.4,1.6c0.3-1.1,0.2-2.4-0.3-3.7c3.9,4.3,6.4,10.2,6.4,16.7c0,6.8-2.9,12.9-7.2,17.3l0,0
				c-0.1,0.1-0.2,0.2-0.3,0.3l0,0c-0.1,0.1-0.2,0.2-0.3,0.3c0,0-0.1,0-0.1,0.1c-0.1,0.1-0.1,0.1-0.2,0.2l-0.1,0.1
				c-0.1,0.1-0.1,0.1-0.2,0.2l-0.1,0.1c-0.1,0.1-0.1,0.1-0.2,0.2c0,0-0.1,0-0.1,0.1c-0.1,0.1-0.1,0.1-0.2,0.2c0,0-0.1,0-0.1,0.1
				c-0.1,0.1-0.1,0.1-0.2,0.2c0,0,0,0-0.1,0.1c-0.1,0.1-0.1,0.1-0.2,0.2c0,0,0,0-0.1,0.1c-0.1,0.1-0.2,0.1-0.2,0.2c0,0,0,0-0.1,0
				c-0.1,0.1-0.2,0.1-0.2,0.2c0,0,0,0-0.1,0c-0.1,0.1-0.2,0.1-0.3,0.2l0,0c-0.1,0.1-0.2,0.1-0.3,0.2l0,0c-0.1,0.1-0.2,0.1-0.3,0.2
				l0,0c-0.1,0.1-0.2,0.1-0.3,0.2l0,0c-0.1,0.1-0.2,0.1-0.3,0.2l0,0c-0.1,0.1-0.2,0.1-0.3,0.2l0,0c-0.6,0.4-1.3,0.7-2,1l0,0
				c-3.9,1.8-8.3,2.6-13.1,2.2l0,0c-0.1,0-0.3,0-0.4,0l0,0c-0.2,0-0.4,0-0.6-0.1l0,0c-0.6-0.1-1.2-0.2-1.9-0.3
				c5,1.5,10.4,0.9,15-0.6C754.4,881.3,760,875.7,762.3,867.8 M736.9,836.8c0.5-0.1,1-0.1,1.4-0.2c0.1,0,0.2,0.1,0.2,0.1
				c0.1,0,0.2-0.1,0.3-0.1c0.2,0,0.4,0,0.6,0c0.4,0.1,0.7,0.2,0.7,0.2c-0.8-0.1-0.9,0.1-0.9,0.1c0.9,0.2,1.5,0.9,2,1.7
				C740.3,837.7,738.6,837,736.9,836.8 M742.8,838.6c0-0.9-0.3-1.6-0.7-2c0.8,0.1,1.6,0.2,2.4,0.4
				C743.5,837.5,743,838.2,742.8,838.6 M744.6,839.1c0.7-0.3,1.4-0.6,2-0.7c-0.2-0.3-0.4-0.5-0.4-0.5c0.3,0.1,0.6,0.2,0.8,0.4
				c0.3,0,0.5-0.1,0.7-0.1c-0.1-0.2-0.3-0.3-0.3-0.3c0.2,0.1,0.4,0.2,0.6,0.3c0.1,0,0.2,0,0.3,0c0.5,0.2,1,0.5,1.5,0.7
				C748.1,838.6,746.2,838.6,744.6,839.1"/>
			<path class="st3" d="M741.6,850.4c-0.1,0-0.4,0-0.4,0c0,0.9,0.1,2.7,0.1,2.7s0.2-0.1,0.5-0.1
				C741.8,852.9,741.6,851.2,741.6,850.4"/>
			<path class="st3" d="M737.5,841.1c2.3-0.5,3.8,0,3.8,0C739.6,840.1,737.5,841.1,737.5,841.1"/>
			<path class="st3" d="M741.3,854.1l0.2,1.4l0.7,0.4c-0.1-0.3-0.3-1.7-0.3-1.7C741.7,854.1,741.3,854.1,741.3,854.1"/>
			<path class="st3" d="M741.6,846.4l-0.1-0.9c-0.3,1.8-0.4,3.6-0.4,3.9c0,0,0.3,0,0.4,0C741.5,848,741.5,847.4,741.6,846.4"/>
			<path class="st3" d="M749.7,839.8c-1.9-0.4-4.1-0.5-6.3,0.4c0,0,1-0.3,2.8-0.3c2.8,0.1,3.9,1.9,3.9,1.9c-0.4-0.9-1-1.4-1.5-1.7
				c0.1,0,0.1,0,0.2,0c2.6,0.8,3.8,2.9,3.8,2.9c-0.3-1.2-1-1.9-1.6-2.4c1.5,0.6,3.5,2.2,4.5,4.5
				C755.4,845.2,754.7,840.9,749.7,839.8"/>
			<path class="st3" d="M743.4,841.4c0,0,0.6,0.2,1.6,0.6h-0.1c0.1,0,0.2,0,0.3,0.1l0,0c0.5,0.3,1.4,0.9,1.6,2.7
				c0-0.1,0.2-1.1-0.2-1.9c0.1,0.1,0.2,0.1,0.3,0.2c0.9,0.7,1.9,2,1.7,4.5c0,0,0.5-1.8-0.1-3.2l0,0c0.8,0.9,2.2,2.7,1.6,6.5
				c0,0,0.7-1.8,0.6-3.4c0.8,1.7,1.4,4.3,1,7c0,0,1.4-4.1-1-8.4C749.6,843.8,746.6,841.8,743.4,841.4"/>
			<path class="st3" d="M742.5,839.6L742.5,839.6v-0.2c0,0,0,0,0-0.1V839.6c-0.1-0.6-0.4-3-2.1-3.2
				C741.9,836.9,742.5,839.5,742.5,839.6"/>
			<path class="st3" d="M746.4,837.5c-2.8-0.1-3.5,2.2-3.5,2.2C742.9,839.6,744.2,837.6,746.4,837.5"/>
			<path class="st3" d="M733.2,838.2c5-1.4,8.2,1.4,8.2,1.4C737.7,835.9,733.2,838.2,733.2,838.2"/>
			<path class="st3" d="M747.2,834.3c-4.9-1.5-9.9-1.5-14.5-0.2l0,0c-0.8,0.3-1.6,0.5-2.4,0.9c0.2,0.3,0.7,0.9,1.2,1.9
				c2.6-1.1,5.5-1.6,8.4-1.6c12.7,0,23.2,10.7,23.6,24c0.1,2.7-0.3,5.6-1.2,8.6c-2.4,7.9-7.9,13.4-14.8,16c-4.6,1.5-10,2-15,0.6
				c1.9,0.9,4.9,1.5,7.4,1.5c2,0,3.9-0.2,5.7-0.7c8.9-2.2,16.4-9,19.2-18.3C769,853.2,761,838.5,747.2,834.3"/>
			<path class="st4" d="M751.6,866.3c4.6,0,7.9-1.4,9.9-3.6c0,0,0.1-0.1,0.1-0.2l0.1-0.1c0-0.1,0.1-0.1,0.1-0.2l0.1-0.1l0.1-0.1
				c0-0.1,0.1-0.1,0.1-0.2c0,0,0-0.1,0.1-0.1c0-0.1,0.1-0.1,0.1-0.2c0,0,0,0,0-0.1s0.1-0.2,0.1-0.2l0,0c0.2-0.3,0.3-0.6,0.4-1l0,0
				c0.1-0.2,0.2-0.5,0.2-0.6l0,0c0.1-0.1,0.1-0.3,0.2-0.5c0-0.1,0.1-0.2,0.1-0.4c0-0.1,0-0.1,0-0.2c0.1-0.7,0.3-1.5,0.3-2.1v-0.1
				c0-0.1,0-0.3,0-0.4c0-0.4-0.1-0.9-0.2-1.3l0,0c0-0.2-0.1-0.3-0.1-0.4c-0.1-0.3-0.3-0.6-0.4-0.8c-0.2-0.3-0.3-0.5-0.3-0.5
				c-0.2-0.3-0.5-0.6-0.7-0.8l0,0l0,0c-0.9-0.8-1.7-0.9-2.1-0.9l0,0c-0.6,0-1,0.1-1,0.1c-1.5,0.3-2.2,1.4-2.5,1.9s-0.5,0.9-0.5,1.3
				c0,0.1,0,0.1,0,0.2c0,0.4,0.2,0.6,0.4,0.6s0.4-0.1,0.5-0.4c0.1-0.2,0.3-0.5,0.5-0.9c0.2-0.3,0.7-0.9,1.5-1.1c0.1,0,0.2,0,0.2-0.1
				c0.2,0,0.4,0,0.6,0c0.4,0,1,0.2,1.6,0.9l0,0c0.2,0.2,0.3,0.4,0.4,0.6c0.4,0.7,0.4,1.6,0.4,2.2c0,0.1,0,0.3,0,0.4l0,0
				c0,0.6-0.1,1.1-0.2,1.5c-0.4,1.3-1,2.1-1.4,2.5l0,0c-0.3,0.3-0.6,0.6-0.9,0.8l0,0l0,0c-0.3,0.2-0.8,0.5-1.6,0.8l0,0l0,0h-0.1
				c-0.8,0.3-1.6,0.5-2.4,0.5l0,0l0,0c-0.3,0-0.5,0-0.8,0c-0.7,0-1.4-0.1-1.7-0.1l0,0l0,0c-1-0.1-2-0.4-2.8-0.6l0,0
				c-0.1,0-0.2-0.1-0.2-0.1c-0.1,0-0.1-0.1-0.2-0.1c-1.5-0.6-2.9-1.8-3.9-2.5l0,0c-0.9-0.7-1.8-1.5-2.5-2.1c-0.3-0.3-0.6-0.5-1-0.8
				l0,0l-2.2-1.5l-2.7-1.9c-0.1-0.1-0.2-0.1-0.3-0.2l-0.1-0.1c-0.7-0.5-1.6-1.3-2.3-2c-0.1-0.2-0.3-0.3-0.5-0.5s-0.9-0.9-1.2-1.5
				c-0.9-1.5-1.4-2.6-2.9-3.2l0,0l0,0c-0.3-0.2-0.5-0.3-0.7-0.5l0,0l-0.1-0.1l0,0l0,0c0,0,0-0.1-0.1-0.1l0,0c0,0,0,0,0-0.1l0,0l0,0
				l0,0c0,0,0,0,0-0.1l0,0c-0.1-0.2-0.1-0.4-0.1-0.6l0,0c0-0.3,0.2-0.7,0.6-0.8c0.5-0.1,1.1,0.2,1,1c2.3-3,0.8-5.5,0.8-5.5
				s0.5,0,0.9,0.3c-0.2-2.9-1.9-4.6-1.9-4.6s0.1-1.2-0.1-1.9c-0.1-0.4-0.3-0.8-0.7-0.7l0,0l0,0l0,0c-0.2,0.1-0.4,0.1-0.6,0.2
				c-0.3,0.1-0.6,0.2-0.8,0.3c-0.2,0.1-0.6,0.3-0.7,0.2c0,0-1.3-1.1-4-0.9c-1.9-0.3-3.9-0.1-4.6,0.4c-0.1,0-0.1-0.1-0.2-0.1
				c-0.4-0.2-0.7-0.4-1.1-0.6l0,0c-0.5-0.3-1-0.6-1.4-0.6c-0.2,0-0.3,0-0.5,0.1c-0.2,0.1-0.4,0.2-0.5,0.6c0,0-0.3,0.7-0.3,1.5
				c0,0.3,0,0.7,0.2,1c-0.1,0.1-2.4,2-2.4,3.9c0,0.2,0,0.4,0.1,0.7c0,0,0.1,0.3,0.4,0.3c0,0,0.1,0,0.2,0c0,0.1-0.5,1.3-0.5,2.7
				c0,0.9,0.2,1.9,0.8,2.6c0,0,0.2,0.2,0.4,0.2s0.4-0.1,0.6-0.3c0,0.1-0.2,0.8-0.4,1.6c-0.2,0.9-0.4,1.9-0.6,2.4
				c-0.2,0.8-0.4,1.9-0.4,2.8c0,0.4,0,0.7,0.1,1c0,0-0.6,1.6-0.6,5c0,0.8,0,1.6,0.1,2.6c0.2,1.8,1,5.6,4.2,8.5c0,0,0.2,0.1,0.4,0.4
				c0.7,0.7,2.2,2.3,2.4,4.3c0,0.1,0,0.2,0,0.3c0,1.1-1,4.7-1.4,6.2l-0.9,0.9c-0.5-0.2-0.9-0.3-1.3-0.3c-1,0-1.5,0.7-1.6,0.7
				c-0.3,0-0.5-0.1-0.7-0.1c-0.8,0-1.4,0.3-1.7,0.7s-0.4,1-0.4,1.6c0,1.2,0.4,2.4,0.5,2.5l0,0c0.1,0.4,0.3,0.8,0.5,1.3l0,0l0,0
				c0,0,0.1-0.5,0.3-1l0.1-0.1c0,0,0.1,0,0.1,0.1c0.2,0.5,0.4,1,0.8,1.5l0,0l0,0c0.1-0.3,0.4-0.9,0.6-1.2c0-0.1,0.1-0.1,0.1-0.1
				c0.1,0,0.1,0,0.1,0.1c0.1,0.3,0.4,0.8,1.1,1.4l0,0l0,0c0,0,0.1-0.7,0.4-0.9c0,0,0.1,0,0.2,0c0.2,0,0.4,0,0.7,0c0.2,0,0.3,0,0.5,0
				s0.4,0,0.4,0.1c0.1,0.3,0.3,0.6,0.6,0.9l0,0l0,0c0.1-0.2,0.2-0.6,0.4-0.9c0.1-0.1,0.2-0.1,0.2-0.1h0.2h8.1c0.2,0,0.4,0,0.5,0
				c0.8,0,1-0.2,1.7-1.1c0.1-0.1,0.4-0.7,0.6-1.4c0.2-0.9,1.1-1.8,1.1-1.8s-0.2-0.6-0.4-1.4s-0.4-1.7-0.5-2.3
				c-0.1-0.4-0.4-1.6-0.6-2.5l0,0c0.9-1,2.4-3.3,2.5-3.4c0.6,0.1,1.1,0.4,1.4,0.6c0.3,0.2,0.5,0.4,0.6,0.5c0,2.7,2.6,5.5,3.8,6.4
				c0.6,0.4,1.2,0.7,1.7,0.9s0.8,0.2,0.8,0.3s0.1,0.1,0.1,0.2c0,0.5-0.8,0.8-1.3,1.2c-0.2-0.3-0.8-0.4-1.2-0.4
				c-0.7,0-1.1,0.6-1.1,0.6s-0.6-0.5-1.6-0.1s-1.3,1.4-1.2,2.2c5.3,0.6,10.1-0.2,14.2-2.1c0-0.3-0.1-0.5-0.2-0.7
				c-0.2-0.4-1-1.1-1.1-1.2c-0.1-0.1-0.2-0.2-0.2-0.3l0,0l0,0l0,0l-0.6-0.8l0,0l0,0l0,0l0,0l0,0c-0.2-0.2-0.4-0.5-0.5-0.8l0,0l0,0
				l0,0l0,0c0,0,0-0.1-0.1-0.1l0,0v-0.1c0-0.1,0.1-0.2,0.2-0.2c0.1,0,0.2,0,0.3,0.1c0.2,0.2,0.7,0.6,0.8,0.7l0,0
				c0.2,0.1,1.9,1.5,3.1,2.5c1.7-1,3.3-2.2,4.8-3.6c0.1-0.1,0.2-0.2,0.3-0.3c-0.4-0.7-1.1-1.7-1.1-1.9c-0.2-0.5-0.3-1-0.4-1.4
				c0-0.1,0-0.2,0-0.2c-0.3-1.8-0.3-3.4-1.4-5.7v-0.1c-0.3-0.9-0.5-1.5-0.7-1.8v-0.1c0-0.1,0-0.1-0.1-0.2l0,0l0,0
				C751.5,866.3,751.5,866.3,751.6,866.3"/>
			<path class="st2" d="M761.7,862.6L761.7,862.6c0.1-0.2,0.2-0.2,0.2-0.3l0.1-0.1l0.1-0.1c0-0.1,0.1-0.1,0.1-0.2c0,0,0-0.1,0.1-0.1
				c0-0.1,0.1-0.1,0.1-0.2c0,0,0,0,0-0.1c0-0.1,0.1-0.2,0.1-0.2l0,0c0.1-0.2,0.2-0.5,0.3-0.7l0,0c-0.5-0.6-1.1-0.8-1.7-0.8
				c-0.3,0.5-0.6,0.9-0.8,1.1l0,0l0,0h0.1c0.2,0,0.4,0.1,0.6,0.2c0.2,0.1,0.3,0.3,0.3,0.5c0,0.1,0,0.2-0.1,0.2
				c-0.4,0.6-0.9,1-1.3,1.3c0-0.1,0.1-0.3,0.1-0.5c0-0.4-0.1-0.9-0.6-1l0,0c-0.3,0.2-0.8,0.5-1.6,0.8l0,0l0,0l0,0l0,0
				c0.3,0.3,0.6,0.9,0.6,1.4c0,0.1,0,0.2,0,0.2c-0.6,0.3-1.5,0.6-2.2,0.8c0-0.1-0.2-1.1-0.9-1.8l0,0c-0.3,0-0.5,0-0.8,0
				c-0.7,0-1.4-0.1-1.7-0.1l0,0c0.1,0,1.6,0.7,1.8,2.2c-0.6,0.1-1.5,0.2-2.1,0.2c-0.5-0.7-0.9-2.4-3-3.1c-1.5-0.6-2.9-1.8-3.9-2.5
				l0,0c0.1,0.1,0.3,0.4,0.6,0.8c1,1.6,1.2,3.1,1.2,4.6c0,0.7,0,1.5,0,2.2c0,1,0.1,1.9,0.5,2.7l0,0l0,0c0.3-0.1,0.7-2.2,0.7-4.2
				c0-0.4,0-0.8-0.1-1.2c0.9,1.5,1.1,2.8,1.1,4c0,0.9-0.1,1.7-0.1,2.5c0,1.6,0.4,3.1,2.7,5l0,0c-3-3.8,0.5-8.1-4.1-13.5
				c1.5,1.2,2.9,3.5,3.1,3.9l0,0c0.1,0,0.1,0,0.2,0c4.6,0,7.9-1.4,9.9-3.6C761.6,862.7,761.6,862.7,761.7,862.6"/>
			<path class="st2" d="M762.9,856.4c-0.4,0-0.7,0.2-0.9,0.3l0,0v0.1l0,0c0,0.5-0.1,1-0.2,1.4c0.5-0.2,1.4-0.2,1.8,0.3l0,0
				c0.1-0.5,0.2-1.2,0.2-1.7C763.7,856.7,763.3,856.4,762.9,856.4"/>
			<path class="st2" d="M761,853.4c0.3-0.7,0.9-1,1.4-1l0,0c-0.1-0.1-0.2-0.2-0.3-0.3l0,0l0,0c-0.4-0.4-0.9-0.6-1.2-0.7
				c-0.6,0.3-0.7,1-0.7,1.5C760.4,853,760.7,853.2,761,853.4L761,853.4z"/>
			<path class="st2" d="M756.4,855.2c0.2,0,0.4-0.1,0.5-0.4c0.1-0.2,0.3-0.5,0.5-0.9c0.2-0.3,0.7-0.9,1.5-1.1l0,0l0,0
				c-0.1-0.2-0.2-0.4-0.2-0.7c0-0.2,0.1-0.5,0.3-0.7l0,0c-1.5,0.3-2.1,1.4-2.4,1.8c-0.3,0.5-0.5,0.9-0.5,1.3c0,0.1,0,0.1,0,0.2
				C755.9,855,756.1,855.2,756.4,855.2"/>
			<path class="st2" d="M761.7,854.3c0.2,0.3,0.2,0.7,0.3,1c0.6-0.5,1.3-0.5,1.8-0.1l0,0c0-0.2-0.1-0.4-0.1-0.6l0,0
				c0-0.2-0.1-0.3-0.1-0.4c0-0.1-0.1-0.2-0.2-0.4l0,0C762.8,853.6,762,854,761.7,854.3"/>
			<path class="st2" d="M747.1,880.5c0,0-0.6,0.3-1,0.4c-0.6,0.2-1.9,0.1-3.5,0.2l0,0l0,0c0.2-0.3,0.3-0.7,1.3-0.8
				c0.5-0.1,1.1-0.2,1.6-0.3s0.8-0.3,0.8-0.3l0,0l0,0l0,0l0,0l0,0l0,0L747.1,880.5L747.1,880.5L747.1,880.5L747.1,880.5z"/>
			<path class="st2" d="M742.3,856.8L742.3,856.8c2.1,2.5,2.4,5.4,2.4,8c0,0.9,0,1.8,0,2.6c0,1.1,0.1,2.1,0.4,2.9c0-0.1,0-0.2,0-0.2
				c0-2.1,0.9-4.5,0.9-6.9C745.9,861,745.2,858.8,742.3,856.8"/>
			<path class="st2" d="M735.3,852c-0.1-0.2-0.5-0.8-1.2-1.4c-0.2-0.2-0.9-0.9-1.2-1.5c-0.9-1.5-1.4-2.6-2.9-3.2l0,0l0,0
				c1.3,1.6,1.2,2.7,1.3,3.6c0,0.6,0.1,1.4,0.2,1.9c0.2,1.5,0.8,2,1.6,3.2l0,0l0,0c0-0.1,0-0.2,0-0.3c0-2.3-0.9-3.6-0.9-4.5
				c0-0.1,0-0.3,0.1-0.4c3,2.9,1.7,6.4,3.7,9.4c2.5,3.7,1.9,7.3,3.5,10l0,0c-0.1-0.5-0.1-1-0.1-1.6c0-2.8,0.9-6.4,0.9-8.8
				c0-0.3,0-0.5,0-0.8c2.5,2.1,0.7,9.7,2.5,12.5l0,0l0,0c0-2.5,0.5-5,0.5-7.3c0-2.8-0.4-5.4-3.3-7.8l-2.5-1.7
				c-0.1-0.1-0.2-0.1-0.3-0.2c0.4,0.5,0.8,1.3,0.9,1.5c0.6,1,0.9,1.7,0.9,2.6c0,0.7-0.2,1.5-0.5,2.7
				C736.9,858.4,737.4,855.2,735.3,852"/>
			<path class="st2" d="M747.1,880.5l-0.6-0.8l0,0l0,0l0,0l0,0l0,0l0,0c0,0-0.4,0.1-0.8,0.3c-0.5,0.1-1.1,0.3-1.6,0.3
				c-1,0.1-1.2,0.6-1.3,0.8l0,0l0,0c1.6-0.2,2.9,0,3.5-0.2C746.5,880.7,747.1,880.5,747.1,880.5L747.1,880.5L747.1,880.5
				L747.1,880.5"/>
			<path class="st2" d="M718.1,836.7c0.7,0,1.4,0.1,2,0.1c0.7,0,1.4-0.1,1.7-0.7l0,0l0,0c-0.4,0.2-0.8,0.3-1.2,0.3
				c-0.8,0-1.4-0.4-2.2-0.4c-0.3,0-0.6,0.1-0.9,0.2c0.5-0.8,1.2-1,1.6-1c0.1,0,0.2,0,0.3,0c0.4,0,0.5,0.4,1.1,0.5c0.1,0,0.2,0,0.3,0
				c0.3,0,0.4-0.1,0.7-0.1c0.1,0,0.2,0,0.3,0l0,0l0,0c-0.3-0.3-0.5-0.7-0.7-1.1l0,0c-0.2-0.1-0.4-0.2-0.6-0.2
				c-0.4,0-0.7,0.3-0.7,0.3s-0.1,0.1-0.2,0.1c-0.1,0.1-0.3,0.1-0.5,0.1s-0.4-0.1-0.5-0.3c0,0-0.1-0.1-0.1-0.2c0,0,0,0,0-0.1
				c0-0.3,0.3-0.8,1.5-1.4c-2.1,0.3-2.6,0.8-2.6,1.3c0,0.3,0.3,0.6,0.3,0.6c-0.1,0-2,0.6-2.3,3.2
				C716.1,836.9,717.1,836.7,718.1,836.7"/>
			<path class="st2" d="M722.9,848.8c0.2,0,0.5,0.1,0.8,0.1c0.6,0,1.2-0.3,1.8-1.7l0,0c-0.5,0.4-1.2,0.6-1.9,0.6c-1,0-1.9-0.4-2-1.2
				l0,0c-1.4-3.4-3.1-2.3-3.1-4.8l0,0l0,0c-0.4,0-0.7,0.4-0.8,0.7c-0.2-0.5-0.3-1-0.3-1.5s0.1-0.9,0.3-1.4l0,0l0,0
				c-0.7,0.2-1.2,0.7-1.2,0.8c0.1-1.1,0.9-2.3,2.1-3c-3.3,0.6-3.9,2.8-3.9,3.7c0,0.1,0,0.2,0,0.2l0,0l0,0c0.3-0.4,0.6-0.6,0.9-0.7
				c0,0.2,0,0.3,0,0.5c0,1.8,0.9,3.7,2.2,4.7c-0.8-0.2-1.5-0.7-1.7-1l0,0l0,0c-0.6,1.8-0.8,3.5-0.8,4.9c0,0.2,0,0.4,0,0.6
				c0.1,1.7,0.5,3,1.2,4.1c1.1,1.6,3.7,4.7,4.6,6.2l0,0l0,0c1-2.7,0.8-6.8,2.6-9l0,0c-3.1,1.7-2.5,4.7-3.5,5.9
				c-0.4-0.5-3.8-3.5-3.8-7.5c0-0.4,0-0.8,0.1-1.2c1.5,2.9,2.8,4,3.4,4.5l0,0l0,0l0,0C719.9,852.3,721,849.6,722.9,848.8"/>
			<path class="st2" d="M722.3,834.4c0,0.2,0.1,0.5,0.3,0.6l0,0l0,0c0.1-0.6,0.3-0.9,0.8-1.2l0,0l0,0
				C722.5,833.8,722.3,834.1,722.3,834.4"/>
			<path class="st2" d="M724.4,834L724.4,834L724.4,834c0.4,0.3,0.7,0.8,0.7,1.2l0,0l0,0c0.1-0.1,0.2-0.3,0.2-0.5
				C725.3,834.4,725,834,724.4,834L724.4,834z"/>
			<path class="st2" d="M723,837.3L723,837.3L723,837.3L723,837.3c0,0,0.4,0.4,0.8,0.9c0.5,0.5,1,0.6,1,0.9c0.1,0.2,0.1,0.5,0.1,0.8
				c0,0.2,0,0.3-0.1,0.4c-0.5,0-0.9,0.1-1.3,0.1l0,0l0,0c0,0.7,0,1.3-0.1,1.7c0,0.2-0.1,0.2-0.1,0.2s-0.1-0.1-0.2-0.2
				c-0.1-0.2-0.5-1.3-0.6-1.7l0,0l0,0c-0.2,0-0.5,0-0.9-0.3c0.5-0.3,0.9-0.4,1.5-0.7l0,0c-2.1,0.1-3.1,0.6-3.2,0.6
				c0,0,0.1-0.1,0.2-0.2c0.2-0.1,0.5-0.3,1.1-0.5l0,0c0-0.1-0.1-0.3-0.1-0.5l0,0c0.3-0.1,0.7-0.1,1-0.1s0.7,0,0.9,0l0,0l0,0
				c-0.8-0.2-1.3-0.2-1.7-0.2c-0.3,0-0.6,0-1,0c0.3-0.2,0.6-0.3,0.8-0.3l0,0l0,0c0.1-0.7,0.5-0.9,0.9-1l0,0c0,0-0.1,0-0.3,0
				c-0.7,0-1.2,0.2-1.5,0.6c-0.3,0.3-0.5,0.8-0.5,1.3c0,0.1,0,0.2,0,0.3c0,0-0.7,0.5-0.7,1.4c0,0.6,0.3,1.4,1.1,2.4l0,0
				c0-0.2-0.1-0.3-0.1-0.5c0-0.7,0.3-1.4,1.1-1.4l0,0c-0.2,0.3-0.3,1-0.3,1.7c0,0.1,0,0.1,0,0.2c0,0.7,0.2,1.6,0.5,2.2
				c0.2,0.4,0.4,0.6,0.6,0.6c0,0,0,0,0.1,0s0.3-0.2,0.5-0.2l0,0l0,0c0-0.4,0.1-1.1,0.1-1.4c0-0.1,0-0.2,0.1-0.2l0.1,0.1
				c0.1,0.3,0.3,0.9,0.4,1.2l0,0c0.1,0,0.2,0,0.4,0h0.1c0.5,0,0.9,0.1,1.1,0.1l0,0c0.1-0.2,0.3-0.8,0.4-1.1c0-0.1,0.1-0.2,0.1-0.2
				s0.1,0.1,0.1,0.2c0,0.3,0.1,0.7,0.1,1c0,0.1,0,0.2,0,0.3l0,0l0,0l0,0c0,0,0.2,0.1,0.3,0.1c0.2,0,0.3-0.1,0.3-0.5
				c0-0.1,0-0.1,0-0.2v-0.1c0-0.5,0.1-1.4,0.2-1.8c0.3-1,0.2-1,0.7-1.8c0.6-0.3,1.1-1,1.1-1.7c0-0.2,0-0.5-0.1-0.7
				c0,0-0.1,0.5-0.3,0.8c-0.1-0.1-0.9-0.2-1.9-0.3c0.2,0.1,0.7,0.2,1,0.4c0.4,0.1,0.7,0.3,0.7,0.3s-0.3,0.4-0.7,0.4
				c-0.1,0-0.1,0-0.2,0c-0.2,0.6-0.5,1.2-0.7,1.6c-0.1,0.2-0.1,0.2-0.2,0.2c0,0,0,0,0-0.1l0,0c0-0.4,0.1-1,0.1-1.8l0,0l0,0
				c-0.2-0.1-0.5-0.2-0.7-0.2c0.1-0.3,0.1-0.5,0.1-0.7c0-0.1,0-0.2,0-0.4l0,0c0-0.3,0.7-0.8,1.2-1.6l0,0c0,0-0.1-0.3-0.4-0.4
				c-0.1,0-0.2-0.1-0.3-0.1s-0.3,0-0.5,0.1c-0.1,0-0.1,0-0.2,0c-0.3,0-0.6-0.2-0.9-0.3H724c-0.3,0-0.7,0.2-0.8,0.3
				C723.2,837.2,723,837.3,723,837.3"/>
			<path class="st2" d="M725.8,835c0,0.2,0,0.3-0.1,0.4l0,0l0,0c0.2-0.1,0.6-0.6,0.6-1.1c0-0.1,0-0.2-0.1-0.3
				c-0.2-0.4-0.7-0.8-1.9-1C725.3,833.3,725.8,834.3,725.8,835"/>
			<path class="st2" d="M721.8,835L721.8,835c-0.1-0.2-0.2-0.5-0.2-0.8c0-0.5,0.2-1.1,1-1.5l0,0c-1.1,0.1-1.5,0.4-1.6,0.8v0.1
				C720.9,834.2,721.7,834.9,721.8,835"/>
			<path class="st2" d="M735.8,884.8c0.3,0,0.5,0,0.8,0c-0.2-0.3-0.4-0.7-0.5-1.1C735.9,884.1,735.8,884.5,735.8,884.8"/>
			<path class="st2" d="M737.7,884.9c0.3,0,0.7,0,1,0c-0.3-0.4-0.5-0.9-0.5-1.3C737.7,883.9,737.6,884.5,737.7,884.9"/>
			<path class="st2" d="M740,884.8c0.4,0,0.8-0.1,1.3-0.1c0,0-0.1,0-0.1-0.1c-0.3-0.2-0.7-0.5-0.8-1.1
				C739.9,883.9,739.9,884.5,740,884.8"/>
			<path class="st2" d="M747.8,883c0.3-0.1,0.6-0.2,0.9-0.4c0-0.3-0.1-0.5-0.2-0.7c-0.2-0.4-1-1.1-1.1-1.2
				C747.4,880.8,748.1,882.1,747.8,883"/>
			<path class="st2" d="M752.3,880.4c0.4-0.3,0.8-0.6,1.2-0.9l0,0c-0.4-0.5-1.1-1.3-1.5-1.7l0,0c-1.6-1.2-3.7-3-5-6
				c0,0.2,0,0.5,0,0.7c0,3.9,2.5,4.9,3.7,6.2C751.3,879.4,751.9,880,752.3,880.4"/>
			<path class="st2" d="M754.7,878.4c0.1-0.1,0.2-0.2,0.3-0.3c0.1-0.1,0.2-0.2,0.3-0.3l0,0c-0.4-0.7-1.1-1.7-1.1-1.9
				c-0.2-0.5-0.3-1-0.4-1.4c0-0.1,0-0.2,0-0.2c-0.3-1.8-0.3-3.4-1.4-5.7c0.1,0.3,0.1,0.7,0.1,1.2c0,0.6,0,1.3,0,2.2
				c0,1.5,0.2,3.2,1.1,4.7C753.6,876.7,754.2,877.7,754.7,878.4"/>
			<path class="st2" d="M747.1,879.3L747.1,879.3c0.2,0.1,1.9,1.5,3.1,2.5c0.5-0.3,1-0.6,1.5-0.9c-0.9-0.8-2.9-2.4-5.3-4.5
				c-1.6-1.3-2.3-4.4-2.4-5.7c-0.3,0.7-0.3,1.3-0.3,1.9c0,0.1,0,0.3,0,0.4c0.1,1.1,0.7,2.6,0.8,2.7c0,0-0.3-0.1-0.6-0.2
				c-1-0.4-3.3-1.8-4.3-3l0,0c0.3,0.9,1.2,2,1.3,3c-1.4-1.7-2.9-1.1-4.9-3.2c-0.5-0.6-1.1-1.4-1.1-1.4l0,0l0,0l0,0l0.1,2
				c-0.1-0.1-1.1-0.9-1.9-1c0.1-0.5,0.7-1.5,1.1-2.3c0.8-1.9,2.2-2.6,2.2-5c0-0.6-0.1-1.3-0.3-2.1l0,0c-0.1,2.2-0.9,3.2-1.7,4.1
				c-0.2-0.4-0.3-1.1-0.3-2c0-0.9,0.1-2,0.1-3c0-0.1,0-0.1,0-0.2c0-1.7-0.8-3.9-2.4-6.2l0,0c0.4,1.8,1.1,3.3,1.1,4.9
				c0,0.5-0.1,1-0.3,1.6c0,3.3,0.4,3.7,0.8,5.5c-0.2,0.9-0.8,2.1-1.3,3.1c-0.3,0.5-0.5,1-0.7,1.3c-0.2,0.3-0.3,0.5-0.3,0.5
				c-0.5-1.1-1.7-3.8-3.5-3.8c-0.7,0-1.6,0.4-2.5,1.5l0,0c0.4-0.2,0.8-0.3,1.2-0.3c2.5,0,4.1,3.3,4.1,3.7c-1.2,2.3-3,3.9-3.5,4.9
				c-0.4-2.3-2.3-5.6-3.3-5.6c-0.1,0-0.1,0-0.2,0c-1,0.5-2.4,1.6-2.5,2.3l0,0l0,0c0.5-0.2,1.2-0.6,1.9-0.6c0.3,0,0.6,0.1,0.8,0.3
				c0.4,0.6,2.2,2.4,2.6,4.5c-1,1.5-1.1,2.3-1.1,3.5c0,0.1,0,0.1,0,0.2c-1.6,0.5-2.5,1.6-2.8,2.2c-0.1,0.3-0.6,0.7-0.9,0.7
				c0,0-0.5,0-1.1,0h-1.1c0-0.1,0.1-0.4,0.1-0.8c0-0.5-0.1-1-0.5-1.2c-0.1,0-0.3-0.1-0.4-0.1c-0.6,0-1.1,0.4-1.2,1.2
				c-0.7-0.3-0.8-1-0.8-1.3c0-0.1,0-0.2,0-0.2l0,0l0,0c-0.1,0-0.2,0-0.3,0c-0.7,0-1.2,0.5-1.6,1.2c0-0.1-0.1-0.3-0.1-0.4
				c0-0.4,0.1-0.7,0.1-0.7c-1.5,0-1.8,0.9-2,1.6v0.1c-0.2-0.3-0.3-0.8-0.3-1.2c0-0.7,0.2-1.5,0.7-1.8l0,0c0,0,0.1,0,0.1-0.1l0.1-0.1
				l0,0h0.1l0,0c0.1,0,0.2,0,0.3,0c0,0,0,0,0.1,0h0.1h0.1c0,0,0,0,0.1,0h0.1c0,0,0,0,0.1,0h0.1c0,0,0,0,0.1,0s0.1,0,0.2,0.1l0,0
				c0.1,0,0.1,0,0.1,0.1c0,0,0,0,0.1,0s0.1,0.1,0.2,0.1l0,0l0,0l0,0l0,0c0.4-0.7,0.9-0.9,1.4-0.9c0.6,0,1.1,0.3,1.2,0.4l0,0l0,0
				c0.3-0.4,1.2-1.4,1.2-1.4s1.8-6,2.1-6.7v-0.1c0-0.1,0-0.3,0-0.4c0-1,0.5-2.3,0.5-2.3c0.1-0.1,0.1-0.2,0.2-0.3c0,0,0-0.1,0.1-0.1
				c0-0.1,0.1-0.2,0.1-0.2s0-0.1,0.1-0.1c0-0.1,0.1-0.1,0.1-0.2c0,0,0-0.1,0.1-0.1c0-0.1,0.1-0.1,0.1-0.2c0,0,0-0.1,0.1-0.1
				c0-0.1,0.1-0.1,0.2-0.2c0,0,0,0,0-0.1c0.1-0.1,0.1-0.2,0.2-0.3l0,0c0-0.1,0.1-0.1,0.2-0.2c0,0,0-0.1,0.1-0.1
				c0-0.1,0.1-0.1,0.1-0.2l0,0l0,0c3.1-3.5,7.2-2.6,7.2-7.6c0-0.2,0-0.4,0-0.6l0,0c-0.9,4.4-4.5,2.1-7.9,8c1.8-7.4,5.7-6.6,6.9-9.2
				c0.4-0.8,0.7-1.7,0.7-2.9s-0.3-2.7-1-4.6l0,0l0,0c0,0.1,0,0.1,0,0.2c0,0.1,0,0.3,0.1,0.4c0,0.1,0,0.1,0,0.2c0,0.1,0,0.3,0,0.4
				v0.1v0.1l0,0v0.2v0.2c0,0.1,0,0.1,0,0.1c0,0.1,0,0.3,0,0.4v0.1c0,0.1,0,0.3,0,0.4v0.1c0,0.1,0,0.3-0.1,0.4v0.1
				c0,0.1-0.1,0.3-0.1,0.4v0.1c0,0.1-0.1,0.3-0.1,0.4c0,0,0,0,0,0.1c0,0.1-0.1,0.3-0.1,0.4c0,0,0,0,0,0.1c-0.1,0.1-0.1,0.2-0.2,0.4
				l0,0c-0.1,0.1-0.1,0.3-0.2,0.4l0,0c-0.1,0.1-0.1,0.3-0.2,0.4l0,0c-0.1,0.1-0.1,0.3-0.2,0.4l0,0c-0.9,1.4-1.9,2.6-2.8,3.6l0,0
				c-0.1,0.1-0.1,0.1-0.1,0.2c0,0,0,0.1-0.1,0.1l-0.1,0.1l-0.1,0.1l-0.1,0.1l-0.1,0.1c0,0,0,0.1-0.1,0.1l-0.1,0.1c0,0,0,0.1-0.1,0.1
				c0,0.1-0.1,0.1-0.1,0.2v0.1c0,0.1-0.1,0.1-0.1,0.2v0.1c0,0,0,0.1-0.1,0.1c0,0.1,0,0.1-0.1,0.2c-0.1-0.4-0.2-0.7-0.2-1.1V862
				c0.1-3.2,4-6.2,4.1-10.7v-0.1c0-0.8-0.1-1.7-0.4-2.6l0,0l0,0c0,0.2,0,0.4,0,0.6l0,0c0,3.5-4.5,8.5-5.1,13.8c0,0.2,0,0.4,0,0.6
				c0,0.1,0,0.2,0,0.3v0.1v0.2c0,0.4,0,0.8,0.1,1.2c0-0.1,0-0.2-0.1-0.2c0,0,0,0,0-0.1c0-0.1-0.1-0.2-0.1-0.2s0,0,0-0.1
				c0-0.1-0.1-0.2-0.1-0.2s0,0,0-0.1s-0.1-0.2-0.1-0.2l0,0c-0.1-0.1-0.1-0.2-0.2-0.3c0,0,0,0,0-0.1c-0.1-0.1-0.1-0.2-0.2-0.3l0,0
				c-0.1-0.1-0.1-0.2-0.2-0.3l0,0c-1.3-1.7-3.4-3.4-4.7-5.4l0,0c-0.1-0.1-0.1-0.2-0.2-0.3l0,0c-0.1-0.1-0.1-0.2-0.2-0.3l0,0
				c-0.1-0.1-0.1-0.2-0.2-0.3c0,0,0,0,0-0.1c0-0.1-0.1-0.2-0.1-0.3v-0.1c0-0.1-0.1-0.2-0.1-0.3v-0.1c0-0.1-0.1-0.2-0.1-0.3v-0.1
				c0-0.1,0-0.2-0.1-0.3v-0.1c0-0.1,0-0.2-0.1-0.3v-0.1l0,0l0,0c0,0-0.1,0.8-0.1,1.2c0,6.4,4.6,4.4,5.7,10.3
				c-0.8-2.1-3.5-2.8-5.4-5.5l0,0c1.4,6,5,4.1,5.6,8.5v0.1c0,0.4-0.3,0.9-0.5,1.6c-0.4-1.4-1.6-2.9-2-3.2c-2-1.4-4.1-4.1-4.8-8.2
				c-0.1-0.8-0.2-1.9-0.2-3c0-1.8,0.2-3.7,0.6-4.5c0-0.4-0.1-0.7-0.1-1.1c0-2.2,0.8-4.6,1.3-6.7c0.1-0.2,0.1-0.4,0.1-0.6
				c0-0.6-0.3-0.9-0.7-0.9c-0.3,0-0.7,0.2-0.9,0.8c-0.1-0.2-0.4-1.1-0.4-2.2s0.3-2.3,1.2-3.2c0,0-0.1,0-0.1-0.1
				c-0.1,0-0.2-0.1-0.4-0.1s-0.6,0.1-0.9,0.3c0,0,0-0.1,0-0.2c0-1.3,1.8-3.2,2.5-3.8l0,0l0,0c-0.1-0.3-0.3-1.2-0.3-2
				c0-0.3,0-0.7,0.1-0.9c0-0.1,0.1-0.2,0.1-0.2l0,0c-0.2,0.1-0.4,0.2-0.5,0.6c0,0-0.3,0.7-0.3,1.5c0,0.3,0,0.7,0.2,1
				c-0.1,0.1-2.4,2-2.4,3.9c0,0.2,0,0.4,0.1,0.7c0,0,0.1,0.3,0.4,0.3c0,0,0.1,0,0.2,0c0,0.1-0.5,1.3-0.5,2.7c0,0.9,0.2,1.9,0.8,2.6
				c0,0,0.2,0.2,0.4,0.2s0.4-0.1,0.6-0.3c0,0.1-0.2,0.8-0.4,1.6c-0.2,0.9-0.4,1.9-0.6,2.4c-0.2,0.8-0.4,1.9-0.4,2.8
				c0,0.4,0,0.7,0.1,1c0,0-0.6,1.6-0.6,5c0,0.8,0,1.6,0.1,2.6c0.2,1.8,1,5.6,4.2,8.5c0,0,0.2,0.1,0.4,0.4c0.7,0.7,2.2,2.3,2.4,4.3
				c0,0.1,0,0.2,0,0.3c0,1.1-1,4.7-1.4,6.2l-0.9,0.9c-0.5-0.2-0.9-0.3-1.3-0.3c-1,0-1.5,0.7-1.6,0.7c-0.3,0-0.5-0.1-0.7-0.1
				c-0.8,0-1.4,0.3-1.7,0.7s-0.4,1-0.4,1.6c0,1.2,0.4,2.4,0.5,2.5l0,0c0.1,0.4,0.3,0.8,0.5,1.3l0,0l0,0c0,0,0.1-0.5,0.3-1l0.1-0.1
				c0,0,0.1,0,0.1,0.1c0.2,0.5,0.4,1,0.8,1.5l0,0l0,0c0.1-0.3,0.4-0.9,0.6-1.2c0-0.1,0.1-0.1,0.1-0.1c0.1,0,0.1,0,0.1,0.1
				c0.1,0.3,0.4,0.8,1.1,1.4l0,0l0,0c0,0,0.1-0.7,0.4-0.9c0,0,0.1,0,0.2,0c0.2,0,0.4,0,0.7,0c0.2,0,0.3,0,0.5,0s0.4,0,0.4,0.1
				c0.1,0.3,0.3,0.6,0.6,0.9l0,0l0,0c0.1-0.2,0.2-0.6,0.4-0.9c0.1-0.1,0.2-0.1,0.2-0.1h0.2h8.1c0.2,0,0.4,0,0.5,0
				c0.8,0,1-0.2,1.7-1.1c0.1-0.1,0.4-0.7,0.6-1.4c0.2-0.9,1.1-1.8,1.1-1.8s-0.2-0.6-0.4-1.4s-0.4-1.7-0.5-2.3
				c-0.1-0.4-0.4-1.6-0.6-2.5l0,0c0.9-1,2.4-3.3,2.5-3.4c0.6,0.1,1.1,0.4,1.4,0.6c0.3,0.2,0.5,0.4,0.6,0.5c0,2.7,2.6,5.5,3.8,6.4
				c0.6,0.4,1.2,0.7,1.7,0.9s0.8,0.2,0.8,0.3s0.1,0.1,0.1,0.2c0,0.5-0.8,0.8-1.3,1.2c-0.2-0.3-0.8-0.4-1.2-0.4
				c-0.7,0-1.1,0.6-1.1,0.6s-0.6-0.5-1.6-0.1s-1.3,1.4-1.2,2.2c0.3,0,0.5,0.1,0.8,0.1c-0.1-0.7,0.3-1.5,1.2-1.6
				c0.5,0,0.8,0.3,0.8,0.3s0.3-0.5,0.9-0.6c1-0.1,1.2,0.6,1.2,0.6s0-0.6,0.9-0.7c0.6-0.1,1.5,0.1,2.5,1c0,0-0.3-1.1-1.2-1.3
				c0,0,0.3-0.5,0.6-0.8c0.1-0.2,0.2-0.3,0.2-0.5c0-0.4-0.3-0.7-0.5-0.8c-0.3-0.2-1.2-0.4-1.3-0.4c0,0,0.3-0.5,0.6-0.7
				c0.4-0.2,0.9-0.4,1.3-0.4c0.3,0.1,0.8,0.1,1.4,0.1c0.9,0,1.8-0.1,2.1-0.3l0,0c0-0.1,0.1-0.2,0.2-0.2c0.1,0,0.2,0,0.3,0.1
				C746.5,878.7,747,879.2,747.1,879.3 M730.5,882.1c-1,0.9-0.9,2.4-1.6,3c-0.1,0.2-0.5,0.4-0.9,0.3h-4.6c0.3-1.3,3.4-2.4,3.4-2.4
				c-0.5-1.6,0.7-3.5,1.6-5l0.9-1.1C729.6,878.3,729.9,880.6,730.5,882.1 M739.9,879.7c0,0-0.2-0.1-0.4-0.2
				c-0.8-0.4-3.7-2.6-3.7-4.8c0-0.1,0-0.7,0-0.8c0.3,0.1,3.4,3,5.9,4C740.3,878.3,739.9,879.6,739.9,879.7"/>
			<path class="st2" d="M730,841.3c0.2,0.2,0.5,0.6,0.6,0.9l0,0l0,0c0.1-0.3,0.3-0.8,0.3-1.5l0,0c0-1-0.4-2.1-1.9-2.4l0,0l0,0
				c1,0.9,1,1.6,1,1.7l0,0c0,0-0.5-0.2-0.7-0.2l0,0l0,0c0.1,0.3,0.2,0.7,0.2,1.1c0,0.8-0.3,1.8-0.8,2.9c0.1-0.1,0.2-0.1,0.2-0.1
				C729.2,843.2,729.8,842.4,730,841.3"/>
			<path class="st2" d="M728.1,834.6L728.1,834.6L728.1,834.6c0,0.1,0,0.1,0.1,0.1c0,0.1,0,0.2,0,0.3c0,0.3-0.1,0.5-0.3,0.5
				c-0.1,0-0.1,0-0.2-0.1c-0.3-0.4-0.6-0.5-0.9-0.5c-0.2,0-0.4,0.1-0.5,0.2c-0.1,0.3-0.1,0.6-0.4,1l0,0l0,0h0.1
				c0.2,0,0.4,0.1,0.7,0.1c0.2,0,0.3,0,0.5-0.1c0.2-0.1,0.4-0.1,0.6-0.1c0.6,0,1.4,0.4,1.8,1.1c-0.3-0.3-0.6-0.4-1-0.4
				s-0.8,0.1-1.2,0.1s-0.9-0.1-1.4-0.5l0,0c1,1.1,1.9,1.1,2.6,1.1h0.2c0.1,0,0.2,0,0.4,0c0.5,0,1,0.2,1.7,1.3l0,0l0,0l0,0l0,0
				c-0.2-2.7-1.2-3-2.3-3.1c0.3-0.2,0.5-0.5,0.5-0.8c0-0.4-0.3-0.7-0.8-1c0,0-0.1,0-0.1-0.1c-0.4-0.2-0.9-0.3-1.6-0.4
				C727.1,833.4,727.8,834,728.1,834.6"/>
			<path class="st2" d="M726.2,838.7L726.2,838.7L726.2,838.7c0.3,0,0.6,0,0.9,0c0.6,0,1.2-0.1,1.2-0.1s-0.5-0.2-1.1-0.2
				C726.8,838.4,726.5,838.5,726.2,838.7"/>
			<path class="st3" d="M719.1,835.2c0.1,0,0.2,0,0.3,0c0.4,0,0.5,0.4,1.1,0.5c0.1,0,0.2,0,0.3,0c0.3,0,0.4-0.1,0.7-0.1
				c0.1,0,0.2,0,0.3,0l0,0l0,0c-0.3-0.3-0.5-0.7-0.7-1.1l0,0c-0.2-0.1-0.4-0.2-0.6-0.2c-0.4,0-0.7,0.3-0.7,0.3s-0.1,0.1-0.2,0.1
				c-0.1,0.1-0.3,0.1-0.5,0.1s-0.4-0.1-0.5-0.3c0,0-0.1-0.1-0.1-0.2l0,0c0-0.1,0-0.1,0-0.2c0.2-0.6,1.6-1.1,2.4-0.8l0,0v0.1
				c0,0.6,0.8,1.3,0.8,1.4l0,0c0.1,0.1,0.3,0.3,0.5,0.4c0,0.1-0.2,0.4-0.4,0.7l0,0l0,0c-0.4,0.2-0.8,0.3-1.2,0.3
				c-0.8,0-1.4-0.4-2.2-0.4c-0.3,0-0.6,0.1-0.9,0.2C718,835.4,718.7,835.2,719.1,835.2"/>
			<path class="st3" d="M723,837.3c0,0,0.4,0.4,0.8,0.9c0.5,0.5,1,0.6,1,0.9c0.1,0.2,0.1,0.5,0.1,0.8c0,0.2,0,0.3-0.1,0.4
				c-0.5,0-0.9,0.1-1.3,0.1l0,0l0,0c0,0.7,0,1.3-0.1,1.7c0,0.2-0.1,0.2-0.1,0.2s-0.1-0.1-0.2-0.2c-0.1-0.2-0.5-1.3-0.6-1.7l0,0l0,0
				c-0.2,0-0.5,0-0.9-0.3c0.5-0.3,0.9-0.4,1.5-0.7l0,0c-2.1,0.1-3.1,0.6-3.2,0.6c0,0,0.1-0.1,0.2-0.2c0.2-0.1,0.5-0.3,1.1-0.5l0,0
				c0-0.1-0.1-0.3-0.1-0.5l0,0c0.3-0.1,0.7-0.1,1-0.1s0.7,0,0.9,0l0,0l0,0c-0.8-0.2-1.3-0.2-1.7-0.2c-0.3,0-0.6,0-1,0
				c0.3-0.2,0.6-0.3,0.8-0.3l0,0l0,0c0.1-0.7,0.5-0.9,0.9-1l0,0C722.5,837.1,722.8,837.2,723,837.3L723,837.3z"/>
			<path class="st3" d="M722.2,874.2L722.2,874.2c-0.4,0.1-0.7,0.3-1,0.4l0,0l0,0c0.1-0.5,0.8-1.2,1.5-1.7c0.7-2.3,1-4,0.4-4.9l0,0
				l0,0c0,0.1-0.1,0.1-0.1,0.2c0,0,0,0.1-0.1,0.1c-0.1,0.1-0.1,0.1-0.2,0.2l0,0c-0.1,0.1-0.1,0.2-0.2,0.3c0,0,0,0,0,0.1
				c-0.1,0.1-0.1,0.1-0.2,0.2c0,0,0,0.1-0.1,0.1c0,0.1-0.1,0.1-0.1,0.2c0,0,0,0.1-0.1,0.1c0,0.1-0.1,0.1-0.1,0.2c0,0,0,0.1-0.1,0.1
				c0,0.1-0.1,0.1-0.1,0.2c0,0,0,0.1-0.1,0.1c-0.1,0.1-0.1,0.2-0.2,0.3c0,0-0.5,1.3-0.5,2.3c0,0.1,0,0.3,0,0.4v0.1
				c-0.2,0.7-2,6.7-2.1,6.7c0,0-0.9,1-1.2,1.4l0,0l0,0c-0.1-0.1-0.6-0.4-1.2-0.4c-0.5,0-0.9,0.2-1.4,0.9l0,0l0,0l0,0l0,0
				c-0.1,0-0.1-0.1-0.2-0.1c0,0,0,0-0.1,0l-0.1-0.1c0,0,0,0-0.1,0s-0.1,0-0.2-0.1c0,0,0,0-0.1,0h-0.1c0,0,0,0-0.1,0h-0.1h-0.1h-0.1
				c0,0,0,0-0.1,0c0,0,0,0-0.1,0s-0.2,0-0.3,0l0,0h-0.1l0,0c0,0-0.1,0-0.1,0.1c0,0-0.1,0-0.1,0.1l0,0c-0.5,0.4-0.7,1.1-0.7,1.8
				c0,0.4,0.1,0.9,0.3,1.2v-0.1c0-0.6,0.3-2.1,1.8-2.1c0.1,0,0.2,0,0.4,0l0,0l0,0c0,0.1-0.1,0.3-0.1,0.4l0,0l0,0
				c0,0-0.1,0.3-0.1,0.7c0,0.2,0,0.3,0.1,0.4l0,0c0.4-1.9,1.4-2.8,3-1.5c1.2-1.3,2.4,0.2,2.4,0.2s-0.2-0.8-1-1.2
				C720.3,878.5,721.2,876.9,722.2,874.2L722.2,874.2z"/>
			<path class="st3" d="M739.6,872.3L739.6,872.3c0.3,0.9,1.2,2.1,1.3,3c-1.4-1.7-2.9-1.1-4.9-3.2c-0.5-0.6-1.1-1.4-1.1-1.4l0,0
				c0.6,0.6,1.7,1.3,2.3,1.4c-0.7-1-0.4-2.4-0.4-2.4c0.8,1.3,1.3,1.8,2.2,2.1c-1-1.4-0.5-2.4-0.5-2.4s2,2.4,5.2,3.3l0,0
				c0,0.1,0,0.1,0,0.2c0.1,1.1,0.7,2.6,0.8,2.7c0,0-0.3-0.1-0.6-0.2C742.9,875,740.7,873.5,739.6,872.3L739.6,872.3"/>
			<path class="st3" d="M714,885.3L714,885.3L714,885.3c0,0.1-0.1,0.1-0.1,0.1l0,0c-0.2,0.3-0.2,0.8-0.3,0.9c0-0.1-0.2-0.4-0.3-0.9
				v-0.1l0,0v-0.1l0,0v-0.1l0,0V885c0-0.1,0-0.1,0-0.2c0-0.5,0.2-0.8,0.4-0.8h0.1c0.2,0,0.5,0.1,0.5,0.4
				C714.3,884.6,714.3,884.9,714,885.3"/>
			<path class="st3" d="M716.1,885.3L716.1,885.3c0,0.1,0,0.1,0,0.1v0.1c-0.2,0.5-0.3,1.1-0.3,1.1s-0.3-0.3-0.5-0.9
				c0-0.1-0.1-0.2-0.1-0.3c0-0.1-0.1-0.2-0.1-0.3l0,0c0,0,0,0,0-0.1l0,0c0,0,0,0,0-0.1l0,0v-0.1l0,0l0,0l0,0l0,0c0,0,0,0,0-0.1
				c0,0,0,0,0-0.1l0,0l0,0l0,0l0,0l0,0l0,0l0,0l0,0l0,0c0,0,0,0,0-0.1c0.1-0.1,0.2-0.2,0.4-0.2c0.3,0,0.6,0.2,0.6,0.7
				C716.3,884.9,716.2,885,716.1,885.3"/>
			<path class="st3" d="M718.5,886.5c0,0.1,0,0.1,0,0.2c-0.3-0.5-0.5-0.9-0.6-1.2c0-0.1-0.1-0.3-0.1-0.4c0-0.1,0-0.1,0-0.2
				c0.1-0.4,0.4-0.6,0.6-0.6c0.1,0,0.1,0,0.2,0c0.2,0.1,0.2,0.2,0.2,0.4C718.8,885.1,718.5,885.7,718.5,886.5"/>
			<path class="st3" d="M719.4,850.9c-0.2-0.2-1-1.5-1-3.2c0-0.4,0-0.8,0.1-1.2c0.9,0.7,1.4,1.4,1.6,2
				C719.9,848.9,719.6,849.7,719.4,850.9"/>
			<path class="st3" d="M726,836.2L726,836.2C726,836.3,726,836.2,726,836.2L726,836.2c0.6,0.4,1,0.5,1.5,0.5s0.8-0.1,1.2-0.1
				c0.3,0,0.6,0.1,1,0.4c-0.4-0.7-1.1-1.1-1.8-1.1c-0.2,0-0.4,0-0.6,0.1c-0.2,0.1-0.4,0.1-0.5,0.1c-0.3,0-0.5-0.1-0.7-0.1H726l0,0
				l0,0c0.3-0.4,0.3-0.7,0.4-1c0.1-0.1,0.3-0.2,0.5-0.2c0.3,0,0.6,0.1,0.9,0.5c0.1,0.1,0.1,0.1,0.2,0.1c0.2,0,0.3-0.2,0.3-0.5
				c0-0.1,0-0.2,0-0.3v-0.1l0,0l0,0l0,0c-0.3-0.5-1.1-0.9-1.9-0.8c0,0.1,0.1,0.1,0.1,0.2c0,0.1,0.1,0.2,0.1,0.3c0,0.5-0.4,1-0.6,1.1
				c-0.1,0.1-0.3,0.1-0.3,0.1S725.5,835.8,726,836.2"/>
			<path class="st3" d="M732.1,839.4c-0.2-2.9-1.9-4.6-1.9-4.6s0.1-1.2-0.1-1.9c-0.1-0.4-0.3-0.8-0.7-0.7c0.4,0.7,0.4,1.8,0.3,2.4
				c-0.4-0.4-0.8-0.7-1.6-1l0,0c0,0,0,0,0.1,0c0.6,0.3,0.8,0.7,0.8,1c0,0.3-0.2,0.6-0.5,0.8c1.1,0.1,2.1,0.4,2.3,3.1l0,0l0,0l0,0
				l0,0c0.1,0.6,0.2,1.3,0,2l0,0l0,0c0,0.7-0.2,1.2-0.3,1.5l0,0l0,0c-0.1-0.3-0.3-0.7-0.6-0.9c-0.1,1.1-0.8,1.9-1.3,2.3l0,0
				c0,0-0.5,0.5-1.1,0.8c2-3.1,1.6-6.5-0.2-7c-0.3-0.1-0.6-0.1-0.9,0l0,0c-0.5,0.8-1.2,1.3-1.2,1.6l0,0c0,0.1,0,0.2,0,0.4
				s0,0.4-0.1,0.7c0.3,0,0.5,0.1,0.7,0.2l0,0l0,0c-0.1,0.8-0.1,1.4-0.1,1.8l0,0c0,0.1,0,0.1,0,0.1s0.1-0.1,0.2-0.2
				c0.2-0.4,0.5-1,0.7-1.6c0.1,0,0.2,0,0.2,0c0.4,0,0.6-0.4,0.7-0.4c0,0-0.3-0.1-0.7-0.3s-0.8-0.3-1-0.4c1,0.1,1.8,0.2,1.9,0.3
				c0.2-0.3,0.3-0.8,0.3-0.8c0.1,0.2,0.1,0.5,0.1,0.7c0,0.8-0.5,1.4-1.1,1.7c-0.4,0.9-0.4,0.9-0.7,1.8c-0.1,0.5-0.2,1.4-0.2,1.8v0.1
				c0,0.1,0,0.1,0,0.2c0,0.4-0.2,0.5-0.3,0.5s-0.3-0.1-0.3-0.1l0,0l0,0l0,0c0-0.1,0-0.2,0-0.3c0-0.4,0-0.7-0.1-1
				c0-0.2,0-0.2-0.1-0.2c0,0-0.1,0.1-0.1,0.2c-0.1,0.3-0.3,0.9-0.4,1.1l0,0c-0.2-0.1-0.5-0.1-1.1-0.1h-0.1c-0.2,0-0.3,0-0.4,0l0,0
				c-0.1-0.4-0.3-0.9-0.4-1.2c0-0.1-0.1-0.1-0.1-0.1s0,0-0.1,0.2c0,0.3-0.1,1-0.1,1.4l0,0l0,0c-0.3,0-0.4,0.2-0.5,0.2c0,0,0,0-0.1,0
				c-0.2,0-0.4-0.3-0.6-0.6c0.1,0.5,0,0.9,0,1.3l0,0l0,0c0.1,0.8,1,1.2,2,1.2c0.7,0,1.4-0.2,1.9-0.6l0,0c-0.5,1.4-1.2,1.7-1.8,1.7
				c-0.3,0-0.6-0.1-0.8-0.1c-1.9,0.8-3.1,3.4-3.1,4.4l0,0l0,0l0,0c-0.5-0.4-1.9-1.6-3.4-4.5c-0.1,0.4-0.1,0.8-0.1,1.2
				c0,4.1,3.4,7.1,3.8,7.5c1-1.2,0.4-4.2,3.5-5.9l0,0c-1.8,2.3-1.6,6.3-2.6,9l0,0l0,0c-0.9-1.5-3.4-4.6-4.6-6.2
				c-0.7-1-1.1-2.4-1.2-4.1c-0.4,1.5-0.6,3-0.4,4.5l0,0v0.1c0,0.1,0,0.2,0.1,0.3v0.1c0,0.1,0,0.2,0.1,0.3v0.1c0,0.1,0.1,0.2,0.1,0.3
				v0.1c0,0.1,0.1,0.2,0.1,0.3c0,0,0,0,0,0.1s0.1,0.2,0.1,0.3c0,0,0,0,0,0.1c0.1,0.1,0.1,0.2,0.2,0.3l0,0c0.1,0.1,0.1,0.2,0.2,0.3
				l0,0c0.1,0.1,0.1,0.2,0.2,0.3l0,0c1.3,2,3.4,3.7,4.7,5.4l0,0c0.1,0.1,0.1,0.2,0.2,0.3l0,0c0.1,0.1,0.1,0.2,0.2,0.3c0,0,0,0,0,0.1
				c0.1,0.1,0.1,0.2,0.2,0.3l0,0c0.1,0.1,0.1,0.2,0.1,0.2s0,0,0,0.1s0.1,0.2,0.1,0.2s0,0,0,0.1c0,0.1,0.1,0.2,0.1,0.2s0,0,0,0.1
				c0,0.1,0.1,0.2,0.1,0.2c-0.1-0.4-0.1-0.8-0.1-1.2v-0.2v0.6c0-0.1,0-0.2,0-0.3c0-0.2,0-0.4,0-0.6c0.5-5.4,5-10.4,5.1-13.8l0,0
				c0-0.2,0-0.4,0-0.6l0,0l0,0c0.3,0.9,0.4,1.8,0.4,2.6v0.1c0,4.5-4,7.5-4.1,10.7v0.1c0,0.4,0.1,0.7,0.2,1.1c0-0.1,0-0.1,0.1-0.2
				c0,0,0-0.1,0.1-0.1v-0.1c0,0,0-0.1,0.1-0.2v-0.1c0,0,0.1-0.1,0.1-0.2c0,0,0-0.1,0.1-0.1l0.1-0.1c0,0,0-0.1,0.1-0.1l0.1-0.1
				l0.1-0.1l0.1-0.1c0-0.1,0.1-0.1,0.1-0.1l0.1-0.1c0.1-0.1,0.1-0.1,0.1-0.2l0,0c0.8-1,1.9-2.2,2.8-3.6l0,0c0.1-0.1,0.1-0.2,0.2-0.4
				l0,0c0.1-0.1,0.1-0.2,0.2-0.4l0,0c0.1-0.1,0.1-0.2,0.2-0.4c0,0,0,0,0-0.1c0.1-0.1,0.1-0.2,0.2-0.4c0,0,0,0,0-0.1
				c0-0.1,0.1-0.2,0.1-0.4v-0.1c0-0.1,0.1-0.3,0.1-0.4V855c0-0.1,0.1-0.3,0.1-0.4v-0.1c0-0.1,0.1-0.3,0.1-0.4V854c0-0.1,0-0.3,0-0.4
				v-0.1c0-0.1,0-0.3,0-0.4V853v-0.2v-0.2l0,0v-0.1v-0.1c0-0.1,0-0.3,0-0.4c0-0.1,0-0.1,0-0.2c0-0.1,0-0.3-0.1-0.4
				c0-0.1,0-0.1,0-0.2l0,0l0,0c-0.1-0.4-0.2-0.8-0.3-1.1c0.7,0.5,1.2,1.3,1.6,2c0.1-2-0.8-3.8-1.2-5.6c-0.1-0.7-0.2-1.5-0.1-2
				c0-0.3,0.2-0.7,0.6-0.8c0.5-0.1,1.1,0.2,1,1c2.3-3,0.8-5.5,0.8-5.5S731.7,839.1,732.1,839.4 M727.1,838.7c-0.3,0-0.6,0-0.9,0l0,0
				l0,0c0.3-0.2,0.6-0.3,0.9-0.3c0.6,0,1.1,0.2,1.1,0.2S727.7,838.7,727.1,838.7"/>
		</g>
	</g>
	<g id="X_1_">
		<line class="st5" x1="507.3" y1="821.6" x2="584.4" y2="898.7"/>
		<line class="st5" x1="584.4" y1="822.3" x2="507.3" y2="899.4"/>
	</g>
	<g>
		<g>
			<path class="st3" d="M483.1,1797l3.3-8.6h1.2l3.5,8.6h-1.3l-1-2.6h-3.6l-0.9,2.6H483.1z M485.6,1793.5h2.9l-0.9-2.4
				c-0.3-0.7-0.5-1.3-0.6-1.8c-0.1,0.6-0.3,1.1-0.5,1.6L485.6,1793.5z"/>
			<path class="st3" d="M494.8,1797v-8.6h5.8v1h-4.7v2.7h4v1h-4v3.9H494.8z"/>
			<path class="st3" d="M501.7,1792.8c0-1.4,0.4-2.5,1.1-3.3s1.8-1.2,3-1.2c0.8,0,1.5,0.2,2.1,0.6s1.1,0.9,1.5,1.6s0.5,1.4,0.5,2.3
				c0,0.9-0.2,1.7-0.5,2.3s-0.8,1.2-1.5,1.6s-1.3,0.5-2.1,0.5c-0.8,0-1.5-0.2-2.2-0.6s-1.1-0.9-1.4-1.6S501.7,1793.6,501.7,1792.8z
				 M502.9,1792.8c0,1,0.3,1.9,0.8,2.4s1.3,0.9,2.1,0.9c0.9,0,1.6-0.3,2.1-0.9s0.8-1.5,0.8-2.6c0-0.7-0.1-1.3-0.4-1.8
				s-0.6-0.9-1-1.2s-1-0.4-1.5-0.4c-0.8,0-1.5,0.3-2.1,0.8S502.9,1791.5,502.9,1792.8z"/>
			<path class="st3" d="M511,1792.8c0-1.4,0.4-2.5,1.1-3.3s1.8-1.2,3-1.2c0.8,0,1.5,0.2,2.1,0.6s1.1,0.9,1.5,1.6s0.5,1.4,0.5,2.3
				c0,0.9-0.2,1.7-0.5,2.3s-0.8,1.2-1.5,1.6s-1.3,0.5-2.1,0.5c-0.8,0-1.5-0.2-2.2-0.6s-1.1-0.9-1.4-1.6S511,1793.6,511,1792.8z
				 M512.2,1792.8c0,1,0.3,1.9,0.8,2.4s1.3,0.9,2.1,0.9c0.9,0,1.6-0.3,2.1-0.9s0.8-1.5,0.8-2.6c0-0.7-0.1-1.3-0.4-1.8
				s-0.6-0.9-1-1.2s-1-0.4-1.5-0.4c-0.8,0-1.5,0.3-2.1,0.8S512.2,1791.5,512.2,1792.8z"/>
			<path class="st3" d="M522.9,1797v-7.6h-2.8v-1h6.8v1H524v7.6H522.9z"/>
			<path class="st3" d="M528.1,1797v-8.6h6.2v1h-5.1v2.6h4.8v1h-4.8v2.9h5.3v1H528.1z"/>
			<path class="st3" d="M536,1797v-8.6h3.8c0.8,0,1.3,0.1,1.7,0.2s0.7,0.4,1,0.8s0.4,0.8,0.4,1.3c0,0.6-0.2,1.1-0.6,1.5
				s-1,0.7-1.8,0.8c0.3,0.1,0.5,0.3,0.7,0.4c0.3,0.3,0.6,0.7,0.9,1.1l1.5,2.3h-1.4l-1.1-1.8c-0.3-0.5-0.6-0.9-0.8-1.2
				s-0.4-0.5-0.6-0.6s-0.3-0.2-0.5-0.2c-0.1,0-0.3,0-0.6,0h-1.3v3.8H536z M537.2,1792.2h2.4c0.5,0,0.9-0.1,1.2-0.2s0.5-0.3,0.7-0.5
				s0.2-0.5,0.2-0.8c0-0.4-0.1-0.7-0.4-1s-0.8-0.4-1.4-0.4h-2.7V1792.2z"/>
			<path class="st3" d="M548.1,1797v-8.6h6.2v1h-5.1v2.6h4.8v1h-4.8v2.9h5.3v1H548.1z"/>
			<path class="st3" d="M556,1797v-8.6h1.1v7.6h4.2v1H556z"/>
			<path class="st3" d="M562.7,1797v-8.6h6.2v1h-5.1v2.6h4.8v1h-4.8v2.9h5.3v1H562.7z"/>
			<path class="st3" d="M570.7,1797v-8.6h1.7l2,6.1c0.2,0.6,0.3,1,0.4,1.3c0.1-0.3,0.3-0.8,0.5-1.4l2.1-6h1.5v8.6h-1.1v-7.2
				l-2.5,7.2h-1l-2.5-7.3v7.3H570.7z"/>
			<path class="st3" d="M580.7,1797v-8.6h6.2v1h-5.1v2.6h4.8v1h-4.8v2.9h5.3v1H580.7z"/>
			<path class="st3" d="M588.7,1797v-8.6h1.2l4.5,6.7v-6.7h1.1v8.6h-1.2l-4.5-6.8v6.8H588.7z"/>
			<path class="st3" d="M599.6,1797v-7.6h-2.8v-1h6.8v1h-2.8v7.6H599.6z"/>
		</g>
	</g>
</g>
</svg>
