<?xml version="1.0" encoding="utf-8"?>
<!-- Generator: Adobe Illustrator 19.1.0, SVG Export Plug-In . SVG Version: 6.00 Build 0)  -->
<svg version="1.1" id="Layer_1" xmlns="http://www.w3.org/2000/svg" xmlns:xlink="http://www.w3.org/1999/xlink" x="0px" y="0px"
	 viewBox="0 0 250 250" style="enable-background:new 0 0 250 250;" xml:space="preserve">
<style type="text/css">
	.st0{fill:#FFFFFF;}
	.st1{fill:#231F20;}
	.st2{fill:url(#SVGID_1_);}
	.st3{fill:#39C5F3;}
	.st4{fill:#D1EDFB;}
	.st5{fill:url(#SVGID_2_);}
	.st6{fill:url(#SVGID_3_);}
	.st7{fill:url(#SVGID_4_);}
</style>
<g>
	<g>
		<g>
			<path class="st0" d="M196.5,120.7c-7.2-14.5-20.2-25.3-35.8-29.7l-1.4-0.4l-0.4-1.4c-4.4-15.5-15.3-28.5-29.8-35.6l-5.9-2.9
				l6.3-1.8c5.2-1.5,10.5-2.2,15.8-2.2c31.9,0,57.9,26,57.9,57.9c0,5.2-0.7,10.5-2.1,15.6l-1.8,6.3L196.5,120.7z"/>
			<path class="st1" d="M145.4,49.3c30.5,0,55.4,24.8,55.4,55.4c0,5.2-0.7,10.1-2,14.9c-7.4-15-21-26.4-37.3-31
				c-4.6-16.3-16.1-29.9-31.1-37.2C135.1,50,140.1,49.3,145.4,49.3 M145.4,44.3c-5.6,0-11.1,0.8-16.5,2.3l-12.5,3.6l11.7,5.7
				c13.9,6.8,24.3,19.2,28.5,34.1l0.8,2.7l2.7,0.8c14.9,4.1,27.3,14.5,34.2,28.4l5.8,11.7l3.5-12.6c1.5-5.3,2.2-10.8,2.2-16.2
				C205.8,71.4,178.7,44.3,145.4,44.3L145.4,44.3z"/>
		</g>
		<g>
			<path class="st0" d="M155.3,120.8c-5.6-11.2-14.8-20.5-26.1-26l-5.9-2.9l6.3-1.8c5.2-1.5,10.5-2.2,15.8-2.2
				c4.4,0,8.9,0.5,13.2,1.5l1.5,0.4l0.4,1.5c1.1,4.4,1.6,9,1.6,13.4c0,5.2-0.7,10.5-2.1,15.6l-1.8,6.3L155.3,120.8z"/>
			<path class="st1" d="M145.5,90.4c4.3,0,8.6,0.5,12.6,1.5c1,4.1,1.5,8.4,1.5,12.9c0,5.2-0.7,10.1-2,14.9
				c-5.8-11.8-15.4-21.3-27.2-27.1C135.2,91.2,140.2,90.4,145.5,90.4 M145.5,85.4c-5.6,0-11.1,0.8-16.5,2.3l-12.5,3.6l11.7,5.7
				c10.8,5.3,19.6,14.1,24.9,24.8l5.8,11.7l3.5-12.6c1.5-5.3,2.2-10.8,2.2-16.2c0-4.7-0.6-9.4-1.7-14l-0.7-3l-3-0.7
				C154.7,86,150.1,85.4,145.5,85.4L145.5,85.4z"/>
		</g>
		<g>
			<path class="st0" d="M124,158.4c-14.6-5.8-26.4-17.6-32.3-32.2l-0.4-0.9l0.4-0.9c5.8-14.6,17.6-26.4,32.2-32.3l0.9-0.4l0.9,0.4
				c14.6,5.8,26.4,17.6,32.3,32.2l0.4,0.9l-0.4,0.9c-5.8,14.6-17.6,26.4-32.2,32.3l-0.9,0.4L124,158.4z"/>
			<path class="st1" d="M124.8,94.4c14,5.6,25.3,16.8,30.9,30.8c-5.6,14-16.8,25.3-30.8,30.9c-14-5.6-25.3-16.8-30.9-30.8
				C99.6,111.3,110.8,100.1,124.8,94.4 M124.8,89.1l-1.9,0.8c-15.2,6.2-27.5,18.4-33.5,33.7l-0.7,1.9l0.8,1.9
				c6.2,15.2,18.4,27.5,33.7,33.5l1.9,0.7l1.9-0.8c15.2-6.2,27.5-18.4,33.5-33.7l0.7-1.9l-0.8-1.9c-6.2-15.2-18.4-27.5-33.7-33.5
				L124.8,89.1L124.8,89.1z"/>
		</g>
		<g>
			<path class="st0" d="M123.9,92.5c-6.3-2.3-12.9-3.5-19.6-3.5c-3.7,0-7.5,0.4-11.2,1.1L89,91l1.3-4.1
				c5.3-16.4,17.5-29.5,33.5-35.9l0.9-0.4l0.9,0.4c16,6.4,28.3,19.4,33.6,35.8l1.3,4.1l-4.2-0.8c-3.6-0.7-7.3-1.1-10.9-1.1
				c-6.8,0-13.5,1.2-19.8,3.6l-0.9,0.3L123.9,92.5z"/>
			<path class="st1" d="M124.7,53.3c15.2,6.1,27.1,18.6,32.2,34.2c-3.7-0.7-7.5-1.1-11.4-1.1c-7.3,0-14.2,1.3-20.7,3.7
				c-6.4-2.3-13.3-3.6-20.5-3.6c-4,0-7.9,0.4-11.7,1.2C97.7,72,109.5,59.4,124.7,53.3 M124.7,47.9l-1.9,0.8
				c-16.7,6.7-29.4,20.4-34.9,37.5l-2.6,8.1l8.4-1.7c3.5-0.7,7.1-1.1,10.7-1.1c6.4,0,12.7,1.1,18.7,3.3l1.7,0.6l1.7-0.6
				c6.1-2.3,12.4-3.4,18.9-3.4c3.5,0,7,0.3,10.4,1l8.4,1.6l-2.7-8.1c-5.6-17.1-18.4-30.7-35.1-37.3L124.7,47.9L124.7,47.9z"/>
		</g>
		<g>
			<path class="st0" d="M89.7,120.5c-1.5-5.2-2.2-10.5-2.2-15.8c0-4.4,0.5-8.9,1.5-13.2l0.4-1.5l1.5-0.4c4.4-1.1,9-1.6,13.4-1.6
				c5.2,0,10.5,0.7,15.6,2.1l6.3,1.8l-5.8,2.9c-11.2,5.6-20.5,14.8-26,26.1l-2.9,5.9L89.7,120.5z"/>
			<path class="st1" d="M104.3,90.5c5.2,0,10.1,0.7,14.9,2c-11.8,5.8-21.3,15.4-27.1,27.2c-1.4-4.8-2.1-9.9-2.1-15.1
				c0-4.3,0.5-8.6,1.5-12.6C95.6,91,99.9,90.5,104.3,90.5 M104.3,85.5c-4.7,0-9.4,0.6-14,1.7l-3,0.7l-0.7,3
				c-1.1,4.5-1.6,9.2-1.6,13.8c0,5.6,0.8,11.1,2.3,16.5l3.6,12.5l5.7-11.7c5.3-10.8,14.1-19.6,24.8-24.9l11.7-5.8l-12.6-3.5
				C115.2,86.3,109.8,85.5,104.3,85.5L104.3,85.5z"/>
		</g>
		<g>
			<path class="st0" d="M86.5,159.8c-16.4-5.3-29.5-17.5-35.9-33.5l-0.4-0.9l0.4-0.9c6.4-16,19.4-28.3,35.8-33.6l4.1-1.3l-0.8,4.2
				c-0.7,3.6-1.1,7.3-1.1,10.9c0,6.8,1.2,13.5,3.6,19.8l0.3,0.9l-0.3,0.9c-2.3,6.3-3.5,12.9-3.5,19.6c0,3.7,0.4,7.5,1.1,11.2
				l0.8,4.2L86.5,159.8z"/>
			<path class="st1" d="M87.1,93.3c-0.7,3.7-1.1,7.5-1.1,11.4c0,7.3,1.3,14.2,3.7,20.7c-2.3,6.4-3.6,13.3-3.6,20.5
				c0,4,0.4,7.9,1.2,11.7c-15.6-5.1-28.2-16.9-34.4-32C58.9,110.3,71.5,98.4,87.1,93.3 M93.6,85.9l-8.1,2.7
				c-17.1,5.6-30.7,18.4-37.3,35.1l-0.7,1.9l0.8,1.9c6.7,16.7,20.4,29.4,37.5,34.9l8.1,2.6l-1.7-8.4c-0.7-3.5-1.1-7.1-1.1-10.7
				c0-6.4,1.1-12.7,3.3-18.7l0.6-1.7l-0.6-1.7c-2.3-6.1-3.4-12.4-3.4-18.9c0-3.5,0.3-7,1-10.4L93.6,85.9L93.6,85.9z"/>
		</g>
		<g>
			<path class="st0" d="M104.2,162.6c-4.4,0-8.9-0.5-13.2-1.5l-1.5-0.4l-0.4-1.5c-1.1-4.4-1.6-9-1.6-13.5c0-5.2,0.7-10.5,2.1-15.6
				l1.8-6.3l2.9,5.8c5.6,11.2,14.8,20.5,26.1,26l5.9,2.9l-6.3,1.8C114.9,161.9,109.6,162.6,104.2,162.6z"/>
			<path class="st1" d="M92.1,130.9c5.8,11.8,15.4,21.3,27.2,27.1c-4.8,1.4-9.9,2.1-15.1,2.1c-4.3,0-8.6-0.5-12.6-1.5
				c-1-4.1-1.5-8.4-1.5-12.9C90.1,140.7,90.8,135.7,92.1,130.9 M90.8,117l-3.5,12.6c-1.5,5.3-2.2,10.8-2.2,16.2
				c0,4.7,0.6,9.4,1.7,14l0.7,3l3,0.7c4.5,1.1,9.2,1.6,13.8,1.6c5.6,0,11.1-0.8,16.5-2.3l12.5-3.6l-11.7-5.7
				c-10.8-5.3-19.6-14.1-24.9-24.8L90.8,117L90.8,117z"/>
		</g>
		<g>
			<path class="st0" d="M124.1,199.6c-16-6.4-28.3-19.4-33.6-35.8l-1.3-4l4.2,0.8c3.6,0.7,7.3,1.1,10.9,1.1c6.8,0,13.5-1.2,19.8-3.6
				l0.9-0.3l0.9,0.3c6.3,2.3,12.9,3.5,19.6,3.5c3.7,0,7.5-0.4,11.2-1.1l4.2-0.8l-1.3,4.1c-5.3,16.4-17.5,29.5-33.5,35.9L125,200
				L124.1,199.6z"/>
			<path class="st1" d="M124.9,160.4c6.4,2.3,13.3,3.6,20.5,3.6c4,0,7.9-0.4,11.7-1.2c-5.1,15.6-16.9,28.2-32,34.4
				c-15.2-6.1-27.1-18.6-32.2-34.2c3.7,0.7,7.5,1.1,11.4,1.1C111.5,164.1,118.5,162.8,124.9,160.4 M124.9,155.1l-1.7,0.6
				c-6.1,2.3-12.4,3.4-18.9,3.4c-3.5,0-7-0.3-10.4-1l-8.4-1.6l2.7,8.1c5.6,17.1,18.4,30.7,35.1,37.3l1.9,0.7l1.9-0.8
				c16.7-6.7,29.4-20.4,34.9-37.5l2.6-8.1L156,158c-3.5,0.7-7.1,1.1-10.7,1.1c-6.4,0-12.7-1.1-18.7-3.3L124.9,155.1L124.9,155.1z"/>
		</g>
		<g>
			<path class="st0" d="M145.4,162.6c-5.2,0-10.5-0.7-15.6-2.1l-6.3-1.8l5.8-2.9c11.2-5.6,20.5-14.8,26-26.1l2.9-5.9l1.8,6.3
				c1.5,5.2,2.2,10.5,2.2,15.8c0,4.4-0.5,8.9-1.5,13.2l-0.4,1.5l-1.5,0.4C154.4,162,149.9,162.6,145.4,162.6z"/>
			<path class="st1" d="M157.6,130.8c1.4,4.8,2.1,9.9,2.1,15.1c0,4.3-0.5,8.6-1.5,12.6c-4.1,1-8.4,1.5-12.9,1.5
				c-5.2,0-10.1-0.7-14.9-2C142.2,152.2,151.8,142.6,157.6,130.8 M158.8,116.9l-5.7,11.7c-5.3,10.8-14.1,19.6-24.8,24.9l-11.7,5.8
				l12.6,3.5c5.3,1.5,10.8,2.2,16.2,2.2c4.7,0,9.4-0.6,14-1.7l3-0.7l0.7-3c1.1-4.5,1.6-9.2,1.6-13.8c0-5.6-0.8-11.1-2.3-16.5
				L158.8,116.9L158.8,116.9z"/>
		</g>
		<g>
			<path class="st0" d="M160.1,156.8c0.7-3.6,1.1-7.3,1.1-10.9c0-6.8-1.2-13.5-3.6-19.8l-0.3-0.9l0.3-0.9c2.3-6.3,3.5-12.9,3.5-19.6
				c0-3.7-0.4-7.5-1.1-11.2l-0.8-4.2l4.1,1.3c16.4,5.3,29.5,17.5,35.9,33.5l0.4,0.9l-0.4,0.9c-6.4,16-19.4,28.3-35.8,33.6l-4,1.3
				L160.1,156.8z"/>
			<path class="st1" d="M162.5,93.1c15.6,5.1,28.2,16.9,34.4,32c-6.1,15.2-18.6,27.1-34.2,32.2c0.7-3.7,1.1-7.5,1.1-11.4
				c0-7.3-1.3-14.2-3.7-20.7c2.3-6.4,3.6-13.3,3.6-20.5C163.6,100.8,163.2,96.9,162.5,93.1 M155.9,85.7l1.7,8.4
				c0.7,3.5,1.1,7.1,1.1,10.7c0,6.4-1.1,12.7-3.3,18.7l-0.6,1.7l0.6,1.7c2.3,6.1,3.4,12.4,3.4,18.9c0,3.5-0.3,7-1,10.4l-1.6,8.4
				l8.1-2.7c17.1-5.6,30.7-18.4,37.3-35.1l0.7-1.9l-0.8-1.9c-6.7-16.7-20.4-29.4-37.5-34.9L155.9,85.7L155.9,85.7z"/>
		</g>
		<g>
			<path class="st0" d="M48.5,120.6c-1.5-5.2-2.2-10.5-2.2-15.8c0-31.9,26-57.9,57.9-57.9c5.2,0,10.5,0.7,15.6,2.1l6.3,1.8l-5.8,2.9
				c-14.5,7.2-25.3,20.2-29.7,35.8l-0.4,1.4l-1.4,0.4c-15.5,4.4-28.5,15.3-35.6,29.8l-2.9,5.9L48.5,120.6z"/>
			<path class="st1" d="M104.2,49.4c5.2,0,10.1,0.7,14.9,2c-15,7.4-26.4,21-30.9,37.3c-16.3,4.6-29.9,16.1-37.2,31.1
				c-1.4-4.8-2.1-9.9-2.1-15.1C48.8,74.2,73.7,49.4,104.2,49.4 M104.2,44.4c-33.3,0-60.4,27.1-60.4,60.4c0,5.6,0.8,11.1,2.3,16.5
				l3.6,12.5l5.7-11.7c6.8-13.9,19.2-24.3,34.1-28.5l2.7-0.8l0.8-2.7c4.1-14.9,14.5-27.3,28.4-34.2l11.7-5.8l-12.6-3.5
				C115.2,45.1,109.7,44.4,104.2,44.4L104.2,44.4z"/>
		</g>
		<g>
			<path class="st0" d="M104.3,203.8c-31.9,0-57.9-26-57.9-57.9c0-5.2,0.7-10.5,2.1-15.6l1.8-6.3l2.9,5.8
				c7.2,14.5,20.2,25.3,35.8,29.7l1.4,0.4l0.4,1.4c4.4,15.5,15.3,28.5,29.8,35.6l5.9,2.9l-6.3,1.8C115,203,109.6,203.8,104.3,203.8z
				"/>
			<path class="st1" d="M51,131c7.4,15,21,26.4,37.3,31c4.6,16.3,16.1,29.9,31.1,37.2c-4.8,1.4-9.9,2.1-15.1,2.1
				c-30.5,0-55.4-24.8-55.4-55.4C48.9,140.7,49.7,135.8,51,131 M49.7,117.1l-3.5,12.6c-1.5,5.3-2.2,10.8-2.2,16.2
				c0,33.3,27.1,60.4,60.4,60.4c5.6,0,11.1-0.8,16.5-2.3l12.5-3.6l-11.7-5.7c-13.9-6.8-24.3-19.2-28.5-34.1l-0.8-2.7l-2.7-0.8
				c-14.9-4.1-27.3-14.5-34.2-28.4L49.7,117.1L49.7,117.1z"/>
		</g>
		<g>
			<path class="st0" d="M145.5,203.7c-5.2,0-10.5-0.7-15.6-2.1l-6.3-1.8l5.8-2.9c14.5-7.2,25.3-20.2,29.7-35.8l0.4-1.4l1.4-0.4
				c15.5-4.4,28.5-15.3,35.6-29.8l2.9-5.9l1.8,6.3c1.5,5.2,2.2,10.5,2.2,15.8C203.3,177.7,177.4,203.7,145.5,203.7z"/>
			<path class="st1" d="M198.7,130.7c1.4,4.8,2.1,9.9,2.1,15.1c0,30.5-24.8,55.4-55.4,55.4c-5.2,0-10.1-0.7-14.9-2
				c15-7.4,26.4-21,31-37.3C177.9,157.2,191.4,145.7,198.7,130.7 M200,116.8l-5.7,11.7c-6.8,13.9-19.2,24.3-34.1,28.5l-2.7,0.8
				l-0.8,2.7c-4.1,14.9-14.5,27.3-28.4,34.2l-11.7,5.8l12.6,3.5c5.3,1.5,10.8,2.2,16.2,2.2c33.3,0,60.4-27.1,60.4-60.4
				c0-5.6-0.8-11.1-2.3-16.5L200,116.8L200,116.8z"/>
		</g>
	</g>
	<linearGradient id="SVGID_1_" gradientUnits="userSpaceOnUse" x1="130.255" y1="84.4166" x2="200.75" y2="84.4166">
		<stop  offset="0.1964" style="stop-color:#F27321"/>
		<stop  offset="0.7517" style="stop-color:#FFCA05"/>
	</linearGradient>
	<path class="st2" d="M145.4,49.3c30.5,0,55.4,24.8,55.4,55.4c0,5.2-0.7,10.1-2,14.9c-7.4-15-21-26.4-37.3-31
		c-4.6-16.3-16.1-29.9-31.1-37.2C135.1,50,140.1,49.3,145.4,49.3z"/>
	<path class="st3" d="M159.6,104.8c0,5.2-0.7,10.1-2,14.9c-5.8-11.8-15.4-21.3-27.2-27.1c4.8-1.4,9.9-2.1,15.1-2.1
		c4.3,0,8.6,0.5,12.6,1.5C159.1,96,159.6,100.3,159.6,104.8z"/>
	<path class="st0" d="M155.7,125.2c-5.6,14-16.8,25.3-30.8,30.9c-14-5.6-25.3-16.8-30.9-30.8c5.6-14,16.8-25.3,30.8-30.9
		C138.8,100,150,111.2,155.7,125.2z"/>
	<path class="st4" d="M145.5,86.4c-7.3,0-14.2,1.3-20.7,3.7c-6.4-2.3-13.3-3.6-20.5-3.6c-4,0-7.9,0.4-11.7,1.2
		c5.1-15.6,16.9-28.2,32-34.4c15.2,6.1,27.1,18.6,32.2,34.2C153.2,86.8,149.4,86.4,145.5,86.4z"/>
	<path class="st3" d="M104.3,90.5c5.2,0,10.1,0.7,14.9,2c-11.8,5.8-21.3,15.4-27.1,27.2c-1.4-4.8-2.1-9.9-2.1-15.1
		c0-4.3,0.5-8.6,1.5-12.6C95.6,91,99.9,90.5,104.3,90.5z"/>
	<path class="st4" d="M89.7,125.4c-2.3,6.4-3.6,13.3-3.6,20.5c0,4,0.4,7.9,1.2,11.7c-15.6-5.1-28.2-16.9-34.4-32
		c6.1-15.2,18.6-27.1,34.2-32.2c-0.7,3.7-1.1,7.5-1.1,11.4C86,111.9,87.3,118.9,89.7,125.4z"/>
	<path class="st3" d="M90.1,145.8c0-5.2,0.7-10.1,2-14.9c5.8,11.8,15.4,21.3,27.2,27.1c-4.8,1.4-9.9,2.1-15.1,2.1
		c-4.3,0-8.6-0.5-12.6-1.5C90.6,154.5,90.1,150.2,90.1,145.8z"/>
	<path class="st4" d="M104.2,164.1c7.3,0,14.2-1.3,20.7-3.7c6.4,2.3,13.3,3.6,20.5,3.6c4,0,7.9-0.4,11.7-1.2
		c-5.1,15.6-16.9,28.2-32,34.4c-15.2-6.1-27.1-18.6-32.2-34.2C96.5,163.8,100.3,164.1,104.2,164.1z"/>
	<path class="st3" d="M145.4,160.1c-5.2,0-10.1-0.7-14.9-2c11.8-5.8,21.3-15.4,27.1-27.2c1.4,4.8,2.1,9.9,2.1,15.1
		c0,4.3-0.5,8.6-1.5,12.6C154.1,159.5,149.8,160.1,145.4,160.1z"/>
	<path class="st4" d="M160,125.2c2.3-6.4,3.6-13.3,3.6-20.5c0-4-0.4-7.9-1.2-11.7c15.6,5.1,28.2,16.9,34.4,32
		c-6.1,15.2-18.6,27.1-34.2,32.2c0.7-3.7,1.1-7.5,1.1-11.4C163.7,138.6,162.4,131.7,160,125.2z"/>
	<linearGradient id="SVGID_2_" gradientUnits="userSpaceOnUse" x1="48.8403" y1="84.6204" x2="119.1083" y2="84.6204">
		<stop  offset="0.1964" style="stop-color:#F27321"/>
		<stop  offset="0.7517" style="stop-color:#FFCA05"/>
	</linearGradient>
	<path class="st5" d="M48.8,104.8c0-30.5,24.8-55.4,55.4-55.4c5.2,0,10.1,0.7,14.9,2c-15,7.4-26.4,21-30.9,37.3
		c-16.3,4.6-29.9,16.1-37.2,31.1C49.6,115.1,48.8,110,48.8,104.8z"/>
	<linearGradient id="SVGID_3_" gradientUnits="userSpaceOnUse" x1="48.9307" y1="166.1483" x2="119.4247" y2="166.1483">
		<stop  offset="0.1964" style="stop-color:#F27321"/>
		<stop  offset="0.7517" style="stop-color:#FFCA05"/>
	</linearGradient>
	<path class="st6" d="M104.3,201.3c-30.5,0-55.4-24.8-55.4-55.4c0-5.2,0.7-10.1,2-14.9c7.4,15,21,26.4,37.3,31
		c4.6,16.3,16.1,29.9,31.1,37.2C114.6,200.5,109.6,201.3,104.3,201.3z"/>
	<linearGradient id="SVGID_4_" gradientUnits="userSpaceOnUse" x1="130.5716" y1="165.9452" x2="200.8403" y2="165.9452">
		<stop  offset="0.1964" style="stop-color:#F27321"/>
		<stop  offset="0.7517" style="stop-color:#FFCA05"/>
	</linearGradient>
	<path class="st7" d="M145.5,201.2c-5.2,0-10.1-0.7-14.9-2c15-7.4,26.4-21,31-37.3c16.3-4.6,29.9-16.1,37.2-31.1
		c1.4,4.8,2.1,9.9,2.1,15.1C200.8,176.3,176,201.2,145.5,201.2z"/>
</g>
</svg>
