<?xml version="1.0" encoding="utf-8"?>
<!-- Generator: Adobe Illustrator 19.1.0, SVG Export Plug-In . SVG Version: 6.00 Build 0)  -->
<svg version="1.1" id="Layer_1" xmlns="http://www.w3.org/2000/svg" xmlns:xlink="http://www.w3.org/1999/xlink" x="0px" y="0px"
	 viewBox="0 0 250 250" style="enable-background:new 0 0 250 250;" xml:space="preserve">
<style type="text/css">
	.st0{fill:url(#SVGID_1_);}
	.st1{fill:#231F20;}
	.st2{fill:url(#SVGID_2_);}
	.st3{fill:url(#SVGID_3_);}
	.st4{fill:url(#SVGID_4_);}
	.st5{fill:url(#SVGID_5_);}
	.st6{fill:url(#SVGID_6_);}
	.st7{fill:url(#SVGID_7_);}
</style>
<g>
	<g>
		<g>
			<linearGradient id="SVGID_1_" gradientUnits="userSpaceOnUse" x1="90.0692" y1="176.3691" x2="90.0692" y2="66.1177">
				<stop  offset="0.1964" style="stop-color:#F27321"/>
				<stop  offset="0.7517" style="stop-color:#FFCA05"/>
			</linearGradient>
			<path class="st0" d="M113.3,173c-12.2-4.6-34.3-15.3-46-35.5c-17.1-29.6-5.8-67.5-5.3-69.1l0.7-2.2l2.3,0.5
				c0.7,0.2,17.1,4,33.4,14.8l1.8,1.2l-0.8,1.9c-4.3,9.8-6.5,19.6-6.5,29c0,24.4,14.6,45.3,23.3,55.6l6.2,7.4L113.3,173z"/>
			<path class="st1" d="M64.4,69.1c0,0,16.4,3.8,32.5,14.4c-3.9,8.9-6.7,19.1-6.7,30c0,25.1,14.8,46.4,23.9,57.2
				c-12.8-4.8-33.6-15.2-44.7-34.5C52.7,107.2,64.4,69.1,64.4,69.1 M61,63.2l-1.4,4.4c-0.5,1.6-12.1,40.5,5.5,71.1
				c12.1,20.9,34.8,31.9,47.3,36.6l18,6.8L118,167.4c-8.5-10-22.7-30.4-22.7-53.9c0-9,2.1-18.5,6.3-28l1.7-3.9l-3.5-2.3
				C83,68.3,66.2,64.4,65.5,64.2L61,63.2L61,63.2z"/>
		</g>
		<g>
			<g>
				<linearGradient id="SVGID_2_" gradientUnits="userSpaceOnUse" x1="70.27" y1="180.5508" x2="70.27" y2="106.9819">
					<stop  offset="0.1964" style="stop-color:#F27321"/>
					<stop  offset="0.7517" style="stop-color:#FFCA05"/>
				</linearGradient>
				<path class="st2" d="M95.5,180.6c-15,0-28.1-3.1-38.8-9.3c-29.6-17.1-38.7-55.6-39.1-57.2l-0.5-2.3l2.2-0.7
					c0.5-0.2,13.5-4.1,30.2-4.1c2,0,4.1,0.1,6,0.2l2.1,0.1l0.2,2.1c1.2,10.7,4.2,20.2,8.9,28.3c11.8,20.4,34.1,31.2,46.3,35.8
					l10.4,3.9l-9.2,1.5C108,180,101.6,180.6,95.5,180.6C95.5,180.6,95.5,180.6,95.5,180.6z"/>
				<path class="st1" d="M49.5,109.5c1.9,0,3.9,0.1,5.9,0.2c1.1,9.7,3.7,19.9,9.2,29.3c12.2,21.1,35,32.2,47.6,36.9l1.7,0.6
					c-5,0.8-11.4,1.5-18.4,1.5c-11.8,0-25.5-2-37.6-9c-29-16.7-37.9-55.6-37.9-55.6S32.9,109.5,49.5,109.5 M49.5,104.5
					c-17.1,0-30.4,4-31,4.2l-4.4,1.4l1,4.5c0.4,1.7,9.8,41.2,40.3,58.8c11.1,6.4,24.6,9.7,40.1,9.7c6.3,0,12.7-0.5,19.2-1.6l18.4-3
					l-17.5-6.6l-1.7-0.6c-11.9-4.5-33.7-15-45-34.7c-4.5-7.8-7.4-17-8.5-27.4l-0.5-4.2l-4.2-0.3C53.7,104.5,51.6,104.5,49.5,104.5
					L49.5,104.5z"/>
			</g>
		</g>
		<g>
			<g>
				<linearGradient id="SVGID_3_" gradientUnits="userSpaceOnUse" x1="71.0518" y1="201.8477" x2="71.0518" y2="156.5703">
					<stop  offset="0.1964" style="stop-color:#F27321"/>
					<stop  offset="0.7517" style="stop-color:#FFCA05"/>
				</linearGradient>
				<path class="st3" d="M72.5,201.8c-29.7,0-53.3-25-54.3-26.1l-1.6-1.7l1.6-1.7c0.3-0.3,7.3-7.8,18.5-14.7l1.8-1.1l1.4,1.6
					c5,5.6,10.6,10.2,16.6,13.6c10.8,6.3,24,9.4,39.1,9.4c6.2,0,12.5-0.5,18.9-1.6l11.1-1.8l-7.6,6C107.5,192,91.2,201.8,72.5,201.8
					L72.5,201.8z"/>
				<path class="st1" d="M37.9,159.8c4.8,5.3,10.5,10.2,17.2,14.1c11.2,6.5,24.8,9.8,40.4,9.8c0,0,0,0,0,0c6.3,0,12.8-0.5,19.3-1.6
					l1.6-0.3c-9.4,7.4-25.5,17.6-43.9,17.6c0,0,0,0,0,0c-29,0-52.5-25.3-52.5-25.3S27,166.6,37.9,159.8 M38.9,153.3l-3.6,2.2
					c-11.4,7.1-18.7,14.8-19,15.1l-3.2,3.4l3.2,3.4c1,1.1,25.3,26.9,56.2,26.9c19.4,0,36.3-10.1,47-18.7l15.1-12l-19,3.1l-1.6,0.3
					c-6.2,1-12.5,1.5-18.5,1.5c-14.7,0-27.4-3.1-37.9-9.1c-5.7-3.3-11.1-7.7-16-13.1L38.9,153.3L38.9,153.3z"/>
			</g>
		</g>
		<g>
			
				<linearGradient id="SVGID_4_" gradientUnits="userSpaceOnUse" x1="-2378.7698" y1="177.4893" x2="-2378.7698" y2="49.4185" gradientTransform="matrix(-1 0 0 1 -2253.7695 0)">
				<stop  offset="0.1964" style="stop-color:#F27321"/>
				<stop  offset="0.7517" style="stop-color:#FFCA05"/>
			</linearGradient>
			<path class="st4" d="M123.3,175.9c-1.2-1.1-30-28.3-30-62.5s28.8-61.3,30-62.5l1.7-1.6l1.7,1.6c1.2,1.1,30,28.3,30,62.5
				s-28.8,61.3-30,62.5l-1.7,1.6L123.3,175.9z"/>
			<path class="st1" d="M125,52.8c0,0,29.2,27.1,29.2,60.6c0,33.5-29.2,60.6-29.2,60.6s-29.2-27.1-29.2-60.6
				C95.8,80,125,52.8,125,52.8 M125,46l-3.4,3.2c-1.3,1.2-30.8,29-30.8,64.3c0,35.3,29.5,63.1,30.8,64.3l3.4,3.2l3.4-3.2
				c1.3-1.2,30.8-29,30.8-64.3c0-35.3-29.5-63.1-30.8-64.3L125,46L125,46z"/>
		</g>
		<g>
			
				<linearGradient id="SVGID_5_" gradientUnits="userSpaceOnUse" x1="-2413.7007" y1="176.3691" x2="-2413.7007" y2="66.1177" gradientTransform="matrix(-1 0 0 1 -2253.7695 0)">
				<stop  offset="0.1964" style="stop-color:#F27321"/>
				<stop  offset="0.7517" style="stop-color:#FFCA05"/>
			</linearGradient>
			<path class="st5" d="M133.9,169c8.7-10.3,23.3-31.2,23.3-55.6c0-9.4-2.2-19.1-6.5-29l-0.8-1.9l1.8-1.2
				c16.3-10.7,32.7-14.6,33.4-14.8l2.3-0.5l0.7,2.2c0.5,1.6,11.8,39.5-5.3,69.1c-11.7,20.2-33.8,31-46,35.5l-9,3.4L133.9,169z"/>
			<path class="st1" d="M185.6,69.1c0,0,11.7,38.1-5,67.1c-11.1,19.3-32,29.6-44.7,34.5c9.2-10.8,23.9-32.1,23.9-57.2
				c0-10.9-2.8-21.1-6.7-30C169.2,72.9,185.6,69.1,185.6,69.1 M189,63.2l-4.5,1c-0.7,0.2-17.5,4.1-34.2,15.1l-3.5,2.3l1.7,3.9
				c4.2,9.5,6.3,18.9,6.3,28c0,23.6-14.2,43.9-22.7,53.9l-12.5,14.7l18-6.8c12.5-4.7,35.2-15.7,47.3-36.6c17.6-30.5,6-69.4,5.5-71.1
				L189,63.2L189,63.2z"/>
		</g>
		<g>
			<g>
				
					<linearGradient id="SVGID_6_" gradientUnits="userSpaceOnUse" x1="-2433.5015" y1="180.5508" x2="-2433.5015" y2="106.9819" gradientTransform="matrix(-1 0 0 1 -2253.7695 0)">
					<stop  offset="0.1964" style="stop-color:#F27321"/>
					<stop  offset="0.7517" style="stop-color:#FFCA05"/>
				</linearGradient>
				<path class="st6" d="M154.5,180.6c-6.1,0-12.5-0.5-18.8-1.6l-9.2-1.5l10.4-3.9c12.2-4.6,34.5-15.4,46.3-35.8
					c4.7-8.1,7.7-17.7,8.9-28.3l0.2-2.1l2.1-0.1c2-0.1,4-0.2,6-0.2c16.7,0,29.7,3.9,30.2,4.1l2.2,0.7l-0.5,2.3
					c-0.4,1.6-9.5,40.1-39.1,57.2C182.6,177.4,169.5,180.6,154.5,180.6z"/>
				<path class="st1" d="M200.5,109.5c16.5,0,29.5,4,29.5,4s-8.9,38.8-37.9,55.6c-12.1,7-25.8,9-37.6,9c-7,0-13.4-0.7-18.4-1.5
					l1.7-0.6c12.6-4.7,35.4-15.8,47.6-36.9c5.4-9.4,8.1-19.6,9.2-29.3C196.6,109.5,198.6,109.5,200.5,109.5 M200.5,104.5
					L200.5,104.5c-2.1,0-4.2,0.1-6.2,0.2l-4.2,0.3l-0.5,4.2c-1.1,10.3-4,19.5-8.5,27.4c-11.4,19.7-33.1,30.2-45,34.7l-1.7,0.6
					l-17.4,6.6l18.4,3c6.5,1.1,12.9,1.6,19.2,1.6c15.5,0,29-3.3,40.1-9.7c30.5-17.6,39.9-57.1,40.3-58.8l1-4.5l-4.4-1.4
					C230.9,108.5,217.6,104.5,200.5,104.5L200.5,104.5z"/>
			</g>
		</g>
		<g>
			<g>
				
					<linearGradient id="SVGID_7_" gradientUnits="userSpaceOnUse" x1="-2432.7185" y1="201.8477" x2="-2432.7185" y2="156.5703" gradientTransform="matrix(-1 0 0 1 -2253.7695 0)">
					<stop  offset="0.1964" style="stop-color:#F27321"/>
					<stop  offset="0.7517" style="stop-color:#FFCA05"/>
				</linearGradient>
				<path class="st7" d="M177.5,201.8c-18.7,0-35-9.9-45.5-18.1l-7.6-6l11.1,1.8c6.4,1,12.7,1.6,18.9,1.6c15.1,0,28.3-3.2,39.1-9.4
					c6-3.4,11.5-8,16.6-13.6l1.4-1.6l1.8,1.1c11.1,6.9,18.2,14.4,18.5,14.7l1.6,1.7l-1.6,1.7C230.8,176.8,207.2,201.8,177.5,201.8z"
					/>
				<path class="st1" d="M212.1,159.8c11,6.8,17.9,14.3,17.9,14.3s-23.5,25.3-52.5,25.3c-18.4,0-34.5-10.1-43.9-17.6l1.6,0.3
					c6.5,1.1,13,1.6,19.3,1.6h0c15.6,0,29.2-3.3,40.4-9.8C201.6,170,207.3,165.1,212.1,159.8 M211.1,153.3l-2.8,3.1
					c-4.9,5.4-10.2,9.8-15.9,13.1c-10.5,6-23.2,9.1-37.9,9.1c-6,0-12.2-0.5-18.5-1.5l-1.6-0.3l-19-3.1l15.1,12
					c10.7,8.5,27.6,18.7,47,18.7c30.8,0,55.1-25.8,56.2-26.9l3.2-3.4l-3.2-3.4c-0.3-0.3-7.5-8-19-15.1L211.1,153.3L211.1,153.3z"/>
			</g>
		</g>
	</g>
</g>
</svg>
