<?xml version="1.0" encoding="utf-8"?>
<!-- Generator: Adobe Illustrator 19.1.0, SVG Export Plug-In . SVG Version: 6.00 Build 0)  -->
<svg version="1.1" id="Layer_1" xmlns="http://www.w3.org/2000/svg" xmlns:xlink="http://www.w3.org/1999/xlink" x="0px" y="0px"
	 viewBox="0 0 250 250" style="enable-background:new 0 0 250 250;" xml:space="preserve">
<style type="text/css">
	.st0{fill:url(#SVGID_1_);}
	.st1{fill:#231F20;}
	.st2{fill:url(#SVGID_2_);}
	.st3{fill:url(#SVGID_3_);}
	.st4{fill:url(#SVGID_4_);}
	.st5{fill:url(#SVGID_5_);}
	.st6{fill:url(#SVGID_6_);}
	.st7{fill:url(#SVGID_7_);}
	.st8{fill:url(#SVGID_8_);}
	.st9{fill:url(#SVGID_9_);}
	.st10{fill:url(#SVGID_10_);}
	.st11{fill:#FFFFFF;}
	.st12{fill:url(#SVGID_11_);}
	.st13{fill:url(#SVGID_12_);}
	.st14{fill:url(#SVGID_13_);}
	.st15{fill:url(#SVGID_14_);}
	.st16{fill:url(#SVGID_15_);}
	.st17{fill:url(#SVGID_16_);}
	.st18{fill:url(#SVGID_17_);}
	.st19{fill:url(#SVGID_18_);}
	.st20{fill:url(#SVGID_19_);}
	.st21{fill:url(#SVGID_20_);}
</style>
<g>
	<g>
		<g>
			<linearGradient id="SVGID_1_" gradientUnits="userSpaceOnUse" x1="48.4941" y1="125.5815" x2="201.5615" y2="125.5815">
				<stop  offset="0.1964" style="stop-color:#F27321"/>
				<stop  offset="0.7517" style="stop-color:#FFCA05"/>
			</linearGradient>
			<path class="st0" d="M155.6,202.1c-11.5-0.2-22.3-4.6-30.6-12.5c-8.3,7.9-19.1,12.3-30.6,12.5l-1.9,0l-1.1-1.6
				c-4.5-6.7-6.9-14.5-6.9-22.6c0-3.9,0.5-7.7,1.6-11.4l0.9-2.9l-2.9,0.9c-3.7,1.1-7.5,1.6-11.3,1.6c-8.1,0-16-2.4-22.7-7l-1.6-1.1
				l0-1.9c0.2-11.5,4.6-22.3,12.5-30.5c-7.9-8.3-12.3-19.1-12.5-30.6l0-1.9l1.6-1.1c6.7-4.6,14.6-7,22.7-7c3.8,0,7.7,0.5,11.3,1.6
				l2.9,0.9l-0.9-2.9c-1.1-3.7-1.6-7.5-1.6-11.3c0-8.1,2.4-15.9,6.9-22.6l1.1-1.6l1.9,0c11.5,0.2,22.3,4.6,30.6,12.5
				c8.3-7.9,19.1-12.3,30.6-12.5l1.9,0l1.1,1.6c4.5,6.7,6.9,14.5,6.9,22.6c0,3.9-0.5,7.7-1.6,11.4l-0.9,2.9l2.9-0.9
				c3.7-1.1,7.5-1.6,11.3-1.6c8.1,0,16,2.4,22.7,7l1.6,1.1l0,1.9c-0.2,11.5-4.6,22.3-12.5,30.5c7.9,8.3,12.3,19.1,12.5,30.6l0,1.9
				l-1.6,1.1c-6.7,4.6-14.6,7-22.7,7c-3.8,0-7.7-0.5-11.3-1.6l-2.9-0.9l0.9,2.9c1.1,3.7,1.6,7.5,1.6,11.3c0,8.1-2.4,15.9-6.9,22.6
				l-1.1,1.6L155.6,202.1z"/>
			<path class="st1" d="M155.7,52.6c4,5.9,6.3,13,6.3,20.7c0,3.5-0.5,7-1.5,10.4l-2.6,9.1l9.1-2.6c3.4-1,6.8-1.5,10.3-1.5
				c7.7,0,14.8,2.3,20.7,6.4c-0.2,10.5-4.2,20.9-12.2,28.9c-0.6,0.6-1.2,1.2-1.8,1.7c0.6,0.5,1.2,1.1,1.8,1.7c8,8,12.1,18.5,12.2,29
				c-5.9,4-13,6.4-20.7,6.4c-3.5,0-7-0.5-10.4-1.5l-9.1-2.6l2.6,9.1c1,3.4,1.5,6.8,1.5,10.3c0,7.7-2.3,14.8-6.3,20.7
				c-10.5-0.2-20.9-4.2-28.9-12.2c-0.6-0.6-1.2-1.2-1.7-1.8c-0.5,0.6-1.1,1.2-1.7,1.8c-8,8-18.5,12.1-29,12.2
				c-4-5.9-6.3-13-6.3-20.7c0-3.5,0.5-7,1.5-10.4l2.6-9.1l-9.1,2.6c-3.4,1-6.8,1.5-10.3,1.5c-7.7,0-14.8-2.3-20.7-6.4
				c0.2-10.5,4.2-20.9,12.2-28.9c0.6-0.6,1.2-1.2,1.8-1.7c-0.6-0.5-1.2-1.1-1.8-1.7c-8-8-12.1-18.5-12.2-29c5.9-4,13-6.4,20.7-6.4
				c3.5,0,7,0.5,10.4,1.5l9.1,2.6l-2.6-9.1c-1-3.4-1.5-6.8-1.5-10.3c0-7.7,2.3-14.8,6.3-20.7c10.5,0.2,20.9,4.2,28.9,12.2
				c0.6,0.6,1.2,1.2,1.7,1.8c0.5-0.6,1.1-1.2,1.7-1.8C134.7,56.8,145.2,52.7,155.7,52.6 M90.7,45.5l-2.1,3.1
				c-4.9,7.3-7.5,15.8-7.5,24.6c0,3.1,0.3,6.2,1,9.3c-3.1-0.7-6.2-1-9.3-1c-8.8,0-17.4,2.6-24.7,7.6L45,91.3L45,95
				c0.2,11.3,4.1,22,11.3,30.6c-7.1,8.5-11.1,19.2-11.3,30.5l-0.1,3.8l3.1,2.1c7.3,5,15.8,7.6,24.7,7.6c3.1,0,6.2-0.3,9.3-1
				c-0.7,3.1-1,6.2-1,9.3c0,8.8,2.6,17.3,7.5,24.6l2.1,3.1l3.8-0.1c11.3-0.2,22-4.1,30.6-11.3c8.6,7.2,19.2,11.1,30.5,11.3l3.8,0.1
				l2.1-3.1c4.9-7.3,7.5-15.8,7.5-24.6c0-3.1-0.3-6.2-1-9.3c3.1,0.7,6.2,1,9.3,1c8.8,0,17.4-2.6,24.7-7.6l3.1-2.1l-0.1-3.8
				c-0.2-11.3-4.1-22-11.3-30.6c7.1-8.5,11.1-19.2,11.3-30.5l0.1-3.8l-3.1-2.1c-7.3-5-15.8-7.6-24.7-7.6c-3.1,0-6.2,0.3-9.3,1
				c0.7-3.1,1-6.2,1-9.3c0-8.8-2.6-17.3-7.5-24.6l-2.1-3.1l-3.8,0.1c-11.3,0.2-22,4.1-30.6,11.3c-8.6-7.2-19.2-11.1-30.5-11.3
				L90.7,45.5L90.7,45.5z"/>
		</g>
		<g>
			<linearGradient id="SVGID_2_" gradientUnits="userSpaceOnUse" x1="155.5811" y1="71.825" x2="202.0664" y2="71.825">
				<stop  offset="0.1964" style="stop-color:#F27321"/>
				<stop  offset="0.7517" style="stop-color:#FFCA05"/>
			</linearGradient>
			<path class="st2" d="M196,91.7c-5.7-3.1-12.1-4.8-18.7-4.8c-3.7,0-7.3,0.5-10.8,1.5l-6.1,1.8l1.8-6.1c1-3.5,1.5-7.2,1.5-10.9
				c0-6.5-1.7-12.9-4.8-18.6l-3.4-6.1l6.9,1c9.8,1.4,18.8,5.8,25.8,12.8c7.1,7.1,11.5,16,12.8,25.9l0.9,6.9L196,91.7z"/>
			<path class="st1" d="M162,53c8.7,1.2,17.1,5.1,23.8,11.8c6.7,6.7,10.7,15.1,11.8,23.9c-6-3.3-13-5.2-20.3-5.2
				c-4,0-8,0.6-11.8,1.7c1.1-3.8,1.7-7.8,1.7-11.8C167.2,65.9,165.3,59,162,53 M149.1,44.1l6.7,12.2c2.8,5.2,4.3,11,4.3,16.9
				c0,3.4-0.5,6.7-1.4,9.9l-3.6,12.2l12.2-3.5c3.2-0.9,6.5-1.4,9.8-1.4c5.9,0,11.8,1.5,17,4.4l12.2,6.8l-1.9-13.8
				c-1.4-10.6-6.2-20.3-13.8-27.9c-7.6-7.6-17.2-12.4-27.8-13.8L149.1,44.1L149.1,44.1z"/>
		</g>
		<g>
			<linearGradient id="SVGID_3_" gradientUnits="userSpaceOnUse" x1="90.9482" y1="48.2859" x2="159.1563" y2="48.2859">
				<stop  offset="0.1964" style="stop-color:#F27321"/>
				<stop  offset="0.7517" style="stop-color:#FFCA05"/>
			</linearGradient>
			<path class="st3" d="M122.7,61.7c-6.9-6.1-15.4-9.8-24.6-10.7l-7.2-0.7l5-5.2c7.7-8,18-12.3,29.1-12.3c11,0,21.4,4.4,29.1,12.3
				l5,5.2l-7.2,0.7c-9.2,0.9-17.7,4.6-24.6,10.7l-2.3,2.1L122.7,61.7z"/>
			<path class="st1" d="M125.1,36.3c10.4,0,19.8,4.3,26.5,11.3c-9.6,0.9-18.9,4.8-26.6,11.6c-7.6-6.8-17-10.6-26.5-11.6
				C105.2,40.6,114.6,36.3,125.1,36.3 M125.1,29.3c-12,0-23.2,4.8-31.6,13.4L83.4,53.1l14.4,1.4c8.5,0.8,16.3,4.3,22.6,9.9l4.6,4.1
				l4.6-4.1c6.3-5.6,14.1-9,22.6-9.9l14.4-1.4l-10.1-10.4C148.2,34,137,29.3,125.1,29.3L125.1,29.3z"/>
		</g>
		<g>
			<linearGradient id="SVGID_4_" gradientUnits="userSpaceOnUse" x1="47.9854" y1="71.8" x2="94.519" y2="71.8">
				<stop  offset="0.1964" style="stop-color:#F27321"/>
				<stop  offset="0.7517" style="stop-color:#FFCA05"/>
			</linearGradient>
			<path class="st4" d="M48.9,88.1c1.4-9.8,5.8-18.8,12.8-25.8c7-7,16-11.5,25.8-12.8l6.9-0.9l-3.4,6.1c-3.1,5.7-4.8,12.1-4.8,18.6
				c0,3.7,0.5,7.3,1.5,10.8l1.8,6.1l-6.1-1.8c-3.5-1-7.2-1.5-10.8-1.5c-6.5,0-13,1.7-18.6,4.8L48,95.1L48.9,88.1z"/>
			<path class="st1" d="M88.1,53c-3.3,6-5.2,12.9-5.2,20.3c0,4,0.6,8,1.7,11.8c-3.8-1.1-7.7-1.7-11.8-1.7c-7.4,0-14.3,1.9-20.3,5.2
				c1.2-8.7,5.1-17.1,11.8-23.8C70.9,58.1,79.4,54.1,88.1,53 M100.9,44.1L87.1,46c-10.6,1.5-20.3,6.2-27.8,13.8
				c-7.6,7.6-12.4,17.2-13.8,27.8l-1.9,13.8l12.2-6.8c5.2-2.9,11-4.4,17-4.4c3.3,0,6.7,0.5,9.8,1.4l12.2,3.5l-3.5-12.2
				c-0.9-3.2-1.4-6.5-1.4-9.8c0-5.9,1.5-11.8,4.3-16.9L100.9,44.1L100.9,44.1z"/>
		</g>
		<g>
			<linearGradient id="SVGID_5_" gradientUnits="userSpaceOnUse" x1="32.2515" y1="125.553" x2="63.2563" y2="125.553">
				<stop  offset="0.1964" style="stop-color:#F27321"/>
				<stop  offset="0.7517" style="stop-color:#FFCA05"/>
			</linearGradient>
			<path class="st5" d="M44.5,154.6c-7.9-7.7-12.3-18-12.3-29c0-11,4.4-21.3,12.3-29l5.2-5.1l0.7,7.2c0.9,9.2,4.6,17.7,10.7,24.6
				l2.1,2.3l-2.1,2.3c-6.1,6.9-9.8,15.3-10.7,24.5l-0.7,7.2L44.5,154.6z"/>
			<path class="st1" d="M47,99c1,9.6,4.8,18.9,11.6,26.5c-6.8,7.6-10.6,16.9-11.6,26.5c-6.9-6.7-11.2-16.1-11.2-26.5
				C35.8,115.2,40.1,105.8,47,99 M52.5,83.9L42.1,94c-8.6,8.4-13.3,19.6-13.3,31.5c0,12,4.7,23.2,13.4,31.5l10.4,10.1l1.5-14.4
				c0.8-8.4,4.3-16.2,9.9-22.5l4.1-4.6l-4.1-4.6c-5.6-6.3-9-14.1-9.9-22.6L52.5,83.9L52.5,83.9z"/>
		</g>
		<g>
			<linearGradient id="SVGID_6_" gradientUnits="userSpaceOnUse" x1="47.9883" y1="179.3384" x2="94.4751" y2="179.3384">
				<stop  offset="0.1964" style="stop-color:#F27321"/>
				<stop  offset="0.7517" style="stop-color:#FFCA05"/>
			</linearGradient>
			<path class="st6" d="M87.6,201.7c-9.8-1.4-18.8-5.8-25.8-12.8c-7.1-7.1-11.5-16-12.8-25.9l-0.9-6.9l6.1,3.4
				c5.7,3.1,12.1,4.8,18.7,4.8c3.7,0,7.3-0.5,10.8-1.5l6.8-2l-2.6,6.6c-1.2,3.1-1.4,6.4-1.4,10.6c0,6.5,1.7,12.9,4.8,18.6l3.4,6.1
				L87.6,201.7z"/>
			<path class="st1" d="M52.4,162.5c6,3.3,13,5.2,20.3,5.2c4,0,8-0.6,11.8-1.7c-1.5,3.7-1.7,7.8-1.7,11.8c0,7.4,1.9,14.3,5.2,20.3
				c-8.7-1.2-17.1-5.1-23.8-11.8C57.5,179.7,53.6,171.2,52.4,162.5 M43.6,149.6l1.9,13.8c1.4,10.6,6.2,20.3,13.8,27.9
				c7.6,7.6,17.2,12.4,27.8,13.8l13.8,1.9l-6.7-12.2c-2.8-5.2-4.3-11-4.3-16.9c0-3.7,0.2-6.7,1.2-9.3l5.2-13.2l-13.6,3.9
				c-3.2,0.9-6.5,1.4-9.8,1.4c-5.9,0-11.8-1.5-17-4.4L43.6,149.6L43.6,149.6z"/>
		</g>
		<g>
			<linearGradient id="SVGID_7_" gradientUnits="userSpaceOnUse" x1="90.9014" y1="202.877" x2="159.1084" y2="202.877">
				<stop  offset="0.1964" style="stop-color:#F27321"/>
				<stop  offset="0.7517" style="stop-color:#FFCA05"/>
			</linearGradient>
			<path class="st7" d="M125,218.4c-11,0-21.4-4.4-29.1-12.3l-5-5.2l7.2-0.7c9.2-0.9,17.7-4.6,24.6-10.7l2.3-2.1l2.3,2.1
				c6.9,6.1,15.4,9.8,24.6,10.7l7.2,0.7l-5,5.2C146.4,214,136,218.4,125,218.4z"/>
			<path class="st1" d="M125,192c7.6,6.8,17,10.6,26.5,11.6c-6.7,6.9-16.1,11.3-26.5,11.3c-10.4,0-19.8-4.3-26.5-11.3
				C108,202.7,117.4,198.8,125,192 M125,182.7l-4.6,4.1c-6.3,5.6-14.1,9-22.6,9.9l-14.4,1.4l10.1,10.4c8.4,8.6,19.6,13.4,31.6,13.4
				c12,0,23.2-4.8,31.6-13.4l10.1-10.4l-14.4-1.4c-8.5-0.8-16.3-4.3-22.6-9.9L125,182.7L125,182.7z"/>
		</g>
		<g>
			<linearGradient id="SVGID_8_" gradientUnits="userSpaceOnUse" x1="155.5371" y1="179.3623" x2="202.0703" y2="179.3623">
				<stop  offset="0.1964" style="stop-color:#F27321"/>
				<stop  offset="0.7517" style="stop-color:#FFCA05"/>
			</linearGradient>
			<path class="st8" d="M158.9,196.5c3.1-5.7,4.8-12.1,4.8-18.6c0-3.7-0.5-7.3-1.5-10.8l-1.8-6.1l6.1,1.8c3.5,1,7.2,1.5,10.8,1.5
				c6.5,0,13-1.7,18.6-4.8l6.1-3.4l-1,6.9c-1.4,9.9-5.8,18.8-12.8,25.8c-7,7-16,11.5-25.8,12.8l-6.9,0.9L158.9,196.5z"/>
			<path class="st1" d="M197.7,162.5c-1.2,8.7-5.1,17.1-11.8,23.8c-6.7,6.7-15.1,10.6-23.8,11.8c3.3-6,5.2-12.9,5.2-20.3
				c0-4-0.6-8-1.7-11.8c3.8,1.1,7.7,1.7,11.8,1.7C184.7,167.8,191.6,165.9,197.7,162.5 M206.5,149.7l-12.2,6.8
				c-5.2,2.9-11,4.4-17,4.4c-3.3,0-6.7-0.5-9.8-1.4l-12.2-3.5l3.5,12.2c0.9,3.2,1.4,6.5,1.4,9.8c0,5.9-1.5,11.8-4.3,16.9l-6.7,12.2
				l13.8-1.9c10.6-1.5,20.3-6.2,27.8-13.8c7.6-7.6,12.4-17.2,13.8-27.8L206.5,149.7L206.5,149.7z"/>
		</g>
		<g>
			<linearGradient id="SVGID_9_" gradientUnits="userSpaceOnUse" x1="186.7998" y1="125.6094" x2="217.8047" y2="125.6094">
				<stop  offset="0.1964" style="stop-color:#F27321"/>
				<stop  offset="0.7517" style="stop-color:#FFCA05"/>
			</linearGradient>
			<path class="st9" d="M199.6,152.5c-0.9-9.2-4.6-17.7-10.7-24.6l-2.1-2.3l2.1-2.3c6.1-6.9,9.8-15.3,10.7-24.5l0.7-7.2l5.2,5.1
				c7.9,7.7,12.3,18,12.3,29c0,11-4.4,21.3-12.3,29l-5.2,5.1L199.6,152.5z"/>
			<path class="st1" d="M203.1,99.1c6.9,6.7,11.2,16.1,11.2,26.5c0,10.4-4.3,19.8-11.2,26.5c-1-9.6-4.8-18.9-11.6-26.5
				C198.3,118,202.1,108.6,203.1,99.1 M197.6,84l-1.5,14.4c-0.8,8.4-4.3,16.2-9.9,22.5l-4.1,4.6l4.1,4.6c5.6,6.3,9,14.1,9.9,22.6
				l1.4,14.4l10.4-10.1c8.6-8.4,13.3-19.6,13.3-31.5c0-12-4.7-23.2-13.4-31.5L197.6,84L197.6,84z"/>
		</g>
	</g>
	<linearGradient id="SVGID_10_" gradientUnits="userSpaceOnUse" x1="52.0212" y1="125.5813" x2="198.0349" y2="125.5813">
		<stop  offset="0.1964" style="stop-color:#F27321"/>
		<stop  offset="0.7517" style="stop-color:#FFCA05"/>
	</linearGradient>
	<path class="st10" d="M185.8,127.3c8,8,12.1,18.5,12.2,29c-5.9,4-13,6.4-20.7,6.4c-3.5,0-7-0.5-10.4-1.5l-9.1-2.6l2.6,9.1
		c1,3.4,1.5,6.8,1.5,10.3c0,7.7-2.3,14.8-6.3,20.7c-10.5-0.2-20.9-4.2-28.9-12.2c-0.6-0.6-1.2-1.2-1.7-1.8c-0.5,0.6-1.1,1.2-1.7,1.8
		c-8,8-18.5,12.1-29,12.2c-4-5.9-6.3-13-6.3-20.7c0-3.5,0.5-7,1.5-10.4l2.6-9.1l-9.1,2.6c-3.4,1-6.8,1.5-10.3,1.5
		c-7.7,0-14.8-2.3-20.7-6.4c0.2-10.5,4.2-20.9,12.2-28.9c0.6-0.6,1.2-1.2,1.8-1.7c-0.6-0.5-1.2-1.1-1.8-1.7c-8-8-12.1-18.5-12.2-29
		c5.9-4,13-6.4,20.7-6.4c3.5,0,7,0.5,10.4,1.5l9.1,2.6l-2.6-9.1c-1-3.4-1.5-6.8-1.5-10.3c0-7.7,2.3-14.8,6.3-20.7
		c10.5,0.2,20.9,4.2,28.9,12.2c0.6,0.6,1.2,1.2,1.7,1.8c0.5-0.6,1.1-1.2,1.7-1.8c8-8,18.5-12.1,29-12.2c4,5.9,6.3,13,6.3,20.7
		c0,3.5-0.5,7-1.5,10.4l-2.6,9.1l9.1-2.6c3.4-1,6.8-1.5,10.3-1.5c7.7,0,14.8,2.3,20.7,6.4c-0.2,10.5-4.2,20.9-12.2,28.9
		c-0.6,0.6-1.2,1.2-1.8,1.7C184.6,126.1,185.2,126.7,185.8,127.3z"/>
	<path class="st11" d="M170.6,126.9c6,6,9.1,13.9,9.2,21.7c-4.4,3-9.8,4.8-15.6,4.8c-2.6,0-5.2-0.4-7.8-1.1l-6.8-2l2,6.8
		c0.7,2.5,1.1,5.1,1.1,7.8c0,5.7-1.8,11.1-4.8,15.5c-7.9-0.1-15.7-3.2-21.7-9.2c-0.4-0.4-0.9-0.9-1.3-1.4c-0.4,0.5-0.8,0.9-1.3,1.4
		c-6,6-13.9,9.1-21.7,9.2c-3-4.4-4.8-9.8-4.8-15.5c0-2.6,0.4-5.3,1.1-7.8l2-6.8l-6.8,2c-2.5,0.7-5.1,1.1-7.7,1.1
		c-5.8,0-11.1-1.8-15.6-4.8c0.1-7.9,3.2-15.7,9.2-21.7c0.4-0.4,0.9-0.9,1.4-1.3c-0.5-0.4-0.9-0.8-1.4-1.3c-6-6-9.1-13.9-9.2-21.7
		c4.4-3,9.8-4.8,15.6-4.8c2.6,0,5.2,0.4,7.8,1.1l6.8,2l-2-6.8c-0.7-2.5-1.1-5.1-1.1-7.8c0-5.7,1.8-11.1,4.8-15.5
		c7.9,0.1,15.7,3.2,21.7,9.2c0.4,0.4,0.9,0.9,1.3,1.4c0.4-0.5,0.8-0.9,1.3-1.4c6-6,13.9-9.1,21.7-9.2c3,4.4,4.8,9.8,4.8,15.5
		c0,2.6-0.4,5.3-1.1,7.8l-2,6.8l6.8-2c2.5-0.7,5.1-1.1,7.7-1.1c5.8,0,11.1,1.8,15.6,4.8c-0.1,7.9-3.2,15.7-9.2,21.7
		c-0.4,0.4-0.9,0.9-1.4,1.3C169.7,126,170.2,126.4,170.6,126.9z"/>
	<linearGradient id="SVGID_11_" gradientUnits="userSpaceOnUse" x1="162.0149" y1="70.8166" x2="197.6584" y2="70.8166">
		<stop  offset="0.1964" style="stop-color:#F27321"/>
		<stop  offset="0.7517" style="stop-color:#FFCA05"/>
	</linearGradient>
	<path class="st12" d="M185.8,64.8c6.7,6.7,10.7,15.1,11.8,23.9c-6-3.3-13-5.2-20.3-5.2c-4,0-8,0.6-11.8,1.7
		c1.1-3.8,1.7-7.8,1.7-11.8c0-7.4-1.9-14.3-5.2-20.3C170.7,54.2,179.1,58.1,185.8,64.8z"/>
	<linearGradient id="SVGID_12_" gradientUnits="userSpaceOnUse" x1="98.5005" y1="47.6949" x2="151.5964" y2="47.6949">
		<stop  offset="0.1964" style="stop-color:#F27321"/>
		<stop  offset="0.7517" style="stop-color:#FFCA05"/>
	</linearGradient>
	<path class="st13" d="M125.1,36.3c10.4,0,19.8,4.3,26.5,11.3c-9.6,0.9-18.9,4.8-26.6,11.6c-7.6-6.8-17-10.6-26.5-11.6
		C105.2,40.6,114.6,36.3,125.1,36.3z"/>
	<linearGradient id="SVGID_13_" gradientUnits="userSpaceOnUse" x1="52.4044" y1="70.7856" x2="88.0883" y2="70.7856">
		<stop  offset="0.1964" style="stop-color:#F27321"/>
		<stop  offset="0.7517" style="stop-color:#FFCA05"/>
	</linearGradient>
	<path class="st14" d="M64.2,64.8c6.7-6.7,15.1-10.6,23.8-11.8c-3.3,6-5.2,12.9-5.2,20.3c0,4,0.6,8,1.7,11.8
		c-3.8-1.1-7.7-1.7-11.8-1.7c-7.4,0-14.3,1.9-20.3,5.2C53.6,79.9,57.5,71.5,64.2,64.8z"/>
	<linearGradient id="SVGID_14_" gradientUnits="userSpaceOnUse" x1="35.7516" y1="125.5572" x2="58.5746" y2="125.5572">
		<stop  offset="0.1964" style="stop-color:#F27321"/>
		<stop  offset="0.7517" style="stop-color:#FFCA05"/>
	</linearGradient>
	<path class="st15" d="M35.8,125.6c0-10.4,4.3-19.8,11.2-26.5c1,9.6,4.8,18.9,11.6,26.5c-6.8,7.6-10.6,16.9-11.6,26.5
		C40.1,145.3,35.8,135.9,35.8,125.6z"/>
	<linearGradient id="SVGID_15_" gradientUnits="userSpaceOnUse" x1="52.3977" y1="180.346" x2="88.0411" y2="180.346">
		<stop  offset="0.1964" style="stop-color:#F27321"/>
		<stop  offset="0.7517" style="stop-color:#FFCA05"/>
	</linearGradient>
	<path class="st16" d="M64.2,186.4c-6.7-6.7-10.7-15.1-11.8-23.9c6,3.3,13,5.2,20.3,5.2c4,0,8-0.6,11.8-1.7
		c-1.5,3.7-1.7,7.8-1.7,11.8c0,7.4,1.9,14.3,5.2,20.3C79.3,197,70.9,193.1,64.2,186.4z"/>
	<linearGradient id="SVGID_16_" gradientUnits="userSpaceOnUse" x1="98.4598" y1="203.4676" x2="151.5556" y2="203.4676">
		<stop  offset="0.1964" style="stop-color:#F27321"/>
		<stop  offset="0.7517" style="stop-color:#FFCA05"/>
	</linearGradient>
	<path class="st17" d="M125,214.9c-10.4,0-19.8-4.3-26.5-11.3c9.6-0.9,18.9-4.8,26.6-11.6c7.6,6.8,17,10.6,26.5,11.6
		C144.8,210.6,135.4,214.9,125,214.9z"/>
	<linearGradient id="SVGID_17_" gradientUnits="userSpaceOnUse" x1="161.9678" y1="180.377" x2="197.6516" y2="180.377">
		<stop  offset="0.1964" style="stop-color:#F27321"/>
		<stop  offset="0.7517" style="stop-color:#FFCA05"/>
	</linearGradient>
	<path class="st18" d="M185.8,186.4c-6.7,6.7-15.1,10.6-23.8,11.8c3.3-6,5.2-12.9,5.2-20.3c0-4-0.6-8-1.7-11.8
		c3.8,1.1,7.7,1.7,11.8,1.7c7.4,0,14.3-1.9,20.3-5.2C196.5,171.3,192.5,179.7,185.8,186.4z"/>
	<linearGradient id="SVGID_18_" gradientUnits="userSpaceOnUse" x1="191.4814" y1="125.6056" x2="214.3044" y2="125.6056">
		<stop  offset="0.1964" style="stop-color:#F27321"/>
		<stop  offset="0.7517" style="stop-color:#FFCA05"/>
	</linearGradient>
	<path class="st19" d="M203.1,152.1c-1-9.6-4.8-18.9-11.6-26.5c6.8-7.6,10.6-16.9,11.6-26.5c6.9,6.7,11.2,16.1,11.2,26.5
		C214.3,136,210,145.4,203.1,152.1z"/>
	<g>
		<linearGradient id="SVGID_19_" gradientUnits="userSpaceOnUse" x1="97.7375" y1="125.6056" x2="152.2779" y2="125.6056">
			<stop  offset="0.1964" style="stop-color:#F27321"/>
			<stop  offset="0.7517" style="stop-color:#FFCA05"/>
		</linearGradient>
		<polygon class="st20" points="97.7,125.6 125,98.3 152.3,125.6 125,152.9 		"/>
		
			<linearGradient id="SVGID_20_" gradientUnits="userSpaceOnUse" x1="-746.8235" y1="-350.5077" x2="-692.2831" y2="-350.5077" gradientTransform="matrix(0.7071 0.7071 -0.7071 0.7071 385.9624 882.2529)">
			<stop  offset="0.1964" style="stop-color:#F27321"/>
			<stop  offset="0.7517" style="stop-color:#FFCA05"/>
		</linearGradient>
		<rect x="105.7" y="106.3" class="st21" width="38.6" height="38.6"/>
	</g>
</g>
</svg>
