<?xml version="1.0" encoding="utf-8"?>
<!-- Generator: Adobe Illustrator 19.1.0, SVG Export Plug-In . SVG Version: 6.00 Build 0)  -->
<svg version="1.1" id="Layer_1" xmlns="http://www.w3.org/2000/svg" xmlns:xlink="http://www.w3.org/1999/xlink" x="0px" y="0px"
	 viewBox="0 0 250 250" style="enable-background:new 0 0 250 250;" xml:space="preserve">
<style type="text/css">
	.st0{fill:#00BEE2;}
	.st1{fill:#CBEBFB;}
</style>
<g>
	<g>
		<polygon class="st0" points="99.9,114.8 141.1,73.6 125,57.6 108.9,73.6 124.1,88.8 114.1,98.7 89.1,73.6 125,37.8 160.8,73.6 
			109.8,124.7 		"/>
		<path class="st1" d="M125,41.3l32.3,32.3l-47.5,47.5l-6.4-6.4l41.1-41.1L125,54l-19.6,19.6l15.1,15.1l-6.4,6.4L92.6,73.6L125,41.3
			 M125,34.2l-3.5,3.5L89.1,70.1l-3.5,3.5l3.5,3.5l21.5,21.5l0.9,0.9l-11.6,11.6l-3.5,3.5l3.5,3.5l6.4,6.4l3.5,3.5l3.5-3.5
			l47.5-47.5l3.5-3.5l-3.5-3.5l-32.3-32.3L125,34.2L125,34.2z M112.4,73.6L125,61.1l12.5,12.5L125,86.2l-0.9-0.9L112.4,73.6
			L112.4,73.6z"/>
	</g>
	<g>
		<polygon class="st0" points="37.2,125.6 73,89.7 124.1,140.7 114.2,150.6 73,109.5 57,125.6 73,141.7 88.2,126.5 98.1,136.4 
			73,161.4 		"/>
		<path class="st1" d="M73,93.2l47.5,47.5l-6.4,6.4L73,106l-19.6,19.6L73,145.2L88.2,130l6.4,6.4L73,157.9l-32.3-32.3L73,93.2
			 M73,86.2l-3.5,3.5L37.2,122l-3.5,3.5l3.5,3.5l32.3,32.3L73,165l3.5-3.5l21.5-21.5L99,139l11.6,11.6l3.5,3.5l3.5-3.5l6.4-6.4
			l3.5-3.5l-3.5-3.5L76.6,89.7L73,86.2L73,86.2z M60.5,125.6L73,113l12.5,12.5l-0.9,0.9L73,138.1L60.5,125.6L60.5,125.6z"/>
	</g>
	<g>
		<polygon class="st0" points="89.1,177.5 140.1,126.5 150,136.4 108.9,177.5 125,193.6 141.1,177.5 125.9,162.4 135.8,152.5 
			160.8,177.5 125,213.4 		"/>
		<path class="st1" d="M140.1,130l6.4,6.4l-41.1,41.1l19.6,19.6l19.6-19.6l-15.1-15.1l6.4-6.4l21.5,21.5L125,209.9l-32.3-32.3
			L140.1,130 M140.1,123l-3.5,3.5L89.1,174l-3.5,3.5l3.5,3.5l32.3,32.3l3.5,3.5l3.5-3.5l32.3-32.3l3.5-3.5l-3.5-3.5l-21.5-21.5
			l-0.9-0.9l11.6-11.6l3.5-3.5l-3.5-3.5l-6.4-6.4L140.1,123L140.1,123z M112.4,177.5L125,165l0.9,0.9l11.6,11.6L125,190.1
			L112.4,177.5L112.4,177.5z"/>
	</g>
	<g>
		<polygon class="st0" points="125.9,110.4 135.8,100.5 176.9,141.7 193,125.6 176.9,109.5 161.8,124.7 151.9,114.8 176.9,89.7 
			212.8,125.6 176.9,161.4 		"/>
		<path class="st1" d="M176.9,93.2l32.3,32.3l-32.3,32.3l-47.5-47.5l6.4-6.4l41.1,41.1l19.6-19.6L176.9,106l-15.2,15.2l-6.4-6.4
			L176.9,93.2 M176.9,86.2l-3.5,3.5l-21.5,21.5l-0.9,0.9l-11.6-11.6l-3.5-3.5l-3.5,3.5l-6.4,6.4l-3.5,3.5l3.5,3.5l47.5,47.5l3.5,3.5
			l3.5-3.5l32.3-32.3l3.5-3.5l-3.5-3.5l-32.3-32.3L176.9,86.2L176.9,86.2z M164.4,125.6l0.9-0.9l11.6-11.6l12.5,12.5l-12.5,12.5
			L164.4,125.6L164.4,125.6z"/>
	</g>
</g>
</svg>
