<?xml version="1.0" encoding="utf-8"?>
<!-- Generator: Adobe Illustrator 19.1.0, SVG Export Plug-In . SVG Version: 6.00 Build 0)  -->
<svg version="1.1" id="Layer_1" xmlns="http://www.w3.org/2000/svg" xmlns:xlink="http://www.w3.org/1999/xlink" x="0px" y="0px"
	 viewBox="0 0 250 250" style="enable-background:new 0 0 250 250;" xml:space="preserve">
<style type="text/css">
	.st0{fill:url(#SVGID_1_);}
	.st1{fill:#231F20;}
</style>
<g>
	<linearGradient id="SVGID_1_" gradientUnits="userSpaceOnUse" x1="22.3989" y1="125.8789" x2="227.6016" y2="125.8789">
		<stop  offset="0.3792" style="stop-color:#FFCF46"/>
		<stop  offset="0.7059" style="stop-color:#F89C1C"/>
	</linearGradient>
	<path class="st0" d="M82.2,215.3l-0.6-0.2c-28.2-11.8-47.4-34.2-51.5-59.9l-0.5-3.5h190.8l-0.5,3.5c-4.1,25.7-23.3,48.1-51.5,59.9
		l-0.6,0.2H82.2z M22.4,151.2v-25.4h10c4-23.9,21.7-43.6,45-50c2.6-22.3,21.7-39.4,44.3-39.4c22.1,0,40.7,16,44.1,37.6
		c27.4,3.3,49.5,24.6,54,51.8h7.7v25.4H22.4z M207.2,125.9c-4.8-22.9-25.2-39.8-48.9-39.8c-23.7,0-44.2,16.9-49,39.8h5.5
		c4.7-20.1,22.6-34.4,43.5-34.4s38.8,14.3,43.5,34.4H207.2z M188.9,125.9c-4.3-13-16.6-22-30.6-22s-26.2,9.1-30.6,22h5.4
		c4.1-10.2,14-16.9,25.2-16.9c11.2,0,21,6.7,25.2,16.9H188.9z M168.9,125.9c-2.7-2.8-6.5-4.5-10.6-4.5c-4.1,0-7.9,1.7-10.6,4.5
		H168.9z M96.7,125.9c0.2-1.4,0.5-2.8,0.8-4.1c-1.1-0.3-2.3-0.4-3.5-0.4c-4.1,0-7.9,1.7-10.6,4.5H96.7z M68.8,125.9
		c4.1-10.2,14-16.9,25.2-16.9c2.6,0,5.1,0.4,7.6,1.1c0.7-1.6,1.5-3.1,2.4-4.6c-3.2-1-6.6-1.6-9.9-1.6c-13.9,0-26.2,9.1-30.6,22H68.8
		z M50.6,125.9c4.7-20.1,22.6-34.4,43.5-34.4c5.9,0,11.9,1.2,17.4,3.5c1.3-1.4,2.6-2.8,4-4.1c-6.6-3.1-13.9-4.8-21.3-4.8
		c-23.7,0-44.2,16.9-48.9,39.8H50.6z M108.3,75.3c6.3,1.5,12.3,3.9,17.9,7.3c3.2-1.9,6.5-3.5,9.9-4.8c-1.6-6.5-7.5-11.3-14.3-11.3
		C115.9,66.4,110.6,70,108.3,75.3z M121.8,54c12.5,0,23.3,8.6,26.3,20.5c1.7-0.3,3.4-0.5,5.1-0.6c-3.3-14.4-16.3-24.9-31.4-24.9
		c-15.1,0-28,10.4-31.4,24.8c1.2-0.1,2.4-0.1,3.6-0.1c0.6,0,1.1,0,1.7,0C99,62.1,109.6,54,121.8,54z"/>
	<path class="st1" d="M121.8,39.5c21.5,0,39.3,16.4,41.4,37.4c28.1,2.3,50.7,24.2,54.1,52h7.3v19.4H25.4v-19.4H35
		c3-24.8,21.3-44.9,45.2-50.6C81.7,56.6,99.8,39.5,121.8,39.5 M86.8,77.1c2.4-0.3,4.8-0.4,7.2-0.4c1.3,0,2.7,0.1,4,0.1
		C100.1,65.5,110,57,121.8,57c12.3,0,22.4,9.2,23.9,21c3.6-0.8,7.2-1.2,11-1.3c-2.2-17.3-17-30.8-34.9-30.8
		C103.7,45.9,88.8,59.6,86.8,77.1 M126.2,86.1c4.1-2.7,8.6-4.8,13.3-6.4c-0.7-9.1-8.4-16.3-17.7-16.3c-8.6,0-15.7,6.1-17.4,14.2
		C112.1,78.9,119.5,81.8,126.2,86.1 M105.8,128.9h11.5c3.4-19.5,20.5-34.4,41-34.4c20.5,0,37.6,14.9,41,34.4h11.5
		c-3.5-25.8-25.7-45.8-52.5-45.8C131.5,83.1,109.3,103,105.8,128.9 M41.5,128.9H53c3.4-19.5,20.5-34.4,41-34.4
		c6.3,0,12.6,1.4,18.2,4.2c2.5-3.1,5.3-5.9,8.4-8.4c-8-4.7-17.2-7.1-26.6-7.1C67.2,83.1,45,103,41.5,128.9 M123.8,128.9h11.4
		c3.1-9.8,12.2-16.9,23.1-16.9c10.8,0,20,7.1,23.1,16.9h11.4c-3.3-16-17.5-28-34.5-28C141.3,100.9,127.2,112.9,123.8,128.9
		 M59.5,128.9H71c3.1-9.8,12.2-16.9,23.1-16.9c3.2,0,6.3,0.6,9.2,1.8c1.4-3.5,3.1-6.8,5.1-9.9c-4.5-2-9.4-3-14.3-3
		C77.1,100.9,62.9,112.9,59.5,128.9 M142.1,128.9h32.4c-2.8-6.2-9-10.5-16.2-10.5C151.1,118.3,144.9,122.7,142.1,128.9 M77.8,128.9
		h21.5c0.4-3.1,1-6.1,1.8-9c-2.2-1-4.6-1.5-7.1-1.5C86.8,118.3,80.6,122.7,77.8,128.9 M216.9,154.7c-4,25.2-23.1,46.5-49.7,57.6
		H82.8c-26.6-11.1-45.7-32.4-49.7-57.6H216.9 M121.8,33.5c-23.5,0-43.4,17.3-47,40c-22.7,7-40,26.1-44.8,49.3h-4.5h-6v6v19.4v6h6H27
		l0.2,1.4c4.2,26.7,24.1,50,53.3,62.2l1.1,0.5h1.2h84.5h1.2l1.1-0.5c29.1-12.2,49-35.5,53.3-62.2l0.2-1.4h1.6h6v-6v-19.4v-6h-6h-2.2
		c-5.5-26.6-27.1-47.2-53.9-51.4c-2-9.8-7.1-18.7-14.6-25.6C145,37.9,133.6,33.5,121.8,33.5L121.8,33.5z M112.9,73.4
		c2.2-2.5,5.4-4,8.8-4c4.6,0,8.6,2.7,10.5,6.6c-2.1,0.9-4.2,1.9-6.2,3.1C122,76.7,117.5,74.8,112.9,73.4L112.9,73.4z"/>
</g>
</svg>
