<?xml version="1.0" encoding="utf-8"?>
<!-- Generator: Adobe Illustrator 19.1.0, SVG Export Plug-In . SVG Version: 6.00 Build 0)  -->
<svg version="1.1" id="Layer_1" xmlns="http://www.w3.org/2000/svg" xmlns:xlink="http://www.w3.org/1999/xlink" x="0px" y="0px"
	 viewBox="0 0 250 250" style="enable-background:new 0 0 250 250;" xml:space="preserve">
<style type="text/css">
	.st0{fill:#231F20;}
	.st1{fill:#FFFFFF;stroke:#231F20;stroke-width:5;stroke-linecap:round;stroke-linejoin:round;}
	.st2{fill:#EC1C24;}
	.st3{fill:#003375;}
	.st4{fill:#53C9F4;stroke:#231F20;stroke-width:5;stroke-linecap:round;stroke-linejoin:round;}
	.st5{fill:#C9EAFB;}
	.st6{fill:#0078BC;}
	.st7{fill:#FFFFFF;}
</style>
<g>
	<g>
		<path class="st0" d="M100.1,62.5C79.9,44.7,80.8,42,81.3,40.5c0.9-3,5.5-7.4,11.2-7.4c1.8,0,3.6,0.4,5.3,1.3
			c6.5,3.4,12.1,8.1,18.9,15.6c3.6,4.1,5.8,9.7,7.8,14.7c1.6,4,3.2,8.1,4.9,9.3c0.5,0.3,0.9,0.5,1.4,0.5c2.1,0,5.3-2.9,8.9-6.2
			c1.1-1,2.3-2,3.5-3.1c5.1-4.4,9.1-6.3,13.6-6.3c1.8,0,3.5,0.3,5,0.6c1.8,0.3,3.2,1.4,3.9,3c2.1,4.9-3.2,13.3-3.2,13.4
			c-1.6,2.4-9.9,8.3-14.2,10.7c-1.9,1-4.8,1.9-8.9,2.6c-5.2,0.9-10.5,1.2-10.7,1.2l-1.1,0.1L100.1,62.5z"/>
		<path class="st0" d="M92.4,35.5c1.3,0,2.7,0.3,4.1,1c6.2,3.3,11.6,7.7,18.2,15.1c6.6,7.4,8.4,21.2,13.1,24.4
			c0.9,0.6,1.9,0.9,2.8,0.9c3.9,0,8.1-4.7,14.1-9.9c5.1-4.5,8.6-5.7,12-5.7c1.5,0,3,0.2,4.6,0.5c5.2,0.9,0.2,10.9-1,12.6
			c-1.1,1.7-8.5,7.2-13.3,9.9c-1.8,1-5,1.8-8.1,2.3c-5.2,0.9-10.4,1.2-10.4,1.2l-26.7-27.1c0,0-19-16.8-18.1-19.5
			C84.3,39.1,87.9,35.5,92.4,35.5 M92.4,30.5c-6.4,0-12.2,4.8-13.6,9.2c-1.1,3.6,1,7,10,15.8c4.3,4.2,8.6,8.1,9.4,8.8l26.6,27
			l1.6,1.6l2.3-0.1c0.2,0,5.6-0.3,11-1.3c4.4-0.8,7.6-1.7,9.7-2.9c4.1-2.3,13-8.4,15.1-11.5c0.1-0.1,6.1-9.4,3.4-15.8
			c-1-2.4-3.1-4-5.7-4.5c-1.7-0.3-3.5-0.6-5.5-0.6c-5.2,0-9.7,2.1-15.3,6.9c-1.3,1.1-2.4,2.1-3.5,3.1c-2.4,2.1-5.9,5.4-7.2,5.5
			c0,0,0,0-0.1-0.1c-1.1-0.8-2.8-5.2-3.9-8.1c-2-5.2-4.3-11.1-8.3-15.5c-7-7.8-12.8-12.6-19.6-16.2C96.8,31.1,94.7,30.5,92.4,30.5
			L92.4,30.5z"/>
	</g>
	<path class="st1" d="M108.5,44.4c0,0,6.7-8.8,19.4-12.7c0,0-15.3-4.8-32.1,5.2C77.7,47.6,108.5,44.4,108.5,44.4z"/>
	<path class="st1" d="M150.5,83.6c0,0,7.2-21.9,5.7-32.6c0,0,7,11.9,5.5,27.6L150.5,83.6z"/>
	<g>
		<path class="st2" d="M130,92.8c-1.9,0-2.7-1-3.1-1.6c-0.6-1.2-0.4-2.5,0.6-4c2.2-3.3,3-11.9,2.3-23.2c-0.2-3-2.2-5.3-4.2-7.7
			c-2.2-2.6-4.5-5.2-4.4-8.8c0.1-4.9,4.1-8.5,9.4-8.5c2.6,0,5.4,0.8,8,2.4c8.5,5.2,10,18.8,9.9,23.2c-0.3,9.8-5.4,22.2-5.6,22.8
			c-0.2,0.6-0.7,1-1.2,1.3C139.7,89.6,133.1,92.8,130,92.8L130,92.8z"/>
		<path class="st0" d="M130.6,41.4c2,0,4.4,0.6,6.7,2.1c7,4.3,8.8,16,8.7,21c-0.3,9.4-5.4,21.9-5.4,21.9s-7.8,3.9-10.5,3.9
			c-1,0-1.3-0.5-0.4-1.8c3.3-5.1,3.2-17.4,2.7-24.7c-0.5-7.3-8.8-10.8-8.7-16.3C123.7,43.9,126.6,41.4,130.6,41.4 M130.6,36.4
			c-6.7,0-11.8,4.6-11.9,10.9c-0.1,4.6,2.7,7.9,5,10.5c1.9,2.2,3.5,4.1,3.6,6.2c0.8,12.6-0.5,19.6-1.9,21.7c-2,3.1-1.3,5.5-0.7,6.6
			c0.5,0.9,2,3,5.3,3c3.4,0,9.5-2.8,12.8-4.4c1.1-0.5,1.9-1.5,2.4-2.6c0.2-0.5,5.5-13.4,5.8-23.6c0.2-5.1-1.5-19.6-11.1-25.4
			C136.9,37.4,133.6,36.4,130.6,36.4L130.6,36.4z"/>
	</g>
	<g>
		<path class="st3" d="M180.5,190.1c-0.3,0-0.7-0.1-1-0.2c-0.9-0.4-1.5-1.3-1.5-2.2c-0.6-20.9-11.6-23.7-23.4-23.7
			c-0.6,0-1.2,0-1.8,0c-0.5,0-1.1,0-1.5,0c-9.9,0-25.6-7.5-26.3-7.8c-0.1,0-0.2-0.1-0.3-0.2l-33.4-22.2c-0.6-0.4-1-1.1-1.1-1.8
			c-0.3-2.2-2.5-21.6,3.9-28.8c1.7-1.9,3.8-2.9,6.3-2.9c3.9,0,8.4,2.4,13.8,7.5c18.9,17.6,33,21.6,46.6,25.6c4.5,1.3,8.7,2.5,13,4.2
			c7.2,2.8,11,6.1,11.5,10.2c0.3,2.4-0.7,4.4-1.9,6c5.1,4.5,7.9,9.6,8.1,15.3c0.6,11.2-8.9,20.1-9.3,20.5
			C181.7,189.9,181.1,190.1,180.5,190.1z"/>
		<g>
			<path class="st0" d="M100.3,102.8c2.9,0,6.9,1.9,12.1,6.8c25.5,23.7,43.1,23.6,60.4,30.2s6.7,14,6.7,14
				c20.7,15.5,0.9,33.7,0.9,33.7c-0.7-24.8-15.9-26.2-25.9-26.2c-1.2,0-2.3,0-3.3,0c-9.4,0-25.2-7.6-25.2-7.6l-33.4-22.2
				C92.6,131.7,89,102.8,100.3,102.8 M100.3,97.8c-3.2,0-6,1.3-8.2,3.7c-7,7.9-5,27-4.5,30.7c0.2,1.4,1,2.7,2.2,3.5l33.4,22.2
				c0.2,0.1,0.4,0.2,0.6,0.3c1.7,0.8,17.1,8.1,27.4,8.1c0.5,0,1,0,1.6,0c0.6,0,1.2,0,1.8,0c10.3,0,20.3,1.6,20.9,21.3
				c0.1,2,1.2,3.7,3.1,4.5c0.6,0.3,1.3,0.4,1.9,0.4c1.2,0,2.5-0.5,3.4-1.3c0.4-0.4,10.7-10.1,10.1-22.4c-0.3-5.7-2.8-10.9-7.4-15.5
				c0.9-1.6,1.4-3.6,1.2-5.9c-0.9-7.5-10-11.1-13.1-12.2c-4.4-1.7-8.9-3-13.2-4.2c-13.4-3.9-27.2-7.9-45.6-25
				C109.9,100.5,104.9,97.8,100.3,97.8L100.3,97.8z"/>
		</g>
	</g>
	<path class="st4" d="M161.2,90.3c7.7-3.8,25.2-27.3,18.3-47.7s-21.9-12-23-8.2c0,0,7.4-1.1,6.5,6.3s-9.7,6.9-13,3.7
		c-3.2-3.2-5.6-11.4,0-18c5.6-6.6,16.4-7.6,22.8-5.9c23,6.3,33.2,37.3,14.2,60"/>
	<g>
		<path class="st5" d="M156.1,142.7c-1.2,0-12.2-0.1-22.1-3.1c-9.8-3-18-17.9-19.9-21.6l-28.7-14.2c-0.6-0.3-1-0.8-1.2-1.4
			l-6.1-16.1c-0.2-0.6-0.2-1.2,0-1.7l4.6-13.1c-0.4-2.4-1.7-10.3-1.1-15c0.3-2.8,1.1-4.6,1.8-5.9c-1.4-1.4-3.9-3.4-7.4-4.5
			c-1.7-0.5-3.8-0.8-5.9-0.8c-4.6,0-10.3,1.4-11.3,5.4c-0.2,0.7-0.3,1.3-0.3,1.8c1.9-2.4,5.1-3.9,7.8-4.3c0.3,0,0.6-0.1,0.9-0.1
			c3.5,0,8.7,3.1,10.5,7.7c0.9,2.2,1.7,6.6-3.1,11.3c-2.8,2.7-6.2,4.1-9.9,4.1c-8.6,0-16.4-7.5-18-17.3c-0.9-5.6,0.4-10.5,3.6-14.4
			c5.1-6,14.8-9.2,28-9.2c0.4,0,0.8,0,1.2,0c18.1,0.3,30.2,10.1,37,30c4.7,13.8,8.5,18.8,16.7,22.2c1.3,0.5,2.8,0.8,4.6,0.8
			c8.9,0,20.6-6.1,20.8-6.2c0.4-0.2,0.8-0.3,1.2-0.3c0.5,0,1.1,0.2,1.5,0.5c0.8,0.6,1.1,1.6,0.9,2.5c-1.1,5.3-5.2,8.8-9.7,11.1
			c7.2-2.3,17.4-7.9,22.9-10.9c1.9-1,3.4-1.9,4.5-2.4c3.3-1.7,8.8-2.5,12.4-2.5c1.5,0,5.1,0,5.9,2.7c0.3,1.1,0.2,2.7-2.2,4.2
			c-1.7,1.1-4,5.6-6,9.5c-3.3,6.5-6.7,13.1-11.5,15c-3.7,1.4-7.8,1.6-11.2,1.7c-0.6,0-1.2,0-1.8,0.1c1.4,0.7,3.3,1.5,4.7,2.1
			c3.6,1.5,7.7,3.2,10.6,5.5c4.4,3.3,8.2,9.1,6.8,13.4c-0.4,1.2-1.8,3.9-6.5,3.9c-3.1,0-5.2,1.2-7.7,2.6c-2.6,1.5-5.5,3.1-9.7,3.4
			c-0.3,0-0.7,0-1,0c-1.7,0-3.3-0.3-4.6-0.8l0.3,0.8c0.3,0.8,0.2,1.6-0.3,2.3C157.8,142.3,157,142.7,156.1,142.7
			C156.2,142.7,156.1,142.7,156.1,142.7z"/>
		<path class="st0" d="M78.4,32.9c0.4,0,0.8,0,1.2,0c21.3,0.3,30.1,14.9,34.7,28.3c4.6,13.4,8.5,19.8,18.1,23.7c1.7,0.7,3.6,1,5.6,1
			c9.7,0,21.9-6.4,21.9-6.4c-2.4,11.5-22.2,13.4-22.2,13.4s1.2,1.8,9.7,1.8c8.5,0,28.3-11.9,33.7-14.6c2.9-1.4,7.9-2.3,11.3-2.3
			c3.1,0,4.8,0.7,2.4,2.3c-5.2,3.3-10,21.6-17,24.3c-7,2.7-16.7,0.3-16.4,3.4c0.3,3.1,12.2,5.7,18.2,10.2c6.1,4.6,9.1,12.8,1.8,12.8
			c-7.3,0-10.2,5.6-17.7,6.1c-0.3,0-0.5,0-0.8,0c-6.9,0-10.1-6.1-10.1-6.1l3.4,9.4c0,0,0,0-0.1,0c-1,0-11.8-0.1-21.4-3
			c-10-3-18.8-21.1-18.8-21.1l-29.5-14.6l-6.1-16.1l4.9-13.7c0,0-1.8-9.7-1.2-14.9c0.6-5.2,2.7-6.1,2.7-6.1s-3.3-4.9-10-7
			c-1.9-0.6-4.2-0.9-6.6-0.9c-6,0-12.4,2.1-13.7,7.3c-1.8,7.3,4,10.3,4,10.3c-3.3-5.8,2.7-9.1,6.4-9.7c0.1,0,0.3,0,0.5,0
			c4,0,13.5,7,5.6,14.6c-2.4,2.3-5.3,3.4-8.2,3.4c-6.9,0-14-6-15.5-15.3C47,40.7,57.8,32.9,78.4,32.9 M78.4,27.9
			C78.4,27.9,78.4,27.9,78.4,27.9c-14,0-24.3,3.5-29.9,10.1c-3.8,4.4-5.2,10.1-4.2,16.4C46,65.4,54.8,73.8,64.6,73.8
			c4.4,0,8.4-1.7,11.7-4.8c1.3-1.2,2.3-2.5,3-3.8c0.3,2.5,0.6,4.8,0.8,6.2l-4.4,12.5c-0.4,1.1-0.4,2.3,0,3.4l6.1,16.1
			c0.4,1.2,1.3,2.2,2.5,2.7l28,13.9c2.6,5,10.8,19,21,22.1c10.2,3.1,21.5,3.2,22.8,3.2l0.1,0c1.6,0,3.1-0.8,4.1-2.1
			c0.3-0.4,0.5-0.8,0.6-1.3c0.6,0.1,1.3,0.1,1.9,0.1c0.4,0,0.8,0,1.1,0c4.8-0.3,8.1-2.2,10.8-3.7c2.4-1.3,4.1-2.3,6.5-2.3
			c4.4,0,7.7-2.1,8.8-5.6c1.9-5.7-2.6-12.4-7.7-16.2c-2-1.5-4.4-2.8-6.9-3.9c1.3-0.3,2.6-0.6,3.9-1.1c5.7-2.2,9.3-9.3,12.8-16.2
			c1.6-3.1,3.9-7.7,5.1-8.6c4-2.6,3.6-5.8,3.2-7c-1.3-4.5-6.6-4.5-8.3-4.5c-3.8,0-9.7,0.9-13.6,2.8c-1.1,0.6-2.6,1.4-4.6,2.5
			c-2.5,1.4-6.4,3.5-10.6,5.6c0.4-1,0.8-2,1-3.1c0.4-1.9-0.3-3.9-1.9-5c-0.9-0.7-1.9-1-3-1c-0.8,0-1.6,0.2-2.3,0.6
			c-3.1,1.6-12.7,5.9-19.6,5.9c-1.5,0-2.7-0.2-3.7-0.6c-7.5-3.1-10.8-7.5-15.3-20.7c-3.1-9-7.1-15.9-12.3-21
			c-7-6.9-16.1-10.5-27-10.7C79.2,27.9,78.8,27.9,78.4,27.9L78.4,27.9L78.4,27.9z M79.5,53.9c-1.2-2.3-3-4.2-5-5.6
			c0.3,0.1,0.5,0.1,0.8,0.2c2.1,0.7,3.9,1.8,5.1,2.7C80,52.1,79.8,53,79.5,53.9L79.5,53.9z"/>
	</g>
	<g>
		<path class="st6" d="M60.5,189.1c-4.4,0-7-0.9-7.3-1c-1-0.4-1.7-1.4-1.7-2.5c0.1-1.1,0.8-2,1.9-2.3c19-4.9,22.3-14.9,24.9-23
			l0.4-1.2c0.6-1.8,0.9-3.1,1.1-3.9c-0.7,0.5-1.8,1.4-3.3,2.9c-7,6.7-15.2,7.4-18.4,7.4c-0.8,0-1.2,0-1.2,0c-1.1-0.1-2-1-2.2-2.1
			s0.4-2.2,1.4-2.7c13.7-6.6,16.1-15,18-21.8c0.2-0.5,0.3-1.1,0.4-1.6c0.2-0.6,0.3-1.1,0.3-1.5c-0.5,0.4-1.2,1-1.9,1.9
			c-2.5,3.5-5.9,5.3-9.9,5.3c-5.1,0-9.6-3.1-9.7-3.2c-0.7-0.5-1.1-1.4-1-2.3c0.1-0.9,0.7-1.7,1.5-2c0.1,0,6.4-2.8,11.7-10.9
			c3.6-5.5,2.6-16.2,1.9-19.9c-0.2-1,0.2-2,1.1-2.6c0.4-0.3,0.9-0.4,1.3-0.4c0.5,0,1,0.2,1.5,0.5l9.2,6.7c0.4,0.3,0.8,0.8,0.9,1.3
			l16.1,49.9c0.1,0.3,0.1,0.6,0.1,0.9c-1,23.9-4.6,24-6.5,24c0,0,0,0,0,0c-2.4,0-3.6-2.5-4-3.3c-0.9-1.9-1.5-2.5-1.7-2.7
			c-0.5,0.2-1.5,1.1-2.3,1.7c-2.1,1.8-5.1,4.1-9.5,5.9C69.1,188.3,64.7,189.1,60.5,189.1z"/>
		<g>
			<path class="st0" d="M69.7,104.3l9.2,6.7L95,160.8c0,0-0.9,21.6-4.1,21.6c-0.5,0-1.1-0.6-1.7-1.9c-1.5-3.1-2.6-4.2-3.8-4.2
				c-2.5,0-5.5,5-12.9,7.8c-4.8,1.9-8.9,2.4-12.1,2.4c-4.1,0-6.5-0.9-6.5-0.9c21.3-5.5,24.3-17.6,27.1-25.8c1.6-4.9,1.9-8,0-8
				c-1.2,0-3.3,1.3-6.4,4.4c-6.4,6.1-13.9,6.7-16.6,6.7c-0.6,0-1,0-1,0c15.8-7.6,17.6-17.6,19.8-24.9c1.1-3.7,0.3-5.1-1.2-5.1
				c-1.4,0-3.4,1.4-4.8,3.4c-2.3,3.3-5.2,4.3-7.9,4.3c-4.4,0-8.3-2.7-8.3-2.7s7-2.9,12.8-11.9C72.4,118.5,69.7,104.3,69.7,104.3
				 M69.7,99.3c-0.9,0-1.9,0.3-2.7,0.8c-1.7,1.1-2.6,3.1-2.2,5.2l0,0c0.6,3.2,1.6,13.3-1.5,18.1c-4.8,7.4-10.5,10-10.6,10
				c-1.7,0.7-2.8,2.3-3,4.1c-0.2,1.8,0.6,3.6,2.1,4.6c0.5,0.4,5.4,3.7,11.2,3.7c2.4,0,4.7-0.6,6.7-1.6c-2,5-5.7,10.1-14.8,14.4
				c-2,1-3.2,3.2-2.8,5.4c0.4,2.2,2.2,3.9,4.5,4.1c0.1,0,0.7,0.1,1.5,0.1c3,0,10.1-0.6,16.8-5.4c-2.5,7.1-6.7,14.4-22.1,18.3
				c-2.1,0.5-3.6,2.4-3.7,4.6c-0.1,2.2,1.2,4.2,3.3,4.9c0.3,0.1,3.4,1.2,8.1,1.2c4.6,0,9.2-0.9,13.9-2.7c4.8-1.9,8.1-4.5,10.2-6.3
				c0,0,0.1,0,0.1-0.1c0,0.1,0.1,0.1,0.1,0.2c1.5,3.1,3.6,4.7,6.2,4.7c6.4,0,7.4-8.8,8.2-15.2c0.6-5.5,0.9-10.9,0.9-11.2
				c0-0.6-0.1-1.2-0.2-1.7l-16.1-49.9c-0.3-1-1-1.9-1.8-2.5l-9.2-6.7C71.7,99.6,70.7,99.3,69.7,99.3L69.7,99.3z"/>
		</g>
	</g>
	<g>
		<path class="st3" d="M54.6,231.4c-0.4,0-0.7,0-0.7,0c-1.1,0-2.1-0.8-2.3-1.9c-0.3-1.1,0.2-2.2,1.1-2.8c21.4-13,35-39.9,33.2-65.5
			c-1-13.8-5.7-24.4-10.6-35.7c-3.6-8.2-7.3-16.6-9.4-26.3c-1.6-7.1-0.6-13.2,2.8-18.2c6-8.8,17.3-10.8,17.8-10.9c0.1,0,0.3,0,0.4,0
			c0.8,0,1.5,0.3,2,0.9c0.6,0.7,0.7,1.7,0.4,2.5c-2.4,5.7-3.2,14.4,2.2,20.1c5.3,5.6,18.6,6,27.4,6.2c11.5,0.3,25.2,14.8,25.8,15.4
			c0.8,0.8,0.9,2.1,0.3,3.1c-0.2,0.2-4,6.1-13.5,7.8c-1.3,0.2-2.7,0.4-4,0.4l0,0c-2.3,0-4.3-0.4-6.2-0.9c3.4,2.3,7,5.6,10.5,10.6
			c11.3,16.1,4.8,32.4,4.5,33.1c-0.3,0.7-1,1.3-1.7,1.5c-0.2,0-0.4,0.1-0.6,0.1c-0.6,0-1.2-0.2-1.7-0.6c-0.3-0.3-0.6-0.5-0.9-0.8
			c-2.4-2.2-5-4.6-12.4-6.9c-5-1.5-9.7-4.7-13.1-7.4c0.8,1.2,1.7,2.4,2.5,3.5c6.7,9.1,15.9,21.6,13,31.8c-1.7,6.1-2.6,17.6-2.6,17.8
			c-0.1,0.7-0.4,1.4-1,1.8c-0.4,0.3-1,0.5-1.5,0.5c-0.2,0-0.3,0-0.5,0c-7.7-1.5-12.9-7.5-16.1-12.9
			C93.8,230.4,58.9,231.4,54.6,231.4z"/>
		<g>
			<path class="st0" d="M86.8,72.7L86.8,72.7 M86.8,72.7c-3,7.3-3,16.7,2.7,22.8c5.8,6.1,18.5,6.7,29.2,7c10.6,0.3,24,14.6,24,14.6
				s-3.3,5.2-11.9,6.7c-1.2,0.2-2.4,0.3-3.5,0.3c-6.5,0-10.8-3.4-16.2-5.2c-2.6-0.9-4.5-1.1-5.8-1.1c-1.8,0-2.5,0.5-2.5,0.5
				c5.2,6.1,16.1,4.3,26.7,19.5c10.6,15.2,4.3,30.7,4.3,30.7c-2.7-2.4-5.4-5.5-14.2-8.2S102.6,149,102.6,149c-0.1,0-0.2,0-0.4,0
				c-9.5,0,21.3,24.9,16.8,40.9c-1.8,6.4-2.7,18.2-2.7,18.2c-12.8-2.4-18.2-19.9-18.2-19.9c-0.3,39.4-38.4,40.7-43.5,40.7
				c-0.4,0-0.6,0-0.6,0c24-14.6,36.2-43.2,34.3-67.8c-1.8-24.6-15.2-40.1-20.1-62.3C63.4,76.6,86.8,72.7,86.8,72.7 M86.8,67.7
				c-0.1,0-0.1,0-0.2,0c-0.3,0-0.5,0-0.8,0.1c-1.6,0.3-13.1,2.7-19.3,11.9c-3.8,5.6-4.9,12.4-3.1,20.2c2.2,9.9,5.9,18.5,9.5,26.8
				c4.8,11.1,9.4,21.5,10.4,34.9c1.8,24.6-11.3,50.6-32,63.1c-1.9,1.1-2.8,3.4-2.2,5.5c0.6,2.1,2.5,3.7,4.7,3.7c0,0,0.3,0,0.7,0
				c3.3,0,14.8-0.4,25.9-6.1c7.6-3.9,16.4-11.2,20.4-24.2c3.5,4.3,8.2,8.2,14.5,9.4c0.3,0.1,0.6,0.1,0.9,0.1c1.1,0,2.2-0.4,3-1
				c1.1-0.9,1.8-2.2,1.9-3.6c0-0.1,0.9-11.4,2.6-17.3c2.5-8.9-2.8-18.9-8.6-27.3c1,0.4,2,0.8,3,1.1c6.8,2.1,9.2,4.3,11.5,6.4
				c0.3,0.3,0.6,0.5,0.9,0.8c0.9,0.8,2.1,1.3,3.3,1.3c0.4,0,0.8,0,1.1-0.1c1.6-0.4,2.9-1.5,3.5-3c0.3-0.7,7.3-18.2-4.8-35.5
				c-1.6-2.3-3.2-4.2-4.8-5.9c0.9-0.1,1.8-0.2,2.8-0.3c10.4-1.8,14.7-8.2,15.2-8.9c1.2-1.9,1-4.5-0.5-6.1
				c-1.5-1.6-15.2-15.8-27.5-16.2c-7.9-0.2-21.1-0.6-25.7-5.4c-4.3-4.5-4-11.9-1.8-17.3c0.3-0.6,0.4-1.3,0.4-2.1
				c0-2.7-2.2-4.9-4.9-5C86.9,67.7,86.9,67.7,86.8,67.7L86.8,67.7z"/>
		</g>
	</g>
	<g>
		<circle class="st0" cx="100.1" cy="83.6" r="13.5"/>
		<circle class="st7" cx="100.1" cy="83.6" r="9.1"/>
		<circle class="st0" cx="100.1" cy="83.6" r="5.7"/>
		<circle class="st7" cx="99.2" cy="87" r="3.3"/>
	</g>
	<circle class="st7" cx="78" cy="95.3" r="8"/>
	<circle class="st7" cx="85.1" cy="115" r="7.2"/>
	<circle class="st7" cx="91.1" cy="133.5" r="6.3"/>
	<circle class="st7" cx="94.5" cy="150.8" r="5.4"/>
	<circle class="st7" cx="95.9" cy="166.9" r="4.6"/>
	<circle class="st7" cx="93.6" cy="182" r="3.9"/>
</g>
</svg>
