<?xml version="1.0" encoding="utf-8"?>
<!-- Generator: Adobe Illustrator 19.1.0, SVG Export Plug-In . SVG Version: 6.00 Build 0)  -->
<svg version="1.1" id="Layer_1" xmlns="http://www.w3.org/2000/svg" xmlns:xlink="http://www.w3.org/1999/xlink" x="0px" y="0px"
	 viewBox="0 0 250 250" style="enable-background:new 0 0 250 250;" xml:space="preserve">
<style type="text/css">
	.st0{fill:#F26F21;}
	.st1{fill:#231F20;}
	.st2{fill:#FFFFFF;}
	.st3{fill:#F79720;}
</style>
<g>
	<g>
		<g>
			<polygon class="st0" points="45.2,118.4 45.2,96.1 95.5,96.1 95.5,82.4 117.8,82.4 117.8,118.4 			"/>
			<path class="st1" d="M115.8,84.4v32H47.2V98.1h50.4V84.4H115.8 M119.8,80.4h-4H97.5h-4v4v9.7H47.2h-4v4v18.3v4h4h68.7h4v-4v-32
				V80.4L119.8,80.4z"/>
		</g>
	</g>
	<g>
		<g>
			<polygon class="st0" points="132.2,118.4 132.2,45.8 154.5,45.8 154.5,96.1 168.2,96.1 168.2,118.4 			"/>
			<path class="st1" d="M152.5,47.8v50.4h13.7v18.3h-32V47.8H152.5 M156.5,43.8h-4h-18.3h-4v4v68.7v4h4h32h4v-4V98.1v-4h-4h-9.7
				V47.8V43.8L156.5,43.8z"/>
		</g>
	</g>
	<g>
		<polygon class="st0" points="132.2,168.8 132.2,132.7 204.8,132.7 204.8,155.1 154.5,155.1 154.5,168.8 		"/>
		<path class="st1" d="M202.8,134.7v18.3h-50.4v13.7h-18.3v-32H202.8 M206.8,130.7h-4h-68.7h-4v4v32v4h4h18.3h4v-4v-9.7h46.4h4v-4
			v-18.3V130.7L206.8,130.7z"/>
	</g>
	<g>
		<g>
			<polygon class="st0" points="95.5,205.4 95.5,155.1 81.8,155.1 81.8,132.7 117.8,132.7 117.8,205.4 			"/>
			<path class="st1" d="M115.8,134.7v68.7H97.5v-50.4H83.8v-18.3H115.8 M119.8,130.7h-4h-32h-4v4v18.3v4h4h9.7v46.4v4h4h18.3h4v-4
				v-68.7V130.7L119.8,130.7z"/>
		</g>
	</g>
	<g>
		<polygon class="st2" points="58.9,95.5 58.9,59.5 131.6,59.5 131.6,81.8 81.2,81.8 81.2,95.5 		"/>
		<path class="st1" d="M129.6,61.5v18.3H79.2v13.7H60.9V61.5H129.6 M133.6,57.5h-4H60.9h-4v4v32.1v4h4h18.3h4v-4v-9.7h46.4h4v-4
			V61.5V57.5L133.6,57.5z"/>
	</g>
	<g>
		<polygon class="st2" points="168.8,132.2 168.8,81.8 155,81.8 155,59.5 191.1,59.5 191.1,132.2 		"/>
		<path class="st1" d="M189.1,61.5v68.7h-18.3V79.8H157V61.5H189.1 M193.1,57.5h-4h-32h-4v4v18.3v4h4h9.7v46.4v4h4h18.3h4v-4V61.5
			V57.5L193.1,57.5z"/>
	</g>
	<g>
		<polygon class="st2" points="118.4,191.7 118.4,169.4 168.8,169.4 168.8,155.6 191.1,155.6 191.1,191.7 		"/>
		<path class="st1" d="M189.1,157.6v32.1h-68.7v-18.3h50.4v-13.7H189.1 M193.1,153.6h-4h-18.3h-4v4v9.7h-46.4h-4v4v18.3v4h4h68.7h4
			v-4v-32.1V153.6L193.1,153.6z"/>
	</g>
	<g>
		<polygon class="st2" points="58.9,191.7 58.9,119 81.2,119 81.2,169.4 94.9,169.4 94.9,191.7 		"/>
		<path class="st1" d="M79.2,121v50.4h13.7v18.3h-32V121H79.2 M83.2,117h-4H60.9h-4v4v68.7v4h4h32h4v-4v-18.3v-4h-4h-9.7V121V117
			L83.2,117z"/>
	</g>
	<g>
		<rect x="81.8" y="82.4" class="st3" width="13.2" height="13.2"/>
		<path class="st1" d="M92.9,84.4v9.2h-9.2v-9.2H92.9 M96.9,80.4h-4h-9.2h-4v4v9.2v4h4h9.2h4v-4v-9.2V80.4L96.9,80.4z"/>
	</g>
	<g>
		<rect x="155" y="82.4" class="st3" width="13.2" height="13.2"/>
		<path class="st1" d="M166.2,84.4v9.2H157v-9.2H166.2 M170.2,80.4h-4H157h-4v4v9.2v4h4h9.2h4v-4v-9.2V80.4L170.2,80.4z"/>
	</g>
	<g>
		<rect x="81.8" y="155.6" class="st3" width="13.2" height="13.2"/>
		<path class="st1" d="M92.9,157.6v9.2h-9.2v-9.2H92.9 M96.9,153.6h-4h-9.2h-4v4v9.2v4h4h9.2h4v-4v-9.2V153.6L96.9,153.6z"/>
	</g>
	<g>
		<rect x="155" y="155.6" class="st3" width="13.2" height="13.2"/>
		<path class="st1" d="M166.2,157.6v9.2H157v-9.2H166.2 M170.2,153.6h-4H157h-4v4v9.2v4h4h9.2h4v-4v-9.2V153.6L170.2,153.6z"/>
	</g>
</g>
</svg>
