<?xml version="1.0" encoding="utf-8"?>
<!-- Generator: Adobe Illustrator 19.1.0, SVG Export Plug-In . SVG Version: 6.00 Build 0)  -->
<svg version="1.1" id="Layer_1" xmlns="http://www.w3.org/2000/svg" xmlns:xlink="http://www.w3.org/1999/xlink" x="0px" y="0px"
	 viewBox="0 0 250 250" style="enable-background:new 0 0 250 250;" xml:space="preserve">
<style type="text/css">
	.st0{fill:url(#SVGID_1_);stroke:#FFFFFF;stroke-width:11;stroke-miterlimit:10;}
	.st1{fill:url(#SVGID_2_);}
	.st2{fill:#FFFFFF;}
	.st3{fill:url(#SVGID_3_);}
	.st4{fill:url(#SVGID_4_);}
	.st5{fill:url(#SVGID_5_);}
	.st6{fill:url(#SVGID_6_);}
	.st7{fill:url(#SVGID_7_);}
	.st8{fill:url(#SVGID_8_);}
	.st9{fill:url(#SVGID_9_);}
</style>
<g>
	<linearGradient id="SVGID_1_" gradientUnits="userSpaceOnUse" x1="125" y1="166.0481" x2="125" y2="85.1141">
		<stop  offset="0" style="stop-color:#F6921E"/>
		<stop  offset="1" style="stop-color:#FFCA05"/>
	</linearGradient>
	<path class="st0" d="M89,125.6l10.8-12.9c-11.9,0-21.5,12.9-21.5,12.9s9.6,12.9,21.5,12.9L89,125.6z M148.7,110.2
		c6-10.3-0.4-25.1-0.4-25.1s-16,1.9-21.9,12.2l16.5-2.9L148.7,110.2z M101.3,141c-5.9,10.3,0.4,25.1,0.4,25.1s16-1.9,21.9-12.2
		l-16.5,2.9L101.3,141z M101.6,85.1c0,0-6.3,14.8-0.4,25.1l5.8-15.8l16.5,2.9C117.6,87,101.6,85.1,101.6,85.1z M143,156.7l-16.5-2.9
		c5.9,10.3,21.9,12.2,21.9,12.2s6.3-14.8,0.4-25.1L143,156.7z M150.2,138.4c11.9,0,21.5-12.9,21.5-12.9s-9.6-12.9-21.5-12.9
		l10.8,12.9L150.2,138.4"/>
	<g>
		<linearGradient id="SVGID_2_" gradientUnits="userSpaceOnUse" x1="80.281" y1="174.96" x2="80.281" y2="119.6094">
			<stop  offset="0" style="stop-color:#00ADEE"/>
			<stop  offset="1" style="stop-color:#6DCEF5"/>
		</linearGradient>
		<path class="st1" d="M79.8,175c-13,0-24.5-4.8-25-5l-3.8-1.6l0.5-4.1c0.1-1.1,3.6-28.1,22-38.7l10.2-5.9l-5.8,33.2l31.6,11.5
			l-10.2,5.9C93.9,173.4,87.3,175,79.8,175C79.8,175,79.8,175,79.8,175z"/>
		<path class="st2" d="M76.3,130.3l-4.6,26.1l24.9,9.1c-5.2,3-11.1,4-16.8,4c-12,0-22.8-4.6-22.8-4.6S60,139.7,76.3,130.3 M91.2,109
			l-20.4,11.8c-20.4,11.8-24.3,39.7-24.7,42.8l-1,8.2l7.6,3.2c1.3,0.6,13.3,5.5,27.1,5.5c8.5,0,16-1.9,22.3-5.5l20.4-11.8l-22.1-8.1
			l-16.2-5.9l3-17L91.2,109L91.2,109z"/>
	</g>
	<g>
		<linearGradient id="SVGID_3_" gradientUnits="userSpaceOnUse" x1="169.7192" y1="131.5508" x2="169.7192" y2="76.2021">
			<stop  offset="0" style="stop-color:#00ADEE"/>
			<stop  offset="1" style="stop-color:#6DCEF5"/>
		</linearGradient>
		<path class="st3" d="M172.1,98.4l-31.6-11.5l10.2-5.9c5.5-3.2,12.1-4.8,19.6-4.8c13,0,24.5,4.8,25,5.1l3.8,1.6l-0.5,4.1
			c-0.1,1.1-3.6,28.1-22,38.7l-10.2,5.9L172.1,98.4z"/>
		<path class="st2" d="M170.2,81.7c12,0,22.8,4.6,22.8,4.6s-3,25.2-19.3,34.6l4.6-26.1l-24.9-9.1C158.6,82.7,164.6,81.7,170.2,81.7
			 M170.2,70.7c-8.5,0-16,1.9-22.3,5.5L127.5,88l22.1,8.1l16.2,5.9l-3,17l-4.1,23.2l20.4-11.8c20.4-11.8,24.3-39.7,24.7-42.8l1-8.2
			l-7.6-3.2C196,75.6,184.1,70.7,170.2,70.7L170.2,70.7z"/>
	</g>
	<g>
		<linearGradient id="SVGID_4_" gradientUnits="userSpaceOnUse" x1="80.2822" y1="131.5498" x2="80.2822" y2="76.2017">
			<stop  offset="0" style="stop-color:#00ADEE"/>
			<stop  offset="1" style="stop-color:#6DCEF5"/>
		</linearGradient>
		<path class="st4" d="M73.5,125.7C55.1,115,51.7,88.1,51.5,87L51,82.9l3.8-1.6c0.5-0.2,12-5.1,25-5.1c7.5,0,14.1,1.6,19.6,4.8
			l10.2,5.9L77.9,98.4l5.8,33.2L73.5,125.7z"/>
		<path class="st2" d="M79.8,81.7c5.7,0,11.6,1,16.8,4l-24.9,9.1l4.6,26.1C60,111.5,57,86.3,57,86.3S67.8,81.7,79.8,81.7 M79.8,70.7
			c-13.9,0-25.8,4.9-27.1,5.5l-7.6,3.2l1,8.2c0.4,3.1,4.3,31,24.7,42.8l20.4,11.8L87.1,119l-3-17l16.2-5.9l22.1-8.1l-20.4-11.8
			C95.8,72.6,88.3,70.7,79.8,70.7L79.8,70.7z"/>
	</g>
	<g>
		<linearGradient id="SVGID_5_" gradientUnits="userSpaceOnUse" x1="169.7188" y1="174.9609" x2="169.7188" y2="119.6113">
			<stop  offset="0" style="stop-color:#00ADEE"/>
			<stop  offset="1" style="stop-color:#6DCEF5"/>
		</linearGradient>
		<path class="st5" d="M170.2,175c-7.5,0-14.1-1.6-19.5-4.8l-10.2-5.9l31.6-11.5l-5.8-33.2l10.2,5.9c18.4,10.6,21.9,37.6,22,38.7
			l0.5,4.1l-3.8,1.6C194.7,170.1,183.2,175,170.2,175C170.2,175,170.2,175,170.2,175z"/>
		<path class="st2" d="M173.7,130.3c16.3,9.4,19.3,34.6,19.3,34.6s-10.8,4.6-22.8,4.6c-5.7,0-11.6-1-16.8-4l24.9-9.1L173.7,130.3
			 M158.8,109l4.1,23.2l3,17l-16.2,5.9l-22.1,8.1l20.4,11.8c6.3,3.7,13.8,5.5,22.3,5.5c13.9,0,25.8-4.9,27.1-5.5l7.6-3.2l-1-8.2
			c-0.4-3.1-4.3-31-24.7-42.8L158.8,109L158.8,109z"/>
	</g>
	<g>
		<linearGradient id="SVGID_6_" gradientUnits="userSpaceOnUse" x1="125.0002" y1="92.8286" x2="125.0002" y2="40.1641">
			<stop  offset="0" style="stop-color:#00ADEE"/>
			<stop  offset="1" style="stop-color:#6DCEF5"/>
		</linearGradient>
		<path class="st6" d="M99.2,81c0-21.3,21.6-37.7,22.5-38.4l3.3-2.5l3.3,2.5c0.9,0.7,22.5,17.1,22.5,38.4v11.8L125,71.2L99.2,92.8
			V81z"/>
		<path class="st2" d="M125,47c0,0,20.3,15.2,20.3,34L125,64l-20.3,17C104.7,62.3,125,47,125,47 M125,33.3l-6.6,4.9
			c-2.5,1.9-24.7,19.2-24.7,42.8v23.6l18.1-15.1L125,78.4l13.2,11.1l18.1,15.1V81c0-23.6-22.2-40.9-24.7-42.8L125,33.3L125,33.3z"/>
	</g>
	<g>
		<linearGradient id="SVGID_7_" gradientUnits="userSpaceOnUse" x1="124.9993" y1="210.999" x2="124.9993" y2="158.335">
			<stop  offset="0" style="stop-color:#00ADEE"/>
			<stop  offset="1" style="stop-color:#6DCEF5"/>
		</linearGradient>
		<path class="st7" d="M121.7,208.5c-0.9-0.7-22.5-17.1-22.5-38.4v-11.8l25.8,21.6l25.8-21.6v11.8c0,21.3-21.6,37.7-22.5,38.4
			L125,211L121.7,208.5z"/>
		<path class="st2" d="M104.7,170.1l20.3,17l20.3-17c0,18.8-20.3,34-20.3,34S104.7,188.9,104.7,170.1 M93.7,146.6v23.6
			c0,23.6,22.2,40.9,24.7,42.8l6.6,4.9l6.6-4.9c2.5-1.9,24.7-19.2,24.7-42.8v-23.6l-18.1,15.1L125,172.8l-13.2-11.1L93.7,146.6
			L93.7,146.6z"/>
	</g>
	<g>
		<linearGradient id="SVGID_8_" gradientUnits="userSpaceOnUse" x1="124.9998" y1="215.5117" x2="124.9998" y2="35.6509">
			<stop  offset="0" style="stop-color:#38BA9B"/>
			<stop  offset="1" style="stop-color:#B0DEDB"/>
		</linearGradient>
		<path class="st8" d="M71.5,211.7c-0.5-1.1-10.9-26.1-0.3-44.5l5.9-10.2l11.5,31.6l33.2-5.8l-5.9,10.2
			c-10.6,18.4-37.6,21.9-38.7,22l-4.1,0.5L71.5,211.7z M172.8,215c-1.1-0.1-28.1-3.6-38.7-22l-5.9-10.2l33.1,5.8l11.5-31.6l5.9,10.2
			c10.6,18.4,0.2,43.5-0.3,44.5l-1.6,3.8L172.8,215z M62,151.4c-21.3,0-37.7-21.6-38.4-22.5l-2.5-3.3l2.5-3.3
			c0.7-0.9,17.1-22.5,38.4-22.5h11.8l-21.6,25.8l21.6,25.8L62,151.4z M176.2,151.4l21.6-25.8l-21.6-25.8l11.8,0
			c21.3,0,37.7,21.6,38.4,22.5l2.5,3.3l-2.5,3.3c-0.7,0.9-17.1,22.5-38.4,22.5C188,151.4,176.2,151.4,176.2,151.4z M71.2,84
			C60.5,65.5,71,40.5,71.5,39.4l1.6-3.8l4.1,0.5c1.1,0.1,28.1,3.6,38.7,22l5.9,10.2l-33.2-5.8L77.1,94.2L71.2,84z M161.4,62.5
			l-33.2,5.8l5.9-10.2c10.6-18.4,37.6-21.9,38.7-22l4.1-0.5l1.6,3.8c0.5,1.1,10.9,26.1,0.3,44.5l-5.9,10.2L161.4,62.5z"/>
		<path class="st2" d="M173.5,41.6c0,0,10,23.3,0.6,39.6L165,56.3l-26.1,4.6C148.3,44.6,173.5,41.6,173.5,41.6 M76.5,41.6
			c0,0,25.2,3,34.6,19.3L85,56.3l-9.1,24.9C66.5,64.9,76.5,41.6,76.5,41.6 M188,105.3c18.8,0,34,20.3,34,20.3s-15.2,20.3-34,20.3
			l17-20.3L188,105.3 M62,105.3l-17,20.3l17,20.3c-18.8,0-34-20.3-34-20.3S43.3,105.3,62,105.3 M174.1,170
			c9.4,16.3-0.6,39.6-0.6,39.6s-25.2-3-34.6-19.3l26.1,4.6L174.1,170 M75.9,170l9.1,24.9l26.1-4.6c-9.4,16.3-34.6,19.3-34.6,19.3
			S66.5,186.2,75.9,170 M180.4,29.7l-8.2,1c-3.1,0.4-31,4.3-42.8,24.7L125,63l-4.4-7.6C108.8,35,81,31.1,77.8,30.7l-8.2-1l-3.2,7.6
			c-1.2,2.9-11.8,29,0,49.4l4.4,7.6l-8.7,0c-23.6,0-40.9,22.2-42.8,24.7l-4.9,6.6l4.9,6.6c1.9,2.5,19.2,24.7,42.8,24.7l8.7,0
			l-4.4,7.6c-11.8,20.4-1.3,46.5,0,49.4l3.2,7.6l8.2-1c3.1-0.4,31-4.3,42.8-24.7l4.4-7.6l4.4,7.6c11.8,20.4,39.7,24.3,42.8,24.7
			l8.2,1l3.2-7.6c1.2-2.9,11.8-29,0-49.4l-4.4-7.6l8.7,0c23.6,0,40.9-22.2,42.8-24.7l4.9-6.6l-4.9-6.6c-1.9-2.5-19.2-24.7-42.8-24.7
			l-8.7,0l4.4-7.6c11.8-20.4,1.2-46.5,0-49.4L180.4,29.7L180.4,29.7z M131.1,73.5l9.7-1.7l17-3l5.9,16.2l3.4,9.3l-2.7,0l4.8,5.8
			l2.6,7.1l1.4-2.4l6.4,7.6l11.1,13.2l-11.1,13.2l-6.4,7.6l-1.4-2.4l-2.6,7.1l-4.8,5.8l2.7,0l-3.4,9.3l-5.9,16.2l-17-3l-9.7-1.7
			l1.4-2.4l-7.4,1.3l-7.4-1.3l1.4,2.4l-9.7,1.7l-17,3l-5.9-16.2l-3.4-9.3l2.7,0l-4.8-5.8l-2.6-7.1l-1.4,2.4l-6.4-7.6l-11.1-13.2
			l11.1-13.2l6.4-7.6l1.4,2.4l2.6-7.1l4.8-5.8l-2.7,0l3.4-9.3l5.9-16.2l17,3l9.7,1.7l-1.4,2.4l7.4-1.3l7.4,1.3L131.1,73.5
			L131.1,73.5z"/>
	</g>
	<linearGradient id="SVGID_9_" gradientUnits="userSpaceOnUse" x1="125" y1="166.0481" x2="125" y2="85.1141">
		<stop  offset="0" style="stop-color:#F6921E"/>
		<stop  offset="1" style="stop-color:#FFCA05"/>
	</linearGradient>
	<path class="st9" d="M89,125.6l10.8-12.9c-11.9,0-21.5,12.9-21.5,12.9s9.6,12.9,21.5,12.9L89,125.6z M148.7,110.2
		c6-10.3-0.4-25.1-0.4-25.1s-16,1.9-21.9,12.2l16.5-2.9L148.7,110.2z M101.3,141c-5.9,10.3,0.4,25.1,0.4,25.1s16-1.9,21.9-12.2
		l-16.5,2.9L101.3,141z M101.6,85.1c0,0-6.3,14.8-0.4,25.1l5.8-15.8l16.5,2.9C117.6,87,101.6,85.1,101.6,85.1z M143,156.7l-16.5-2.9
		c5.9,10.3,21.9,12.2,21.9,12.2s6.3-14.8,0.4-25.1L143,156.7z M150.2,138.4c11.9,0,21.5-12.9,21.5-12.9s-9.6-12.9-21.5-12.9
		l10.8,12.9L150.2,138.4"/>
</g>
</svg>
