<?xml version="1.0" encoding="utf-8"?>
<!-- Generator: Adobe Illustrator 19.1.0, SVG Export Plug-In . SVG Version: 6.00 Build 0)  -->
<svg version="1.1" id="Layer_1" xmlns="http://www.w3.org/2000/svg" xmlns:xlink="http://www.w3.org/1999/xlink" x="0px" y="0px"
	 viewBox="0 0 250 250" style="enable-background:new 0 0 250 250;" xml:space="preserve">
<style type="text/css">
	.st0{fill:#CD181F;}
	.st1{fill:#231F20;}
	.st2{fill:#D68418;}
</style>
<g>
	<g>
		<path class="st0" d="M143.6,158.3c-5,0-12.6-8.9-18.3-25.6c-3.6,9.4-9.3,22-15.1,24.5c-1,0.4-1.9,0.6-2.7,0.6c-1.9,0-3.4-1-4-2.8
			c-1.7-4.4,2.5-14,13.2-25.2c-7.2,1.7-12.7,2.1-16.4,2.1c-4.4,0-11.9-0.6-13.3-4.9c-0.3-0.9-0.7-3.3,2.4-5.5
			c2.1-1.6,5.7-2.3,10.8-2.3c5.3,0,11.6,0.8,16.6,1.6c-11.4-10.8-16.2-20.5-14.6-24.9c0.6-1.8,2.2-2.9,4.1-2.9
			c0.8,0,1.6,0.2,2.5,0.5c5.9,2.2,12.2,14.5,16.2,23.6c5-17.1,12.3-26.3,17.3-26.3c1.9,0,4.1,1.3,4.5,5c0.6,6.4-7.9,17.5-14.5,25.1
			c5.2-0.9,11.9-1.8,17.6-1.8c5.2,0,8.7,0.8,10.8,2.3c3.1,2.2,2.7,4.6,2.4,5.5c-1.4,4.3-9,4.9-13.3,4.9c0,0,0,0,0,0
			c-3.6,0-9-0.4-16.2-2.1c6.5,7,14.8,17.2,14.5,23.3C147.9,157,145.6,158.3,143.6,158.3z"/>
		<path class="st1" d="M142.2,93.2c1.2,0,1.9,0.9,2.1,2.8c0.7,7.6-16,25.7-18.6,28.6c3.5-0.7,15.2-3.1,24.1-3.1
			c4.1,0,7.6,0.5,9.4,1.9c4.1,3,0.2,6.2-9.5,6.2c-6,0-14.2-1.2-24.1-4.4c2.3,2.3,20.4,20.1,20,27.8c-0.1,1.9-0.9,2.9-2.1,2.9
			c-3.9,0-12.5-10.2-18.1-30.7c0,0,0,0,0,0c-1.4,4.2-9.3,26.9-16.2,29.8c-0.7,0.3-1.3,0.4-1.8,0.4c-5.1,0-1.1-14,17.7-30.4
			c0,0-0.1,0-0.1,0c-10.2,3.4-18.6,4.6-24.8,4.6c-9.7,0-13.6-3.2-9.6-6.2c1.9-1.4,5.4-1.9,9.4-1.9c9.7,0,22.6,2.8,24.8,3.2
			c-19.5-15.7-24-29.4-18.7-29.4c0.5,0,1,0.1,1.7,0.4c7,2.6,15.9,24.7,17.6,29C130.1,103.8,138.3,93.2,142.2,93.2 M142.2,88.5
			c-6.2,0-12.8,8.6-17.7,22.1c-4.4-9.1-9.7-17.3-15-19.3c-1.2-0.4-2.3-0.7-3.4-0.7c-3,0-5.4,1.7-6.4,4.5
			c-1.8,5.1,2.2,13.5,10.3,22.4c-3.3-0.4-6.8-0.7-10-0.7c-5.8,0-9.7,0.9-12.2,2.8c-4.4,3.2-3.6,7.1-3.2,8.2
			c1.4,4.3,6.8,6.6,15.6,6.6c2.5,0,5.8-0.2,10-0.8c-7.4,9-10.9,17.4-9,22.4c1,2.7,3.4,4.3,6.3,4.3c1.2,0,2.4-0.3,3.7-0.8
			c2.6-1.1,6.8-4.1,12.6-16.8c0.5-1.1,1-2.2,1.5-3.3c5.4,13.1,12.3,21.4,18.4,21.4c3.2,0,6.6-2.3,6.8-7.5c0.1-2.9-0.8-8.1-10.1-19.3
			c-0.1-0.1-0.2-0.3-0.4-0.4c4,0.6,7.3,0.8,9.8,0.8c8.8,0,14.2-2.3,15.6-6.6c0.4-1.1,1.2-5-3.2-8.2c-2.6-1.9-6.5-2.8-12.3-2.8
			c-3.7,0-7.9,0.4-11.8,0.9c0.7-0.9,1.4-1.8,2.1-2.7c8.6-11.4,9.3-16.5,9-19.4C148.6,90.3,145.1,88.5,142.2,88.5L142.2,88.5
			C142.2,88.5,142.2,88.5,142.2,88.5L142.2,88.5z"/>
	</g>
	<g>
		<g>
			<path class="st0" d="M102.5,170.1c-1.7,0-3.3-0.9-4.2-2.4L75.4,128c-0.9-1.5-0.9-3.4,0-4.8l22.9-39.6c0.9-1.5,2.5-2.4,4.2-2.4
				h45.8c1.7,0,3.3,0.9,4.2,2.4l22.9,39.6c0.9,1.5,0.9,3.4,0,4.9l-22.9,39.6c-0.9,1.5-2.5,2.4-4.2,2.4H102.5z M145.4,160.4
				l20.1-34.8l-20.1-34.8h-40.2l-20.1,34.8l20.1,34.8H145.4z"/>
			<path class="st1" d="M148.2,83.5c0.9,0,1.7,0.5,2.1,1.2l22.9,39.6c0.4,0.8,0.4,1.7,0,2.5l-22.9,39.6c-0.4,0.8-1.3,1.2-2.1,1.2
				h-45.8c-0.9,0-1.7-0.5-2.1-1.2l-22.9-39.6c-0.4-0.8-0.4-1.7,0-2.5l22.9-39.6c0.4-0.8,1.3-1.2,2.1-1.2H148.2 M103.9,162.7h42.9
				l21.5-37.2l-21.5-37.2h-42.9l-21.5,37.2L103.9,162.7 M148.2,78.7h-45.8c-2.6,0-5,1.4-6.3,3.6L73.3,122c-1.3,2.2-1.3,5,0,7.2
				l22.9,39.6c1.3,2.2,3.7,3.6,6.3,3.6h45.8c2.6,0,5-1.4,6.3-3.6l22.9-39.6c1.3-2.2,1.3-5,0-7.2l-22.9-39.6
				C153.2,80.1,150.8,78.7,148.2,78.7L148.2,78.7z M106.7,93.2h37.4l18.7,32.4L144.1,158h-37.4L88,125.6L106.7,93.2L106.7,93.2z"/>
		</g>
	</g>
	<g>
		<g>
			<path class="st2" d="M86.7,199.1c-2.4,0-4.6-1.3-5.8-3.3l-38.6-66.9c-1.2-2.1-1.2-4.6,0-6.7L81,55.3c1.2-2.1,3.4-3.3,5.8-3.3H164
				c2.4,0,4.6,1.3,5.8,3.3l38.6,66.9c1.2,2.1,1.2,4.6,0,6.7l-38.6,66.9c-1.2,2.1-3.4,3.3-5.8,3.3H86.7z M160.2,185.8l34.8-60.3
				l-34.8-60.3H90.6l-34.8,60.3l34.8,60.3H160.2z"/>
			<path class="st1" d="M164,54.5c1.5,0,2.9,0.8,3.6,2.1l38.6,66.9c0.7,1.3,0.7,2.9,0,4.2l-38.6,66.9c-0.7,1.3-2.1,2.1-3.6,2.1H86.7
				c-1.5,0-2.9-0.8-3.6-2.1l-38.6-66.9c-0.7-1.3-0.7-2.9,0-4.2l38.6-66.9c0.7-1.3,2.1-2.1,3.6-2.1H164 M89.1,188.3h72.5l36.2-62.8
				l-36.2-62.8H89.1l-36.2,62.8L89.1,188.3 M164,49.5H86.7c-3.3,0-6.3,1.8-7.9,4.6L40.2,121c-1.6,2.8-1.6,6.3,0,9.2l38.6,66.9
				c1.6,2.8,4.7,4.6,7.9,4.6H164c3.3,0,6.3-1.8,7.9-4.6l38.6-66.9c1.6-2.8,1.6-6.3,0-9.2l-38.6-66.9C170.3,51.3,167.3,49.5,164,49.5
				L164,49.5z M92,67.8h66.7l33.3,57.8l-33.3,57.8H92l-33.3-57.8L92,67.8L92,67.8z"/>
		</g>
	</g>
</g>
</svg>
