<?xml version="1.0" encoding="utf-8"?>
<!-- Generator: Adobe Illustrator 19.1.0, SVG Export Plug-In . SVG Version: 6.00 Build 0)  -->
<svg version="1.1" id="Layer_1" xmlns="http://www.w3.org/2000/svg" xmlns:xlink="http://www.w3.org/1999/xlink" x="0px" y="0px"
	 viewBox="0 0 250 250" style="enable-background:new 0 0 250 250;" xml:space="preserve">
<style type="text/css">
	.st0{fill:url(#SVGID_1_);}
	.st1{fill:#231F20;}
</style>
<g>
	<g>
		
			<linearGradient id="SVGID_1_" gradientUnits="userSpaceOnUse" x1="-861.1116" y1="242.0168" x2="-861.1116" y2="62.1072" gradientTransform="matrix(0.7071 0.7071 -0.7071 0.7071 840.9931 627.0923)">
			<stop  offset="0" style="stop-color:#C3161C"/>
			<stop  offset="1" style="stop-color:#EC1C24"/>
		</linearGradient>
		<path class="st0" d="M124.6,225c-17.9,0-34.8-7-47.4-19.6c-2.7-2.7-5.1-5.6-7.3-8.7c-3.2-2.2-6.1-4.6-8.8-7.3
			c-2.7-2.7-5.2-5.7-7.3-8.8c-3.1-2.2-6-4.7-8.7-7.3c-12.7-12.7-19.6-29.5-19.6-47.4c0-21.7,10.6-42.2,28.3-54.8
			c2.2-3.2,4.6-6.1,7.3-8.9c2.7-2.7,5.7-5.2,8.8-7.3c12.6-17.7,33-28.3,54.8-28.3c21.7,0,42.2,10.6,54.8,28.3
			c3.2,2.2,6.1,4.6,8.9,7.3c2.7,2.7,5.2,5.7,7.3,8.8c17.8,12.6,28.3,33,28.3,54.8c0,21.7-10.6,42.2-28.3,54.8
			c-2.2,3.2-4.6,6.1-7.3,8.8c-2.7,2.7-5.7,5.2-8.8,7.3C166.8,214.4,146.3,225,124.6,225C124.6,225,124.6,225,124.6,225z
			 M103.1,207.2c6.7,3,14,4.5,21.5,4.5c7.5,0,14.7-1.5,21.4-4.4c-0.3,0-0.6,0-0.9,0c-7,0-13.9-1.2-20.5-3.5
			c-6.6,2.3-13.4,3.5-20.4,3.5C103.8,207.2,103.4,207.2,103.1,207.2z M142.3,193.8c0.9,0.1,1.9,0.1,2.8,0.1c9,0,17.7-2.5,25.3-7.3
			c0.4-0.3,0.8-0.6,1.3-0.9c2.5-1.7,4.9-3.7,7.1-5.8c10.9-10.9,15.6-26.4,13.3-41.2c-2.5,13.4-9,25.8-18.9,35.6
			c-7.8,7.8-17.5,13.7-28,17C144.2,192.2,143.3,193,142.3,193.8z M64.6,172.8c1.7,2.5,3.7,4.9,5.8,7.1c9,9,21,13.9,33.7,13.9
			c2.5,0,5-0.2,7.5-0.6c-13.4-2.5-25.8-9-35.7-18.9c-7.8-7.8-13.7-17.5-17-28c-0.9-0.9-1.7-1.9-2.5-2.9c-0.6,9.9,1.9,19.7,7.2,28.1
			C64.1,171.9,64.4,172.4,64.6,172.8z M87.7,165.6c10.1,9.3,23.1,14.4,36.9,14.4c6.9,0,13.8-1.3,20.1-3.9
			c-12.3-2.6-28.3-9.4-44.8-25.8c-3.3-3.3-6.3-6.7-9.1-10.2c-1.3,3.5-2.3,7.1-2.9,10.6C86.8,157.7,87.3,163,87.7,165.6z M139,159.4
			c3.5,1.3,7.1,2.3,10.6,2.9c2.9,0.5,5.8,0.8,8.7,0.8c2.8,0,4.9-0.2,6.2-0.5c14.3-15.4,18.2-37.9,10.6-57.1
			c-2.6,12.3-9.4,28.3-25.8,44.8C145.9,153.6,142.5,156.7,139,159.4z M98.3,125.7c3.3,4.9,7.3,9.8,11.9,14.4
			c4.6,4.6,9.4,8.6,14.4,11.9c4.9-3.3,9.8-7.3,14.4-11.9c4.6-4.6,8.6-9.4,11.9-14.4c-3.3-4.9-7.3-9.8-11.9-14.4
			c-4.6-4.6-9.4-8.6-14.4-11.9c-4.9,3.3-9.8,7.3-14.4,11.9C105.6,115.9,101.6,120.7,98.3,125.7z M202.5,125.7
			c2.5,6.9,3.6,14.2,3.5,21.5c2.9-6.7,4.5-14,4.5-21.5c0-7.5-1.5-14.7-4.4-21.4C206.2,111.6,205,118.8,202.5,125.7z M43.1,104.2
			c-2.9,6.7-4.5,14-4.5,21.5c0,7.5,1.5,14.7,4.4,21.4c-0.1-7.3,1.1-14.5,3.5-21.4C44.2,118.8,43,111.5,43.1,104.2z M84.7,88.8
			c-14.3,15.4-18.2,37.9-10.6,57.1c2.6-12.3,9.4-28.3,25.8-44.8c3.3-3.3,6.7-6.3,10.2-9.1c-3.5-1.3-7.1-2.3-10.6-2.9
			c-2.9-0.5-5.8-0.8-8.7-0.8C88.2,88.4,86.1,88.6,84.7,88.8z M77.5,65.7c-2.5,1.7-4.9,3.7-7.1,5.8c-10.9,10.9-15.6,26.4-13.3,41.2
			c2.5-13.4,9-25.8,18.9-35.6c7.8-7.8,17.5-13.7,28-17c0.9-0.9,1.9-1.7,2.9-2.5c-0.9-0.1-1.9-0.1-2.8-0.1c-9,0-17.7,2.5-25.3,7.3
			C78.4,65.2,77.9,65.5,77.5,65.7z M104.4,75.3c12.3,2.6,28.3,9.4,44.8,25.8c3.3,3.3,6.3,6.7,9.1,10.2c1.3-3.5,2.3-7.1,2.9-10.6
			c1.2-7,0.7-12.3,0.3-14.9c-10.1-9.3-23.1-14.4-36.9-14.4C117.6,71.4,110.8,72.8,104.4,75.3z M190.2,105.1c0.9,0.9,1.7,1.9,2.5,2.9
			c0.6-9.9-1.9-19.6-7.2-28.1c-0.3-0.4-0.6-0.8-0.9-1.3c-1.7-2.5-3.7-4.9-5.8-7.1c-9-9-21-13.9-33.7-13.9c-2.5,0-5,0.2-7.5,0.6
			c13.4,2.5,25.8,9,35.7,18.9C181,84.9,186.9,94.6,190.2,105.1z M104.1,44.2c7,0,13.9,1.2,20.5,3.5c6.6-2.3,13.4-3.5,20.4-3.5
			c0.3,0,0.7,0,1,0c-6.7-3-14-4.5-21.5-4.5c-7.5,0-14.7,1.5-21.4,4.4C103.5,44.2,103.8,44.2,104.1,44.2z"/>
		<path class="st1" d="M124.6,29c21.1,0,40.9,10.3,53,27.6c3.1,2.1,6.1,4.5,8.9,7.3c2.7,2.7,5.2,5.7,7.3,8.9
			c17.3,12.1,27.6,31.8,27.6,53c0,21.1-10.3,40.9-27.6,53c-2.1,3.1-4.5,6.1-7.3,8.9c-2.7,2.7-5.7,5.2-8.9,7.3
			c-12.1,17.3-31.8,27.6-53,27.6c-17.3,0-33.7-6.9-45.7-18.9c-2.7-2.7-5.1-5.6-7.3-8.7c-3.1-2.1-6.1-4.5-8.9-7.3
			c-2.7-2.7-5.2-5.7-7.3-8.9c-3.2-2.2-6.1-4.7-8.7-7.3c-12-12-18.9-28.4-18.9-45.7c0-21.1,10.3-40.9,27.6-53
			c2.1-3.1,4.5-6.1,7.3-8.9c2.7-2.7,5.7-5.2,8.9-7.3C83.7,39.3,103.4,29,124.6,29 M91.4,48.1c4.2-0.9,8.4-1.4,12.7-1.4
			c6.9,0,13.8,1.2,20.5,3.7c6.6-2.4,13.5-3.7,20.4-3.7c4.3,0,8.6,0.5,12.8,1.4c-9.5-7-21.1-10.9-33.2-10.9
			C112.5,37.3,100.9,41.2,91.4,48.1 M58.3,125.8c0-17,6.4-34,19.4-47c8-8,17.4-13.5,27.5-16.5c2.6-2.4,5.4-4.5,8.3-6.4
			c-3.1-0.6-6.3-0.9-9.4-0.9c-9.4,0-18.8,2.7-26.8,7.8c-0.3,0.3-0.7,0.5-1.1,0.7c-2.7,1.8-5.2,3.9-7.6,6.2
			C53.5,84.9,50.1,107.4,58.3,125.8 M124.5,59.5c0,0,0.1,0,0.1,0c17,0,33.9,6.5,46.8,19.4c8,8,13.5,17.4,16.5,27.5
			c2.4,2.6,4.5,5.4,6.4,8.3c2.4-12.5-0.1-25.5-6.9-36.2c-0.3-0.3-0.5-0.7-0.7-1.1c-1.8-2.7-3.9-5.2-6.2-7.6
			c-9.8-9.8-22.6-14.7-35.5-14.7C138,55.1,131,56.6,124.5,59.5 M158.9,116.3c2.3-5,3.9-10.1,4.7-15.1c1.4-8.2,0.6-14.2,0.2-16.6
			c-11-10.5-25.1-15.7-39.2-15.7c-9.9,0-19.7,2.6-28.5,7.7c12.8,1.1,31.7,6.6,51.4,26.3C151.7,107.2,155.6,111.7,158.9,116.3
			 M75.4,154.3c1.1-12.8,6.6-31.7,26.3-51.4c4.3-4.3,8.8-8.2,13.5-11.5c-5-2.3-10.1-3.9-15.1-4.7c-3.4-0.6-6.5-0.8-9.1-0.8
			c-3.5,0-6.1,0.4-7.5,0.6C65.7,105.1,63,132.9,75.4,154.3 M47,158.9c-2.4-10.8-1.7-22.3,2.3-33.2c-4-10.6-4.7-22.2-2.3-33.2
			c-7,9.5-10.9,21.1-10.9,33.2C36.2,137.8,40,149.4,47,158.9 M202.1,159c7-9.5,10.9-21.1,10.9-33.2c0-12.1-3.9-23.7-10.8-33.2
			c2.4,10.8,1.7,22.3-2.3,33.2C203.8,136.4,204.6,148,202.1,159 M124.6,155c5.5-3.5,11-7.9,16.1-13.1c5.2-5.2,9.5-10.6,13.1-16.2
			c-3.5-5.5-7.9-11-13.1-16.1c-5.2-5.2-10.6-9.5-16.2-13.1c-5.5,3.5-11,7.9-16.1,13.1c-5.2,5.2-9.5,10.6-13.1,16.2
			c3.5,5.5,7.9,11,13.1,16.1C113.6,147.1,119,151.4,124.6,155 M158.2,165.6c3.5,0,6.1-0.4,7.5-0.6c17.8-18.6,20.5-46.4,8-67.8
			c-1.1,12.8-6.6,31.7-26.3,51.4c-4.3,4.3-8.8,8.2-13.5,11.5c5,2.3,10.1,3.9,15.1,4.7C152.5,165.4,155.6,165.6,158.2,165.6
			 M145.1,196.4c9.4,0,18.8-2.7,26.8-7.8c0.3-0.3,0.7-0.5,1.1-0.7c2.7-1.8,5.2-3.9,7.6-6.2c15.1-15.1,18.6-37.6,10.3-56.1
			c0,17-6.4,34-19.4,47c-8,8-17.4,13.5-27.5,16.5c-2.6,2.4-5.4,4.5-8.3,6.4C138.8,196.1,141.9,196.4,145.1,196.4 M124.6,182.5
			c9.9,0,19.7-2.6,28.5-7.7c-12.8-1.1-31.7-6.6-51.4-26.3c-4.3-4.3-8.2-8.8-11.5-13.5c-2.3,5-3.9,10.1-4.7,15.1
			c-1.4,8.2-0.6,14.2-0.2,16.6C96.3,177.3,110.4,182.5,124.6,182.5 M104.1,196.3c7,0,14.1-1.5,20.6-4.4c0,0-0.1,0-0.1,0
			c-17,0-33.9-6.5-46.8-19.4c-8-8-13.5-17.4-16.5-27.5c-2.4-2.6-4.5-5.4-6.4-8.3c-2.4,12.5,0.1,25.5,6.9,36.2
			c0.3,0.3,0.5,0.7,0.7,1.1c1.8,2.7,3.9,5.2,6.2,7.6C78.4,191.4,91.3,196.3,104.1,196.3 M104.1,204.7c-4.3,0-8.6-0.5-12.8-1.4
			c9.5,7,21.1,10.9,33.2,10.9c12.1,0,23.7-3.9,33.2-10.8c-4.2,0.9-8.4,1.4-12.7,1.4c-6.9,0-13.8-1.2-20.5-3.7
			C118,203.4,111,204.7,104.1,204.7 M124.6,24C102.2,24,81.1,34.8,68,53c-3.2,2.2-6.1,4.7-8.8,7.4c-2.7,2.7-5.2,5.7-7.4,8.8
			c-18.2,13.1-29,34.1-29,56.5c0,18.6,7.2,36.1,20.4,49.2c2.7,2.7,5.6,5.1,8.7,7.3c2.2,3.2,4.7,6.1,7.4,8.8c2.7,2.7,5.7,5.2,8.8,7.4
			c2.2,3.1,4.7,6,7.3,8.6c13.1,13.1,30.6,20.4,49.2,20.4c22.4,0,43.5-10.8,56.5-29c3.2-2.2,6.1-4.7,8.8-7.4c2.7-2.7,5.2-5.7,7.4-8.8
			c18.2-13.1,29-34.1,29-56.5c0-22.4-10.8-43.5-29-56.5c-2.2-3.2-4.7-6.1-7.4-8.8c-2.7-2.7-5.7-5.2-8.8-7.4
			C168,34.8,147,24,124.6,24L124.6,24z M116.5,42.9c2.7-0.4,5.4-0.6,8.1-0.6c2.8,0,5.5,0.2,8.2,0.7c-2.8,0.5-5.5,1.3-8.2,2.2
			C121.9,44.2,119.2,43.5,116.5,42.9L116.5,42.9z M80.2,66.9c4.5-2.8,9.3-4.7,14.4-5.8c-7.6,3.5-14.5,8.3-20.4,14.3
			c-5.9,5.9-10.6,12.6-14.1,20c1.8-8.2,5.9-15.8,12.1-22c2-2,4.2-3.8,6.6-5.4C79.3,67.6,79.8,67.3,80.2,66.9L80.2,66.9z M189.2,95.8
			c-3.5-7.6-8.4-14.5-14.3-20.5c-6-6-12.8-10.7-20.2-14.2c8.4,1.8,16,6,22.2,12.2c2,2,3.8,4.2,5.4,6.6c0.3,0.5,0.6,1,1,1.5
			C186.2,85.9,188.2,90.7,189.2,95.8L189.2,95.8z M113.4,75.1c3.6-0.8,7.4-1.2,11.1-1.2c12.9,0,25.1,4.7,34.6,13.2
			c0.3,2.6,0.6,7.3-0.4,13.2c-0.3,1.9-0.8,3.9-1.4,5.9c-2-2.4-4.1-4.7-6.4-6.9C137.6,86,124.6,78.9,113.4,75.1L113.4,75.1z M86,91.2
			c1.2-0.2,2.9-0.3,5-0.3c2.7,0,5.5,0.2,8.2,0.7c2,0.3,3.9,0.8,5.9,1.4c-2.4,2-4.7,4.1-6.9,6.4c-13.3,13.3-20.5,26.4-24.2,37.5
			C70.5,120.9,74.8,103.7,86,91.2L86,91.2z M101.3,125.7c3-4.4,6.6-8.6,10.6-12.7c4.1-4.1,8.3-7.6,12.6-10.6
			c4.4,3,8.6,6.6,12.7,10.6c4.1,4.1,7.6,8.3,10.6,12.6c-3,4.4-6.6,8.6-10.6,12.7c-4.1,4.1-8.3,7.6-12.6,10.6
			c-4.4-3-8.6-6.6-12.7-10.6C107.9,134.3,104.3,130.1,101.3,125.7L101.3,125.7z M144.1,158.5c2.4-2,4.7-4.1,6.9-6.4
			c13.3-13.3,20.5-26.4,24.2-37.5c3.5,16-0.8,33.2-12,45.7c-1.2,0.2-2.9,0.3-5,0.3c-2.7,0-5.5-0.2-8.2-0.7
			C148,159.5,146,159.1,144.1,158.5L144.1,158.5z M41.8,133.8c-0.4-2.7-0.6-5.4-0.6-8.1c0-2.8,0.2-5.5,0.7-8.2
			c0.5,2.8,1.3,5.5,2.2,8.2C43.1,128.4,42.3,131.1,41.8,133.8L41.8,133.8z M205.2,125.7c0.9-2.7,1.6-5.4,2.2-8.1
			c0.4,2.7,0.6,5.4,0.6,8.1c0,2.8-0.2,5.5-0.6,8.2C206.8,131.2,206.1,128.4,205.2,125.7L205.2,125.7z M90,164.3
			c-0.3-2.6-0.6-7.3,0.4-13.2c0.3-2,0.8-3.9,1.4-5.9c2,2.4,4.1,4.7,6.4,6.9c13.3,13.3,26.4,20.5,37.5,24.2
			c-3.6,0.8-7.4,1.2-11.1,1.2C111.7,177.5,99.5,172.8,90,164.3L90,164.3z M65.8,170.1c-2.8-4.5-4.8-9.4-5.9-14.4
			c3.5,7.6,8.3,14.5,14.3,20.5c6,6,12.8,10.7,20.2,14.2c-8.4-1.8-16-6-22.2-12.2c-2-2-3.8-4.2-5.4-6.6
			C66.5,171,66.1,170.5,65.8,170.1L65.8,170.1z M154.5,190.4c7.6-3.5,14.5-8.3,20.4-14.3c5.9-5.9,10.6-12.6,14.1-20
			c-1.8,8.2-5.9,15.8-12.1,22c-2,2-4.2,3.8-6.6,5.4c-0.5,0.3-1,0.6-1.5,1C164.5,187.3,159.6,189.3,154.5,190.4L154.5,190.4z
			 M116.4,208.5c2.8-0.5,5.5-1.3,8.2-2.2c2.7,0.9,5.4,1.6,8.1,2.2c-2.7,0.4-5.4,0.6-8.1,0.6C121.8,209.1,119.1,208.9,116.4,208.5
			L116.4,208.5z"/>
	</g>
</g>
</svg>
