<?xml version="1.0" encoding="utf-8"?>
<!-- Generator: Adobe Illustrator 19.1.0, SVG Export Plug-In . SVG Version: 6.00 Build 0)  -->
<svg version="1.1" id="Layer_1" xmlns="http://www.w3.org/2000/svg" xmlns:xlink="http://www.w3.org/1999/xlink" x="0px" y="0px"
	 viewBox="0 0 250 250" style="enable-background:new 0 0 250 250;" xml:space="preserve">
<style type="text/css">
	.st0{fill:#FFCF46;stroke:#231F20;stroke-width:4.4995;stroke-miterlimit:10;}
	.st1{fill:#F89C1C;stroke:#231F20;stroke-width:4.4995;stroke-miterlimit:10;}
</style>
<g>
	<g>
		<circle class="st0" cx="83.5" cy="84.7" r="56.4"/>
		<circle class="st1" cx="83.5" cy="84.7" r="46.4"/>
		<circle class="st0" cx="83.5" cy="84.7" r="36.3"/>
		<circle class="st1" cx="83.5" cy="84.7" r="26.6"/>
		<circle class="st0" cx="83.5" cy="84.7" r="16.3"/>
	</g>
	<g>
		<circle class="st0" cx="165.9" cy="84.7" r="56.4"/>
		<circle class="st1" cx="165.9" cy="84.7" r="46.4"/>
		<circle class="st0" cx="165.9" cy="84.7" r="36.3"/>
		<circle class="st1" cx="165.9" cy="84.7" r="26.6"/>
		<circle class="st0" cx="165.9" cy="84.7" r="16.3"/>
	</g>
	<g>
		<circle class="st0" cx="165.9" cy="166.5" r="56.4"/>
		<circle class="st1" cx="165.9" cy="166.5" r="46.4"/>
		<circle class="st0" cx="165.9" cy="166.5" r="36.3"/>
		<circle class="st1" cx="165.9" cy="166.5" r="26.6"/>
		<circle class="st0" cx="165.9" cy="166.5" r="16.3"/>
	</g>
	<g>
		<circle class="st0" cx="83.5" cy="166.5" r="56.4"/>
		<circle class="st1" cx="83.5" cy="166.5" r="46.4"/>
		<circle class="st0" cx="83.5" cy="166.5" r="36.3"/>
		<circle class="st1" cx="83.5" cy="166.5" r="26.6"/>
		<circle class="st0" cx="83.5" cy="166.5" r="16.3"/>
	</g>
	<g>
		<circle class="st0" cx="126.3" cy="126.6" r="56.4"/>
		<circle class="st1" cx="126.3" cy="126.6" r="46.4"/>
		<circle class="st0" cx="126.3" cy="126.6" r="36.3"/>
		<circle class="st1" cx="126.3" cy="126.6" r="26.6"/>
		<circle class="st0" cx="126.3" cy="126.6" r="16.3"/>
	</g>
</g>
</svg>
