<?xml version="1.0" encoding="utf-8"?>
<!-- Generator: Adobe Illustrator 19.1.0, SVG Export Plug-In . SVG Version: 6.00 Build 0)  -->
<svg version="1.1" id="Layer_1" xmlns="http://www.w3.org/2000/svg" xmlns:xlink="http://www.w3.org/1999/xlink" x="0px" y="0px"
	 viewBox="0 0 250 250" style="enable-background:new 0 0 250 250;" xml:space="preserve">
<style type="text/css">
	.st0{fill:#F89C1C;}
	.st1{fill:#231F20;}
	.st2{fill:url(#SVGID_1_);}
	.st3{fill:#FFFFFF;}
	.st4{fill:url(#SVGID_2_);}
	.st5{fill:url(#SVGID_3_);}
	.st6{fill:url(#SVGID_4_);}
	.st7{fill:url(#SVGID_5_);}
</style>
<g>
	<g>
		<path class="st0" d="M123.1,68.7c-1.4,0-2.5-1.1-2.5-2.5v-25c0-1.4,1.1-2.5,2.5-2.5h4.2c1.4,0,2.5,1.1,2.5,2.5v25
			c0,1.4-1.1,2.5-2.5,2.5H123.1z"/>
		<path class="st1" d="M127.4,41.2v25h-4.2v-25H127.4 M127.4,36.2h-4.2c-2.8,0-5,2.2-5,5v25c0,2.8,2.2,5,5,5h4.2c2.8,0,5-2.2,5-5
			v-25C132.4,38.4,130.1,36.2,127.4,36.2L127.4,36.2z"/>
	</g>
	<g>
		<g>
			<linearGradient id="SVGID_1_" gradientUnits="userSpaceOnUse" x1="63.0566" y1="198.8662" x2="187.4531" y2="198.8662">
				<stop  offset="0.1964" style="stop-color:#F27321"/>
				<stop  offset="0.7517" style="stop-color:#FFCA05"/>
			</linearGradient>
			<path class="st2" d="M125.3,215.4c-23.9,0-46.4-10.6-61.6-29c-0.8-0.9-0.8-2.3,0-3.2c0.5-0.6,1.2-0.9,1.9-0.9
				c0.5,0,0.9,0.1,1.3,0.4c15.4,9.5,36.1,14.7,58.4,14.7c22.3,0,43-5.2,58.4-14.7c0.4-0.3,0.9-0.4,1.3-0.4c0.7,0,1.4,0.3,1.9,0.9
				c0.8,0.9,0.8,2.3,0,3.2C171.6,204.8,149.1,215.4,125.3,215.4z"/>
			<path class="st1" d="M185,184.8L185,184.8 M185,184.8c-14.2,17.1-35.7,28.1-59.7,28.1S79.8,202,65.6,184.8
				c15.1,9.3,36.3,15.1,59.7,15.1C148.7,199.9,169.9,194.1,185,184.8 M185,179.8c-0.2,0-0.4,0-0.6,0c-0.7,0.1-1.4,0.4-2,0.7
				c-14.8,9.1-35.6,14.3-57,14.3c-21.5,0-42.3-5.2-57.1-14.4c-0.8-0.5-1.7-0.7-2.6-0.7c-1.4,0-2.8,0.6-3.8,1.7
				c-1.6,1.8-1.6,4.6-0.1,6.5c15.7,19,38.9,29.9,63.5,29.9c24.6,0,47.7-10.9,63.5-29.8c0.8-0.9,1.2-2,1.2-3.3c0-2.7-2.2-4.9-4.9-5
				C185,179.8,185,179.8,185,179.8L185,179.8z"/>
		</g>
		<g>
			<path class="st3" d="M125.3,131.5c-31,0-58.8-10-72.6-26.2c-0.6-0.7-0.8-1.8-0.4-2.6c1.2-2.8,2.6-5.5,4.1-8
				c0.4-0.6,1-1.1,1.7-1.2c0.1,0,0.3,0,0.4,0c0.6,0,1.1,0.2,1.6,0.6c15.1,12.2,39.5,19.5,65.2,19.5c25.7,0,50-7.3,65.2-19.5
				c0.4-0.4,1-0.6,1.6-0.6c0.1,0,0.3,0,0.4,0c0.7,0.1,1.3,0.6,1.7,1.2c1.5,2.5,2.9,5.2,4.1,8c0.4,0.9,0.2,1.9-0.4,2.6
				C184.1,121.5,156.2,131.5,125.3,131.5z"/>
			<path class="st1" d="M192,96c1.5,2.5,2.8,5.1,4,7.7c-12.8,15-39.7,25.3-70.7,25.3s-57.9-10.3-70.7-25.3c1.2-2.7,2.5-5.3,4-7.7
				c15.1,12.2,39.4,20.1,66.7,20.1C152.6,116,176.9,108.1,192,96 M58.5,91c-0.3,0-0.6,0-0.9,0.1c-1.4,0.3-2.7,1.1-3.4,2.4
				c-1.6,2.6-3,5.4-4.3,8.2c-0.8,1.8-0.5,3.8,0.8,5.3C65,123.6,93.6,134,125.3,134c31.7,0,60.2-10.4,74.5-27.1
				c1.3-1.5,1.6-3.5,0.8-5.3c-1.3-2.8-2.7-5.6-4.3-8.2c-0.7-1.2-2-2.1-3.4-2.4c-0.3-0.1-0.6-0.1-0.9-0.1c-1.1,0-2.2,0.4-3.1,1.1
				c-14.7,11.9-38.5,19-63.6,19c-25.1,0-48.9-7.1-63.6-19C60.8,91.3,59.6,91,58.5,91L58.5,91z"/>
		</g>
		<g>
			<linearGradient id="SVGID_2_" gradientUnits="userSpaceOnUse" x1="58.0107" y1="98.4968" x2="192.4992" y2="98.4968">
				<stop  offset="0.1964" style="stop-color:#F27321"/>
				<stop  offset="0.7517" style="stop-color:#FFCA05"/>
			</linearGradient>
			<path class="st4" d="M125.3,114.7c-26.3,0-51.1-7.5-66.3-20c-1-0.8-1.2-2.2-0.5-3.3c1.9-2.8,4-5.6,6.3-8.3
				c0.5-0.6,1.2-0.9,1.9-0.9c0.4,0,0.9,0.1,1.3,0.4c15.3,9.1,35.7,14.1,57.4,14.1c21.7,0,42.1-5,57.4-14.1c0.4-0.2,0.8-0.4,1.3-0.4
				c0.7,0,1.4,0.3,1.9,0.9c2.3,2.6,4.4,5.4,6.3,8.3c0.7,1.1,0.5,2.5-0.5,3.3C176.4,107.2,151.6,114.7,125.3,114.7z"/>
			<path class="st1" d="M183.9,84.8c2.2,2.5,4.2,5.2,6.1,8c-14.2,11.8-37.9,19.5-64.7,19.5s-50.5-7.7-64.7-19.5
				c1.8-2.8,3.9-5.5,6.1-8c15,8.9,35.8,14.5,58.7,14.5C148.2,99.2,168.9,93.7,183.9,84.8 M183.9,79.8c-0.9,0-1.8,0.2-2.6,0.7
				c-14.9,8.9-34.8,13.8-56.1,13.8c-21.3,0-41.2-4.9-56.1-13.8c-0.8-0.5-1.7-0.7-2.6-0.7c-1.4,0-2.8,0.6-3.8,1.7
				c-2.3,2.7-4.5,5.6-6.5,8.5c-1.4,2.1-1,5,1,6.6c15.6,12.9,41,20.6,67.9,20.6c26.9,0,52.3-7.7,67.9-20.6c2-1.6,2.4-4.5,1-6.6
				c-1.9-2.9-4.1-5.8-6.5-8.5C186.7,80.4,185.3,79.8,183.9,79.8L183.9,79.8z"/>
		</g>
		<g>
			<path class="st3" d="M125.3,98c-21.7,0-42.1-4.9-57.4-13.8c-0.7-0.4-1.1-1.1-1.2-1.8s0.1-1.5,0.7-2.1c2.9-3.1,6.1-5.9,9.4-8.4
				c0.4-0.3,1-0.5,1.5-0.5c0.3,0,0.6,0.1,0.9,0.2C92.8,77,108.7,80,125.3,80c16.6,0,32.5-2.9,46.1-8.5c0.3-0.1,0.6-0.2,0.9-0.2
				c0.5,0,1.1,0.2,1.5,0.5c3.3,2.5,6.5,5.4,9.4,8.4c0.5,0.6,0.8,1.3,0.7,2.1c-0.1,0.8-0.6,1.4-1.2,1.8C167.3,93,146.9,98,125.3,98z"
				/>
			<path class="st1" d="M78.2,73.8c13.4,5.5,29.6,8.7,47,8.7c17.5,0,33.6-3.2,47-8.7c3.3,2.5,6.3,5.2,9.1,8.2
				c-14.3,8.3-34.2,13.5-56.1,13.5c-22,0-41.8-5.2-56.1-13.5C71.9,79,75,76.2,78.2,73.8 M78.2,68.8c-1.1,0-2.1,0.3-3,1
				c-3.4,2.6-6.7,5.5-9.7,8.7c-1.1,1.1-1.5,2.6-1.3,4.2c0.2,1.5,1.1,2.8,2.4,3.6c15.7,9.1,36.5,14.2,58.6,14.2
				c22.1,0,42.9-5,58.6-14.2c1.3-0.8,2.2-2.1,2.4-3.6c0.2-1.5-0.3-3-1.3-4.2c-3-3.2-6.3-6.1-9.7-8.7c-0.9-0.7-2-1-3-1
				c-0.6,0-1.3,0.1-1.9,0.4c-13.3,5.4-28.9,8.3-45.1,8.3c-16.2,0-31.8-2.9-45.1-8.3C79.5,68.9,78.9,68.8,78.2,68.8L78.2,68.8z"/>
		</g>
		<g>
			<path class="st3" d="M125.3,198.7c-27.7,0-53.2-8.1-68.3-21.7c-0.2-0.2-0.3-0.4-0.5-0.6c-3.9-6.6-6.9-13.7-8.8-21
				c-0.3-1.1,0.3-2.3,1.3-2.9c0.4-0.2,0.7-0.3,1.1-0.3c0.7,0,1.5,0.3,2,1c13.1,16.7,41.8,27.5,73.1,27.5c31.3,0,60-10.8,73.1-27.5
				c0.5-0.6,1.2-1,2-1c0.4,0,0.8,0.1,1.1,0.3c1.1,0.5,1.6,1.7,1.3,2.9c-1.9,7.4-4.9,14.4-8.8,21c-0.1,0.2-0.3,0.4-0.5,0.6
				C178.5,190.5,153,198.7,125.3,198.7z"/>
			<path class="st1" d="M200.3,154.7L200.3,154.7 M200.3,154.7c-1.9,7.3-4.8,14.1-8.5,20.4c-14,12.6-38.6,21.1-66.6,21.1
				c-28,0-52.6-8.4-66.6-21.1c-3.8-6.3-6.6-13.1-8.5-20.4c13.1,16.8,41.8,28.4,75.1,28.4C158.5,183.2,187.2,171.5,200.3,154.7
				 M200.3,149.7c-0.1,0-0.2,0-0.3,0c-0.9,0.1-1.7,0.3-2.4,0.8c0,0,0,0,0,0c0,0,0,0,0,0c-0.4,0.2-0.7,0.5-1,0.9
				c-0.1,0.1-0.1,0.2-0.2,0.3c-12.6,16.1-40.5,26.5-71.1,26.5c-30.6,0-58.5-10.4-71.2-26.5c-1-1.2-2.4-1.9-3.9-1.9
				c-0.7,0-1.5,0.2-2.2,0.5c-2.1,1-3.2,3.4-2.6,5.7c2,7.6,5,14.9,9.1,21.7c0.3,0.4,0.6,0.8,0.9,1.1c15.5,14,41.6,22.3,69.9,22.3
				c28.3,0,54.5-8.4,69.9-22.3c0.4-0.3,0.7-0.7,0.9-1.1c4-6.7,7.1-14,9-21.5c0.1-0.5,0.2-0.9,0.2-1.4c0-2.7-2.1-4.8-4.7-5
				C200.6,149.7,200.5,149.7,200.3,149.7L200.3,149.7z"/>
		</g>
		<g>
			<linearGradient id="SVGID_3_" gradientUnits="userSpaceOnUse" x1="48.0006" y1="126.6809" x2="202.5096" y2="126.6809">
				<stop  offset="0.1964" style="stop-color:#F27321"/>
				<stop  offset="0.7517" style="stop-color:#FFCA05"/>
			</linearGradient>
			<path class="st5" d="M125.3,148.3c-34.8,0-65.8-12.9-76.9-32.2c-0.3-0.6-0.4-1.3-0.2-1.9c0.7-2.5,1.5-5.1,2.5-7.5
				c0.3-0.8,1-1.4,1.9-1.6c0.2,0,0.3,0,0.5,0c0.7,0,1.3,0.3,1.8,0.8c14.2,15.1,41.2,24.5,70.5,24.5c29.3,0,56.4-9.4,70.5-24.5
				c0.5-0.5,1.1-0.8,1.8-0.8c0.2,0,0.3,0,0.5,0c0.8,0.2,1.5,0.8,1.9,1.6c0.9,2.5,1.8,5,2.5,7.5c0.2,0.6,0.1,1.3-0.2,1.9
				C191,135.4,160.1,148.3,125.3,148.3z"/>
			<path class="st1" d="M197.6,107.6c0.9,2.4,1.7,4.8,2.4,7.3c-10.4,18-40,30.9-74.8,30.9c-34.8,0-64.3-13-74.8-30.9
				c0.7-2.5,1.5-4.9,2.4-7.3c14.1,15,41.3,25.3,72.4,25.3C156.4,132.8,183.5,122.6,197.6,107.6 M197.6,102.6c-1.4,0-2.7,0.6-3.6,1.6
				c-13.7,14.6-40,23.7-68.7,23.7c-28.7,0-55-9.1-68.7-23.7c-1-1-2.3-1.6-3.6-1.6c-0.3,0-0.6,0-1,0.1c-1.7,0.3-3.1,1.5-3.7,3.1
				c-1,2.5-1.8,5.2-2.6,7.8c-0.4,1.3-0.2,2.7,0.5,3.8c11.6,20,43.4,33.4,79.1,33.4s67.5-13.4,79.1-33.4c0.7-1.2,0.9-2.5,0.5-3.8
				c-0.7-2.6-1.6-5.2-2.6-7.8c-0.6-1.6-2-2.8-3.7-3.1C198.3,102.6,197.9,102.6,197.6,102.6L197.6,102.6z"/>
		</g>
		<g>
			<linearGradient id="SVGID_4_" gradientUnits="userSpaceOnUse" x1="45.2349" y1="156.9561" x2="205.2754" y2="156.9561">
				<stop  offset="0.1964" style="stop-color:#F27321"/>
				<stop  offset="0.7517" style="stop-color:#FFCA05"/>
			</linearGradient>
			<path class="st6" d="M125.3,181.9c-38.1,0-71.5-15.8-79.4-37.5c-0.1-0.2-0.1-0.4-0.1-0.6c-0.3-2.8-0.4-5.6-0.4-8.4
				c0-0.2,0-0.4,0-0.5l0-0.3c0-1.1,0.8-2.1,1.8-2.4c0.2-0.1,0.5-0.1,0.7-0.1c0.8,0,1.6,0.4,2.1,1.2c11.6,18.3,41.9,30.7,75.4,30.7
				c33.5,0,63.8-12.3,75.4-30.7c0.5-0.7,1.3-1.2,2.1-1.2c0.2,0,0.5,0,0.7,0.1c1.1,0.3,1.8,1.3,1.8,2.4l0,0.3c0,0.2,0,0.4,0,0.5
				c0,2.8-0.1,5.6-0.4,8.4c0,0.2-0.1,0.4-0.1,0.6C196.8,166.1,163.3,181.9,125.3,181.9z"/>
			<path class="st1" d="M202.8,134.5c0,0.3,0,0.6,0,0.8c0,2.7-0.1,5.4-0.4,8.1c-7.5,20.5-39.2,35.9-77.1,35.9
				c-37.9,0-69.6-15.4-77.1-35.9c-0.3-2.7-0.4-5.4-0.4-8.1c0-0.3,0-0.6,0-0.8c11.7,18.6,42,31.8,77.5,31.8
				C160.7,166.4,191,153.1,202.8,134.5 M202.8,129.5c-1.7,0-3.3,0.9-4.2,2.3c-11.2,17.6-40.6,29.5-73.3,29.5
				c-32.7,0-62.1-11.9-73.3-29.5c-0.9-1.5-2.5-2.3-4.2-2.3c-0.5,0-0.9,0.1-1.4,0.2c-2.1,0.6-3.6,2.5-3.6,4.8c0,0.1,0,0.2,0,0.3
				c0,0.2,0,0.4,0,0.6c0,2.9,0.2,5.8,0.5,8.6c0,0.4,0.1,0.8,0.3,1.2c4.1,11.2,14.7,21.3,29.7,28.4c14.7,6.9,33.2,10.7,52.1,10.7
				c18.9,0,37.4-3.8,52.1-10.7c15.1-7.1,25.6-17.2,29.7-28.4c0.1-0.4,0.2-0.8,0.3-1.2c0.3-2.9,0.5-5.8,0.5-8.6c0-0.2,0-0.4,0-0.6
				c0-0.1,0-0.2,0-0.3c0-2.2-1.5-4.2-3.6-4.8C203.7,129.6,203.2,129.5,202.8,129.5L202.8,129.5z"/>
		</g>
		<g>
			<linearGradient id="SVGID_5_" gradientUnits="userSpaceOnUse" x1="79.3269" y1="68.2654" x2="171.1827" y2="68.2654">
				<stop  offset="0.1964" style="stop-color:#F27321"/>
				<stop  offset="0.7517" style="stop-color:#FFCA05"/>
			</linearGradient>
			<path class="st7" d="M125.3,81.2c-15.8,0-31.1-2.7-44.3-7.7c-0.9-0.3-1.5-1.1-1.6-2c-0.1-0.9,0.3-1.8,1.1-2.4
				c13.3-9,28.8-13.7,44.8-13.7c16.1,0,31.6,4.7,44.8,13.7c0.8,0.5,1.2,1.4,1.1,2.4c-0.1,0.9-0.7,1.7-1.6,2
				C156.4,78.5,141.1,81.2,125.3,81.2z"/>
			<path class="st1" d="M125.3,57.9c16.1,0,31,4.9,43.4,13.3c-12.5,4.7-27.4,7.5-43.4,7.5c-16,0-31-2.8-43.4-7.5
				C94.2,62.8,109.2,57.9,125.3,57.9 M125.3,52.9c-16.6,0-32.6,4.9-46.2,14.2c-1.5,1-2.4,2.9-2.2,4.7c0.2,1.9,1.4,3.4,3.2,4.1
				c13.5,5.1,29.1,7.8,45.2,7.8c16.1,0,31.7-2.7,45.2-7.8c1.7-0.7,3-2.2,3.2-4.1c0.2-1.9-0.6-3.7-2.2-4.7
				C157.8,57.8,141.8,52.9,125.3,52.9L125.3,52.9z"/>
		</g>
		<g>
			<path class="st3" d="M125.3,165.1c-38.6,0-71.2-15.4-79.4-37.4c-0.1-0.4-0.2-0.8-0.1-1.1c0.3-2.4,0.6-4.8,1.1-7.1
				c0.2-1,0.9-1.7,1.9-1.9c0.2,0,0.4-0.1,0.5-0.1c0.8,0,1.5,0.4,2,1c12.7,17.4,41.7,28.6,74,28.6c32.3,0,61.3-11.2,74-28.6
				c0.5-0.7,1.2-1,2-1c0.2,0,0.4,0,0.5,0.1c1,0.2,1.7,1,1.9,1.9c0.5,2.3,0.8,4.7,1.1,7.1c0,0.4,0,0.8-0.1,1.1
				C196.5,149.7,163.8,165.1,125.3,165.1z"/>
			<path class="st1" d="M201.2,120c0.5,2.3,0.8,4.5,1.1,6.9c-7.6,20.4-39.2,35.7-77,35.7c-37.8,0-69.5-15.3-77-35.7
				c0.3-2.3,0.6-4.6,1.1-6.9c12.7,17.4,42,29.6,76,29.6C159.3,149.6,188.5,137.4,201.2,120 M201.2,115c-1.6,0-3.1,0.7-4,2.1
				c-5.8,7.9-15.4,14.7-27.8,19.6c-13.1,5.2-28.3,7.9-44.1,7.9c-15.8,0-31.1-2.7-44.1-7.9c-12.4-4.9-22-11.7-27.8-19.6
				c-1-1.3-2.5-2.1-4-2.1c-0.4,0-0.7,0-1.1,0.1c-1.9,0.4-3.4,2-3.8,3.9c-0.5,2.3-0.9,4.8-1.1,7.3c-0.1,0.8,0,1.6,0.3,2.3
				c4.2,11.2,14.7,21.2,29.7,28.3c14.7,6.9,33.1,10.7,52,10.7c18.8,0,37.3-3.8,52-10.7c15-7.1,25.6-17.1,29.7-28.3
				c0.3-0.7,0.4-1.5,0.3-2.3c-0.3-2.5-0.7-5-1.1-7.3c-0.4-1.9-1.9-3.5-3.8-3.9C202,115,201.6,115,201.2,115L201.2,115z"/>
		</g>
	</g>
</g>
</svg>
