<?xml version="1.0" encoding="utf-8"?>
<!-- Generator: Adobe Illustrator 19.1.0, SVG Export Plug-In . SVG Version: 6.00 Build 0)  -->
<svg version="1.1" id="Layer_1" xmlns="http://www.w3.org/2000/svg" xmlns:xlink="http://www.w3.org/1999/xlink" x="0px" y="0px"
	 viewBox="0 0 250 250" style="enable-background:new 0 0 250 250;" xml:space="preserve">
<style type="text/css">
	.st0{fill:#FFCF46;}
	.st1{fill:#231F20;}
	.st2{fill:#003375;}
	.st3{fill:#F89C1C;}
</style>
<g>
	<g>
		<path class="st0" d="M125.2,104.2c-0.3,0-0.6-0.1-0.9-0.2l-86-43c-0.7-0.3-1.1-1-1.1-1.8s0.4-1.5,1.1-1.8l43-21.5
			c0.3-0.1,0.6-0.2,0.9-0.2s0.6,0.1,0.9,0.2l42.1,21.1l42.1-21.1c0.3-0.1,0.6-0.2,0.9-0.2s0.6,0.1,0.9,0.2l43,21.5
			c0.7,0.3,1.1,1,1.1,1.8s-0.4,1.5-1.1,1.8l-86,43C125.8,104.1,125.5,104.2,125.2,104.2z"/>
		<path class="st1" d="M168.2,37.7l43,21.5l-43,21.5l-43,21.5l-43-21.5l-43-21.5l43-21.5l43,21.5L168.2,37.7 M82.2,33.7
			c-0.6,0-1.2,0.1-1.8,0.4l-43,21.5c-1.4,0.7-2.2,2.1-2.2,3.6c0,1.5,0.9,2.9,2.2,3.6l43,21.5l43,21.5c0.6,0.3,1.2,0.4,1.8,0.4
			s1.2-0.1,1.8-0.4l43-21.5l43-21.5c1.4-0.7,2.2-2.1,2.2-3.6c0-1.5-0.9-2.9-2.2-3.6l-43-21.5c-0.6-0.3-1.2-0.4-1.8-0.4
			c-0.6,0-1.2,0.1-1.8,0.4l-41.2,20.6L84,34.1C83.4,33.8,82.8,33.7,82.2,33.7L82.2,33.7z"/>
	</g>
	<g>
		<path class="st2" d="M125.2,215.5c-0.3,0-0.6-0.1-0.9-0.2l-43-21.5c-0.7-0.3-1.1-1-1.1-1.8v-54.4l-41.9-20.9
			c-0.7-0.3-1.1-1-1.1-1.8V59.2c0-0.7,0.4-1.3,0.9-1.7c0.3-0.2,0.7-0.3,1.1-0.3c0.3,0,0.6,0.1,0.9,0.2l86,43c0.7,0.3,1.1,1,1.1,1.8
			v111.3c0,0.7-0.4,1.3-0.9,1.7C125.9,215.4,125.5,215.5,125.2,215.5z"/>
		<path class="st1" d="M39.2,59.2l43,21.5l43,21.5v55.7v55.7l-43-21.5v-55.7l-43-21.5V59.2 M39.2,55.2c-0.7,0-1.5,0.2-2.1,0.6
			c-1.2,0.7-1.9,2-1.9,3.4v55.7c0,1.5,0.9,2.9,2.2,3.6l40.8,20.4V192c0,1.5,0.9,2.9,2.2,3.6l43,21.5c0.6,0.3,1.2,0.4,1.8,0.4
			c0.7,0,1.5-0.2,2.1-0.6c1.2-0.7,1.9-2,1.9-3.4v-55.7v-55.7c0-1.5-0.9-2.9-2.2-3.6L84,77.1L41,55.6C40.4,55.3,39.8,55.2,39.2,55.2
			L39.2,55.2z"/>
	</g>
	<g>
		<path class="st3" d="M125.2,215.5c-0.4,0-0.7-0.1-1.1-0.3c-0.6-0.4-0.9-1-0.9-1.7V102.2c0-0.8,0.4-1.5,1.1-1.8l86-43
			c0.3-0.1,0.6-0.2,0.9-0.2c0.4,0,0.7,0.1,1.1,0.3c0.6,0.4,0.9,1,0.9,1.7v55.7c0,0.8-0.4,1.5-1.1,1.8l-41.9,20.9V192
			c0,0.8-0.4,1.5-1.1,1.8l-43,21.5C125.8,215.4,125.5,215.5,125.2,215.5z"/>
		<path class="st1" d="M211.2,59.2v55.7l-43,21.5V192l-43,21.5v-55.7v-55.7l43-21.5L211.2,59.2 M211.2,55.2c-0.6,0-1.2,0.1-1.8,0.4
			l-43,21.5l-43,21.5c-1.4,0.7-2.2,2.1-2.2,3.6v55.7v55.7c0,1.4,0.7,2.7,1.9,3.4c0.6,0.4,1.4,0.6,2.1,0.6c0.6,0,1.2-0.1,1.8-0.4
			l43-21.5c1.4-0.7,2.2-2.1,2.2-3.6v-53.2l40.8-20.4c1.4-0.7,2.2-2.1,2.2-3.6V59.2c0-1.4-0.7-2.7-1.9-3.4
			C212.6,55.4,211.9,55.2,211.2,55.2L211.2,55.2z"/>
	</g>
</g>
</svg>
