<?xml version="1.0" encoding="utf-8"?>
<!-- Generator: Adobe Illustrator 19.1.0, SVG Export Plug-In . SVG Version: 6.00 Build 0)  -->
<svg version="1.1" id="Layer_1" xmlns="http://www.w3.org/2000/svg" xmlns:xlink="http://www.w3.org/1999/xlink" x="0px" y="0px"
	 viewBox="0 0 250 250" style="enable-background:new 0 0 250 250;" xml:space="preserve">
<style type="text/css">
	.st0{fill:url(#SVGID_1_);}
	.st1{fill:#231F20;}
	.st2{fill:#FFFFFF;}
</style>
<g>
	<g>
		<linearGradient id="SVGID_1_" gradientUnits="userSpaceOnUse" x1="50.5212" y1="125.4412" x2="199.8429" y2="125.4412">
			<stop  offset="0.3792" style="stop-color:#FFCF46"/>
			<stop  offset="0.7059" style="stop-color:#F89C1C"/>
		</linearGradient>
		<path class="st0" d="M125.3,210.6c-0.4,0-0.9-0.1-1.3-0.2c0,0-0.1,0-0.2-0.1c-0.3-0.1-0.6-0.2-1-0.4c0,0-0.1-0.1-0.2-0.1
			c-0.4-0.2-0.7-0.5-1-0.7c-0.1-0.1-0.1-0.1-0.2-0.2c-0.2-0.3-0.4-0.5-0.6-0.8c0-0.1-0.1-0.2-0.1-0.2l-21.2-38c0,0-43.9,1.4-44,1.4
			c-0.3,0-0.6,0-0.9-0.1c-0.1,0-0.2-0.1-0.3-0.1c-0.1,0-0.4-0.1-0.6-0.2c-0.1,0-0.2-0.1-0.3-0.1c-0.2-0.1-0.4-0.2-0.6-0.3
			c-0.1,0-0.2-0.1-0.2-0.2c-0.2-0.1-0.3-0.2-0.5-0.4c-0.1-0.1-0.2-0.1-0.2-0.2c0,0-0.1-0.1-0.1-0.1c-0.1-0.1-0.2-0.2-0.3-0.3
			c0,0-0.1-0.1-0.2-0.2c-0.1-0.1-0.2-0.3-0.2-0.4c0-0.1-0.1-0.2-0.2-0.3c-0.1-0.1-0.1-0.3-0.2-0.4c0-0.1-0.1-0.2-0.1-0.3
			c0,0-0.1-0.2-0.1-0.2c0-0.1-0.1-0.3-0.1-0.3c0-0.2-0.1-0.3-0.1-0.5c0-0.1,0-0.3,0-0.4c0-0.2,0-0.3,0-0.4c0-0.1,0-0.3,0-0.4
			c0-0.1,0-0.3,0.1-0.4c0-0.1,0.1-0.3,0.1-0.4c0-0.2,0.1-0.3,0.1-0.4c0.1-0.1,0.1-0.3,0.2-0.4c0-0.1,0.1-0.2,0.2-0.3l21.9-38.3
			L51.2,87.2c-0.1-0.1-0.1-0.3-0.2-0.4c0-0.1-0.1-0.2-0.2-0.4c0-0.1-0.1-0.3-0.1-0.4c0-0.1-0.1-0.3-0.1-0.4c0-0.1,0-0.3-0.1-0.4
			c0-0.1,0-0.3,0-0.4c0-0.1,0-0.3,0-0.4c0-0.2,0-0.3,0-0.4c0-0.2,0.1-0.3,0.1-0.5c0,0,0-0.2,0.1-0.3c0,0,0-0.1,0-0.1
			c0-0.1,0.1-0.3,0.2-0.4c0,0,0.1-0.1,0.1-0.3c0.1-0.2,0.2-0.3,0.3-0.5c0-0.1,0.1-0.2,0.2-0.3c0.1-0.1,0.2-0.3,0.3-0.4
			c0,0,0.1-0.1,0.1-0.2c0,0,0.1-0.1,0.1-0.1c0.1-0.1,0.3-0.3,0.5-0.4c0.1,0,0.1-0.1,0.2-0.1c0.8-0.6,1.8-0.9,2.8-0.9
			c0.1,0,0.2,0,0.2,0l43.9,1.4l21.2-38c0-0.1,0.1-0.2,0.2-0.3c0.1-0.1,0.2-0.3,0.3-0.4c0.1-0.1,0.2-0.2,0.2-0.3
			c0.1-0.1,0.2-0.2,0.3-0.4c0.1-0.1,0.2-0.2,0.3-0.2c0.1-0.1,0.3-0.2,0.4-0.3c0.1,0,0.2-0.1,0.3-0.2c0.1-0.1,0.3-0.1,0.5-0.2
			c0.1,0,0.2-0.1,0.3-0.1c0.2-0.1,0.3-0.1,0.5-0.2c0.1,0,0.2,0,0.3-0.1c0,0,0.1,0,0.1,0c0.2,0,0.4-0.1,0.5-0.1c0.1,0,0.2,0,0.3,0
			c0,0,0.2,0,0.2,0c0.1,0,0.2,0,0.3,0c0.1,0,0.3,0,0.5,0.1c0.1,0,0.1,0,0.2,0c0.1,0,0.2,0,0.3,0.1c0.1,0,0.2,0.1,0.4,0.1
			c0.1,0,0.2,0.1,0.3,0.1c0.2,0.1,0.3,0.2,0.5,0.2c0.1,0,0.2,0.1,0.3,0.2c0.1,0.1,0.3,0.2,0.4,0.3c0.1,0.1,0.2,0.1,0.3,0.2
			c0.1,0.1,0.2,0.2,0.3,0.3c0.1,0.1,0.2,0.2,0.3,0.3c0.1,0.1,0.2,0.3,0.3,0.4c0.1,0.1,0.1,0.2,0.2,0.3c0,0,21.3,38,21.3,38
			s43.5-1.4,43.5-1.4c0.1,0,0.2,0,0.3,0c0.2,0,0.3,0,0.5,0c0.1,0,0.2,0,0.2,0c0.2,0,0.4,0.1,0.6,0.1c0.1,0,0.1,0,0.2,0.1
			c0.2,0.1,0.4,0.1,0.6,0.2c0.1,0,0.2,0.1,0.3,0.2c0.1,0.1,0.3,0.1,0.4,0.3c0.1,0.1,0.2,0.2,0.3,0.3c0.1,0.1,0.2,0.2,0.3,0.3
			c0,0,0,0,0,0c0.1,0.1,0.2,0.3,0.4,0.4c0,0,0.1,0.1,0.1,0.1c0.2,0.2,0.3,0.4,0.4,0.6c0,0,0.1,0.1,0.1,0.2c0.1,0.2,0.1,0.3,0.2,0.4
			c0,0.1,0.1,0.2,0.1,0.3c0,0,0.1,0.2,0.1,0.2c0,0.1,0.1,0.3,0.1,0.3c0,0.2,0.1,0.3,0.1,0.5c0,0.1,0,0.3,0,0.4c0,0.2,0,0.3,0,0.4
			c0,0.1,0,0.3,0,0.4c0,0.2,0,0.3-0.1,0.4c0,0.2-0.1,0.3-0.1,0.4c0,0.2-0.1,0.3-0.1,0.4c0,0.1-0.1,0.3-0.2,0.4
			c0,0.1-0.1,0.2-0.2,0.3l-21.9,38.3l21.9,38.3c0.1,0.1,0.1,0.3,0.2,0.4c0,0.1,0.1,0.2,0.2,0.3c0.1,0.1,0.1,0.3,0.1,0.4
			c0,0.2,0.1,0.3,0.1,0.4c0,0.2,0.1,0.3,0.1,0.4c0,0.2,0,0.3,0,0.4c0,0.1,0,0.3,0,0.4c0,0.2,0,0.3,0,0.4c0,0.2-0.1,0.3-0.1,0.5
			c0,0.1,0,0.2-0.1,0.3c0,0,0,0.1,0,0.2c0,0.1-0.1,0.2-0.1,0.3c0,0.1-0.1,0.2-0.1,0.3c0,0.1-0.1,0.3-0.2,0.4
			c-0.1,0.1-0.2,0.3-0.3,0.4c-0.1,0.1-0.1,0.2-0.2,0.3l0,0c-0.1,0.1-0.2,0.2-0.2,0.3c0,0-0.1,0.1-0.1,0.1c-0.1,0.1-0.2,0.1-0.2,0.2
			c-0.1,0.1-0.3,0.2-0.5,0.4c-0.1,0.1-0.2,0.1-0.3,0.2c-0.2,0.1-0.4,0.2-0.5,0.3c-0.1,0-0.2,0.1-0.3,0.1c-0.2,0.1-0.4,0.1-0.6,0.2
			c0,0-0.1,0-0.2,0.1c-0.3,0.1-0.6,0.1-0.9,0.1c0,0-43.6-1.4-43.6-1.4s-21.3,38-21.3,38c0,0.1-0.1,0.1-0.1,0.2
			c-0.2,0.3-0.4,0.5-0.6,0.8c0,0.1-0.1,0.1-0.1,0.2c-0.3,0.3-0.6,0.5-1,0.7c0,0-0.2,0.1-0.2,0.1c-0.3,0.2-0.6,0.3-1,0.4
			c-0.1,0-0.2,0.1-0.2,0.1C126.2,210.6,125.8,210.6,125.3,210.6z M130.5,185.8l11.7-21l-2.6-4.7l-9.1-16V185.8z M120.2,185.8v-42
			l-11.7,21L120.2,185.8z M75.2,160.5l24-0.7l11.9-20.9L75.2,160.5z M175.2,160.5l-35.7-21.4l9,16.1l2.6,4.6L175.2,160.5z
			 M69.9,151.7l34.5-20.7l-13.7-0.4l-8.8,0.3L69.9,151.7z M180.5,151.7l-11.9-20.9l-8.8-0.3L146,131L180.5,151.7z M159.8,120.3
			l8.8-0.3l11.9-20.9L146,119.9L159.8,120.3z M90.6,120.3l13.7-0.4L69.9,99.2L81.8,120L90.6,120.3z M111.1,112L99.2,91.1l-24-0.7
			L111.1,112z M148.5,95.7l-9,16l35.7-21.4l-24,0.7L148.5,95.7z M120.2,107V65l-11.7,21L120.2,107z M130.5,106.6l9.1-16l2.6-4.6
			l-11.7-21V106.6z"/>
		<path class="st1" d="M125.5,43.2C125.5,43.2,125.5,43.2,125.5,43.2c0.1,0,0.2,0,0.3,0c0,0,0.1,0,0.1,0c0,0,0,0,0,0
			c0.1,0,0.1,0,0.2,0.1c0,0,0.1,0,0.1,0c0.1,0,0.1,0.1,0.2,0.1c0,0,0.1,0,0.1,0.1c0.1,0,0.1,0.1,0.2,0.1c0,0,0.1,0.1,0.1,0.1
			c0.1,0,0.1,0.1,0.1,0.2c0,0,0.1,0.1,0.1,0.1c0,0.1,0.1,0.1,0.1,0.2c0,0,0,0.1,0.1,0.1l0,0c0,0,0,0,0,0l22.1,39.6l45.3-1.4
			c0,0,0,0,0,0c0,0,0.1,0,0.1,0c0.1,0,0.2,0,0.3,0c0,0,0,0,0.1,0c0.1,0,0.2,0,0.3,0.1c0,0,0,0,0.1,0c0.1,0,0.2,0.1,0.3,0.1
			c0,0,0.1,0,0.1,0.1c0.1,0,0.1,0.1,0.2,0.1c0.1,0,0.1,0.1,0.2,0.1c0,0,0.1,0,0.1,0.1c0,0,0,0,0,0c0.1,0.1,0.1,0.1,0.2,0.2
			c0,0,0,0,0,0c0,0.1,0.1,0.1,0.1,0.2c0,0,0,0.1,0.1,0.1c0,0,0,0.1,0.1,0.1c0,0.1,0.1,0.1,0.1,0.2c0,0,0,0,0,0c0,0,0,0.1,0,0.1
			c0,0.1,0,0.1,0,0.2c0,0.1,0,0.1,0,0.2c0,0.1,0,0.1,0,0.2c0,0.1,0,0.1,0,0.2c0,0.1,0,0.1,0,0.2c0,0.1,0,0.1,0,0.2
			c0,0.1,0,0.1-0.1,0.2c0,0.1-0.1,0.1-0.1,0.2c0,0,0,0.1-0.1,0.1l-22.7,39.7l22.7,39.7c0,0,0,0.1,0.1,0.1c0,0.1,0.1,0.1,0.1,0.2
			c0,0.1,0,0.1,0.1,0.2c0,0.1,0,0.1,0,0.2c0,0.1,0,0.1,0,0.2c0,0.1,0,0.1,0,0.2c0,0.1,0,0.1,0,0.2c0,0.1,0,0.1,0,0.2
			c0,0.1,0,0.1,0,0.2c0,0,0,0.1,0,0.1c0,0,0,0,0,0c0,0.1,0,0.1-0.1,0.2c0,0.1,0,0.1-0.1,0.2c0,0,0,0.1-0.1,0.1
			c0,0.1-0.1,0.1-0.1,0.2c0,0-0.1,0.1-0.1,0.1c0,0.1-0.1,0.1-0.2,0.2c0,0,0,0,0,0c0,0,0,0-0.1,0c-0.1,0.1-0.1,0.1-0.2,0.2
			c0,0-0.1,0-0.1,0.1c-0.1,0-0.1,0.1-0.2,0.1c0,0-0.1,0-0.1,0.1c-0.1,0-0.2,0.1-0.3,0.1c0,0-0.1,0-0.1,0c-0.1,0-0.2,0-0.4,0
			c0,0,0,0,0,0h0h0c0,0,0,0-0.1,0l-45.3-1.4l-22.1,39.6c0,0,0,0,0,0l0,0c0,0,0,0,0,0c-0.1,0.1-0.2,0.3-0.3,0.4c0,0,0,0-0.1,0.1
			c-0.1,0.1-0.2,0.2-0.4,0.3c0,0-0.1,0-0.1,0c-0.1,0.1-0.3,0.1-0.4,0.2c0,0,0,0,0,0c0,0,0,0,0,0c-0.2,0-0.4,0.1-0.5,0.1
			c-0.2,0-0.4,0-0.5-0.1c0,0,0,0,0,0c0,0,0,0,0,0c-0.2,0-0.3-0.1-0.5-0.2c0,0-0.1,0-0.1,0c-0.1-0.1-0.3-0.2-0.4-0.3c0,0,0,0-0.1-0.1
			c-0.1-0.1-0.2-0.3-0.3-0.4c0,0,0,0,0,0l0,0c0,0,0,0,0,0L101.3,167l-45.6,1.4c0,0,0,0-0.1,0h0h0c0,0,0,0,0,0c-0.1,0-0.3,0-0.4,0
			c0,0-0.1,0-0.1,0c-0.1,0-0.2,0-0.3-0.1c0,0-0.1,0-0.1-0.1c-0.1,0-0.1-0.1-0.2-0.1c0,0-0.1,0-0.1-0.1c-0.1-0.1-0.2-0.1-0.2-0.2
			c0,0,0,0-0.1,0c0,0,0,0,0,0c-0.1-0.1-0.1-0.1-0.2-0.2c0,0-0.1-0.1-0.1-0.1c0-0.1-0.1-0.1-0.1-0.2c0,0-0.1-0.1-0.1-0.1
			c0,0,0-0.1-0.1-0.1c0-0.1,0-0.1-0.1-0.2c0,0,0,0,0,0c0,0,0-0.1,0-0.1c0-0.1,0-0.1,0-0.2c0-0.1,0-0.1,0-0.2c0-0.1,0-0.1,0-0.2
			c0-0.1,0-0.1,0-0.2c0-0.1,0-0.1,0-0.2c0-0.1,0-0.1,0-0.2c0-0.1,0-0.1,0.1-0.2c0-0.1,0.1-0.1,0.1-0.2c0,0,0-0.1,0.1-0.1l22.7-39.7
			L53.8,85.7c0,0,0-0.1-0.1-0.1c0-0.1-0.1-0.1-0.1-0.2c0-0.1,0-0.1-0.1-0.2c0-0.1,0-0.1,0-0.2c0-0.1,0-0.1,0-0.2c0-0.1,0-0.1,0-0.2
			c0-0.1,0-0.1,0-0.2c0-0.1,0-0.1,0-0.2c0-0.1,0-0.1,0-0.2c0,0,0-0.1,0-0.1c0,0,0,0,0,0c0-0.1,0.1-0.1,0.1-0.2c0,0,0-0.1,0-0.1
			c0-0.1,0.1-0.1,0.1-0.2c0,0,0-0.1,0.1-0.1c0-0.1,0.1-0.1,0.2-0.2c0,0,0-0.1,0.1-0.1c0,0,0,0,0,0c0.1-0.1,0.1-0.1,0.2-0.2
			c0,0,0,0,0,0c0.4-0.3,0.8-0.4,1.2-0.4c0,0,0.1,0,0.1,0c0,0,0,0,0,0l45.6,1.4l22.1-39.6c0,0,0,0,0,0l0,0c0,0,0-0.1,0.1-0.1
			c0-0.1,0.1-0.1,0.1-0.2c0,0,0.1-0.1,0.1-0.1c0.1-0.1,0.1-0.1,0.2-0.2c0,0,0.1,0,0.1-0.1c0.1-0.1,0.1-0.1,0.2-0.1c0,0,0.1,0,0.1,0
			c0.1,0,0.1-0.1,0.2-0.1c0,0,0.1,0,0.1,0c0.1,0,0.1-0.1,0.2-0.1c0,0,0,0,0,0c0,0,0.1,0,0.1,0c0.1,0,0.1,0,0.2,0c0,0,0,0,0.1,0
			c0,0,0.1,0,0.1,0c0,0,0,0,0,0c0,0,0,0,0,0C125.4,43.2,125.4,43.2,125.5,43.2 M127.5,117.9l14.7-25.8l3.4-6.1l-18.2-32.5V117.9
			 M123.2,118.5v-65L105,86l18.1,32.3L123.2,118.5 M131.4,120.2L186.6,87l-37.2,1.2l-3.5,6.1L131.4,120.2 M119.4,120.5L119.4,120.5
			L101,88.2L63.8,87L119.4,120.5 M159.8,123.3l10.6-0.3l18.5-32.3l-53.1,31.9L159.8,123.3 M90.6,123.3l24-0.7L61.6,90.7L80,123
			L90.6,123.3 M188.8,160.2l-18.5-32.3l-10.6-0.3l-24,0.7L188.8,160.2 M61.6,160.2l53.1-31.9l-24-0.7L80,127.9L61.6,160.2
			 M63.8,163.9l37.2-1.2l18.5-32.3l0-0.1L63.8,163.9 M186.6,163.9l-55.2-33.2l14.5,25.9l3.5,6.1L186.6,163.9 M123.2,197.3v-65
			l-0.1,0.2L105,164.9L123.2,197.3 M127.5,197.3l18.2-32.5l-3.4-6.1l-14.7-25.8V197.3 M125.5,37.2l-0.1,0l-0.1,0c-0.2,0-0.4,0-0.6,0
			c-0.3,0-0.5,0.1-0.7,0.1c-0.1,0-0.2,0-0.3,0c-0.1,0-0.2,0.1-0.4,0.1c-0.3,0.1-0.6,0.2-0.8,0.2c-0.1,0-0.3,0.1-0.4,0.2
			c-0.3,0.1-0.6,0.3-0.8,0.4c-0.1,0.1-0.3,0.2-0.4,0.2c-0.3,0.2-0.5,0.3-0.7,0.5c-0.1,0.1-0.3,0.2-0.4,0.3c-0.3,0.2-0.4,0.4-0.6,0.6
			c-0.1,0.1-0.2,0.3-0.4,0.4c-0.2,0.2-0.3,0.5-0.4,0.6c-0.1,0.1-0.2,0.3-0.3,0.5c0,0,0,0,0,0h0L97.9,77.8l-42-1.3
			c-0.1,0-0.1,0-0.2,0c-0.1,0-0.3,0-0.4,0c-1.6,0.1-3.1,0.6-4.4,1.5c-0.1,0-0.1,0.1-0.2,0.1c-0.2,0.2-0.5,0.4-0.7,0.6
			c-0.1,0.1-0.2,0.2-0.3,0.3c-0.1,0.1-0.1,0.1-0.1,0.2c-0.1,0.1-0.3,0.4-0.5,0.6c-0.1,0.2-0.2,0.4-0.3,0.5c-0.1,0.2-0.2,0.4-0.4,0.7
			c-0.1,0.2-0.2,0.4-0.2,0.5c-0.1,0.1-0.1,0.3-0.2,0.5c0,0.1-0.1,0.2-0.1,0.3c-0.1,0.2-0.1,0.4-0.1,0.6c0,0.2-0.1,0.4-0.1,0.7
			c0,0.2,0,0.4-0.1,0.6c0,0.1,0,0.4,0,0.7c0,0.2,0,0.4,0.1,0.7c0,0.1,0,0.4,0.1,0.7c0,0.2,0.1,0.4,0.2,0.6c0,0.2,0.1,0.4,0.2,0.7
			c0.1,0.3,0.2,0.5,0.3,0.6c0.1,0.2,0.2,0.3,0.3,0.6l21,36.8l-21,36.8c-0.1,0.2-0.2,0.4-0.3,0.6c-0.1,0.1-0.2,0.3-0.3,0.6
			c-0.1,0.3-0.2,0.5-0.2,0.6c-0.1,0.2-0.1,0.4-0.2,0.6c-0.1,0.3-0.1,0.6-0.1,0.7c0,0.2,0,0.4-0.1,0.6c0,0.3,0,0.6,0,0.7
			c0,0.2,0,0.4,0.1,0.6c0,0.3,0.1,0.5,0.1,0.7c0,0.2,0.1,0.4,0.1,0.6c0,0.1,0,0.1,0.1,0.2c0.1,0.2,0.1,0.4,0.2,0.5
			c0.1,0.2,0.1,0.4,0.3,0.6c0.1,0.2,0.2,0.4,0.3,0.5c0.1,0.1,0.2,0.4,0.4,0.6c0.1,0.1,0.2,0.3,0.3,0.4c0.1,0.1,0.2,0.3,0.4,0.4
			c0.1,0.1,0.1,0.2,0.2,0.2c0.1,0.1,0.3,0.3,0.4,0.4c0.2,0.2,0.4,0.4,0.7,0.5c0.2,0.1,0.3,0.2,0.4,0.3c0.3,0.2,0.6,0.3,0.8,0.4
			c0.2,0.1,0.3,0.1,0.5,0.2c0.3,0.1,0.6,0.2,0.9,0.3c0.2,0,0.3,0.1,0.5,0.1c0.5,0.1,1,0.1,1.4,0.1c0.1,0,0.2,0,0.3,0l42-1.3
			l20.4,36.4c0,0.1,0.1,0.1,0.1,0.2c0,0,0,0.1,0,0.1c0.3,0.4,0.6,0.9,0.9,1.3c0.1,0.1,0.2,0.2,0.3,0.3c0.4,0.4,0.9,0.8,1.5,1.1
			c0.1,0.1,0.2,0.1,0.3,0.2c0.5,0.3,1,0.5,1.5,0.6c0,0,0.1,0,0.1,0c0.1,0,0.1,0,0.2,0.1c0.7,0.2,1.4,0.3,2.1,0.3
			c0.7,0,1.4-0.1,2.1-0.3c0.1,0,0.2,0,0.2-0.1c0,0,0.1,0,0.1,0c0.5-0.2,1-0.4,1.5-0.6c0.1,0,0.2-0.1,0.3-0.2
			c0.6-0.3,1.1-0.7,1.5-1.2c0.1-0.1,0.2-0.2,0.3-0.3c0.3-0.4,0.6-0.8,0.9-1.2c0.1-0.1,0.1-0.2,0.2-0.3c0,0,0,0,0,0c0,0,0,0,0,0
			l20.3-36.4l41.7,1.3c0.1,0,0.2,0,0.3,0c0.5,0,1,0,1.5-0.1c0.2,0,0.3-0.1,0.5-0.1c0.3-0.1,0.6-0.2,0.9-0.3c0.2-0.1,0.3-0.1,0.5-0.2
			c0.3-0.1,0.6-0.3,0.9-0.4c0.1-0.1,0.3-0.2,0.4-0.3c0.2-0.2,0.5-0.3,0.7-0.5c0.1-0.1,0.3-0.3,0.4-0.4c0,0,0.1-0.1,0.1-0.1
			c0.2-0.2,0.3-0.4,0.4-0.5c0.1-0.1,0.2-0.3,0.4-0.5c0.2-0.2,0.3-0.5,0.4-0.6c0.1-0.1,0.2-0.3,0.3-0.5c0.1-0.2,0.2-0.4,0.3-0.6
			c0-0.1,0.1-0.3,0.2-0.4c0-0.1,0.1-0.2,0.1-0.3c0.1-0.2,0.1-0.4,0.1-0.5c0-0.2,0.1-0.4,0.1-0.7c0-0.2,0-0.4,0.1-0.6
			c0-0.1,0-0.4,0-0.7c0-0.2,0-0.4-0.1-0.6c0-0.1,0-0.4-0.1-0.7c0-0.2-0.1-0.4-0.2-0.6c-0.1-0.2-0.1-0.4-0.2-0.6
			c-0.1-0.3-0.2-0.5-0.3-0.6c-0.1-0.1-0.2-0.3-0.3-0.5l-21-36.8l21-36.8c0.1-0.2,0.2-0.4,0.3-0.6c0.1-0.1,0.2-0.3,0.3-0.6
			c0.1-0.3,0.2-0.5,0.2-0.6c0.1-0.2,0.1-0.4,0.2-0.6c0.1-0.3,0.1-0.6,0.1-0.7c0-0.2,0-0.4,0.1-0.6c0-0.3,0-0.6,0-0.7
			c0-0.2,0-0.4-0.1-0.6c0-0.3-0.1-0.5-0.1-0.7c0-0.1-0.1-0.3-0.1-0.5c0,0,0,0,0,0c0,0,0,0,0,0c0-0.1-0.1-0.2-0.1-0.3
			c-0.1-0.2-0.1-0.4-0.2-0.5c-0.1-0.2-0.1-0.4-0.3-0.6c-0.1-0.2-0.2-0.3-0.3-0.5c-0.1-0.2-0.2-0.4-0.4-0.7c-0.1-0.1-0.2-0.2-0.2-0.3
			c-0.2-0.2-0.3-0.4-0.5-0.6c0-0.1-0.1-0.1-0.2-0.2l0,0c-0.2-0.2-0.3-0.3-0.4-0.4c-0.1-0.1-0.3-0.3-0.6-0.4
			c-0.2-0.2-0.5-0.3-0.6-0.4c-0.2-0.1-0.3-0.2-0.5-0.3c-0.2-0.1-0.5-0.2-0.8-0.3c-0.1,0-0.2-0.1-0.4-0.1c-0.3-0.1-0.6-0.2-1-0.2
			c-0.1,0-0.2,0-0.3-0.1c-0.3,0-0.6-0.1-0.8-0.1c-0.1,0-0.3,0-0.4,0c0,0-0.1,0-0.1,0c0,0,0,0-0.1,0l-41.7,1.3l-20.4-36.4
			c-0.1-0.2-0.2-0.4-0.3-0.5c-0.1-0.1-0.2-0.4-0.4-0.6c-0.1-0.2-0.2-0.3-0.4-0.4c-0.1-0.2-0.3-0.3-0.5-0.5c-0.1-0.1-0.3-0.3-0.4-0.4
			c-0.2-0.1-0.4-0.3-0.6-0.4c-0.1-0.1-0.3-0.2-0.5-0.3c-0.1-0.1-0.4-0.2-0.7-0.3c-0.2-0.1-0.3-0.1-0.5-0.2c-0.2-0.1-0.4-0.1-0.7-0.2
			c0,0-0.1,0-0.1,0c-0.1,0-0.2,0-0.3-0.1c-0.1,0-0.2,0-0.3-0.1c-0.1,0-0.4-0.1-0.7-0.1C125.8,37.2,125.6,37.2,125.5,37.2L125.5,37.2
			z M111.9,86l5.3-9.5v18.9L111.9,86L111.9,86z M133.5,95.4V76.6l5.3,9.5l-1.8,3.2L133.5,95.4L133.5,95.4z M152.9,94.1l10.8-0.3
			l-16.1,9.7l3.5-6.2L152.9,94.1L152.9,94.1z M102.8,103.5l-16.2-9.8l10.8,0.3L102.8,103.5L102.8,103.5z M156.3,117.2l15.9-9.5
			l-5.4,9.4l-7,0.2L156.3,117.2L156.3,117.2z M83.6,117.1l-5.4-9.4l15.9,9.5l-3.5,0.1L83.6,117.1L83.6,117.1z M156.3,133.7l3.5-0.1
			l7,0.2l5.4,9.4L156.3,133.7L156.3,133.7z M83.6,133.8l7-0.2l3.5,0.1l-15.9,9.5L83.6,133.8L83.6,133.8z M86.6,157.2l16.2-9.8
			l-5.4,9.4L86.6,157.2L86.6,157.2z M151.1,153.7l-3.5-6.2l16.1,9.7l-10.8-0.3L151.1,153.7L151.1,153.7z M111.9,164.9l5.3-9.5v18.9
			L111.9,164.9L111.9,164.9z M133.5,174.3v-18.8l3.5,6.2l1.8,3.2L133.5,174.3L133.5,174.3z"/>
	</g>
	<path class="st2" d="M135.7,128.3l24-0.7l10.6,0.3l18.5,32.3L135.7,128.3z M170.3,123l-10.6,0.3l-24-0.7l53.1-31.9L170.3,123z
		 M131.4,120.2l14.5-25.9l3.5-6.1l37.2-1.2L131.4,120.2z M142.2,92.1l-14.7,25.8V53.5L145.7,86L142.2,92.1z M123.2,53.5v65l-0.1-0.2
		L105,86L123.2,53.5z M101,88.2l18.4,32.3l0,0.1L63.8,87L101,88.2z M114.6,122.6l-24,0.7L80,123L61.6,90.7L114.6,122.6z M80,127.9
		l10.6-0.3l24,0.7l-53.1,31.9L80,127.9z M119.4,130.4L119.4,130.4L101,162.7l-37.2,1.2L119.4,130.4z M123.1,132.6l0.1-0.2v65
		L105,164.9L123.1,132.6z M127.5,197.3v-64.4l14.7,25.8l3.4,6.1L127.5,197.3z M149.4,162.7l-3.5-6.1l-14.5-25.9l55.2,33.2
		L149.4,162.7z"/>
</g>
</svg>
