<?xml version="1.0" encoding="utf-8"?>
<!-- Generator: Adobe Illustrator 19.1.0, SVG Export Plug-In . SVG Version: 6.00 Build 0)  -->
<svg version="1.1" id="Layer_1" xmlns="http://www.w3.org/2000/svg" xmlns:xlink="http://www.w3.org/1999/xlink" x="0px" y="0px"
	 viewBox="0 0 250 250" style="enable-background:new 0 0 250 250;" xml:space="preserve">
<style type="text/css">
	.st0{fill:#231F20;}
	.st1{fill:#FFFFFF;stroke:#231F20;stroke-width:4;stroke-miterlimit:10;}
	.st2{fill:#FFFFFF;stroke:#231F20;stroke-width:2.7655;stroke-miterlimit:10;}
</style>
<g>
	<g>
		<path class="st0" d="M125,43.3c-45.4,0-82.2,36.8-82.2,82.2s36.8,82.2,82.2,82.2s82.2-36.8,82.2-82.2S170.4,43.3,125,43.3z"/>
		<circle class="st1" cx="125" cy="125.6" r="53"/>
		<circle class="st1" cx="125" cy="125.6" r="38.7"/>
		<circle class="st1" cx="125" cy="125.6" r="23.8"/>
	</g>
	<g>
		<g>
			<circle class="st2" cx="125" cy="153.2" r="37.9"/>
			<circle class="st2" cx="125" cy="153.2" r="31.1"/>
			<circle class="st2" cx="125" cy="153.2" r="24.4"/>
			<circle class="st2" cx="125" cy="153.2" r="17.8"/>
			<circle class="st2" cx="125" cy="153.2" r="11"/>
		</g>
		<g>
			<circle class="st2" cx="125" cy="97.9" r="37.9"/>
			<circle class="st2" cx="125" cy="97.9" r="31.1"/>
			<circle class="st2" cx="125" cy="97.9" r="24.4"/>
			<circle class="st2" cx="125" cy="97.9" r="17.8"/>
			<circle class="st2" cx="125" cy="97.9" r="11"/>
		</g>
	</g>
	<g>
		<g>
			<circle class="st2" cx="152.6" cy="125.6" r="37.9"/>
			<circle class="st2" cx="152.6" cy="125.6" r="31.1"/>
			<circle class="st2" cx="152.6" cy="125.6" r="24.4"/>
			<circle class="st2" cx="152.6" cy="125.6" r="17.8"/>
			<circle class="st2" cx="152.6" cy="125.6" r="11"/>
		</g>
		<g>
			<circle class="st2" cx="97.4" cy="125.6" r="37.9"/>
			<circle class="st2" cx="97.4" cy="125.6" r="31.1"/>
			<circle class="st2" cx="97.4" cy="125.6" r="24.4"/>
			<circle class="st2" cx="97.4" cy="125.6" r="17.8"/>
			<circle class="st2" cx="97.4" cy="125.6" r="11"/>
		</g>
	</g>
	<g>
		<g>
			<circle class="st2" cx="144.5" cy="106" r="37.9"/>
			<circle class="st2" cx="144.5" cy="106" r="31.1"/>
			<circle class="st2" cx="144.5" cy="106" r="24.4"/>
			<circle class="st2" cx="144.5" cy="106" r="17.8"/>
			<circle class="st2" cx="144.5" cy="106" r="11"/>
		</g>
		<g>
			<circle class="st2" cx="105.5" cy="145.1" r="37.9"/>
			<circle class="st2" cx="105.5" cy="145.1" r="31.1"/>
			<circle class="st2" cx="105.5" cy="145.1" r="24.4"/>
			<circle class="st2" cx="105.5" cy="145.1" r="17.8"/>
			<circle class="st2" cx="105.5" cy="145.1" r="11"/>
		</g>
	</g>
	<g>
		<g>
			<circle class="st2" cx="105.5" cy="106" r="37.9"/>
			<circle class="st2" cx="105.5" cy="106" r="31.1"/>
			<circle class="st2" cx="105.5" cy="106" r="24.4"/>
			<circle class="st2" cx="105.5" cy="106" r="17.8"/>
			<circle class="st2" cx="105.5" cy="106" r="11"/>
		</g>
		<g>
			<circle class="st2" cx="144.5" cy="145.1" r="37.9"/>
			<circle class="st2" cx="144.5" cy="145.1" r="31.1"/>
			<circle class="st2" cx="144.5" cy="145.1" r="24.4"/>
			<circle class="st2" cx="144.5" cy="145.1" r="17.8"/>
			<circle class="st2" cx="144.5" cy="145.1" r="11"/>
		</g>
	</g>
</g>
</svg>
