<?xml version="1.0" encoding="utf-8"?>
<!-- Generator: Adobe Illustrator 19.1.0, SVG Export Plug-In . SVG Version: 6.00 Build 0)  -->
<svg version="1.1" id="Layer_1" xmlns="http://www.w3.org/2000/svg" xmlns:xlink="http://www.w3.org/1999/xlink" x="0px" y="0px"
	 viewBox="0 0 250 250" style="enable-background:new 0 0 250 250;" xml:space="preserve">
<style type="text/css">
	.st0{fill:#FFCF46;}
	.st1{fill:#231F20;}
	.st2{fill:#F89C1C;}
	.st3{fill:#F89C1C;stroke:#231F20;stroke-width:5;stroke-miterlimit:10;}
	.st4{fill:#FFFFFF;stroke:#000000;stroke-width:4;stroke-linecap:round;stroke-linejoin:round;stroke-miterlimit:10;}
	.st5{fill:#FFFFFF;}
</style>
<g>
	<g>
		<path class="st0" d="M125.2,196.3c-18.8,0-36.5-7.3-49.9-20.6c-27.5-27.5-27.5-72.2,0-99.7c13.3-13.3,31-20.6,49.9-20.6
			c18.8,0,36.5,7.3,49.9,20.6c13.3,13.3,20.6,31,20.6,49.9c0,18.8-7.3,36.5-20.6,49.9S144,196.3,125.2,196.3z"/>
		<path class="st1" d="M125.2,57.8c17.4,0,34.8,6.6,48.1,19.9c26.6,26.6,26.6,69.6,0,96.2c-13.3,13.3-30.7,19.9-48.1,19.9
			s-34.8-6.6-48.1-19.9c-26.6-26.6-26.6-69.6,0-96.2C90.4,64.4,107.8,57.8,125.2,57.8 M125.2,52.8c-19.5,0-37.8,7.6-51.6,21.4
			c-28.5,28.5-28.5,74.8,0,103.2c13.8,13.8,32.1,21.4,51.6,21.4c19.5,0,37.8-7.6,51.6-21.4c28.5-28.5,28.5-74.8,0-103.2
			C163,60.4,144.7,52.8,125.2,52.8L125.2,52.8z"/>
	</g>
	<g>
		<g>
			<g>
				<g>
					<path class="st2" d="M125.6,129c-1.2-0.2-30.1-4.1-50.7-24.7C54.3,83.6,50.3,54.8,50.2,53.6l-0.4-3.2l3.2,0.4
						c1.2,0.2,30.1,4.1,50.7,24.7c20.6,20.6,24.6,49.4,24.7,50.7l0.4,3.2L125.6,129z"/>
					<path class="st1" d="M52.6,53.2c0,0,29,3.8,49.2,24c20.2,20.2,24,49.2,24,49.2s-29-3.8-49.2-24C56.4,82.2,52.6,53.2,52.6,53.2
						 M46.8,47.4l0.8,6.5c0.2,1.3,4.3,30.9,25.5,52.1c21.2,21.2,50.9,25.3,52.1,25.5l6.5,0.8l-0.8-6.5c-0.2-1.3-4.3-30.9-25.5-52.1
						C84.2,52.5,54.5,48.4,53.3,48.3L46.8,47.4L46.8,47.4z"/>
				</g>
				<line class="st3" x1="52.6" y1="53.2" x2="125.9" y2="126.5"/>
			</g>
			<g>
				<g>
					<path class="st2" d="M197.4,200.8c-1.2-0.2-30.1-4.1-50.7-24.7c-20.6-20.6-24.6-49.4-24.7-50.7l-0.4-3.2l3.2,0.4
						c1.2,0.2,30.1,4.1,50.7,24.7c20.6,20.6,24.6,49.4,24.7,50.7l0.4,3.2L197.4,200.8z"/>
					<path class="st1" d="M124.5,125.1c0,0,29,3.8,49.2,24s24,49.2,24,49.2s-29-3.8-49.2-24S124.5,125.1,124.5,125.1 M118.7,119.3
						l0.8,6.5c0.2,1.3,4.3,30.9,25.5,52.1c21.2,21.2,50.9,25.3,52.1,25.5l6.5,0.8l-0.8-6.5c-0.2-1.3-4.3-30.9-25.5-52.1
						c-21.2-21.2-50.9-25.3-52.1-25.5L118.7,119.3L118.7,119.3z"/>
				</g>
				<line class="st3" x1="124.5" y1="125.1" x2="197.7" y2="198.3"/>
			</g>
		</g>
		<g>
			<g>
				<g>
					<path class="st2" d="M122,126.2c0.2-1.2,4.1-30.1,24.7-50.7c20.6-20.6,49.4-24.6,50.7-24.7l3.2-0.4l-0.4,3.2
						c-0.2,1.2-4.1,30.1-24.7,50.7c-20.6,20.6-49.4,24.6-50.7,24.7l-3.2,0.4L122,126.2z"/>
					<path class="st1" d="M197.7,53.2c0,0-3.8,29-24,49.2c-20.2,20.2-49.2,24-49.2,24s3.8-29,24-49.2
						C168.7,57,197.7,53.2,197.7,53.2 M203.5,47.4l-6.5,0.8c-1.3,0.2-30.9,4.3-52.1,25.5c-21.2,21.2-25.3,50.9-25.5,52.1l-0.8,6.5
						l6.5-0.8c1.3-0.2,30.9-4.3,52.1-25.5c21.2-21.2,25.3-50.9,25.5-52.1L203.5,47.4L203.5,47.4z"/>
				</g>
				<line class="st3" x1="197.7" y1="53.2" x2="124.5" y2="126.5"/>
			</g>
			<g>
				<g>
					<path class="st2" d="M50.2,198c0.2-1.2,4.1-30.1,24.7-50.7c20.6-20.6,49.4-24.6,50.7-24.7l3.2-0.4l-0.4,3.2
						c-0.2,1.2-4.1,30.1-24.7,50.7C83,196.6,54.2,200.6,53,200.8l-3.2,0.4L50.2,198z"/>
					<path class="st1" d="M125.9,125.1c0,0-3.8,29-24,49.2s-49.2,24-49.2,24s3.8-29,24-49.2S125.9,125.1,125.9,125.1 M131.7,119.3
						l-6.5,0.8c-1.3,0.2-30.9,4.3-52.1,25.5c-21.2,21.2-25.3,50.9-25.5,52.1l-0.8,6.5l6.5-0.8c1.3-0.2,30.9-4.3,52.1-25.5
						c21.2-21.2,25.3-50.9,25.5-52.1L131.7,119.3L131.7,119.3z"/>
				</g>
				<line class="st3" x1="125.9" y1="125.1" x2="52.6" y2="198.3"/>
			</g>
		</g>
	</g>
	<circle class="st4" cx="125.2" cy="125.8" r="10.4"/>
	<g>
		<circle class="st5" cx="125.2" cy="78.9" r="8.2"/>
		<circle class="st5" cx="125.2" cy="172.6" r="8.2"/>
	</g>
	<g>
		<circle class="st5" cx="172" cy="125.8" r="8.2"/>
		<circle class="st5" cx="78.3" cy="125.8" r="8.2"/>
	</g>
</g>
</svg>
