<?xml version="1.0" encoding="utf-8"?>
<!-- Generator: Adobe Illustrator 19.1.0, SVG Export Plug-In . SVG Version: 6.00 Build 0)  -->
<svg version="1.1" id="Layer_1" xmlns="http://www.w3.org/2000/svg" xmlns:xlink="http://www.w3.org/1999/xlink" x="0px" y="0px"
	 viewBox="0 0 250 250" style="enable-background:new 0 0 250 250;" xml:space="preserve">
<style type="text/css">
	.st0{fill:#FFFFFF;}
	.st1{fill:url(#SVGID_1_);}
	.st2{fill:#231F20;}
	.st3{fill:url(#SVGID_2_);}
</style>
<g>
	<g>
		<g>
			<path class="st0" d="M124.8,206.1c44.1,0,80-35.9,80-80s-35.9-80-80-80c-44.1,0-80,35.9-80,80S80.7,206.1,124.8,206.1z
				 M55.2,126.1c0-38.4,31.2-69.6,69.6-69.6s69.6,31.2,69.6,69.6s-31.2,69.6-69.6,69.6S55.2,164.5,55.2,126.1z"/>
		</g>
	</g>
	<g>
		<g>
			<linearGradient id="SVGID_1_" gradientUnits="userSpaceOnUse" x1="62.5624" y1="126.1209" x2="187.0412" y2="126.1209">
				<stop  offset="0.3792" style="stop-color:#FFCF46"/>
				<stop  offset="0.7059" style="stop-color:#F89C1C"/>
			</linearGradient>
			<path class="st1" d="M124.8,188.4c34.3,0,62.2-27.9,62.2-62.2s-27.9-62.2-62.2-62.2c-34.3,0-62.2,27.9-62.2,62.2
				S90.5,188.4,124.8,188.4z M96.2,101.2c0-2,1.7-3.7,3.7-3.7h49.8c2,0,3.7,1.7,3.7,3.7V151c0,2-1.7,3.7-3.7,3.7H99.9
				c-2,0-3.7-1.7-3.7-3.7V101.2z"/>
		</g>
	</g>
	<g>
		<g>
			<path class="st0" d="M99.9,154.7h49.8c2,0,3.7-1.7,3.7-3.7v-49.8c0-2-1.7-3.7-3.7-3.7H99.9c-2,0-3.7,1.7-3.7,3.7V151
				C96.2,153.1,97.9,154.7,99.9,154.7z M103.6,104.9H146v42.4h-42.4V104.9z"/>
		</g>
	</g>
	<g>
		<g>
			<g>
				<path class="st0" d="M124.8,211.1c-46.9,0-85-38.1-85-85c0-46.9,38.1-85,85-85c46.9,0,85,38.1,85,85
					C209.8,173,171.7,211.1,124.8,211.1z M124.8,61.5c-35.6,0-64.6,29-64.6,64.6s29,64.6,64.6,64.6s64.6-29,64.6-64.6
					S160.4,61.5,124.8,61.5z"/>
				<path class="st2" d="M124.8,46.1c44.1,0,80,35.9,80,80s-35.9,80-80,80c-44.1,0-80-35.9-80-80S80.7,46.1,124.8,46.1 M124.8,195.8
					c38.4,0,69.6-31.2,69.6-69.6s-31.2-69.6-69.6-69.6s-69.6,31.2-69.6,69.6S86.4,195.8,124.8,195.8 M124.8,36.1
					c-49.6,0-90,40.4-90,90s40.4,90,90,90s90-40.4,90-90S174.4,36.1,124.8,36.1L124.8,36.1z M124.8,185.8
					c-32.9,0-59.6-26.8-59.6-59.6s26.8-59.6,59.6-59.6s59.6,26.8,59.6,59.6S157.7,185.8,124.8,185.8L124.8,185.8z"/>
			</g>
		</g>
	</g>
	<g>
		<g>
			<g>
				<linearGradient id="SVGID_2_" gradientUnits="userSpaceOnUse" x1="62.5624" y1="126.1209" x2="187.0412" y2="126.1209">
					<stop  offset="0.3792" style="stop-color:#FFCF46"/>
					<stop  offset="0.7059" style="stop-color:#F89C1C"/>
				</linearGradient>
				<path class="st3" d="M124.8,188.4c34.3,0,62.2-27.9,62.2-62.2s-27.9-62.2-62.2-62.2c-34.3,0-62.2,27.9-62.2,62.2
					S90.5,188.4,124.8,188.4z M96.2,101.2c0-2,1.7-3.7,3.7-3.7h49.8c2,0,3.7,1.7,3.7,3.7V151c0,2-1.7,3.7-3.7,3.7H99.9
					c-2,0-3.7-1.7-3.7-3.7V101.2z"/>
			</g>
		</g>
	</g>
	<g>
		<g>
			<g>
				<path class="st0" d="M99.9,154.7h49.8c2,0,3.7-1.7,3.7-3.7v-49.8c0-2-1.7-3.7-3.7-3.7H99.9c-2,0-3.7,1.7-3.7,3.7V151
					C96.2,153.1,97.9,154.7,99.9,154.7z M103.6,104.9H146v42.4h-42.4V104.9z"/>
			</g>
		</g>
	</g>
</g>
</svg>
