<?xml version="1.0" encoding="utf-8"?>
<!-- Generator: Adobe Illustrator 19.1.0, SVG Export Plug-In . SVG Version: 6.00 Build 0)  -->
<svg version="1.1" id="Layer_1" xmlns="http://www.w3.org/2000/svg" xmlns:xlink="http://www.w3.org/1999/xlink" x="0px" y="0px"
	 viewBox="0 0 250 250" style="enable-background:new 0 0 250 250;" xml:space="preserve">
<style type="text/css">
	.st0{fill:#FFF100;stroke:#231F20;stroke-width:5;stroke-linecap:round;stroke-linejoin:round;}
	.st1{fill:#FDBF0F;}
	.st2{fill:#231F20;}
	.st3{fill:#FFFFFF;}
</style>
<g>
	<path class="st0" d="M134.5,185.4v19c0,2.3,1.9,4.2,4.2,4.2c2.3,0,4.2-1.9,4.2-4.2v-19"/>
	<path class="st0" d="M120.7,185.4v28c0,2.3,1.9,4.2,4.2,4.2c2.3,0,4.2-1.9,4.2-4.2v-28"/>
	<path class="st0" d="M107,185.4v19c0,2.3,1.9,4.2,4.2,4.2c2.3,0,4.2-1.9,4.2-4.2v-19"/>
	<g>
		<path class="st1" d="M102.6,187.9c-1.4,0-2.5-1.1-2.5-2.5v-11.2c-8.7-1.7-14.7-4.1-17.9-7.3c-7-7-9.5-30.2-9.5-49.6
			s2.5-42.6,9.5-49.6c3.2-3.2,9.2-5.7,17.9-7.3v-9.1c0-1.4,1.1-2.5,2.5-2.5h3V37c0-1.4,1.1-2.5,2.5-2.5h33.8c1.4,0,2.5,1.1,2.5,2.5
			v11.8h3c1.4,0,2.5,1.1,2.5,2.5v9.1c8.7,1.7,14.7,4.1,17.9,7.3c7,7,9.5,30.2,9.5,49.6c0,19.4-2.5,42.6-9.5,49.6
			c-3.2,3.2-9.2,5.7-17.9,7.3v11.2c0,1.4-1.1,2.5-2.5,2.5H102.6z M90.2,155.4c-0.7,0-1.2,0.5-1.2,1.2s0.5,1.2,1.2,1.2h69.6
			c0.7,0,1.2-0.5,1.2-1.2s-0.5-1.2-1.2-1.2H90.2z M86.6,135.8c-0.7,0-1.2,0.5-1.2,1.2s0.5,1.2,1.2,1.2h76.8c0.7,0,1.2-0.5,1.2-1.2
			s-0.5-1.2-1.2-1.2H86.6z M84.7,116.1c-0.7,0-1.2,0.5-1.2,1.2s0.5,1.2,1.2,1.2h80.5c0.7,0,1.2-0.5,1.2-1.2s-0.5-1.2-1.2-1.2H84.7z
			 M86.6,96.5c-0.7,0-1.2,0.5-1.2,1.2s0.5,1.2,1.2,1.2h76.8c0.7,0,1.2-0.5,1.2-1.2s-0.5-1.2-1.2-1.2H86.6z M90.2,76.9
			c-0.7,0-1.2,0.5-1.2,1.2s0.5,1.2,1.2,1.2h69.6c0.7,0,1.2-0.5,1.2-1.2s-0.5-1.2-1.2-1.2H90.2z M133.1,48.9v-3h-16.2v3H133.1z"/>
		<path class="st2" d="M141.9,37v14.3h5.5v11.1c8.5,1.4,15.4,3.8,18.7,7c11.6,11.6,11.6,84,0,95.7c-3.2,3.2-10.1,5.6-18.7,7v13.3
			H143h-36h-4.4v-13.3c-8.5-1.4-15.4-3.8-18.7-7c-11.6-11.6-11.6-84,0-95.7c3.2-3.2,10.1-5.6,18.7-7V51.3h5.5V37H141.9 M114.4,51.3
			h21.2v-8h-21.2V51.3 M90.2,81.8h69.6c2,0,3.7-1.7,3.7-3.7c0-2-1.7-3.7-3.7-3.7H90.2c-2,0-3.7,1.7-3.7,3.7
			C86.5,80.1,88.1,81.8,90.2,81.8 M86.6,101.4h76.8c2,0,3.7-1.7,3.7-3.7c0-2-1.7-3.7-3.7-3.7H86.6c-2,0-3.7,1.7-3.7,3.7
			C82.9,99.7,84.5,101.4,86.6,101.4 M84.7,121h80.5c2,0,3.7-1.7,3.7-3.7c0-2-1.7-3.7-3.7-3.7H84.7c-2,0-3.7,1.7-3.7,3.7
			C81,119.4,82.7,121,84.7,121 M86.6,140.7h76.8c2,0,3.7-1.7,3.7-3.7c0-2-1.7-3.7-3.7-3.7H86.6c-2,0-3.7,1.7-3.7,3.7
			C82.9,139,84.5,140.7,86.6,140.7 M90.2,160.3h69.6c2,0,3.7-1.7,3.7-3.7c0-2-1.7-3.7-3.7-3.7H90.2c-2,0-3.7,1.7-3.7,3.7
			C86.5,158.7,88.1,160.3,90.2,160.3 M141.9,32h-33.8c-2.8,0-5,2.2-5,5v9.3h-0.5c-2.8,0-5,2.2-5,5v7c-8.1,1.8-13.9,4.3-17.2,7.6
			c-9.5,9.5-10.2,41.7-10.2,51.4c0,9.7,0.7,41.9,10.2,51.4c3.3,3.3,9.1,5.9,17.2,7.6v9.1c0,2.8,2.2,5,5,5h4.4h36h4.4
			c2.8,0,5-2.2,5-5v-9.1c8.1-1.8,13.9-4.3,17.2-7.6c9.5-9.5,10.2-41.7,10.2-51.4c0-9.7-0.7-41.9-10.2-51.4
			c-3.3-3.3-9.1-5.9-17.2-7.6v-7c0-2.8-2.2-5-5-5h-0.5V37C146.9,34.3,144.7,32,141.9,32L141.9,32z"/>
	</g>
	<g>
		<path class="st3" d="M90.2,74.4h69.6c2,0,3.7,1.7,3.7,3.7c0,2-1.7,3.7-3.7,3.7H90.2c-2,0-3.7-1.7-3.7-3.7
			C86.5,76,88.1,74.4,90.2,74.4z"/>
	</g>
	<g>
		<path class="st3" d="M86.6,94h76.8c2,0,3.7,1.7,3.7,3.7c0,2-1.7,3.7-3.7,3.7H86.6c-2,0-3.7-1.7-3.7-3.7C82.9,95.6,84.5,94,86.6,94
			z"/>
	</g>
	<g>
		<path class="st3" d="M159.8,160.3H90.2c-2,0-3.7-1.7-3.7-3.7c0-2,1.7-3.7,3.7-3.7h69.6c2,0,3.7,1.7,3.7,3.7
			C163.5,158.7,161.8,160.3,159.8,160.3z"/>
	</g>
	<g>
		<path class="st3" d="M163.4,140.7H86.6c-2,0-3.7-1.7-3.7-3.7c0-2,1.7-3.7,3.7-3.7h76.8c2,0,3.7,1.7,3.7,3.7
			C167.1,139,165.4,140.7,163.4,140.7z"/>
	</g>
	<g>
		<path class="st3" d="M165.2,121H84.7c-2,0-3.7-1.7-3.7-3.7c0-2,1.7-3.7,3.7-3.7h80.5c2,0,3.7,1.7,3.7,3.7
			C168.9,119.4,167.3,121,165.2,121z"/>
	</g>
</g>
</svg>
