<?xml version="1.0" encoding="utf-8"?>
<!-- Generator: Adobe Illustrator 19.1.0, SVG Export Plug-In . SVG Version: 6.00 Build 0)  -->
<svg version="1.1" id="Layer_1" xmlns="http://www.w3.org/2000/svg" xmlns:xlink="http://www.w3.org/1999/xlink" x="0px" y="0px"
	 viewBox="0 0 250 250" style="enable-background:new 0 0 250 250;" xml:space="preserve">
<style type="text/css">
	.st0{fill:#003375;}
	.st1{fill:#0379BE;stroke:#003375;stroke-width:4;stroke-miterlimit:10;}
</style>
<g>
	<polygon class="st0" points="68.9,136.9 84.9,146.2 84.9,164.7 68.9,174 52.8,164.7 52.8,146.2 	"/>
	<polygon class="st0" points="181.1,136.9 197.2,146.2 197.2,164.7 181.1,174 165.1,164.7 165.1,146.2 	"/>
	<polygon class="st1" points="60.8,123.1 36.8,136.9 36.8,174 68.9,192.5 100.9,174 100.9,136.9 76.9,123.1 76.9,104.5 76.9,67.5 
		125,39.7 173.1,67.5 173.1,104.5 173.1,104.5 173.1,123.1 149.1,136.9 149.1,174 181.1,192.5 213.2,174 213.2,136.9 189.2,123 
		189.2,104.5 229.3,127.7 229.3,183.2 181.1,211 133,183.2 133,146.2 133,146.2 133,127.7 157.1,113.8 157.1,76.8 125,58.2 
		92.9,76.8 92.9,113.8 117,127.7 117,146.2 117,183.2 68.9,211 20.8,183.2 20.8,146.2 20.7,146.2 20.7,127.7 60.8,104.5 	"/>
	<polygon class="st0" points="125,113.8 109,104.5 109,86 125,76.8 141,86 141,104.5 	"/>
</g>
</svg>
