<?xml version="1.0" encoding="utf-8"?>
<!-- Generator: Adobe Illustrator 19.1.0, SVG Export Plug-In . SVG Version: 6.00 Build 0)  -->
<svg version="1.1" id="Layer_1" xmlns="http://www.w3.org/2000/svg" xmlns:xlink="http://www.w3.org/1999/xlink" x="0px" y="0px"
	 viewBox="0 0 250 250" style="enable-background:new 0 0 250 250;" xml:space="preserve">
<style type="text/css">
	.st0{fill:url(#SVGID_1_);}
	.st1{fill:#231F20;}
	.st2{fill:url(#SVGID_2_);}
	.st3{fill:url(#SVGID_3_);}
</style>
<g>
	<g>
		<linearGradient id="SVGID_1_" gradientUnits="userSpaceOnUse" x1="92.8497" y1="151.4807" x2="158.7172" y2="151.4807">
			<stop  offset="0.3792" style="stop-color:#FFCF46"/>
			<stop  offset="0.7059" style="stop-color:#F89C1C"/>
		</linearGradient>
		<path class="st0" d="M145.9,183.4c-0.7,0-1.4-0.3-2-0.7c-4.9-4.2-11.3-6.5-18.2-6.5c-6.8,0-13.3,2.3-18.2,6.5
			c-0.5,0.5-1.2,0.7-2,0.7h-9.8c-1.1,0-2.2-0.7-2.7-1.7c-0.5-1-0.4-2.3,0.3-3.2c4.2-5.4,10.1-9.6,16.9-12.2
			c-2.7-6.9-6.4-13-10.6-17.5c-6.9-7.3-6.3-14-3.4-17.8c1.5-1.9,4-3.1,6.6-3.1c2.7,0,7.8,1.3,11.2,9.9c2.5,6.4,3.7,17.3,4.3,26.3
			c0.4-0.1,0.8-0.1,1.2-0.2c-2.1-10.1-4.1-22.5-3.2-30.3c1.5-13,9.1-14.1,11.4-14.1c2,0,3.9,0.6,5.3,1.7c2.4,1.9,4.3,5,4.4,9.1
			c2.4-2.1,4.8-2.6,6.4-2.6c2.6,0,5.1,1.2,6.6,3.1c2.9,3.8,3.6,10.5-3.4,17.8c-3.9,4.1-7.5,9.8-10.1,16.2c8.4,2.3,15.8,7,20.9,13.5
			c0.7,0.9,0.8,2.1,0.3,3.2c-0.5,1-1.5,1.7-2.7,1.7H145.9z M128.7,163.6c0.1-2.2,0.3-4.5,0.5-6.8c-0.5,2.2-0.8,4.5-1.1,6.8
			C128.3,163.6,128.5,163.6,128.7,163.6z"/>
		<path class="st1" d="M127.9,122.6c1.4,0,2.7,0.5,3.5,1.1c2.8,2.2,5.4,7.3,0.6,16.1c-3.9,7.3-6.5,16.7-7.1,26.7c0.3,0,0.6,0,0.9,0
			c1.9,0,3.8,0.1,5.7,0.4c0.4-7.9,1.4-21.1,4.2-28c2.4-6.1,5.7-8,8.4-8c1.9,0,3.4,0.9,4.2,1.9c1.9,2.5,2.9,7.5-3.2,13.9
			c-4.9,5.1-9.1,12.3-12,20.4c9.3,1.7,17.3,6.5,22.6,13.2h-9.8c-5.2-4.5-12.3-7.2-20.1-7.2c-7.8,0-14.9,2.8-20.1,7.2h-9.8
			c4.4-5.6,10.9-10,18.4-12.2c-2.9-8.5-7.2-16.1-12.3-21.4c-6.1-6.4-5.1-11.4-3.2-13.9c0.8-1,2.4-1.9,4.2-1.9c2.7,0,6,1.9,8.4,8
			c2.8,7.2,3.9,21.1,4.2,28.9c2.4-0.6,5-1,7.6-1.2c-1.9-8.6-4.8-23.9-3.8-32.6C120.4,125.2,124.5,122.6,127.9,122.6 M127.9,116.6
			C127.9,116.6,127.9,116.6,127.9,116.6c-5.6,0-12.1,3.8-14.1,14.3c-4-5.3-8.6-6-10.8-6c-3.5,0-7,1.7-9,4.3
			c-3.7,4.8-4.7,13.1,3.6,21.7c3.4,3.6,6.5,8.4,8.9,13.8c-6.1,2.8-11.4,6.9-15.3,12c-1.4,1.8-1.7,4.3-0.7,6.3c1,2.1,3.1,3.4,5.4,3.4
			h9.8c1.4,0,2.8-0.5,3.9-1.4c4.3-3.7,10.1-5.8,16.2-5.8c6.1,0,11.9,2.1,16.2,5.8c1.1,0.9,2.5,1.4,3.9,1.4h9.8
			c2.3,0,4.4-1.3,5.4-3.4c1-2.1,0.7-4.5-0.7-6.3c-4.8-6.2-11.5-10.8-19.1-13.5c2.3-4.8,5.1-9,8.2-12.3c8.2-8.6,7.2-16.9,3.6-21.7
			c-2-2.7-5.5-4.3-9-4.3c-1,0-2.5,0.1-4.2,0.8c-1-2.9-2.7-5.1-4.8-6.7C133.1,117.4,130.5,116.6,127.9,116.6L127.9,116.6L127.9,116.6
			z"/>
	</g>
	<g>
		<linearGradient id="SVGID_2_" gradientUnits="userSpaceOnUse" x1="28.2881" y1="125.748" x2="221.5459" y2="125.748">
			<stop  offset="0.3792" style="stop-color:#FFCF46"/>
			<stop  offset="0.7059" style="stop-color:#F89C1C"/>
		</linearGradient>
		<path class="st2" d="M212.3,183.4c-1.7,0-3-1.3-3-3c0-55.1-37.9-99.9-84.3-99.9c-46.5,0-84.3,44.8-84.3,99.9c0,1.7-1.3,3-3,3h-6.3
			c-0.8,0-1.6-0.3-2.1-0.9s-0.9-1.3-0.9-2.1c0-61.9,43.4-112.2,96.6-112.2s96.6,50.3,96.6,112.2c0,0.8-0.3,1.6-0.9,2.1
			c-0.6,0.6-1.3,0.9-2.1,0.9H212.3z"/>
		<path class="st1" d="M124.9,71.1c51.6,0,93.6,49,93.6,109.2h-6.3c0-56.8-39.2-102.9-87.3-102.9c-48.2,0-87.3,46.2-87.3,102.9h-6.3
			C31.3,120.1,73.3,71.1,124.9,71.1 M124.9,65.1c-54.9,0-99.6,51.7-99.6,115.2c0,1.6,0.6,3.1,1.8,4.2c1.1,1.1,2.7,1.8,4.2,1.8h6.3
			c3.3,0,6-2.7,6-6c0-53.4,36.5-96.9,81.3-96.9c44.8,0,81.3,43.5,81.3,96.9c0,3.3,2.7,6,6,6h6.3c1.6,0,3.1-0.6,4.2-1.8
			c1.1-1.1,1.8-2.7,1.8-4.2C224.5,116.8,179.8,65.1,124.9,65.1L124.9,65.1z"/>
	</g>
	<g>
		<linearGradient id="SVGID_3_" gradientUnits="userSpaceOnUse" x1="56.4619" y1="142.2124" x2="193.3721" y2="142.2124">
			<stop  offset="0.3792" style="stop-color:#FFCF46"/>
			<stop  offset="0.7059" style="stop-color:#F89C1C"/>
		</linearGradient>
		<path class="st3" d="M185.2,183.4c-1.7,0-3-1.3-3-3c0-37.6-25.7-68.1-57.3-68.1s-57.3,30.6-57.3,68.1c0,1.7-1.3,3-3,3h-5.1
			c-0.8,0-1.6-0.3-2.1-0.9s-0.9-1.3-0.9-2.1c0-43.7,30.7-79.3,68.5-79.3c37.7,0,68.4,35.6,68.5,79.3c0,0.8-0.3,1.6-0.9,2.1
			c-0.6,0.6-1.3,0.9-2.1,0.9H185.2z"/>
		<path class="st1" d="M124.9,104.1c36.1,0,65.4,34.2,65.5,76.3h-5.1c0-39.2-27.1-71.1-60.3-71.1c-33.3,0-60.3,31.9-60.3,71.1h-5.1
			C59.5,138.3,88.8,104.1,124.9,104.1 M124.9,98.1c-39.4,0-71.4,36.9-71.5,82.3c0,1.6,0.6,3.1,1.8,4.2s2.7,1.8,4.2,1.8h5.1
			c3.3,0,6-2.7,6-6c0-35.9,24.4-65.1,54.3-65.1c29.9,0,54.3,29.2,54.3,65.1c0,3.3,2.7,6,6,6h5.1c1.6,0,3.1-0.6,4.2-1.8
			c1.1-1.1,1.8-2.7,1.8-4.2C196.4,135,164.3,98.1,124.9,98.1L124.9,98.1z"/>
	</g>
</g>
</svg>
