<?xml version="1.0" encoding="utf-8"?>
<!-- Generator: Adobe Illustrator 19.1.0, SVG Export Plug-In . SVG Version: 6.00 Build 0)  -->
<svg version="1.1" id="Layer_1" xmlns="http://www.w3.org/2000/svg" xmlns:xlink="http://www.w3.org/1999/xlink" x="0px" y="0px"
	 viewBox="0 0 250 250" style="enable-background:new 0 0 250 250;" xml:space="preserve">
<style type="text/css">
	.st0{fill:#5BCAF4;}
	.st1{fill:#231F20;}
</style>
<g>
	<g>
		<path class="st0" d="M125,211.6c-1.6,0-3-0.7-4-1.9c-0.5-0.6-11.6-15-14.4-34.2c-9.1,5-17.9,6.1-18.4,6.2c-0.2,0-0.4,0-0.6,0
			c-1.4,0-2.6-0.5-3.6-1.5c-1.1-1.1-1.6-2.6-1.5-4.2c0-0.3,0.6-5.1,2.9-11.2c-6,2.2-10.7,2.8-11,2.8c-0.2,0-0.4,0-0.6,0
			c-1.3,0-2.7-0.5-3.6-1.5c-1.1-1.1-1.6-2.6-1.5-4.2c0-0.4,1.1-9.2,6.2-18.4c-19.2-2.8-33.5-13.9-34.2-14.4c-1.2-1-1.9-2.4-1.9-4
			c0-1.6,0.7-3,1.9-4c0.6-0.5,15-11.6,34.2-14.4c-5-9.1-6.1-17.9-6.2-18.4c-0.2-1.6,0.3-3.1,1.5-4.2c1-1,2.2-1.5,3.6-1.5
			c0.2,0,0.4,0,0.6,0c0.3,0,5,0.6,11,2.8c-2.3-6.1-2.9-10.9-2.9-11.2c-0.2-1.6,0.3-3.1,1.5-4.2c1-1,2.2-1.5,3.6-1.5
			c0.2,0,0.4,0,0.6,0c0.4,0.1,9.2,1.2,18.4,6.2c2.8-19.2,13.9-33.5,14.4-34.2c1-1.2,2.4-1.9,4-1.9c1.6,0,3,0.7,4,1.9
			c0.5,0.6,11.6,15,14.4,34.2c9.1-5,17.9-6.1,18.4-6.2c0.2,0,0.4,0,0.6,0c1.3,0,2.6,0.5,3.6,1.5c1.1,1.1,1.6,2.6,1.5,4.2
			c0,0.3-0.6,5.1-2.9,11.2c6-2.2,10.7-2.8,11-2.8c0.2,0,0.4,0,0.6,0c1.4,0,2.6,0.5,3.6,1.5c1.1,1.1,1.6,2.6,1.5,4.2
			c-0.1,1-1.3,9.5-6.2,18.4c19.2,2.8,33.5,13.9,34.2,14.4c1.2,1,1.9,2.4,1.9,4c0,1.6-0.7,3-1.9,4c-0.6,0.5-15,11.6-34.2,14.4
			c4.5,8.1,5.8,15.9,6.1,17.8c0.1,0.4,0.1,0.7,0.1,1.1c0,2.8-2.3,5.1-5.1,5.1c-0.2,0-0.4,0-0.6,0c-0.2,0-4.9-0.6-11-2.8
			c1.9,5,2.6,9.1,2.8,10.7c0.1,0.4,0.1,0.7,0.1,1.1c0,2.8-2.3,5.1-5.1,5.1c0,0,0,0,0,0c-0.2,0-0.4,0-0.6,0c-0.4,0-9.2-1.2-18.3-6.2
			c-2.8,19.2-13.9,33.5-14.4,34.2C128,210.9,126.6,211.6,125,211.6z M116.2,168.4c0.4,11.9,5.3,22.6,8.8,28.7
			c3.5-6.2,8.4-16.8,8.8-28.7c-0.1-0.1-0.2-0.2-0.3-0.3c-1.2-1.2-2.3-2.5-3.4-3.9c0,0.1,0,0.2,0,0.3c0,4.3-0.2,8.7-0.6,12.9
			c-0.3,3.6-0.9,8.3-2.1,13c-0.3,1.1-1.3,1.9-2.4,1.9c-1.1,0-2.1-0.8-2.4-1.9c-1.2-4.8-1.8-9.5-2.1-13c-0.4-4.2-0.6-8.5-0.6-12.9
			c0-0.1,0-0.2,0-0.3c-1.1,1.4-2.2,2.7-3.4,3.9C116.4,168.2,116.3,168.3,116.2,168.4z M140.7,160.9c4.6,4.6,10.2,7.2,14.7,8.7
			c-1.5-4.5-4.2-10.2-8.7-14.7c0,0-0.1-0.1-0.1-0.1c1.2,1.7,2.4,3.7,3.4,6.1c0.4,0.9,0.2,2-0.5,2.7c-0.5,0.5-1.1,0.7-1.8,0.7
			c-0.3,0-0.7-0.1-1-0.2c-2.4-1-4.4-2.3-6.1-3.4C140.6,160.8,140.6,160.9,140.7,160.9z M103.3,155c-4.6,4.6-7.2,10.2-8.7,14.7
			c4.5-1.5,10.2-4.2,14.7-8.7c0,0,0.1-0.1,0.1-0.1c-1.7,1.2-3.8,2.4-6.1,3.5c-0.3,0.1-0.6,0.2-1,0.2c-0.7,0-1.3-0.3-1.8-0.7
			c-0.7-0.7-0.9-1.8-0.5-2.7c1-2.4,2.3-4.4,3.4-6.1C103.4,154.9,103.4,154.9,103.3,155z M154.4,146.9c4.6,4.6,10.2,7.2,14.7,8.7
			c-1.5-4.5-4.2-10.2-8.7-14.7c0,0-0.1-0.1-0.1-0.1c1.2,1.7,2.4,3.7,3.5,6.1c0.4,0.9,0.2,2-0.5,2.7c-0.5,0.5-1.1,0.7-1.8,0.7
			c-0.3,0-0.7-0.1-1-0.2c-2.4-1-4.4-2.3-6.1-3.4C154.3,146.8,154.4,146.9,154.4,146.9z M89.6,141c-4.6,4.6-7.2,10.2-8.7,14.7
			c4.5-1.5,10.2-4.2,14.7-8.7c0,0,0.1-0.1,0.1-0.1c-1.7,1.2-3.7,2.4-6.1,3.4c-0.3,0.1-0.6,0.2-1,0.2c-0.7,0-1.3-0.3-1.8-0.7
			c-0.7-0.7-0.9-1.8-0.5-2.7c1-2.4,2.3-4.4,3.4-6.1C89.7,140.9,89.6,140.9,89.6,141z M116.2,126.3c-0.2,1.2-0.9,5.5-2.8,10.7
			c5.8-2.2,10.4-2.8,11-2.8c0.1,0,0.1,0,0.2,0c0.1,0,0.2,0,0.2,0c0,0,0.1,0,0.1,0l0.2,0c0.1,0,0.2,0,0.3,0c0,0,0.1,0,0.1,0
			c0.7,0.1,5.2,0.7,11,2.8c-2.2-5.9-2.8-10.5-2.9-11.2c0-0.1,0-0.1,0-0.2c0-0.1,0-0.3,0-0.4c0-0.2,0-0.3,0-0.5c0-0.1,0-0.1,0-0.2
			c0.1-0.7,0.7-5.3,2.9-11.2c-6,2.2-10.7,2.8-11,2.8c-0.1,0-0.3,0-0.4,0c-0.1,0-0.2,0-0.2,0c-0.2,0-0.4,0-0.6,0c-0.3,0-5-0.6-11-2.8
			c1.9,5.1,2.6,9.2,2.8,10.7c0,0.1,0,0.3,0.1,0.5c0,0,0,0.1,0,0.1c0,0.1,0,0.3,0,0.5C116.3,125.6,116.3,126,116.2,126.3z
			 M163.7,130.4c1.4,1.1,2.7,2.2,3.9,3.4c0.1,0.1,0.2,0.2,0.3,0.3c11.9-0.4,22.6-5.3,28.7-8.8c-6.2-3.5-16.8-8.4-28.7-8.8
			c-0.1,0.1-0.2,0.2-0.3,0.3c-1.2,1.2-2.5,2.3-3.9,3.4c0.1,0,0.4,0,0.4,0c4.3,0,8.6,0.2,12.7,0.6c3.6,0.3,8.3,0.9,13,2.1
			c1.1,0.3,1.9,1.3,1.9,2.4c0,1.1-0.8,2.1-1.9,2.4c-4.8,1.2-9.5,1.8-13,2.1c-4.2,0.4-8.4,0.6-12.7,0.6
			C164.1,130.4,163.8,130.4,163.7,130.4z M53.4,125.3c6.2,3.5,16.8,8.4,28.7,8.8c0.1-0.1,0.2-0.2,0.3-0.3c1.2-1.2,2.5-2.3,3.9-3.4
			c-0.1,0-0.4,0-0.4,0c-4.3,0-8.6-0.2-12.7-0.6c-3.6-0.3-8.3-0.9-13-2.1c-1.1-0.3-1.9-1.3-1.9-2.4c0-1.1,0.8-2.1,1.9-2.4
			c4.8-1.2,9.5-1.8,13-2.1c4.2-0.4,8.4-0.6,12.7-0.6c0,0,0.3,0,0.4,0c-1.4-1.1-2.7-2.2-3.9-3.4c-0.1-0.1-0.2-0.2-0.3-0.3
			C70.2,116.9,59.5,121.8,53.4,125.3z M80.8,94.9c1.5,4.5,4.2,10.2,8.7,14.7c0,0,0.1,0.1,0.1,0.1c-1.2-1.7-2.4-3.8-3.5-6.1
			c-0.4-0.9-0.2-2,0.5-2.7c0.5-0.5,1.1-0.7,1.8-0.7c0.3,0,0.7,0.1,1,0.2c2.4,1,4.4,2.3,6.1,3.4c0,0-0.1-0.1-0.1-0.1
			C91,99.1,85.3,96.4,80.8,94.9z M161.4,100.1c0.7,0,1.3,0.3,1.8,0.7c0.7,0.7,0.9,1.8,0.5,2.7c-1,2.4-2.3,4.4-3.4,6.1
			c0,0,0.1-0.1,0.1-0.1c4.6-4.6,7.2-10.2,8.7-14.7c-4.5,1.5-10.2,4.2-14.7,8.7c0,0-0.1,0.1-0.1,0.1c1.7-1.2,3.7-2.4,6.1-3.4
			C160.7,100.2,161.1,100.1,161.4,100.1z M147.6,86.1c0.7,0,1.3,0.3,1.8,0.7c0.7,0.7,0.9,1.8,0.5,2.7c-1,2.4-2.3,4.4-3.4,6.1
			c0,0,0.1-0.1,0.1-0.1c4.6-4.6,7.2-10.2,8.7-14.7c-4.5,1.5-10.2,4.2-14.7,8.7c0,0-0.1,0.1-0.1,0.1c1.7-1.2,3.7-2.4,6.1-3.5
			C147,86.2,147.3,86.1,147.6,86.1z M94.6,80.9c1.5,4.5,4.2,10.2,8.7,14.7c0,0,0.1,0.1,0.1,0.1c-1.2-1.7-2.4-3.7-3.4-6.1
			c-0.4-0.9-0.2-2,0.5-2.7c0.5-0.5,1.1-0.7,1.8-0.7c0.3,0,0.7,0.1,1,0.2c2.4,1,4.4,2.3,6.1,3.4c0,0-0.1-0.1-0.1-0.1
			C104.7,85.1,99,82.4,94.6,80.9z M116.5,82.4c1.2,1.2,2.3,2.5,3.4,3.9c0-0.1,0-0.2,0-0.3c0-4.3,0.2-8.7,0.6-12.9
			c0.3-3.6,0.9-8.3,2.1-13c0.3-1.1,1.3-1.9,2.4-1.9c1.1,0,2.1,0.8,2.4,1.9c1.2,4.8,1.8,9.5,2.1,13c0.4,4.2,0.6,8.5,0.6,12.9
			c0,0.1,0,0.2,0,0.3c1.1-1.4,2.2-2.7,3.4-3.9c0.1-0.1,0.2-0.2,0.3-0.3c-0.4-11.9-5.3-22.6-8.8-28.7c-3.5,6.2-8.4,16.8-8.8,28.7
			C116.3,82.2,116.4,82.3,116.5,82.4z"/>
		<path class="st1" d="M125,41.5c0.8,0,1.5,0.4,2,1c0.6,0.7,12.7,16.4,14.3,36.8c9.7-6.5,20.2-7.8,20.7-7.9c0.1,0,0.2,0,0.3,0
			c0.7,0,1.3,0.3,1.8,0.8c0.6,0.6,0.8,1.3,0.7,2.1c-0.1,0.5-1,8.1-5.3,16.3c8.2-4.2,15.7-5.2,16.2-5.2c0.1,0,0.2,0,0.3,0
			c0.7,0,1.3,0.3,1.8,0.8c0.6,0.6,0.8,1.3,0.7,2.1c-0.1,0.5-1.4,11-7.9,20.7c20.4,1.6,36.1,13.7,36.8,14.3c0.6,0.5,1,1.2,1,2
			c0,0.8-0.4,1.5-1,2c-0.7,0.6-16.4,12.7-36.8,14.3c5.9,8.9,7.6,18.4,7.8,20.4c0.1,0.2,0.1,0.4,0.1,0.6c0,1.4-1.2,2.6-2.6,2.6
			c0,0,0,0,0,0s0,0,0,0c-0.1,0-0.2,0-0.3,0c-0.4-0.1-8-1-16.2-5.2c3.9,7.4,5,14.4,5.3,16c0.1,0.2,0.1,0.4,0.1,0.6
			c0,1.4-1.2,2.6-2.6,2.6c0,0,0,0,0,0c0,0,0,0,0,0c-0.1,0-0.2,0-0.3,0c-0.5-0.1-11-1.4-20.7-7.9c-1.6,20.4-13.7,36.1-14.3,36.8
			c-0.5,0.6-1.2,1-2,1c-0.8,0-1.5-0.4-2-1c-0.6-0.7-12.7-16.4-14.3-36.8c-9.7,6.5-20.2,7.8-20.7,7.9c-0.1,0-0.2,0-0.3,0
			c-0.7,0-1.3-0.3-1.8-0.8c-0.6-0.6-0.8-1.4-0.7-2.1c0.1-0.5,1-8.1,5.3-16.3c-8.2,4.2-15.7,5.2-16.2,5.2c-0.1,0-0.2,0-0.3,0
			c-0.7,0-1.3-0.3-1.8-0.8c-0.6-0.6-0.8-1.3-0.7-2.1c0.1-0.5,1.4-11,7.9-20.7c-20.4-1.6-36.1-13.7-36.8-14.3c-0.6-0.5-1-1.2-1-2
			c0-0.8,0.4-1.5,1-2c0.7-0.6,16.4-12.7,36.8-14.3c-6.5-9.7-7.8-20.2-7.9-20.7c-0.1-0.8,0.2-1.6,0.7-2.1c0.5-0.5,1.1-0.8,1.8-0.8
			c0.1,0,0.2,0,0.3,0c0.4,0.1,8,1,16.2,5.2c-4.3-8.2-5.3-15.9-5.3-16.3c-0.1-0.8,0.2-1.6,0.7-2.1c0.5-0.5,1.1-0.8,1.8-0.8
			c0.1,0,0.2,0,0.3,0c0.5,0.1,11,1.4,20.7,7.9c1.6-20.4,13.7-36.1,14.3-36.8C123.4,41.8,124.2,41.5,125,41.5 M122.7,95.6
			c-0.2-3.2-0.3-6.4-0.3-9.5c0-4.2,0.2-8.4,0.6-12.6c0.4-4.2,1-8.4,2-12.6c1.1,4.2,1.6,8.4,2,12.6c0.4,4.2,0.6,8.4,0.6,12.6
			c0,3.2-0.1,6.4-0.3,9.5c1.9-3.8,4.5-7.8,8-11.4c0.3-0.3,0.7-0.7,1.1-1c-0.1-15.5-7.6-28.9-11.3-34.6c-3.7,5.7-11.2,19.1-11.3,34.6
			c0.4,0.3,0.7,0.7,1.1,1C118.3,87.7,120.8,91.7,122.7,95.6 M117.6,106.8c-2-1.6-4-3.2-5.8-5c-1.9-1.9-3.7-3.9-5.3-6.1
			c-1.6-2.2-3.1-4.5-4.2-7.1c2.7,1.1,4.9,2.6,7.1,4.2c2.2,1.6,4.2,3.4,6.1,5.3c1.8,1.8,3.5,3.7,5,5.8c-1.6-4.8-4.5-11-9.5-16
			c-6.6-6.6-15.3-9.5-20.1-10.7c1.2,4.8,4.1,13.6,10.6,20.1C106.6,102.4,112.8,105.2,117.6,106.8 M129.4,103.9c1.6-2,3.2-4,5-5.8
			c1.9-1.9,3.9-3.7,6.1-5.3c2.2-1.6,4.5-3.1,7.1-4.2c-1.1,2.7-2.6,4.9-4.2,7.1c-1.6,2.2-3.4,4.2-5.3,6.1c-1.8,1.8-3.7,3.5-5.8,5
			c4.8-1.6,11-4.5,16-9.5c6.6-6.6,9.5-15.3,10.7-20.1c-4.8,1.2-13.6,4.1-20.1,10.6C133.9,92.9,131,99.1,129.4,103.9 M103.9,120.8
			c-2-1.6-4-3.2-5.8-5c-1.9-1.9-3.7-3.9-5.3-6.1c-1.6-2.2-3.1-4.5-4.2-7.1c2.7,1.1,4.9,2.6,7.1,4.2c2.2,1.6,4.2,3.4,6.1,5.3
			c1.8,1.8,3.5,3.7,5,5.8c-1.6-4.8-4.5-11-9.5-16c-6.6-6.6-15.3-9.5-20.1-10.7c1.2,4.8,4.1,13.6,10.6,20.1
			C92.8,116.4,99,119.2,103.9,120.8 M143.2,117.9c1.6-2,3.2-4,5-5.8c1.9-1.9,3.9-3.7,6.1-5.3c2.2-1.6,4.5-3.1,7.1-4.2
			c-1.1,2.7-2.6,4.9-4.2,7.1c-1.6,2.2-3.4,4.2-5.3,6.1c-1.8,1.8-3.7,3.5-5.8,5c4.8-1.6,11-4.5,16-9.5c6.6-6.6,9.5-15.3,10.7-20.1
			c-4.8,1.2-13.6,4.1-20.1,10.6C147.7,106.9,144.8,113.1,143.2,117.9 M141.5,108.6c-8.2,4.2-15.7,5.2-16.2,5.2c-0.1,0-0.2,0-0.3,0
			c0,0,0,0,0,0c0,0,0,0,0,0c0,0,0,0,0,0c-0.1,0-0.2,0-0.3,0c-0.4-0.1-8-1-16.2-5.2c3.9,7.4,5,14.4,5.3,16c0,0.1,0,0.2,0,0.3
			c0,0,0,0,0,0c0,0.1,0,0.2,0,0.3c0,0.2,0,0.4-0.1,0.6c-0.2,1.5-1.4,8.5-5.3,16.1c8.2-4.2,15.7-5.2,16.2-5.2c0,0,0,0,0,0
			c0,0,0,0,0,0c0,0,0,0,0,0c0,0,0.1,0,0.1,0c0,0,0.1,0,0.1,0c0,0,0,0,0,0c0.1,0,0.1,0,0.2,0c0,0,0.1,0,0.1,0c0,0,0,0,0,0
			c0,0,0,0,0,0c0,0,0,0,0,0c0.4,0.1,8,1,16.2,5.2c-4.3-8.3-5.3-15.9-5.3-16.3c0,0,0,0,0,0c0-0.1,0-0.2,0-0.3c0-0.1,0-0.2,0-0.3
			c0,0,0,0,0,0C136.2,124.5,137.2,116.9,141.5,108.6 M83.1,136.6c0.3-0.4,0.7-0.7,1-1.1c3.5-3.5,7.5-6.1,11.4-8
			c-3.2,0.2-6.4,0.3-9.5,0.3c-0.1,0-0.1,0-0.2,0c-4.2,0-8.3-0.2-12.5-0.6c-4.2-0.4-8.4-1-12.6-2c4.2-1.1,8.4-1.6,12.6-2
			c4.2-0.4,8.3-0.6,12.5-0.6c0,0,0.1,0,0.1,0c3.2,0,6.4,0.1,9.5,0.3c-3.8-1.9-7.8-4.5-11.4-8c-0.3-0.3-0.7-0.7-1-1.1
			c-15.5,0.1-28.9,7.6-34.6,11.3C54.3,129,67.7,136.5,83.1,136.6 M154.5,123c3.2-0.2,6.4-0.3,9.5-0.3c0,0,0.1,0,0.1,0
			c4.2,0,8.3,0.2,12.5,0.6c4.2,0.4,8.4,1,12.6,2c-4.2,1.1-8.4,1.6-12.6,2c-4.2,0.4-8.3,0.6-12.5,0.6c-0.1,0-0.1,0-0.2,0
			c-3.2,0-6.4-0.1-9.5-0.3c3.8,1.9,7.8,4.5,11.4,8c0.3,0.3,0.7,0.7,1,1.1c15.5-0.1,28.9-7.6,34.6-11.3c-5.7-3.7-19.1-11.2-34.6-11.3
			c-0.3,0.4-0.7,0.7-1,1.1C162.3,118.5,158.3,121.1,154.5,123 M161.4,147.9c-2.7-1.1-4.9-2.6-7.1-4.2c-2.2-1.6-4.2-3.4-6.1-5.3
			c-1.8-1.8-3.5-3.7-5-5.8c1.6,4.8,4.5,11,9.5,16c6.6,6.6,15.3,9.5,20.1,10.7c-1.2-4.8-4.1-13.6-10.6-20.1c-5-5-11.2-7.8-16-9.5
			c2,1.6,4,3.2,5.8,5c1.9,1.9,3.7,3.9,5.3,6.1C158.8,143,160.3,145.3,161.4,147.9 M103.8,129.8c-4.8,1.6-11,4.5-16,9.5
			c-6.6,6.6-9.5,15.3-10.7,20.1c4.8-1.2,13.6-4.1,20.1-10.6c5-5,7.9-11.2,9.5-16c-1.6,2-3.2,4-5,5.8c-1.9,1.9-3.9,3.7-6.1,5.3
			c-2.2,1.6-4.5,3.1-7.1,4.2c1.1-2.7,2.6-4.9,4.2-7.1c1.6-2.2,3.4-4.2,5.3-6.1C99.9,133,101.8,131.3,103.8,129.8 M147.6,161.9
			c-2.7-1.1-4.9-2.6-7.1-4.2c-2.2-1.6-4.2-3.4-6.1-5.3c-1.8-1.8-3.5-3.7-5-5.8c1.6,4.8,4.5,11,9.5,16c6.6,6.6,15.3,9.5,20.1,10.7
			c-1.2-4.8-4.1-13.6-10.6-20.1c-5-5-11.2-7.9-16-9.5c2,1.6,4,3.2,5.8,5c1.9,1.9,3.7,3.9,5.3,6.1C145,157,146.5,159.3,147.6,161.9
			 M117.6,143.7c-4.8,1.6-11,4.5-16,9.5c-6.6,6.6-9.5,15.3-10.7,20.1c4.8-1.2,13.6-4.1,20.1-10.6c5-5,7.8-11.2,9.5-16
			c-1.6,2-3.2,4-5,5.8c-1.9,1.9-3.9,3.7-6.1,5.3c-2.2,1.6-4.5,3.1-7.1,4.2c1.1-2.7,2.6-4.9,4.2-7.1c1.6-2.2,3.4-4.2,5.3-6.1
			C113.6,147,115.5,145.3,117.6,143.7 M125,189.8c-1.1-4.2-1.6-8.4-2-12.6c-0.4-4.2-0.6-8.4-0.6-12.6c0-3.2,0.1-6.4,0.3-9.5
			c-1.9,3.8-4.5,7.8-8,11.4c-0.3,0.3-0.7,0.7-1.1,1c0.1,15.5,7.6,28.9,11.3,34.6c3.7-5.7,11.2-19.1,11.3-34.6
			c-0.4-0.3-0.7-0.7-1.1-1c-3.5-3.5-6.1-7.5-8-11.4c0.2,3.2,0.3,6.4,0.3,9.5c0,4.2-0.2,8.4-0.6,12.6
			C126.6,181.4,126.1,185.6,125,189.8 M125,36.5c-2.3,0-4.5,1.1-6,2.9c-0.5,0.6-10.7,13.8-14.3,31.9c-8.1-3.8-15.2-4.8-16.2-4.9
			c-0.3,0-0.6-0.1-0.9-0.1c-2,0-3.9,0.8-5.4,2.2c-1.7,1.7-2.4,3.9-2.2,6.3c0.1,0.5,0.4,3.2,1.5,7c-3.7-1-6.3-1.4-6.8-1.4
			c-0.3,0-0.6-0.1-0.9-0.1c-2,0-3.9,0.8-5.4,2.2c-1.7,1.7-2.4,3.9-2.2,6.3c0.1,1,1.1,8.1,4.9,16.2c-18.1,3.6-31.3,13.8-31.9,14.3
			c-1.8,1.4-2.9,3.6-2.9,6c0,2.3,1.1,4.5,2.9,6c0.6,0.5,13.8,10.7,31.9,14.3c-3.8,8.1-4.8,15.2-4.9,16.2c-0.3,2.3,0.5,4.6,2.2,6.3
			c1.4,1.4,3.3,2.2,5.4,2.2c0.3,0,0.6,0,0.9-0.1c0.5-0.1,3.1-0.4,6.8-1.4c-1.1,3.8-1.4,6.5-1.5,7c-0.3,2.3,0.5,4.6,2.2,6.3
			c1.4,1.4,3.3,2.2,5.4,2.2c0.3,0,0.6,0,0.9-0.1c1-0.1,8.1-1.1,16.2-4.9c3.6,18.1,13.8,31.3,14.3,31.9c1.4,1.8,3.6,2.9,6,2.9
			c2.3,0,4.5-1.1,6-2.9c0.5-0.6,10.7-13.8,14.3-31.9c8.1,3.8,15.2,4.8,16.2,4.9c0.3,0,0.6,0.1,0.9,0.1c0,0,0,0,0,0c0,0,0,0,0,0
			c4.2,0,7.6-3.4,7.6-7.6c0-0.5-0.1-1-0.2-1.6c-0.2-1.1-0.6-3.4-1.4-6.3c3.7,1,6.3,1.4,6.8,1.4c0.3,0,0.6,0.1,0.8,0.1c0,0,0,0,0.1,0
			c0,0,0,0,0.1,0c4.2,0,7.5-3.4,7.5-7.6c0-0.5-0.1-1-0.2-1.6c-0.3-2.3-1.5-8.6-4.8-15.5c18.1-3.6,31.3-13.8,31.9-14.3
			c1.8-1.4,2.9-3.6,2.9-6c0-2.3-1.1-4.5-2.9-6c-0.6-0.5-13.8-10.7-31.9-14.3c3.8-8.1,4.8-15.2,4.9-16.2c0.3-2.3-0.5-4.6-2.2-6.3
			c-1.4-1.4-3.3-2.2-5.4-2.2c-0.3,0-0.6,0-0.9,0.1c-0.5,0.1-3.1,0.4-6.8,1.4c1.1-3.8,1.4-6.5,1.5-7c0.3-2.3-0.5-4.6-2.2-6.3
			c-1.4-1.4-3.4-2.2-5.4-2.2c-0.3,0-0.6,0-0.9,0.1c-1,0.1-8.1,1.1-16.2,4.9C141.7,53.2,131.4,40,131,39.4
			C129.5,37.5,127.3,36.5,125,36.5L125,36.5z M125.3,118.9c0.2,0,0.4,0,0.6,0c0.5-0.1,3.1-0.4,6.8-1.4c-1.1,3.8-1.4,6.5-1.5,7
			c0,0.1,0,0.2,0,0.3c0,0.3,0,0.5,0,0.6c0,0.1,0,0.4,0,0.6c0,0.1,0,0.2,0,0.3h0c0.1,0.5,0.4,3.2,1.5,7c-3.7-1-6.3-1.4-6.8-1.4
			c0,0-0.1,0-0.1,0c0,0-0.1,0-0.1,0c-0.2,0-0.3,0-0.5,0c-0.1,0-0.2,0-0.2,0c0,0-0.1,0-0.1,0c-0.1,0-0.3,0-0.4,0c0,0,0,0-0.1,0
			c-0.1,0-0.2,0-0.2,0c-0.5,0.1-3.1,0.4-6.8,1.4c0.8-3,1.2-5.3,1.4-6.4c0.1-0.5,0.1-1,0.1-1.5c0-0.4,0-0.7-0.1-0.9
			c0-0.1,0-0.3-0.1-0.6c-0.2-1.1-0.6-3.4-1.4-6.4c3.7,1,6.3,1.4,6.8,1.4c0.3,0,0.6,0.1,0.9,0.1c0,0,0,0,0,0c0,0,0,0,0,0
			C125.1,118.9,125.2,118.9,125.3,118.9L125.3,118.9z"/>
	</g>
</g>
</svg>
