<?xml version="1.0" encoding="utf-8"?>
<!-- Generator: Adobe Illustrator 19.1.0, SVG Export Plug-In . SVG Version: 6.00 Build 0)  -->
<svg version="1.1" id="Layer_1" xmlns="http://www.w3.org/2000/svg" xmlns:xlink="http://www.w3.org/1999/xlink" x="0px" y="0px"
	 viewBox="0 0 250 250" style="enable-background:new 0 0 250 250;" xml:space="preserve">
<style type="text/css">
	.st0{fill:url(#SVGID_1_);}
	.st1{fill:#231F20;}
	.st2{fill:#FFFFFF;}
</style>
<g>
	<g>
		<g>
			<linearGradient id="SVGID_1_" gradientUnits="userSpaceOnUse" x1="124.841" y1="221.8994" x2="124.841" y2="29.2637">
				<stop  offset="0" style="stop-color:#F6921E"/>
				<stop  offset="1" style="stop-color:#FFCA05"/>
			</linearGradient>
			<path class="st0" d="M161.2,221.9c-1.3,0-2.5-0.3-3.7-0.8c-3.1-1.5-10.6-5.6-13.2-11.9c-0.2-0.4-0.3-0.8-0.5-1.3
				c-4.3,5.9-11.2,9.8-19,9.8c-6.3,0-12.1-2.4-16.5-6.9c-0.9-0.9-1.7-1.9-2.5-2.9c-0.1,0.4-0.3,0.8-0.4,1.2
				c-2.7,6.5-10.8,10.7-13.3,11.9c-1.1,0.5-2.4,0.8-3.6,0.8c-1.1,0-2.2-0.2-3.3-0.7c-2.2-0.9-3.9-2.7-4.8-5
				c-1.2-3.2-3.6-11.4-1-17.7c0.2-0.4,0.4-0.8,0.6-1.2c-1.2,0.2-2.5,0.3-3.8,0.3c-6.3,0-12.1-2.4-16.5-6.9
				c-4.4-4.4-6.9-10.3-6.9-16.5c0-1.3,0.1-2.6,0.3-3.8c-0.4,0.2-0.8,0.4-1.2,0.6c-1.9,0.8-4.1,1.2-6.5,1.2c-5.1,0-10.3-1.8-11.3-2.1
				c-2.3-0.8-4.1-2.6-5-4.8c-0.9-2.2-0.9-4.8,0.2-6.9c1.5-3.1,5.6-10.6,11.9-13.2c0.4-0.2,0.8-0.3,1.3-0.5c-5.9-4.3-9.8-11.2-9.8-19
				c0-7.8,3.9-14.8,9.8-19c-0.4-0.1-0.8-0.3-1.3-0.5c-6.5-2.7-10.7-10.8-11.9-13.2c-1-2.2-1.1-4.7-0.1-6.9c0.9-2.2,2.8-4,5-4.8
				c1-0.4,6.2-2.1,11.3-2.1c2.4,0,4.6,0.4,6.5,1.2c0.4,0.2,0.8,0.4,1.2,0.6c-0.2-1.2-0.3-2.5-0.3-3.8c0-6.3,2.4-12.1,6.9-16.5
				c4.4-4.4,10.3-6.9,16.5-6.9c1.3,0,2.6,0.1,3.8,0.3c-0.2-0.4-0.4-0.8-0.6-1.2c-2.7-6.5,0.1-15.3,1-17.8c1.2-3.4,4.5-5.6,8-5.6
				c3.9,0,14,5.7,16.9,12.7c0.2,0.4,0.3,0.8,0.5,1.3c4.3-5.9,11.2-9.8,19-9.8s14.8,3.9,19,9.8c0.1-0.4,0.3-0.8,0.5-1.3
				c2.7-6.5,10.8-10.7,13.3-11.9c1.1-0.5,2.4-0.8,3.6-0.8c1.1,0,2.2,0.2,3.3,0.7c2.2,0.9,4,2.7,4.8,5c1.2,3.2,3.6,11.4,1,17.7
				c-0.2,0.4-0.4,0.8-0.6,1.2c1.2-0.2,2.5-0.3,3.8-0.3c6.3,0,12.1,2.4,16.5,6.9c4.4,4.4,6.9,10.3,6.9,16.5c0,1.3-0.1,2.6-0.3,3.8
				c0.4-0.2,0.8-0.4,1.2-0.6c1.9-0.8,4.1-1.2,6.5-1.2c5.1,0,10.3,1.8,11.3,2.1c2.8,1,4.9,3.5,5.5,6.4c1.2,6.2-7,16.3-12.5,18.5
				c-0.4,0.2-0.8,0.3-1.3,0.5c5.9,4.3,9.8,11.2,9.8,19s-3.9,14.8-9.8,19c0.4,0.1,0.8,0.3,1.3,0.5c6.5,2.7,10.7,10.8,11.9,13.3
				c1,2.2,1.1,4.7,0.1,6.9c-0.9,2.2-2.8,4-5,4.8c-1,0.4-6.2,2.1-11.3,2.1c-2.4,0-4.6-0.4-6.5-1.2c-0.4-0.2-0.8-0.4-1.2-0.6
				c0.2,1.3,0.3,2.5,0.3,3.8c0,6.3-2.4,12.1-6.8,16.5c-4.4,4.4-10.3,6.9-16.5,6.9c-1.3,0-2.6-0.1-3.8-0.3c0.2,0.4,0.4,0.8,0.6,1.2
				c2.7,6.5-0.1,15.3-1,17.8c-0.8,2.3-2.6,4.1-4.8,5C163.4,221.7,162.3,221.9,161.2,221.9z M124.8,180.3c-3.9,5.7-6.3,10.9-6.3,14.1
				c0,1.7,0.6,3.2,1.8,4.5c1.2,1.2,2.8,1.8,4.5,1.8c3.5,0,6.3-2.8,6.3-6.3C131.1,191.2,128.8,186,124.8,180.3z M93.6,189.9
				c1.4,0.1,2.8,0.5,4.2,1c1.4,0.6,2.6,1.3,3.7,2.3c0.3-4.7,2-9.6,4.3-14.2c-1.9-0.4-3.6-1.1-5.2-2.2
				C99,181.7,96.7,186.4,93.6,189.9z M144,179c2.3,4.6,4,9.5,4.3,14.2c1.1-0.9,2.3-1.7,3.7-2.2c1.4-0.6,2.8-0.9,4.2-1
				c-3.1-3.5-5.4-8.2-7-13C147.6,177.9,145.8,178.6,144,179z M163.5,164.2c1.3,6.9,3.3,12.2,5.5,14.4c1.2,1.2,2.8,1.8,4.5,1.8
				s3.3-0.7,4.4-1.8c1.2-1.2,1.8-2.8,1.8-4.5c0-1.7-0.7-3.3-1.8-4.5C175.7,167.6,170.2,165.5,163.5,164.2z M86.2,164.2
				c-6.8,1.3-12.2,3.3-14.4,5.5c-1.2,1.2-1.8,2.8-1.8,4.5s0.7,3.3,1.8,4.5c1.2,1.2,2.8,1.8,4.5,1.8s3.3-0.7,4.5-1.8
				C82.9,176.4,84.9,171.1,86.2,164.2z M176.1,149.8c4.8,1.6,9.5,3.9,13,7c0.1-1.4,0.4-2.8,1-4.2c0.6-1.4,1.3-2.6,2.2-3.7
				c-4.7-0.3-9.6-2-14.2-4.3C177.9,146.6,177.2,148.3,176.1,149.8z M57.3,148.9c0.9,1.1,1.7,2.3,2.2,3.7c0.6,1.4,0.9,2.8,1,4.2
				c3.5-3.1,8.2-5.4,13-7c-1.1-1.5-1.8-3.3-2.1-5.1C66.7,147,61.8,148.7,57.3,148.9z M124.8,119.3c-3.5,0-6.3,2.8-6.3,6.3
				c0,3.5,2.8,6.3,6.3,6.3c3.5,0,6.3-2.8,6.3-6.3C131.1,122.1,128.3,119.3,124.8,119.3z M56.1,119.3c-3.5,0-6.3,2.8-6.3,6.3
				c0,3.5,2.8,6.3,6.3,6.3c3.1,0,8.4-2.4,14.1-6.3C64.4,121.6,59.2,119.3,56.1,119.3z M179.5,125.6c5.8,3.9,10.9,6.3,14.1,6.3
				c3.5,0,6.3-2.8,6.3-6.3c0-3.5-2.8-6.3-6.3-6.3C190.5,119.3,185.2,121.7,179.5,125.6z M57.3,102.2c4.7,0.3,9.6,2,14.2,4.3
				c0.3-1.9,1.1-3.6,2.1-5.2c-4.8-1.6-9.5-3.8-13-7c-0.1,1.4-0.5,2.8-1,4.2C58.9,99.9,58.2,101.1,57.3,102.2z M176.1,101.3
				c1.1,1.5,1.8,3.3,2.1,5.1c4.5-2.3,9.5-4,14.2-4.3c-0.9-1.1-1.7-2.3-2.2-3.7c-0.6-1.4-0.9-2.8-1-4.2
				C185.6,97.5,180.9,99.7,176.1,101.3z M173.5,70.7c-1.7,0-3.3,0.7-4.5,1.8c-2.2,2.2-4.2,7.7-5.5,14.4c6.8-1.3,12.2-3.3,14.4-5.5
				c1.2-1.2,1.8-2.8,1.8-4.4s-0.7-3.3-1.8-4.5C176.7,71.3,175.1,70.7,173.5,70.7z M76.2,70.7c-1.7,0-3.3,0.7-4.5,1.8
				c-1.2,1.2-1.8,2.8-1.8,4.5c0,1.7,0.7,3.3,1.8,4.4c2.2,2.2,7.6,4.2,14.4,5.5c-1.3-6.8-3.3-12.2-5.5-14.4
				C79.5,71.3,77.9,70.7,76.2,70.7z M143.9,72.2c1.9,0.4,3.6,1.1,5.2,2.1c1.6-4.8,3.9-9.5,7-13c-1.4-0.1-2.9-0.5-4.2-1
				c-1.4-0.6-2.6-1.3-3.7-2.2C148,62.7,146.2,67.6,143.9,72.2z M93.6,61.3c3.2,3.5,5.4,8.2,7,13c1.5-1,3.3-1.8,5.1-2.1
				c-2.3-4.7-4-9.7-4.2-14.2c-1.1,0.9-2.3,1.7-3.7,2.3C96.4,60.8,95,61.2,93.6,61.3z M124.8,50.5c-3.5,0-6.3,2.8-6.3,6.3
				c0,3.1,2.4,8.4,6.3,14.1c3.9-5.7,6.3-10.9,6.3-14.1C131.1,53.4,128.3,50.5,124.8,50.5z"/>
			<path class="st1" d="M88.5,35.3c1.4,0,9.4,4.3,11.3,9c1.7,4.1-0.3,8.8-4.3,10.5c-1,0.4-2,0.6-3.1,0.6c-3.3,0-6.2-1.9-7.4-4.9
				c-2-4.7,0.8-12.6,1.1-13.4C86.5,35.9,87.4,35.3,88.5,35.3 M92.4,50.2c0.4,0,0.8-0.1,1.1-0.2c1.5-0.6,2.2-2.3,1.6-3.8
				c-0.6-1.6-3-3.3-5.1-4.6c-0.6,2.5-0.9,5.4-0.3,6.8C90.2,49.5,91.2,50.2,92.4,50.2 M161.2,35.3c0.3,0,0.7,0.1,1,0.2
				c0.7,0.3,1.2,0.8,1.4,1.5c0.5,1.4,3,8.8,1.1,13.4c-1.2,3-4.2,4.9-7.4,4.9c-1.1,0-2.1-0.2-3.1-0.6c-4.1-1.7-6-6.4-4.3-10.5
				c2-4.8,9.4-8.3,10.3-8.7C160.5,35.3,160.8,35.3,161.2,35.3 M157.3,50.2c1.2,0,2.2-0.7,2.7-1.8c0.6-1.5,0.3-4.4-0.3-6.8
				c-2.2,1.4-4.4,3.1-5.1,4.6c-0.6,1.5,0.1,3.2,1.6,3.8C156.5,50.1,156.9,50.2,157.3,50.2 M124.8,39.4c9.6,0,17.4,7.8,17.4,17.4
				c0,12.5-14.9,29-15.5,29.7c-0.5,0.5-1.2,0.8-1.9,0.8c-0.3,0-0.6-0.1-0.9-0.2c-1.7-0.7-16.5-18.1-16.5-30.3
				C107.4,47.2,115.2,39.4,124.8,39.4 M124.8,80.9c3.9-4.7,12.3-15.8,12.3-24c0-6.8-5.5-12.3-12.3-12.3c-6.8,0-12.3,5.5-12.3,12.3
				C112.5,64.4,120.2,75.3,124.8,80.9 M173.5,59.6c4.6,0,9,1.8,12.3,5.1c3.3,3.3,5.1,7.7,5.1,12.3c0,4.6-1.8,9-5.1,12.3
				c-8.7,8.7-30,9.9-31.8,10c-0.1,0-0.2,0-0.2,0h0c-1.2,0-2.3-0.8-2.5-2c0-0.2-0.1-0.5,0-0.7c0.1-2.5,1.5-23.3,10-31.9
				C164.4,61.4,168.8,59.6,173.5,59.6 M156.5,94c6-0.6,19.9-2.5,25.7-8.3c2.3-2.3,3.6-5.4,3.6-8.7c0-3.3-1.3-6.4-3.6-8.7
				c-2.3-2.3-5.4-3.6-8.7-3.6c-3.3,0-6.4,1.3-8.7,3.6C159.6,73.5,157.2,86,156.5,94 M76.2,59.6c4.6,0,9,1.8,12.3,5.1
				c8.4,8.4,9.8,28.6,10,31.6c0,0.1,0,0.3,0,0.5c0,1.4-1.1,2.6-2.6,2.6c0,0,0,0,0,0c0,0,0,0,0,0c0,0-0.1,0-0.1,0
				c-0.9,0-23.1-1.2-31.9-10c-3.3-3.3-5.1-7.7-5.1-12.3c0-4.6,1.8-9,5.1-12.3C67.2,61.4,71.6,59.6,76.2,59.6 M93.2,94
				c-0.6-6-2.5-19.9-8.3-25.7c-2.3-2.3-5.4-3.6-8.7-3.6c-3.3,0-6.4,1.3-8.7,3.6c-2.3,2.3-3.6,5.4-3.6,8.7c0,3.3,1.3,6.4,3.6,8.7
				C73.3,91.4,87.2,93.4,93.2,94 M108.3,77.9c2.1,0,4,0.8,5.5,2.3c3,3,3,7.9,0,10.9c-1.5,1.5-3.4,2.3-5.5,2.3c-2.1,0-4-0.8-5.5-2.3
				c-3-3-3-7.9,0-10.9C104.3,78.7,106.2,77.9,108.3,77.9 M108.3,88.3c0.7,0,1.4-0.2,1.9-0.7c1-1,1-2.7,0-3.7
				c-0.5-0.5-1.2-0.8-1.9-0.8c-0.7,0-1.4,0.3-1.9,0.8c-1,1-1,2.7,0,3.7C106.9,88,107.6,88.3,108.3,88.3 M141.4,77.9
				c4.3,0,7.7,3.5,7.7,7.7c0,4.3-3.5,7.7-7.7,7.7c-4.3,0-7.7-3.5-7.7-7.7C133.6,81.4,137.1,77.9,141.4,77.9 M141.4,88.3
				c1.5,0,2.6-1.2,2.6-2.6c0-1.5-1.2-2.6-2.6-2.6c-1.5,0-2.6,1.2-2.6,2.6C138.7,87.1,139.9,88.3,141.4,88.3 M204.2,85
				c4.3,0,9.1,1.7,9.3,1.8c0.8,0.3,1.5,1,1.6,1.9c0.4,2.2-4.8,10.1-8.9,11.8c-1,0.4-2,0.6-3.1,0.6c-3.3,0-6.2-1.9-7.4-4.9
				c-1.7-4.1,0.3-8.8,4.3-10.5C201.2,85.3,202.6,85,204.2,85 M203.1,96.1c0.4,0,0.7-0.1,1.1-0.2c1.6-0.6,3.3-3,4.6-5.1
				c-1.4-0.3-3.1-0.6-4.6-0.6c-1.2,0-1.8,0.2-2.2,0.3c-1.5,0.6-2.2,2.3-1.6,3.8C200.9,95.4,202,96.1,203.1,96.1 M45.5,85
				c1.6,0,3,0.2,4.2,0.7c2,0.8,3.5,2.4,4.3,4.3c0.8,2,0.8,4.2,0,6.1c-1.2,3-4.1,4.9-7.4,4.9c-1.1,0-2.1-0.2-3.1-0.6
				c-4.7-2-8.3-9.4-8.7-10.3c-0.3-0.7-0.3-1.4,0-2.1c0.3-0.7,0.8-1.2,1.5-1.4C36.7,86.6,41.3,85,45.5,85 M46.6,96.1
				c1.2,0,2.2-0.7,2.7-1.8c0.3-0.7,0.3-1.5,0-2.2c-0.3-0.7-0.9-1.3-1.6-1.6c-0.4-0.2-1-0.3-2.2-0.3c-1.5,0-3.2,0.3-4.6,0.6
				c1.4,2.2,3.1,4.4,4.6,5.1C45.8,96,46.2,96.1,46.6,96.1 M124.8,95.2c16.8,0,30.4,13.6,30.4,30.4c0,16.8-13.6,30.4-30.4,30.4
				s-30.4-13.6-30.4-30.4C94.4,108.8,108.1,95.2,124.8,95.2 M124.8,150.9c13.9,0,25.3-11.3,25.3-25.3c0-13.9-11.3-25.3-25.3-25.3
				c-13.9,0-25.3,11.3-25.3,25.3C99.5,139.5,110.9,150.9,124.8,150.9 M164.8,101.3c2.1,0,4,0.8,5.5,2.3c1.5,1.5,2.3,3.4,2.3,5.5
				c0,2.1-0.8,4-2.3,5.5c-1.5,1.5-3.4,2.3-5.5,2.3c-2.1,0-4-0.8-5.5-2.3c-3-3-3-7.9,0-10.9C160.7,102.1,162.7,101.3,164.8,101.3
				 M164.8,111.7c0.7,0,1.4-0.2,1.9-0.7c0.5-0.5,0.8-1.2,0.8-1.9c0-0.7-0.3-1.4-0.8-1.9c-0.5-0.5-1.2-0.8-1.9-0.8
				c-0.7,0-1.4,0.3-1.9,0.8c-1,1-1,2.7,0,3.7C163.4,111.4,164.1,111.7,164.8,111.7 M84.9,101.3c4.3,0,7.7,3.5,7.7,7.7
				c0,2.1-0.8,4-2.3,5.5c-1.5,1.5-3.4,2.3-5.5,2.3c0,0,0,0,0,0c-4.3,0-7.7-3.5-7.7-7.7c0-2.1,0.8-4,2.3-5.5
				C80.9,102.1,82.9,101.3,84.9,101.3 M84.9,111.7c0.7,0,1.4-0.3,1.9-0.8c0.5-0.5,0.8-1.2,0.8-1.9c0-1.5-1.2-2.6-2.6-2.6
				c-0.7,0-1.4,0.3-1.9,0.8c-0.5,0.5-0.8,1.2-0.8,1.9C82.3,110.5,83.5,111.7,84.9,111.7 M193.6,108.2c9.6,0,17.4,7.8,17.4,17.4
				c0,9.6-7.8,17.4-17.4,17.4h0c0,0,0,0,0,0c-12.5,0-29-14.9-29.7-15.5c-0.5-0.5-0.8-1.2-0.8-1.9c0-0.7,0.3-1.4,0.8-1.9
				C165.7,122.1,181.4,108.2,193.6,108.2 M193.6,137.9L193.6,137.9c6.8,0,12.3-5.5,12.3-12.3c0-6.8-5.5-12.3-12.3-12.3
				c-7.4,0-17.9,7.2-24,12.3C174.2,129.4,185.4,137.9,193.6,137.9 M124.8,108.2c9.6,0,17.4,7.8,17.4,17.4s-7.8,17.4-17.4,17.4
				c-9.6,0-17.4-7.8-17.4-17.4S115.2,108.2,124.8,108.2 M124.8,137.9c6.8,0,12.3-5.5,12.3-12.3c0-6.8-5.5-12.3-12.3-12.3
				c-6.8,0-12.3,5.5-12.3,12.3C112.5,132.4,118.1,137.9,124.8,137.9 M56.1,108.2c12.5,0,29,14.9,29.7,15.5c0.8,0.7,1,1.8,0.7,2.8
				c-0.7,1.7-18.1,16.5-30.3,16.5c-9.6,0-17.4-7.8-17.4-17.4S46.5,108.2,56.1,108.2 M56.1,137.9c7.6,0,18.5-7.7,24-12.3
				c-4.7-3.9-15.8-12.3-24-12.3c-6.8,0-12.3,5.5-12.3,12.3C43.8,132.4,49.3,137.9,56.1,137.9 M84.9,134.4c2.1,0,4,0.8,5.5,2.3
				c1.5,1.5,2.3,3.4,2.3,5.5c0,2.1-0.8,4-2.3,5.5c-1.5,1.5-3.4,2.3-5.5,2.3c-2.1,0-4-0.8-5.5-2.3c-1.5-1.5-2.3-3.4-2.3-5.5
				c0-2.1,0.8-4,2.3-5.5C80.9,135.2,82.9,134.4,84.9,134.4 M84.9,144.7c0.7,0,1.4-0.2,1.9-0.7c0.5-0.5,0.8-1.2,0.8-1.9
				c0-0.7-0.3-1.4-0.8-1.9c-0.5-0.5-1.2-0.8-1.9-0.8c-0.7,0-1.4,0.3-1.9,0.8c-0.5,0.5-0.8,1.2-0.8,1.9c0,0.7,0.3,1.4,0.8,1.9
				C83.6,144.5,84.2,144.7,84.9,144.7 M164.7,134.4c4.3,0,7.7,3.5,7.7,7.7c0,4.3-3.5,7.7-7.7,7.7c-4.3,0-7.7-3.5-7.7-7.7
				C157,137.8,160.5,134.4,164.7,134.4 M164.8,144.7c1.5,0,2.6-1.2,2.6-2.6c0-1.5-1.2-2.6-2.6-2.6c-0.7,0-1.4,0.3-1.9,0.8
				c-0.5,0.5-0.8,1.2-0.8,1.9C162.1,143.6,163.3,144.7,164.8,144.7 M46.6,150c3.3,0,6.2,1.9,7.4,4.9c0.8,2,0.8,4.2,0,6.1
				c-0.8,2-2.4,3.5-4.3,4.3c-1.1,0.5-2.5,0.7-4.2,0.7c-4.3,0-9.1-1.7-9.3-1.8c-0.7-0.2-1.2-0.8-1.5-1.4c-0.3-0.7-0.3-1.4,0.1-2.1
				c0.6-1.4,4.1-8.3,8.7-10.2C44.5,150.2,45.5,150,46.6,150 M45.5,161c1.2,0,1.8-0.2,2.2-0.3c0.7-0.3,1.3-0.9,1.6-1.6
				c0.3-0.7,0.3-1.5,0-2.2c-0.5-1.1-1.6-1.8-2.7-1.8c-0.4,0-0.7,0.1-1.1,0.2c-1.5,0.6-3.3,2.9-4.6,5.1C42.2,160.7,43.9,161,45.5,161
				 M203.1,150c1.1,0,2.1,0.2,3.1,0.6c4.8,2,8.3,9.4,8.7,10.3c0.3,0.7,0.3,1.4,0,2.1c-0.3,0.7-0.8,1.2-1.5,1.4
				c-0.5,0.2-5.1,1.8-9.3,1.8c-1.6,0-3-0.2-4.2-0.7c-4.1-1.7-6-6.4-4.3-10.5C197,151.9,199.9,150,203.1,150 M204.2,161
				c1.5,0,3.2-0.3,4.6-0.6c-1.4-2.2-3.1-4.4-4.6-5.1c-0.4-0.1-0.7-0.2-1.1-0.2c-1.2,0-2.2,0.7-2.7,1.8c-0.6,1.5,0.1,3.2,1.6,3.8
				C202.4,160.8,203,161,204.2,161 M96,151.9c0.7,0,1.3,0.3,1.8,0.7c0.5,0.5,0.8,1.2,0.7,1.9c0,0.9-1.2,23.1-10,31.9
				c-3.3,3.3-7.7,5.1-12.3,5.1c-4.6,0-9-1.8-12.3-5.1c-3.3-3.3-5.1-7.7-5.1-12.3c0-4.6,1.8-9,5.1-12.3c8.9-8.9,31-10,32-10
				C95.9,151.9,96,151.9,96,151.9 M76.2,186.5c3.3,0,6.4-1.3,8.7-3.6c5.8-5.8,7.7-19.6,8.3-25.7c-6,0.6-19.9,2.5-25.7,8.3
				c-2.3,2.3-3.6,5.4-3.6,8.7c0,3.3,1.3,6.4,3.6,8.7C69.9,185.2,72.9,186.5,76.2,186.5 M153.7,151.9
				C153.8,151.9,153.8,151.9,153.7,151.9c2.5,0.1,23.4,1.4,32,10c6.8,6.8,6.8,17.8,0,24.6c-3.3,3.3-7.7,5.1-12.3,5.1
				c-4.6,0-9-1.8-12.3-5.1c-8.9-8.9-10-31-10-32c0-0.7,0.2-1.4,0.7-1.9C152.4,152.1,153,151.9,153.7,151.9 M173.5,186.5
				c3.3,0,6.4-1.3,8.7-3.6c4.8-4.8,4.8-12.6,0-17.4c-5.2-5.2-17.8-7.6-25.7-8.3c0.6,6,2.5,19.9,8.3,25.7
				C167.1,185.2,170.2,186.5,173.5,186.5 M108.3,157.7c4.3,0,7.7,3.5,7.7,7.7c0,4.3-3.5,7.7-7.7,7.7h0c-4.3,0-7.7-3.5-7.7-7.7
				C100.6,161.2,104,157.7,108.3,157.7 M108.3,168.1c1.5,0,2.6-1.2,2.6-2.6c0-1.5-1.2-2.6-2.6-2.6c-1.5,0-2.6,1.2-2.6,2.6
				C105.7,166.9,106.9,168.1,108.3,168.1 M141.4,157.8c2.1,0,4,0.8,5.5,2.3c1.5,1.5,2.3,3.4,2.3,5.5c0,2.1-0.8,4-2.3,5.5
				c-1.5,1.5-3.4,2.3-5.5,2.3c-2.1,0-4-0.8-5.5-2.3c-3-3-3-7.9,0-10.9C137.4,158.6,139.3,157.8,141.4,157.8 M141.4,168.1
				c0.7,0,1.4-0.2,1.9-0.7c0.5-0.5,0.8-1.2,0.8-1.9c0-0.7-0.3-1.4-0.8-1.9c-0.5-0.5-1.2-0.8-1.9-0.8c-0.7,0-1.4,0.3-1.9,0.8
				c-1,1-1,2.7,0,3.7C140,167.9,140.7,168.1,141.4,168.1 M124.9,163.8c0.9,0,1.6,0.4,2.1,1.1c1.9,2.1,15.3,17.6,15.3,29.4
				c0,9.6-7.8,17.4-17.4,17.4c-4.6,0-9-1.8-12.3-5.1c-3.3-3.3-5.1-7.7-5.1-12.3c0-12.5,14.9-29,15.5-29.7c0.5-0.5,1.1-0.8,1.8-0.8
				C124.8,163.8,124.8,163.8,124.9,163.8L124.9,163.8 M124.8,206.6c6.8,0,12.3-5.5,12.3-12.3c0-8.2-8.4-19.3-12.3-24
				c-3.9,4.7-12.3,15.8-12.3,24c0,3.3,1.3,6.4,3.6,8.7C118.5,205.4,121.6,206.6,124.8,206.6 M157.3,195.8c3.3,0,6.2,1.9,7.4,4.9
				c2,4.8-0.8,12.6-1.1,13.4c-0.2,0.7-0.8,1.2-1.4,1.5c-0.3,0.1-0.6,0.2-1,0.2c-0.4,0-0.7-0.1-1.1-0.2c-1.4-0.7-8.3-4.1-10.2-8.7
				c-1.7-4.1,0.3-8.8,4.3-10.5C155.2,196,156.2,195.8,157.3,195.8 M159.6,209.6c0.6-2.5,0.9-5.4,0.3-6.8c-0.5-1.1-1.5-1.8-2.7-1.8
				c-0.4,0-0.8,0.1-1.1,0.2c-1.5,0.6-2.2,2.3-1.6,3.8C155.2,206.5,157.5,208.3,159.6,209.6 M92.4,195.8c1.1,0,2.1,0.2,3.1,0.6
				c4.1,1.7,6,6.4,4.3,10.5c-2,4.8-9.4,8.3-10.3,8.7c-0.3,0.2-0.7,0.2-1.1,0.2c-0.3,0-0.7-0.1-1-0.2c-0.7-0.3-1.2-0.8-1.4-1.5
				c-0.5-1.4-3-8.8-1.1-13.4C86.3,197.8,89.2,195.8,92.4,195.8 M90,209.6c2.2-1.4,4.4-3.1,5.1-4.6c0.6-1.5-0.1-3.2-1.6-3.8
				c-0.4-0.1-0.7-0.2-1.1-0.2c-1.2,0-2.2,0.7-2.7,1.8C89.1,204.2,89.4,207.1,90,209.6 M88.5,23.3c-6.1,0-11.6,3.9-13.7,9.6
				c-1,2.8-2.8,8.7-2.4,15c-6.4,0.8-12.3,3.7-16.9,8.4c-4.6,4.6-7.5,10.5-8.4,16.9c-0.5,0-1.1,0-1.6,0c-5.9,0-11.7,1.9-13.3,2.5
				c-3.9,1.4-7,4.3-8.5,8.1c-1.6,3.8-1.5,8.1,0.2,11.8c1.3,2.7,4.2,8.2,8.9,12.3c-3.8,5-6.1,11.2-6.1,17.9c0,6.7,2.3,12.9,6.1,17.9
				c-4.4,3.9-7.3,9-8.8,12.3c-1.7,3.7-1.9,8-0.3,11.8c1.6,3.8,4.7,6.8,8.5,8.1c1.2,0.4,7.2,2.5,13.4,2.5c0.5,0,1.1,0,1.6,0
				c0.8,6.4,3.7,12.3,8.4,16.9c4.6,4.6,10.5,7.5,16.9,8.4c-0.4,5.8,1.2,11.5,2.4,14.9c1.4,3.8,4.3,6.9,8.1,8.5
				c1.8,0.7,3.7,1.1,5.6,1.1c2.1,0,4.2-0.5,6.2-1.4c2.7-1.3,8.2-4.2,12.3-8.9c5.1,3.9,11.3,6.1,17.9,6.1c6.7,0,12.9-2.3,17.9-6.1
				c3.9,4.4,9,7.3,12.3,8.8c1.9,0.9,4.1,1.4,6.2,1.4c1.9,0,3.8-0.4,5.5-1.1c3.8-1.6,6.7-4.7,8.1-8.5c1-2.8,2.8-8.7,2.4-15
				c6.4-0.8,12.3-3.7,16.9-8.4c4.7-4.7,7.5-10.7,8.3-16.9c0.5,0,1.1,0,1.6,0c5.9,0,11.7-1.9,13.3-2.5c3.8-1.4,7-4.3,8.5-8.1
				c1.6-3.8,1.5-8.1-0.3-11.8c-1.3-2.7-4.2-8.2-8.9-12.3c3.8-5,6.1-11.2,6.1-17.9c0-6.7-2.3-12.9-6.1-17.9c2.2-1.9,3.9-4.1,5.2-5.9
				c6.1-8.6,5.1-13.7,4.8-15.4c-1-5-4.6-9.1-9.3-10.8c-1.6-0.6-7.4-2.5-13.4-2.5c-0.5,0-1.1,0-1.6,0c-0.8-6.4-3.7-12.3-8.4-16.9
				c-4.6-4.6-10.5-7.5-16.9-8.4c0.4-5.8-1.2-11.5-2.4-14.9c-1.4-3.8-4.3-7-8.1-8.5c-1.8-0.7-3.7-1.1-5.6-1.1c-2.1,0-4.3,0.5-6.2,1.4
				c-2.7,1.3-8.2,4.2-12.3,8.9c-5-3.8-11.2-6.1-17.9-6.1c-6.7,0-12.9,2.3-17.9,6.1c-1.7-1.9-3.8-3.7-6.2-5.4
				C93.7,23.3,89.8,23.3,88.5,23.3L88.5,23.3z M124.8,58.2c-0.2-0.6-0.3-1.1-0.3-1.4c0-0.1,0.1-0.3,0.3-0.3c0.2,0,0.3,0.1,0.3,0.3
				C125.1,57.1,125,57.6,124.8,58.2L124.8,58.2z M172.5,78c0.3-0.6,0.6-1,0.8-1.2c0.1-0.1,0.1-0.1,0.2-0.1c0.1,0,0.1,0,0.2,0.1
				c0.1,0.1,0.1,0.1,0.1,0.2c0,0.1,0,0.1-0.1,0.2C173.4,77.4,173,77.7,172.5,78L172.5,78z M77.2,78c-0.6-0.3-1-0.6-1.2-0.8
				c-0.1-0.1-0.1-0.1-0.1-0.2c0-0.1,0-0.1,0.1-0.2c0.1-0.1,0.1-0.1,0.2-0.1c0.1,0,0.1,0,0.2,0.1C76.7,77,76.9,77.4,77.2,78L77.2,78z
				 M124.8,125.9c-0.2,0-0.3-0.1-0.3-0.3c0-0.2,0.1-0.3,0.3-0.3s0.3,0.1,0.3,0.3C125.1,125.7,125,125.9,124.8,125.9L124.8,125.9z
				 M56.1,125.9c-0.1,0-0.3-0.1-0.3-0.3c0-0.2,0.1-0.3,0.3-0.3c0.3,0,0.8,0.1,1.4,0.3C56.9,125.8,56.4,125.9,56.1,125.9L56.1,125.9z
				 M76.2,174.5c-0.1,0-0.1,0-0.2-0.1c-0.1-0.1-0.1-0.1-0.1-0.2c0-0.1,0-0.1,0.1-0.2c0.2-0.2,0.6-0.5,1.2-0.8
				c-0.3,0.6-0.6,1-0.8,1.2C76.4,174.5,76.3,174.5,76.2,174.5L76.2,174.5z M173.5,174.5c-0.1,0-0.1,0-0.2-0.1
				c-0.2-0.2-0.5-0.6-0.8-1.2c0.6,0.3,1,0.6,1.2,0.8c0,0,0.1,0.1,0.1,0.2c0,0.1-0.1,0.2-0.1,0.2
				C173.6,174.5,173.6,174.5,173.5,174.5L173.5,174.5z M124.8,194.6c-0.1,0-0.1,0-0.2-0.1c-0.1-0.1-0.1-0.1-0.1-0.2
				c0-0.3,0.1-0.8,0.3-1.4c0.2,0.6,0.3,1.1,0.3,1.4C125.1,194.5,125,194.6,124.8,194.6L124.8,194.6z"/>
		</g>
	</g>
	<circle class="st2" cx="124.8" cy="125.6" r="20.5"/>
</g>
</svg>
