<?xml version="1.0" encoding="utf-8"?>
<!-- Generator: Adobe Illustrator 19.1.0, SVG Export Plug-In . SVG Version: 6.00 Build 0)  -->
<svg version="1.1" id="Layer_1" xmlns="http://www.w3.org/2000/svg" xmlns:xlink="http://www.w3.org/1999/xlink" x="0px" y="0px"
	 viewBox="0 0 250 250" style="enable-background:new 0 0 250 250;" xml:space="preserve">
<style type="text/css">
	.st0{fill:#FFF46D;}
	.st1{fill:#231F20;}
	.st2{fill:#B6DCB8;}
	.st3{fill:#00BABA;}
</style>
<g>
	<g>
		<path class="st0" d="M160.3,173.4c-2.7,0-5.2-0.7-7.7-2.1l-0.7-0.4c-0.8-0.4-1.3-1.3-1.3-2.2l0-24.7c0-0.8,0.4-1.6,1.1-2.1
			c-0.7-0.5-1.1-1.2-1.1-2.1l0-24.5c0-0.9,0.5-1.7,1.3-2.2c0.4-0.2,0.8-0.3,1.3-0.3s0.9,0.1,1.3,0.3l23.8,13.7
			c8.9,5.1,8.4,14.5,8,22c-0.3,5.6-0.4,9,1.7,10.2c1.2,0.7,1.6,2.2,0.9,3.4c-0.5,0.8-1.3,1.3-2.2,1.3c-0.4,0-0.9-0.1-1.2-0.3
			c-0.4-0.3-0.9-0.4-1.4-0.4c-2.1,0-5.1,1.9-8.3,4C171.2,170.1,166.1,173.4,160.3,173.4z"/>
		<g>
			<path class="st1" d="M153.2,115.4c3.9,2.3,13.5,7.8,23.8,13.7c13.4,7.7,1.6,27.5,9.6,32.2c-0.8-0.5-1.7-0.7-2.7-0.7
				c-6.4,0-14.4,10.3-23.6,10.3c-2.1,0-4.2-0.5-6.4-1.8c-0.2-0.1-0.5-0.3-0.7-0.4l0-24.7l21.3,10.3l-21.3-14.4L153.2,115.4
				 M153.2,110.4c-0.9,0-1.7,0.2-2.5,0.7c-1.5,0.9-2.5,2.5-2.5,4.3l0,24.5c0,0.7,0.2,1.4,0.4,2.1c-0.3,0.6-0.4,1.3-0.4,2.1l0,24.7
				c0,1.8,1,3.4,2.5,4.3l0.4,0.2l0.3,0.2c2.8,1.6,5.8,2.5,8.9,2.5c6.5,0,12.2-3.7,16.7-6.7c2.4-1.6,5.5-3.6,6.9-3.6
				c0.1,0,0.1,0,0.2,0l2.5-4.3l2.5-4.3c-0.9-0.5-0.6-5.5-0.4-7.9c0.4-7.3,1-18.4-9.2-24.3L160,113.6l-4.3-2.5
				C154.9,110.6,154.1,110.4,153.2,110.4L153.2,110.4z"/>
		</g>
	</g>
	<g>
		<path class="st0" d="M95.9,138.1c-0.4,0-0.9-0.1-1.3-0.3L70.9,124c-8.9-5.1-8.4-14.5-8-22c0.3-5.6,0.4-9-1.7-10.2
			c-1.2-0.7-1.6-2.2-0.9-3.4c0.5-0.8,1.3-1.3,2.2-1.3c0.4,0,0.9,0.1,1.2,0.3c0.4,0.3,0.9,0.4,1.4,0.4c0,0,0,0,0,0
			c2.1,0,5.1-1.9,8.3-4c4.5-2.9,9.6-6.3,15.4-6.3c2.7,0,5.2,0.7,7.7,2.1l0.7,0.4c0.8,0.4,1.2,1.3,1.2,2.2l0,24.7
			c0,0.8-0.4,1.6-1.1,2.1c0.7,0.5,1.1,1.2,1.1,2.1l0,24.5c0,0.9-0.5,1.7-1.3,2.2C96.8,138,96.3,138.1,95.9,138.1z"/>
		<g>
			<path class="st1" d="M88.8,80.1c2.1,0,4.2,0.5,6.4,1.8c0.2,0.1,0.5,0.3,0.7,0.4l0,24.7L74.6,96.7l21.3,14.4l0,24.5
				c-3.9-2.3-13.5-7.8-23.8-13.7c-13.4-7.7-1.6-27.5-9.6-32.2c0.9,0.5,1.7,0.7,2.7,0.7C71.5,90.4,79.5,80.1,88.8,80.1 M88.8,75.1
				C88.8,75.1,88.8,75.1,88.8,75.1c-6.6,0-12.2,3.7-16.7,6.7c-2.4,1.6-5.5,3.6-6.9,3.6c-0.1,0-0.1,0-0.2,0l-2.5,4.3L60,94
				c0.9,0.5,0.6,5.5,0.4,7.9c-0.4,7.3-1,18.4,9.2,24.3l23.8,13.7c0.8,0.4,1.6,0.7,2.5,0.7c0.9,0,1.7-0.2,2.5-0.7
				c1.5-0.9,2.5-2.5,2.5-4.3l0-24.5c0-0.7-0.2-1.4-0.4-2.1c0.3-0.6,0.4-1.3,0.4-2.1l0-24.7c0-1.8-1-3.4-2.5-4.3L98,77.8l-0.3-0.2
				C94.9,76,91.9,75.1,88.8,75.1L88.8,75.1z"/>
		</g>
	</g>
	<g>
		<path class="st2" d="M101.5,108.2c-0.4,0-0.9-0.1-1.3-0.3c-0.8-0.4-1.3-1.3-1.3-2.2V78.3c0-10.3,8.4-14.5,15.1-17.9
			c5-2.5,8-4.2,8-6.5c0-1.4,1.1-2.5,2.5-2.5s2.5,1.1,2.5,2.5c0,2.3,3,4,8,6.5c6.7,3.4,15.1,7.6,15.1,17.9v0.8c0,0.9-0.5,1.7-1.3,2.2
			l-21.4,12.3c-0.4,0.2-0.8,0.3-1.3,0.3c-0.4,0-0.7-0.1-1.1-0.2c-0.1,0.8-0.5,1.6-1.2,2l-21.2,12.2
			C102.4,108.1,101.9,108.2,101.5,108.2z"/>
		<g>
			<path class="st1" d="M124.6,53.8c0,9.3,23.1,9,23.1,24.4v0.8l-21.4,12.3l-1.7-23.6l-1.9,25.6l-21.2,12.2V78.3
				C101.5,62.8,124.6,63.1,124.6,53.8 M124.6,48.8c-2.8,0-5,2.2-5,5c0,1-4.5,3.2-6.6,4.3c-6.6,3.3-16.5,8.3-16.5,20.1v27.4
				c0,1.8,1,3.4,2.5,4.3c0.8,0.4,1.6,0.7,2.5,0.7c0.9,0,1.7-0.2,2.5-0.7l21.2-12.2c0.6-0.4,1.2-0.8,1.6-1.4c0.7-0.1,1.4-0.3,2-0.6
				l21.4-12.3c1.5-0.9,2.5-2.5,2.5-4.3v-0.8c0-11.8-9.9-16.8-16.5-20.1c-2.1-1.1-6.6-3.3-6.6-4.3C129.6,51.1,127.3,48.8,124.6,48.8
				L124.6,48.8z"/>
		</g>
	</g>
	<g>
		<path class="st3" d="M88.8,173.4c-5.8,0-10.9-3.3-15.4-6.3c-3.1-2.1-6.1-4-8.3-4c-0.5,0-1,0.1-1.4,0.4c-0.4,0.2-0.8,0.3-1.2,0.3
			c-0.9,0-1.7-0.4-2.2-1.3c-0.7-1.2-0.3-2.7,0.9-3.4c2-1.2,2-4.6,1.7-10.2c-0.4-7.5-0.9-16.9,8-22l0.7-0.4c0.4-0.2,0.8-0.3,1.3-0.3
			s0.9,0.1,1.3,0.3l21.3,12.3c0.7,0.4,1.2,1.2,1.2,2c0.3-0.2,0.7-0.2,1.1-0.2c0.4,0,0.9,0.1,1.3,0.3l21.2,12.2
			c0.8,0.4,1.3,1.3,1.3,2.2c0,0.9-0.5,1.7-1.2,2.2l-23.8,13.7C94,172.7,91.4,173.4,88.8,173.4z"/>
		<g>
			<path class="st1" d="M72.9,128.7L94.2,141l-19.6,13.3l23.1-11.2l21.2,12.2c-3.9,2.3-13.5,7.8-23.8,13.7c-2.2,1.3-4.4,1.8-6.4,1.8
				c-9.3,0-17.3-10.3-23.6-10.3c-0.9,0-1.8,0.2-2.7,0.7c8-4.6-3.8-24.5,9.6-32.2C72.4,129,72.6,128.9,72.9,128.7 M72.9,123.7
				c-0.9,0-1.7,0.2-2.5,0.7l-0.5,0.3l-0.2,0.1c-10.2,5.9-9.6,17-9.2,24.3c0.1,2.4,0.4,7.4-0.4,7.9c-2.4,1.4-3.2,4.4-1.8,6.8
				c0.9,1.6,2.6,2.5,4.3,2.5c0.8,0,1.7-0.2,2.5-0.7c0,0,0.1,0,0.2,0c1.4,0,4.4,2,6.9,3.6c4.5,3,10.2,6.7,16.7,6.7
				c3.1,0,6.1-0.8,8.9-2.5l23.8-13.7c1.5-0.9,2.5-2.5,2.5-4.3c0-1.8-1-3.4-2.5-4.3l-21.2-12.2c-0.6-0.4-1.3-0.6-2-0.6
				c-0.4-0.6-0.9-1.1-1.6-1.4l-21.3-12.3C74.6,123.9,73.7,123.7,72.9,123.7L72.9,123.7z"/>
		</g>
	</g>
	<g>
		<path class="st3" d="M176.3,124.8c-0.4,0-0.9-0.1-1.3-0.3l-21.3-12.3c-0.7-0.4-1.2-1.2-1.2-2c-0.3,0.2-0.7,0.2-1.1,0.2
			c-0.4,0-0.9-0.1-1.3-0.3l-21.2-12.2c-0.8-0.4-1.3-1.3-1.3-2.2s0.5-1.7,1.3-2.2l23.8-13.7c2.4-1.4,5-2.1,7.7-2.1
			c5.8,0,10.9,3.3,15.4,6.3c3.1,2.1,6.1,4,8.3,4c0.5,0,1-0.1,1.4-0.4c0.4-0.2,0.8-0.3,1.2-0.3c0.9,0,1.7,0.4,2.2,1.3
			c0.7,1.2,0.3,2.7-0.9,3.4c-2,1.2-2,4.6-1.7,10.2c0.4,7.5,0.9,16.9-8,22l-0.7,0.4C177.1,124.7,176.7,124.8,176.3,124.8z"/>
		<g>
			<path class="st1" d="M160.3,80.1c9.3,0,17.3,10.3,23.6,10.3c0.9,0,1.8-0.2,2.7-0.7c-8.1,4.6,3.8,24.5-9.6,32.2
				c-0.2,0.1-0.5,0.3-0.7,0.4L154.9,110l19.6-13.3l-23.1,11.2l-21.2-12.2c3.9-2.3,13.5-7.8,23.8-13.7
				C156.1,80.6,158.3,80.1,160.3,80.1 M160.3,75.1L160.3,75.1c-3.1,0-6.1,0.8-8.9,2.5l-23.8,13.7c-1.5,0.9-2.5,2.5-2.5,4.3
				c0,1.8,1,3.4,2.5,4.3l21.2,12.2c0.6,0.4,1.3,0.6,2,0.6c0.4,0.6,0.9,1.1,1.6,1.4l21.3,12.3c0.8,0.4,1.6,0.7,2.5,0.7
				c0.9,0,1.7-0.2,2.5-0.7l0.3-0.2l0.4-0.2c10.2-5.9,9.6-17,9.2-24.3c-0.1-2.4-0.4-7.4,0.4-7.9l-2.5-4.3l-2.5-4.3c0,0-0.1,0-0.2,0
				c-1.4,0-4.4-2-6.9-3.6C172.5,78.8,166.9,75.1,160.3,75.1L160.3,75.1L160.3,75.1z"/>
		</g>
	</g>
	<g>
		<path class="st2" d="M124.6,199.7c-1.4,0-2.5-1.1-2.5-2.5c0-2.3-3-4-8-6.5c-6.7-3.4-15.1-7.6-15.1-17.9v-0.8
			c0-0.9,0.5-1.7,1.3-2.2l21.4-12.3c0.4-0.2,0.8-0.3,1.3-0.3c0.4,0,0.7,0.1,1.1,0.2c0.1-0.8,0.5-1.6,1.2-2l21.2-12.2
			c0.4-0.2,0.8-0.3,1.3-0.3s0.9,0.1,1.3,0.3c0.8,0.4,1.3,1.3,1.3,2.2v27.5c0,10.3-8.4,14.5-15.1,17.9c-5,2.5-8,4.2-8,6.5
			C127.1,198.5,125.9,199.7,124.6,199.7z"/>
		<g>
			<path class="st1" d="M147.6,145.3v27.4c0,15.5-23.1,15.1-23.1,24.4c0-9.3-23.1-9-23.1-24.4v-0.8l21.4-12.3l1.7,23.6l1.9-25.6
				L147.6,145.3 M147.6,140.3c-0.9,0-1.7,0.2-2.5,0.7l-21.2,12.2c-0.6,0.4-1.2,0.8-1.6,1.4c-0.7,0.1-1.4,0.3-2,0.6L99,167.6
				c-1.5,0.9-2.5,2.5-2.5,4.3v0.8c0,11.8,9.9,16.8,16.5,20.1c2.1,1.1,6.6,3.3,6.6,4.3c0,2.8,2.2,5,5,5s5-2.2,5-5
				c0-1,4.5-3.2,6.6-4.3c6.6-3.3,16.5-8.3,16.5-20.1v-27.4c0-1.8-1-3.4-2.5-4.3C149.4,140.5,148.5,140.3,147.6,140.3L147.6,140.3z"
				/>
		</g>
	</g>
</g>
</svg>
