<?xml version="1.0" encoding="utf-8"?>
<!-- Generator: Adobe Illustrator 19.1.0, SVG Export Plug-In . SVG Version: 6.00 Build 0)  -->
<svg version="1.1" id="Layer_1" xmlns="http://www.w3.org/2000/svg" xmlns:xlink="http://www.w3.org/1999/xlink" x="0px" y="0px"
	 width="1024px" height="1024px" viewBox="0 0 1024 1024" style="enable-background:new 0 0 1024 1024;" xml:space="preserve">
<g>
	<linearGradient id="SVGID_1_" gradientUnits="userSpaceOnUse" x1="967.4927" y1="40.3837" x2="189.957" y2="845.4427">
		<stop  offset="0" style="stop-color:#004997"/>
		<stop  offset="1" style="stop-color:#0C1B49"/>
	</linearGradient>
	<rect style="fill:url(#SVGID_1_);" width="1024" height="1024"/>
	<g>
		<linearGradient id="SVGID_2_" gradientUnits="userSpaceOnUse" x1="274.4975" y1="816.4641" x2="711.4312" y2="262.5559">
			<stop  offset="0" style="stop-color:#004997"/>
			<stop  offset="1" style="stop-color:#0C1B49"/>
		</linearGradient>
		<path style="fill:url(#SVGID_2_);" d="M85.5,515.4L512,941.9l426.5-426.5L512,88.9L85.5,515.4z M512,967.9L59.4,515.4L512,62.8
			l452.6,452.6L512,967.9z"/>
		<linearGradient id="SVGID_3_" gradientUnits="userSpaceOnUse" x1="274.4974" y1="816.464" x2="711.4312" y2="262.5559">
			<stop  offset="0" style="stop-color:#004997"/>
			<stop  offset="1" style="stop-color:#0C1B49"/>
		</linearGradient>
		<path style="fill:url(#SVGID_3_);" d="M125,515.4l387,387l387-387l-387-387L125,515.4z M512,928.4L98.9,515.4L512,102.3
			l413.1,413.1L512,928.4z"/>
		<linearGradient id="SVGID_4_" gradientUnits="userSpaceOnUse" x1="274.4973" y1="816.4639" x2="711.4311" y2="262.5558">
			<stop  offset="0" style="stop-color:#004997"/>
			<stop  offset="1" style="stop-color:#0C1B49"/>
		</linearGradient>
		<path style="fill:url(#SVGID_4_);" d="M164.5,515.4L512,862.9l347.5-347.5L512,167.9L164.5,515.4z M512,888.9L138.5,515.4
			L512,141.8l373.5,373.6L512,888.9z"/>
		<linearGradient id="SVGID_5_" gradientUnits="userSpaceOnUse" x1="274.4972" y1="816.4639" x2="711.431" y2="262.5557">
			<stop  offset="0" style="stop-color:#004997"/>
			<stop  offset="1" style="stop-color:#0C1B49"/>
		</linearGradient>
		<path style="fill:url(#SVGID_5_);" d="M204,515.4l308,308l308-308l-308-308L204,515.4z M512,849.4l-334-334l334-334l334,334
			L512,849.4z"/>
		<linearGradient id="SVGID_6_" gradientUnits="userSpaceOnUse" x1="274.4972" y1="816.4638" x2="711.4309" y2="262.5557">
			<stop  offset="0" style="stop-color:#004997"/>
			<stop  offset="1" style="stop-color:#0C1B49"/>
		</linearGradient>
		<path style="fill:url(#SVGID_6_);" d="M243.5,515.4L512,783.8l268.5-268.5L512,246.9L243.5,515.4z M512,809.9L217.5,515.4
			L512,220.8l294.5,294.5L512,809.9z"/>
		<linearGradient id="SVGID_7_" gradientUnits="userSpaceOnUse" x1="274.4971" y1="816.4637" x2="711.4308" y2="262.5556">
			<stop  offset="0" style="stop-color:#004997"/>
			<stop  offset="1" style="stop-color:#0C1B49"/>
		</linearGradient>
		<path style="fill:url(#SVGID_7_);" d="M283,515.4l229,229l229-229l-229-229L283,515.4z M512,770.4l-255-255l255-255l255,255
			L512,770.4z"/>
		<linearGradient id="SVGID_8_" gradientUnits="userSpaceOnUse" x1="274.497" y1="816.4637" x2="711.4307" y2="262.5555">
			<stop  offset="0" style="stop-color:#004997"/>
			<stop  offset="1" style="stop-color:#0C1B49"/>
		</linearGradient>
		<path style="fill:url(#SVGID_8_);" d="M322.6,515.4L512,704.8l189.4-189.4L512,325.9L322.6,515.4z M512,730.9L296.5,515.4
			L512,299.9l215.5,215.5L512,730.9z"/>
		<linearGradient id="SVGID_9_" gradientUnits="userSpaceOnUse" x1="274.4969" y1="816.4636" x2="711.4307" y2="262.5555">
			<stop  offset="0" style="stop-color:#004997"/>
			<stop  offset="1" style="stop-color:#0C1B49"/>
		</linearGradient>
		<path style="fill:url(#SVGID_9_);" d="M362.1,515.4L512,665.3l149.9-149.9L512,365.4L362.1,515.4z M512,691.4l-176-176l176-176
			l176,176L512,691.4z"/>
		<linearGradient id="SVGID_10_" gradientUnits="userSpaceOnUse" x1="274.4968" y1="816.4636" x2="711.4306" y2="262.5554">
			<stop  offset="0" style="stop-color:#004997"/>
			<stop  offset="1" style="stop-color:#0C1B49"/>
		</linearGradient>
		<path style="fill:url(#SVGID_10_);" d="M401.6,515.4L512,625.8l110.4-110.4L512,405L401.6,515.4z M512,651.9L375.5,515.4
			L512,378.9l136.5,136.5L512,651.9z"/>
		<linearGradient id="SVGID_11_" gradientUnits="userSpaceOnUse" x1="274.4967" y1="816.4635" x2="711.4305" y2="262.5554">
			<stop  offset="0" style="stop-color:#004997"/>
			<stop  offset="1" style="stop-color:#0C1B49"/>
		</linearGradient>
		<path style="fill:url(#SVGID_11_);" d="M441.1,515.4l70.9,70.9l70.9-70.9L512,444.5L441.1,515.4z M512,612.4l-97-97l97-97l97,97
			L512,612.4z"/>
	</g>
</g>
<g>
</g>
<g>
</g>
<g>
</g>
<g>
</g>
<g>
</g>
<g>
</g>
<g>
</g>
<g>
</g>
<g>
</g>
<g>
</g>
<g>
</g>
<g>
</g>
<g>
</g>
<g>
</g>
<g>
</g>
</svg>
