<?xml version="1.0" encoding="utf-8"?>
<!-- Generator: Adobe Illustrator 19.1.0, SVG Export Plug-In . SVG Version: 6.00 Build 0)  -->
<svg version="1.1" id="Layer_1" xmlns="http://www.w3.org/2000/svg" xmlns:xlink="http://www.w3.org/1999/xlink" x="0px" y="0px"
	 width="1024px" height="1024px" viewBox="0 0 1024 1024" style="enable-background:new 0 0 1024 1024;" xml:space="preserve">
<linearGradient id="SVGID_1_" gradientUnits="userSpaceOnUse" x1="967.4927" y1="40.3837" x2="189.957" y2="845.4427">
	<stop  offset="0.2899" style="stop-color:#EF8000"/>
	<stop  offset="0.687" style="stop-color:#FFCB00"/>
</linearGradient>
<rect style="fill:url(#SVGID_1_);" width="1024" height="1024"/>
<g>
	<linearGradient id="SVGID_2_" gradientUnits="userSpaceOnUse" x1="122.6138" y1="755.9159" x2="958.6367" y2="284.5779">
		<stop  offset="0.1964" style="stop-color:#EC6A06"/>
		<stop  offset="0.7517" style="stop-color:#FFCB00"/>
	</linearGradient>
	<path style="fill:url(#SVGID_2_);" d="M85.5,536.4L512,962.9l426.5-426.5L512,109.9L85.5,536.4z M512,989L59.4,536.4L512,83.8
		l452.6,452.6L512,989z"/>
	<linearGradient id="SVGID_3_" gradientUnits="userSpaceOnUse" x1="122.6139" y1="755.9161" x2="958.6368" y2="284.5781">
		<stop  offset="0.1964" style="stop-color:#EC6A06"/>
		<stop  offset="0.7517" style="stop-color:#FFCB00"/>
	</linearGradient>
	<path style="fill:url(#SVGID_3_);" d="M125,536.4l387,387l387-387l-387-387L125,536.4z M512,949.4L98.9,536.4L512,123.3
		l413.1,413.1L512,949.4z"/>
	<linearGradient id="SVGID_4_" gradientUnits="userSpaceOnUse" x1="122.614" y1="755.9163" x2="958.6369" y2="284.5783">
		<stop  offset="0.1964" style="stop-color:#EC6A06"/>
		<stop  offset="0.7517" style="stop-color:#FFCB00"/>
	</linearGradient>
	<path style="fill:url(#SVGID_4_);" d="M164.5,536.4L512,883.9l347.5-347.5L512,188.9L164.5,536.4z M512,909.9L138.5,536.4
		L512,162.8l373.5,373.6L512,909.9z"/>
	<linearGradient id="SVGID_5_" gradientUnits="userSpaceOnUse" x1="122.6141" y1="755.9165" x2="958.637" y2="284.5785">
		<stop  offset="0.1964" style="stop-color:#EC6A06"/>
		<stop  offset="0.7517" style="stop-color:#FFCB00"/>
	</linearGradient>
	<path style="fill:url(#SVGID_5_);" d="M204,536.4l308,308l308-308l-308-308L204,536.4z M512,870.4l-334-334l334-334l334,334
		L512,870.4z"/>
	<linearGradient id="SVGID_6_" gradientUnits="userSpaceOnUse" x1="122.6142" y1="755.9167" x2="958.6371" y2="284.5787">
		<stop  offset="0.1964" style="stop-color:#EC6A06"/>
		<stop  offset="0.7517" style="stop-color:#FFCB00"/>
	</linearGradient>
	<path style="fill:url(#SVGID_6_);" d="M243.5,536.4L512,804.9l268.5-268.5L512,267.9L243.5,536.4z M512,830.9L217.5,536.4
		L512,241.9l294.5,294.5L512,830.9z"/>
	<linearGradient id="SVGID_7_" gradientUnits="userSpaceOnUse" x1="122.6143" y1="755.9169" x2="958.6372" y2="284.5789">
		<stop  offset="0.1964" style="stop-color:#EC6A06"/>
		<stop  offset="0.7517" style="stop-color:#FFCB00"/>
	</linearGradient>
	<path style="fill:url(#SVGID_7_);" d="M283,536.4l229,229l229-229l-229-229L283,536.4z M512,791.4l-255-255l255-255l255,255
		L512,791.4z"/>
	<linearGradient id="SVGID_8_" gradientUnits="userSpaceOnUse" x1="122.6144" y1="755.9171" x2="958.6373" y2="284.579">
		<stop  offset="0.1964" style="stop-color:#EC6A06"/>
		<stop  offset="0.7517" style="stop-color:#FFCB00"/>
	</linearGradient>
	<path style="fill:url(#SVGID_8_);" d="M322.6,536.4L512,725.8l189.4-189.4L512,346.9L322.6,536.4z M512,751.9L296.5,536.4
		L512,320.9l215.5,215.5L512,751.9z"/>
	<linearGradient id="SVGID_9_" gradientUnits="userSpaceOnUse" x1="122.6146" y1="755.9172" x2="958.6374" y2="284.5793">
		<stop  offset="0.1964" style="stop-color:#EC6A06"/>
		<stop  offset="0.7517" style="stop-color:#FFCB00"/>
	</linearGradient>
	<path style="fill:url(#SVGID_9_);" d="M362.1,536.4L512,686.3l149.9-149.9L512,386.5L362.1,536.4z M512,712.4l-176-176l176-176
		l176,176L512,712.4z"/>
	<linearGradient id="SVGID_10_" gradientUnits="userSpaceOnUse" x1="122.6147" y1="755.9174" x2="958.6375" y2="284.5794">
		<stop  offset="0.1964" style="stop-color:#EC6A06"/>
		<stop  offset="0.7517" style="stop-color:#FFCB00"/>
	</linearGradient>
	<path style="fill:url(#SVGID_10_);" d="M401.6,536.4L512,646.8l110.4-110.4L512,426L401.6,536.4z M512,672.9L375.5,536.4L512,399.9
		l136.5,136.5L512,672.9z"/>
	<linearGradient id="SVGID_11_" gradientUnits="userSpaceOnUse" x1="122.6148" y1="755.9176" x2="958.6376" y2="284.5796">
		<stop  offset="0.1964" style="stop-color:#EC6A06"/>
		<stop  offset="0.7517" style="stop-color:#FFCB00"/>
	</linearGradient>
	<path style="fill:url(#SVGID_11_);" d="M441.1,536.4l70.9,70.9l70.9-70.9L512,465.5L441.1,536.4z M512,633.4l-97-97l97-97l97,97
		L512,633.4z"/>
</g>
<g>
</g>
<g>
</g>
<g>
</g>
<g>
</g>
<g>
</g>
<g>
</g>
<g>
</g>
<g>
</g>
<g>
</g>
<g>
</g>
<g>
</g>
<g>
</g>
<g>
</g>
<g>
</g>
<g>
</g>
</svg>
