<?xml version="1.0" encoding="utf-8"?>
<!-- Generator: Adobe Illustrator 19.1.0, SVG Export Plug-In . SVG Version: 6.00 Build 0)  -->
<svg version="1.1" id="Layer_1" xmlns="http://www.w3.org/2000/svg" xmlns:xlink="http://www.w3.org/1999/xlink" x="0px" y="0px"
	 width="1024px" height="1024px" viewBox="0 0 1024 1024" style="enable-background:new 0 0 1024 1024;" xml:space="preserve">
<g>
	<linearGradient id="SVGID_1_" gradientUnits="userSpaceOnUse" x1="967.4927" y1="40.3837" x2="189.957" y2="845.4427">
		<stop  offset="0" style="stop-color:#89D1F5"/>
		<stop  offset="1" style="stop-color:#11306F"/>
	</linearGradient>
	<rect style="fill:url(#SVGID_1_);" width="1024" height="1024"/>
	<g>
		<linearGradient id="SVGID_2_" gradientUnits="userSpaceOnUse" x1="147.4413" y1="794.6815" x2="790.8005" y2="295.8201">
			<stop  offset="0" style="stop-color:#89D1F5"/>
			<stop  offset="1" style="stop-color:#11306F"/>
		</linearGradient>
		<path style="fill:url(#SVGID_2_);" d="M85.5,512L512,938.5L938.5,512L512,85.5L85.5,512z M512,964.6L59.4,512L512,59.4L964.6,512
			L512,964.6z"/>
		<linearGradient id="SVGID_3_" gradientUnits="userSpaceOnUse" x1="147.4414" y1="794.6817" x2="790.8006" y2="295.8203">
			<stop  offset="0" style="stop-color:#89D1F5"/>
			<stop  offset="1" style="stop-color:#11306F"/>
		</linearGradient>
		<path style="fill:url(#SVGID_3_);" d="M125,512l387,387l387-387L512,125L125,512z M512,925.1L98.9,512L512,98.9L925.1,512
			L512,925.1z"/>
		<linearGradient id="SVGID_4_" gradientUnits="userSpaceOnUse" x1="147.4416" y1="794.6818" x2="790.8007" y2="295.8205">
			<stop  offset="0" style="stop-color:#89D1F5"/>
			<stop  offset="1" style="stop-color:#11306F"/>
		</linearGradient>
		<path style="fill:url(#SVGID_4_);" d="M164.5,512L512,859.5L859.5,512L512,164.5L164.5,512z M512,885.6L138.5,512L512,138.5
			L885.5,512L512,885.6z"/>
		<linearGradient id="SVGID_5_" gradientUnits="userSpaceOnUse" x1="147.4417" y1="794.682" x2="790.8008" y2="295.8206">
			<stop  offset="0" style="stop-color:#89D1F5"/>
			<stop  offset="1" style="stop-color:#11306F"/>
		</linearGradient>
		<path style="fill:url(#SVGID_5_);" d="M204,512l308,308l308-308L512,204L204,512z M512,846L178,512l334-334l334,334L512,846z"/>
		<linearGradient id="SVGID_6_" gradientUnits="userSpaceOnUse" x1="147.4418" y1="794.6821" x2="790.801" y2="295.8208">
			<stop  offset="0" style="stop-color:#89D1F5"/>
			<stop  offset="1" style="stop-color:#11306F"/>
		</linearGradient>
		<path style="fill:url(#SVGID_6_);" d="M243.5,512L512,780.5L780.5,512L512,243.5L243.5,512z M512,806.5L217.5,512L512,217.5
			L806.5,512L512,806.5z"/>
		<linearGradient id="SVGID_7_" gradientUnits="userSpaceOnUse" x1="147.4419" y1="794.6823" x2="790.8011" y2="295.8209">
			<stop  offset="0" style="stop-color:#89D1F5"/>
			<stop  offset="1" style="stop-color:#11306F"/>
		</linearGradient>
		<path style="fill:url(#SVGID_7_);" d="M283,512l229,229l229-229L512,283L283,512z M512,767L257,512l255-255l255,255L512,767z"/>
		<linearGradient id="SVGID_8_" gradientUnits="userSpaceOnUse" x1="147.442" y1="794.6824" x2="790.8012" y2="295.8211">
			<stop  offset="0" style="stop-color:#89D1F5"/>
			<stop  offset="1" style="stop-color:#11306F"/>
		</linearGradient>
		<path style="fill:url(#SVGID_8_);" d="M322.6,512L512,701.4L701.4,512L512,322.6L322.6,512z M512,727.5L296.5,512L512,296.5
			L727.5,512L512,727.5z"/>
		<linearGradient id="SVGID_9_" gradientUnits="userSpaceOnUse" x1="147.4422" y1="794.6826" x2="790.8013" y2="295.8212">
			<stop  offset="0" style="stop-color:#89D1F5"/>
			<stop  offset="1" style="stop-color:#11306F"/>
		</linearGradient>
		<path style="fill:url(#SVGID_9_);" d="M362.1,512L512,661.9L661.9,512L512,362.1L362.1,512z M512,688L336,512l176-176l176,176
			L512,688z"/>
		<linearGradient id="SVGID_10_" gradientUnits="userSpaceOnUse" x1="147.4423" y1="794.6827" x2="790.8015" y2="295.8214">
			<stop  offset="0" style="stop-color:#89D1F5"/>
			<stop  offset="1" style="stop-color:#11306F"/>
		</linearGradient>
		<path style="fill:url(#SVGID_10_);" d="M401.6,512L512,622.4L622.4,512L512,401.6L401.6,512z M512,648.5L375.5,512L512,375.5
			L648.5,512L512,648.5z"/>
		<linearGradient id="SVGID_11_" gradientUnits="userSpaceOnUse" x1="147.4424" y1="794.6829" x2="790.8016" y2="295.8215">
			<stop  offset="0" style="stop-color:#89D1F5"/>
			<stop  offset="1" style="stop-color:#11306F"/>
		</linearGradient>
		<path style="fill:url(#SVGID_11_);" d="M441.1,512l70.9,70.9l70.9-70.9L512,441.1L441.1,512z M512,609l-97-97l97-97l97,97L512,609
			z"/>
	</g>
</g>
<g>
</g>
<g>
</g>
<g>
</g>
<g>
</g>
<g>
</g>
<g>
</g>
<g>
</g>
<g>
</g>
<g>
</g>
<g>
</g>
<g>
</g>
<g>
</g>
<g>
</g>
<g>
</g>
<g>
</g>
</svg>
