<?xml version="1.0" encoding="utf-8"?>
<!-- Generator: Adobe Illustrator 19.1.0, SVG Export Plug-In . SVG Version: 6.00 Build 0)  -->
<svg version="1.1" id="Layer_1" xmlns="http://www.w3.org/2000/svg" xmlns:xlink="http://www.w3.org/1999/xlink" x="0px" y="0px"
	 width="1024px" height="1024px" viewBox="0 0 1024 1024" style="enable-background:new 0 0 1024 1024;" xml:space="preserve">
<g>
	<linearGradient id="SVGID_1_" gradientUnits="userSpaceOnUse" x1="967.4927" y1="40.3837" x2="189.957" y2="845.4427">
		<stop  offset="0" style="stop-color:#89D1F5"/>
		<stop  offset="1" style="stop-color:#11306F"/>
	</linearGradient>
	<rect style="fill:url(#SVGID_1_);" width="1024" height="1024"/>
	<g>
		<linearGradient id="SVGID_2_" gradientUnits="userSpaceOnUse" x1="50.2412" y1="512" x2="973.7587" y2="512">
			<stop  offset="0" style="stop-color:#89D1F5"/>
			<stop  offset="1" style="stop-color:#11306F"/>
		</linearGradient>
		<path style="fill:url(#SVGID_2_);" d="M50.2,131.6h923.5L512,892.4L50.2,131.6z M948.7,146H75.3L512,865.6L948.7,146z"/>
		<linearGradient id="SVGID_3_" gradientUnits="userSpaceOnUse" x1="86.0338" y1="503.1512" x2="937.9661" y2="503.1512">
			<stop  offset="0" style="stop-color:#89D1F5"/>
			<stop  offset="1" style="stop-color:#11306F"/>
		</linearGradient>
		<path style="fill:url(#SVGID_3_);" d="M86,152.2H938L512,854.1L86,152.2z M912.9,166.7H111.1L512,827.2L912.9,166.7z"/>
		<linearGradient id="SVGID_4_" gradientUnits="userSpaceOnUse" x1="121.8264" y1="494.3028" x2="902.1735" y2="494.3028">
			<stop  offset="0" style="stop-color:#89D1F5"/>
			<stop  offset="1" style="stop-color:#11306F"/>
		</linearGradient>
		<path style="fill:url(#SVGID_4_);" d="M121.8,172.8h780.3L512,815.8L121.8,172.8z M877.1,187.3H146.9L512,788.9L877.1,187.3z"/>
		<linearGradient id="SVGID_5_" gradientUnits="userSpaceOnUse" x1="157.619" y1="485.4537" x2="866.3809" y2="485.4537">
			<stop  offset="0" style="stop-color:#89D1F5"/>
			<stop  offset="1" style="stop-color:#11306F"/>
		</linearGradient>
		<path style="fill:url(#SVGID_5_);" d="M157.6,193.5h708.8L512,777.4L157.6,193.5z M841.3,207.9H182.7L512,750.6L841.3,207.9z"/>
		<linearGradient id="SVGID_6_" gradientUnits="userSpaceOnUse" x1="193.4113" y1="476.6046" x2="830.5887" y2="476.6046">
			<stop  offset="0" style="stop-color:#89D1F5"/>
			<stop  offset="1" style="stop-color:#11306F"/>
		</linearGradient>
		<path style="fill:url(#SVGID_6_);" d="M193.4,214.1h637.2L512,739.1L193.4,214.1z M805.5,228.6h-587L512,712.2L805.5,228.6z"/>
		<linearGradient id="SVGID_7_" gradientUnits="userSpaceOnUse" x1="229.2039" y1="467.7554" x2="794.796" y2="467.7554">
			<stop  offset="0" style="stop-color:#89D1F5"/>
			<stop  offset="1" style="stop-color:#11306F"/>
		</linearGradient>
		<path style="fill:url(#SVGID_7_);" d="M229.2,234.8h565.6L512,700.7L229.2,234.8z M769.7,249.2H254.3L512,673.9L769.7,249.2z"/>
		<linearGradient id="SVGID_8_" gradientUnits="userSpaceOnUse" x1="264.9965" y1="458.907" x2="759.0034" y2="458.907">
			<stop  offset="0" style="stop-color:#89D1F5"/>
			<stop  offset="1" style="stop-color:#11306F"/>
		</linearGradient>
		<path style="fill:url(#SVGID_8_);" d="M265,255.4h494l-247,407L265,255.4z M733.9,269.9H290.1L512,635.5L733.9,269.9z"/>
		<linearGradient id="SVGID_9_" gradientUnits="userSpaceOnUse" x1="300.7891" y1="450.0579" x2="723.2108" y2="450.0579">
			<stop  offset="0" style="stop-color:#89D1F5"/>
			<stop  offset="1" style="stop-color:#11306F"/>
		</linearGradient>
		<path style="fill:url(#SVGID_9_);" d="M300.8,276h422.4L512,624.1L300.8,276z M698.1,290.5H325.9L512,597.2L698.1,290.5z"/>
		<linearGradient id="SVGID_10_" gradientUnits="userSpaceOnUse" x1="336.5817" y1="441.2091" x2="687.4182" y2="441.2091">
			<stop  offset="0" style="stop-color:#89D1F5"/>
			<stop  offset="1" style="stop-color:#11306F"/>
		</linearGradient>
		<path style="fill:url(#SVGID_10_);" d="M336.6,296.7h350.8L512,585.7L336.6,296.7z M662.3,311.1H361.7L512,558.9L662.3,311.1z"/>
		<linearGradient id="SVGID_11_" gradientUnits="userSpaceOnUse" x1="372.374" y1="432.36" x2="651.626" y2="432.36">
			<stop  offset="0" style="stop-color:#89D1F5"/>
			<stop  offset="1" style="stop-color:#11306F"/>
		</linearGradient>
		<path style="fill:url(#SVGID_11_);" d="M372.4,317.3h279.3L512,547.4L372.4,317.3z M626.6,331.8H397.4L512,520.5L626.6,331.8z"/>
	</g>
</g>
<g>
</g>
<g>
</g>
<g>
</g>
<g>
</g>
<g>
</g>
<g>
</g>
<g>
</g>
<g>
</g>
<g>
</g>
<g>
</g>
<g>
</g>
<g>
</g>
<g>
</g>
<g>
</g>
<g>
</g>
</svg>
