<?xml version="1.0" encoding="utf-8"?>
<!-- Generator: Adobe Illustrator 19.1.0, SVG Export Plug-In . SVG Version: 6.00 Build 0)  -->
<svg version="1.1" id="Layer_1" xmlns="http://www.w3.org/2000/svg" xmlns:xlink="http://www.w3.org/1999/xlink" x="0px" y="0px"
	 width="1024px" height="1024px" viewBox="0 0 1024 1024" style="enable-background:new 0 0 1024 1024;" xml:space="preserve">
<g>
	<radialGradient id="SVGID_1_" cx="512" cy="512" r="512" gradientUnits="userSpaceOnUse">
		<stop  offset="0" style="stop-color:#454443"/>
		<stop  offset="0.8825" style="stop-color:#3B3A39"/>
		<stop  offset="0.9341" style="stop-color:#3A3938"/>
	</radialGradient>
	<rect style="fill:url(#SVGID_1_);" width="1024" height="1024"/>
	<g style="opacity:0.15;">
		<rect x="432.6" y="640.1" transform="matrix(0.7071 0.7071 -0.7071 0.7071 659.0127 -92.3635)" width="16.8" height="218.4"/>
		<rect x="456.4" y="663.9" transform="matrix(0.7071 0.7071 -0.7071 0.7071 682.7722 -102.2049)" width="16.8" height="218.4"/>
		<rect x="480.1" y="687.6" transform="matrix(0.7071 0.7071 -0.7071 0.7071 706.5316 -112.0464)" width="16.8" height="218.4"/>
		<rect x="503.9" y="711.4" transform="matrix(0.7071 0.7071 -0.7071 0.7071 730.291 -121.8879)" width="16.8" height="218.4"/>
		<rect x="527.6" y="735.2" transform="matrix(0.7071 0.7071 -0.7071 0.7071 754.0504 -131.7294)" width="16.8" height="218.4"/>
		<rect x="551.4" y="758.9" transform="matrix(0.7071 0.7071 -0.7071 0.7071 777.8098 -141.5708)" width="16.8" height="218.4"/>
		<rect x="575.2" y="782.7" transform="matrix(0.7071 0.7071 -0.7071 0.7071 801.5692 -151.4123)" width="16.8" height="218.4"/>
		<rect x="123.7" y="331.2" transform="matrix(0.7071 0.7071 -0.7071 0.7071 350.1404 35.5756)" width="16.8" height="218.4"/>
		<rect x="147.5" y="355" transform="matrix(0.7071 0.7071 -0.7071 0.7071 373.8997 25.7342)" width="16.8" height="218.4"/>
		<rect x="171.2" y="378.8" transform="matrix(0.7071 0.7071 -0.7071 0.7071 397.6592 15.8927)" width="16.8" height="218.4"/>
		<rect x="195" y="402.5" transform="matrix(0.7071 0.7071 -0.7071 0.7071 421.4186 6.0512)" width="16.8" height="218.4"/>
		<rect x="218.8" y="426.3" transform="matrix(0.7071 0.7071 -0.7071 0.7071 445.178 -3.7902)" width="16.8" height="218.4"/>
		<rect x="242.5" y="450" transform="matrix(0.7071 0.7071 -0.7071 0.7071 468.9374 -13.6317)" width="16.8" height="218.4"/>
		<rect x="266.3" y="473.8" transform="matrix(0.7071 0.7071 -0.7071 0.7071 492.6968 -23.4732)" width="16.8" height="218.4"/>
		<rect x="420.7" y="485.7" transform="matrix(-0.7071 0.7071 -0.7071 -0.7071 1153.1965 712.0919)" width="16.8" height="218.4"/>
		<rect x="397" y="509.4" transform="matrix(-0.7071 0.7071 -0.7071 -0.7071 1129.4371 769.4522)" width="16.8" height="218.4"/>
		<rect x="373.2" y="533.2" transform="matrix(-0.7071 0.7071 -0.7071 -0.7071 1105.6777 826.8125)" width="16.8" height="218.4"/>
		<rect x="349.4" y="557" transform="matrix(-0.7071 0.7071 -0.7071 -0.7071 1081.9183 884.1728)" width="16.8" height="218.4"/>
		<rect x="325.7" y="580.7" transform="matrix(-0.7071 0.7071 -0.7071 -0.7071 1058.1589 941.5331)" width="16.8" height="218.4"/>
		<rect x="301.9" y="604.5" transform="matrix(-0.7071 0.7071 -0.7071 -0.7071 1034.3995 998.8934)" width="16.8" height="218.4"/>
		<rect x="278.2" y="628.2" transform="matrix(-0.7071 0.7071 -0.7071 -0.7071 1010.6401 1056.2537)" width="16.8" height="218.4"/>
		<rect x="432.6" y="331.2" transform="matrix(0.7071 0.7071 -0.7071 0.7071 440.607 -182.8301)" width="16.8" height="218.4"/>
		<rect x="456.4" y="355" transform="matrix(0.7071 0.7071 -0.7071 0.7071 464.3664 -192.6716)" width="16.8" height="218.4"/>
		<rect x="480.1" y="378.8" transform="matrix(0.7071 0.7071 -0.7071 0.7071 488.1258 -202.513)" width="16.8" height="218.4"/>
		<rect x="503.9" y="402.5" transform="matrix(0.7071 0.7071 -0.7071 0.7071 511.8852 -212.3545)" width="16.8" height="218.4"/>
		<rect x="527.6" y="426.3" transform="matrix(0.7071 0.7071 -0.7071 0.7071 535.6446 -222.196)" width="16.8" height="218.4"/>
		<rect x="551.4" y="450" transform="matrix(0.7071 0.7071 -0.7071 0.7071 559.4041 -232.0375)" width="16.8" height="218.4"/>
		<rect x="575.2" y="473.8" transform="matrix(0.7071 0.7071 -0.7071 0.7071 583.1635 -241.8789)" width="16.8" height="218.4"/>
		<rect x="729.6" y="485.7" transform="matrix(-0.7071 0.7071 -0.7071 -0.7071 1680.4747 493.6862)" width="16.8" height="218.4"/>
		<rect x="705.8" y="509.4" transform="matrix(-0.7071 0.7071 -0.7071 -0.7071 1656.7153 551.0464)" width="16.8" height="218.4"/>
		<rect x="682.1" y="533.2" transform="matrix(-0.7071 0.7071 -0.7071 -0.7071 1632.9559 608.4067)" width="16.8" height="218.4"/>
		<rect x="658.3" y="557" transform="matrix(-0.7071 0.7071 -0.7071 -0.7071 1609.1964 665.7671)" width="16.8" height="218.4"/>
		<rect x="634.6" y="580.7" transform="matrix(-0.7071 0.7071 -0.7071 -0.7071 1585.437 723.1274)" width="16.8" height="218.4"/>
		<rect x="610.8" y="604.5" transform="matrix(-0.7071 0.7071 -0.7071 -0.7071 1561.6776 780.4877)" width="16.8" height="218.4"/>
		<rect x="587" y="628.2" transform="matrix(-0.7071 0.7071 -0.7071 -0.7071 1537.9182 837.848)" width="16.8" height="218.4"/>
		<rect x="420.7" y="176.8" transform="matrix(-0.7071 0.7071 -0.7071 -0.7071 934.7908 184.8138)" width="16.8" height="218.4"/>
		<rect x="397" y="200.6" transform="matrix(-0.7071 0.7071 -0.7071 -0.7071 911.0314 242.1741)" width="16.8" height="218.4"/>
		<rect x="373.2" y="224.3" transform="matrix(-0.7071 0.7071 -0.7071 -0.7071 887.272 299.5344)" width="16.8" height="218.4"/>
		<rect x="349.4" y="248.1" transform="matrix(-0.7071 0.7071 -0.7071 -0.7071 863.5126 356.8947)" width="16.8" height="218.4"/>
		<rect x="325.7" y="271.8" transform="matrix(-0.7071 0.7071 -0.7071 -0.7071 839.7532 414.255)" width="16.8" height="218.4"/>
		<rect x="301.9" y="295.6" transform="matrix(-0.7071 0.7071 -0.7071 -0.7071 815.9938 471.6153)" width="16.8" height="218.4"/>
		<rect x="278.2" y="319.4" transform="matrix(-0.7071 0.7071 -0.7071 -0.7071 792.2344 528.9756)" width="16.8" height="218.4"/>
		<rect x="740.9" y="331.8" transform="matrix(0.7071 0.7071 -0.7071 0.7071 531.3032 -400.6815)" width="16.8" height="218.4"/>
		<rect x="764.7" y="355.6" transform="matrix(0.7071 0.7071 -0.7071 0.7071 555.0626 -410.523)" width="16.8" height="218.4"/>
		<rect x="788.4" y="379.3" transform="matrix(0.7071 0.7071 -0.7071 0.7071 578.822 -420.3645)" width="16.8" height="218.4"/>
		<rect x="812.2" y="403.1" transform="matrix(0.7071 0.7071 -0.7071 0.7071 602.5814 -430.206)" width="16.8" height="218.4"/>
		<rect x="836" y="426.8" transform="matrix(0.7071 0.7071 -0.7071 0.7071 626.3408 -440.0474)" width="16.8" height="218.4"/>
		<rect x="859.7" y="450.6" transform="matrix(0.7071 0.7071 -0.7071 0.7071 650.1003 -449.8889)" width="16.8" height="218.4"/>
		<rect x="883.5" y="474.4" transform="matrix(0.7071 0.7071 -0.7071 0.7071 673.8597 -459.7304)" width="16.8" height="218.4"/>
		<rect x="432" y="22.9" transform="matrix(0.7071 0.7071 -0.7071 0.7071 222.4308 -272.7424)" width="16.8" height="218.4"/>
		<rect x="455.8" y="46.7" transform="matrix(0.7071 0.7071 -0.7071 0.7071 246.1902 -282.5839)" width="16.8" height="218.4"/>
		<rect x="479.6" y="70.4" transform="matrix(0.7071 0.7071 -0.7071 0.7071 269.9496 -292.4254)" width="16.8" height="218.4"/>
		<rect x="503.3" y="94.2" transform="matrix(0.7071 0.7071 -0.7071 0.7071 293.7091 -302.2668)" width="16.8" height="218.4"/>
		<rect x="527.1" y="118" transform="matrix(0.7071 0.7071 -0.7071 0.7071 317.4685 -312.1083)" width="16.8" height="218.4"/>
		<rect x="550.8" y="141.7" transform="matrix(0.7071 0.7071 -0.7071 0.7071 341.2279 -321.9498)" width="16.8" height="218.4"/>
		<rect x="574.6" y="165.5" transform="matrix(0.7071 0.7071 -0.7071 0.7071 364.9873 -331.7912)" width="16.8" height="218.4"/>
		<rect x="729" y="177.4" transform="matrix(-0.7071 0.7071 -0.7071 -0.7071 1461.5146 -32.2537)" width="16.8" height="218.4"/>
		<rect x="705.3" y="201.1" transform="matrix(-0.7071 0.7071 -0.7071 -0.7071 1437.7552 25.1066)" width="16.8" height="218.4"/>
		<rect x="681.5" y="224.9" transform="matrix(-0.7071 0.7071 -0.7071 -0.7071 1413.9958 82.4669)" width="16.8" height="218.4"/>
		<rect x="657.8" y="248.6" transform="matrix(-0.7071 0.7071 -0.7071 -0.7071 1390.2365 139.8272)" width="16.8" height="218.4"/>
		<rect x="634" y="272.4" transform="matrix(-0.7071 0.7071 -0.7071 -0.7071 1366.4771 197.1875)" width="16.8" height="218.4"/>
		<rect x="610.2" y="296.2" transform="matrix(-0.7071 0.7071 -0.7071 -0.7071 1342.7175 254.5478)" width="16.8" height="218.4"/>
		<rect x="586.5" y="319.9" transform="matrix(-0.7071 0.7071 -0.7071 -0.7071 1318.9581 311.9081)" width="16.8" height="218.4"/>
	</g>
</g>
<g>
</g>
<g>
</g>
<g>
</g>
<g>
</g>
<g>
</g>
<g>
</g>
<g>
</g>
<g>
</g>
<g>
</g>
<g>
</g>
<g>
</g>
<g>
</g>
<g>
</g>
<g>
</g>
<g>
</g>
</svg>
